<svg id="calendar-typography"
     x="0" y="0" width="1000" height="750" viewBox="0 0 1000 750"
     xmlns="http://www.w3.org/2000/svg" version="1.1">
    <path class="some-path" d="M69.6 175.7c-.7.2-1.3.2-1.7.5-1.6.8-3.2.5-4.8.2-1.5-.3-2.4-1.6-2.3-3 0-.9 1.4-2.6 2.3-2.7.8-.1 1.4.3 1.7 1-.6 1.5-.6 1.5-2.3 2.5.7 1.7 2.3 1.5 3.6 1.4 1.2-.1 2.3-.6 3.5-.9-.2-1.1-.3-2.1-.4-3.1-.5-4.1-.6-8.1.1-12.2v-.1c.1-1-.1-2 1-2.7.9-.5 1.5-1.2 2.6-1.5 1-.3 2-.4 3.1-.3 1.3.1 1.8.9 2.3 1.9 1.1 2.3.9 4.8.6 7.2-.2 1.1-.9 2-1.4 3-.1 0-.2 0-.3-.1 0-.2-.2-.6-.1-.7 1.3-1.6 1.1-3.5 1-5.4 0-.4-.2-.8-.2-1.1.2-1.6-.8-2.4-2.1-2.7-1.3-.3-2.6.1-3.5 1.2-1 1.4-1.7 2.9-2.1 4.6-.5 2.5-.1 4.8.3 7.3.1.9.2 1.7.3 2.6l.3 1.5c1.5-.4 2.8-.9 4.1-1.2 1.5-.3 3-.4 4.6-.4.5 0 1.1.3 1.5.6.5.4 1 1 .6 1.6-.3.5-.9.8-1.5 1-.2.1-.6-.2-.8-.4-.5-.6-.9-1.2-1.5-1.9-2.3.4-4.9.5-7 1.7.1 2.7.2 5.2.3 7.7.1 1.5.2 3.1.2 4.6-.1 1.6-.3 3.1-.5 4.7 0 .4-.1.7-.1 1.1.1 1.4-.4 2.5-1 3.7-.7 1.5-1.8 2.4-3.5 2.6l-3.3.3c-.8 0-.8 0-1.5-.9.3-.1.5-.1.7-.1 2.2.1 3.8-.9 5.1-2.5 1.2-1.5 2-3.2 2.3-5.1.6-3.6.4-7.3.3-10.9 0-1.1-.1-2.1-.1-3.2-.2-.4-.3-.8-.4-1.4zM126.2 178.8c2.7 1.2 5.2 2.3 7.4 4.1-.3.5-.5.5-.9.3-.9-.5-1.9-.9-2.7-1.5-1.8-1.3-4-1.5-6-2.2-.8-.3-1.8.3-2.9.5.2 1.5.3 2.9.5 4.2.2 1.3.1 1.6-1.1 2.1-.9.4-1.6 1.3-2.7 1-.1 0-.4.4-.5.6l-.2-.2c.2-1.2.5-2.3.8-3.5.2-.9.3-1.7.3-2.6.2-1.9.3-3.8.5-5.7 0-.5.2-1 .4-1.5.3-.6.7-1 1.5-1.1 1.5-.2 3-.8 4.5-1 1-.1 2 0 3 .2 1.4.5 1.7 2.1.7 3.3-.4.5-.8.9-1.2 1.4-.6.5-.9 1-1.4 1.6zm-5-.2c.9-.2 1.5-.3 2.1-.5.8-.3 1.6-.7 2.4-1 1-.5 1.3-1.4 1.5-2.3.2-.7-.3-1.3-.9-1.4-1.7-.4-3.1-.2-4.7.6-.2.1-.5.4-.5.6 0 1.2 0 2.5.1 4zM87.2 179.9c-.3 1.2.1 2.1 1 2.8 1.7 1.7 3.6 3 5.9 3.7.4.1.7.3 1.1.5 0 .1-.1.2-.1.3-.7-.1-1.4 0-2-.2-2-.7-3.9-1.6-5.5-3.3-.9-.9-1.3-1.9-1.6-3.1-.5-1.7-.5-3.2.4-4.8 1-1.9 2.3-3.5 4-4.8.9-.7 2-1 3.2-.5.7.3 1.5.5 2.1.9 1.2.7 1.5 2.5.5 3.5-2 1.9-4 3.7-6.8 4.2-.8.2-1.5.5-2.2.8zm-.4-.9c2.6-.6 4.5-1.8 6-3.8.5-.7.6-1.5.5-2.3-.1-.7-.9-1.4-1.5-1.1-1 .4-2.1.9-2.8 1.7-1.3 1.4-2 3.3-2.2 5.5zM157.1 176.7c-3.5.6-6.7 1.2-10 1.8.2 3.1 2.4 4.8 4.3 6.7-.4.5-.7.6-1.2.2-1-.9-2-1.7-2.8-2.7-1.8-2-1.8-4.4-1.6-6.9 0-.2.2-.4.2-.6.1-2.2 1.7-3.1 3.5-3.4 1.3-.3 2.8-.1 4.2-.1.3 0 .5.2.8.3 1.3.7 2.1 2 2.8 3.2-.1.4-.2 1-.2 1.5zm-10.1.5c2.3 0 4.3-.5 6.2-1.4.3-.2.7-.6.7-.9 0-.6-.3-1.1-1-1.2-.8-.1-1.5-.5-2.2-.4-.8.1-1.8.3-2.3.8-.8.7-1.3 1.7-1.4 3.1zM116.5 168.1c.3.9-.3 1.2-.7 1.6-2.3 2-4.6 4.1-6.1 6.8-1.1 1.9-2 3.9-3 5.9l-1.5 3.3h-.4c-.1-.3-.3-.6-.3-1-.1-1.3.1-2.7-.1-4-.3-2.2.1-4.4-.7-6.5-.4-1-.8-2-1.3-3.1.2-.4.5-.5.8-.1.4.6 1 1.2 1.2 1.9.5 2 .9 4.1 1.4 6.2 0 .1.1.1.2.2 1.6-2 3.1-4.2 4.8-6.1 1.6-1.8 3.3-3.8 5.7-5.1zM137.9 171.1c.6-.3 1-.3 1 .5s.1 1.5 0 2.3c-.2 2.6.1 5.1.9 7.4-.9.9-.9.9-2.3.7-.2-3.7.8-7.3.4-10.9zM93.2 166.4c.6-.8 1.1-1.5 1.6-2.3.3-.5.7-1 .7-1.5.1-.7.5-1 1.1-1h3.7c-.5.5-.7.9-1.1 1.1-.5.3-1 .6-1.5.8-1.3.7-2.4 1.7-3.4 2.8-.2.5-.5.7-1.1.1zM139.6 164.9c0 .8-.6 1.6-1.3 1.6-.6 0-1.1-.7-1.1-1.5 0-.7.7-1.5 1.3-1.5.5 0 1.1.6 1.1 1.4zM169.8 180.4c1.6 2.5 3.5 4.4 5.7 6.2-.3.5-.5.8-.8 1.2-.3-.1-.4-.1-.5-.2-1.4-1.5-2.8-3.1-4.6-4.2-.9-.5-1.8-1.1-2.6-1.8-1.3-1.2-2.6-1-4.1-.5.1 1.5.2 3 .3 4.6-.2.2-.7.5-1.2.8-.8-.6-1.1-1.2-1-2.2.2-1.6.1-3.2.1-4.7 0-2 .1-4 .1-6.1V172c0-1 .3-1.5 1.2-1.7.6-.1 1.2-.3 1.8-.3 1.8 0 3.7.1 5.5.3 2 .3 3.5 1.6 4.5 3.3.7 1.1.5 2.4-.2 3.5-.8 1.6-2.2 2.7-4.2 3.3zm-6.9-.9h4c.5 0 1 0 1.5-.1 1.9-.2 3.4-1 4.4-2.7.6-1.1.6-2.1-.1-3.1-.8-1.1-1.9-1.8-3.2-2-1.5-.3-3-.1-4.5.2-1.2.2-1.6.9-1.9 1.8-.1.4-.2.8-.2 1.2v4.7zM79.3 233.3c1.7-2.4 3.3-4.7 5-6.9 1-1.3 2.2-2.4 3.3-3.6.8-1 1.6-2 2.6-3 0 .3.1.5.1.7 0 3.9.2 7.8.8 11.7.2 1.3.5 2.6.8 3.9.2 1 .5 2 .6 3.1.1.6-.1 1.2-.3 1.9-.8-1.7-.8-3.6-1.3-5.4-.5-1.8-1-3.6-1.6-5.4-.6-1.8-1.2-3.6-1.9-5.6-.9 1.2-1.8 2.3-2.6 3.4-1.4 2.1-2.7 4.3-4.1 6.4-.7 1.2-1.3 1.2-2.3.2-1.1-1.1-2.3-2.2-3.4-3.3-.2.2-.4.2-.4.4-1.4 3.3-2.8 6.6-3.4 10.1-.3 1.6-.4 3.1-.7 4.7-.1.7-.5 1.3-.7 1.9-.7-.1-.8-.5-.7-1 .3-1.6.6-3.2.8-4.8.3-2.2.7-4.3 1-6.5.2-1.4.5-2.8.7-4.3.1-.9.3-1.9.3-2.8 0-1.1.4-2.1.9-3.1.4-.7.9-.9 1.6-.4.9.6 1.5 1.6 1.9 2.6.1.2.2.5.3.7.7 1.3 1.6 2.7 2.7 4.4zm9.3-9.8c-.1 0-.1-.1-.2-.1-.2.2-.4.5-.6.7l.1.1.7-.7zM98.8 239.5c-.3.7-.7 1.6-.9 2.5-.2.9-.2 1.9-1 2.6-.6-.7-.2-1.4-.1-2 .2-1.1.6-2.2.9-3.3 1-3.3 1.9-6.6 2.9-9.9.4-1.4.7-2.9 1.1-4.3.1-.3.2-.6.5-1.2 1.2 2.4 2.2 4.5 2.7 6.9.7 3.3 1.7 6.5 3.7 9.3.4.5.2.8-.3 1.2-.8-.9-1.7-1.8-2.4-2.8-.7-.8-.9-.9-1.9-.6-1.8.7-3.4 1.1-5.2 1.6zm2.6-8.3c-1.1 2.2-1.7 4.3-2.1 6.7 1.6-.5 3-1 4.6-1.5-.9-1.7-1.4-3.4-2.5-5.2zM128.6 241.6l-7.2-6.6c-.8-.7-1.9-1.3-2.9-1.8-.3-.1-.7-.1-1 0-.6.1-1.3.2-2.1.4.1 1.1.2 2.2.2 3.3 0 .9 0 1.8-.2 2.6-.1.5-.5 1-.8 1.5-.1 0-.2-.1-.3-.1v-.7c.4-3 .1-6-.2-9-.2-2.1-.5-4.3.3-6.4.8-.3 1.5-.7 2.3-1 1.2-.5 2.3-.5 3.4.4 1.3 1.1 2.8 2 3.9 3.2 1.4 1.5 1 3.8-1.1 4.8-.5.2-1 .3-1.7.5.1.2.2.5.3.6 1.7 1.7 3.4 3.5 5.1 5.2.7.7 1.4 1.2 2.2 1.8.9.6.4.9-.2 1.3zm-13.2-9.6c.6 0 .9.1 1.2.1 1.7-.2 3.3-.4 5-.7 1-.2 2-.5 2.3-1.6.3-1.2-.5-2-1.2-2.7-.1-.1-.2-.1-.2-.2-.9-.6-1.8-1.3-2.7-1.9-.9-.6-1.9-.7-2.8-.2-.3.1-.7.5-.7.8-.4 2-.6 4.2-.9 6.4zM139.4 226.9c-1-.2-1.9-.5-2.8-.5-2.7.1-4.3 2.8-3.3 5.2.1.3.4.5.7.7 1 .4 1.9.8 2.9 1.1 2 .5 3.7 1.6 5.3 2.9 1.3 1.1 1.2 3.2-.3 4.1-1 .6-1.8 1.4-2.9 1.8-1.3.6-2.7 1-4.1 1.3-.8.2-1.6.2-2-.9.3-.1.5-.3.8-.3 1.7.1 3.2-.4 4.6-1.2 1.1-.6 1.9-1.8 2.1-3.1.2-1.2-.6-2-1.3-2.8-.7-.8-1.6-1.1-2.6-1.3-1.4-.3-2.7-.7-4-1.1-1-.3-1.4-1.1-1.6-2-.1-.4 0-.9.2-1.2 1.6-2.1 3.7-3.5 6.4-3.9.8-.1 1.1.2 1.9 1.2zM71.4 282.2c-1 2.1-1.1 4.2-1.4 6.2-.1.8 0 1.6-.2 2.4-.1.4-.7.6-1 .9-.2-.3-.6-.7-.5-1 .7-4.2 1.1-8.4 2.7-12.4 2-5 4.8-9.5 8.7-13.2.7-.7 1.3-1.4 2-2 .2-.2.6-.1 1.2-.1-.3 2.3-.7 4.3-.9 6.4-.3 2.9-.3 5.9-.4 8.8-.1 4.1 1.4 7.8 2.5 11.6.3 1-.3 1-.9 1.6-1-3-1.9-5.9-2.9-9.1-2.8-.1-5.9-.1-8.9-.1zm.5-2.2c3 .2 5.6.2 8.1-.5.3-4.7.6-9.2.9-13.7-3.8 4.1-6.9 8.6-9 14.2zM108.4 287.2c0-4.3 0-8.5.1-12.9 2.4-1.4 5-1 7.5-.5 1.5.3 2.9.9 3.8 2.3 1 1.7.9 3-.6 4.2-.7.6-1.6 1-2.6 1.6 1.7 1.9 3.5 3.3 5.4 4.8.3.3.3.3 0 1.4-2-1.6-4.1-3.1-5.9-4.8-1.4-1.3-2.8-1.8-4.6-1.2-.3.1-.7 0-1.2.1-.1 1.3-.3 2.5-.2 3.7.2 1.1-.5 1.2-1.7 1.3zm1.8-7.2h6.3c.4 0 .8-.2 1.2-.4 1.3-.6 1.6-2 .6-3-.7-.6-1.6-1.1-2.5-1.2-1.6-.3-3.2-.2-5.1-.4-.1 1.6-.2 3.2-.5 5zM143.3 285.7c1.8.6 3.4.6 5.1.4.9-.1 1.9-.3 2.8-.5.8-.1 1.7-.2 2.6.7-.5.2-.8.3-1.1.3-1.9.2-3.9.1-5.8.7-2 .6-3.7-.2-5.6-.3-.8-.1-.9-.9-.8-1.6l.3-6.3c.1-2.7.2-5.4.3-8.2 0-.7.2-1.3.1-2-.1-1.4.5-2.3 2-2.8.4 3.3-.1 6.5-.1 9.7.3 3.2.2 6.4.2 9.9zM102 275c0 .5.1 1.1-.1 1.6-.3.7-.7 1.3-1.1 1.8-1.7 2-2.9 4.2-3.7 6.6-.3.8-.8 1.6-1.4 2.7-.9-1.6-1.5-2.8-2.3-3.8-1.5-2-3.1-4-4.7-6-.4-.5-1.2-.8-.6-1.6.4-.6 1.4-.4 2 .4 1.3 1.8 2.6 3.7 3.9 5.5.2.3.5.7 1 1.2 2.9-2.3 4.3-5.8 6.6-8.5 0 0 .2 0 .4.1zM130.4 287.7c-.4-.4-1.1-.8-1.1-1.2-.1-3.2-.1-6.4 0-9.5 0-.8.2-1.6 1.6-1.7-.1 2.1-.2 4.2-.2 6.3 0 2 .2 3.9.4 5.9-.3 0-.5.1-.7.2zM131.6 268.5c-.5.2-1.1.6-1.6.6-.3 0-.9-.5-.9-.9 0-.7.5-1.2 1.2-1 .5.1.9.5 1.3.8.1.1.1.3 0 .5zM251.2 115c-.4.8-.7 1.5-1.1 2.3-1 2-1.7 4.2-2.3 6.4-.2.9-.7 1.8-.9 2.7-.3.9-.5 1.9-.8 2.8-.2.6-.3 1.3-.6 1.9-.1.2-.3.4-.7.5.1-.7.1-1.4.3-2.1.8-2.7 1.3-5.4 1.6-8.2.1-.9.5-1.8.7-2.7.1-.3.1-.7.1-1 .2-1.2.3-2.5.5-3.7.1-.9.5-1.8.5-2.8.1-1 .8-1.8 1.1-2.8 0-.1.3-.2.4-.2.2.1.4.2.4.3l.9 2.4c.1.2.1.4.2.5 1.4 1.4 1.7 3.4 2.5 5.1.6 1.2 1.3 2.3 2.3 3.5.2-1.4 1-2.1 1.6-3l4.5-6.6c.2-.3.2-.6.3-1h.9c0 .1.1.1.1.2 0 .3-.1.6-.2.9-.2 2.1-.5 4.2-.2 6.2.2 1.6.6 3.1 1.2 4.6.4.9.4 1.9.7 2.8l.6 3c.1.4.3.8-.3 1-.6-.7-.6-1.6-.9-2.5-.4-1.4-.9-2.7-1.5-4.1-.4-.8-.6-1.8-.8-2.7-.2-.6-.4-1.1-.5-1.7-.2-.8-.5-1.6-.7-2.4-1.7 2.2-2.9 4.7-4.1 7.4-2-2.2-3.1-5.1-5.8-7zM271.7 125.8c0-.5.1-.9.1-1.4 0-.8.1-1.5.1-2.3 0-.5 0-.9.1-1.4.5-2 1-4.1 1.6-6.1.4-1.2 1.1-2.3 1.7-3.4.1-.2.3-.3.6-.4.6-.3 1.1-.5 1.7-.7.8-.3 1.3-.2 1.7.5.3.5.5 1.2.6 1.8.3 1.1.5 2.3.8 3.4.4 1.3 1 2.5 1.5 3.8.5 1.1.9 2.1 1.4 3.2-.2.1-.3.3-.7.5-.6-1.3-1.1-2.5-1.6-3.8-.3.1-.6.1-.9.2-.4 0-.8.1-1.1 0-1.2-.4-2.3-.2-3.5 0-.5.1-.9 0-1.4 0-.8 0-1 .1-1.2.9-.3 1.3-.5 2.7-.8 4 .1.8-.1 1.1-.7 1.2zm8.7-8.5c-.4-2.1-1.6-3.6-3-5-.3.3-.6.6-1 .8-1.1.9-1.8 2.1-2.3 3.4-.2.6-.3 1.1.1 1.7 2.1-.3 4.2 0 6.2-.9zM292.4 124.3c-.4.5-.9.7-1.4.3-.3-.2-.7-.3-1.1-.5-.9-.4-1.1-.6-1-1.6.1-1.5.3-3 .7-4.5.3-1.1.4-2.3.6-3.5.1-.5.1-1.1.3-1.6.1-.2.4-.5.5-.4.2 0 .4.3.5.5.1.2-.1.5-.1.8-.5 2-.6 3.9-.4 6 0 1.7.7 3 1.4 4.5zM290.7 107.4c0-.2.1-.5.3-.9.2-.5.6-.8 1.1-.6.5.2.8.6.8 1.2s-.5 1.4-1 1.6c-.8.3-1.3-.2-1.2-1.3zM238.2 186.3c.6-.1.9 0 1.3.4 1.3 1.2 2.8 2.1 4.6 2.1.9 0 1.8 0 2.6-.1.3 0 .6-.3.8-.5.4-.4.8-.8 1.2-1.3.2-.3.4-.7.5-1 .1-1.8.1-3.5.1-5.3 0-1.9 0-3.9-.1-5.8-.1-2.2-.3-4.4-.4-6.7-.1-1.8-.3-3.7-.4-5.5 0-.8.1-.9.9-1 1.5-.2 2.1.4 2 1.9-.2 4.3-.6 8.6-.4 12.9.1 2.6.2 5.2.1 7.8 0 1.3-.2 2.6-.6 3.8-.6 1.6-1.8 2.8-3.7 3.1-2.1.3-4-.2-5.6-1.6-.8-.6-1.6-1.2-2.5-1.7-.6-.4-.8-.8-.4-1.5zM283.9 174.8c.3 2.9-.2 5.7.5 8.5-.2.1-.5.3-.9.5-.1-.3-.3-.5-.3-.8v-9.4c0-.5.3-1 .6-1.4.2-.4.7-.3 1.1.1.9 1 1.8 1.9 2.8 2.9.9.9 1.9 1.8 3 2.8.5-2.1.7-4.1 1.1-6 .3-1.9.7-3.9 1-5.9.7.1.9.5.9 1v11.5c0 .7.2 1.3.2 2.1-.7 0-1.3.2-2-.4-1.8-1.5-3.7-2.8-5.6-4.1-.8-.4-1.5-.8-2.4-1.4zM268.3 169.3c.7.2.9.4.9.9 0 3.2.4 6.3-.2 9.5-.2.9-.4 1.9-.8 2.8-.6 1.3-1.7 2.1-3 2.2-1.8.1-3.6-.1-5.3-.3-1.1-.1-1.8-1.1-2.2-2-.3-.7-.4-1.5-.6-2.3-.4-2.4-.3-4.8 0-7.2v-1c-.1-.6.1-1.1.7-1.5.4-.3.7-.3 1.1-.1.4.2.4.6.3 1-.2 1.2-.4 2.3-.6 3.5-.1 1.1-.3 2.3-.3 3.4.1 1.3.4 2.5.6 3.7 0 .2.4.5.6.6 1.4.4 2.8.7 4.2 1.2.6.2 1.1-.1 1.6-.3 1.5-.4 2-1.4 2.3-2.9.5-3.3.7-6.5.4-9.8 0-.6.2-.9.3-1.4zM277.3 183.3c-.6.1-1.1.3-1.6.3s-.6-.4-.6-.8c0-1.3.1-2.5.1-3.8 0-2.2.4-4.4.7-6.6.1-.8.1-1.7.2-2.7l1.5.3c-.1 4.5-.9 8.8-.3 13.3zM279.4 164.6c0 .8-.5 1.2-1.8 1.3-.7 0-1.4-.7-1.4-1.5 0-1 .5-1.5 1.6-1.6.8-.1 1.6.8 1.6 1.8zM204.3 238.3c-.3 2.9 1.4 4.5 3.4 5.8.8.5 2.1.9 3.3.5 1.1-.3 2.3-.5 3.4-.7 1-.2 1.7-.7 2.3-1.4 1.1-1.3 1.7-2.9 2-4.5.4-2.5.6-5 .1-7.6-.4-1.9-.5-3.9-.4-5.8.2-3.2-.1-6.3-.6-9.4 0-.3-.2-.6-.3-.9l1.1-1.1c.7.6.9 1.3.8 2-.3 3.4.2 6.8.5 10.2.2 1.9.2 3.9.2 5.8 0 1.6.1 3.3 0 4.9-.2 1.8-.5 3.6-1.1 5.3-1.2 3-4.2 5-7.9 4.8-1.8-.1-3.2-1-4.5-1.9-1.5-1-2.5-2.3-3.1-3.9-.3-.7 0-1.3.8-2.1zM258.8 208.1c1 .8.9 1.6.6 2.5-1 2.8-2.7 5.4-4.5 8-1.3 1.8-2.3 3.6-2.9 5.8-.5-1.4.3-2.6.8-3.6.9-1.8 2-3.5 3.1-5.2 1.2-1.8 2-3.6 2.6-5.5-.9-.5-1.7-.1-2.2.4-.8.7-1.6 1.4-2 2.2-2.2 3.9-3.2 8.1-3.4 12.4 0 1.5-.2 3-.1 4.5s.6 3 .7 4.5c.2 1.6.8 3.1 1.8 4.5.5.6 1 1.2 1.5 1.9.9-.1 1.7-.2 2.5-.3-1.7 1.6-3.8 1.3-4.7-.6-.1-.1-.2-.3-.3-.4-2-2.3-2.3-5-2.5-7.6-.2-2.5.2-5 .4-7.5.1-1.1-.1-2.2.1-3.3.4-2.2.9-4.5 1.5-6.7.4-1.5 1.5-2.7 2.7-3.9.4-.4 1.1-.7 1.7-.9.8-.6 1.6-.9 2.6-1.2zM270.3 237.1c-1.2 1.3-2.5 2.1-4.3 2.5-1.3.3-2.4.3-3.2-.8-.3-.4-.5-.6-1.1-.4-.1 0-.5-.3-.6-.5-1.6-2.8-2.4-5.8-2.3-9 .1-3.9.7-7.7 1.4-11.4.5-2.6 2.1-4.9 3.7-7.1.6-.9 4-1.6 5-1 .5.2.9.9.9 1.3-.1.8-.3 1.7-.8 2.3-1.6 2.2-3.5 4.2-5 6.4-1.4 1.9-2.4 4-2.5 6.3 0 .2-.1.5-.2.7-.3-1.6.1-3.2.8-4.7 1.2-2.6 3.1-4.9 4.8-7.3.6-.9 1.1-1.9 1.7-3 0 0 .2.1.5.1.2-1.2-.1-1.6-1.4-1.5-1 .1-2 .3-2.8.6-.5.2-.9.7-1.2 1.2-.5.8-1 1.7-1.3 2.5-.3.8-.5 1.6-.7 2.4-.3 1.2-.4 2.4-.8 3.6-.8 2-.6 4-.8 6-.1 1.6 0 3.2.1 4.8.2 2.4 1.4 4.6 2.7 6.7.6 1 2.2 1.3 3.6 1 1-.3 1.9-.7 2.8-1 .2-.4.6-.6 1-.7zM299.1 237.3c-.4.1-.8.3-1.1.2-1.4-.2-2.8-.5-4.2-.8-1.1-.3-1.8-1-2-2-.3-1.5-.5-3-.6-4.5-.1-1.6 0-3.2 0-4.8 0-.2-.1-.4-.1-.7-1.5.3-2.9.6-4.2 1-.9.3-1.8.5-2.8-.2.9-.9 2.2-1 3.4-1.2 1.2-.3 2.4-.4 3.8-.6.2-1 .4-2.1.6-3.3.1-.4.1-.8.2-1.2.1-.7.1-1.5.5-2.1.3-.5 1.1-.7 1.8-1.2-.4 1.4-.9 2.6-1.1 3.8-.3 1.2-.4 2.5-.6 3.9 3.4-.1 6.6-.1 9.4 1.8-3.1-.6-6.2-1.1-9.5-.4 0 1.2-.1 2.3-.1 3.5 0 1.9-.1 3.7.3 5.5.3 1.1.8 1.7 2 2 1.5.4 3 .7 4.6 1.1-.3-.1-.3 0-.3.2zM224.7 230.1c.9-.1 1.1.3 1.1 1 0 1.1-.1 2.2 0 3.4.1 1.4.4 2.7 1.3 3.9.6.9 1.5 1.2 2.7 1 .4-.1.8-.1 1.1-.2 1.3-.3 2.4-.8 2.8-2 .3-1 .7-2 .7-3 .2-2 .7-3.9.3-5.9 0-.2.2-.4.5-.9.3.7.5 1.2.6 1.6.4 2.8.2 5.5-.9 8.2-1.3 3.2-5.1 3.8-7.7 3.3-.6-.1-1.3-.7-1.5-1.2-.5-1.1-.8-2.3-.9-3.5-.2-1.9-.1-3.8-.1-5.7zM281.3 239.7c-1-.2-2-.4-2.9-.6-.8-.2-1.7-.5-2.4-.9-1.9-1-2.6-2.7-2-4.7.6-1.9 2-3.3 3.7-4.3.9-.5 1.9-.8 2.8-1.1.7-.2 1.4 0 1.9.7s.1 1.2-.3 1.7c-.8 1.2-2.3 1.5-3.6 1.9-.7.2-1.4.2-2.1.3-1.1.1-1.4.4-1.5 1.5-.2 1.7.3 2.7 2 3.4 1.3.6 2.7 1.1 4.1 1.6.1.1.2.1.4.2-.1.1-.1.2-.1.3zm-5.1-7.9c2 .1 3.5-.4 4.9-1.3.3-.2.4-.6.6-.9-.4-.2-.8-.5-1.2-.5-2-.1-3.1 1.2-4.3 2.7zM245.3 239.8c-1.2-.3-2-.7-2.3-1.5-.3-.8-.6-1.6-.7-2.4-.2-2.3-.3-4.6-.5-6.9 0-.3.1-.6.2-1 .9.2.9.7.9 1.3 0 1.1.1 2.2 0 3.3-.2 2.6.7 4.9 2.4 7.2zM240.1 223.3c.4-.4.8-1.1 1.4-1.4.4-.3 1.4.6 1.4 1.3 0 .7-.7 1.4-1.5 1.4-.6 0-1.3-.5-1.3-1.3zM242.1 277.3c-1.5.2-2.9.4-4.2.5-.5 0-1.1-.2-1.8-.4-.1.4-.2 1-.2 1.6-.4 3-.7 6-1.1 9v1.2c-.1.8-.5 1.1-1.3 1 0 0-.1 0-.1-.1-.4-.1-.7-.3-1.3-.4.2-2.5 1.2-4.9 1.6-7.4.4-2.5 1-5 1.5-7.5.5-2.4 1.3-4.8 1.8-7.2l1.5-7.5c.7.1 1.3.1 1.2 1 0 .1.1.3.1.4 1.4 2.2 1.7 4.8 2.3 7.3.4 1.9.5 3.9.7 5.9.4 3 .7 5.9 1.1 8.9.2 1.6.5 3.2.7 4.8.1.6.2 1.2-.6 1.8-.5-2.1-.7-4.2-1.1-6.2-.3-2.5-.6-4.6-.8-6.7zm-.4-1.8c.1-1.9-1-9.2-1.6-11.3-.2-.6-.4-1.1-.6-1.8-1.1 1.4-3.2 11.3-3 13.7 1.7-.2 3.4-.4 5.2-.6zM290.3 267.4c-.7 3.8-.1 7.3 1.2 10.6.4 1.1.8 2.2 1.1 3.3-.7 1.6-2.2 1.6-3.8 2-.3-2.6-.6-5.1-.4-7.6.1-2.5.3-5.1.4-7.7-2.6.4-5.2 1.1-7.5 2.3-1.1-.6-.8-1.7-1-2.5 2.8-.2 5.5-.8 8.2-1.3.9-.2 1.9-.3 2.8-.4 2.2-.3 4.5-.5 6.7-.7.8-.1 1.3.2 1.5 1.1-3.1.2-6.1.5-9.2.9zM259.7 275.4c0 2.2-.2 4.4-1.4 6.4-1.9 3.2-6.3 3.4-8.7.5-1.4-1.8-1.7-3.8-1.9-5.9-.2-1.7-.1-3.5.2-5.2.3-2 2.5-4.4 4.5-4.7.8-.1 1.8 0 2.6.3 2.3.9 4.2 2.2 4.3 5 .1 1.2.3 2.4.4 3.6zm-.8-.4c-.1-.7-.2-1.6-.2-2.5-.2-3.1-2-4.6-4.9-5.1-.9-.2-3 .9-3.4 1.8-.7 1.7-1.1 3.6-1 5.5.1 1.2 0 2.5 0 3.7 0 1.6.5 2.9 1.7 4 .7.7 1.4.9 2.3.7.8-.2 1.7-.4 2.5-.6 1.1-.3 1.9-1 2.3-2.1.5-1.8.7-3.5.7-5.4zM277.3 269.2c.7.4.5 1 .5 1.5 0 .6.1 1.1.9 1.2-.5 1.7-1 3.3-1.4 4.9-.7 2.5-3.9 4-6.2 3.9-1.2-.1-2.4-.3-3.6-.8-1.1-.4-1.8-1.1-2.7-1.8-.5-.3-.8-1.1-.9-1.7-.3-1.6-.1-3.1.3-4.7.1-.4.2-.8.7-.6.4.1.4.5.3.9-.1 1.1-.3 2.1-.3 3.2 0 1.2.4 2.1 1.5 2.7 1.1.5 2.2 1.1 3.3 1.5 1.7.6 3.2-.3 4.7-1.1.9-.5 1.3-1.2 1.5-2.1.4-2.2.8-4.4 1.3-6.6-.2-.1-.1-.2.1-.4zM267.2 265.3c1.8-1.8 3.2-3.8 4.1-6.3.1.3.3.6.4.9.2.7.3 1.4.5 2.1.2.8.5 1.5 1.3 2 .5.3.5.7-.1 1.1-.8-.7-1.6-1.4-2.4-2.2-.6.4-1.2.9-1.8 1.3-.6.4-1.1.9-1.7 1.4-.2-.2-.3-.2-.3-.3zM353.3 109.5c-2.5-1.7-6.6 1.5-6.7 4-.1 1.5.8 3.3 2.2 3.9 1.1.4 2.3.8 3.4 1.1 2.1.5 3.5 1.7 4.6 3.6 1 1.7 1.2 3.3.4 5-.4.8-1 1.5-1.6 2.2-1.9 2-4.2 3.2-7 3.2-1.8 0-3.5-.2-5.2-.6-1.6-.3-2.8-1.4-3.8-2.7-.4-.5-.4-1.1.2-1.6.1.1.3.1.3.1.2 2 1.9 2.8 3.4 3.3 2.6.9 5.4 1 8 .1 2.3-.8 4.1-2.3 4.9-4.7.3-1 .3-2-.2-3-.9-2.1-2.4-3.3-4.6-3.9-1-.2-1.9-.7-2.8-1-1.5-.5-2.4-1.6-3-3-.2-.4-.4-.8-.6-1.1-.8-1.2-.7-2.5 0-3.5 1.4-2.1 3.8-3.1 6.5-2.5.6.1 1.1.7 1.6 1.1.1-.3 0-.1 0 0zM442.5 127.7c0-.6-.1-1.3 0-1.9.5-2.2.6-4.4.5-6.7-.1-1.3.1-2.7 0-4 0-.6.4-.9.9-1.2 1.8-.9 3.7-1.2 5.6-.7 1.8.5 3.7 2.3 2.5 4.7-.1.3-.2.6-.3.8-.5 1-.3 1.4.8 1.7 1.3.4 2.2 1.2 2.8 2.2.3.5.6 1.1.7 1.7 0 .4-.3 1-.6 1.3-1.1 1-2.3 1.7-3.8 2.1-1.9.4-3.8.3-5.7.1-1 0-2.1 0-3.4-.1zm1.6-1.3c.6.5 1.3.7 2.2.7 1.1 0 2.1.1 3.2.1 1.9.1 3.6-.7 5.1-1.8.3-.2.5-.6.5-1-.1-1.5-1.3-2.7-2.7-3.1-1.7-.4-3.4-.8-5.1-.6-.8.1-1.7.3-2.5.5-.2.1-.4.5-.5.8-.1 1-.1 2-.1 3 0 .5-.1.9-.1 1.4zm.2-6c1.6-.2 3-.3 4.5-.6.7-.1 1.4-.5 1.9-1 .5-.6.9-1.3 1.1-2.1.3-.8-.3-1.5-1-2-2.1-1.6-4.2-1-6.4-.1.1 2-.3 3.9-.1 5.8zM379.5 123.2v2.4c.1 2.6.3 5.1.5 7.7.1.8-.1 1.3-1.1 1.7 0-.5-.2-.9-.1-1.3.4-1.7.1-3.4.1-5.1 0-1.9-.1-3.8-.2-5.7-.2-2.6-.4-5.1-.6-7.9.8-.9 2-1.1 3.3-1.1 1.6-.1 3.3.1 4.9.2h.6c.5-.1.9 0 1.3.4.1.1.3.3.4.3 1.4.3 1.9 1.6 2.8 2.5.2.2.3.8.1 1.1-.6 1.2-1.3 2.1-2.5 2.8-2.2 1.4-4.7 1.7-7.1 1.9-.7-.1-1.5 0-2.4.1zm0-1.2c1.3-.1 2.4-.2 3.6-.3 1.7 0 3.2-.5 4.7-1.2 1.2-.6 1.8-3.1.8-4-.7-.7-1.6-1.5-2.7-1.7-2.1-.4-4.1-.2-6.1.3-.5.1-.8.4-.7.9.1 1.9.2 3.9.4 6zM374 118.3c-.3 1.2-1 1.3-1.7 1.6-2.8 1.1-5.8 1.2-9 1.4.1.9.1 1.7.2 2.6.2 1.2 1 1.9 2.2 2.3 1.8.5 3.5 1.1 5.3 1.6.1 0 .3.1.6.3-.9.4-1.6.2-2.2.1-1.4-.4-2.7-.8-4.1-1.2-1.9-.6-2.7-1.6-2.9-3.6-.1-1.5-.2-3 .2-4.5.6-2.1 2.7-4.2 4.9-4.6.3-.1.7-.2 1-.2 1.2-.1 2.2.1 3 1.1.9 1 1.8 2.1 2.5 3.1zm-10.6 1.8c2.5.2 5.1-.3 7.1-.8.3-.1.6-.3.8-.6.9-1.3 0-3.4-1.6-3.7-2.2-.4-4.7.8-5.8 3.2-.2.6-.3 1.2-.5 1.9zM458.8 113.8c1.2-.6 2.4-1.3 3.9-1.2 1.9.1 3.6.9 5 2.2.5.5.6 1.4.1 2-.5.6-1.2 1.1-1.8 1.6-.4.3-1 .5-1.7.8.7.7 1.3 1.3 1.9 1.8 1 .9 2.1 1.8 3.3 2.7-.3.2-.5.4-.8.6-1.2-1-2.4-2-3.7-3-.5-.4-1-.8-1.7-.8-.5 0-.9-.3-1.3-.5-1.1-.5-2 0-2 1.2v1.9c0 .5-.1.9-.6.9-.6 0-.6-.5-.6-.9.1-1.8.2-3.6.2-5.4 0-1.3-.1-2.6-.2-3.9zm1.4.1c-.3 1.8-.4 3.4-.3 5 1.8 0 3.4-.6 5-1.3 1-.5 1.6-1.3 1.6-2.4-1.8-1.9-4-2.1-6.3-1.3zM398.4 125c1.2-4.7.5-9.3.5-14.1-.9 0-1.7-.1-2.6-.1-2 0-4-.1-6-.1-.7 0-1.1-.3-1.6-1 .4-.1.8-.3 1.1-.3h9.1c.3 0 .7 0 .9.1.8.6 1.6.4 2.5.3 2.3-.3 4.6-.6 6.9-.8.1 0 .3-.1.4-.1.2.1.4.3.6.5-.2.1-.4.4-.6.4-.8.1-1.7.1-2.5.1-2.1.2-4.2.4-6.4.7-.2 0-.4.2-.6.3 0 .2-.1.3-.1.5.3 2.2-.1 4.3 0 6.5.1 1.5.1 3 .7 4.4.2.4 0 1.1-.3 1.4-.4.6-.7 1.6-2 1.3zM482.1 126.5c-1 .4-2.1.2-3.1-.1-1.2-.3-2.5-.7-3.6-1.4-2-1.2-2.2-4-1.5-6.2.7-2.2 2.2-3.4 4.5-3.9 2.5-.6 4.9-.5 7.2.6.2.1.5.3.6.6.2.4.4.8.6 1.3.3.8.2 1.3-.6 1.6-.7.3-1.5.5-2.2.5-1.3.1-2.5.3-3.8.5-1.8.3-3.6.3-5.5.5-.5 2.1.2 3.7 2.3 4.5 1.6.6 3.3 1 5.1 1.5zm-7.2-6.9c.8-.1 1.6-.1 2.4-.2 1.5-.2 2.9-.3 4.3-.6.7-.1 1.4-.4 2-.8.6-.3.9-1.1.8-1.7-.1-.7-.7-.7-1.2-.8-.4-.1-.8-.1-1.1-.2-1.9-.1-3.7.4-5.4 1.2-.5.2-1 .7-1.3 1.2-.2.5-.9.9-.5 1.9zM416.4 127.1c-.2 0-.3.1-.4.1-2.3-.6-4.7-1.2-7-1.7-1.7-.4-2.7-2.5-2.1-3.9.7-1.7 1.2-3.6 2.8-4.8.5-.4 1-.8 1.6-1 1.1-.3 2.3-.5 3.5-.7 1.3-.2 2.5.2 3.6 1 .6.5 1.3 1.8 1.1 2.6-.1.3-.4.6-.7.7-.6.2-1.3.2-1.9.3l-5.4 1.2c-.9.2-1.8.2-2.7.2-.8.1-1 .2-1.2 1-.3 1.6 0 2.2 1.5 2.8 1 .3 2 .5 3 .8l3.9 1.2c.3-.1.3.1.4.2zm1.2-10.2c-.4-.7-.8-1.3-1.7-1.2-1.5.1-2.9.3-4.2.9-1.1.5-2.1 1.2-2.7 2.3-.2.3-.2.6-.3 1 .6 0 1-.1 1.4-.1 2 .1 3.8-.4 5.6-1.2.8-.4 1.6-.7 1.9-1.7zM425.4 115.8c1 .1 1.6.7 2.1 1.4 1.2 1.9 2.9 3.3 4.8 4.6 1.2-2 2.4-4 3.6-6.2.3.2.6.3.9.6-1.1 2.5-1.2 4.9-.2 7.4.3.6.7 1.2 1 1.8.2.4.5.8 0 1.2-1.3-1.8-2.3-3.8-2.4-6.2-1.2.5-1.3 1.6-1.9 2.1-.6.1-.9.2-1.3.1-.3 0-.6-.2-.8-.4-1.3-1.1-2.6-2.3-3.9-3.4-.2-.1-.3-.3-.5-.4-.4-.3-.8-.2-1 .3-.3.6-.5 1.2-.8 1.8l-3 6c-.2.4-.4.9-1 .3 1.6-3.6 3.5-7.1 4.4-11z" />
    <path class="some-path" d="M353.3 109.5c.2 0 .3-.1.5-.1 1.1 0 2.9 1.5 3.4 2.9-1.2-1.4-2.3-2.6-3.9-2.8zM351.3 186h-1.1c-1.8-.1-3.2-.9-3.9-2.6-1.1-2.6-1.5-5.2-1.3-8 .3-2.9 1.3-5.6 2.5-8.2.8-1.8 2.2-3.1 3.6-4.4.2-.2.6-.2.9-.3 2-.7 4-.3 6-.1 1 .1 2 .3 3 .7.7.3 1.5.7 2 1.3 2 2.2 2.7 4.8 2.5 7.7-.2 2.9-1 5.7-2.7 8.1-2.1 3-4.9 5-8.5 5.6-1 .2-2 .3-2.9.4l-.1-.2zm-4.8-10.8v1.8c.1.8 0 1.7.4 2.3.8 1.5 2.1 2.6 3.7 3.1 1.8.7 3.7 1 5.7.6 1.7-.4 3.4-1 4.5-2.3 3.3-3.8 4.6-8.1 3-13-.7-2.2-2-3.9-4.6-4.1-1.2-.1-2.4-.3-3.6-.4-1.8-.2-3.3 0-4.6 1.6-1.1 1.3-2.1 2.5-2.7 4.1-.8 2.1-1.7 4.2-1.8 6.3zM423.2 169.5c1.7.5 3.4.9 5 1.4 2.5.7 2.2 2.9 1.3 4.3-.5.7-1.3 1.4-2.1 1.8-1.9 1.2-4 1.8-6.2 2-1.3.1-2.7.1-4 .2h-.9c-1 .2-1.3 0-1.3-1.1V166c0-1.3.5-1.6 1.7-1.8.6-.1 1.2-.1 1.7-.3 1.6-.9 2.9-.3 4.3.3.3.1.5.3.8.5 1.2.8 1.4 2 .7 3.3-.3.6-.7 1.1-1 1.5zm-4.9 8.1c3 .5 5.7 0 8.2-1.3.6-.3 1.1-.6 1.6-1.1 1.4-1.3 1.1-2.6-.6-3.3-2.5-1-5-1.3-7.6-.7-1.2.3-1.2.3-2.2-.3-.1 2.3-.2 4.5.6 6.7zm-.7-7.1c.9-.2 1.7-.3 2.4-.4 1.3-.2 2.3-.9 3-1.9.8-1.2.5-2.4-.8-3-.6-.3-1.3-.5-1.9-.6-1.7-.2-3 1.1-2.9 2.8.1 1 .2 2.1.2 3.1zM459.5 176.7c-1.1.7-2.3.6-3.4.6-2.8 0-4.6-1.4-5.5-4-.5-1.5-.8-2.9-.5-4.5.1-.6.1-1.3.1-1.9 0-2 .9-3.5 2.5-4.4.8-.5 2-.6 3-.6 2.7-.1 4.9 1.6 5.7 4.2.2.6.4 1.3.6 1.9.3 1.2.3 1.2-.1 2.4-3.5-.6-7 .4-10.5.3 0 1.8.8 3.2 1.9 4.4.6.6 1.3 1.1 2.2 1.2 1.1.1 2.2.1 3.3.2.1.1.4.2.7.2zm-8.2-7.5c.3 0 .7.2 1 .1 2.5-.3 5-.6 7.5-1 .2 0 .6-.4.6-.6-.2-1.7-.7-3-2.5-3.4-.3-.1-.5-.1-.8-.1-3.3-.7-5.9 1.4-5.8 5zM441.6 171.4c1.3 2 2.8 3.5 4.5 4.9-.2.4-.4.7-.6.9-.2-.1-.3-.1-.4-.1-1.1-1.2-2.2-2.5-3.6-3.3-.7-.4-1.5-.9-2.1-1.5-1-.9-2.1-.8-3.3-.4.1 1.2.2 2.4.2 3.7-.2.1-.6.4-.9.6-.6-.5-.9-.9-.8-1.8.2-1.2.1-2.5.1-3.8 0-1.6 0-3.2.1-4.8v-1.2c0-.8.2-1.2 1-1.4.5-.1 1-.3 1.5-.3 1.5 0 2.9 0 4.4.2 1.6.2 2.8 1.3 3.6 2.6.6.9.4 1.9-.2 2.8-.8 1.5-1.9 2.4-3.5 2.9zm-5.5-.8h3.2c.4 0 .8 0 1.2-.1 1.5-.2 2.7-.8 3.5-2.2.5-.9.5-1.7-.1-2.5-.6-.9-1.5-1.4-2.6-1.6-1.2-.2-2.4-.1-3.6.2-.9.2-1.3.7-1.5 1.5-.1.3-.1.6-.1.9v3.8zM403.8 166.2h1.1c1-.1 1.8.4 2.4 1.2.6.8 1.1 1.5 1.5 2.4.7 1.6.1 3.6-1.2 4.7s-2.6 2-4.3 2.2c-1.5.2-4.5-.2-5.5-2.1-.8-1.6-1.4-3.3-.8-5 .6-1.6 2-2.5 3.6-3 1-.3 2-.3 3.1-.4.1-.1.1 0 .1 0zm-5 7.3c.8 1.3 1.2 1.6 2.5 1.9 2.5.6 4.4-.5 5.9-2.2.5-.5.9-1.3.9-2 0-1.4-.9-2.4-1.8-3.3-.7-.7-1.5-.6-2.3-.4-.3.1-.6.1-.9.1-2 .2-3.8 2-4 4 0 .5-.1 1.1-.3 1.9zM388.8 178.2c-.1.2-.3.4-.5.7-.6-.2-1-.3-1.7-.5-.1-.3-.3-.8-.3-1.2.1-2.6-.1-5.3.4-7.9.2-.9 0-1.8 0-2.7h-5.6c-.5 0-1-.1-.9-.7 0-.5.5-.5.9-.5 1.9 0 3.9 0 5.8-.1l9.3-.6v.9l-.2.2c-2.2.2-4.5.5-6.7.7-1 .1-1 .1-1.1 1.1-.4 2.8 0 5.6.1 8.4-.1.7.3 1.3.5 2.2zM379.3 170.8c-.4.5-.8.6-1.4.3-1.5-.6-3.1-.8-4.6-.2-1.7.6-2.8 2.7-2.6 5 .1 1.4 1 2.5 2.4 2.6.7.1 1.5 0 2.2-.2 1.5-.4 3-.9 4.5-1.4.2-.1.5 0 .9 0-.5 1.2-1.4 1.6-2.3 1.8-1.2.3-2.5.6-3.8.9-2.5.6-5-.9-5.6-3.2-.1-.5-.2-1.1-.1-1.6.4-1.4.8-2.7 1.7-3.9 1.5-1.8 4.1-2.6 6.2-1.8 1 .4 2.1.5 2.5 1.7zM354.4 222.4c-.3 1.2-.5 2.4-.8 3.6-.5 2.3-1.1 4.6-1.6 6.9-.3 1.3-.5 2.7-.7 4-.2 1.8-.4 3.7-.6 5.5 0 .4 0 .4-.7.9-.1-.3-.2-.5-.2-.7 0-.7.1-1.4.2-2.1.3-2.4.6-4.9 1-7.3.3-2.2.5-4.3.6-6.5.1-1.8.1-3.7.2-5.5 0-1.3-.1-2.6-.1-4 .8-.7 1.1-.8 1.8.1.5.6.9 1.4 1.3 2.1 1.2 1.8 2.3 3.6 3.5 5.4l2.1 3.6c.7 1.1 1.3 2.3 2 3.5.4-.2.4-.6.5-.9.3-2 .7-3.9 1-5.9.4-2.1.9-4.1 1.3-6.1l.3-1.8c0-.3 0-.6.5-.7.3.4.3.9.3 1.4-.4 3.4-.7 6.9-1 10.3-.2 2-.3 3.9-.4 5.9 0 .6 0 1.2.1 1.8.1.7.2 1.3-.2 2-.3.1-.6 0-.8-.3-.5-.9-1.1-1.8-1.6-2.8-.3-.5-.5-1-.8-1.4l-1.2-1.8c-.4-.7-.9-1.4-1.3-2.1-.9-1.4-1.7-2.9-2.6-4.3l-1.8-2.7c-.2-.1-.3-.1-.3-.1zm-1.8 4.7h-.1c0 .1-.1.3-.1.4h.1c0-.1 0-.2.1-.4zM436.5 233.9c0-.9 0-1.8.1-2.7.2-2.8.5-5.6.8-8.3 0-.4.3-.8.6-1 1-.8 3.5-1.4 5-.4 1.2.9 2.1 1.9 2.9 3.1.6.9.5 1.8-.1 2.6.6.7 1.3 1.4 1.9 2.1 1 1.2.8 2.7-.4 3.6-1 .7-2.1 1.2-3.2 1.4-1.5.3-3 .4-4.5.6-1.1.2-2.1-.3-3.1-1zm1.4-3.4c.1 0 .1 0 0 0 0 .6-.2 1.1-.2 1.7-.1 1.1.3 1.6 1.4 1.7 1.9.1 3.7.3 5.3-1.1.7-.6 1.2-1.3 1.5-2.2.2-.7 0-1.2-.6-1.7-.7-.6-1.6-.8-2.5-.6-1.2.2-2.5.4-3.8.2-.7-.1-1 .2-1.1.9.1.4.1.8 0 1.1zm-.1-3.2h1.4c.7 0 1.4-.3 2-.1.8.2 1.4 0 2-.3 1.3-.6 1.7-2.2 1-3.4-.5-.8-1.3-1.3-2.2-1.5-1.9-.4-3.2 0-3.7 1.8-.4 1.1-.3 2.3-.5 3.5zM384.5 228.7c.1 1.5-.9 2.9-2.2 4-1.2 1-2.6 1.6-4.2 2-.5.2-1 .4-1.5.5-.7.1-1.3.2-2 .2-.2 0-.4-.1-.5 0-.9.6-1.5.1-2-.6-.7-.9-1.6-1.6-2.1-2.8-.5-1.3-.6-2.6-.4-3.8.2-1.3.8-2.5 1.5-3.6 1.4-2.3 4.7-3.6 7.3-2.9 1.2.3 2.4.7 3.4 1.4 1.8 1.3 2.8 3 2.7 5.6zm-12.4.8c0 1.1.1 2.3.7 3.5.2.5.5.8 1.1.9 1 .2 2.1.4 3.2.2 1.8-.3 3.4-1 4.8-2 .9-.6 1.5-1.5 1.8-2.6.5-2.1-.7-4.9-2.6-5.9-1.9-1-3.7-1.6-5.8-.7-.8.3-1.5.7-1.9 1.5-.9 1.5-1.4 3.2-1.3 5.1zM420.5 222.2c.1-.1.3-.2.5-.3.4-.5.8-.2 1 .2.4.7.7 1.4 1.1 2.1.4.8.9 1.5 1.5 2.4 1.1-1.1 2.1-1.9 3-3 .8-1 1.4-2.2 2.1-3.3.6.3.9.9 1 1.5.2.8.4 1.6.7 2.4.5 1.4 1.1 2.8 1.7 4.3.2.4.3.8.5 1.2.3.5.1.8-.3.9-.3.1-.5-.2-.6-.5-.6-1.5-1.3-3.1-2-4.6 0-.1 0-.1-.1-.2-.4-1.1-.7-1.2-1.6-.4-1.3 1-2.3 2.2-2.8 3.8-.1.2-.2.3-.3.6-1.8-1.2-3.3-2.7-4.6-4.6-.7 1.9-.6 3.7-.9 5.4-.3 1.7-.3 3.4-.5 5.2-.6-.1-.9-.3-.8-.8.4-3 .7-6.1 1.1-9.1.1-1.1.2-2.1.3-3.2zM404.3 232.7c-.1 1.7.2 3.3 1.5 4.6.3.3.5.4.9.4 1.7.2 3.4 0 5-.7.8-.3 1.6-.6 2.5-.9.1.3.2.5.2.7-1.3.5-2.6 1.1-3.9 1.5-1 .3-2.1.4-3.2.4-1.9 0-3.6-1.8-3.8-3.8-.2-1.6 0-3.1.2-4.7.1-1.2.5-2.3 1-3.3.5-.9 1.2-1.6 2.1-2.1 1.3-.8 2.6-.5 3.8.2 1.2.7 2 1.7 2.5 2.9.1.3.4.6.5.9.2.4.3.9.3 1.3 0 .2-.5.4-.7.4-2.7.1-5.2.7-7.7 1.6-.3.1-.7.4-1.2.6zm8.6-3.4c-.2-1.5-1.5-3.4-2.8-3.9-1.2-.5-2.2-.6-3.3.3-1.2.9-1.8 2.2-2.2 3.6-.1.5.1.8.6.8s.9.1 1.4.1c2.2.1 4.2-.7 6.3-.9zM393.3 236.2c-.8-1.1-5.1-12.1-5.2-13 .6.3 1.2.6 1.5 1.3.8 1.7 1.6 3.4 2.4 5 .3.6.6 1.2 1 1.9.4-.3.8-.5 1.1-.8 1.3-1.5 2.6-3 4-4.4 1.1-1.1 2.2-2.3 3.3-3.4l.4-.4c.2-.1.5 0 .7 0 0 .3.1.7-.1.8-1.8 1.3-3 3.3-4.4 4.9-.5.6-.9 1.2-1.2 1.9-.3.8-.9 1.4-1.3 2.2-.4.7-.7 1.4-1.1 2-.3.7-.7 1.3-1.1 2zM453.8 229.6c-.5 1.4-.5 2.8-.4 4.2-.3.1-.6.1-1 .2-.1-.2-.2-.3-.2-.5.1-2.1.2-4.1.3-6.2 0-.8.1-1.7.1-2.5 0-1.2.5-1.9 1.6-2 .7-.1 1.5-.2 2.3-.3 2-.1 3.6 2.1 2.8 4.2-.4 1-.7 1.4-2 2.3.4 1.1 1.6 1.4 2.3 2.1.7.7 1.5 1.4 2.3 2.2l-.7.7c-1.9-1.7-3.9-3.4-6.4-4.3-.3-.2-.6-.1-1-.1zm-.4-2c1.2.6 2.3.1 3.4 0 1.5-.2 1.7-1.8 1.4-3 0-.2-.3-.3-.5-.4-.2-.1-.5-.2-.7-.3-1.7-.7-3.2.2-3.4 2-.1.6-.2 1.1-.2 1.7zM473.8 226.6c-.4.9-1 1.1-1.7 1.2-2 .3-3.9.6-6 .9.1.5.1 1.1.2 1.6s.4.8.9.9c.4.1.8.4 1.1.5.7.3 1.3.5 2.1.4.6-.1 1.3.1 2 .2-.7.5-1.5.8-2.3.7-1.1-.1-2.3-.3-3.4-.5-.8-.2-1.1-.9-1.4-1.6-.5-1.5-.5-2.9.1-4.4.3-.7.8-1.4 1.1-2.1.9-1.9 4.1-2.3 5.7-.4.7.7 1.1 1.7 1.6 2.6zm-1.3-.2c-.1-.3-.3-.6-.4-.9-.5-1.2-1.5-1.9-2.8-1.7-1.5.2-2.7 1.7-2.8 3.4 1.5.3 4.8-.2 6-.8zM348.5 285.5c-.9-1.9-.6-3.9-.8-5.9-.1-1.1 0-2.3.1-3.4l.3-4.2c0-1.2-.2-2.5-.2-3.7 0-.8.1-1.6.2-2.2.7-.4 1.2-.7 1.5-.8 1.3.3 2.5.7 3.6.9 1.9.4 3.6 1.2 5.2 2.2.6.4 1.2.8 1.7 1.3 1.2 1.2.8 2.8.6 4.2-.3 1.8-1.4 3.3-2.7 4.5-2.2 2-4.4 4-6.9 5.6-.9.5-1.7 1-2.6 1.5zm1.1-1.7c1.1-.7 2-1 2.8-1.6 1.1-.9 2.2-1.9 3.3-2.8 1.3-1.1 2.6-2.4 3.3-4 .4-1 .8-2 .9-3.1.1-.9-.3-1.8-1.1-2.4-1.6-1.1-3.4-1.9-5.2-2.5-.9-.3-1.8-.3-2.9-.5-.3.8-.7 1.5-.8 2.3-.2 1.6-.4 3.3-.4 5 0 3 0 6.1.1 9.6zM421.2 280.3c.1-1.3.3-2.8.4-4.3.1-1.3.1-2.7.2-4 .2-2.1.4-4.1.6-6.2.1-.4.1-1 .8-1.3.1.7.2 1.3.1 2-.3 1.8-.5 3.7-.7 5.6v1.1h1c2.2-.2 4.4.2 6.5.9.7.2 1.3 1.4 1.1 2.3-.5 1.9-1.4 3.3-3.3 3.9-1.3.4-2.5.8-3.8 1.1-1.1.1-2-.1-2.9-1.1zm1.5-5.8c-.4 2.4-.2 4.5.6 5.7 2.1.1 4.4-1.5 5.2-3.2.2-.5.3-1.1.3-1.6 0-.4-.2-.8-.7-.9-1.8-.3-3.6-.6-5.4 0zM456.9 276h-2.3c-1.5 0-2.6.8-3.9 1.4-.5.2-1 .3-1.7.5-.2 1.1 0 2.3.7 3.4.6 1 1.7 1.1 2.8 1.1h3.2c.2 0 .4.2.8.4-2.4.7-4.5.8-6.6.3-1.1-.2-2-1-2.6-1.9-.5-.7-.3-1.5-.1-2.2.5-1.6 1.1-3.2 1.8-4.8.6-1.4 1.7-2.2 3-2.9.2-.1.4-.2.6-.2 1.6-.3 4 1.4 4.2 3.1.1.4.2.8.2 1.3.1.1 0 .3-.1.5zm-.9-1c.1-1.3-.3-2-1.3-2.6-1.1-.6-2.1-.7-3.2 0s-1.8 1.7-2.1 3c2.3.6 4.4-.4 6.6-.4zM409.4 277.4c.6-1 1.3-2 1.9-3 .6-1 .7-2.2 1.8-3.1.6 1.5 1.1 2.9 1.7 4.2.6 1.4 1.4 2.7 2.1 4.1-.3.2-.5.4-.8.7-1-1.9-2-3.8-3-5.8-.5.5-.9.8-1.2 1.2-.7.9-1.3 1.9-1.9 2.9-.4.7-.9.8-1.3.1l-2.1-3.9c-.1-.3-.3-.5-.5-.9-.9 1.4-1.7 2.8-2.2 4.3-.4 1.1-.8 2.2-1.2 3.4-.2.5-.5.7-1 .7.7-3.8 2.3-7.4 3.6-10.9.9-.1 1.6.4 1.8 1.2.2.8.3 1.6.6 2.3.4.9.9 1.7 1.3 2.6.1-.1.2-.1.4-.1zM372.5 275.8c-1.2.2-2.3.3-3.4.5-1.4.3-2.7.5-4 .9-.8.2-1.1.9-.7 1.7.1.3.3.6.4 1 .7 2.2 2.3 3.2 4.4 3.8.5.2 1.1.3 1.4 1-.3.4-.6.8-.8 1.3-.6.1-1.1-.1-1.5-.5-.6-.6-1.3-1.1-1.9-1.7-1-.9-1.7-2.1-2.4-3.3-.9-1.8-.8-3.7-.4-5.6.2-.9.5-1.8 1-2.5.9-1.5 2.4-2.1 4.1-2.2 1.3-.1 2.1.8 2.7 1.7.5.8.9 1.7 1.2 2.6.1.4 0 .9-.1 1.3zm-.6-.7c-.3-.7-.4-1.2-.6-1.6-.6-.9-1.3-1.8-2.4-2.1-2.5-.6-4.7 2.5-4.4 4.5 2.4.1 4.8-1 7.4-.8zM398 276.7c-2.4.5-4.9-.1-7.3.9.1 1.4.8 2.4 1.8 3.3 1 .9 2.4.9 3.6 1.2.2.5 0 .8-.5.8-1.7 0-3.4-.1-4.9-.8-1-.5-1.6-1.4-1.6-2.5-.1-3 .7-5.8 2.9-8.1 1.1-1.2 2.9-1.1 3.9.1.8 1.1 1.5 2.3 2.3 3.5.2.6.1 1.1-.2 1.6zm-7.2-.2c1.2.2 2.1-.4 3.1-.5 1.1 0 2.1-.1 3.3-.2-.4-1.5-1.1-2.7-2-3.7-.6-.7-1.4-.6-2.1 0-.3.2-.5.5-.8.7-1 1-1.2 2.3-1.5 3.7zM436.1 280.1c-.1.1-.4.2-.7.5-.2-.4-.5-.8-.5-1.1.1-2.7.2-5.5.3-8.2 0-.7.4-1.1 1-1.4.9-.4 1.7-.9 2.7-.6.4.1.8-.1 1.2 0 .7.1 1.4.1 2 .4 1.3.6 1.7 1.9.8 3-.4.6-1 1.1-1.7 1.5-.8.6-1 1.6-.3 2.3l2.1 2.1c.5.5.5.6 0 1.3-1-1-1.9-2-2.9-3-1.1-.9-2.3-1.5-3.9-1.4-.2 1.5-.2 3-.1 4.6zm-.2-5.3c1.5-.3 2.8-.5 4-1 .8-.3 1.5-.8 2-1.4.8-.8.6-2-.6-2.2-1.2-.2-2.5-.1-3.8-.1-.2 0-.6.3-.7.6-.2 1.3-.5 2.6-.9 4.1zM383.7 272.2c-.3-.1-.5-.1-.7-.2-1-.5-1.9 0-2.9.1-.2 0-.4.1-.5.3-1 1.3-2.1 2.7-2 4.5.1 1 .1 2 1 2.7.2.2.6.4.8.4 1.1-.1 2.3-.2 3.4-.4.9-.1 1.8-.2 2.6-.4 0 .1.1.2.1.3-.2.2-.3.5-.5.5-2.2.5-4.4 1.2-6.6.8-.7-.1-1.3-.8-1.8-1.5s-.7-1.5-1-2.3c-.3-.8-.2-1.7.2-2.4.7-1.2 1.3-2.5 2.8-3.1.9-.4 1.7-.8 2.6-1.1.6-.2 1.1-.1 1.6 0 1.4.4 1.4.6.9 1.8zM372.3 263.3h3.1c-.1.6-.4.8-.9 1.1-1.1.5-2.1 1.1-3.1 1.8-.5.3-.9.8-1.2 1.3-.3.4-.6.5-1.2.8.4-1.2 1.2-1.7 1.7-2.5.7-.9 1.2-1.7 1.6-2.5zM72.2 108.4c.2-.2.4-.5.6-.7 1.6-1.1 2.5-2.8 3.4-4.4.7-1.3 1.2-2.6 1.8-3.9.1-.2.3-.4.5-.7.6.5.4 1 .3 1.5-.6 2.1-.7 4.3-.6 6.5.1 1.6.1 3.2.1 4.9 0 1-.2 1.9-.2 2.9 0 2 0 4 .1 6 .1 1.6.1 3.2-.3 4.7-.1.6-.1 1.2-.1 1.7.1 1.8-.4 3.4-1.1 5-.4 1-1.3 1.5-2.2 2-1.3.7-2.8 1.3-4.3 1.5-2.7.4-5.6-.4-6.4-3.9-.4-1.6-.4-3.2.2-4.8.3-.9.7-1.8 1.6-2.4 1.8-1.3 3.6-1.2 5.3.4.2.1.3.3.4.5-.4 1-1.8 1.8-2.8 1.6-.6-.1-.9-.4-.9-1v-1c-1-.2-1.6 0-2.1.7-1.1 1.9-1.2 3.9-.1 5.9.2.4.6.8 1 1.1 1.1.9 2.3 1.7 3.8 1.8.8 0 1.5 0 2.3-.5.6-.4 1.3-.5 2-.8 1.1-.6 2-1.5 2.3-2.7.5-2 .7-4 .5-6-.2-1.4 0-2.8-.1-4.2-.1-1.5-.2-3-.2-4.5 0-.8-.3-1.6-.5-2.3 0-.1-.1-.3-.1-.4 0-1.7-1.3-2.4-2.3-3.3-.6-.6-1.2-.8-1.9-1.2zM103.9 112c-.3 4.1-.3 7.6.5 11.2.3 1.2.6 2.4.9 3.7.2.7 0 1.2-.9 1.4-.9-1-.9-2.4-1.1-3.6-.4-2.9-.7-5.8-1-8.6-.1-1.5 0-3-.1-4.6 0-.8-.2-1.5-.4-2.3-.3-1.2.8-1.5 1.4-2 .6-.5 1.2.3 1.7.8 1.7 1.9 3.5 3.8 5.2 5.7.9 1 1.6 2 2.4 3.1.5.6 1 1.2 1.8 2.1.7-2.5 1.3-4.7 1.7-6.8.4-2.2.8-4.3 1.2-6.5.1 0 .3 0 .4-.1.2.4.5.8.5 1.2 0 .9-.1 1.8-.2 2.7-.5 3.1-1.1 6.3-1.6 9.4-.1.8-.2 1.7-.2 2.5 0 .5 0 1.1-.7 1.2-.7.2-1.4.1-1.8-.6-1.1-2.3-3-4-4.9-5.6-.9-.8-1.8-1.6-2.6-2.4-.6-.7-1.3-1.1-2.2-1.9zM164.5 126.3c-.2 2-.9 2.8-2.8 2.8-2.2 0-3.9-.9-5-2.7-.8-1.3-1.3-2.6-2-4-.8-1.6-.7-3.3 0-4.8.8-1.7 1.7-3.4 2.7-5 1.2-1.9 4.3-2.1 5.8-.5.9.9 1.6 2 1.9 3.3.2.8.5 1.7.8 2.5.4 1 .2 1.3-.9 1.4-3 .2-5.8 1.2-8.7 2.1 0 2.6 1.2 4.6 3 6.2.4.4.9.7 1.4.2 1.7.5 2.6-.7 3.8-1.5zm-8.1-8c3 .1 5.8.5 8.7-.2-.6-1.9-1.3-3.5-2.4-4.9-1.3-1.9-2.7-1.5-4-.1-1.3 1.3-1.9 3.2-2.3 5.2zM98.1 117.3c-.8 1.3-.5 2.4 0 3.6.3.7.5 1.5.6 2.3 0 .4-.2.9-.4 1.1-.5.3-.8-.2-1-.7-.3-1.3-.6-2.6-.9-3.8-.1-.3-.1-.5-.2-.9-.4 0-.7-.1-1-.1-3.3.1-6.4.8-9.3 2.4-.6.3-1.4.5-1.6 1-.4.8-.6 1.9-.6 2.8-.1 1.1-.3 2-1 2.9-.6-.7-.3-1.5-.2-2.1.2-1 .4-2 .7-3 1.4-5.1 2.7-10.2 4.6-15.2.5-1.2 1.1-2.4 1.6-3.6 1.3-.2 1.9.4 2.5 1.6 1 2.1 2.3 4.1 3.4 6.1.6 1.2 1.1 2.4 1.4 3.7.2.8.4 1.5 1.4 1.9zm-2.3-.2c-.8-3.6-2.5-6.4-5-8.9-.4.7-.6 1.2-1 1.7-.5.7-1.1 1.4-1.6 2.1-.2.2-.4.4-.5.6l-1.8 3.9c-.3.7-.6 1.3-.4 2.1 1.8-.3 3.4-.5 5.1-.7 1.7-.3 3.3-.6 5.2-.8zM174.7 121.4c.2 1.8.4 3.4.7 5.1.2.9 0 1.6-.9 2.3-.1-.4-.3-.7-.3-1-.5-3.6-.9-7.2-1.5-10.8-.3-1.9-.8-3.8-1.3-5.9.7-.1 1.6-.4 2.5-.5 1.7-.2 3.4-.5 5.2-.5 1.4 0 2.8.1 4.1.4 1.3.3 2.5 2 2.4 3.4-.1 2.3-1.1 4.2-3.3 5.2-.2.1-.3.1-.5.2-.1 0-.2.1-.3.2.4 2.9 2.9 6.2 6.1 8.3v.6c0 .2-.1.3-.2.5-.2 0-.4 0-.5-.1-2.3-1.6-4.5-3.3-6.1-5.6-.4-.6-1.1-1.1-1.5-1.8-.6-1-1.4-1-2.3-.7-.7.1-1.3.3-2.3.7zm-.3-1.4c2.1-.6 3.9-1.2 5.8-1.6 1.3-.3 2.4-1 3.2-2 1.7-2 .7-4.6-1.7-5-2.5-.4-4.9 0-7.3.5-.8.1-1.1.6-1 1.3.4 2.1.7 4.3 1 6.8zM140.9 105.9c.9 1.5 0 2.4-.6 3.3-1 1.5-2.4 2.9-3.3 4.5-2 3.1-3.5 6.5-4.8 9.9-.4 1.1-.6 2.5-2 3.2-.5-1.2-.9-2.5-1.4-3.7-.4-1.1-.7-2.2-1.2-3.2-1-2-2.1-4-3.3-6-.5-.9-1.2-1.8-1.9-2.7-.9-1.2-.4-2.5-.2-3.7.1-.4.6-.5 1-.1.1.1.2.3.3.4.8 1.6 1.6 3.3 2.5 4.8 1.4 2.4 2.3 5.2 4.5 7.4 3.5-4.7 6.9-9.3 10.4-14.1zM146.5 125.3c-.1-2.8-.3-5.4-.3-8 0-1.8.1-3.6.2-5.4 0-.8.1-.8 1.3-.9v3c.1 1.2.3 2.4.2 3.5 0 1.6.7 3.1 1 4.6.2.9.6 1.9-.1 2.9-.7.1-1.4.2-2.3.3zM148.4 101.3c1.2 0 2.4 1.4 2.3 2.7-.1 1.5-2.5 3.4-4 3.3-1.3-.1-2.4-1.2-2.4-2.4.1-2.4 1.5-3.6 4.1-3.6zM361.7 549.9c0-3 .2-5.9-.1-8.7-.3-2.4-.4-4.5.9-6.7h1.7c.1.3.2.5.2.7-.1 1.5-.3 3.1-.5 4.6-.2 2.2-.5 4.4-.7 6.6-.3 2.5.4 4.8.9 7.2.4 1.9 1.2 3.8 1.8 5.6.4 1.2-.1 2.2-1.2 2.8-1.1-.2-1.8-.5-2.5-.5-2-.1-4.1 0-6.1-.2s-3.3-1.6-4.1-3.3c-.6-1.2-.3-2.6.7-3.7 2.2-2.7 5.2-4.3 9-4.4zm1.2 10.5c-.2-2.5-.3-4.7-.5-6.9-.1-1.4-.7-2.2-2.1-2.1-2.9.1-5.5.9-7.3 3.4-1.1 1.6-.7 3.6 1 4.3 2.8 1.4 5.7 1.8 8.9 1.3zM452.8 541.4c.2 3.2-.8 6.1-.5 9.3 2.6-1.6 5.2-1.7 7.8-1.8 1.5-.1 3 .2 3.7 1.7.8 1.6.4 3.2-.6 4.6-1.5 2.2-3.6 3.4-6.4 3.3-2-.1-4-.2-6.1-.3.2-4.1.4-8.1.5-12 0-1.2-.1-2.3 0-3.5.1-.9.2-.9 1.6-1.3zm8.9 10.4c-.7-1-1.9-1.2-3.1-1.1-1.4.2-2.9.5-4.3.9-1.9.5-2.5 1.5-2.2 3.4.1.6.4 1.2.6 1.8 2.1 0 4.1.2 6 0 1.9-.2 2.5-1.1 2.5-2.9.1-.7.3-1.4.5-2.1zM426.9 551l1.3 1.3c1.7-1.2 3.5-2.7 5.6-.4.6-.4 1.1-.8 1.7-1.2 2.2-1.4 4.8-.7 6.4 1.4 1.9 2.3 2.2 4.9 2.7 7.6.1.4-.3.8-.4 1.2h-.5c-.2-.7-.6-1.4-.7-2.1-.4-1.7-.5-3.3-1.6-4.8-1.2-1.8-2.4-2.4-3.8-1.8-1.5.6-2.3 2.1-2.1 3.9.2 2.2.2 2.2-.8 3.5-.7-.3-.6-1.1-.7-1.6-.3-1.3-.5-2.7-1-4-.6-1.5-1.6-1.7-2.9-.7-1.6 1.2-2.5 2.6-2.1 4.7.3 1.7.1 1.7-.4 2.5-.9-2.5-1.2-6.7-.7-9.5zM403.3 558.8c-1.6 2.3-4 2.2-6.4 2.2-2 0-3.9-.6-5.9-.2-.5.1-1.4-.5-1.7-1.1-2.2-3.9-1.7-5.9 1.4-8.7.8-.7 1.7-1.2 2.6-1.7 1.9-1.1 3.8-.8 5.7 0 .6.3.7.6.8 2-.8-.2-1.6-.3-2.3-.4-.7-.1-1.5-.4-2.1-.2-1.1.4-2.2 1-3 1.8-1.1 1.2-1.2 4.4-.3 5.6.4.5 1.1.9 1.8 1.1.5.2 1 0 1.5.1 2.7.8 5.3 1 7.9-.5zM383.7 554.1c-3.4-1.1-6.6-.6-9.9.1-.8.2-1.7 0-2.8 0-.4 1.8-.3 3.7.9 5.1 1.7 2 4.3 2.8 6.5 2.3-.8 1.1-2.2 1.6-3.4 1.1-.5-.2-1.1-.6-1.6-.6-1.4-.1-2.1-1.1-2.6-2.1-.8-1.8-1.2-3.7-.7-5.8.6-2.3 1.3-4.4 3.3-5.8.7-.5 1.4-.9 2.1-1.1 1-.4 2-.6 2.9-.9 1.3-.4 2.4-.2 3.4.8 2.6 2.2 3.2 4.2 1.9 6.9zm-12.1-1.5c.5.1.8.1 1 .1 2.3-.1 4.5-.2 6.8-.5.8-.1 1.7-.5 2.4-1 .3-.2.6-.9.5-1.1-.7-1-1.1-2.3-2.6-2.5-2.2-.3-4 .5-5.7 1.7-1.1.8-2.2 1.6-2.4 3.3zM416.2 561.2c-.5-.6-1-.9-1.9-.7-.9.2-1.9.2-2.7 0-3.6-.7-4.1-1.7-3.9-4.5.1-2.3.4-4.5 2.7-5.8l-1.3 2.6c3.6.4 6.8.1 9.9-.6.6-.1 1.2-.7 2.1-1.3-1-.8-1.8-1.4-2.5-2-1.8-1.4-3.8-1.5-5.7-.3-.9.5-1.7 1.1-2.6 1.6 2.5-4.3 6.6-4.4 10.2-1.4 1.6 1.3 1.8 2.8.9 4.6-.4.8-1 1.2-1.9 1.2-2.4.1-4.7.3-7 .4-.3 0-.7-.1-1-.2-.8-.1-1.6-.3-2.4-.4-.6 3.1.3 4.4 3.1 4.9 1.5.2 2.9.4 4.5.6-.4.8-.4 1-.5 1.3zM470.4 555.1c.3-.9.9-1.2 1.7-1 2.7.6 4.8-1 7.2-1.8 1-.3 1.3-1.4 1-2.4-.3-1-.9-1.6-1.9-1.5-1.1.1-2.3.2-3.2.8-1.6 1-3.2 2.2-4.4 3.6-1.4 1.6-1.6 5.3 1.4 6.8 1.2.6 2.6 1 3.9 1.4.7.2 1.4.3 2.4.6-2.1.4-3.9.5-5.6-.2-4-1.4-5.2-6.1-2.5-9.3 1.9-2.2 3.9-4 6.8-4.7 1.9-.5 3.3.1 4.4 1.7.9 1.3.8 3.7-.2 4.8-.5.5-1.3.7-1.9.9-2 .4-3.9.7-5.9.9-1.1 0-2.3.4-3.2-.6zM489.9 550.3c2.5-.3 4.6.1 6.5-.9.1-.2.2-.4.2-.5-.1-2.3-.9-3.8-2.1-4-1.6-.2-3.7 1.8-4.3 3.7-.8 2.3-1.3 4.5-.9 6.9.1.9.3 1.8.5 2.9-1.1 0-1.6-.5-1.7-1.4-.1-1.1-.2-2.2-.2-3.3v-6.5c.9-.1 1.9-.2 2.2-1.3.1-.2.3-.3.5-.5 1.3-1.1 2.8-2.3 4.5-1.7 1.5.6 2.1 2.4 2.5 4 .4 1.8-.3 2.8-2.1 3.3-.4.1-.8.2-1.3.3.6 2.1 2.3 3.1 3.5 4.5.5.6 1.4 1.2.5 2.5-1.9-1.8-3.7-3.6-5.3-5.5-.5-.6-.8-1.4-1.9-1.2-.1 0-.5-.7-1.1-1.3z" />
    <g>
        <path class="some-path" d="M76.4 444.9h-6c-1.1 6.3.3 12.2 1 18.6.1-.3.1-.1 0 0-.7.6-1 1.8-2.2 1.4-1.1-.4-1-1.4-1.2-2.2-.2-.8-.1-1.6-.1-2.4.1-3.6.3-7.2.5-10.8v-4h-2c-1.5 0-1.5-.1-1.5-2 1.2-.2 2.5-.5 4-.8.1-.7.1-1.4.2-2.1.4-2.8.8-5.6 2.9-7.7.5-.5 1.1-1 1.7-1.3.9-.5 1.9-.4 2.5.3.9 1.2 1.8 2.5 1.1 4.3-1.7.1-1-1.6-2-2.2-1.4-.3-2.4.3-3.2 1.7-1.1 2.2-1.5 4.5-1.9 7.2h6.4c0 .6-.1 1.2-.2 2zM165.1 444.4l3.3-1.2c1.9-.7 3.8-.3 5.6.5 1.2.5 2.3 1.3 3.4 2.1.2 2.4-1.6 3.6-3.3 5.1 1.2 2.3 2.3 4.5 4.1 6.6-.2.4-.5.7-.9 1.3-.8-.9-1.6-1.6-2-2.5-.8-1.7-2.2-2.7-3.4-4-.5-.6-1.1-.8-2-.6-1 .2-2.1.2-3.3.3-.1 1.2-.1 2.3.4 3.5.3.5.1 1.3 0 1.9 0 .2-.6.3-.9.5-1-2.8-1.6-10.3-1-13.5zm1.7 5.7c3.6 1.1 6.3-1.1 6.4-5.1-3.7-1.8-6.4.1-6.4 5.1zM115 452.5v3.2c-.3.2-.7.5-1.2.9-.2-.5-.6-.9-.6-1.3 0-2.1.2-4.1.2-6.2.1-1.2.1-2.4.2-3.5 2.3-1.9 5.2-2.3 7.9-3.4.4-.2 1 0 1.5.2 1 .5 1.9 1.1 2.9 1.6.4 1.8-.1 3.4-1 4.8s-2.1 2.4-4 2.1c-.7-.1-1.5.1-2.6.2 1.9 1.8 3.4 3.2 4.9 4.6.8.7.9 1.3-.1 2.1-2.4-2.2-5-3.9-8.1-5.3zm-.1-2.4c2.8.7 5-.4 7.3-1.2 1.4-.5 1.8-1.9 1.4-3.3-.3-1-1.8-2-3-1.8-2.7.6-5 1.7-5.4 4.9-.1.5-.2.9-.3 1.4zM81.2 452.7v2c0 2.4 1 3.3 3.3 2.8.9-.2 1.8-.5 2.8-.8.5-.1 1.1-.2 1.9-.4-.7 1.2-1.4 1.7-2.4 1.9-1.2.2-2.5.3-3.7.5-1.5.1-2.5-.4-2.9-1.8-1.1-3.9-.2-7.6 2.1-10.9 1.4-2.1 3.9-2.4 6.2-2 1.9.3 2.8 2 3.3 3.8.3 1 .6 2 .7 3 .2 1.2-.5 1.6-1.7 1.4-1.4-.2-2.8-.4-4.1-.4-1.8.2-3.5.6-5.5.9zm9.4-2.6c-.1-.7-.2-1.5-.5-2.1-.4-1-.9-1.9-2.1-2.1-3.1-.5-6.3 1.2-6.6 4.2.9.2 1.8.5 2.7.5 2.1-.1 4.1-.3 6.5-.5zM96.1 456.3c.2-1.1.5-1.8.5-2.5.3-4.8.7-9.5.9-14.3.1-1.6.7-2.6 2.4-3.5-.4 2.2-.8 4.1-1 6.1-.2 2 0 4.1 0 6.3.3 0 .7 0 1.1-.1 1.6-.3 3.1-.7 4.7-.8 1.7-.2 3.1.8 3.7 2.2.7 1.4.2 2.8-.9 4.1-2.6 3.3-6.1 3.8-9.9 3.4-.4 0-.9-.6-1.5-.9zm2.6-5.9c-.1.9-.2 1.7-.3 2.5v1.1c.2 1.5.8 2.1 2.3 2 2.6-.1 4.7-1.2 6.3-3.2 1.5-1.8.7-3.7-1.6-3.9-2.3-.1-4.6.1-6.7 1.5zM132.6 446.6c-.3.9-.6 1.9-1 2.8-.7 1.5-.5 3-.3 4.5.1 1.1.9 1.8 2 2 2.4.5 4.8-.9 5.5-3.3.6-2 1.2-4 1.7-6.1 1.3.3 1.2 1.1 1.2 1.8.1.7-.2 1.5-.2 2.2-.1 1.8-.1 3.5-.1 5.3 0 1.3.3 2.6-1.5 3.4-.2-1.2-.4-2.3-.7-3.5-1.1.6-2 1.2-2.9 1.6-3.6 1.6-6.7-.7-6.6-4.6.1-1.3.1-2.6-.1-4-.1-2.1.6-2.7 3-2.1zM159.7 455.4c-1.1 1.3-2.2 1.9-3.7.8-.1-.1-.3-.2-.4-.2-2.3.6-4.6.2-6.8.1-1 0-1.6-.1-1.9-1.3-.3-1.4-.3-2.6.7-3.7 1.3-1.3 2.5-2.7 3.9-3.8 1.2-.9 2.7-1.4 4.4-.9.7.2 1.6.1 2.4.2 2.2 2.7.2 6 1.4 8.8zm-4.2.1c.8-2.2.4-4.4.5-6.6 0-.8-.7-1.2-1.3-1.2-.9.1-2 .1-2.7.6-1.4 1-2.6 2.2-3.8 3.4-.7.7-.8 1.5-.4 2.4.4 1 1.3 1.2 2.2 1.2.9.1 2-.4 2.6 0 1 .9 1.8.2 2.9.2zM186.9 452.5c1-2.2 1.8-4.1 2.7-6.1.7-.1 1.5-.3 2.4-.4.3 2.3-1.6 3.8-2 5.7-.5 1.9-1.4 3.7-2.1 5.5-.8 1.8-1.1 3.9-2.9 5.4.2-1.2 0-2.6.5-3.7 1.2-3 .4-5.2-1.9-7.2-.6-.5-1.1-1.2-1.6-1.7-.5-.4-.6-.9-.1-1.3.3-.2.9-.1 1.1.1.9.8 1.7 1.8 2.6 2.7.3.3.7.6 1.3 1z" />
    </g>
    <g>
        <path class="some-path" d="M463.6 384.1c2.7-.1 4.9-.2 7.1-.3.9-.1 1.5.4 2 1 1.9 2.3 2.4 4.9 1.3 7.6-1 2.5-3 3.9-5.8 4.1-1.3.1-2.6 0-4 .1-1.6.1-2-1.6-3-1.9.2-3.9.3-7.6.7-11.3.4-3.7-.6-7.4.6-11.1 1.3 0 1.5.6 1.4 1.6-.2 2.6-.3 5.2-.4 7.9 0 .8.1 1.6.1 2.3zm.9 10.7c2 .3 3.8.5 5.6-.2 2-.7 3.1-3.7 2.2-5.5-1.5-3.2-4.2-4.2-7.5-2.9-1 .4-1.6 1-1.4 2.1.4 2.2.7 4.3 1.1 6.5zM446.8 394.7c-.2-1.9-.5-3.5-.6-5.2-.1-1.5-.8-2.6-1.9-2.9-1.4-.4-3.2.1-3.9 1.3-1.2 2.1-2.2 4.4-1.7 6.9.2 1-.1 1.7-1.3 2-.7-3.6-.4-7.1-.3-10.7 0-.3.4-.5.9-1 .3.8.6 1.3.9 1.9 2.2-2.5 5-2.7 8-1.9 1.5-.4 3-.8 4.4-1.2 1.7 1.6 2.8 3.4 3 5.6.2 1.5.7 3 .9 4.5.1.3-.3.7-.4 1-1.3-.6-1.8-1.5-1.8-2.7 0-.9-.2-1.8-.1-2.7 0-1.3-.6-2.2-1.5-3.1-.6-.6-1.3-.8-2.2-.4-.9.4-1.3 1.2-1.2 2.1.2 1.4.3 2.8.4 4.2 0 1.1-.2 1.9-1.6 2.3zM492.1 388.6c-1.9.2-3.5.4-5.1.5-1.7.1-3.4.3-5 .4-.9.1-1.9-.1-2 1.2-.2 1.3.7 2.7 1.8 2.9 1.6.3 3.3.4 4.9.7 1.2.2 2.3.6 3.5.9v.5c-.4 0-.9.2-1.3.1-2.3-.3-4.7-.5-7-.8-2-.2-3.3-1.5-3.2-3.5.4-4 1.9-7.4 5.4-9.7 1.8-1.2 3.7-.9 5.5.6 1.6 1.3 2.6 2.8 2.7 4.8.1.5-.1 1-.2 1.4zm-1.6-1.6c-.4-1-.4-2.1-.9-2.4-1.1-.7-2.1-2.1-3.7-1.7-2.2.6-4.2 1.5-5.1 4.1h9.7zM506.9 389.6c1.6 1.9 3.2 3.7 4.8 5.7-.3.8-.8 1.1-1.5.3-1.7-1.8-3.3-3.6-5-5.4-1.5-.2-3.2-.3-5.1-.5 0 .7-.2 1.4-.1 2 .3 1.2.2 2.3-.2 3.4-.1.4-.6.8-1.2 1 .2-4.7-1.3-9.2-.4-13.8 2-.4 3.9-.7 5.8-1 1.9-.3 3.4.3 4.7 1.7.7.8.9 1.5.4 2.4-.5 1.3-1.3 2.7-2.2 4.2zm-5-.8c2.3-.2 4.2-.8 5.4-2.8.8-1.4.5-2.4-1-3-1.8-.8-5.6.4-6.4 2.1-.3.8-.3 1.9.1 2.7.2.5 1.2.7 1.9 1zM429.5 389.8c-3.4-.6-6.3.8-9.3 1.7-.3.1-.7.6-.8 1-.3 1.6.9 2.8 1.6 4 .3.5 1.2.8 1.9.8 1.1 0 2.2-.4 3.3-.5 1.1-.1 2.2-.8 3.7.2-2.4.6-4.5 1.1-6.6 1.6-1.1.3-2.2-.1-2.7-1.1-.8-1.4-1.6-2.8-1.9-4.4-.4-2-.3-4.1.4-6.1 1.1-3 5.4-5.6 8.4-4.3 2.4 1.1 3.5 2.9 2.7 5.4-.2.6-.5 1.2-.7 1.7zm-9.9-.7c1.4-.3 2.9-.6 4.4-.9 1.5-.3 2.9-.7 4.3-1.1.4-1.4.1-2.4-1.1-2.9-3.7-1.6-7.5.9-7.6 4.9zM385.2 395.8c-3.1.2-6.2.5-9.3.4-2.2 0-3.5-2.1-3.2-4.4.2-1 .4-2 .5-3 .2-3.2 2.4-5 4.9-6.3 1.8-.9 3.9-.2 5 1.5l1.8 3c.6 1.2-.1 2.4-1.4 2.5-2.6.3-5.1.6-7.7.9-.8.1-1.7 0-1.9 1.1-.2 1.4.4 2.8 1.5 3.2.7.2 1.4.2 2.2.2h7.6v.9zm-1.8-8.2c-.3-.6-.5-1.1-.9-1.4-.9-.9-1.9-2.4-3-2.6-1.4-.3-2.9.8-4 2-.3.3-.6.7-.8 1.1-.2.5-.2 1.1-.3 1.6 3.9.3 6.1.2 9-.7zM392.2 404.5c-.1-3.3-.2-6.4-.3-9.4-.1-2.5-.2-5-.4-7.4-.1-.8 0-1.4.9-1.8 1.4-.6 2.8-1.3 4.3-1.8.7-.2 1.7-.1 2.3.3 2.1 1.4 2.7 6 1.2 8-1.1 1.5-2.5 2.5-4.6 1.8-.4-.1-.9 0-1.3 0-.9 3.1-.6 6.5.9 8.6-.9.5-1.7 1-3 1.7zm7.7-15.3c-.2-.6-.5-1.8-1-3-.3-.8-1-1.2-2-.8-.5.2-1.2.3-1.6.6-.5.4-1.2.9-1.4 1.5-.3 1-.2 2.2-.3 3.2-.2 1.2.5 1.7 1.5 2 .4.1.9.1 1.3.2 2.3.3 3.5-.9 3.5-3.7zM363.5 383.7c-.5.3-1.1.8-1.2.7-1.5-1.1-2.3.3-3.2.9-.9.6-.7 1.7-.1 3 1.5.3 3.2.8 4.9 1.1 4 .5 4.6 2.9 3 6.1-.9 1.7-2.2 2.5-4.1 2.2-2.3-.3-4.6-.7-7-1 .2-1.1.7-1.2 1.3-1.1 1 .2 2 .5 3 .5 1.5.1 2.9.1 4.4 0 1.2-.1 2-1.5 2-3 0-1.3-.4-1.7-1.8-2.1-1.8-.4-3.6-.8-5.3-1.3-1.7-.5-3-1.5-3.5-3.3 2-3.6 4.3-4.4 7.6-2.7zM411.4 396.2c-.4.6-.8 1-1.1 1.4-.6-.5-1.3-1-1.8-1.4-1.6-4.5-.6-9.3-1-14.1H404c.6-2.2 2.4-.6 3.5-1.7.5-1.8.2-4.1 1.4-6.1 1.7.8.7 2 .6 2.9-.1 1-.2 2-.4 3.1 1.3.3 2.4.5 3.6.7 0 .1 0 .2.1.3-1.2.2-2.4.5-3.6.7-.7 5.7-.5 11.5 2.2 14.2z" />
    </g>
    <g>
        <path class="some-path" d="M273.2 396.8c-.2-.6-.3-1.2-.5-1.8-.6-1.7-1.1-3.4-1.9-4.9-.7-1.4-1.8-1.5-3.1-.5-1.7 1.3-2.2 3.2-2.7 5.2-.2.9-.1 2.1-1.1 2.8-1.5-1.1-1.1-2.6-.8-3.9.3-1.3-.2-2.3-.7-3.3-.4-.8-1.1-1-1.9-.7-1.7.8-3.4 1.7-3.9 3.9l-.6 3c-.1.6-.4 1.2-1 1.7-.2-.4-.5-.8-.5-1.3-.3-2.6-.5-5.3-.7-7.9 0-.2 0-.4.1-.7.1-.8.6-1.1 1.4-1 .8.1 1.1.7.9 1.4-.2.8-.4 1.5-.7 2.8 1.5-1.3 2.7-2.3 3.8-3.2.1-.1.2-.3.3-.4 2.3-1.9 3.7-1.5 4.6 1.4.1.3.2.6.3 1.2.5-.5.9-.9 1.3-1.2.8-.7 1.5-1.6 2.4-2.1 1.6-.8 3-.4 3.8 1.1 1.2 2.3 2.2 4.8 2 7.6 0 .3-.2.5-.3.7-.2 0-.4 0-.5.1zM291.3 386.6c0 .7.2 1.5 0 2.2-.5 1.8-.1 3.5.5 5.1.4 1 .1 1.6-.7 2.4-2-1.7-4.2-1.5-6.6-.9-1.1.3-2.5-.1-3.6-.4-.8-.2-1.1-1-1.2-1.9-.1-3.3 4.1-7.7 7.4-7.5 1.2.1 2.6.6 4.2 1zm-2.7 7.2c.4-1.7.6-3.4.2-5.3-.2-1-.7-1.4-1.6-1.4-2.6-.1-4.5.9-5.8 3.2-.6 1-1.2 2-.5 3.1s1.9.9 3 .9h.2c1.5-.1 2.9-.3 4.5-.5zM302.5 402.6c.2.1.3.2.4.3.1.1.3.1.5.2-.4.5-.8 1.1-1.2 1.7-.2-.2-.4-.4-.4-.5.3-2.6.4-5.1.9-7.6.2-1.3-.1-2-1-2.8-1.8-1.5-3.4-3.2-4.3-5.4.9-.8 1.4-.3 1.9.3.9.9 1.9 1.9 2.9 2.7.5.4 1.2.7 2.1 1.1 1-2.2 1.9-4.1 2.9-6.5.4-.1 1.1-.3 2-.5.4.9.1 1.5-.4 2.1-3.2 3.5-5 7.8-5.7 12.4-.2.7-.4 1.5-.6 2.5z" />
    </g>
    <g>
        <path class="some-path" d="M256.3 548.8v10.6c0 .6.2 1.3.2 2 .1 2.6-1.4 4.4-4.1 4.3-3.1-.1-6.2-.2-9.2-.4-.7 0-1.4-.4-2-.6.3-1.2 1-1.2 1.8-1.1 2.5.2 4.9.3 7.4.6 2 .2 2 .3 4-.8 0-1.9.5-4-.5-6-1.5.4-2.9.7-4.3 1.1-1.3.3-2.4-.2-3.1-1.2-.8-1.1-1.1-2.4-.4-3.7 1.5-2.8 3.7-4.6 6.8-5 1.1-.2 2.2.1 3.4.2zm-2.4 7.5c0-.9.1-1.7 0-2.4-.2-1.3-.5-2.5-.8-4.1-1.1.3-2 .5-3 .7-1.8.4-2.7 1.8-3.2 3.3-.6 1.7.2 2.9 2 3.2 1.6.4 3.2-.1 5-.7zM304.7 547.4c2.2.1 4.1.2 6.1.3.3 1.2-.1 1.7-1.4 1.7h-4.8c-.3 3-.1 5.8.3 8.7-.4.3-.9.4-1.2-.4-.2-.7-.4-1.4-.5-2.1-.2-2-.2-3.9-.4-6-1.3.1-2.5.1-3.8.2-.2-.9-.3-1.6-.4-2.5h4.2c0-1.9.1-3.8 0-5.7-.2-2.1.4-3.7 2.1-5 .6-.4 1-1.1 1.5-1.6.3.9-.3 3.2-1 6-.5 2.1-.5 4.2-.7 6.4zM223.2 550c.4 2.7 1.4 5.5 1.2 8.5-.1 1.8-1 2.2-2.6 1-.8-.6-1.6-.5-2.5-.3-1.4.4-2.8.8-4.2 1.3-.4.1-.9.2-1.3.2-2.9-.1-4.5-2.3-3.6-5.6.7-2.8 2.3-5.1 5.3-6 1.5-.5 2.9-.4 4.3-.1 1 .3 2.1.6 3.4 1zm-2.1 5.1h.1c-.1-.9-.1-1.8-.4-2.6-.5-1.9-2.1-3-4-2.7-3.3.5-4.9 1.4-5.8 5.1-.8 3.5.3 4.9 3.9 4.6 1.4-.1 2.9-.7 4.3-1 1.1-.2 1.7-.7 1.7-1.9.2-.5.2-1 .2-1.5zM282 562.1c.8-.2 1.3-.4 1.9-.5 2.4 0 4.4-1.1 6.4-2 1-.5 1.5-1.7 1.2-3-.1-.7-.4-1.4-.6-2.2-1.3-.1-2.5-.3-3.7-.3-1.3 0-2.2-.7-3-1.6-.7-.9-.9-1.8-.4-2.9.5-1.3 1.5-2.2 2.8-2.7 2-.8 4.1-1.3 6.2-.9.2 0 .4.3.9.7-.6.3-1 .6-1.4.7-1.2.2-2.3.3-3.5.4-1.1.2-1.9.7-2 2-.1.9-.5 1.7-.8 2.8 1 .2 1.9.4 2.8.4 1.4.1 2.7.4 3.9 1.2.6.5.8 1 .8 1.7-.1 1.8-.7 3.5-2.2 4.4-2.4 1.5-5 2.8-8 2.7-.3 0-.6-.1-.8-.2-.1-.1-.2-.3-.5-.7zM274.3 557.1c-1.7 1.9-3.8 2.1-5.9 2.4-2.6.3-5.3-.8-5.3-4.3 0-2.3.2-4.5 1.1-6.8.9.4 1.2 1.1 1 2.1-.2 1.5-.3 3-.3 4.6 0 2.4.5 2.8 2.8 2.9.7 0 1.5 0 2.2-.1 2.3-.3 3.7-1.7 4.1-3.9l.6-3.3c.2-1 .4-1.9.9-3 .2.5.6 1 .6 1.5 0 2-.1 3.9-.1 5.9 0 1-.7 2.2.8 3-.6.4-1 .7-1.5 1-.3-.7-.6-1.2-1-2zM238.6 558.3c-.1-.6-.2-1.3-.4-2.2l-1.1 1.1c-.9.9-1.8 1.5-3.1 1.4-.4 0-.7 0-1.1.1-2.1.3-3.4-.6-3.3-2.6.1-2.1.5-4.2.7-6.3 0-.2.2-.4.3-.6 1.2.4.9 1.2.9 1.9 0 1.5.1 2.9.1 4.4 0 1 .7 1.3 1.6 1.4 1.8.2 3-.3 3.8-1.9.5-1 .7-2.1.9-3.1.2-.8.2-1.5.4-2.6 1.1.9 1.4 1.8 1.4 2.8 0 1.7.1 3.5.1 5.2 0 .4-.5.8-.7 1.1-.2 0-.4-.1-.5-.1z" />
    </g>
    <g>
        <path class="some-path" d="M423.9 452.5c0-.5-.1-1.2-.1-1.8 0-4.6.1-9.1.1-13.7 0-1.2.2-2.5.4-3.7.1-.4.2-.9.5-1.2.8-.9 1.7-1.8 2.7-2.8.5.9.5 1.6 0 2.3-1.8 2.5-1.7 5.6-2.3 8.4-.3 1.4 0 2.9 0 4.7 1-.5 1.8-.9 2.6-1.5 4-2.8 8.2 1.4 8.5 4.7.2 2.5-3.4 5.8-6.1 5.6-.9-.1-1.7-.3-2.6-.5-1.3-.1-2.4-.3-3.7-.5zm4.5-8.1c-.3.1-1 .2-1.5.6-.7.6-1.6 1.3-1.8 2-.3 1.2-.1 2.5-.1 4 1.8.3 3.4.6 4.9.8 1.8.2 3.3-.8 3.6-2.1.3-1.7-1.1-4-2.8-4.4-.6-.1-1.3-.5-2.3-.9zM466.6 447c.9 2.3 1.8 4.5 2.7 6.8-3.3-.7-4-4.3-6.5-6-.7 1.3-1.3 2.3-1.2 3.7.1 1.4-.9 2.4-2.4 3.4.1-1.3.2-2.2.2-3.1.1-2.7.3-5.4.3-8.1 0-1.8.2-2.3 1.9-2.9 1.6-.5 3.2-1.1 4.8-1.6.4-.1 1-.2 1.3 0 1.1 1 2.1 2.1 2.2 3.7.1 1.2-.3 2.3-1.5 2.9-.6.4-1 .7-1.8 1.2zm-5.2-.4c1.7-.4 3.1-.8 4.5-1.1.1 0 .3 0 .4-.1 1-.3 1.5-.9 1.5-1.9 0-.7-.2-1.4-.3-2-2.3-.2-4.3.4-5.5 1.5-1 1-.4 2.2-.6 3.6zM452.7 449.5c-3.7-1.3-7.3.1-11-.2-1.1 2.4-.1 4.5 2.3 5.1.9.2 1.9.2 2.8.4.9.1 1.7.3 2.6.4-1.5.9-3 .8-4.6.5-.6-.1-1.4.2-2-.1-1.3-.6-2.3-1.6-2.5-3.2-.3-2.8.2-5.4 1.7-7.8 1.6-2.6 4.4-3.3 7.1-3.4 3-.1 5.3 4 4.1 6.7 0 .6-.3 1.1-.5 1.6zm-.4-3.8c-2.3-3.4-3.5-3.3-6.2-2.6-2.8.8-4 2.2-4.1 4.9 3.4-.7 7-.3 10.3-2.3zM396.1 440.8c1.1.2 2.5.2 3 1.9h-3.9c.1 4.1.3 8.1.4 12.2-1.4-.8-2.1-1.8-2-3.4.2-2.1.3-4.2.4-6.3v-2c-1.3.1-2.6.9-3.4-.7.9-1 2-1.2 3.6-1.2.4-1.8.7-3.5 1.1-5.3.1-.4 0-.9.1-1.3.4-1.4.6-3 2.5-3.4.6-.1 1-.9 2-1.2-.2.7-.3 1.5-.6 2.1-1.1 2.6-2.2 5.3-3.3 7.9 0 .3.1.5.1.7zM369 447.6c-.7 2.7-1.5 5-3.8 6.3-1.2.6-2.4 1.2-3.6 1.7-1.7.7-3.1.3-4.3-1.2-2.2-2.6-1.8-6.6.3-9.1 1.2-1.4 2.6-2.4 4.4-2.8.5-.1 1.3-.3 1.7-.1 1.5.9 2.9 2 4.2 3.1.6.6.8 1.5 1.1 2.1zm-7.3 6.3c3-.1 4.8-1.4 5.8-4 .6-1.5.3-2.8-.6-3.9-.5-.6-1.4-.8-2-1.3-1.9-1.6-3.7-.6-5.3.4-1.7 1-2.1 2.8-1.9 4.6 0 .4.2.9.3 1.3.5 2.6 1 2.9 3.7 2.9zM416.5 446.9c-.3 3.7-1.3 5.4-4.9 6.4-.9.2-1.7.5-2.6.6-3.2.3-5.4-2.2-4.5-5.3.5-1.7 1.3-3.3 2.2-4.8 1-1.7 3.7-2.4 5.5-1.5 1 .5 1.9 1.1 2.9 1.7 1 .6 1.4 1.5 1.4 2.9zm-7.8-3.7c-.7 1.3-1.5 2.7-2.1 4.2-.9 2.1.6 3.5 1.8 4.9.9 1.1 2 .1 3.1-.2.7-.2 1.4-.4 2.1-.8 2.2-1.2 2.7-4.8 1-6.5-1.7-1.5-3.5-2.3-5.9-1.6zM386.3 453.6c-1.7.3-3.4.6-5.1.8l-1.5.3c-2.2.7-4 .1-5.4-1.8-.9-1.3-.9-3.8.2-5.2 1.2-1.5 2.4-2.9 4.2-3.8 2.5-1.3 4.8-.9 7 .5-.1.7-.5.9-1.1.6-.8-.3-1.6-.7-2.5-.9-2.1-.3-4.1.8-5 2.8-.3.7-.5 1.4-.7 2.1-.9 2.6.3 4.5 3.1 4.6 1.6.1 3.2-.2 4.8-.3.6 0 1.3-.1 1.9-.1.1.2.1.3.1.4z" />
    </g>
    <g>
        <path class="some-path" d="M479.7 502.4v6.2c-.3.1-1 .5-1.9.9v-2.6c-.1-2.7-.3-5.4-.4-8.2-.1-1.2.1-2 1.6-2.4 1.5-.4 2.9-1.3 4.4-1.9.5-.2 1.1-.3 1.7-.2 3.3.2 4.6 2.9 2.8 5.6-.6.9-1.3 1.7-2.2 2.8 1.4 1.7 2.8 3.4 4.3 5.2-.1.2-.4.6-.6 1-.3-.1-.5-.2-.6-.4-2-1.7-3.9-3.6-5.9-5.2-.7-.4-1.9-.4-3.2-.8zm.2-1.4c.9.1 1.7.2 2.5.3 1.9.3 4.4-1.3 5.1-3.1.5-1.3.2-1.8-1.2-2.3-2-.8-3.7-.3-5.5 1-.2 1.3-.5 2.7-.9 4.1zM444.5 488.7c1.7.7 1.8 1.6 1.5 2.7-.6 2.6-1 5.1-1.6 8.1 1.8-.5 3.1-1 4.5-1.4 2.3-.5 4.8.5 5.8 2.4s.2 4.7-1.7 5.7c-.9.5-1.8 1-2.7 1.4-.2.1-.4.3-.6.3-.8.1-1.6.3-2.4.3-1.5 0-3.1-.1-4.9-.2.7-6.5 1.4-12.7 2.1-19.3zm.4 13.1c-.1 1.1-.3 2.1-.3 3.1 0 1.4.7 2 2.1 2.2 2.6.4 4.3-1.1 6.1-2.5.3-.3.5-.9.6-1.3.1-1.6-1.4-2.8-3-3.1-2.2-.3-3.8.4-5.5 1.6zM434.7 507.1c-.5-2.4-.7-4.5-1.3-6.6-.5-1.9-2.5-2.4-4-1.2-1.1.8-1.8 1.9-1.6 3.4.2 1.3.2 2.6.3 4.1-.7-.3-1.2-.4-1.6-.6-.5-2.1.7-4.6-1.6-6.1-3.7 1.7-4.4 4.7-3.7 8.3-1.1.9-1.1.9-2.2.5.5-3 .8-5.9 0-8.9-.2-.6-.1-1.1.5-1.2.3 0 .8.5 1 .8.2.3.1.7.2 1.4 1.7-1.2 3.2-2.2 4.8-3.3.6.7.9 1.1 1.3 1.6.2-.1.4-.1.6-.2 1.2-.7 2.4-1.5 3.6-2 1.4-.6 2.3-.1 3.2 1.2 1 1.5 1.1 3.3 1.4 5 .2.9.3 1.7.4 2.6.2 1.4.1 1.5-1.3 1.2zM469.6 503.8c-1.6-.1-3.1-.3-4.5-.2-1.5.1-2.9.4-4.3.6 0 1.8.4 2.7 1.8 3.1 1.2.4 2.5.5 3.8.6 1.2.1 2.5-.3 3.8.6-.5.2-.7.4-1 .4-1.2.1-2.5.2-3.7.3-1.6.1-3.1-.1-4.4-1.1-1.5-1.2-2.1-4.4-1.2-6.7.9-2.3 5.1-5.4 7.6-5.4 1.5 0 2.9.5 3.7 1.9.8 1.5.6 3-.3 4.4-.4.6-.9 1-1.3 1.5zm-9-.5c.6-1.7 2-1.8 3.5-1.9 1.5 0 3.1-.3 4.6-.4 1.4-.2 1.9-1.2 1-2.3-.5-.6-1.4-1.1-2.2-1.2-3.1-.5-6.6 2.2-7.2 5.4 0 .1.1.2.3.4zM413.1 501.9c-1.9.2-3.7.5-5.6.8-1.2.2-2.2.5-3.5.2-.9-.3-1.4.3-1.3 1.3.2 1.7.9 3.1 2.5 3.9 1.6.8 3.3 1.2 5.1.8.5-.1 1.1-.2 1.7-.2-2 1-4.1 1.2-6.3 1.2-.4 0-.8-.3-1.2-.5-2-1.7-2.9-3.8-2.4-6.5.4-2 1.1-3.8 2.2-5.5.8-1.2 1.7-2 3.1-2.3.4-.1.9-.2 1.3-.1 2 .3 2.9 2.1 4.2 3.4.9.8.9 2.2.2 3.5zm-9.7-.5c1.1-.1 2.1-.2 3.2-.3 1.2-.1 2.3-.3 3.5-.3.9 0 1.3-.5 1.3-1.4 0-2.1-2-3.6-4.1-3.2-2 .6-3.5 2.4-3.9 5.2zM355.1 510.5v-10.8c0-1.3.7-1.5 1.6-1.8.2.6.3 1.2.5 1.9.2 0 .4 0 .6-.1 1.2-1 2.3-2.2 3.6-3 3-1.9 4.7.6 4.8 3.8.1 1.6-.1 3.3-.1 5 0 1.5.2 3.1-.1 4.9-.3-.4-.8-.7-.8-1.1-.1-1.2-.1-2.5-.1-3.8 0-1.5 0-2.9-.2-4.4-.3-2.6-1.8-3.5-3.4-2-1.4 1.3-2.6 3-3.8 4.5-.4.5-.8 1.1-1.4 2.1.2.9.4 2.2.7 3.4-.1 1.3-.4 1.6-1.9 1.4zM376.8 498c.4.1 1.1.2 1.8.4 3.1.8 4.3 5.2 2.2 8.2-1.7 2.3-3.6 4-6.3 3-2.2-.8-3.3-2.4-3.1-5.5.2-3.2 2.7-6.2 5.4-6.1zm-3.5 9.2c.5.2 1.2.6 1.8.8 2.2.8 4 0 5.2-2.4.8-1.6.6-3.9-.5-5s-2.5-1.7-3.8-.9c-1.4.9-2.7 2.3-2.5 4.8.1.8-.1 1.6-.2 2.7zM389.7 509.9c-1.6-3.2-3-6.1-4.4-9.1.4-.8.8-1.5 1.2-2.5 1.1 2.8 1.4 5.9 3.3 8.2 1.6-2.7 3.2-5.3 4.7-7.9.8-1.4 1.7-1.8 2.7-1.1.6.4.9 1.7.3 2.2-2.9 2.3-4.5 6.1-6.8 9.2-.2.3-.5.5-1 1z" />
    </g>
    <g>
        <path class="some-path" d="M76.6 511.9c-.1-2.3-.2-4.6-.2-6.8 0-1.1-.5-1.8-1.3-2.4-.8-.6-1.7-.7-2.5-.3-1.2.8-2.6 1.4-2.6 3.2 0 1.5-.3 2.9-.3 4.4 0 1.2-.4 1.8-1.7 1.7v-10.3c1.7.8 3-.2 4.4-.8 1.3-.6 2.5-.6 3.6.7.5.7 1.2 1.2 2 1.9.3-.2.7-.3 1-.6 3.2-2.5 6.7.3 7.3 3.4.3 1.4.1 2.9.1 4.4 0 .2-.4.4-.6.7-.8-.4-.9-.9-.9-1.6.1-.5.2-1 .2-1.5 0-3.2-1.9-4.6-4.9-3.7-1 .3-1.6.7-1.7 1.7-.2 1.5-.4 3-.4 4.6 0 1-.4 1.3-1.5 1.3zM115.4 507.9c-.2 1.5-.4 3-.7 4.7-.7.1-1.5.1-2.7.2.8-3.7 1.5-7.1 2.2-10.6 4.9-2.5 9.2-1.4 10.7 1.3-.4 2.2-1.8 3.6-4.4 4.1 1.1 1.6 2 2.9 3 4.2.8 1.1 1.6 2.1 2.5 3.1.5.7.6 1.3-.1 1.9-.2-.1-.5-.1-.6-.3-1.6-2.9-3.9-5.1-6.3-7.3-1.1-1.1-1.1-1.1-3.6-1.3zm.4-1.4c1.8-.1 3.6-.1 5.3-.3.6-.1 1.2-.3 1.6-.6 1-.7.9-1.8-.2-2.4-.8-.4-1.5-.8-2.3-1.1-1.1-.4-3.4.5-3.8 1.5-.3.9-.4 1.9-.6 2.9zM102.4 512.2c-.8-1.4-1.9-1.2-3.1-1-1.4.3-2.7.5-4.1.7-2.1.3-3.6-1.4-3-3.4.8-2.9 2.7-4.8 5.5-5.8.5-.2 1.2-.1 1.7 0 .8.2 1.5.5 2.3.7.8-.5 1.5-.9 2.7-1.6-.1 1.2-.2 2.1-.3 2.8-.4 1.7-.8 3.4-.4 5.2.1.6-.4 1.4-.6 2.1-.3.2-.5.2-.7.3zm-1.5-2.4V506c-.1-1.6-.5-1.9-2-2-2.8-.2-4.4 1.1-5.3 3.4-.3.7-.4 1.9 0 2.5.4.5 1.5.7 2.3.7 1.6-.2 3.2-.6 5-.8zM139.9 504.1c-1-.5-1.6-.9-2.4-1.2-1.3-.5-2.2-.2-2.5 1.2-.3 1.1-.3 2.3-.4 3.5 0 .7.1 1.4.2 2.1 2 1.3 4 2.3 6.6 1.4.9-.3 1.2.3 1.4 1.3-2.6-.2-5 .9-7.6 0-2-.7-3.7-2.7-3.9-4.8-.2-2.5 1.3-5 3.6-6 1.3-.6 3.9 0 4.8 1.2.4.1.2.7.2 1.3zM153.8 491.3c-.3 2.6-.3 4.9-.7 7.1-.7 2.9-1.6 5.8-1.5 8.8 0 1.3.2 2.6.4 3.9.1.5.2 1 .2 1.5-.7.4-1.3.8-2 1.3-.1-.5-.2-.9-.3-1.2-.2-5 .2-10 .6-14.9.1-1.2.4-2.3.4-3.5-.2-1.8.9-2.4 2.9-3z" />
        <path class="some-path" d="M157.4 502.8c-1.6.7-3.2 1.5-4.9 2.2-.2-1.1.3-1.8 1.1-2.2 1.4-.7 3-1.3 4.5-1.7 1.2-.4 2 .2 2.1 1.5.2 1.9.2 3.8.3 5.7.1.9.3 1.9.5 2.8.1.5 0 .9 0 1.9-1.1-1.2-1.6-2-1.6-3.2 0-.7-.1-1.5-.1-2.2 0-1.6-.5-3.2-1.9-4.8z" />
    </g>
    <g>
        <path class="some-path" d="M155.3 392.5c-.1 1.4-.2 2.6-.3 3.8-.8-.2-1.6-.4-2.4-.7-.3-2.8.1-5.8.5-8.7.2-1.8.9-2.1 2.8-2.3.3 0 .6-.1.9-.2 2.3-1 4.6-.6 6.9.1 1.6.5 2.3 2.1 1.7 3.7-.8 1.9-1.8 2.9-4.5 4.1 1.1 2.5 2.3 5.1 3.6 8.1-.7-.5-1.1-.6-1.3-.9-1.1-1.8-2.2-3.7-3.3-5.5-1.5-2.2-1.8-2.2-4.6-1.5zm-.1-1.9c2 0 3.9.1 5.7-.2.9-.1 1.8-1 2.3-1.8 1-1.3.6-2.3-.9-2.9-2.5-1.1-4.7-.1-6.7 1-.1 1.4-.2 2.5-.4 3.9zM65.4 400.9c.1.9.1 1.6.2 2.7.7-1 1-1.6 1.6-2.5v1.3c.1 2.1 1.9 4.3 3.9 4.7 1.7.3 3.1-1 3.2-3.1.2-3.2.1-6.5.5-9.7.4-3.4.3-6.7-.2-10.1 0-.2 0-.4.1-.6l.3-.6c.8-.1 1.6-.2 2.7-.3-.1 1.2-.1 2.2-.2 3.2l-1.2 12.3c-.2 2-.2 3.9-.3 5.9-.1 2.4-1.5 3.9-3.4 5-.6.3-1.7.2-2.2-.1-1.7-1.2-3.4-2.6-4.9-4-1.1-1.1-.7-2.5-.1-4.1zM145.7 384.8c-.1 1.1-.2 2-.3 2.9-.2 2-.5 3.9-.6 5.9 0 .7.3 1.4.5 2.3-.5 1-1.4 1.2-2.6.6-.4-.2-.9-.3-1.3-.2-2 .4-3.8-.4-5.6-1.1-1.6-.6-2.3-1.8-2-3.5.5-3.5 3-6.8 7.3-6.5.7 0 1.5.1 2.2.1.6 0 1.3-.2 2.4-.5zm-2.9 1.5c-1.9.4-3.4.5-4.8 1-2.5.8-3.2 2.5-3 4.9.1 1.5 1.1 2.4 3.4 2.8 1 .2 2 .1 3 .1.5-2.9.9-5.6 1.4-8.8zM93.4 383.8c-.2 2.8-.5 5.5-.6 8.2 0 1 .2 2.1.3 3.5-.2.3-.9.6-1.4 0-.7-.8-1.4-.5-2-.2-1.9.8-3.8.2-5.6-.1-1.1-.1-1.9-1.9-1.6-3.3.5-2.1 1.3-4 2.7-5.7 1.3-1.6 3.2-2 5.2-2.1.8-.1 1.6-.2 3-.3zM91 394c0-1.9-.2-3.6-.1-5.3.1-1.3-.7-2.1-1.5-2.7-.6-.5-2.4.2-3.1 1.1-.7.9-1.4 1.9-1.9 2.9-1.2 2.4-.2 4.3 2.5 4.3 1.3.1 2.6-.1 4.1-.3zM171.6 384.8c1 2.2 2 4.3 4.9 5 0 0 .1-.4.3-.7 1-1.7 2.1-3.3 3.1-4.9.1-.2.5-.4.7-.5 1-.3 2.1-.5 3.1-.8.5 1.2-.4 1.8-1.2 2.2-2.2 1-3.3 3.1-4.4 5.1-1.6 2.9-3 6-2.9 9.6 0 .7-.8 1.4-1.2 2.2-1.3-.5-1.5-1.2-1.2-2.2.6-1.8 1-3.7 1.6-5.5.3-.9.2-1.5-.3-2.3-.9-1.5-1.6-3.2-3-4.3-1-.9-.7-1.7.5-2.9zM127.5 384.1c.2.4.5.7.5 1.1l-.3 10.5c0 .2-.3.5-.6.9-.6-.7-1.2-1.3-1.9-2.1-.4.2-.9.5-1.4.9-2.9 1.9-7.4-.1-7.7-3.6-.1-2.3.2-4.5.5-6.8 0-.3.6-.7.9-.7.3 0 .6.5.8.9.1.2 0 .5-.1.6-1 1.6-.5 3.5-.6 5.2-.2 2.4 2.9 4.2 5 3 1.6-.9 2.8-2.1 3.1-4 .2-1.1.3-2.2.5-3.3.2-.9.5-1.8.7-2.7.2.1.4.1.6.1zM101 396.1c-1.2 0-1.3-.8-1.3-1.6l.3-7.5c0-1 .1-2 .1-3.2.7-.1 1.4-.1 2.2-.2l.3 1.5h.7c1-.4 2-.9 3.1-1.2 2.4-.6 4.3.7 4.4 3.2.1 2-.1 4-.1 5.9 0 .7.2 1.7-1 1.5-1.3-.2-.6-1.2-.5-2 .2-1.4.5-2.8.5-4.1-.1-2.3-1.7-3.4-3.9-2.7-1.2.4-2.4 1.1-3.5 1.7-.7.4-.9 1-.9 1.9-.1 2.2-.3 4.4-.4 6.8zM75.2 377.3c-1-2.3-1-2.5.6-3.9.4-.3 1.1-.5 1.5-.4.4.1.9.7 1 1.2.3 2-.7 2.9-3.1 3.1z" />
    </g>
    <g>
        <path class="some-path" d="M292.3 517.6c.1-.8.1-1.5.3-2.3.6-2.9 1.3-5.7 1.7-8.6.1-.8-.3-1.7-.7-2.5-1.2-2.5-2.6-4.9-3.8-7.4-.1-.3-.1-.9.1-1 .3-.2.9-.3 1.2-.1 1.1.7 1.6 1.9 1.9 3.1.5 1.8.9 3.5 2.4 5.2.6-1.2 1.2-2.2 1.6-3.2.6-1.7 1.1-3.4 1.6-5 .2-.5.5-.9.8-1.2.4-.5 1-1.2 1.6-.4.4.5.7 1.7.4 2.1-3.5 4.4-4.8 9.7-6.5 14.9-.4 1.2-.5 2.6-.8 3.9-.2 1-.7 1.9-1 2.8-.3-.1-.5-.2-.8-.3zM273.3 493.5c.2.6.5 1.2.6 1.9.1.6 0 1.2-.2 1.7-.6 2.4-1.3 4.8-2 7.1-.6 2-2.3 2.7-4.1 2.6-1.8-.1-3.7-.3-4.7-2.2-.2-.5-.5-1.1-.5-1.7.3-2.6-.3-5.3 1.1-7.8 1-.2 1.3.5.9 1.3-.9 1.8-.6 3.7-.5 5.6.1 1.8.8 2.6 2.1 2.9 2.6.6 3.3.4 4.2-1.5 1.1-2.2 1.8-4.5 2-6.9.1-1 .3-1.9.4-2.9.3 0 .5 0 .7-.1zM254.4 496.8c.8-.5 1.4-.9 2.3-1.4 0 1 .3 1.7.1 2.3-1.2 3.5-1 7.2-1.2 10.9-.1 2-.2 3.9-.4 5.8-2.1 1-3.8 2.9-6.1 1.7-1.6-.8-3.8-1-4.8-2.8.1-.2.2-.3.2-.5.3.1.6.1.9.2 1.6.5 3.1 1.3 4.7 1.6 2.2.4 4.2-1.4 4.2-3.4.1-4.7.1-9.4.1-14.4zM281.8 511.7c-.1-1.8-.4-3.2-.4-4.7.3-5.6.7-11.2 1.1-16.7.1-.9 0-1.8 0-2.7.6-.5 1.2-1.1 2.1-1.9.2.8.5 1.3.4 1.8-.2 1.8-.4 3.7-.8 5.4-1.4 5.6-1.9 11.1-1.1 16.8.2 1 .1 1-1.3 2zM256.7 491.6c-.4.4-.9.8-1.5 1.2-.8-.8-2-1.2-1.5-2.6.1-.4.8-.7 1.2-.7 1.2 0 1.8.8 1.8 2.1z" />
    </g>
    <g>
        <path class="some-path" d="M297.8 451.7c-.3 2.8 1.3 5.3 4.7 6.3-1.1.4-2.9.2-3.6-.5-.9-1.1-1.8-2.1-2-3.6-.2-1.9-1-3.8-.3-5.8.4-1.1.8-2 1.9-2.6 1.7-.9 3.3-2 5-2.8 1.4-.6 1.9-.4 2.8.8.8 1.2 1.6 2.5 1.6 4 0 1.1.3 2.3.3 3.4 0 1.5-.6 1.9-2.1 1.6-.9-.2-1.7-.3-2.6-.4-1.4-.2-2.9-.3-4.3-.4h-1.4zm8.9-.9c-.2-.9-.3-1.4-.4-1.9-.2-.9-.4-1.7-.7-2.5-.7-1.7-2.2-2.2-3.7-1.3-.8.4-1.5.9-2.3 1.4-1.3.7-1.6 1.8-1.4 3.3 2.6 1 5.5.4 8.5 1zM245.4 464.6c.4-.8.9-1.2 1.5-.6 1.1 1.2 2.6 1.4 4 1.7 1.8.5 3.1-.3 3.3-2.2.2-2.1.3-4.3.4-6.4.1-1.8.1-3.5.1-5.3 0-1.4-.3-2.7-.5-4.5.5-.6 1.3-1.4 3-1.5 0 .7.2 1.4 0 2.1-.9 3.3-1.4 6.6-1.3 10 0 1.7.1 3.5-.1 5.2-.3 2.6-.7 3-3.2 4.4-2.4-.8-4.7-1.9-7.2-2.9zM288.8 455.2c-1.2-.8-.9-2-.9-3-.1-1.4-.1-2.8-.3-4.2-.2-1.4-.6-1.6-2.1-1.6-2.5.1-4.7 2.3-4.8 4.8 0 1.2.2 2.4.3 3.9 0 0-.3.2-1 .7-.6-4-.5-7.6-.4-11.3 1.8.2 1.2 1.5 1.5 2.3 1.2-.7 2.3-1.5 3.5-2.1 1.9-.9 4.5.5 4.7 2.5.2 2.5.1 5 .1 7.5-.2.2-.4.3-.6.5zM272.1 444.6c.8 1.5.9 5.4.4 9.8-1.1-.2-2.2-.2-3 .9-2 0-4.2.6-5.9-.9-.4-.4-.8-1.1-.8-1.7 0-1.8.2-3.7.3-5.5 0-.1.1-.3.2-.4.3-.2.6-.5 1-.7.2.4.6.8.6 1.2-.2 1.4-.5 2.7-.7 4.1-.2 1.3.4 2.1 1.6 2.3 1.4.2 2.8.2 4-.8.7-.6 1.2-1.2 1.3-2.2.1-1.5.3-2.9.5-4.4-.1-.5.2-.9.5-1.7zM253.1 441.1c.6-1.9 1-2.4 2-2.1.7.3 1.2 1.3.8 2-.4.8-1.1.8-2.8.1z" />
    </g>
    <g>
        <path class="some-path" d="M91.1 561.5c-.5 2.4-.3 5.1.7 7.6.5 1.1.6 2.1-.5 3.2-.6 0-1.4-.1-2.5-.2.6-7.1.9-14 .6-21.2 0 0 0-.2.1-.2 1.8-.4 3.7-.9 5.5-1.3 2.5-.5 4.4.8 6.3 2 1.1.7 1.2 3 .4 4.3-1 1.6-2.2 3-4 3.6-2 .8-4.1 1.4-6.6 2.2zm.1-2c3.1.2 6.6-2 7.8-4.8.7-1.8.1-3.2-1.8-3.7-1.9-.5-3.6 0-5.3 1-.4.2-.7.8-.7 1.3v6.2zM85 551.4c-2.4 3.2-.9 6.9-.9 10.3-1.4-.4-2.6-.8-3.8-1-1.3-.2-2.6 0-3.9 0-.1 0-.3.1-.4.1-2.7.8-4.2-.3-4.4-3-.1-1.9.3-3.6 2-4.9 1.3-1 2.5-2 3.8-2.9.4-.3 1.1-.4 1.6-.5 1 0 2.1.2 3.1.1 1.4 0 2.2.7 2.9 1.8zm-10.8 9c2.4-.3 4.8-.6 7.3-.9v-7.9c-2.2-.9-3.9.1-5.6 1.2-2.8 1.8-3.4 3.9-2.1 6.9.1.2.2.3.4.7zM118.9 562c-1.8-1.7-3.6-3.3-5.2-5-1.5-1.5-3-2.2-5.2-1.2-.7 1.6-.3 3.3.4 5.2-.4.3-.9.6-1.4.9-.1-.3-.3-.5-.3-.7.1-3.4.2-6.7.4-10.1.1-1.6.8-2.3 2.4-2.7 1.6-.4 3.3-.8 4.9-1.1.4-.1.9-.1 1.3 0 2.6.6 3.2 3.2 1.1 5.3-.4.4-.8.7-1.1 1-.9.9-1 2.5-.1 3.4 1 1.1 2 2.1 3.1 3.2.5.6.4 1.1-.3 1.8zm-10.1-7.7c2-.4 3.9-.7 5.8-1.1.3-.1.6-.4.9-.6 1.3-1.1 1.8-2.4 1.4-3.2-.4-.9-1.7-1-3.4-.7-2.9.5-4.9 1.9-4.7 5.6zM144.7 537.8c-.1.9-.1 1.3-.3 1.7-.9 2.9-1.9 5.7-2.7 8.6-.8 3.1-1.3 6.3-.9 9.6 0 .5.5 1.1.9 1.4.6.4.9 1 .4 1.4-.3.3-1.1.4-1.5.3-1.6-.6-2.2-1.6-2.1-3.3.3-3.9.7-7.9 1.1-11.8.1-1.5.3-2.9.5-4.4.1-.4.2-1 .4-1.1 1.3-.8 2.6-1.5 4.2-2.4zM130.6 560.4c-.2.6-.4 1-.5 1.5-1.1.1-2.9-1.2-2.9-2.3.1-3 .3-6 .6-9 0-.4.6-.8.9-1.3.9.7.6 1.6.5 2.3-.5 2.3-.4 4.5.1 6.7.1 1.1.4 1.7 1.3 2.1zM128.1 546.2c-.7-1.9-.5-2.2 1.4-2.7.3 1.7.3 1.7-1.4 2.7z" />
    </g>
    <path class="some-path" d="M611.7 140.8c.3 0 .5.2.8.2 1.9 0 3.8-.1 5.6-.1.6 0 1.2.1 1.8.2 1.9.4 3.8.7 5.8.4 1.4-.2 2.8-.2 4.2-.3 2.4-.1 4.9-.1 7.3-.2 2.1-.1 4.1-.4 6.2-.4 2.7 0 5.3.2 8-.2 4.5-.5 9-.5 13.5-.4 2.1 0 4.1-.1 6.1-.6.5-.1 1-.1 1.5 0 1.7.1 3.4.2 5.2.3 2.2.1 4.4-.5 6.7-.1 1 .2 2 .3 3 .3 3.5 0 7-.1 10.4-.1.9 0 1.8.1 2.6.1 1.8-.2 3.5-.5 5.3-.6 2-.1 4.1-.4 6.1-.2.8.1 1.7.1 2.5.1s1.6-.2 2.5 0c1 .2 2.2-.2 3.3-.1 1.7 0 3.4.2 5.1.3 1.5.1 3 0 4.5.1 1.6.1 3.1.3 4.6.3 2 0 4-.1 6-.1H753.7c1.3 0 2.7 0 4-.1.8 0 1.7-.2 2.5-.2 2.4 0 4.9 0 7.3-.1 2.3 0 4.6-.2 6.9-.2 3.4 0 6.8.1 10.2 0 3.2-.1 6.3-.3 9.5-.4h2.3c2.6.1 5.1.1 7.7.2 4.3.2 8.7-.6 13 .2.3.1.6 0 .8 0 1.5-.1 3-.5 4.5-.2 4.2.6 8.4.4 12.5.3 3.4-.1 6.9-.2 10.3-.4h3c4.5 0 9-.1 13.5-.2 1.7 0 3.4-.1 5.2-.2.8 0 1.6-.3 2.5-.3l11 .3c2.2.1 4.5.1 6.6.5 3.1.5 6.2.9 9.3 1 3.1.1 6.1.2 9.2.4 4.4.4 8.8.4 13.2.2 1.8-.1 3.6.1 5.3.2 3.3.1 6.5.2 9.8.3 1.3.1 2.7-.4 4.1.9-.8.2-1.3.5-1.9.4-1.8-.1-3.7-.4-5.5-.4-4.1-.1-8.1 0-12.2 0-2.4 0-4.9.1-7.3 0-2.5-.1-5-.4-7.5-.5-2.3-.2-4.7-.3-7-.5-2.1-.1-4.1-.3-6.2-.5-2.1-.1-4.1-.2-6.2-.3-.9-.1-1.9-.2-2.8-.2h-9.2c-1.8 0-3.6.1-5.3.2-2.3.2-4.7.5-7 .6-1.5.1-3-.4-4.6-.2-3.1.2-6.2 0-9.3-.1H841c-3.7-.1-7.4-.2-11-.2-3 0-5.9.3-8.9.3-2.1 0-4.1-.1-6.2-.2-1.2 0-2.3-.1-3.5-.1-1.9-.1-3.9.3-5.8-.2h-.5c-4.3.5-8.6.6-12.9.6h-6.8c-2.9-.1-5.8-.2-8.7-.2-1.6 0-3.1-.1-4.7.1-2.7.2-5.4.7-8.1.1-.7-.2-1.4-.1-2.1-.1-2.5.1-5.1.4-7.6.4-4.2 0-8.4-.1-12.6-.1-3.5 0-7 .2-10.6.1-2.4-.1-4.8.6-7.1-.6-.1-.1-.3 0-.5.1-.6.3-1.3.2-1.9.1-.8-.2-1.7-.3-2.5-.3-6 .2-12 .4-18.1.5-2.3.1-4.5.2-6.8.2-4 0-8-.2-12.1-.2-3.2 0-6.3.1-9.5.2-1.7 0-3.3.1-5 .2-2.2.1-4.5 0-6.7.1-2.4.1-4.8.1-7.2.3-1.5.1-2.9.3-4.4.4-2.3.1-4.7.1-7 .2-4.3.1-8.7.3-13 .7-2.9.3-5.9.5-8.8-.2-1.9-.4-3.8-.5-5.8-.6-1.9 0-3.8.2-5.6.3-.2 0-.4-.2-.8-.3 1.5-1.2 2.3-1.4 3.5-1.2zm247-1.3v.2h1.4v-.2h-1.4zM732.2 175.2c-2.2-.1-3.7.8-5.4 1.3-1.6.5-3.5.5-4.6 2.4-.7-1.6-.4-2.8-.3-4.1 0-.6.5-.8 1.1-.8 2.3-.2 4.6-.3 6.8-.7 1.9-.4 3.7.2 5.6.3.1 0 .3.2.5.4-1.5 2.6-3.9 4.7-5.3 7.2 1.5.5 2.9 1 4.2 1.5 2.5 1 4.7 5 3.7 8.5-.2.7-.7 1.3-1.2 1.8-.8.8-1.7 1.4-2.6 2.1-1.4 1.1-3 2-4.8 2.1-.8.1-1.7.2-2.5.4-2.2.4-4-.4-5.6-1.9-.8-.8-1.5-1.7-2.2-2.5-.4-.4-.4-.8.3-1.2.4.4 1 .8 1.4 1.3 1.3 1.7 3.1 2.6 5.1 2.8 2.5.2 4.9-.2 7-1.7 1.8-1.3 3.1-5.6 2.4-7.7-.8-2.5-4.1-4.1-6.6-3.2-.4.1-.7.3-1.1.4-.8-.5-1-1-.3-1.9 1.2-1.6 2.3-3.3 3.4-4.9.3-.4.6-1 1-1.9zM627.2 223.6c-3.2-1.8-3-1.8-4.1-4.1 1.1-2.2 3-3.7 5-5.1.3-.2.7-.2 1.1-.1 2.2.4 4.1 1.2 5.8 2.7 1 .9 1.1 2.1-.1 3.1-.6.5-1.3 1.1-1.7 1.8-.7.9-.4 1.5.8 1.6.1 0 .3-.1.3-.1 1 .7 2.1 1.4 2.9 2.2.6.7.8 1.7.6 2.7-.4 3.2-2.1 5.3-5.1 6.6-2.3 1-4.6 1-7 .3-2.1-.6-3.3-2.2-4.1-4.1-.2-.5.1-1.2.3-1.8.7-1.8 2.1-2.9 3.5-4.1.6-.4 1.1-1 1.8-1.6zm2.4 9.8c2.3 0 4.1-.9 5.5-2.7 1.7-2.1 1-4.8-1.5-5.9-.6-.3-1.1-.6-1.7-.8-.9-.2-1.9-.9-2.8-.1-1.9 1.6-3.8 3.2-5.6 5-.8.7-.5 1.8.3 2.5 1.7 1.4 3.6 2.1 5.8 2zm5.4-15.2c-1-.8-1.5-1.5-2.2-1.7-2.2-.5-4.4-.3-6.4 1-1.2.8-1.4 1.8-.5 2.9.5.6 1.2.7 1.7 1.1 1.4.9 2.4.5 3.5-.4.7-.5 1.4-1.1 2.1-1.6.6-.3 1.1-.7 1.8-1.3zM685.3 193.8c1.1 1.6 1.1 2.2-.3 3.1-.1-.4-.2-.8-.3-1.1-3.9-.5-7.5 1-11.3 1.3-.5-1.8-1-3.4-1.3-5-.1-.6.2-1.3.4-1.9.7-1.5 2-2.5 3.4-3.3 1.7-.9 3.5-1.8 5.2-2.7 1.6-.9 2.3-2.5 3-4.1.3-.5 0-1.4-.2-2.1-.2-.7-.6-1.3-.8-2-.3-1.1-1.3-1.5-2-2-.5-.4-1.6-.1-2.4.1-.4.1-.8.4-1.2.6-2.2 1.2-2.4 2.1-.9 4.2-.1.9-.7 1.1-1.5 1-.8-.1-.9-.7-1.1-1.3-.8-1.9-.2-3.2 1.5-4.2 1.1-.6 2.1-1.3 3.2-1.8 2.5-.9 4.6-.1 6.4 1.7.5.6 1.1 1.1 1.5 1.8 1.4 2.4.5 6-2 7.6-2 1.2-4 2.6-6.2 3.6-1.4.6-2.6 1.5-3.4 2.8-.9 1.4-1.3 2.8-.4 4.4.1.2.2.5.3 1 3.3-.6 6.8-1.2 10.4-1.7zM672.3 344.7c-.5-.7-.7-1.1-.2-1.7 1.9-2.7 3.8-5.5 5.6-8.3.1-.2.2-.5.4-.8-4.2-.6-7.4 1-9.9 4.1-.7-2.1-.1-3.4 1.7-4 2.9-1 5.9-1.9 9-2 .5 0 1.1.1 1.9.2-1 2.8-3 4.8-4.1 7.5.4.1.7.3 1.1.4.8.2 1.7.3 2.4.6 1.8.8 3.1 2.8 2.9 4.9-.5 4.7-2.2 6.3-5.7 7.1-.3.1-.5.2-.8.3-3.9 1.7-7.5.6-10.8-1.6-.4-.3-1.1-.6-.7-1.1.5-.7.9.1 1.3.4 2.3 1.5 4.8 1.9 7.5 1.5 1.2-.2 2.3-.4 3.5-.7 3.4-.7 4.5-3.1 4.6-6.1 0-1.3-.7-2.4-2.1-2.7-1.7-.4-3.4-.7-5 .2-.6.3-1.1.9-1.7 1.3-.3-.2-.6.1-.9.5zM779.4 261.8c-.6-.4-1-.7-1.4-.9-1.5-.6-1.9-1.9-2.4-3.2-.1-.3-.1-.7 0-.9 1.2-1.6 2.6-2.9 4.7-3 2.2-.1 4.1.7 5.2 2.7.8 1.4 1 3.4-.7 4.8-.3.3-.7.6-1 .8 1 1.1 2.1 2.2 3 3.3.9 1.1 1.4 2.4 1.5 3.8.1.6-.1 1-.6 1.4-1.5 1.6-3.5 2-5.5 2.1-1.5.1-3.1-.2-4.6-.5-1.7-.4-2.5-1.7-2.6-3.6-.1-1.5 0-3 1-4.2.7-.8 1.7-1.4 2.6-2.1.3-.1.4-.2.8-.5zm2.7 9.8c1.3-.5 2.8-.9 4.1-1.5 1-.5 1.1-.9.8-2-.4-1.6-1.5-2.8-2.6-4-1.2-1.3-2.5-1.5-4-.9-.8.3-1.7.6-2 1.4-.6 1.4-1 2.8-1.4 4.2-.2.8.3 1.5.9 1.8 1.4.4 2.7.7 4.2 1zm-.4-16.3c-3.2.1-3.9.8-3.4 3.2.3 1.4.9 1.9 2.4 1.9h.6c1.3.4 2.1-.5 2.9-1.1.6-.5.7-1.3.2-2-.6-1.2-1.7-1.9-2.7-2zM635.1 256.6c3.1-.8 6.2-1.5 9.4-2.3.1.5.3.8.5 1.4-1.3.4-2.6.7-3.8 1-.9.2-1.8.3-2.6.6-1.9.6-2.2 1.4-1.4 3.4 1.7-.3 3.3-.3 5 .4 3 1.2 4.6 3.3 4.7 6.6v.5c.1 2.9-1.2 4.7-3.7 6.1-2.9 1.6-5.6 1.1-8.4 0-.6-.2-1.1-1-1.6-1.5-.3-.3.1-.9.7-.8.8.1 1.7.2 2.5.5 2.2.6 4.2.1 6.2-.7.4-.1.7-.5 1-.9.9-1.3 1.5-2.7 1.7-4.3.2-1.3-.3-2.1-1.4-2.8-2.1-1.2-4.3-1.8-6.7-.8-.3.1-.7.1-1 .2-1.5.4-1.7.2-1.5-1.4 0-1.6.2-3.2.4-5.2zM636.1 171.6c-.8 5.1-1.7 9.8-2.3 14.5-.4 3.3-.7 6.6 1 9.8.2.3.1.8.1 1.4-2.1-.6-3.9.6-5.9-.4.1-1.7.2-3.4.9-5 .3-.8.5-1.6.7-2.4.4-1.4.7-2.8 1-4.2.2-.8.3-1.6.5-2.5-1.5-.1-3.1.9-4.1-.8.9-.7 1.9-1.4 2.6-2.2 1.9-2 3.3-4.3 4.1-7 .2-.7.2-.6 1.4-1.2zM673.6 235.2c0-1.3.6-1.9 1.4-2.1 1.2-.3 2.1-1.1 2.8-2l3.6-4.2c.7-.8 1.4-1.7 1.6-2.8-1.6.3-3.1.6-4.5.9-2.7.4-4.4-1.8-4.6-4.2-.2-3 1-5.1 3.7-6.3.6-.3 1.1-.5 1.6-.8 1.1-.8 2.2-.8 3.3-.1.3.2.6.4 1 .6 1.9.8 2.4 2.3 2.4 4.2-.1 2.5-.9 4.8-2.1 7-1 1.8-2.1 3.5-3.4 5.1-1.4 1.7-3.1 3-5 4.1-.4.2-1 .3-1.8.6zm10.2-16.4c-.2-3-1.5-3.8-4.1-3.3-1.5.3-2.8 1.3-3.7 2.7-.6.9-.3 3.2.4 4 .3.3.8.6 1.3.8.4.1.8.1 1.2.1 2.6.5 5.1-1.7 4.9-4.3zM804.9 194c.6 0 1 0 1.3.1 1.8 1 3.9 1.4 5.9 1.6 1.9.3 3.9-.1 5.7-1 .8-.4 1.4-1 1.6-1.8.3-1.2.7-2.4.9-3.6.2-1.9-.6-2.9-2.4-3.1-1.9-.2-3.8-.7-5.9-1.1.2-3 1-5.7 1.3-8.5.7-.4 1.3-.4 2.1-.4 1.2.1 2.5-.3 3.8-.5.8-.1 1.5-.2 2.4-.3 0 .5.1.9.1 1.3-2.2.4-4.4.8-6.5 1.1-.4 2-.8 3.9-1.3 5.8 1.2.2 2.3.5 3.5.7 2.7.5 4.8 1.8 5.6 4.6.5 1.7.1 3.6-1.3 4.8-1.7 1.5-3.6 2.9-5.8 3.5-1.3.3-2.8.3-4.1.2-1.2-.1-2.4-.4-3.6-.8-1.3-.4-2.5-.9-3.3-2.6zM905.4 257.5c0-.2.1-.4.1-.6.1-2.3 1.3-3.5 3.6-3.4 1 0 2.1.2 3.1.4 1.8.4 2.8 1.8 3.6 3.2.6.9 0 1.8-.6 2.4-1.7 1.7-3.5 3.2-5.3 4.8-.6.6-1.3 1-2 1.5-2.1 1.6-3 3.8-2.9 6.6 1.2-.2 2.4-.3 3.6-.4 1.1-.1 2.2-.3 3.3-.3 2.1 0 4.1 0 6.1-.9.2-.1.4 0 .8 0 0 .6-.1 1.1-.1 1.5-.4.6-1.3-.2-1.4.7 0 .1-.5.2-.7.2-1.9-.6-3.8.2-5.6.3-2.7.1-5.4.8-8.1.4-.5-.1-1 .1-1.6.2-.1-1.2.5-2.2 1.1-3 2.1-3.1 4.3-6.1 7.4-8.2.8-.6 1.6-1.3 2.2-2.1.4-.6.4-1.4.6-2.1.3-1.4-.4-3-1.4-3.5-1.1-.6-3.2-.4-4.1.4-.4.4-.5.9-.8 1.4-.1.3-.3.5-.5.7-.1-.1-.2-.2-.4-.2zM692 253.7c.1 1.2 0 2-.9 2.2-2.4.6-4 2.2-5.8 3.7-1.3 1.2-2.3 2.6-2.9 4.4h1c2.3-.6 4.4-.3 6.4.9 1.8 1.1 2.8 4 1.8 5.9-1.5 2.9-4.1 4.4-7.1 5.3-.2.1-.5.1-.7 0-2.2-1.2-4.2-2.6-4.9-5.1-.5-2 0-4 1-5.8 1-1.9 2.3-3.7 3.6-5.4 1.5-1.9 3.4-3.5 5.6-4.7.9-.6 1.8-.9 2.9-1.4zm-10.1 11.6c-.1 1.2-.4 2.5-.4 3.8 0 2 1 3.5 2.8 4.4.3.2.8.3 1.1.3 2-.4 3.8-1.1 4.9-3.1.7-1.3.2-3.5-1-4.4-1.4-1-3-1.4-4.7-1.3-.9.1-1.7.2-2.7.3zM909.4 182.6c-1.1.3-1.8.4-2.5.7-.7.2-1.2.2-1.5-.6.7-.9 1.7-1 2.7-1 1.4-.1 2.3-.7 3-2 1.3-2.4 2.9-4.6 4.8-6.6.1-.1.2-.3.5-.7-1.7-.1-3.2-.1-4.8.1-.4.1-.9.2-1.3.2-2.1-.1-3.9.7-5.5 2-.3.3-.7.4-1.3.8.1-.7.2-1.2.1-1.6-.1-.4-.3-.7-.6-1.3.7-.2 1.3-.5 2-.6 1.9-.3 3.9-.5 5.8-.7 2.3-.3 4.5-.6 6.8-.9.5-.1 1.1-.1 1.7 0 .9.1 1.2.8.5 1.4-.8.7-1.7 1.4-2.7 1.9-1.1.6-1.9 1.3-2.5 2.3-1 1.5-2 3.1-2.9 4.6.1.1.1.2.2.3.7-.1 1.3-.2 2-.3.3 0 .7.2 1 .3-.2.3-.3.7-.6.8-.7.3-1.5.5-2.2.7-.4.1-.9.2-1.2.2-1.2 2.9-1.4 5.7-.2 8.5.1.3 0 .8-.1 1.2-.3.9.3 2.2-1.4 2.4-1.7-1-1.6-2.8-1.4-4.5 0-2.4.4-4.9 1.6-7.6zM806.7 311.7c1.8-.9 3.2-1.6 4.5-2.3 1.2-.6 2.3-.6 3.5-.1 1.4.5 2.7 1.3 3.8 2.3.5.4 1.1.7 1.6 1-.8.5-1.8.6-3.1.1-.4-.1-.7-.3-1.1-.5-2.2-1.3-4.4-.8-6.6 0-1.2.4-2.5 1-3.6 1.4-.5-.6-.3-1.1-.1-1.7.6-2 1.7-3.6 3-5.1 1-1.2 2.1-2.5 3.3-3.5.6-.6 1.5-.9 2.3-1.2 1.4-.6 2.4-1.4 2.7-2.9.3-1.5-.2-3.2-1.4-3.4-1.7-.2-3.6-1.4-5.3.8.1.6.2 1.6.4 2.6h-2c-.3-2.8 1.1-4.6 3.8-5.2 2.7-.5 4.9.6 6.5 2.5 1.8 2.1.4 4.9-1.5 5.6-2.2.8-4.2 1.9-6 3.2-1.8 1.3-3.1 3-4.4 4.8 0 .3 0 .8-.3 1.6zM612.3 351.1c3.5-1.1 10.9-.6 13 .8-.2.4-.4.7-.5 1.1-3.1-1.6-8.9-1.3-14.2.8-.9-1.7-.5-3.2.3-4.7 1.3-2.3 3.1-4 5.4-5.3 1.3-.8 2.5-1.6 3.7-2.6 1.4-1.1 1.7-4.4.6-5.9-.6-.8-1.5-.8-2.4-.7-.8.1-1.5.5-1.6 1.4-.1.6-.3 1.2-.5 1.9-.9-.4-1.5-.6-2.2-.9 1.1-3.8 3.3-4.8 6.7-4.5 1.8.1 3.5 2.5 3 4.3-.6 2.1-1.4 4.3-3.1 5.8-1.2 1-2.6 1.7-3.9 2.6-1.1.8-2.2 1.5-3.2 2.4-1.2.8-1.8 1.9-1.1 3.5zM902 295.4c-.2-.2-.4-.4-.5-.7-.3-2.4 2.9-5.5 5.4-4.2 1.4.7 2.7 1.3 3.9 2.3 1.5 1.3 1.4 3.2-.2 4.4-1.3.9-2.6 1.7-3.9 2.6-.9.6-1.8 1.3-2.6 2.1-1.9 1.6-2.5 3.9-2.5 6.4.5 0 1 .1 1.5 0 2-.6 4-1.3 6-1.9 1.3-.4 2.4-1 3.5-2.2 0 1.6 0 3 .1 4.5-4.7-1.3-8.7.9-13.1 2.1v-1.1c0-.4.2-.9.2-1.3-.3-2 .7-3.5 1.7-4.9 1.4-1.8 3-3.5 4.4-5.2.8-1 1.7-1.9 2.3-3 .5-.9.5-2-.4-2.7-1-.9-2.6-1-3.6-.4-.8.5-1.4 1.1-1.6 2.1-.1.4-.1.7-.2 1.1-.2-.1-.3-.1-.4 0zM869.3 224.8c.4.1.9.2 1.2.4 1.7 1.4 3.6 2.2 5.8 1.3.7-.3 1.5-.3 2.2-.5 1.8-.7 2.8-2.5 2.5-4.4 0-.4-.2-.8-.2-1.2 0-2-1.3-2.6-3-3-1.3-.3-2.6-.6-3.8.2-.1.1-.3 0-.5 0l-.2-.2c.1-1.1 1.3-1.5 1.8-2.4.5-.9 1-1.8 1.6-2.9-3.2-.6-5.4 1.2-7.8 2.4-.4-1-.3-1.9.1-2.8.2-.3.7-.6 1-.7 2.4-.4 4.8-.8 7.2-1.1.2 0 .4-.1.7 0 .9.1 1.8.4 2 1.2.3.8-.6 1.4-1.3 1.7-.9.5-1.5 1-2.1 2 .7.3 1.3.7 2 .8 1.4.3 2.3 1.1 3.2 2 1.2 1.3 1 2.9.9 4.4-.2 2.2-1.7 3.7-3.3 5-2.3 1.9-6 1.9-8.4.1-.5-.3-1.4-.9-1.6-2.3zM867.9 177.3c-.4.3-.7.6-1.1.8-3.6 1.4-6 3.9-7.8 7.5.9-.1 1.7-.2 2.4-.2 2.7.1 5.3 1.3 5.9 4.4.3 1.7-.6 2.8-1.7 3.7-.7.6-1.7.9-2.6 1.3-.7.3-1.4.4-2.1.6-1.3.4-3.4-.5-4.1-1.6-1.1-1.6-1.3-3.3-.8-5.1.6-2.4 1.1-4.9 2.8-6.9 2-2.2 4.2-4.3 7.2-5.3.9-.1 1.4 0 1.9.8zM861 187c-.3.1-.9.2-1.4.3-1.8.3-2.1.6-2.1 2.5 0 .4.1.9.2 1.3.4 1.3 2.1 2.8 3.1 2.6 1.2-.2 2.4-.4 3.5-.9 1.8-.8 2.1-3.1.7-4.3-1-.8-2.3-1.4-4-1.5zM719.6 351.1c.2-.6.4-1 1-.7 1.3.5 2.7 1.3 4.1 1.5 2.1.3 4.2.6 6.2-.6 1.3-.8 1.8-1.9 1.9-3.3.1-.8 0-1.6 0-2.3 0-1.1-.1-2.2-1.2-2.8-1.3-.8-2.8-1.2-4.3-.6-.7.3-1.4.4-2.4.7 1.4-3.1 2.1-6.1 4.1-8.8-1.6-.2-2.9.2-4.2.6-1.4.4-2.6 1.1-4 1.7-.1-1.2-.1-2.2-.2-3.4 2.1.3 4.1-1 6.3-.6.9.2 2-.1 3-.2.9-.2 1.5.1 2 .9-1.6 2.1-3.5 4.1-4.7 6.9 1 .2 1.8.6 2.5.5 1.8-.2 2.6.7 3.6 2.1 2 2.9.7 7.7-1.9 9.6-2.1 1.6-4.4 1.7-6.8 1-1.2-.3-2.3-.8-3.4-1.3-.6-.3-1.1-.6-1.6-.9zM821.4 217c-.6-1.6-.2-2.7 1-3.5.6-.4 1.2-.9 1.8-1.2.3-.2.7-.4 1.1-.3 1.6.2 3.3.5 4.5 1.6.8.7 1.4 1.9 1.7 2.9.7 2.1.8 4.2-1 5.9-.4.4-.8.7-1.3 1-1.7.8-3.5 1.4-5 2.8-.8.7-1.5 1.5-2.1 2.3-.2.3-.2.7-.4 1.3 1-.2 1.7-.3 2.4-.4 1.5-.2 3-.5 4.5-.5 1.7 0 3.5.4 5.4.7-.2.5-.4.9-.5 1.2-1.4 0-2.6.1-3.7 0-1-.1-2-.4-3-.4-.6-.1-1.3 0-1.9.2-1.4.5-2.6 1.2-4 1.7-.3.1-.6.1-1.1.2.1-1.5.3-2.8 1-4.1 1.3-2.6 3.5-4.3 5.9-5.7 1.6-.9 2.8-2.1 3.2-4 .5-2.9-2.3-5.6-5.1-5-1.1.2-1.7 1-2 2-.1.6-.4 1.2-1.4 1.3zM927.3 298.5c.4.3.7.6 1 .7 1.4.5 2.4 1.7 3.3 2.7 1.1 1.2.7 3-.7 4-2.1 1.5-4.4 1.5-6.8 1.5-.1 0-.2 0-.3-.1-2-1.6-4.1-3.2-4.5-6-.1-.7.3-1.2.8-1.5.8-.5 1.7-1 2.6-1.5-.5-.9-1.2-1.8-1.5-2.8-.7-2.2.6-4.7 2.9-4.8 1 0 2.1-.1 3.1.1 1.1.2 1.8.9 2.2 2.1.7 2.4.2 3.8-2.1 5.6zm-.8 7.5c.6-.1 1.2 0 1.8-.2 1.1-.3 2.4-.6 2.8-1.8.3-1.3-.9-2.1-1.8-2.7-.9-.7-1.8-1.3-2.8-1.8-.5-.3-1.2-.4-1.7-.3-.7.1-1.5.5-2.1.9-.9.6-1.6 2.6-1.1 3.2 1.3 1.4 2.5 3.2 4.9 2.7zm-1.1-8.2c.7-.3 1.3-.6 1.9-.9 1-.5 1.4-1.3 1.4-2.3 0-1-.4-1.9-1.4-2.3-.5-.2-1.1-.3-1.6-.5-.9-.3-1.5.1-2 .8-1.3 2.1-1.1 3.1.9 4.6.2.2.4.4.8.6zM640.6 343h-2.4c-2.2.2-3.6-1.3-5-2.7-.1-.1-.2-.4-.2-.6-.6-3.7 1.7-6.8 5.2-7.6.3-.1.6-.2.8-.1 2 .6 4 1.3 5.3 3.2.7 1 .8 2 .4 3.1-.9 2.4-2.4 4.5-4.1 6.4-1.6 1.8-3.3 3.5-5 5.2-.7.6-1.6 1-2.3 1.6-.6.4-1 .4-1.4-.2-.4-.7.1-1.1.7-1.2 1.1-.2 2-.9 2.9-1.6 1.9-1.4 3.3-3.3 5.1-5.5zm-1.4-9.3c-2.6 0-4.5 2.3-3.9 4.7.1.5.5 1 .8 1.4 1 1 2.4.9 3.6 1.1.6.1 1.4-.5 2-.9 1.9-1.1 2.2-3.7.5-5-.8-.9-1.8-1.5-3-1.3zM637.5 313c4.1-.7 8.1-.8 12.2-.5-.1 1.4-.1 1.5-1.1 1.4-3.3-.3-6.6-.2-9.8.5-1.4.3-2.9.4-4.3.5-.2 0-.6-.1-.6-.2 0-.3-.1-.7.1-.9 1.6-2.1 3.2-4.3 4.9-6.4.8-1 1.6-1.8 2.5-2.7 1.4-1.3 1.9-2.9 1.9-4.7.1-1.9-1.5-3.2-3.4-2.9-2.1.3-3.2 1.8-4.4 3.3-.2.2-.3.4-.5.8-.4-.3-.7-.5-1.1-.8.7-1.7 2.1-2.6 3.4-3.5.8-.6 1.7-1.1 2.7-1.2 3.3-.4 5.6 2.6 4.6 5.7-.8 2.5-1.9 4.9-4 6.6-.3.2-.5.6-.7.9-.8 1.2-1.5 2.4-2.3 3.6-.1.2-.1.3-.1.5zM742.5 220.2c-.3 3.6-.9 6.4-2.9 8.8-1.5 1.7-5.6 2.7-8 1.3-1.4-.8-2.1-2.1-2-3.7.1-2.7 1.1-5.2 2.7-7.4.7-.9 1.4-1.9 2.2-2.7 2-1.9 5.2-1.4 6.7.7.8 1 1.4 2.2 1.3 3zm-8 9.5c.6-.1 1.2-.3 1.7-.4.9-.2 1.8-.4 2.5-1.2 1.8-2.3 2.6-4.8 2.3-7.7-.2-2.7-2.8-3.4-4.8-2.9-2.6.8-4.1 4.2-4 6.3.3 2.2.7 4.3 2.3 5.9zM912.2 219.1c2.7 0 5-.1 7.4-.1.5-1.9 1-3.9 1.5-5.9 1.6-.2.9 1.3 1.7 1.6-1.8 2.4-1.4 10.6 1.2 13.7-1.4 1.7-2.1 1.9-4.2.8-.2-2.7-.4-5.5-.6-8.3-2.8-.5-5.7.4-8.6-.5.4-.8.7-1.4.9-1.9.8-1.9 1.5-3.8 2.4-5.7.3-.8.8-1.5 1.3-2.3.9.2 1.1.6.6 1.2-.5.6-.8 1.1-.7 1.9.1.4-.3.9-.5 1.4-.7 1.2-1.5 2.6-2.4 4.1zM767.9 185.8c2.6-.4 4.9-.7 7.3-1 .2-1.8.4-3.6.5-5.5.1-1 .4-1.7 1.5-1.8.7.7.4 1.6.3 2.4-.3 2.2-.8 4.4-.9 6.7-.2 3.2.3 6.3 1.4 9.5-.3.2-.7.6-1.2.8-1.5.5-2.2 0-2.1-1.5 0-2.3.3-4.7.4-7v-1.8c-3 0-5.7 1.4-8.6.5-.1-.4-.3-.8-.5-1.2 0-.1 0-.2.1-.3 1.1-2.5 2.3-5.1 3.4-7.6.1-.2.1-.5.2-.6.2-.2.6-.4.9-.5.1.3.4.6.4 1 0 .3-.3.6-.4.9-1 2.2-1.8 4.5-2.7 7zM731.7 255.9c3-.1 5.9-.3 8.7-.4.8 0 1.6-.2 2.3-.1.4 0 1 .3 1.2.7.3.6-.4.8-.8 1.1-2.8 1.9-5.1 4.3-6.3 7.7.5 0 1 0 1.4.1.4.1.7.4 1.4.8-1.1.4-1.7.7-2.4.8-.9.2-1.3.7-1.2 1.5.1 1.7.2 3.4.4 5.1 0 .3.2.5.3.8.5 1 .5 1 0 2.2-2.3-.2-2.1-.9-2.1-2.4 0-2.2-.2-4.3-.3-6.5-1.1-.4-2.6.8-3.8-.5.5-.8 1.2-.9 1.9-1 .6-.1 1.2 0 1.8-.2.4-.1.8-.4 1-.7 1.2-2.8 3.2-4.9 5.2-7.1.2-.2.3-.5.6-.9-1.2.1-2.1.1-3.1.2s-2 .2-3 .5c-1.1.3-2.4.3-2.7 1.9-.1.3-.5.5-1 1.1.2-1.9.3-3.3.5-4.7zM852.5 274c3.8-2.5 7.8-3 12-1.9 0 .2.1.3.1.4-.1.3-.2.6-.4.9-1.5-.2-3-.3-4.5-.5s-2.8.1-4.2.8c-1.3.7-2.6 1.1-4 1.7-.5-1.4-.7-2.6-.3-3.8.8-2.6 1.9-5.2 4.1-7.1 1.7-1.4 3.3-2.9 4.8-4.4.6-.6 1.4-1.1 1.4-2.1.1-2.6-1-4.3-4.5-3.7-.4.8-.9 1.6-1.4 2.6-.5-.4-1-.7-1.1-1 0-.6.1-1.4.5-1.8 1.6-1.6 4.2-2.5 6.5-1 .6.4 1.1.8 1.7 1.1 1.3.8 1.5 2.1 1.3 3.4 0 .4-.4.9-.8 1.2-1.7 1.4-3.4 2.9-5.3 4.1-3.1 1.9-5.1 4.6-6.3 8-.2.9-.3 1.9.4 3.1zM828.5 263.9c-1.1.3-2 .6-2.9.7-2.1.4-3.5-.4-4.5-2.3-1-2.1-.7-4 .7-5.7.9-1 1.8-2 2.9-2.7 2-1.3 3.9-.4 5.7.9 1.5 1.2 2 2.6 1.4 4.4-.7 2-1.3 4.1-2.3 6.1-.7 1.4-1.7 2.7-2.7 4-1.3 1.7-2.7 3.3-4.1 4.9-.5-.2-.8-.4-1.4-.7 3.3-2.6 5.7-5.7 7.2-9.6zm-2.9-1c.5-.1.7-.1.9-.1 1.6 0 2.6-.8 2.9-2.4.1-.5.4-1 .6-1.5.7-1.5.3-2.7-1.3-3.4-2.8-1.3-6 .5-6.7 3.7-.6 2.4.5 3.3 2.6 3.8.5 0 .9-.1 1-.1zM733.1 309.8c.2.8-.1 1.2-.8 1.3h-.5c-6.4 0-6.4 0-12 1.7-.3-.6-.2-1.1.1-1.7 1.5-3.4 3.9-5.8 7.2-7.3.8-.3 1.6-.7 2.1-1.3 1.2-1.5 1.3-3.3.7-5-.7-2-3.5-2.3-4.8-.6-.5.7-1 1.4-1.5 2.2-.9-1.1-.7-2.1 0-3.1.4-.5.8-1 1.2-1.4.7-.6 1-1.9 2.4-1.4.9.3 1.8.6 2.6 1.3 2.3 2 2 4.8 1.2 7.1-.6 1.8-1.9 2.9-3.5 3.8-1.6.9-3 2-4.5 3.2-.6.5-.8 1.2-1.5 2.2 4.1-.9 7.7-1.4 11.6-1zM832.6 295.9c-2.3 1.7-4.8 3.2-5.6 6.3h.8c2-.5 3.5.3 4.8 1.6 1.2 1.1 1.7 2.5 1 4-1.3 2.8-3.2 4.9-6.6 5.2-2.8.3-5.1-2.3-4.4-5 .4-1.5.7-3.1 1.4-4.4 1.9-3 3.9-6 6.9-8 .7-.5 1.2-.7 1.7.3zm-2.9 7.2c-2.1.1-4.2 2.1-4.3 4.2-.1 1.4.6 2.3 1.9 2.8 1.7.6 3 0 4.4-.9 1.1-.7 1.7-2.3 1.4-3.5-.5-1.3-2.2-2.6-3.4-2.6zM739.4 338.2c1.3-1 2-2.3 2.7-3.7.5-1.1 1.4-2.1 2.2-3.1.1-.2.6-.1 1-.1-.2 1.7-.3 3.3-.5 4.9-.2 2-.5 4-.5 6 0 2.9-.4 5.8.9 8.5.2.4 0 .9 0 1.3-.8.2-1.5.3-2.1.6-.7.3-1.3.4-2.1-.2.1-1.5.2-3 .3-4.6.1-1.1.2-2.3.2-3.4.1-1.4.2-2.8.3-4.1.1-1.3-.2-1.6-1.5-1.2-.3 0-.6-.2-.9-.9zM672.9 299.9c-.3-.4-.5-.6-.6-.8.7-2 2.3-3.1 4.1-3.8 1.3-.5 3.1.3 3.6 1.6.1.1.1.3.2.4 1.5 1.6 1.2 3.3.1 5-.4.7-.9 1.3-1.4 1.9-1.4 1.7-2.9 3.4-4.3 5.1-.3.4-.4.9-.6 1.7 3.7-.9 7.1-1 10.7-1.4-.1.8-.3 1.2-.9 1.3l-1.5.3c-2.4.3-4.9.6-7.3 1-1.6.3-3.2.8-5 1.2.1-.4.1-.8.3-1.1 1.2-1.5 2.4-2.9 3.7-4.4 1.3-1.6 2.7-3.1 4-4.7 1.1-1.3 1.3-2.9 1.1-4.6-.1-.7-.4-1.5-1.2-1.6-.8-.1-1.5-.3-2.2.6-.8.8-1.8 1.4-2.8 2.3zM870.5 265c-.3-3.4.9-6.3 2.9-8.9.6-.8 1.4-1.6 2.2-2.3.9-.8 2-1.1 3.2-.5 0 0 .1 0 .2.1 3.8.8 4.7 3.9 5.2 7.1.4 2.3-.1 4.7-1.1 6.8-1.4 3.1-5 5-8.2 3.5-.6-.3-1.3-.4-1.9-.7-1.5-.7-2.5-1.6-2.5-3.4.1-.6 0-1.1 0-1.7zm13-3c0-2.4-.7-4.2-1.8-5.8-.8-1.3-2.1-1.5-3.4-1.9-.3-.1-.9.2-1.1.5-1.5 1.8-3 3.6-4.4 5.5-1.1 1.6-1.1 3.4-.9 5.3.2 2.4 2.5 4 4.4 4 .3 0 .6 0 .8.1 2.2.7 3.3.4 4.5-1.5 1.3-2.1 2-4.3 1.9-6.2zM766.5 299.1c-1-1.9-.1-4 1.8-4.4 1.6-.4 3.2 0 4.7.7 1.4.7 1.7 3 .8 4.4-1.2 1.9-2.8 3.2-4.6 4.5-1.6 1.1-3.2 2.3-4.1 4-.5.9-.7 1.7-.5 2.8 1 .1 1.9-.4 2.9-.6 2.7-.5 5.3-.4 8-.2.2 0 .4.3.7.4-.1.9-.6 1-1.3.9-2.9-.4-5.8-.3-8.6.5-1.3.4-2.5.8-4 1.3.4-2.3 1.1-4.3 2.2-6.2.8-1.2 1.8-2.1 2.9-2.9.9-.7 1.8-1.4 2.7-2.2 1.6-1.4 2-3.3 1.2-5.1-.5-1.1-1.5-1.5-2.6-1-1.4.7-2.1 1.6-2.2 3.1zM623.1 263.6c-.7-.2-1.2-.3-1.9-.5.9-1.4 1.7-2.6 2.4-3.9.7-1.3 1.2-2.6 1.8-4 .5.7.8 1.4.7 2.1-.1 1.4-.1 2.8-.4 4.1-.7 3.3-.7 6.6-.8 9.9 0 2.1.7 4.1 1.5 6.1-1 1.3-1.9 1.4-4.4.4 1.3-4.6.4-9.4 1.1-14.2zM618.8 300.8c-.9-1.7-.6-3.2.8-3.9 1.5-.8 3.3-1 4.9-.5 2.2.7 3.4 4.1 2 6-1.1 1.5-2.5 2.8-3.9 4.1-1.7 1.6-3.5 3-5.2 4.5-.5.4-.7 1-.2 1.7 1.6-.2 3.3-.5 4.9-.6 1.7-.2 3.4-.3 5.2-.4.9-.1 1.5.3 1.6 1.3-.4.4-.6.8-1.4.6-4.2-.8-8.3.1-12.4 1.9-.1-.6-.3-1.2-.1-1.6.5-1.7 1.1-3.2 2.5-4.4 1.6-1.3 3.1-2.7 4.7-4 .8-.7 1.6-1.4 2.3-2.2 1.1-1.3 1.3-2.8.9-4.4-.2-.9-.9-1.6-1.9-1.6-.8 0-1.7.1-2.5.3-1.1.3-1.9 1-1.9 2.2-.1.3-.2.5-.3 1zM779 311.5c.5-.2 1.1-.5 1.6-.6 2-.5 3.9-1.3 5.7-2.4 1.1-.7 1.7-1.8 2.2-2.8.5-1-.3-3-1.4-3.4-1.2-.5-2.4-.9-3.7-.5-1.6.5-3 .3-4.3-.6.1-1 .2-2.1.4-3.1s.5-2 .8-3.2c2 .5 3.8.3 5.7-.4.5 1 1.5 1.7.5 3-1.2-1.5-2.3-.3-3.5.1-1.2.4-1.6 1.2-1.7 2.5.4 0 .8.2 1.1.1 1.3-.5 2.4.1 3.7.3 2.8.4 3.8 3.7 3.4 5.7-.5 2.4-2.2 3.6-4.1 4.5-1.6.7-3.3 1.1-4.9 1.5-.4.1-.9 0-1.4 0 0-.3 0-.5-.1-.7zM685.9 342.9c.1-2.2.8-4.4 2.4-6.4 1.4-1.8 3.5-2.5 6-1.7.7.2 1.5.4 2.2.7 3.3 1.3 3.7 3.5 3 6.3-.6 2.4-2.5 3.9-4.4 5.3-1 .7-2.1 1.4-3.2 2.1-1.2.8-3.1.6-4.1-.6-1.3-1.6-2.2-3.3-1.9-5.7zm5.2 4.1c3.6 0 7.1-2.8 7.8-6.1.4-2-.3-3.5-2.2-4.3-.6-.3-1.3-.4-1.9-.6-2.8-1.3-4.3.1-5.7 1.9-1.9 2.3-2.1 5-.4 7.6.6 1 1.3 1.8 2.4 1.5zM688.6 310.4c.3 0 .7-.1 1 0 2.5.8 4.3-.3 6-2 1.2-1.2 1.8-2.6 1-4.4-.6-1.4-2-2.1-3.5-1.7-.4.1-.8.4-1.2.5-.3.1-.7 0-.9-.2-.1-.2-.1-.6 0-.9.6-1.3 1.3-2.6 2-3.9.1-.3.2-.6.5-1.2-2.1.4-4 .7-6 1.1-.2-.7-.4-1.1-.6-1.7.8-.2 1.6-.6 2.3-.6 2 .2 3.9-.3 5.8-.7.3-.1.6.1.9.2-.1 2.2-2.3 3.3-2.6 5.2 1.1.4 2.3.8 3.4 1.3.6.3 1.4.9 1.6 1.5.5 1.7.7 3.4-.5 4.9-1.4 1.8-3.1 3-5.2 3.7-.9.3-1.9.3-2.8.2-.6.1-1.4-.2-1.2-1.3zM853.3 312.4c.5-2 .3-4.1 1.7-5.7.8-.8 1.5-1.6 2.3-2.3 1.3-1.1 2.7-2 4-3.1 1.1-.8 1.4-2.4.7-3.6-.2-.4-.6-.7-1-.8-1.7-.6-3.2.1-4.6 1-.3.2-.4.9-.5 1.3-1-.6-1.1-1.1-.4-2 1-1.2 2.3-1.8 3.8-1.8 1.8 0 3.6.1 4.7 1.9.4.6.4 1.2.2 1.9-.6 1.8-2 3-3.6 4-1.2.8-2.3 1.5-3.4 2.4-1.2 1-1.5 1.9-1.3 4.1 2.9-.7 6-.4 8.8-2 .3.8.5 1.6-.2 2.2-.3.3-.9.6-1.3.5-1.6-.2-3.1-.1-4.6.4-1.6.4-3.4 1-5.3 1.6zM860.9 216.5c-1.4-.7-1.4-.7-1-1.9.5-1.5 1.2-2.8 2.1-4.1.1-.2.3-.3.5-.4.7.6.7 1.3.5 2-.7 3.6-1.2 7.3-1 11 .1 1.6.4 3 1.4 4.4.8 1.1 1.2 2.6.5 4.1-.3.6-.6.7-1.2.7-.9 0-1.9.1-3 .1.4-5.2.6-10.5 1.2-15.9zM873.1 303.5c.1-1.2.9-1.5 1.5-1.5 1.9 0 2.7-1.2 3.4-2.7.5-.9 1.2-1.7 1.8-2.6.4-.5.7-1.1 1.1-1.8-1.7-.2-3.2.1-4.6.4-1.6.3-2.4 1.6-3.6 2.9 0-1.2.1-1.9.1-2.7 3.6-1.8 7.3-2.7 11.5-1.9-.5.7-.7 1.2-1.1 1.5-2 1.4-4.2 4-5.1 6.5h3.8c0 .9-.4 1.3-1.2 1.3h-3.1c-1.3 2.2-1.3 3.3.3 5 .6.6.6 1.1.4 1.8-.6.2-1.2.4-1.8.7-1.4-1.7-1.6-3.9-.7-7.2-.9.2-1.7.3-2.7.3zM807.7 232.2c.2-.8.3-1.5.4-2.1.4-2.6.8-5.3 1.2-7.9 0-.3.1-.7.2-1 .4-1.6.3-3.1-1.7-3.9 1.5-2 3.2-3.7 3.9-6.2 1 .8.8 1.7.6 2.5-1.1 3.6-1.3 7.3-1.2 11.1 0 1.8.3 3.7.6 5.5.2 1.8 0 2.1-1.8 2.1-.7.1-1.4 0-2.2-.1zM673 262.4c-1 .1-1.6-.2-1.6-1.2 2.4-1.6 2.7-4.4 3.5-6.9.6-.2 1-.1 1 .5-.1 1.5-.3 3.1-.5 4.6-.2 1.4-.6 2.7-.6 4.1-.1 2.4-.1 4.8 0 7.2 0 1.1.4 2.2.5 3.3.1.6 0 1.3 0 2h-1c-3 0-2.8-.8-2.3-3.2.7-3.1.6-6.2 1.1-9.3-.1-.4-.1-.7-.1-1.1zM926.1 259.2c1.2-2.5 2.3-4.7 3.5-7.2.4.5.8.9 1.3 1.4-1.6 2.6-1.7 5.6-1.6 8.5 0 2 0 4 .2 6 .1.8.4 1.6.6 2.4.4 1.5 0 2.1-1.5 2.3-.6.1-1.1.1-1.7.2h-.7c.1-1.2.2-2.4.4-3.6.2-1.3.6-2.6.8-3.9.1-1.5.1-3.1.1-4.7 0-1-.8-1.1-1.4-1.4zM777.8 232.1c.5-.3.8-.6 1.2-.9-.4-3-.4-5.9.4-8.8.2-.8 0-1.8 0-2.8-.6.5-1.1.9-1.9 1.5 0-.6-.1-.9 0-1.2.4-.8.9-1.5 1.4-2.3.8-1.1 1.4-2.3 1.5-3.7 0-.4.3-.7.5-1.2 1.2 1 1.3 2 1.1 3.3-.4 2.9-.7 5.7-.8 8.6-.1 1.5.4 3.1.7 4.6.1.5.2 1.3 1.1 1.3.1 0 .3.4.3.7 0 .2-.2.5-.3.5-1.5.3-3.1.5-4.6.7-.2.1-.3 0-.6-.3zM770.3 233.3c-1.6 1.4-3.5 1.4-4.6 0 2.1-2 1.8-4.9 2.3-7.5.2-1.2.2-2.5.3-3.9-.7.3-1.3.6-2.1 1 0-.6-.1-1 .1-1.2 1.8-2 2.6-4.5 3.2-7.1 0-.2.2-.4.3-.7.7.2 1.2.5 1.1 1.3-.1 1 0 2-.1 3-.4 3.2-1.1 6.4-1.4 9.6-.2 1.9.2 3.7.9 5.5zM770.4 253.5c.4 1.3.5 2.2.3 3.1-.3 1.8-.7 3.5-.7 5.3 0 3.1.3 6.2.5 9.3.1 1.1.5 2.3-.3 3.4-.9-.1-1.8-.2-2.8-.4 0-.6-.1-1.1 0-1.7.2-3 .5-6.1.8-9.1 0-.4.2-1 .1-1.3-.8-1.5-.1-2.9.3-4.3l.9-3c.2-.4.5-.7.9-1.3zM723.4 222.4c-.6.1-1.1.2-1.6.2 0-.3-.1-.5 0-.6 1.8-1.6 2.9-3.6 3.4-6 .2-.7.4-1.4 1.2-1.8.5.6.5 1.3.3 2-.3 1-.5 2.1-.9 3-.8 2-.9 4.1-1 6.2-.1 1.8-.3 3.7-.5 5.5 0 .3-.2.7 0 1 .5.8 0 1.2-.4 1.6h-2.2c-.8 0-1.1-.4-.9-1.2.5-1.9 1.1-3.7 1.6-5.6.2-1.3.6-2.8 1-4.3zM814.7 253.5c-.2 1-.4 2-.5 3.1-.2 1.9-.5 3.8-.6 5.6-.2 2.8 0 5.6.3 8.3.1 1.2.2 2.4.2 3.6 0 .4-.2.8-.3 1.3-.6-.2-1-.3-1.4-.5-.9-.3-1-.8-.9-1.7.2-3.6.4-7.2.5-10.8 0-.6-.2-1.3-.5-1.9-.4-.9-.2-1.7.1-2.6.6-1.4 1.2-2.8 1.9-4.2.1-.3.5-.4.7-.6.2.2.4.3.5.4zM725.8 274.9c-1-.1-1.7-.1-2.5-.1-.8-4.5-.2-9 .4-13.5-.1-.1-.2-.1-.2-.1-.2.1-.5.2-.8.3-.4-.3-.7-.8-.2-1.2 1.2-1.2 1.4-2.8 2-4.2.1-.3.1-.6.2-.8.2-.2.6-.6.7-.6.3.2.7.5.7.8 0 .6-.2 1.2-.3 1.8-.9 4.7-1.2 9.3-.4 14 .1.8 0 1.6.5 2.4.2.3 0 .8-.1 1.2zM741.7 304.1c-1.8 0-3.6-.1-5.6-.1.1-3.3 2.2-5.7 2.4-8.7.4-.1.8-.3 1.7-.5-.3.7-.5 1.1-.6 1.5-.8 1.8-1.5 3.7-2.3 5.6-.3.8 0 1.2.9 1.2 1.2 0 2.4-.2 3.6-.2 1-2.2.7-5 2.6-6.9-.9 4.8-1.8 9.6.2 14.5-1 1.2-2-.1-3.2.1.1-2.6.2-4.5.3-6.5zM904.6 216.5c.5-1.1.9-2.1 1.3-3 .4-.9.1-2.1 1.4-3 .1.9.2 1.4.2 2-.3 3.5-.8 7.1-1 10.6-.1 1.6.4 3.2.7 4.8.2 1.2.5 2.4.7 3.5-.9.7-1.7.3-2.4.1-.3-.1-.6-.7-.6-1 .2-4.1-.1-8.3.6-12.4.1-.9.1-.9-.9-1.6zM738.8 176c-.7-.5-.9-.9-.3-1.5.1.4.2.8.3 1.5z" />
    <g>
        <path class="some-path" d="M913 383.1c0-2.2 1.3-3.8 3.5-4.2.1 0 .2 0 .4-.1 2.1-.6 3.8.2 5.3 1.4 1.4 1.1 1.5 3.3.3 4.6-1.2 1.4-2.7 2.3-4.6 2.6-2.9.5-5.1-1.8-4.9-4.3zm4.3 3.7c1.7-.2 3.3-.9 4.5-1.9 1.5-1.5 1.1-3.1 0-4.1-1-.9-2.4-1.2-3.7-1-1.7.3-2.9 1.3-3.6 2.9-.8 1.9-.4 2.5 1 3.5.4.4 1.2.5 1.8.6zM917.8 376.2c.3-.6.6-1.1.8-1.7.8-1.5.9-3.3 1.4-4.9.1-.4.1-.8.3-1.2 0-.1.3-.2.6-.2-.1.5-.1 1-.2 1.4-.2 1.1-.5 2.2-.7 3.4-.1.7.1 1.5.2 2.2.1.6.4 1.1-.4 1.6-.8.4-1.2 0-1.7-.4-.1 0-.2-.1-.3-.2zM909.7 382.3c1.1.6.8 1.5 1 2.5-2.9-1-5.7-1.2-8.7-1.3.3-.6.8-.7 1.3-.7h3.1c1.1.1 2.2 0 3.3-.5zM933.8 384c-.5.8-1 .7-1.5.6-1.5-.2-3.1-.4-4.6-.1-.4.1-.9.1-1.3.2-.8.1-1.1-.2-1-1 .1-.4.2-.8.3-1.4 2.5 1.3 5.2 1.3 8.1 1.7zM926.1 392c-.6.1-.9.1-1.1-.3-.2-.3-.3-.5-.5-.8-.7-1-1.4-1.9-2.5-2.5-.3-.1-.4-.4-.8-.7.9-.2 1.5-.3 2.2-.5.4.8.6 1.7 1.1 2.5.3.8 1 1.4 1.6 2.3zM917.4 390c.1.2.1.5.2.8.1-.1.3-.1.3-.2.1-.3.1-.5.2-1 .6.9 0 1.6.1 2.4 0 .8-.1 1.6-.1 2.3-.1.8-.1 1.6-.2 2.4-.5 0-.6-.3-.6-.7 0-.6 0-1.3.1-1.9.2-1.1.1-2-.4-3-.1-.2-.2-.4-.2-.7-.1-.2.1-.5.6-.4zM927.9 375.8c-.4.3-.7.6-1.1.8-.8.5-1.7 1-2.2 2-.3.6-.6.6-1.1.1-.2-.2-.4-.5-.5-.7 0-.1.1-.2.1-.2 1.3-.7 2.5-1.5 3.8-2.2.3-.2.7-.4 1 .2zM912.4 378.6c-.9-1.3-1.9-2.5-2.8-3.8.4-.2.7 0 1 .3.7.8 1.5 1.3 2.4 1.7.3.1.4.5.7.7-.5.5-.8.8-1.3 1.1zM912.7 387.5c.2.4.4.7.5 1-1.4 1-2.8 2-4.3 3 0-.4 0-.6.1-.8 1.2-1 2.4-2.1 3.7-3.2z" />
    </g>
    <g>
        <path class="some-path" d="M722.6 409.5c-.9 1.9-1.7 3.5-2.4 5.2l-.3.9c-.3 1.1-.6 2.1-1 3.6-.6-.6-.9-.9-1.1-1.2-1.9-4.3-3.8-8.7-5.7-13-.3-.7-.4-1.5-.5-2.2 0-.3.2-.6.4-1 .9.3 1 .9 1.2 1.7 1.2 4.3 3.1 8.3 5.5 12.7.8-3.1 2.4-5.5 2.7-8.3.1-.9.5-1.4 1.5-1.6.9 2.1 1.8 4.3 2.7 6.4h.4c.9-2.1 1.7-4.3 2.7-6.4.9-2 1.6-4.2 3.1-6.3.5 1.3.2 2.2-.2 2.9-1.9 3.2-3 6.6-4.1 10.1-.4 1.2-1.1 2.4-1.6 3.6h-.5c-.4-1.1-.7-2.3-1.1-3.4-.6-1.3-1.2-2.4-1.7-3.7zM623.8 416.5c-1.2-1.3-2.3-2.3-3.2-3.4-.8-1.1-1.4-2.3-2.4-3.9-.2.9-.4 1.2-.5 1.6-.8 3.2-1.6 6.5-2.4 9.7-.1.3-.5.5-.7.8-.1-.1-.3-.2-.4-.2.4-1.7.8-3.4 1.3-5 .4-1.7.9-3.3 1.3-5 .4-1.7.7-3.4 1.1-5.5 1.2 1.2 1.8 2.3 2.3 3.4 1 2.1 1.8 4.2 3.8 6 1.7-3.2 3.4-6.4 5.2-9.9.5 1 1.1 1.6 1.2 2.2.8 3.6 2.2 6.9 4.4 9.9.6.8.5 1.3-.4 2.4-2.5-3.2-3.8-6.9-5.4-10.8-1.6 2.8-2.2 6.2-5.2 7.7zM856.7 419.9c1.5.3 2.8.5 4.1.7 1.8.4 3.7.5 5.5-.1.9-.3 1.9-.9 2.5-1.6.4-.5.4-1.6.3-2.4-.1-.9-.6-1.8-.9-2.7-.4-1.4-1.3-2.2-2.7-2.2-1.2 0-2.3 0-3.5-.1-1.7-.1-2.9-1.1-3.5-2.7-.2-.6-.3-1.4-.1-2 .5-1.7 1.1-3.4 3-4.2 2.2-.9 4.5-1.2 6.8-.5.2.1.4.4.6.6-.7.8-1.4.4-2 .4-1.9-.2-3.7 0-5.3 1-1.1.7-2 2.8-1.6 4 .1.4.5 1 .9 1.1.8.4 1.7.6 2.5.7 1.6.2 3.2.2 4.7.3 1.1.1 1.9.7 2.3 1.7 1.1 2.3.9 4.6-.6 6.7-1.4 2.2-3.5 3.2-6.1 3-2.2-.2-4.4-.7-6.6-1.1 0 .3 0-.1-.3-.6zM688.2 400.7c-.1.8-.2 1.4-.3 1.8-2.8.2-5.4.5-8 .7-.5 4.2-1.2 8.3-.5 12.4-1.2-.1-2.2-.1-3.3-.2 0-.1-.3-.4-.2-.7.4-2.3.9-4.6 1.3-6.9.2-1.4.3-2.8.4-4.3-2-.2-3.8-.2-5.5.4-1.3.4-2 0-3.1-1 .5-.3.9-.5 1.2-.6 2-.2 3.9-.4 5.9-.6 3.7-.4 7.4-.8 11-1.1.3.1.6.1 1.1.1zM813.5 411c2.2-.1 4-.2 5.8-.3-.4 1.1-1.5 1.4-6 1.9-.1.9-.2 1.9-.3 2.9-.3 1.8 0 3.7-.9 5.4-.1.2-.2.3-.6.7-.2-.5-.4-.9-.4-1.2.3-3.3.5-6.6.9-9.9.3-2.3.6-4.5.3-6.8 0-.2.1-.5.1-1 1.6.7 3-.2 4.4-.5 1.5-.3 3-.4 4.5-.6.8-.1 1.7-.2 2.5-.3 1.3-.2 1.5 0 1.4 1.6-2.2.2-4.5.3-6.7.6-.9.1-1.8.3-2.6.5-.4.1-1 .6-1.1 1-.5 1.7-.8 3.7-1.3 6zM907.7 409.8c.7.2 1.3.6 1.9.5 1.5-.1 2.6.6 3.8 1.3 1 .6 2 1.1 2.9 1.8 1.3 1 1.6 2.7.8 4.1-1.5 2.9-4.2 4.1-7.4 3.4-2-.5-4.1-.9-6.2-1.3-.3-.1-.6-.2-1-.4.3-.7.8-.7 1.3-.6 1.8.4 3.6.9 5.4 1.3 1.1.2 2.2.4 3.2.3 1.8-.1 3.1-1.1 3.9-2.8.6-1.4.2-2.7-1.1-3.5-1.7-1-3.4-2-5.5-1.9-1.6 0-2.9-.7-4-1.9-1-1.2-1.2-2.4-.3-3.7 1.5-2.1 3.3-3.7 6-4.2 1.1-.2 1.9.1 2.6.7.2.2.2.6.3 1-.3.1-.6.3-.8.2-1.3-.5-2.5-.2-3.7.3-1 .4-1.8 1-1.6 2.4.1.8-.3 1.8-.5 3zM768.9 404c-2.3.1-4.3.3-6.3.4-.9 0-1.6-.1-1.3-1.2 5.6-.2 11.1-.5 16.8-.7 0 .4 0 .8.1 1.4H771c-.2.8-.4 1.4-.4 2-.1 2.5-.1 5-.1 7.5 0 1.1.2 2.3.5 3.4.3.9-.1 1.3-.5 1.9-.6-.2-.8-1.6-1.6-.1-1.1-5 0-9.7 0-14.6zM827.8 415.1c-.6.8-1.2 1.7-2 2.8.6 1.2 1.4 2.4 3 3.1-.2.5-.4.8-.6 1.2-1.9-.9-3-2.5-4-4.2h-2.1c-.9 1 .6 2.7-1.4 3.5V415c.8-.5 1.8-1.2 2.8-1.7 1.3-.7 2-.6 3.1.5.4.2.7.6 1.2 1.3zm-5.7 1.8c1.2-.1 2.3-.1 3.3-.4.4-.1.9-.7 1.1-1.2.1-.2-.4-.8-.7-.9-.9-.4-1.7-.1-2.5.4-.9.3-1.4.8-1.2 2.1z" />
        <path class="some-path" d="M776.5 415.6c1.6-.9 2.9-1.6 4.2-2.4 2.1 1.6 1.8 4.3 2.8 6.3.1.3-.2.8-.3 1.1h-.4c-.6-2-1.2-4-2-6.2-1.5.9-2.8 1.5-4.2 2.3.1.6.2 1.3.2 2 .1.6.1 1.2.1 2.1-1.2-.6-1.3-1.5-1.3-2.3-.1-3.1-.1-6.3-.1-9.4 0-.3.2-.7.3-1.1 1.4.4 1.1 1.5 1 2.4-.1 1.3-.3 2.5-.5 3.8.1.4.2.7.2 1.4zM922.3 412.1c1.2.2.9.9.8 1.5-.4 1.8-.2 3.5.5 5.2.6 1.4 1.7 1.8 2.9.8.9-.7 1.4-1.6 1.6-2.8.2-1.3.4-2.5.7-3.8.1-.4.5-.7.9-1.3.1.7.2 1.1.2 1.4 0 2.2-.6 4.3-1.5 6.3-.5 1.2-1.4 2.3-3 2.2-1.3-.1-2.8-1.4-3.2-2.9-.5-1.8-.6-3.6-.1-5.5 0-.3.1-.6.2-1.1zM690.3 410.1c1.1 1.2.6 2.2.5 3.2-.3 1.9-.8 3.7-2.1 5.3-1 1.3-1.3 1.3-2.9.8-.3-.1-.6-.1-.9-.2-1.4-.4-2.3-1.4-2.3-2.9 0-1.2 0-2.4.2-3.6.1-.4.6-.8.9-1.2.1 0 .3.1.4.1.1.4.1.8.1 1.2 0 1.1-.2 2.3-.1 3.4.1 1.4.8 1.9 2.1 1.4 1.4-.5 2.9-.9 3.1-2.9.1-1.2.8-2.3.5-3.5.1-.3.3-.6.5-1.1zM737 417.8c-1.7 0-3.1.1-4.5 0-.6 0-1.3-.3-1.6-.8-.4-.6-.1-1.3.5-1.9 1.3-1.3 2.6-2.3 4.7-1.2.3-2.8.3-5.5 1.4-8.3.8 1.7-.2 2.9-.2 4.1.1 1.3-.2 2.6-.3 4v4.1zm-1.1-.7c.2-1.3-.2-2-1.2-2.3-1.1-.4-1.6-.1-2.8 1.5 1.2 1 2.6.4 4 .8zM876.5 418.8c.2 1.4.3 2.5.4 3.7-.3.2-.6.6-1.1 1.1-.1-1.5-.3-2.9-.4-4.2-.6-.2-1.2-.4-1.7-.6-.2-1.5 1-1.1 1.8-1.4l.6-6.9c1-.3 1.1.3 1.1.9-.1 1.1-.3 2.3-.4 3.4-.1.8 0 1.5 0 2.5 1.1-.1 2.1-.1 3.2-.2-.9 1.2-2 1.6-3.5 1.7zM645.7 410.6c-.6 2.9-1.1 5.4-1.7 8.2-1.5-1.1-2.7-1.9-4.2-2.9 0 1.2-.5 2.3-.1 3.4.2.4.1.4-.8 1.2 0-1-.1-1.8-.1-2.7 0-1.1-.1-2.3 0-3.4 0-.4.3-.7.5-1.1.3.2.8.4.9.7.4 1.4 1.8 1.8 2.8 2.8 1.1-2.1 1.1-4.4 2.7-6.2z" />
    </g>
    <g>
        <path class="some-path" d="M727.2 525.1c-.7-.3-1.4-.5-2-.9-2.7-2.1-5.3-4.4-6.8-7.6-1-2-.9-4-.1-6 1.4-3.4 3.8-5.7 6.8-7.7 3.5-2.4 7.3-4 11.4-5 4.6-1.1 8.5-1.8 12.9-1 2 .4 4.1.4 6 1.2 1.7.7 3.6 1 5.1 2 2.1 1.3 3.1 3.6 3.2 6 .1 1.9-.2 3.9-.6 5.9-.9 4.4-2.4 8.5-4.7 12.3-1.7 2.9-3.7 5.6-5.7 8.3-2.3 3.2-5.1 6.1-7.1 9.5-2.2 3.6-5.1 6.9-6.3 11.3 1.5 1 3.2.9 4.8.5 3.4-.8 6.8-1.7 10.1-2.6 1.4-.4 2.6-1.1 3.9-1.8 2.6-1.2 5.2-2.5 7.8-3.7 1.5-.7 3-.9 3.1 1.7.2 2.1 0 4.3.3 6.4.3 2.6.2 5.2 1.6 7.7-1.5.3-3-.2-4.3-.8-3-1.6-6.2-1.5-9.2-1-7.5 1.3-15 3-22.4 4.6-1.6.3-3.2 1.1-4.8 1.3-1.1.2-2.4-.1-3.6-.2-.7-1.9-1-3.8-.5-5.8.4-1.5.3-3.1.7-4.7.6-2.2 1.8-4 3-5.9 2.5-3.9 6-6.6 9.3-9.7 2.7-2.5 5.1-5.2 7.6-7.9 1.6-1.8 3.3-3.6 4.6-5.7 2.3-3.4 2.6-7.4 2.2-11.4-.2-1.4-.6-2.8-.8-4.2-.5-3.7-3.2-5.3-6.1-6.5-3.3-1.2-6.7-2-10.3-1.5-2 .3-4 .1-6 1.2-1.8 1-3 2.5-4.6 3.7-1.1.9-1.9 2.2-2.7 3.4-2.5 3.9-1.5 9.3 2.3 12.1.2.1.4.2.6.4.5.5.9 1.1 1.4 1.7.1.1 0 .3-.1.4zM797.9 559.8c-1.6.1-3.2.2-4.8.2-.8 0-1.7-.2-2.5-.4-3.1-.8-5.5-2.4-7.7-4.9-2.3-2.7-3.5-5.8-4.4-9.1-.2-.8-.7-1.5-.9-2.3-1.4-5.6-2.6-11.2-2.5-16.9.1-4.8 1-9.5 3.2-13.7 1.9-3.6 4.4-6.8 8.4-8.4 2.5-1 4.9-2.3 7.4-3.3.8-.3 1.8-.2 2.7-.3 3.3-.2 6.5.1 9.7 1.3 1.6.6 3.2 1 4.8 1.4 1.2.3 2.5.6 3.2 1.8.1.1.3.2.5.3 2.7.8 4.9 2.4 6.6 4.6 1.9 2.4 3 5.2 3.5 8.3.3 2 .7 4 .6 6.1 0 .5 0 1.1-.1 1.6-.8 4.6-1.6 9.2-2.6 13.7s-2.9 8.8-5 12.9c-.7 1.4-2 2.5-3.3 3.4-3 2.1-6.4 3.4-10.2 3.5-2.2 0-4.4.4-6.6.5v-.3zm21.6-36.5c-.2-2.5-.3-4.5-.7-6.6-.6-3.3-2.5-5.7-5.7-7-1.3-.5-2.6-1-3.8-1.7-3.3-1.8-6.8-2.6-10.5-2.9-1.2-.1-2.4-.1-3.5.6-2 1.3-4.4 2.4-5.9 4.2-1.5 1.6-2.4 3.9-3 6.1-1.6 6.3-2.4 12.7-1.4 19.3.8 5.3 2.1 10.4 5.1 15 1.7 2.6 4 3.9 6.9 3.7 3.5-.2 6.9-.7 10.4-1.2 1.9-.3 3.9-.9 5.1-2.8 1-1.7 2.2-3.4 2.8-5.2 1.1-3.2 1.9-6.4 2.7-9.7.3-1.4.3-2.9.4-4.3.4-2.7.8-5.3 1.1-7.5zM829.5 530c.7.4 1.3.7 1.9 1-.5 2.4-.9 4.7-1.3 7.1-.7 3.9-1.8 7.7-1.7 11.7 0 .5-.1 1.1-.1 1.6-.3 3-2.2 4.3-5.5 3.6.3-1 .5-2 .8-3 1.5-4.1 3.2-8.2 4.4-12.4.8-3 1-6.2 1.5-9.6z" />
        <path class="some-path" d="M748.3 546.5c2.5-3.8 5.1-7.6 7.8-11.6 1 1.1 1 2 .5 2.9-.5.9-1.3 1.6-1.7 2.4-.4.8-.5 1.7-.9 2.9 1.6.2 2.9.3 4.2.4 0 1-.9 1.1-1.5 1.2-2.4.2-4.6 1-6.7 1.9-.4.2-1 .2-1.5.3 0-.1-.1-.2-.2-.4zM730.3 516.7c-1.7.2-3.2.4-4.7.6-.3-3.9 1.2-7.1 4-9.7 1.1-1 2.2-2.1 4.2-1.9-.4.4-.5.8-.8 1-.7.6-1.6 1.2-2.3 1.9-2.5 2.5-2.7 5.2-.4 8.1zM774.5 552.2c.3.4.9.9.9 1.3 0 1.7.7 3.2 1.2 4.7.3.9 0 1.5-.8 1.8-.9.3-1.9-.1-2-.9-.2-2.2-.5-4.4.1-6.6.2-.2.4-.2.6-.3zM788.7 529.3c-.2-1.3-.6-2.6-.4-3.8.6-3.4.9-7 3-9.9 1.7-2.3 3.8-4.1 6.3-5.4 1.4-.7 3-.2 4.2 1.3-1 .4-1.9.9-2.9 1.2-5.1 1.6-8.8 6.4-9.1 11.7-.1 1.6.3 3.4-.6 4.9h-.5zM805.8 523c-.1 1.4-.7 3-2.2 3.7-1.4.7-3 .2-4.2-1-1.3-1.2-1.5-2.7-.4-4.1.6-.8 1.5-1.5 2.2-2.3.9-1 1.9-.7 2.9-.1 1 .7 1.8 2.3 1.7 3.8zm-5.7 1.1c.5 1.6 1.7 1.6 2.8 1.5 1.3-.1 1.7-1 1.8-2-1.8-2-3.1-.4-4.6.5zM813.9 523.6c-.1 1.7-2.4 4-4 3.8-.6-.1-1.3-.5-1.7-1-1.4-1.7-.7-4.7 1.4-5.7 2.7-1.3 4.5-.1 4.3 2.9zm-4.9-.9c-.2 1.3-.7 2.7.6 3.3 1.2.6 1.9-.7 2.6-1.4.1-.1.1-.3.1-.5-.6-1.3-1.8-1.4-3.3-1.4zM801.1 540.9c1.6-.5 1.9.6 2.6 1.5 1.1-.5 2.3-1 3.7-1.7-.4 1.9-1.4 3.2-2.6 4.3-.9.8-2 .6-2.5-.4-.4-1.1-.7-2.4-1.2-3.7zM840.7 528.7c-.6-.2-1.2-.4-1.7-.7-2.3-1.7-4.4-3.7-5.7-6.3-.8-1.7-.8-3.3-.1-5 1.1-2.8 3.2-4.7 5.7-6.5 2.9-2 6.1-3.3 9.5-4.1 3.8-.9 7.1-1.5 10.8-.9 1.7.3 3.4.3 5 1 1.4.6 3 .9 4.2 1.7 1.8 1.1 2.6 3 2.7 5 .1 1.6-.2 3.3-.5 4.9-.7 3.6-2 7.1-4 10.3-1.4 2.4-3.1 4.6-4.8 6.9-2 2.7-4.2 5.1-5.9 7.9-1.8 3-4.2 5.8-5.2 9.4 1.3.9 2.7.8 4 .4 2.8-.7 5.7-1.4 8.5-2.2 1.1-.3 2.2-1 3.3-1.5 2.2-1 4.3-2.1 6.5-3.1 1.3-.6 2.5-.7 2.6 1.4.1 1.8 0 3.6.2 5.3.2 2.1.2 4.4 1.4 6.4-1.2.2-2.5-.1-3.6-.7-2.5-1.3-5.2-1.2-7.7-.8-6.3 1.1-12.5 2.5-18.8 3.8-1.4.3-2.7.9-4 1.1-.9.2-2-.1-3-.2-.6-1.6-.9-3.2-.4-4.9.3-1.3.2-2.6.6-3.9.5-1.9 1.5-3.3 2.5-4.9 2.1-3.2 5-5.6 7.8-8.1 2.2-2.1 4.3-4.4 6.4-6.6 1.4-1.5 2.7-3 3.9-4.7 1.9-2.9 2.2-6.2 1.8-9.5-.1-1.2-.5-2.4-.7-3.5-.4-3.1-2.7-4.5-5.1-5.4-2.7-1-5.6-1.6-8.6-1.2-1.7.2-3.3.1-5 1-1.5.8-2.6 2.1-3.8 3.1-.9.7-1.6 1.8-2.2 2.9-2.1 3.3-1.2 7.7 1.9 10.1.2.1.4.2.5.3.4.5.8.9 1.2 1.4-.1.2-.2.3-.2.4zM890.6 524.6c-.6-.3-1.3-.4-1.8-.8-2.5-1.9-4.8-4-6.3-6.9-.9-1.8-.8-3.6-.1-5.5 1.3-3.1 3.5-5.2 6.3-7.1 3.2-2.2 6.7-3.6 10.4-4.5 4.2-1 7.8-1.7 11.8-1 1.8.3 3.7.3 5.5 1.1 1.5.6 3.3 1 4.7 1.8 1.9 1.2 2.9 3.3 3 5.5.1 1.8-.2 3.6-.6 5.4-.8 4-2.2 7.8-4.3 11.3-1.6 2.6-3.4 5.1-5.2 7.6-2.1 2.9-4.6 5.6-6.5 8.7-2 3.3-4.6 6.3-5.7 10.3 1.4.9 2.9.8 4.4.5 3.1-.7 6.2-1.5 9.3-2.4 1.2-.4 2.4-1 3.6-1.6 2.4-1.1 4.7-2.3 7.1-3.4 1.4-.6 2.7-.8 2.9 1.5.1 1.9 0 3.9.2 5.9.3 2.4.2 4.8 1.5 7-1.3.2-2.7-.1-3.9-.8-2.7-1.4-5.7-1.4-8.4-.9-6.9 1.2-13.7 2.7-20.5 4.2-1.5.3-2.9 1-4.4 1.2-1 .2-2.2-.1-3.3-.2-.6-1.8-.9-3.5-.4-5.3.4-1.4.3-2.8.6-4.3.5-2.1 1.6-3.7 2.7-5.4 2.3-3.5 5.5-6.1 8.5-8.9 2.5-2.3 4.7-4.8 7-7.3 1.5-1.6 3-3.3 4.2-5.2 2.1-3.2 2.4-6.7 2-10.4-.1-1.3-.6-2.6-.7-3.9-.4-3.4-3-4.9-5.6-5.9-3-1.1-6.2-1.8-9.4-1.3-1.8.3-3.7.1-5.5 1.1-1.6.9-2.8 2.3-4.2 3.4-1 .8-1.7 2-2.5 3.1-2.3 3.6-1.3 8.5 2.1 11.1.2.1.4.2.5.3.4.5.8 1 1.3 1.5-.1.3-.2.4-.3.5z" />
        <path class="some-path" d="M910 544.2c2.3-3.5 4.7-7 7.1-10.6.9 1 1 1.9.5 2.7-.4.8-1.2 1.4-1.6 2.2-.4.7-.5 1.6-.8 2.6 1.4.1 2.6.3 3.9.4 0 .9-.8 1-1.3 1.1-2.2.1-4.2.9-6.2 1.8-.4.2-.9.2-1.3.2-.1-.1-.2-.2-.3-.4zM893.5 517c-1.6.2-3 .4-4.3.6-.3-3.6 1.1-6.5 3.7-8.8 1-.9 2-1.9 3.8-1.7-.3.4-.5.7-.7.9-.7.6-1.4 1.1-2.1 1.7-2.3 2.1-2.5 4.6-.4 7.3zM878.8 546.9c.2-.1.3-.2.5-.3.2-.1.3 0 .3.2 0 .4.1.7 0 1.1-.1.3.1.6.1 1v.4c0 .6.1 1.2.1 1.8.1.5.1 1 .2 1.6.2.9.4 1.7.6 2.6.1.4.3.8.4 1.2.2.5.1.7-.4 1-.2.1-.3.1-.5.2s-.4.2-.5.2c-.2.1-.3.1-.5 0s-.2-.3-.2-.5c.1-.6.1-1.1.2-1.7 0-.9 0-1.8-.1-2.6 0-.3-.1-.7-.2-1-.1-.4-.1-.9 0-1.3V546.9zM931.3 543.5c.2 1.4.3 2.7.7 4 .8 2.8 2 5.5 3.6 8 .1.1.2.3.2.4-.2.9-.5 1.8-.8 2.7-1.1-.3-1.3-.9-1.4-1.4-.6-2.3-1-4.6-1.6-6.8-.3-1.2-.7-2.4-1-3.7-.2-.9-.3-1.8-.5-2.7 0-.3 0-.7.8-.5zM856.2 549.6c.3-3 2.1-5.1 3.8-7.2 1.6-1.8 3-2.6 3.8-2.6-1.4 2.6-3.5 4.9-4.2 7.9.6.2 1 .3 1.7.5-1.5 1.4-3.2 1.6-5.1 1.4zM838.8 518.4c.7-2.1 2.6-2.7 4-3.8 2.2-1.7 4.2-2.5 5.8-2.4-.7.7-1.2 1.2-1.7 1.6-1.6 1.1-3.1 2.4-3.9 4.3-.4 1-1.1 1.4-2.2.7-.5-.1-1.2-.2-2-.4z" />
    </g>
    <g>
        <path class="some-path" d="M912.2 123.7c-1.2-.5-1.1-1.9-1.2-3.2-.2-2.3-.3-4.7-.3-7-.1-2.3 0-4.7 0-7.1 2.5-1 4.8-.7 7.1-.5 1 .1 1.9.5 2.8.9 5.7 2.1 4.5 12.2.3 14.1-.4.2-.8.4-1.2.5-2.3.6-4.7 1.4-7.5 2.3zm1.7-16.6c-.7 3.2-.1 8.5 1.2 12.5 2.3.2 4.4-.6 6.4-1.7.4-.2.8-.8 1-1.2 1.3-5.7.3-8.4-5.4-9.6-1.1-.2-2.2 0-3.2 0zM737.7 122.9c-1.5-3.2-2.9-6.3-4.4-9.6-1.9 2.2-.5 5.3-3 7.2-1.7-3-3.3-5.8-5-9-.5 2.4-.7 4.5-1.3 6.5-.6 1.9-.1 4.1-1.4 5.8-.2 0-.4-.1-.6-.1 1-6.2 2-12.4 2.9-18.6 1.3.1 1.8.7 2 1.7.7 2.8 1.5 5.5 2.4 8.3.1.4.6.8 1.1 1.6.6-2.1.9-3.8 1.6-5.3.7-1.4-.4-3.5 1.9-4.6.4 1.6.5 3 1 4.3 1.1 3.1 2.3 6.3 3.7 9.3.5 1.1.4 1.6-.9 2.5zM682.1 113.2c-.7 1.8-1.4 3.6-2.3 5.6-2.3-1.9-2.6-4.5-4.1-7.1-.6 2.5-1.1 4.4-1.6 6.4-.4 1.9-.8 3.8-1.3 6.3-.6-.8-1.2-1.2-1.1-1.5.6-2.4 1.3-4.8 1.8-7.3.7-3 1.2-6.1 1.8-9.4 1-.6 1.7-.1 2.1 1 .5 1.5.8 3 1.1 4.5.3 1 .5 2 .8 3h.6c1-2.1 1.9-4.3 3.1-6.8 1.9 2.4 1.1 5.1 2.2 7.2 1.1 2 2.5 3.9 2.6 6.4-1.7.3-2-.8-2.4-1.8-1-2.2-1.9-4.4-2.9-6.6 0 .1-.2.1-.4.1zM625.1 121.5h7.7c-.1 1.3-1.1 1.7-1.7 2-2 .9-8 .6-10.7-.4.3-2.8.5-5.6.8-8.5.3-2.8.6-5.6.9-8.5.7-.3 1.4-.5 2.2-.8.2.5.4.9.4 1.2-.4 2.9-.9 5.9-1.2 8.8-.2 2.1-.5 4.3 1.6 6.2zM857.4 124c2.8-.6 5.5-1.2 8.1-1.8.6-3.6.3-4.2-2.8-4.7l-2.1-.3c-3-.3-4.3-2.4-3.2-5.3 1.3-3.1 3.8-4.8 6.9-5.5.8-.2 1.7-.3 1.5 1.3-1.5.2-3.3 0-4.5 1.6-1 1.3-1.2 2.8-1.2 4.3 0 1.2.9 1.9 2.1 2.1 1 .1 2 .1 3 .4 1 .3 2 .7 2.9 1.4 1.5 1.1 1.5 2.6.3 3.9-1.4 1.6-3.3 2.2-5.2 2.7-1.6.4-3.2.6-4.8.9-.3 0-.6-.2-.9-.4-.1-.1-.1-.4-.1-.6zM813.7 122.9c-1.4-5.3-4.1-9.8-7.2-14 .5-1.1 1.3-.9 1.8-.4.8.7 1.7 1.4 2.2 2.3 1.1 2.1 2.9 3.4 5 4.9l6-10.2c1.1.8.9 1.6.3 2.4-.7 1-1.3 2-2 2.9-2.1 3.2-3.9 6.5-4.7 10.3-.1.4-.3.8-.5 1.1 0 .4-.3.5-.9.7zM831.9 114.8c-2.5.4-5.1.9-7.6 1.3-.1 1.3-.1 2.1-.2 3.4 2.5.3 5 .6 7.7.9-2.6 1.2-6.3 1.2-8.5.2-2.6-1.2-3.5-5.8-1.5-7.9.8-.8 1.8-1.5 2.6-2.3 1.4-1.3 3-.4 4.4-.1 1.8.3 3.1 2.6 3.1 4.5zm-7.8-.1c2-.9 4-.2 5.7-1.8-1.3-1.1-2.4-1.9-4-1.4-1.4.3-1.6 1.5-1.7 3.2zM882.1 110.6c.3 2.8-.5 5.9 1.7 8.4-.4.7-.8 1.3-1.1 1.9-.3 0-.5.1-.6.1-1.1-1-2.3-1.2-3.7-1-1 .1-2.1.2-3.2 0-2.3-.5-3.1-1.8-2.7-4.1 1-4.7 5-7 9.6-5.3zm-2.5.9c-2.5-.2-4.5.9-5.3 2.9-1.1 2.5-.2 4.1 2.6 4.2.9 0 1.7-.1 2.7-.2v-6.9zM778.7 116.6c1.5 4.2 5.1 2.1 8.1 3.2-1.9.4-3.3.9-4.7 1-3.1.2-5.4-2.5-5.2-5.8.2-3.3 2.7-5.6 5.6-5.3 1.5.2 4.1 2.7 4.3 4.2.1 1-.4 1.7-1.6 1.7-1.7.1-3.4.3-5.1.5-.5 0-.8.2-1.4.5zm0-1.9c2-.4 3.8-.7 5.7-1.1-1.1-2.1-1.7-2.6-3.4-2.3-1.6.3-2.1.9-2.3 3.4zM763.3 126.9c1.2-2.1 3.1-2.5 5-2.8.7-.1 1.4-.2 2.1-.4 1.8-.6 2.2-1.1 1.9-3-.4-3.6-.8-7.2-1.5-10.7-.3-1.4.4-1.7 1.4-2.6.4 1.5.8 2.6.9 3.7.4 3.2.6 6.4 1 9.6.4 2.6.3 3.2-2.1 4.4-2.6 1.3-5.6 1.7-8.7 1.8zM639.3 116.8c1.8-2.7 2.1-5.7 2-8.7.2-.1.4-.1.5-.2.4.4 1.1.8 1.1 1.1-.6 2.4.2 5-1.3 7.2-.9 1.4-1.8 2.8-2.6 4.1-4.6-.4-6.2-4.2-4.4-10.1.9-.5 1.5-.2 1.6.7.1.7-.1 1.4-.1 2.2-.1 2.5.4 3 3.2 3.7zM748.6 115.6h-6.8c.4 3 2.4 4.2 4.8 5.1-3 .4-4.9-.8-6-3.4-1-2.4-.4-5.2 1.4-6.7 2-1.7 4.8-1 5.7 1.5.2 1 .5 2 .9 3.5zm-2.2-1.5c-.3-1.7-.5-2.8-1.8-3-1.5-.2-2.2.9-2.8 2.5 1.5.2 2.8.3 4.6.5zM696.5 110.1c.8 2.6-.1 5.3.6 8.1-.6-.1-1 0-1.2-.2-1.2-.6-2.5-.9-3.9-.8-2.7.2-3.5-1.4-2.4-3.8.9-1.8 2.5-2.6 4.3-3 .7-.2 1.5-.2 2.6-.3zm-2.4 1.9c-1.9.3-2.8.8-3.3 1.6-.6.9-.2 1.9.9 2 .9 0 2.2-.1 2.7-.6.8-.9.6-2.1-.3-3zM928.7 119.3c-.2-3.2-.3-6.2-.4-9.3 0-.1.3-.2.6-.5.3.4.7.7.8 1.2.6 2.4.3 5 2.2 7.1.1.1-.4 1.2-.8 1.3-.6.3-1.3.2-2.4.2zM928.7 105.8c-.4.1-.7.2-1 .2-.5-.1-1-.3-1.7-.6.5-.9.8-2 2-1.8 1.2.1 1 1.2.7 2.2zM770.8 105.2c-.6-.7-1.3-1.2-1.2-1.4.2-.6.7-1.1 1.2-1.6.4.3 1.1.7 1 .9-.1.6-.5 1.2-1 2.1z" />
    </g>
    <path class="some-path" d="M573.3 638.1c1.3-.5 2.2-1.1 3.1-1.2 1.7-.3 2.8-1.4 3.9-2.6 1.9-2.2 2.2-4.6 1.8-7.6-.8-5-2.7-9.6-4.6-14.3-1.3-3.4-2.5-6.8-3.9-10.4.7-.5 1.4-.9 2-1.4 2.6 4.3 4.9 8.5 7.5 12.4 1.8 2.7 4 5.1 6.1 7.6 1.1 1.4 2.5 1 3.8.4 3.5-1.4 7-2.9 9-6.6.7.5 1.2.8 1.6 1.1-2.7 4.4-5.4 8.7-8.2 13.1 3.4 3.7 6.5 7.4 9.3 11.3-.2.2-.3.4-.5.6-2.3-.8-4.6-1.5-6.9-2.3-1.6-.6-2.8-.2-3.4 1.3-.5 1.1-.9 2.4-1 3.6-.4 2.4-.5 4.9-.9 7.4-.1.9-.9 1.7-1.6 2.5.2-5-1.9-9.2-4-13.4-1-1.9-1.5-2.1-3.5-1.4-1.4.5-2.8 1.1-4.1 1.6-2.8 1.3-2.8 1.3-5.5-1.7zm16 2.7c1.2-1.8 3.7-2.5 3-5.4 1.6.2 2.9.4 4.2.6v-.6c-.4-.5-.8-1.1-1.2-1.6-3.1-3.8-3.1-4.1-.8-8.3.5-.9 1.7-1.6 1-3.2-2.3.8-4.4 1.7-6.6 2.5-3.7-2.3-4.4-7.1-8.3-9.8 1.1 3.9 1.9 7.3 3.2 10.6 1.4 3.5 2.1 6.9-.8 10.8 4.7-1.5 4.5 2.5 6.3 4.4zM886.9 656.3c-1.1 1.6-2 .9-2.9.5-4.1-2-8.1-4.2-12.3-6.2-1.7-.8-3.6-1.5-5.5-2-.9-.2-2.1-.1-3 .2-2.7.9-5.4 2-8 3-1.6.6-3.2 1.1-4.9 1.8-.8-1.8-.6-3 .5-4.2 1.6-1.8 3-3.7 4.7-5.9-3.5-1.7-6.6-2.8-10.1-2.7-.9 0-2.1.3-2.2-.8 0-.8.8-1.9 1.5-2.3 2.1-1.3 4.4-2.4 6.6-3.5 2.6-1.4 4.3-3.3 4.1-6.5-.2-3.1-.2-6.2-.4-9.2-.1-1.3-.6-2.6-1-4.3.3-.5.7-1.4 1.3-2.5.4.2 1 .4 1.1.7.4 1.7.8 3.3 1 5 .3 3.9 1.9 7.5 3.6 10.9.9 1.8 2.1 2.7 4.3 2.5 3.3-.3 6.6-.4 9.9-.5.5 0 1.1.1 1.9.2-.7 2.7-3 2.3-4.6 3-1.8.8-3.5 1.5-5.3 2.2-.7 2.6.2 4.4 1.8 6.3 5.1 5.8 10.9 10.7 17.9 14.3zm-20.1-12.6c.1-.2.3-.3.4-.5-1.1-1.6-2.1-3.2-3.2-4.7.6-1.9 1.3-3.9 2-6-2.6-.3-4.9-.6-6.8-.8-1-1.3 1.2-2.6-1.2-3.4-.3 2.2-.6 4.4-.9 6-2.9 1.5-5.2 2.7-8 4.1 3.2 1.9 7.5 1.5 8.6 5.7-1.2 1.5-2.3 2.9-3.7 4.6 5.2-.5 9.7-2.7 14.7-1.7-1.1-1-2.2-1.8-3.4-2.3-1.2-.5-2.5-.7-4-1 .3-.6.6-1.3.7-1.3 1.8.5 3.3.9 4.8 1.3zM815 646.6c-1.8-1.1-3.2-1.9-4.5-2.8-2.9-1.9-5.3-4.7-9-5.5-3.8-.9-5.6.2-6.8 4-.9 2.7-2.3 5.1-3.7 7.6-.2.4-1.2.5-2.4.9 1.4-3.5 2.5-6.2 3.7-8.9 1.3-3.1.3-6.1-.2-9.1-.1-.8-1.3-1.6-2.2-1.9-2.1-.8-4.3-1.4-6.5-2.1-1.2-.4-2.5-.7-1.9-2.5 2.3 0 4.6.1 6.8 0 3.7-.2 5.4-1.8 5.8-5.5.5-5.2.8-10.4 1.1-15.7 1.5-.1 1.8 1 1.9 2.2.2 2.3.4 4.5.5 6.8.1 3.5 1.4 6.3 4 8.8 1.2 1.1 2.1 1.5 3.6 1 2.5-1 5.1-2 7.6-3 1.1 1.3.3 2.1-.6 2.9-1.2 1-2.5 2-3.7 3-1.5 1.2-1.8 2.8-1.4 4.6 1 4.3 3 8.1 6.2 11.2.8.8 2.5 1.3 1.7 4zm-18.6-27.1c-2 5.6-2.7 10.4-.7 14.8 2.1.7 3.9 1.5 5.7 2 1.6.4 3.4-.6 5.2 1.4-.7-2.5-1.2-4.2-1.6-6-.4-1.7-.6-3.5-.9-5.4-2.4 0-4.4-.4-5-3.4-.2-1.1-1.5-2-2.7-3.4zM674.4 624.1c-.3 3.5-3.8 3.5-5.4 6.2-.5 3.4 1.3 6.6 3.3 9.8 1.1 1.8 2 3.7 2.6 5.8-4.2-2.4-7.1-6.3-10.7-9.3-2.7 2.7-3.2 6.6-5.7 8.9-.2-.1-.4-.3-.6-.4.5-4 1-8 1.6-12-6.6-2.5-10.4-7.8-15.8-11.1.1-.3.2-.5.3-.8.6-.1 1.2-.4 1.6-.3 1.2.4 2.3 1.1 3.4 1.7 3.4 1.9 7.1 2.5 11 2.1 1.8-4.6 2.1-9.3 1.5-14.3 1.7.3 1.9 1.3 2.2 2.3.7 2.7 1.5 5.5 2.3 8.2.2.7.5 1.3.8 1.9 1 2.1 2 2.5 4.4 2.1.8-.3 1.7-.5 3.2-.8zm-22.2 2c2.2 1.6 3.7 3 5.5 3.8 1.9.9 3.9 1.5 4.1 4.3.8-.8 1.2-1.3 1.7-1.8 1.6 1.7 2 4 4.3 4.7-.5-3.2-.9-6.1-1.4-9.3-2.8-1-2.1-4.4-3.8-6.8-.3 1.1-.7 1.9-.8 2.7-.1.9.2 1.8.3 2.9-3.2 1.4-6.1-.9-9.9-.5zM733 628.2c4.3-1 8.2-1.9 12.2-2.8.3 1.1.8 1.9-.5 2.4-.8.3-1.5.6-2.2 1-3.9 1.7-3.9 1.8-5.9 5.8.5 1.2 1 2.5 1.7 3.6.7 1.3 1.7 2.5 2.5 3.7.6.9 2.6 1.4 1.1 3.3-3.3-2.8-6.6-5.4-9.9-8.2-3.9 2.4-3 7.8-6.4 10.3-1.7-.6-.9-1.7-.7-2.6.5-3.1.9-6.3 1.4-9.7-2.5-.4-4.5-.7-6.5-1.2-1.4-.3-2.9-.7-4.2-1.3-.4-.1-.6-.9-.7-1.4 0-.2.5-.7.6-.7 2.2.5 3.5-1.2 5.2-1.9 2.2-1 4.6-1.7 7.2-2.7-1.7-4.8 0-9.2.3-13.6 0-.4.7-.8 1.2-1.3 1.6 2.5 1.8 5 1.7 7.7-.1 3.3.6 6.4 1.9 9.6zm-5.7 10.6c.3.1.5.1.8.2 1.3-1.5 2.6-3 3.8-4.4 1.7.9 2.2 2.8 4.5 2.9-.8-1.6-1.4-2.8-2-4.1.5-.7.9-1.3 1.4-2 .4-.6.8-1.2 1.3-2-2 .4-3.5.7-5.1 1-.7-2.4-.9-4.5-2.6-6.5-.5 3.3.1 6.4-2.4 8.9-.1-.9-.2-1.5-.3-2.3-1.4.4-2.7.8-4.7 1.5 2.7 1 4.6 1.7 6.3 2.3-.5 1.8-.8 3.2-1 4.5zM929.4 616.3c.3 2.8.7 5.5 1 8.3.1.8 0 1.6.2 2.4.6 3.2 2.4 4.2 5.4 3.3.8-.2 1.5-.7 2.2-.9.7-.1 1.4.1 2.6.1-1.1 1.9-2.3 2.9-4 3.4-5.2 1.6-7.6 5.4-7.9 10.7 0 .7-.5 1.4-.8 2h-.8c-.8-3.9-1.5-7.7-2.3-11.7-2.1-1.9-5.6-1.4-7.8-4.7 3.8 0 7 2.1 10.4.5.8-2.8 1.4-5.6.6-8.6-.4-1.5-.1-3.2-.1-4.8h1.3zm-1.5 22.2c2.2-2.4 3.9-4.3 6.3-7-3.4 1.9-3-1.6-4.7-2.3-.2 1-.2 2.1-.7 2.6-.5.6-1.6.6-2.3.9.3 1.8.8 3.6 1.4 5.8zM627.8 598.5c-.4-2.6-.8-5.2-1.1-7.9-3.9-.3-7.4-1.2-10.1-4.1 3.2.4 6.3.7 9.8 1.1.4-4 .8-7.5 1.1-11.1h.6c.1.6.4 1.1.4 1.7 0 1.6-.2 3.2-.2 4.8 0 3 .7 3.9 3.7 4 1.3.1 2.7-.1 4 1.6-1.3.7-2.3 1.6-3.5 2-1.5.5-2.3 1.2-2.3 2.9 0 1.1-.3 2.2-.6 3.3-.2.6-.8 1.2-1.2 1.8-.1 0-.4-.1-.6-.1zm1.7-9.3c1.8.3 1.8.3 2.8-.7-.7 0-1.2-.1-1.7 0-.4.1-.7.5-1.1.7z" />
</svg>
