<?xml version="1.0" encoding="utf-8"?>
<!DOCTYPE svg PUBLIC "-//W3C//DTD SVG 1.1//EN" "http://www.w3.org/Graphics/SVG/1.1/DTD/svg11.dtd">
<svg version="1.1" id="Bergamot-just-browse-here" xmlns="http://www.w3.org/2000/svg" xmlns:xlink="http://www.w3.org/1999/xlink" x="0px" y="0px"
	 width="1000px" height="1000px" viewBox="0 0 1000 1000" style="enable-background:new 0 0 1000 1000;" xml:space="preserve">
<style type="text/css">
<![CDATA[
	.st0{fill:#965A5A;}
	.st1{fill:#FFFFFF;}
	.st2{fill:#D1D3D4;}
	.st3{fill:#A7A9AC;}
]]>
</style>
<path d="M618.8,199.8c11.8,9.3,61.8-35.8,67.7-47.8c6-12.5,22.5-36.1,35-22.4c15.8,17.1,32.2,35.7,45.2,55
	c38.2,56.7,77.4,102.9,104.7,165.8c8.4,19.5,33,69.7,29.3,96c-2.9,20.5-14.2,58.6-23,78.6c-13.7,31-30.1,74.1-31.2,110.8
	c-0.4,14.1-4.3,37.2-6.6,50.7c-0.8,4.6-4.8,20-5.7,24.5c-2.6,13.7-1.5,27-13.8,32c-11.8,4.9-8.7,42.7-18.5,54.1
	c-23,27-60.9,53.3-93,66.4c-27.9,11.4-53.8,12.2-80.8,19.2c-15,3.9-44.6,16.7-60.5,10.4c-4.5-1.8-27.3,3.4-34.3,4.1
	c-14.2,1.3-34.6-5.5-47.6-1.2c-17.8,5.8-70.2,2.8-86.1-3.8c-29.1-12.1-65-5.8-94.4-17.6c-26.7-10.9-62.4-13.8-87.4-30.2
	c-14-9.1-27.3-14.6-43-21.8c-12.7-5.8-23.4-20.3-35.8-25.7c-19-8.2-43.8-68.2-36.9-89.6c7.1-21.8,1.4-50.1,11.8-72
	c9.6-20.2,16.3-74.5,39.5-84.6c4.2-1.8,15.8-27.4,20.6-30.2c3-1.7,30.2-38,33-43.1c13-23,37-44.8,53-65.5
	c7.5-9.8,28.2-28.1,35-40.2c2.6-4.6,30.2-32.3,33.8-37c9.3-12.3,11.4-49.8,21.8-57.4c6-4.5,12.3-31.4,14.4-38.5
	c6.9-22.5,22.6-45.3,28.2-68c3-12.1,32.5-69.6,41.1-71.9c4.4,0.6,24.2,31.4,28.2,35.8c18.6,19.7,39,37.1,64.1,49.3
	c14.1,6.8,76.6,38.5,91,15.8C618.9,200.8,618.2,200.8,618.8,199.8z"/>
<path class="st2" d="M114.8,739.2c3.3,13.8,11.7,27.8,20.3,40.1c9.2,13,23.3,21,35.6,30.1c24.4,17.9,48.6,24.8,76.2,36.4
	c48.3,20.4,108.9,12.9,155.2,36.9c11.7,6.1,60.2,2.5,71.9,3.8c29.5,3.2,59.3,0.6,89-0.9c58.2-3.1,115.7-18.1,167.8-44
	c38.4-19,109.4-80.8,46.8-116.9c-38.9-22.4-108.9,30.6-148.6,38.6c-27.4,5.5-54.2,11.3-81.5,13c-10.2,12.3-66.2-1.4-82.5,4.2
	c-9.4-3.2-144.4-12.8-134-27.9c12.1,5.9,38.7,15.8,53.1,9.5c1.2-0.6,36.2,2.3,37.5,3.5c17.2,16.5,95,2.3,118.2,2.3
	c16.7-11.5,26.2-28.7,31.8-49.2c10.6-38.9,90-36.5,101.2,0.3c4.2,13.9,32.9,15.4,38.2,2c4.2-10.5,5-21.7,8.8-31.2
	c17.4-42.8,53.4-51.8,91.1-35.4c25.8,11.3,28-1,30.8-25.9c1.5-14.4,4.3-38.4,11.2-51.3c7.1-13.5,5.4-32.3,9.2-47
	c3.7-14.5,14.2-29.2,19.8-43.2c7.2-18,18.9-55.3,4.5-73.6c-3.9-5-10.6-34.6-13-41.4c-2.7-7.4-19.5-27.9-19.2-35.2
	c1-21.4-34.8-57.2-45.1-74.8c-15-25.4-29.9-52-48.7-74.5c-8.9-10.7-18-26.6-27.1-35.4c-17.1-16.7-18.6-8-35.3,0.6
	c-18.5,9.6-31,38.8-50.5,49c-69.6,36.2-131-11.5-182.8-57.1c-5.7-5-23-32.2-29.2-31c-4.6,21.8-28.1,46.2-38.2,66.9
	C379,218.3,371.1,259.8,353,297c-21.8,44.8-26.3,94.9-39.9,142.2c-5.4,19.1-4.3,38.9-7.7,58c-0.7,4.1-1.9,38.1-3.2,39
	c-3-27.7-2.3-51.6,0.2-80.7c1-14.6,1.8-30.2,5-44.5c0.7-3,3.5-15.4,4.2-16.6c-9-4.2-19.5-13-26.3,4.4c-23.2,22.7-48,68.2-77.1,90.4
	c-11,10.6-27.2,29-34.8,47.1c-1.5,3.6-8.8,18.6-11.3,21.3c-11.5,13.1-20.6,35.4-26.4,53c-6.3,19-18.2,47.3-22.4,67.4
	C108.7,698.4,118.2,720.6,114.8,739.2C115.7,740.3,113.5,734,114.8,739.2z"/>
<path class="st3" d="M723.5,717.6c28.5,6.7,42.5-16.2,68.8,9.2c20,19.4,33.4-17.1,37.2-36.4c-1.5-2.4-1.5-4.7,0.1-7.1
	c-4.3-6.2-12.3-10.8-15.8-17.5c-12.2-9.7-31.9-15.9-46.7-9.6C743.6,666.1,722.9,691,723.5,717.6
	C726.3,718.2,723.4,712.6,723.5,717.6z"/>
<path class="st3" d="M659.8,712.2c-33.1-25.2-94.2-5.2-90,43.7c1.8,21.1,55.6-3.5,70.8-5.8c9.2-1.4,20.8-10.6,29.4-8.6
	C683,731.8,656.8,720.1,659.8,712.2C659,711.6,659.1,714.1,659.8,712.2z"/>
<path d="M738.7,260.1c10.3,22.4,17.8,31,6.7,57.6c-5.4,13-23.8,21-36.3,16.5c-10.2-3.6-18.6-5.6-31.8-8.6
	c-3.7-0.8-35.2-10.6-35.8-11.8c0.8-4.1,34-32.8,36.2-33.9c10.2-5.2,26.7-25.1,34.3-34.1c18.7-22.2,9.1-1.3,25.8,13.2
	C737.7,259,738.4,259.4,738.7,260.1z"/>
<path class="st1" d="M663.1,307.6c0,0,31.2,18.2,52.6,19.9c15.9,1.2,24.2-29.7,24.2-41.7c0-11-8.7-46.2-39.2-20.6
	c-8.2,15.7-37.8,42.2-37.8,42.2L663.1,307.6z"/>
<path d="M506.9,272.4c18.2,7.4,59.5,16.6,72.6,29.8c-4,13.4-10.5,38.3-19.6,47.4c-17.9,17.6-23.8,19.9-47.4,20.4
	c-18.1,0.4-41.5-33.2-35.4-52c5.3-16.4-8.3-44.5-2.1-58.8c4.2-1.8,21.9,7.7,28.7,11.4C504.5,271.1,506.1,272.1,506.9,272.4z"/>
<path class="st1" d="M491.3,279.1c0,0-1,0.1-3.5-0.3c-16.7,35.2,2.9,97.9,48.4,82.8c15.4-5.1,38.4-51.7,18.2-55.7
	c-16.9-3.3-44.8-10.2-55.9-22.8C479.4,318.5,491.3,279.1,491.3,279.1z"/>
<path d="M752.2,476.4c-1.4,4.1-55.8,8-61.2,7.2c-6.2,7.6-19.2,18.3-26.8,25.5c-9.5,9-29.4,2.4-38,12c-2.1,2.3-16.6,5.6-20.2,2.6
	c-11.6,8-27.7,7.9-37.6,16.9c-20-3.8-34.8,20-50.2,14.1c6.2-15.8,72.6-36.1,88.5-36.7c9.5-0.4,55.1-11.8,54-21.7
	c-2.4-21.5-2.5-40.5-13.7-59.4c-25-3.8-63.9-17.1-36.6-52c18.2-23.2,48.8-3.7,67.4,8.5c12.2,8,17,23.6,2.3,32.2
	c-16.2,9.4-22.1,20-15.2,41.3c4.6,14.2,58.1,14.1,70.5,2.9c9.8-1.1,91.6-5.1,77.8,12.8C800.1,469.7,766.1,483,752.2,476.4
	C751.8,477.6,751.8,476.2,752.2,476.4z"/>
<path class="st0" d="M633.1,428.1c10.9-1,74.4-9.7,31.4-30.2c-10.3-4.9-39.7-20.5-48.1-3.5c-13.3,26.3,6.3,32.5,15.6,33.7
	C632.2,428.2,632.8,428.1,633.1,428.1z"/>
<path d="M166.2,677.1c0,0-3.4,9.6-7.8,8.6c-23.1-5,44.7-136,64.6-144c9-1.4-5,18.4-5.9,20.1c-3.6,7.5-19.9,36-27.4,39.8
	C175.6,609,165,662.9,166.2,677.1C160.2,678.5,166.2,677.1,166.2,677.1z"/>
<path d="M233.8,581.4c-0.6-0.4,4.6,3.8,4.3,3.6c-7,23-30.9,57.8-43.4,76.5C188.5,650.2,222.3,576.5,233.8,581.4
	C234.3,581.7,231.6,580.5,233.8,581.4z"/>
<path d="M245,659.5c-23.8,0,1-53.8,9.8-50.1c8.2,9.7-10.6,30.4-12,41C242.5,652.7,244.6,656.3,245,659.5z"/>
<path d="M766.9,402.5c2.2-3.4,10.6-11.9,15.5-5.2c6.2,8.7-14.2,11.5-16.6,7.6C765.5,404.4,766.6,403.1,766.9,402.5z"/>
<path d="M751.8,429.5c-1.1,3.6-7,11.3-12.7,8.4c-12.6-6.3-4.6-12.9,6.5-11.3C751.8,427.5,752.3,427.9,751.8,429.5z"/>
<path d="M779.1,436.5c1.1-3.9,15.4-12.2,16.2-1.1c0.8,10.6-13.3,5.6-15.8,2.5C779.3,437.7,779,436.9,779.1,436.5z"/>
<path d="M552.6,450.3c0,0,11.8-22.9,13.1-2.6c0.2,4-11.1,7-13.4,4.3C552.1,451.7,552.6,450.3,552.6,450.3z"/>
<path d="M535.4,479c-3.2,0.4-11.8,5.5-12.4-3.4c-0.7-11.4,15.7-9.8,16.2-1C539.5,479.8,536.8,478.9,535.4,479z"/>
<path d="M584.6,477.3c5,2.2,7.8,6.8,1.2,11c-8.9,5.7-14.3-9-6.2-12.1C583.6,475.3,581.6,475.4,584.6,477.3z"/>
<path d="M518.2,310.9c5.4,10.7-3.4,26.4-15.2,15.1c-12.9-12.3-5.8-16.8,7.8-18.7C511.3,307.2,513.9,306.3,518.2,310.9z"/>
<path d="M706.2,291.2c11.4,5.1,6.9,13.1-6.4,15.9c-24.7,5.1-13.4-19.8,1.8-17C702.9,290.3,703.5,290,706.2,291.2z"/>
</svg>
