<?xml version="1.0" encoding="utf-8"?>
<!DOCTYPE svg PUBLIC "-//W3C//DTD SVG 1.1//EN" "http://www.w3.org/Graphics/SVG/1.1/DTD/svg11.dtd">
<svg version="1.1" id="catground-bergamot" xmlns="http://www.w3.org/2000/svg"
	 width="1000" height="1000" viewBox="0 0 1000 1000">
<path d="M618.8,199.8c11.8,9.3,61.8-35.8,67.7-47.8c6-12.5,22.5-36.1,35-22.4c15.8,17.1,32.2,35.7,45.2,55
	c38.2,56.7,77.4,102.9,104.7,165.8c8.4,19.5,33,69.7,29.3,96c-2.9,20.5-14.2,58.6-23,78.6c-13.7,31-30.1,74.1-31.2,110.8
	c-0.4,14.1-4.3,37.2-6.6,50.7c-0.8,4.6-4.8,20-5.7,24.5c-2.6,13.7-1.5,27-13.8,32c-11.8,4.9-8.7,42.7-18.5,54.1
	c-23,27-60.9,53.3-93,66.4c-27.9,11.4-53.8,12.2-80.8,19.2c-15,3.9-44.6,16.7-60.5,10.4c-4.5-1.8-27.3,3.4-34.3,4.1
	c-14.2,1.3-34.6-5.5-47.6-1.2c-17.8,5.8-70.2,2.8-86.1-3.8c-29.1-12.1-65-5.8-94.4-17.6c-26.7-10.9-62.4-13.8-87.4-30.2
	c-14-9.1-27.3-14.6-43-21.8c-12.7-5.8-23.4-20.3-35.8-25.7c-19-8.2-43.8-68.2-36.9-89.6c7.1-21.8,1.4-50.1,11.8-72
	c9.6-20.2,16.3-74.5,39.5-84.6c4.2-1.8,15.8-27.4,20.6-30.2c3-1.7,30.2-38,33-43.1c13-23,37-44.8,53-65.5
	c7.5-9.8,28.2-28.1,35-40.2c2.6-4.6,30.2-32.3,33.8-37c9.3-12.3,11.4-49.8,21.8-57.4c6-4.5,12.3-31.4,14.4-38.5
	c6.9-22.5,22.6-45.3,28.2-68c3-12.1,32.5-69.6,41.1-71.9c4.4,0.6,24.2,31.4,28.2,35.8c18.6,19.7,39,37.1,64.1,49.3
	c14.1,6.8,76.6,38.5,91,15.8C618.9,200.8,618.2,200.8,618.8,199.8z"/>
</svg>
