<?xml version="1.0" encoding="utf-8"?>
<!DOCTYPE svg PUBLIC "-//W3C//DTD SVG 1.1//EN" "http://www.w3.org/Graphics/SVG/1.1/DTD/svg11.dtd">
<svg version="1.1" id="borders-the-cats" xmlns="http://www.w3.org/2000/svg" xmlns:xlink="http://www.w3.org/1999/xlink" x="0px" y="0px"
	 width="1000px" height="1000px" viewBox="0 0 1000 1000" style="enable-background:new 0 0 1000 1000;" xml:space="preserve">
<style type="text/css">
<![CDATA[
	.st0{opacity:8.000000e-002;enable-background:new    ;}
	.st1{fill:#FFFFFF;}
]]>
</style>
<path class="st0" d="M819,151.7c-8,1.6-3.4,20.2-8.5,24.8c-8.2-6.9-20.6-8.3-30.4-4.3c-16.6,6.6-9.1-3.5-19.4-17.6
	c-6.7,1-15.8-5.9-16.5,3.8c-1,13,8,25.6,7.2,39.8c-0.5,9.6-3.5,20.5-10.1,27.8c-4,4.5-25.4,14.6-21.1-0.2
	c2.9-9.9,15.2-13.3,18.4-25.1c1.8-6.9,1.6-31-8.6-33.4c-1.4,3.7-2.6,17.6-6.2,19c-7.8,3-20.5-9.6-33.3-3.5
	c-0.5-12.6,1-29.3-16.2-27.5c-10.2,1-15.2,1.9-16.8,11.4c-0.5,3.4-0.5,25.9-2.6,27.4c-1.9,1.3-17.9-4.2-21.3-4
	c-8.2,0.5-15.7,3.8-21.3,9.9c-4.3-7.5-2.6-17.8-8.5-24.6c-10.4,19.5,5.6,32.5,3.4,52.6c-1.1,9.4-20,42.7-33.1,28.8
	c-1-1,23.4-28.3,20.8-40.2c-1.8-8-6.4-15.7-6.9-24c-0.5-10.7,6.4-19.5,5.6-30.2c-0.6,0-28.2,5.4-24.3,8.5
	c-4.8-3.7-4.6-15.7-6.4-21.6c-3.4,0.2-12.8,44-14.1,48.8c-9.9-11-22.6-9.9-35-4.2c-2.9-5,0.8-19.2-0.3-25.4
	c-6.9,6.4-8.6,19.4-11.4,27.8c0.5-1.3-30.4,8-33.6,9.6c-6.7-15.2-3.7-28.8-16.2-41.9c-8.3,12.5-14.1,26.2-19.7,40.2
	c-14.9-8.2-28.6-8.5-44.6-2.7c-0.6-10.9,0.2-21.8-2.1-32.5c-19.2,19.2,3.7,30.7-4.5,50.7c-4.8,11.7-23.4,26.9-34.2,12.2
	c-5.6-7.5,20.2-7,23.7-16c3.8-9.6-5.6-17.4-5.9-27.2c-0.2-4.6,9.4-21.4,7.7-24c-5.4-8.3-26.4,4-31.2,6.9c-1-1.8-1.8-3.8-2.1-5.9
	c-3.2-0.3-8.3,20.8-11.2,24.2c-5.4-1.8-11.7-3.7-17.6-3c-2.9,0.3-17.9,9-18.9,8.5c-3.7-1.8-3.4-29.1-4.2-34.1
	c-15.8,8.3-21.6,30.4-9.9,44.3c4,4.8,17.1,13.8,10.2,21.8c-3.8,4.3-8.5,2.7-11.4-1.6c-12-18.1-21.3-32.8-9.6-53.9
	c17.6-31.8-21.8,0.2-27.5-1.9c-1.3-2.2-2.2-4.6-2.9-7.2c-5,0.3-16,21-19,25.3c-4.2,5.8-9.6-4.5-15.4-4.6c-19.5-1-9.9,25.9-3.2,33.1
	c0.5,0.5-30.4,11-34.1,12.6c10.9,5.6,22.9,7.8,34.6,10.9c-1.4,3.7-13.4,32.8-1.4,32.2c16.3-1,27.7,15.4,44.6,12
	c8.2-1.6,2.9,19.7-16.3,10.4c-14.6-6.9-17.6-11.8-33.4-5c2.7,12.2,16-6.2,11.8,9.4c-1.6,6.2,0.2,16.3,5.1,20.8
	c1.4,1.3-25,7.7-25.4,7.8c2.1,4,31,9,28.8,13.8c-7.5,16.5,1,21.3,7.2,34.4c-11.4,5.4-27.7,5.1-40.2,8c7,4.8,15.7,7,23.2,11
	c-4.6,4.2-7.7,13.3-6.4,19.4c0.6,2.7,8.5,14.4,7.8,16c-1.1,2.9-8.5,0.6-11.7,1.3c16.2,18.2,52.2-11,60,26.2
	c3.7,17.6-26.2-8.8-26.9-9c-13.4-2.6-24.6,0.2-37.9-5.1c-0.2,13,18.6,23.4,4.6,26.4c3.5,5.6,23.4,3.7,25.3,10.4
	c-1.8,3.4-3.7,6.7-5.8,9.8c-3.5,8.8-1,16.3,2.1,24.6c-9,2.1-18.1,4.2-27,6.2c-0.5,5.4,31.4,15.8,36.3,17.8
	c-10.6,8.6-11.4,29.3-2.4,39c-12.2,5.9-24.3,11.8-36.5,17.8c17.9,13,4,0.5,6.9,23.7c0.2,1.8,6.9,13.9,4.5,14.6
	c-10.1,2.6-19,6.2-28,11.4c16.8,11.8,41-4.8,58.7-5.9c6.6-0.3,45.8,7.8,31.2,20.2c-9.3,7.8-34.4-12.5-49.3-5
	c-17,8.5-36.6,6.1-53.9,0.6c-2.1,5.1,26.7,13,31,14.2c-0.8-0.2-5.3,29.9-3.5,34.6c2.4,6.6,31.7,9.6,29.4,13.9
	c-7.2,13.9-6.1,23.4-0.2,36.6c-10.1,3.5-20.3,6.1-30.1,10.7c5.6,2.4,25,5.1,28.2,9.8c1,1.4-2.9,26.1-2.7,29.4
	c5.3-1.3,10.2-22.9,16.6-16.8c11,10.4,25.6,5.1,36.3-1.9c3.4,10.6,7.5,20.8,14.2,29.6c6.1-8.5,9.1-19.4,12.8-29
	c1-2.7,14.4,9.9,15.4,10.4c23,13.1,14.2-29,9-39.4c-2.2-4.5-12.5-7.8-12.6-12.8c-0.3-8.2,10.4-9.4,15-5.8
	c16.5,12.3,18.6,30.7,16.8,50.1c11.4-8.8,0.5-6.9,14.1-1.9c11,4,15.7-4.8,21.4-11.4c4.8,10.6,9.4,21.1,14.2,31.7
	c7.4-11.4,4.5-40.3,19.8-26.1c-5.8-5.3,20-31.7,23.7-36.8c2.4-3.5,3.8-14.6,10.9-14.2c7.5,0.5,5.4,10.2,4.3,14.7
	c-3.5,13.9-30.1,23.2-22.4,39.7c5.3-0.3,12.5-12,15.2-11.2c0.3,0.2,6.4,36.8,7.7,41.1c8.5,0.2,2.4-30.6,11-31.2
	c12,16.3,24.2,4.2,36-2.1c0.8,6.6-1.1,40.6,8.5,40c3-13.3,3-30.1,8-42.6c11.8,17.1,28,5,39.8-2.9c2.1,4,5.9,29.4,9.1,29
	c0.8-4.8,0.5-14.7,3.8-18.7c-1.4,1.6,18.7,8.5,17,8.3c11,1.1,14.7-4,22.4-9.9c5.8,9.1,5.6,21.8,14.6,29.1
	c3.7-5.8,12.2-39.4,16.5-40.6c2.9-1,11.8,7.5,16.8,7.7c5.4,0.3,17.9-10.2,19.7-9.6c3.2,1.1,7,31,8,34.6c6.2-1,0.8-17.6,4.3-19.5
	c1.3-0.6,10.2,5.3,9.4,4.8c8.8,4,18.2,1,25.9-3.8c14.2-9,5,1.3,15.7,6.2c3.7-22.6-34.6-58.7,2.6-76.3c17.8-8.5-2.7,27.7-2.4,31.4
	c0.8,9.8,9.9,19.7,14.2,28c4.5,8.8-3,25.9,0.5,31.5c4.5-9.3,5.1-19.8,8-29.6c14.9,11.8,25,10.6,34.7-6.2c1.8,2.4,17.8,37,21.3,33.4
	c15-14.9,15.7-25,5.3-43c9.3,0.5,18.4-0.6,27-4.2c-6.1-5.4-12.6-9.9-20.2-13c-5.3-2.2-30.1-4.3-32.2-8.6c-1.8-3.7,7.4-12.2,8.6-16.5
	c3.4-12-2.1-19.7-8.8-29c11.5-3.7,24-6.4,33.3-14.6c-4.6-2.2-15-4-17.8-8.6c1,1.8,9.9-13,9.6-12.2c3.8-9.1,3.2-21-3-28.8
	c-5.3-6.7-19.7-9-27.7-7.4c-10.2,2.2-12,17-20.6,17.1c-19.4,0.5,2.4-27.7,14.9-29.1c17.9-2.1,46.6,15.2,61.3-0.8
	c-3-1.6-37.3-12-35.2-14.7c10.9-13.6,10.1-25.9,3.7-41.3c10.1-0.8,20.2-2.2,30.2-3.7c-10.7-7.8-34.2-8.8-27.2-21.8
	c9.9-18.2,4.5-23.2,0-41.1c9.9-1.3,18.9-5.9,28.2-9.3c-12.2-9.4-34.4-1-22.9-19.2c5.1-8-1-31.5-0.3-32.3c3.4-4.3,24.3-5.3,30.2-6.6
	c-22.4-24.6-73.4,26.2-88.5-17.4c-1.4-4.3,0.5-13.1,6.7-13c9,0.2,8,15.4,15.7,19.4c9.4,5,20,0.8,29-2.6c14.2-5.4,25.3-4.5,39.8-1.1
	c-0.3-4-19.5-10.9-23.5-13.3c10.2-15.2,1.8-24.3-2.6-39c5.9,1.8,12,2.1,18.1,1c-2.4-8.6-23.7-12-30.1-16c11.2-8.5,9.3-21,1.9-31
	c7.2,1,14.2,0.6,21.3-0.8c0.3-2.2-24-11.8-26.9-13.1c6.7-5.9,9.6-15.4,8.3-24c-0.6-4.8-8.6-12.3-8.3-16c0.2-2.2,29.4-1.1,32.8-1.8
	c-7.4-7.8-19.4-11.2-28.3-17.3c8.8-11.5,6.1-17,1-30.2c4.5,1.1,9,1,13.3-0.6c-11-6.9-40-15.5-43.2,5.3c-4.8,30.6-26.7,1.6-8.6-16
	c22.6-21.9,39.2-0.5,63-0.8c22.6-0.3,14.2-43-11.5-25.3C821,159.5,820,155.7,819,151.7C818.7,151.8,820,155.5,819,151.7z"/>
<path d="M0,0h1000v1000H0V0z M819,151.7c-8,1.6-3.4,20.2-8.5,24.8c-8.2-6.9-20.6-8.3-30.4-4.3c-16.6,6.6-9.1-3.5-19.4-17.6
	c-6.7,1-15.8-5.9-16.5,3.8c-1,13,8,25.6,7.2,39.8c-0.5,9.6-3.5,20.5-10.1,27.8c-4,4.5-25.4,14.6-21.1-0.2
	c2.9-9.9,15.2-13.3,18.4-25.1c1.8-6.9,1.6-31-8.6-33.4c-1.4,3.7-2.6,17.6-6.2,19c-7.8,3-20.5-9.6-33.3-3.5
	c-0.5-12.6,1-29.3-16.2-27.5c-10.2,1-15.2,1.9-16.8,11.4c-0.5,3.4-0.5,25.9-2.6,27.4c-1.9,1.3-17.9-4.2-21.3-4
	c-8.2,0.5-15.7,3.8-21.3,9.9c-4.3-7.5-2.6-17.8-8.5-24.6c-10.4,19.5,5.6,32.5,3.4,52.6c-1.1,9.4-20,42.7-33.1,28.8
	c-1-1,23.4-28.3,20.8-40.2c-1.8-8-6.4-15.7-6.9-24c-0.5-10.7,6.4-19.5,5.6-30.2c-0.6,0-28.2,5.4-24.3,8.5
	c-4.8-3.7-4.6-15.7-6.4-21.6c-3.4,0.2-12.8,44-14.1,48.8c-9.9-11-22.6-9.9-35-4.2c-2.9-5,0.8-19.2-0.3-25.4
	c-6.9,6.4-8.6,19.4-11.4,27.8c0.5-1.3-30.4,8-33.6,9.6c-6.7-15.2-3.7-28.8-16.2-41.9c-8.3,12.5-14.1,26.2-19.7,40.2
	c-14.9-8.2-28.6-8.5-44.6-2.7c-0.6-10.9,0.2-21.8-2.1-32.5c-19.2,19.2,3.7,30.7-4.5,50.7c-4.8,11.7-23.4,26.9-34.2,12.2
	c-5.6-7.5,20.2-7,23.7-16c3.8-9.6-5.6-17.4-5.9-27.2c-0.2-4.6,9.4-21.4,7.7-24c-5.4-8.3-26.4,4-31.2,6.9c-1-1.8-1.8-3.8-2.1-5.9
	c-3.2-0.3-8.3,20.8-11.2,24.2c-5.4-1.8-11.7-3.7-17.6-3c-2.9,0.3-17.9,9-18.9,8.5c-3.7-1.8-3.4-29.1-4.2-34.1
	c-15.8,8.3-21.6,30.4-9.9,44.3c4,4.8,17.1,13.8,10.2,21.8c-3.8,4.3-8.5,2.7-11.4-1.6c-12-18.1-21.3-32.8-9.6-53.9
	c17.6-31.8-21.8,0.2-27.5-1.9c-1.3-2.2-2.2-4.6-2.9-7.2c-5,0.3-16,21-19,25.3c-4.2,5.8-9.6-4.5-15.4-4.6c-19.5-1-9.9,25.9-3.2,33.1
	c0.5,0.5-30.4,11-34.1,12.6c10.9,5.6,22.9,7.8,34.6,10.9c-1.4,3.7-13.4,32.8-1.4,32.2c16.3-1,27.7,15.4,44.6,12
	c8.2-1.6,2.9,19.7-16.3,10.4c-14.6-6.9-17.6-11.8-33.4-5c2.7,12.2,16-6.2,11.8,9.4c-1.6,6.2,0.2,16.3,5.1,20.8
	c1.4,1.3-25,7.7-25.4,7.8c2.1,4,31,9,28.8,13.8c-7.5,16.5,1,21.3,7.2,34.4c-11.4,5.4-27.7,5.1-40.2,8c7,4.8,15.7,7,23.2,11
	c-4.6,4.2-7.7,13.3-6.4,19.4c0.6,2.7,8.5,14.4,7.8,16c-1.1,2.9-8.5,0.6-11.7,1.3c16.2,18.2,52.2-11,60,26.2
	c3.7,17.6-26.2-8.8-26.9-9c-13.4-2.6-24.6,0.2-37.9-5.1c-0.2,13,18.6,23.4,4.6,26.4c3.5,5.6,23.4,3.7,25.3,10.4
	c-1.8,3.4-3.7,6.7-5.8,9.8c-3.5,8.8-1,16.3,2.1,24.6c-9,2.1-18.1,4.2-27,6.2c-0.5,5.4,31.4,15.8,36.3,17.8
	c-10.6,8.6-11.4,29.3-2.4,39c-12.2,5.9-24.3,11.8-36.5,17.8c17.9,13,4,0.5,6.9,23.7c0.2,1.8,6.9,13.9,4.5,14.6
	c-10.1,2.6-19,6.2-28,11.4c16.8,11.8,41-4.8,58.7-5.9c6.6-0.3,45.8,7.8,31.2,20.2c-9.3,7.8-34.4-12.5-49.3-5
	c-17,8.5-36.6,6.1-53.9,0.6c-2.1,5.1,26.7,13,31,14.2c-0.8-0.2-5.3,29.9-3.5,34.6c2.4,6.6,31.7,9.6,29.4,13.9
	c-7.2,13.9-6.1,23.4-0.2,36.6c-10.1,3.5-20.3,6.1-30.1,10.7c5.6,2.4,25,5.1,28.2,9.8c1,1.4-2.9,26.1-2.7,29.4
	c5.3-1.3,10.2-22.9,16.6-16.8c11,10.4,25.6,5.1,36.3-1.9c3.4,10.6,7.5,20.8,14.2,29.6c6.1-8.5,9.1-19.4,12.8-29
	c1-2.7,14.4,9.9,15.4,10.4c23,13.1,14.2-29,9-39.4c-2.2-4.5-12.5-7.8-12.6-12.8c-0.3-8.2,10.4-9.4,15-5.8
	c16.5,12.3,18.6,30.7,16.8,50.1c11.4-8.8,0.5-6.9,14.1-1.9c11,4,15.7-4.8,21.4-11.4c4.8,10.6,9.4,21.1,14.2,31.7
	c7.4-11.4,4.5-40.3,19.8-26.1c-5.8-5.3,20-31.7,23.7-36.8c2.4-3.5,3.8-14.6,10.9-14.2c7.5,0.5,5.4,10.2,4.3,14.7
	c-3.5,13.9-30.1,23.2-22.4,39.7c5.3-0.3,12.5-12,15.2-11.2c0.3,0.2,6.4,36.8,7.7,41.1c8.5,0.2,2.4-30.6,11-31.2
	c12,16.3,24.2,4.2,36-2.1c0.8,6.6-1.1,40.6,8.5,40c3-13.3,3-30.1,8-42.6c11.8,17.1,28,5,39.8-2.9c2.1,4,5.9,29.4,9.1,29
	c0.8-4.8,0.5-14.7,3.8-18.7c-1.4,1.6,18.7,8.5,17,8.3c11,1.1,14.7-4,22.4-9.9c5.8,9.1,5.6,21.8,14.6,29.1
	c3.7-5.8,12.2-39.4,16.5-40.6c2.9-1,11.8,7.5,16.8,7.7c5.4,0.3,17.9-10.2,19.7-9.6c3.2,1.1,7,31,8,34.6c6.2-1,0.8-17.6,4.3-19.5
	c1.3-0.6,10.2,5.3,9.4,4.8c8.8,4,18.2,1,25.9-3.8c14.2-9,5,1.3,15.7,6.2c3.7-22.6-34.6-58.7,2.6-76.3c17.8-8.5-2.7,27.7-2.4,31.4
	c0.8,9.8,9.9,19.7,14.2,28c4.5,8.8-3,25.9,0.5,31.5c4.5-9.3,5.1-19.8,8-29.6c14.9,11.8,25,10.6,34.7-6.2c1.8,2.4,17.8,37,21.3,33.4
	c15-14.9,15.7-25,5.3-43c9.3,0.5,18.4-0.6,27-4.2c-6.1-5.4-12.6-9.9-20.2-13c-5.3-2.2-30.1-4.3-32.2-8.6c-1.8-3.7,7.4-12.2,8.6-16.5
	c3.4-12-2.1-19.7-8.8-29c11.5-3.7,24-6.4,33.3-14.6c-4.6-2.2-15-4-17.8-8.6c1,1.8,9.9-13,9.6-12.2c3.8-9.1,3.2-21-3-28.8
	c-5.3-6.7-19.7-9-27.7-7.4c-10.2,2.2-12,17-20.6,17.1c-19.4,0.5,2.4-27.7,14.9-29.1c17.9-2.1,46.6,15.2,61.3-0.8
	c-3-1.6-37.3-12-35.2-14.7c10.9-13.6,10.1-25.9,3.7-41.3c10.1-0.8,20.2-2.2,30.2-3.7c-10.7-7.8-34.2-8.8-27.2-21.8
	c9.9-18.2,4.5-23.2,0-41.1c9.9-1.3,18.9-5.9,28.2-9.3c-12.2-9.4-34.4-1-22.9-19.2c5.1-8-1-31.5-0.3-32.3c3.4-4.3,24.3-5.3,30.2-6.6
	c-22.4-24.6-73.4,26.2-88.5-17.4c-1.4-4.3,0.5-13.1,6.7-13c9,0.2,8,15.4,15.7,19.4c9.4,5,20,0.8,29-2.6c14.2-5.4,25.3-4.5,39.8-1.1
	c-0.3-4-19.5-10.9-23.5-13.3c10.2-15.2,1.8-24.3-2.6-39c5.9,1.8,12,2.1,18.1,1c-2.4-8.6-23.7-12-30.1-16c11.2-8.5,9.3-21,1.9-31
	c7.2,1,14.2,0.6,21.3-0.8c0.3-2.2-24-11.8-26.9-13.1c6.7-5.9,9.6-15.4,8.3-24c-0.6-4.8-8.6-12.3-8.3-16c0.2-2.2,29.4-1.1,32.8-1.8
	c-7.4-7.8-19.4-11.2-28.3-17.3c8.8-11.5,6.1-17,1-30.2c4.5,1.1,9,1,13.3-0.6c-11-6.9-40-15.5-43.2,5.3c-4.8,30.6-26.7,1.6-8.6-16
	c22.6-21.9,39.2-0.5,63-0.8c22.6-0.3,14.2-43-11.5-25.3C821,159.5,820,155.7,819,151.7C818.7,151.8,820,155.5,819,151.7z"/>
<g>
	<path class="st1" d="M833.3,798.7c-0.6,4,1.1,8,3.7,11.7c3.7,5.3,8.8,8,15,9.4c5.8,1.3,13.4-2.2,15-8c1.6-5.8,2.6-11.7,0.2-17.8
		c-2.2-5.4-6.4-8-11.8-9.3c-3.7-0.8-7.4-0.3-11,0.3C837,786.6,833.3,790.7,833.3,798.7z"/>
	<path class="st1" d="M853.6,681.8c4.2-0.5,7.8-2.1,10.4-5.6c2.6-3.4,4.2-7,2.2-11.4c-2.6-5.4-5.6-10.4-10.9-13.8
		c-3.2-1.9-6.7-3.7-10.4-3.2c-3.7,0.5-7.4,1.4-11,2.6c-8.6,2.6-8.6,11.5-4.8,17c1.8,2.6,4.2,4.6,6.4,6.9
		C840.3,679.4,846.6,681,853.6,681.8z"/>
	<path class="st1" d="M861.4,348c-1.6,0.2-3.2,0.3-4.6,0.6c-5,1-8,4.6-10.9,8.5c-2.7,3.7-2.1,8.5,1,11.7c3.5,3.8,7.8,6.6,12.8,7.8
		c3.4,1,6.9,1.9,10.4,1.9c5.9,0,11-2.9,14.7-7.7c1-1.1,1.8-2.9,1.6-4.3c-0.5-4.3-2.4-8-5.3-11C875.7,350.1,869,348.2,861.4,348z"/>
	<path class="st1" d="M704.2,820.2c-0.2-1.6,0-3.4-0.6-4.6c-1.3-3-2.4-6.7-4.8-8.8c-5.9-5.4-15.7-4.5-20.8,1.8
		c-6.2,7.4-8.6,16.5-3,25.4c2.7,4.3,9.9,7.2,14.7,5.9C698.2,837.3,704,828.5,704.2,820.2z"/>
	<path class="st1" d="M144.2,243.5c-0.3,5.3,1,9.8,4.8,12.8c2.2,1.8,4.8,2.9,7.4,4.2c7.4,3.7,14.9,2.9,22.4,0.6
		c2.2-0.6,4.2-2.4,4.5-4.8c0.6-4.6-0.5-8.6-3.8-12.3c-3.4-3.5-7.7-5.6-11.8-7.8c-5.3-2.6-10.9-3.4-16.6-2.9
		c-1.4,0.2-2.9,1.1-4.2,1.9C143.8,237.8,143.8,240.8,144.2,243.5z"/>
	<path class="st1" d="M196.3,842.4c0.3-4.5-1.3-8.3-4.8-11.4c-3.5-3.2-9.3-3.8-13.1-1c-2.4,1.8-4.6,3.8-6.6,6.1
		c-2.6,3-5.3,6.4-5.8,10.6c-0.5,3-1,6.1-0.6,9c0.5,5.3,2.6,7.5,7.2,8.3c2.4,0.3,5.3,0.2,7.5-0.6
		C189.1,860.6,196.5,853.3,196.3,842.4z"/>
	<path class="st1" d="M337.1,848.6c0.8,2.4,1.1,5.1,2.4,7.2c2.4,4.3,10.4,5.4,14.7,4c7.7-2.7,12.6-8.5,14.2-16.3
		c0.8-4.2,0.5-8.6-3-12c-5.8-5.3-12-5.8-18.1-1c-1.4,1.1-2.6,2.6-3.8,3.8C339.7,838.4,337.8,843,337.1,848.6z"/>
	<path class="st1" d="M839.5,841.3c0-4.8,0-5.1-2.6-8.5c-4.2-5.3-11.4-7.4-16.6-3.2c-2.6,1.9-4.8,4.6-6.4,7.4
		c-3.7,6.1-5.1,12.6-0.8,18.9c2.6,3.8,6.1,7.4,11.5,6.2c4.3-1,7.8-3.8,10.7-7.2C838.6,850.9,839.8,846.1,839.5,841.3z"/>
	<path class="st1" d="M133.9,695c0.2,1.9,0.2,4.6,0.6,7.2c0.3,1.6,0.8,3.5,1.9,4.8c5.8,6.1,12.5,10.1,21.1,7c2.4-0.8,5.1-2.7,6.2-5
		c2.1-4.3,0.8-9-0.8-13.3c-1.9-5.3-6.1-8.3-11.2-10.2c-4.2-1.6-8.3-1.3-12.5-0.3C135,686.4,133.9,688.8,133.9,695z"/>
	<path class="st1" d="M458.2,150.6c1.3-0.2,2.6-0.3,3.7-0.6c3.2-0.6,4.8-3.4,7-5.1c5.3-4.5,7-10.6,6.6-17.1
		c-0.5-6.7-4.6-11.4-11.4-10.6c-5,0.5-9.4,3.2-12.6,7.2c-3.5,4.2-5.6,9-5,14.7C447.2,145.4,451.2,150.9,458.2,150.6z"/>
	<path class="st1" d="M331.4,828c0-6.6-2.7-9.6-9.1-10.2c-0.3,0-0.8-0.2-1.1-0.3c-2.9-0.5-5.8-1.4-8.3,1.1c-2.4,2.4-5,4.6-7.4,7
		c-4.5,4.3-5.1,9.6-3.8,15.4c0.2,0.8,0.3,1.8,1,2.4c2.9,2.9,5.8,5.4,10.7,4.6C322.9,846.2,331.8,838.9,331.4,828z"/>
	<path class="st1" d="M253,133.8c-0.2,5.6,1.1,9.3,3.2,12.6c1.6,2.6,4.3,3.7,7,2.4c3.2-1.4,6.1-3.4,9.1-5c7.5-4,11.5-16.6,7.7-23.7
		c-1.4-2.6-3-5.3-6.1-5.3c-3.2,0-6.7,0.2-9.4,1.4C256.8,120.3,253.8,127.2,253,133.8z"/>
	<path class="st1" d="M190.4,562.9c1-0.2,2.4-0.3,3.7-0.6c3.7-1.3,5.9-4,7.2-7.7c1.4-3.5,0.8-7.2-0.5-10.4
		c-2.2-6.2-7.4-9.9-13.3-12.6c-4.5-1.9-9.1-0.2-11.4,4.3c-1.9,4-2.6,8.3-1.3,12.6C177.3,557,182.9,561.9,190.4,562.9z"/>
	<path class="st1" d="M355.5,138.2c0.2,1.6-0.2,2.9,0.3,3.7c1.8,3,3.7,5.9,7.4,7.2c6.1,2.1,11.8,1.9,16.2-2.9
		c3.7-3.8,5.6-9.1,5.8-14.6c0-1.6,0-3.8-1-4.6c-2.7-2.2-5.6-4.6-8.8-5.8c-4.3-1.4-8.6,0.3-12.2,3.2C358.7,128.3,356,133,355.5,138.2
		z"/>
	<path class="st1" d="M626.6,843.2c-0.8-2.2-1.1-4.6-2.4-6.6c-4.2-6.1-13.8-6.7-19.2-1.6c-3.8,3.7-5.9,8.2-6.9,13.1
		c-0.8,4.2,0.8,7.8,3.8,10.7c2.4,2.6,5.3,3.5,9,2.9C619.2,860.3,626.6,851.2,626.6,843.2z"/>
	<path class="st1" d="M881.3,377.8c-0.3,0-0.6,0-1,0.2c-3.2,1.6-6.6,2.7-10.2,2.6c-7.8-0.3-15-2.7-21.3-7.5
		c-1.1-0.8-2.1-1.6-2.9,0.2c-1.4,2.9-1.8,5.9-1,9.3c1.4,6.2,5.4,10.2,10.6,13.3c9.1,5.3,22.7,5.1,27.7-7.4c0.5-1.1,0.5-2.4,0.2-3.7
		C882.7,382.6,881.9,380.3,881.3,377.8z"/>
	<path class="st1" d="M697.8,121.1c0.3-9.6-6.4-11.7-12.3-10.2c-9.3,2.4-15.8,8.6-17.8,18.6c-0.3,1.9,1.3,6.7,3.7,8
		c4.3,2.1,8.8,1.9,13.4,1c1.9-0.5,4.2-0.8,5.8-2.1C695.2,132.6,697.9,127.8,697.8,121.1z"/>
	<path class="st1" d="M603,118.7c-0.5,0.2-1.4,0.2-2.2,0.5c-4.8,1.1-8.5,4.2-11.5,7.7c-3.5,4.2-5.6,11.4-1.6,17
		c2.4,3.2,6.4,5.3,10.2,4.3c5.8-1.4,10.4-4.5,13.9-9.1c3-4,3.7-8.5,2.1-13.1C612.3,120.6,608.3,119,603,118.7z"/>
	<path class="st1" d="M801.1,127.8c-1.3,0.5-3.7,1.3-5.8,2.6c-5.9,3.5-9.3,10.2-7.5,17.1c1.4,5.4,6.6,9.3,11.8,8.5
		s10.2-2.2,13.8-7.2c3.8-5.3,4.8-9.9,1.8-14.9C812.2,129.1,807.5,128.3,801.1,127.8z"/>
	<path class="st1" d="M879.4,185.3c1.1-0.2,2.2,0,3.2-0.3c5.8-1.6,7.8-5.3,7.2-12c-0.8-8.3-10.9-16.2-18.9-14.2
		c-3,0.6-5.9,1.9-8.8,3.4c-4.2,2.2-5.1,9-1.8,12.3c1.8,1.8,3.5,3.5,5.3,5.3C869.4,183.4,874.1,185,879.4,185.3z"/>
	<path class="st1" d="M142.6,439c0.2,1.6,0.3,3.4,0.6,5c1.3,6.2,6.1,12.8,14.1,12.6c6.6-0.2,11.4-3.4,14.1-8.8
		c3-6.1,2.6-8.5-2.1-12.6c-0.5-0.5-1.1-1-1.8-1.1c-4.3-1.6-8.5-3.5-13-4.3C147.5,428.3,142.4,432,142.6,439z"/>
	<path class="st1" d="M726.6,817.6c-0.6-1.8-1.4-4.2-2.7-6.4c-2.1-4-4.8-7.8-9.6-8.5c-3-0.5-6.2,0.2-9.3,0.8
		c-3.4,0.6-3.5,1.9-1.9,4.8c3.8,6.7,4.5,13.6,1,20.8c-0.8,1.8-0.8,3.2,0.6,4.5c4.8,4.6,10.7,4.8,15.5,0.3
		C724.6,829.9,725.6,824.2,726.6,817.6z"/>
	<path class="st1" d="M835,253.8c-3.2-0.6-6.9,1.4-9.8,5c-1.8,2.1-3.4,4.6-2.6,7.4c1,3.4,3,6.2,5.8,8.2c5.1,3.5,11,4.6,17.3,4
		c4.6-0.5,7.8-3,9.6-8.5c1-3-1-8.8-3.5-10.7C847.5,255.4,842.2,253.9,835,253.8z"/>
	<path class="st1" d="M762.7,834.9c-2.1,0.6-5.3,1.3-8,2.7c-4.2,2.4-6.1,6.4-7,11c-1.3,5.9,1.6,11.2,6.1,13.6
		c5.6,3,14.6-0.5,18.4-5.8c3.5-4.8,3.8-10.1,0.8-15.5C771,837.1,767.8,835.5,762.7,834.9z"/>
	<path class="st1" d="M742.7,125.6c0-3.8-0.6-4.8-2.2-7c-3.7-4.6-8.3-5.6-13.8-4.6c-4.5,0.8-8.3,2.7-10.9,6.9
		c-1.8,2.7-2.2,5.8-2.7,9c-0.5,3.8,2.6,9.3,6.2,9.8c3.4,0.5,6.9,0.6,10.2,0.5C737,139.7,742.7,133.1,742.7,125.6z"/>
	<path class="st1" d="M637,158.4c-0.5-1.4-1-3.2-1.4-5c-1.1-5-6.9-6.7-10.4-6.1c-9,1.8-17.1,12.5-16,21c0.6,5,5.4,9.1,10.4,9
		c5-0.3,9.1-2.1,12-6.2C634.2,167.4,636.2,163.4,637,158.4z"/>
	<path class="st1" d="M366.6,854.6c0.3,0.3,1,0.5,1.4,1c5.3,5.9,12,3.5,16.8-0.6c4-3.5,5-8.6,6.2-13.6c1.1-4.3,0.2-8-2.7-11.2
		c-4.8-5.4-13.3-5.3-18.6-2.4c-2.2,1.1-2.1,1.9-1,4.2c1.9,3.7,3.2,7.8,1.9,12C369.6,847.7,368,851,366.6,854.6z"/>
	<path class="st1" d="M133.9,742.1c-0.3,5.1,1.8,9.1,5.4,12.6c5.1,5,13.8,5.9,19.7,2.2c4.8-3,5.8-7.2,3.7-11.7
		c-1.3-2.9-4-5.3-6.4-7.5c-3.4-3-7.8-4-12.2-4.2C138.4,733.4,133.1,735,133.9,742.1z"/>
	<path class="st1" d="M846.2,470.7c1,0,1.9,0,2.9,0c4-0.2,7.2-2.6,8.2-6.1c0.6-2.9,0-5.6-1.3-8.2c-2.2-4.8-5.4-8.3-11-9.4
		c-2.9-0.6-5.8-0.8-8.6-0.5c-2.7,0.2-4.8,1.1-6.1,3.4c-1.6,2.7-2.9,5.4-1.9,9c0.8,3.2,2.1,5.9,4.3,7.5
		C836.8,469,841.3,471.2,846.2,470.7z"/>
	<path class="st1" d="M165.8,282.9c3.4,0,6.6-0.6,9.6-2.4c6.4-3.7,8-7.8,5-13.9c-1.3-2.4-2.6-2.9-5.3-2.6c-3.4,0.3-6.6,0.5-9.9,0.6
		c-4.2,0.2-7.8-1.4-11.5-3.4c-1.9-1-3.4-0.8-4.5,1c-0.6,1-1.1,1.9-1.4,2.9c-1.1,3.5-1.4,7.7,1.1,10.2
		C153.3,279.8,159,282.9,165.8,282.9z"/>
	<path class="st1" d="M155.7,192.3c-1.9,0.2-3.7,0.3-5.4,0.6c-3.5,0.6-5.6,3.2-5.8,6.9c0,1.3,0,2.6,0,4c-0.2,5.1,2.1,9,6.2,11.5
		c3.8,2.2,8,4,12.6,2.9c5-1.3,7.5-5.3,8.6-10.1c1-4.3-1.3-7.8-3.8-10.7C164.8,194.1,160.2,192.8,155.7,192.3z"/>
	<path class="st1" d="M176,128.5c0.6-2.2-0.8-4-2.6-5.6c-3.7-3.4-7.5-5.8-12.6-6.4c-6.7-0.8-11.5,1.6-12.6,7.4
		c-0.8,4.2-0.6,8.5,3,11.8c2.6,2.4,5.3,4,8.5,5C167.7,142.9,175.8,138.1,176,128.5z"/>
	<path class="st1" d="M526.7,812.8c-0.5-1.8-1-3.5-1.3-5.3c-1.8-8.8-8.3-9.1-13.9-6.2c-8.2,4.2-12.5,11.7-7.7,21.4
		c2.1,4.3,4.2,7.2,9.9,5.8C520.3,826.7,527.4,818.9,526.7,812.8z"/>
	<path class="st1" d="M413.1,174.6c0,0.5,0,1,0,1.4c0.3,5.8,8.8,11,13.6,8c5.1-3.2,9.3-7.7,11.8-13.1c3-6.2-1.6-13.3-6.2-13.9
		c-4.5-0.5-8.8,0.3-12.5,2.9C414.7,163.4,413.1,168.6,413.1,174.6z"/>
	<path class="st1" d="M835.7,504.6c-1.8,0.5-3.5,0.6-5.1,1.4c-4,1.9-5.1,6.2-5.3,9.9c-0.2,2.7-0.3,6.2,1.9,8.8c2.7,3,6.1,5,10.1,5.9
		c4.5,1.1,8.3,0.2,11.5-3.2c2.6-2.7,2.7-6.1,2.1-9.8C849.8,511.7,842.4,503.8,835.7,504.6z"/>
	<path class="st1" d="M857,649c1.1-1.9,2.2-3.5,3.2-5.1c1.8-2.7,1.3-7.4-0.8-9.8c-3.8-4.5-9-5.9-14.4-6.4
		c-5.8-0.5-10.4,2.4-14.4,6.2c-3.4,3.4-4.2,9.3-2.2,13.3c0.8,1.4,1.8,2.1,3.4,1.4c1.6-0.6,3.2-1,4.8-1.4c6.1-1.6,12-2.2,17.8,1
		C855.2,648.3,856,648.6,857,649z"/>
	<path class="st1" d="M852,278.7c-2.6,0.5-4.6,1.3-6.7,1.3c-6.2,0.3-12.3-0.6-17.6-4.3c-0.5-0.3-1.4-0.5-1.9-0.2
		c-2.1,1.4-3.8,7.5-3,10.2c3.8,11.7,16.2,14.6,25.4,12.2c5-1.3,8.3-7.8,7.5-11.2C854.7,283.7,853.1,281.1,852,278.7z"/>
	<path class="st1" d="M850.4,764.5c-0.2,0-0.8,0-1.3,0c-8.3-0.3-14.6,7.4-14.4,15c0.2,3.7,2.4,5.3,6.1,4.3c2.7-0.6,5.4-1.1,8.2-1.4
		c4.8-0.5,9.3,0.3,13.6,2.7c0.8,0.5,1.8,1,2.9-0.2c2.9-3,3.2-9.6,0.8-13C862.2,766.7,857.3,764.2,850.4,764.5z"/>
	<path class="st1" d="M204.3,860.6c3-0.2,5.3-1,7.4-3.2c4-4.5,5.1-9.9,6.1-15.7c0.2-1.1,0-2.2-0.2-3.4c-1.3-7.5-13-12-19.4-7.8
		c-1.6,1.1-1.9,1.9-1.3,3.7c0.8,2.1,1.6,4.3,1.9,6.6c0.6,5-0.8,9.6-3.2,13.9c-1.3,2.1-0.6,3.4,1.8,4.2
		C199.5,859.5,201.9,860,204.3,860.6z"/>
	<path class="st1" d="M560,824.6c0.5,1.9,0.8,3.8,1.3,5.8c1,2.9,3.7,4.8,6.1,4.2c10.2-2.4,17-8.2,16.6-20c-0.2-6.1-7.5-10.4-12-8.3
		C565.1,809.4,560.5,815,560,824.6z"/>
	<path class="st1" d="M765.9,146.9c-0.6,4.2,1.3,7.5,4.8,10.1c4.3,3,12.5,2.1,16.2-1.9c1.1-1.3,1.6-2.4,0.5-4.2
		c-1-1.6-1.6-3.8-1.6-5.8c0.2-3,1.1-6.2,1.9-9.1c0.5-1.6,0.6-2.6-1.1-3.2c-2.4-0.8-4.8-2.1-7.4-2.2c-4.2-0.5-8,0.3-10.4,4.5
		C766.7,138.6,765.8,142.4,765.9,146.9z"/>
	<path class="st1" d="M822.4,731.5c7.8,0.6,12.2-6.1,11.8-11.8c-0.5-9.1-5-12.6-13.3-13.1c-6.6-0.3-12.5,4.8-12.3,10.6
		C808.8,723.8,815.4,732,822.4,731.5z"/>
	<path class="st1" d="M810.1,855.7c-0.3-1.9-1-3.7-1.1-5.4c-0.6-7.5,2.6-13.8,7.5-19c2.1-2.2,1.6-4.5-1.1-5.8
		c-3.7-1.4-10.6-0.2-13.4,2.4c-6.2,5.4-8.5,12.3-7.8,20.3c0.3,5.4,7.7,12.2,14.1,8.5C808.8,856.3,809.4,856,810.1,855.7z"/>
	<path class="st1" d="M148.3,839.7c2.2,0.2,4.6-1.9,7.8-6.1c3.4-4.5,2.9-8.8-1.4-12.3c-4.2-3.4-8.8-5.6-14.4-5.6
		c-3.8,0-6.1,2.4-7.7,5.1c-1.8,2.9-2.2,6.1,0,9.1c0.6,1,1.3,2.1,1.9,2.9C137.4,836.8,141.3,839.4,148.3,839.7z"/>
	<path class="st1" d="M746.2,857.6c-0.2-0.6-0.5-1.4-0.5-2.1c-0.5-6.2,0.8-12,5.3-16.6c1.8-1.9,1.4-3.7-0.8-4.6
		c-4.2-1.6-8.5-1.9-12.6-0.3c-2.9,1.1-5.4,3.4-7.8,5.6c-6.9,6.1-2.4,17.6,4.8,20C738.9,860.8,742.4,859.7,746.2,857.6z"/>
	<path class="st1" d="M147,510.9c-5.4,0-8.5,1.9-10.4,6.9c-1.6,4-0.6,7.7,2.1,11c5.6,7.2,11.4,8.6,18.7,4.3
		c3.7-2.2,5.3-6.1,3.7-10.2c-1-2.2-2.6-4.3-3.7-6.6C155,512.3,151.4,510.9,147,510.9z"/>
	<path class="st1" d="M189.4,583c9.4,1.3,15.5-11.5,11.2-18.2c-1.1-1.6-1.9-2.9-3.7-1c-0.3,0.3-1,0.6-1.4,0.8
		c-6.1,1.6-11.4-0.2-15.7-4.3c-3-2.7-3-2.9-5.3,0.3c-2.1,3-2.9,6.1-1.8,9.8c1.3,4,3.7,6.6,7,9C182.7,581.4,185.8,583.2,189.4,583z"
		/>
	<path class="st1" d="M248.6,117.1c-5.9,0.3-10.4,3.4-13.4,8c-2.2,3.5-3.5,7.8-2.2,11.8c2.2,7.2,10.7,11.5,18.4,7.8
		c1.3-0.6,1.9-1.1,1.3-2.9c-2.2-6.4-0.8-12.5,2.1-18.4c1.6-3.4,1.3-4.2-2.1-5.6C251.2,117.6,249.9,117.4,248.6,117.1z"/>
	<path class="st1" d="M632.2,860c1.8-0.3,4-0.3,5.6-1.3c2.6-1.8,5.8-3.7,6.9-6.2c2.2-4.8,2.6-10.1-0.3-15.4
		c-3.2-6.1-10.9-7.4-15.7-5.6c-2.1,0.8-2.9,2.4-2.1,4.2c2.9,5.9,2.1,11.7-0.8,17.3c-2.2,4.3-1.9,4.5,2.7,6.4
		C629.4,859.7,630.7,859.8,632.2,860z"/>
	<path class="st1" d="M851.4,133.4c-0.3-1.6-0.5-3.7-1.1-5.4c-1.6-4.5-6.1-6.9-10.2-4.5c-2.9,1.6-5.3,4.2-7.2,6.7
		c-2.7,3.7-3.2,8-2.7,12.6c0.3,3.8,2.1,6.4,5.3,8.3c2.9,1.8,5.3,0.6,7.7-1.1C848,145.6,850.7,140.3,851.4,133.4z"/>
	<path class="st1" d="M412.8,805.1c0.3-7.2-6.7-11.4-11-10.4c-5.6,1.3-9.9,5-11.5,10.2c-1.1,3.5-0.2,8,0.5,11.8
		c0.2,1.3,2.1,2.9,3.4,3c4.5,0.8,9,0.2,12.8-2.4C411.2,814.6,412.3,809.9,412.8,805.1z"/>
	<path class="st1" d="M660.8,140.3c0.8-0.2,1.8-0.3,2.6-0.6c3-1.1,4.2-3,3.4-6.1c-1-4-0.2-7.7,1.8-11.2c2.7-5.3,2.7-5.4-2.7-8.2
		c-0.5-0.3-1-0.5-1.4-0.6c-3.7-1.6-7.2-1.3-10.6,1.3c-4.2,3.2-6.4,7.5-6.4,12.8c0,5.4,1.4,10.2,7.8,11.8
		C657,139.8,658.7,140,660.8,140.3z"/>
	<path class="st1" d="M293.1,838.6c1.3,0,2.6,0.3,3.5-0.2c1-0.3,2.2-1.4,2.2-2.1c-0.3-7.4,4.5-11.8,9-16.3c1.8-1.9,2.1-3.2,0.2-5.1
		c-3.7-3.4-10.9-4.8-15-2.2c-5.9,3.7-9.4,9-9.3,16.2C283.5,835.7,286.2,838.6,293.1,838.6z"/>
	<path class="st1" d="M142.1,461.8c0.5,3.4,1.3,5.1,3.5,7.4c1,1,2.1,1.8,3,2.6c5,5,11,4.6,17,1.4c4.2-2.2,5.6-6.4,7.4-10.2
		c1.3-2.6,0.3-5.6-1.4-8c-0.8-1.1-1.6-1.4-2.9-0.3c-1.8,1.4-3.7,3-5.9,3.5c-5.9,1.3-11.7,1.3-16.3-3.7c-1-1-1.8-0.8-2.1,0.3
		C143.5,457.1,142.9,459.4,142.1,461.8z"/>
	<path class="st1" d="M884.8,193.6c-0.5-1.8-1-3.7-1.3-5.4c-0.3-1.3-1-1.6-2.2-1.6c-7.2,0.6-13.1-2.9-18.9-6.4c-1-0.6-1.4-2.7-3-1.4
		c-1,0.8-1.4,2.2-1.9,3.5c-0.3,0.8-0.5,1.8-0.5,2.7c-0.5,10.1,6.1,16.3,14.2,18.4C877.6,204.8,885.1,201.4,884.8,193.6z"/>
	<path class="st1" d="M138.6,757.4c-1,2.2-2.2,4.3-2.6,6.6c-0.8,5.9,2.1,10.2,6.9,13.4c4.6,3,9.4,3.8,14.2,0.6c7-4.6,8.5-8.6,4.8-16
		c-0.8-1.8-1.9-2.9-4.5-1.8c-3.8,1.6-8,2.1-12,0.3C143.4,759.7,141.3,758.7,138.6,757.4z"/>
	<path class="st1" d="M872.6,290.4c-1.3,0.3-2.7,0.5-3.8,0.8c-3.7,1.1-4.3,4.6-5.6,7.7c-0.3,0.8-0.2,1.6-0.2,2.4
		c0.5,5.8,4.5,9.1,9,11.7c6.2,3.7,11.4,2.4,13.6-4c2.6-7.2,3.2-10.1-2.1-14.9C880.5,291.5,876.8,290.6,872.6,290.4z"/>
	<path class="st1" d="M358.9,125c-0.3-0.3-1-0.8-1.6-1.3c-3.2-3-7.5-3.5-11.5-1.6c-4.8,2.4-7.5,6.6-9,11.7
		c-1.3,4.5-0.5,8.5,3.4,11.5c1.6,1.3,3.2,2.4,4.8,3.4c2.6,1.8,8.6,0.5,10.1-2.2c0.5-0.8,0.3-2.2-0.2-3c-1.4-2.7-1.3-5.6-0.3-8.3
		C355.7,131.7,357.3,128.6,358.9,125z"/>
	<path class="st1" d="M750.1,808.5c-0.2,6.9,4.8,12,10.7,12.2c6.2,0.2,13-6.6,13-12.3c0-6.9-5-10.4-11.5-10.7
		C755.4,797,749.3,803.4,750.1,808.5z"/>
	<path class="st1" d="M849.1,717.4c0.2,1.3,0.2,2.4,0.5,3.7c1.8,6.6,7.8,9.8,13.6,10.4c1.6,0.2,3.7-0.8,5.1-1.8
		c4-3,3.5-7.4,2.7-11.7c-1.3-7.4-9.9-12.6-17.4-9.6c-1.8,0.8-3.4,1.9-3.8,3.8C849.4,713.9,849.3,715.7,849.1,717.4z"/>
	<path class="st1" d="M493,130.1c0-1,0.2-1.8,0-2.7c-0.5-3.2-1.6-5.8-4.8-7c-4-1.4-7.7-0.5-11.2,1.1c-0.5,0.2-1,1.3-0.8,1.6
		c1.4,4,1.3,8-0.2,11.8c-1.3,3.7-2.6,7.5-4.5,10.9c-1,1.9-0.8,2.4,0.8,3.2c3.7,1.8,7.2,1,10.4-1C489.6,144.3,493.3,138.2,493,130.1z
		"/>
	<path class="st1" d="M581.6,119c-1.8,0.5-3.7,0.5-5.1,1.4c-6.6,4.3-9,11-8.8,18.4c0.2,6.1,9,13.4,16.6,7.7c1.6-1.3,1.9-2.2,1-3.8
		c-1.8-3-1.9-6.2-0.8-9.4c1.1-3,2.9-5.8,4.2-8.6c0.3-0.6,0.3-1.9-0.2-2.4C586.7,120.3,584.5,119,581.6,119z"/>
	<path class="st1" d="M171,344.2c0.2,1.3,0.2,2.6,0.6,3.7c1.6,5.4,5.9,8,10.7,9.9c3.2,1.3,6.6,0.6,9.8-0.6c2.7-1.1,2.9-3.7,3.4-6.1
		c0.2-1.3,1.1-2.7,0.6-3.5c-2.4-4.8-4.8-9.3-10.2-11.5C179.4,333.3,169.6,336.5,171,344.2z"/>
	<path class="st1" d="M393.3,170.9c-0.2,4.2,1,7.7,4.3,9.8c3.5,2.1,7.4,4.3,11.4,1.3c1.6-1.1,3.2-1.9,2.7-4.8
		c-0.8-4.2-0.5-8.5,1.8-12.3c1.4-2.6,1.1-4.2-1.3-5.8c-2.9-1.9-5.8-3.5-9.3-2.4C397.3,158.6,393,163.8,393.3,170.9z"/>
	<path class="st1" d="M176,148.8c0.8-2.6-0.8-4.8-2.4-6.9c-0.8-1-1.4-1.4-2.9-0.8c-5,2.1-9.9,1.9-14.9-0.5c-1.1-0.6-2.2-0.6-3,0.6
		c-1.1,1.9-2.4,3.7-3.2,5.8c-1.3,3,0.5,8,3.2,9.9c3.5,2.6,7.5,3.7,11.8,3.5C171.2,160.5,176,155.8,176,148.8z"/>
	<path class="st1" d="M133,578.6c0.5,1.8,0.8,3.7,1.8,5.3c2.7,4.3,6.9,6.9,11.7,7.7c7,1.3,12.6-2.7,14.1-9.8c0.2-0.6,0.2-1.3,0-1.9
		c-0.6-1.9-1.6-3.8-2.4-5.6c-0.5-1.1-1.3-1.6-2.6-1.1c-5.8,2.1-10.9,1.1-15.4-3c-0.5-0.3-1.6-0.5-2.1-0.2
		C135,572,132.6,574.6,133,578.6z"/>
	<path class="st1" d="M653.9,792.3c-1.4,0.3-2.9,0.5-4.2,1c-3.7,1.6-6.2,4.8-7.7,8.3c-0.8,2.2-1.3,5.1-0.8,7.4
		c1.3,5.4,4.8,7.2,10.9,6.7c8.3-0.6,12.2-6.6,11.4-13.8C663.2,797,660.6,792.2,653.9,792.3z"/>
	<path class="st1" d="M834.4,699.4c-0.2-0.6-0.2-2.2-1-3.2c-1.6-2.1-3.4-4.2-5.6-5.4c-3.2-1.9-6.6-4.3-10.6-2.9
		c-6.4,2.2-12.3,8.2-10.1,16.6c1,3.4,2.7,4.2,5.8,2.4c4.6-2.7,9.8-2.7,14.7-1c4.6,1.6,4.3,2.1,6.4-3
		C834.4,702.1,834.2,701,834.4,699.4z"/>
	<path class="st1" d="M150.1,571.8c6.1,0,8-1.9,9.6-7.4c1.1-3.7-1.3-6.4-2.4-9c-2.2-5-7.5-6.1-12.5-6.9c-5.8-1-10.6,4.5-8.3,9.9
		c0.8,2.1,1.4,4.3,2.6,6.2C141.4,569.1,144.8,572.3,150.1,571.8z"/>
	<path class="st1" d="M162.6,689.6c2.4-3.5,2.2-7.2,1.6-10.9c-1-4.5-4.5-7.5-8-10.1c-2.9-2.2-6.2-3.7-10.1-3.4
		c-6.1,0.5-10.9,6.2-8.8,11.7c0.5,1.4,1.1,2.7,1.6,4.2c0.5,1.4,1.4,1.9,2.7,1.6c4.5-1.1,8.6-0.3,12.6,1.8
		C157,685.9,159.5,687.7,162.6,689.6z"/>
	<path class="st1" d="M209.9,158.1c0-0.5,0-0.8,0-1.3c-1-7.4-4.2-9.9-10.9-8c-6.6,1.9-10.1,6.7-11.8,13c-0.8,3.2,1.8,7.8,4.6,9.8
		c3.2,1.9,5.9,0.2,9-0.3c1.3-0.2,2.9-0.6,3.8-1.4C208.2,166.7,209.9,162.9,209.9,158.1z"/>
	<path class="st1" d="M601.9,819.2c0.3-5.1-2.4-8.6-5.9-11.7c-2.7-2.4-5.8-3.4-9.4-1.6c-2.2,1.1-2.6,2.2-1.8,4.2
		c2.9,6.2,0.8,12-2.4,17.4c-1.3,2.1-1.1,3,1.1,4.3c0.6,0.3,1.4,0.6,2.1,1.1c2.4,2.2,5.4,1.4,7.4,0.2
		C598.1,829.9,601.8,825.4,601.9,819.2z"/>
	<path class="st1" d="M525.1,823.8c1,0.6,1.6,1.3,2.4,1.8c4.3,2.4,9.4,1.8,13-1.9c4.3-4.2,5.9-9.1,4.2-15c-1.1-4-5-5.3-8-7.4
		c-2.7-1.9-5.4-1-8,0.3c-1.4,0.8-2.4,2.1-1.4,4.2c1.4,3.2,2.1,6.7,1,10.1C527.4,818.6,526.2,821.1,525.1,823.8z"/>
	<path class="st1" d="M836.3,485.6c-1,0.5-2.6,1-4,1.6c-6.1,2.2-9.1,9-6.7,14.9c0.5,1.3,1.4,3.2,3.2,2.2c6.2-3,11.8-2.1,17.3,2.1
		c0.5,0.3,1.6,0.3,1.9,0c2.2-2.2,3-5,2.9-8.3c-0.2-4-2.6-6.4-5.3-8.5C843,487.7,840.3,485.9,836.3,485.6z"/>
	<path class="st1" d="M879.4,589.9c-0.3-1.1-0.8-3-1.6-5c-1.8-4.3-6.9-6.7-11.4-5.4c-5.1,1.4-6.4,5.9-8.5,9.8
		c-0.3,0.6-0.5,1.6-0.3,2.2c1,2.2,2.1,4.6,3.4,6.7c1.9,2.9,7.8,5,10.7,4C876.6,600.8,878.9,596.8,879.4,589.9z"/>
	<path class="st1" d="M169.1,196.2c2.6-1.1,4.3-5.3,3.8-8.2c-0.8-4.8-3.4-7.8-7.4-10.4c-5.4-3.4-11.8-3-17.1,0.6
		c-1.9,1.3-2.7,2.9-2.4,5c0.3,2.7,1,5.3,1.4,8.3C155.7,189.9,162.9,191,169.1,196.2z"/>
	<path class="st1" d="M835,593.1c5,0,8.8-3,9.3-7.7c0.5-5.8-3.4-12.2-9.3-14.7c-3.4-1.4-7.4-0.8-9.1,1.8c-2.1,2.7-3.2,6.9-3,10.4
		C823,588.2,829.8,593.1,835,593.1z"/>
	<path class="st1" d="M740.6,135.5c0.6,0.6,1.3,1.6,2.1,1.6c4,0.3,8.2,0.3,11.7-2.1c3.4-2.4,5.4-6.1,6.6-10.1
		c1.4-5-1.6-11.2-6.1-12.3c-5-1.3-9.8-1.3-13.9,3C746.1,122.2,745.6,128.8,740.6,135.5z"/>
	<path class="st1" d="M877.4,332.8c4.5,0,9-6.2,7.5-10.4c-0.6-1.8-1.4-3.5-2.4-5.1c-0.3-0.5-1.1-0.8-1.8-0.8c-1.9-0.3-4-0.2-5.9-0.5
		c-4-0.6-6.9-3.4-9.9-5.9c-1.4-1.3-2.9-1-3.5,0.8c-1.3,3.4-1.1,7-0.2,10.4C863.5,329.3,869.4,332.2,877.4,332.8z"/>
	<path class="st1" d="M184.3,414.2c-0.6-1.4-1.1-4.6-2.9-6.4c-4.5-4.6-11.7-4.8-17.1-1.1c-3,2.1-4.2,6.1-2.2,9
		c1.4,2.1,2.9,4.2,4.8,5.9c3.4,3,7.4,4.5,12,3.2C181.9,423.8,184.2,420.2,184.3,414.2z"/>
	<path class="st1" d="M193.8,358.7c-1.3,0.5-2.4,0.8-3.7,1.3c-5.4,1.6-10.1-0.3-14.6-3c-0.6-0.3-1.6-0.6-2.1-0.3
		c-4.2,2.7-6.6,10.4-1.8,14.2c2.9,2.2,5.4,4.3,9.1,4.3c2.9,0,5.9-0.2,8.8-0.6c3.4-0.5,4.5-3.4,5.8-6.1
		C197.4,365,196.8,360.6,193.8,358.7z"/>
	<path class="st1" d="M831.8,445.3c6.7-2.4,12.8-1.1,18.9,1.4c0.6,0.3,2.1,0.3,2.2,0c1.8-3,3-6.6,2.1-9.9c-1.1-3.8-4.6-5.6-8.2-7.5
		c-6.1-3.2-15.5,1.1-16.8,5.9C829.1,439,828.5,443.2,831.8,445.3z"/>
	<path class="st1" d="M776.2,807.4c0,3.7-1.8,6.2-3.7,8.8c-0.3,0.5-0.6,1.4-0.5,1.9c1.8,3.5,8,5.8,11.5,4c1.8-1,3.4-2.4,5-3.8
		c4.3-4.2,4.3-10.9,1-14.9c-4.2-5.1-7.8-6.9-14.1-4.3c-1.4,0.6-1.8,1.4-1.1,2.9C775,803.7,775.5,805.6,776.2,807.4z"/>
	<path class="st1" d="M467.7,857.9c7,0,12.3-4.8,12.3-10.7c0-3.4-1.9-5.9-3.8-8.5c-2.6-3.5-6.6-1.1-9.9-2.4c-2.4-1-8,7.2-8,11.2
		C458.2,853.1,462.4,857.9,467.7,857.9z"/>
	<path class="st1" d="M162.6,814.4c-0.8-2.9-1.4-5.4-2.2-7.8c-1.4-4.3-7-8.3-11.7-8.2c-6.7,0.2-10.9,5.3-9.9,11.8
		c0.3,1.8,0.8,3.2,3,3.5c5.9,0.8,11,3,15.2,7.5c1,1.1,2.2,1,2.9-0.3C161,818.7,161.8,816.5,162.6,814.4z"/>
	<path class="st1" d="M410.7,817.8c5.4,4,7.5,3,13.1,1.1c3.7-1.3,4.3-4.6,5.4-7.5c3.4-8.5-0.8-16.3-10.6-15.8
		c-4,0.2-5.3,2.2-4.6,5.9c0.5,2.7,0.5,5.6,0,8.2C413.6,812.3,412,814.9,410.7,817.8z"/>
	<path class="st1" d="M866.7,135.7c0-0.5,0-0.8,0-1.3c0-5-5-8.6-9.6-7.2c-1.1,0.3-2.2,1-3.4,1.1c-1.4,0.2-1.6,1-1.6,2.2
		c0,2.4,0,4.8-0.3,7.2c-0.6,4.2-3,7.4-5.4,10.6c-1.4,2.1-0.8,3.7,1.6,4.3c3.8,1,7.2,1,10.6-1.9C863.2,146.7,866.6,142.1,866.7,135.7
		z"/>
	<path class="st1" d="M637.1,152c0.3,1.8,0.8,3.5,1,5.4c0.3,4.2-1.4,7.8-3.4,11.4c-1.4,2.6-1.3,3.4,1.3,4.6
		c3.7,1.8,7.4,1.3,10.9-0.8c4.6-2.7,8.2-9.6,6.7-16c-1-4.2-5.8-7.2-9.8-6.2C641.8,151,639.7,151.5,637.1,152z"/>
	<path class="st1" d="M485.9,815.5c-1.8-3.2-3.2-6.6-5.1-9.4c-0.8-1.1-3-1.4-4.6-1.8c-4.3-1.3-6.7-0.6-9,2.4c-3.2,4.5-2.9,12,1,15.8
		c2.2,2.1,5,3.7,8.2,1.9c2.6-1.4,5.1-3,7.4-5C484.6,818.7,485,817.1,485.9,815.5z"/>
	<path class="st1" d="M880.2,508.3c0.2-4.8-5.6-10.9-10.1-10.9c-3.8,0-7,1.9-9.3,4.5c-1.4,1.6-1.4,4.3-1.8,6.7
		c-0.3,3.5,5.8,9,9.9,9.1C874.4,517.9,880.2,513.1,880.2,508.3z"/>
	<path class="st1" d="M881.6,273.9c1.3-0.5,3.7-1.1,5.9-2.1c2.1-1,4.2-4.8,3.7-6.4c-1.9-6.1-4.8-10.9-12.5-11.2
		c-3.4-0.2-7.2,2.9-8.3,6.1c-1.1,3.4,0.6,5.8,1.9,8.6C873.9,272.5,876.8,273.6,881.6,273.9z"/>
	<path class="st1" d="M553,847.4c0-4.5-2.7-7.4-7.2-8.5c-5.9-1.4-9.1,1-11.4,5.8c-3.7,8,1.4,14.6,9,14.6
		C547.8,859.4,553.4,853.3,553,847.4z"/>
	<path class="st1" d="M540.2,162.4c0.2-7.2-4.6-9.4-9.1-8.5c-5.6,1.1-9.9,4.8-10.7,11c-0.5,3.8,0.6,6.4,4.2,8
		c1.8,0.8,3.8,1.3,5.8,1.9c0.3,0.2,1,0,1.3-0.2C537,172.6,540.2,168,540.2,162.4z"/>
	<path class="st1" d="M159.4,514.6c3.2-2.9,3.5-8.6,0.8-13c-2.6-4-6.2-6.6-10.9-7.2c-2.9-0.3-5.9-0.5-8.3,1.8
		c-3.5,3.4-4,7.2-1.9,11.8c0.6,1.4,1.3,1.9,3,1.3c3.4-1.3,6.9-1.3,10.1,0.2C154.7,510.9,156.8,512.8,159.4,514.6z"/>
	<path class="st1" d="M211.8,175.2c7-0.2,13-4.6,14.2-11.7c0.8-3.7,0.3-7.4-2.6-10.2c-2.7-2.7-6.1-2.2-9.4-0.8
		c-3.2,1.4-3.2,1.3-2.6,5c0.2,0.6-0.2,1.4-0.2,2.1c-0.5,4.2-2.4,7.8-5,11c-1.4,1.9-0.6,3,1.1,3.7C209,174.9,210.4,174.9,211.8,175.2
		z"/>
	<path class="st1" d="M224,814.4c0,4.6,1.8,7,6.1,8.5c5.1,1.8,11.2-0.3,14.1-4.8c0.8-1.3,1.3-3.2,1.1-4.8c-0.8-5.9-5.4-9.4-11-8.6
		C228.8,805.3,223.2,808.3,224,814.4z"/>
	<path class="st1" d="M640.5,813.8c-2.9-5.9-1.1-11.4,2.1-16.6c1.6-2.7,1.3-3.2-1.8-4.3c-2.9-1.1-5.6,0-8.2,1
		c-8,2.4-9.8,10.7-6.9,17C627.8,814.6,633.9,817,640.5,813.8z"/>
	<path class="st1" d="M433.1,834.9c-1.1,0.3-2.4,0.3-3.4,1c-3.4,2.1-6.2,5-7.7,8.6c-2.1,5.3,1.8,11,8.5,10.1c3.4-0.5,5.8-1.9,7.8-4
		c3.2-3,4.8-5.3,3.2-9.3C440,837.8,436.6,835.2,433.1,834.9z"/>
	<path class="st1" d="M846.6,567.2c-0.6-4.3-1.6-7.5-4.2-9.6c-4.3-3.5-10.4-3.4-15.2-0.2c-4.6,3-5.4,4.6-4.5,9
		c0.6,3,1.8,3.5,4.6,2.7c2.2-0.6,4.8-1,7-0.5c2.4,0.5,4.3,2.4,6.6,3.4c0.8,0.3,2.2,0.6,2.4,0.3C844.8,570.6,845.8,568.5,846.6,567.2
		z"/>
	<path class="st1" d="M265.8,845c-0.3-1.1-0.3-2.7-1.1-3.5c-2.4-1.9-3.5-5.9-7.8-5c-1.4,0.3-3-0.2-4.2,0.6c-4.3,2.9-7.2,7-6.4,12.6
		c0.3,3.2,5,6.7,7.8,5.6c2.9-1.1,5.8-2.6,8.3-4.3C264.3,849.6,266.2,847.8,265.8,845z"/>
	<path class="st1" d="M497,845.1c0-3.8-1.8-6.6-5.3-8.3c-4.2-2.1-8.2-2.4-12,0.3c-0.5,0.3-0.6,1.9-0.2,2.4c3,4,2.9,8.3,1.3,12.8
		c-0.3,0.6-0.3,2.1-0.2,2.2c2.2,0.8,4.8,2.4,7,2.1C492.6,856.2,497,850.4,497,845.1z"/>
	<path class="st1" d="M849.6,726.7c-0.6,1.9-1.6,3.5-1.9,5.1c-1,4.6,1.4,8.2,4.8,11c4.5,3.8,9.3,4.2,13.9,1.1
		c3.4-2.2,5-7.5,3.5-10.6c-0.6-1.3-1.3-1.6-2.7-1.1c-1.8,0.6-3.8,1-5.6,0.6C857.3,732.5,853.6,729.9,849.6,726.7z"/>
	<path class="st1" d="M506.6,171c-0.8-1.3-1.4-3.4-2.6-3.8c-2.2-0.8-4.6-1.1-7-1.1c-4.2,0-6.6,3.4-9,6.1c-2.1,2.2-2.2,6.7-0.8,9
		c1.4,2.2,5.9,4.2,8.3,3.5C500.5,183.4,506.2,176.6,506.6,171z"/>
	<path class="st1" d="M169.8,601.4c-5.1-0.5-8.5,3.7-8.3,7.7c0.3,5.1,3.8,10.2,8.5,12.2c3.4,1.3,6.9-0.3,8-3.8
		c0.5-1.3,0.6-2.7,1-4.2C180.3,607.5,175.5,601.4,169.8,601.4z"/>
	<path class="st1" d="M457.9,822.6c1.6-0.3,3.7-0.6,5.4-1.1c0.3-0.2,1-1.3,0.6-1.8c-1.8-4.2-1.4-8.3,0.3-12.5c1.1-2.4,0.3-4-2.2-5
		c-4.3-1.6-8.3-0.5-11.8,4c-2.7,3.5-2.7,7.5-1,11.5C451,821.3,454.1,822.4,457.9,822.6z"/>
	<path class="st1" d="M840.2,225.8c5.3,0.5,7-3,7.5-8.2c0.5-5-5.3-9.9-10.1-10.2c-4.6-0.3-8.3,3.8-8.3,9
		C829.4,220.8,835,225.8,840.2,225.8z"/>
	<path class="st1" d="M875.2,603.5c-1.1,0.3-2.1,0.5-2.9,0.6c-1.3,0.2-2.6,0.6-3.7,0.3c-3.7-1.3-7.4-2.6-9.4-6.2
		c-0.3-0.6-1.1-1-1.6-1.4c-0.5,0.6-1.1,1.3-1.4,1.9c-2.7,6.6,1,15.2,8.5,17.8c3,1,5.9,1.1,8.6-1.3c2.9-2.6,4-5.3,2.4-9
		C875.2,605.8,875.4,604.8,875.2,603.5z"/>
	<path class="st1" d="M874.4,238.9c-0.3,0-1.3,0.5-2.2,0.5c-3.5,0.2-7,3.8-7.8,7.8c-0.6,2.9,1.4,6.7,4.5,8.5
		c0.5,0.3,1.6,0.5,1.9,0.2c3-2.4,6.4-3.2,10.2-2.9c2.4,0.2,4-1.6,4-4.2C885,243.5,880.3,238.9,874.4,238.9z"/>
	<path class="st1" d="M878.7,422.9c0-2.9-1.8-6.7-4-9.1c-3-3.4-9.3-2.9-10.9,1.8c-1,2.7-1.6,5.1-1.4,8.2c0.3,3.5,3.8,8.2,7.5,8.5
		C874.7,432.2,878.7,428.2,878.7,422.9z"/>
	<path class="st1" d="M525.1,854.6c1.4-0.5,3.5-1.1,5.6-1.9c0.3-0.2,0.6-1,0.6-1.3c-0.6-3.7,0.6-6.9,2.7-9.6
		c1.1-1.6,0.8-2.4-0.6-3.2c-4.2-2.4-8.5-2.4-12.8-0.3c-2.7,1.3-5.4,6.1-5,8.3C516.8,851.8,519.8,854.2,525.1,854.6z"/>
	<path class="st1" d="M186.9,810.9c5.3,0.8,8.6-4,8-8.3c-0.2-1.3-0.6-2.4-1-3.7c-0.8-3.7-6.7-7.4-10.4-6.4c-4.5,1.1-7.7,5-6.1,9.9
		C179.2,807.5,181.4,811.4,186.9,810.9z"/>
	<path class="st1" d="M189.6,123c0.5,4.8,4.6,9,8.5,7.8c3.5-1,6.4-3,7.7-6.7c2.1-6.1-1.4-11.4-8.2-11.5
		C193.6,112.5,189.1,118.2,189.6,123z"/>
	<path class="st1" d="M320.8,176.5c1.6,0,4.8-0.6,6.9-3.4c3.5-4.3,3.4-11.7-3.4-13.4c-3.4-0.8-6.4,0.6-9.1,2.2
		c-2.7,1.6-4.5,6.4-3.5,9.4C312.5,174.2,315.7,176.5,320.8,176.5z"/>
	<path class="st1" d="M539.4,122.2c-4.5,0-9.6,3.8-11,8c-1.1,3.5,1.4,9,4.6,8.8c4.8-0.2,9.4-0.8,12.3-5.6c1.4-2.4,2.1-5,0.8-7.4
		C544.8,123.5,542.6,121.9,539.4,122.2z"/>
	<path class="st1" d="M849.3,321.1c0-3.8-2.4-6.6-5.3-8.6c-4.6-3.4-11.8-0.5-13.1,5.1c-0.2,0.5,0.2,1.3,0.3,1.8c1.1,3.7,4,5.6,7,7.7
		c2.9,1.9,5.4,1.3,8,0C848.6,325.9,849.4,323.7,849.3,321.1z"/>
	<path class="st1" d="M844.6,227c-4.3,1.3-8,0.6-11.4-1.9c-2.2-1.6-4.5-0.6-5.3,1.9c-1.8,5.8,2.7,13.1,8.8,14.1
		c5.8,1,11.4-2.9,9.1-9.8C845.4,230.1,845.1,228.8,844.6,227z"/>
	<path class="st1" d="M866.6,843.4c0.5-2.1-0.5-4-2.2-5.4c-3.5-2.7-9.3-2.6-12.2,0.8c-4,4.6-5.6,6.9-0.5,11c2.9,2.4,6.6,3,10.1,1.6
		C865,850.1,866.9,847.4,866.6,843.4z"/>
	<path class="st1" d="M165.6,403c6.4-1.1,11.8-1.3,16.6,2.9c0.3,0.3,1.4,0.2,1.8-0.2c2.6-1.9,2.9-6.4,0.8-9.3
		c-3.8-5.4-9-7.4-15.4-5.6c-2.1,0.6-4.3,1.4-4.3,4.3C165.3,397.8,165.4,400.3,165.6,403z"/>
	<path class="st1" d="M878.7,439.5c-0.5-1.4-1.3-3.7-2.2-5.9c-0.2-0.3-1.1-0.6-1.4-0.5c-3.8,1.8-7.2,1.1-10.4-1.6
		c-0.3-0.3-1.8,0-1.9,0.5c-2.9,4.5-2.9,8.8,1.1,13.4c2.2,2.7,5.8,4.6,9.8,3C876.5,447.2,878.7,443.7,878.7,439.5z"/>
	<path class="st1" d="M845.6,329.8c-4.8,0.6-8.8-0.8-12.2-4.3c-0.5-0.5-2.1-0.6-2.4-0.2c-1.1,1.3-2.4,2.9-2.4,4.3
		c-0.3,5.6,1.3,8.6,6.7,11.7c1.8,1,4.5,1.8,6.2,1.1c4.5-1.6,8-5.8,4.8-10.7C845.9,331.2,845.9,330.6,845.6,329.8z"/>
	<path class="st1" d="M414.6,849.6c3.8,0,3.7-0.2,5.1-4.2c1.1-2.9,3-5.8,4.8-8.3c1.1-1.6,0.6-2.4-0.6-3.2c-4.6-3.4-11-2.6-14.6,1.8
		c-2.7,3.2-2.7,7-1,10.7C409.4,849,411.7,849.8,414.6,849.6z"/>
	<path class="st1" d="M147.2,628.8c-0.3-0.5-0.5-1.4-1.1-1.9c-1.3-1.3-2.7-2.4-4.3-3.4c-2.9-1.9-5.6-0.6-7.8,1c-2.2,1.6-3.7,4-2.6,7
		c0.6,1.8,1.1,3.7,2.1,5.1c1.8,2.6,4.2,5.3,7.7,4.8c3.5-0.5,5.1-3.5,5.9-6.6C147.5,633.1,147.2,631,147.2,628.8z"/>
	<path class="st1" d="M243.7,805.6c3,3.7,4.2,7.7,2.7,12c-0.6,1.8,0.2,2.4,1.4,2.9c1.6,0.6,3.2,1.1,5,1.6c0.5,0.2,1.3,0.2,1.6-0.2
		c4.2-2.7,7.2-9,4.8-14.2c-1.9-4.3-5.9-4.3-9.8-5C247,802.2,245.1,803.4,243.7,805.6z"/>
	<path class="st1" d="M184.2,721.9c-5.1,0-8.5,2.4-8,5.9c0.5,4.2,1.8,8.3,5.9,10.1c1.9,1,5.1,1,7,0c3.7-1.8,5-6.4,3.4-10.4
		C191,724.2,189.4,721.6,184.2,721.9z"/>
	<path class="st1" d="M471.2,175c0,3.7,4.8,8.5,8.6,8.5c2.4,0,5.1-2.2,5-4.2c-0.3-3.2,0.8-6.1,2.2-8.8c0.3-0.5,0.5-1.4,0.2-1.9
		c-1-2.1-5.3-4.2-7.4-3.7C475.2,165.8,471.4,170.4,471.2,175z"/>
	<path class="st1" d="M521.8,142.4c1.4-0.8,3.5-1.6,5.4-2.9c0.5-0.3,0.6-1.4,0.5-2.1c-1-3.2-1.6-6.2-0.2-9.4c1-2.2-0.3-3-1.9-3.5
		c-3.2-1.3-6.2-1-8.6,1.8c-1,1.1-1.8,2.4-2.7,3.5c-1.9,2.6-1.8,5.3-0.3,7.8C515.4,140.2,517.9,141.8,521.8,142.4z"/>
	<path class="st1" d="M877,497.6c0.2-2.6,0.3-4.8,0.3-6.9c-0.3-4.8-6.7-9.1-11.8-8.2c-5.4,1-8,9.6-5.3,14.2c0.8,1.6,1.8,1.8,3,0.8
		c3.5-2.7,7.2-2.7,11-1C874.7,497,875.5,497.1,877,497.6z"/>
	<path class="st1" d="M179.2,738.9c-3,2.2-1.6,5.6-1.4,8.2c0.3,4.8,6.9,9.1,12.3,7.5c4.2-1.3,7.5-6.7,3.7-12.3c-0.8-1.1-1.3-3-3-2.2
		C186.6,741.9,182.9,741.1,179.2,738.9z"/>
	<path class="st1" d="M161.4,325.4c-0.5-3.7-1.9-6.7-5.3-8.8c-3.4-2.2-6.7-1.1-9.1,2.4c-3.8,5.4-0.6,10.7,4.2,13.4
		c1.3,0.8,3.2,1,4.6,0.6C158.4,332.5,161.4,328,161.4,325.4z"/>
	<path class="st1" d="M304,177.9c2.1,0,5.8-2.4,6.4-4.2c0.2-0.3,0.2-0.8,0-1.1c-1.4-2.6-0.8-5,0.2-7.4c1-2.2,0-3.7-1.8-4.8
		c-1-0.6-2.4-1-3.5-1.1c-4.6-0.2-7,3-8.8,6.7C293.6,172.6,297.6,177.6,304,177.9z"/>
	<path class="st1" d="M553.3,165.4c0-0.5,0-1,0-1.4c-0.3-4.6-2.7-6.9-6.6-6.4c-2.7,0.3-4.6,1.4-4.5,3c0.3,4.2-1.3,7.7-3.5,11
		c-0.8,1.3-1.9,2.2-0.6,3.7c1.4,1.6,2.7,3.4,5.4,2.9C549.6,176.8,553.4,171.7,553.3,165.4z"/>
	<path class="st1" d="M243.7,850.4c0-0.2,0.2-0.5,0.2-0.8c0.3-4.5,1.8-8.5,4.5-12c1.4-1.8,0.5-2.6-1.1-3c-6.2-1.8-12.3,1-14.7,7.5
		c-1.1,3,0.3,6.1,2.6,8.5c1.6,1.6,3.5,1.1,5.4,0.5C241.3,850.9,242.4,850.7,243.7,850.4z"/>
	<path class="st1" d="M204,129.4c4.6,5.4,10.7,3.7,14.4-1.1c2.4-3.2,2.2-6.6-0.5-10.2c-2.1-2.7-4.3-3-8.3-2.1
		c-1.4,0.3-2.6,1.1-2.2,3C208,123,206.6,126.4,204,129.4z"/>
	<path class="st1" d="M300,146.4c6.4,0.2,9.6-5.9,9.1-10.9c-0.2-2.1-1.3-4-3.7-4.6c-4.6-1.3-10.7,2.2-11.7,7
		C292.6,143.4,296.2,146.9,300,146.4z"/>
	<path class="st1" d="M193.6,793.9c2.7-3.4,3.5-6.9,0.3-11.7c-3-4.3-7.7-6.2-13.1-4c-1.9,0.8-3.2,2.2-2.7,4.3
		c0.6,2.7,1.6,5.1,2.6,7.7c0.2,0.3,1,0.6,1.4,0.6C186.4,789.9,189.9,791.8,193.6,793.9z"/>
	<path class="st1" d="M184.8,309.1c3.4,0.2,7.5-4.2,7.2-7.4c-0.5-4.8-5.4-9-10.4-8.6c-3,0.2-6.7,3.7-6.6,6.1
		C175.2,303.8,180,308.8,184.8,309.1z"/>
	<path class="st1" d="M146.2,365.1c-2.2,3.2-2.4,4.5-1.9,6.9c0.8,4.8,4.5,6.2,8.3,7.7c1.6,0.6,3.4,0.6,4.6-0.6
		c1.6-1.6,3.5-3.4,4-5.3c0.5-1.8-0.5-4-1.4-5.8c-0.5-1.1-2.6-2.4-3.2-2.1C153,367.4,149.6,366.4,146.2,365.1z"/>
	<path class="st1" d="M712,166.1c4-0.3,9-2.9,9.8-8c0.5-2.2,0.3-4.5-1.8-6.1c-1.9-1.4-3.8-2.1-6.4-1.3c-4.5,1.3-6.6,4.6-7.8,8.8
		c-0.8,2.2,0.2,4.3,2.2,5.4C709.3,165.4,710.7,165.6,712,166.1z"/>
	<path class="st1" d="M871.8,852.5c4.6,0,9.4-5.4,8.8-9.9c-0.8-5.3-8.3-8-12-6.9c-1.1,0.3-2.2,1.3-1.4,2.6c2.2,3.4,1.3,6.6,0,9.9
		c-0.8,2.1,0.2,4,2.4,4.3C870.4,852.6,871.2,852.5,871.8,852.5z"/>
	<path class="st1" d="M419,130.6c0,3.7-0.5,7.2-3.2,9.9c-0.3,0.3-0.3,1-0.2,1.3c0.5,1.9,3.2,3.8,5.3,4c5,0.6,10.1-5.3,10.6-9.3
		c0.3-3.4-0.3-4.3-2.9-5.8C425.4,129.1,422.2,130.1,419,130.6z"/>
	<path class="st1" d="M165,620.8c-0.5,1.1-1.1,2.1-1.4,3.2c-0.5,2.2-1.4,4.5,0.3,6.6c2.4,3.2,7.5,5.6,12.5,3.7c3-1.1,4.3-3.7,5-6.4
		c0.5-2.4-0.6-4.6-2.7-6.4C173.8,625.3,169.4,622.9,165,620.8z"/>
	<path class="st1" d="M148.6,314.2c9.3-0.6,7.4,0.5,10.7,2.6c1.8,1.1,2.7,1.1,3.7-0.8c1.9-3.8,1-7.7-1.1-11c-1.9-3.4-5-3.8-8-2.7
		C148,304.2,146.4,307.5,148.6,314.2z"/>
	<path class="st1" d="M312.5,145.9c5.1,0.6,9.4-4.6,10.6-8.2c1-3-0.8-6.4-3.7-7.7c-2.7-1.3-5.1,0-7.7,0.8c-1.4,0.5-1.9,1.4-1.6,2.6
		c1.1,3.4,0,6.4-1.4,9.3c-1,1.8-0.3,2.7,1.6,3C311,146.1,311.8,145.9,312.5,145.9z"/>
	<path class="st1" d="M349.3,811.8c4.5,0,8.6-3.5,8.6-7c0-2.9-5-7.4-8.2-7.4c-3.7-0.2-8,3.5-7.8,6.9
		C342.2,808,345.9,812.3,349.3,811.8z"/>
	<path class="st1" d="M150.2,350.2c-5,0-6.9,2.1-6.2,7.2c0.5,4.3,3,6.1,6.7,7c3.2,0.8,6.7-1,8.5-3.2c0.5-0.6,0.8-1.8,0.6-2.7
		C159.4,354.2,154.7,350.2,150.2,350.2z"/>
	<path class="st1" d="M150.1,618.7c-0.2-0.8-0.5-1.8-0.8-2.9c-1.1-3.4-4.2-5.1-6.7-7.2c-2.4-1.9-6.6-1.1-8.2,1.6
		c-2.2,3.7,0.2,6.9,1,10.2c0,0.3,1.3,0.6,1.6,0.5c3-1.1,5.3,0.3,7.4,1.9c4,2.9,4,2.9,5.3-1.9C149.8,620.5,149.9,619.8,150.1,618.7z"
		/>
	<path class="st1" d="M704.6,164.5c-2.6-4.3,0.2-7.7,1.9-11.2c-2.7-3.2-8-3.5-11.7-0.6c-3.2,2.4-3.7,8.5-1.1,11.8
		C695,166.2,701.3,167.5,704.6,164.5z"/>
	<path class="st1" d="M417,133.4c0-3.8-2.4-6.1-6.1-5.9c-3.4,0.2-5.3,2.4-6.9,4.8c-1.3,1.8-2.4,3.8-0.5,5.9c1.9,2.2,3.8,4.5,7.4,3.7
		C414.2,141.4,417.1,137.6,417,133.4z"/>
	<path class="st1" d="M362.6,795.7c-1.3,0.3-2.7,0.5-3.8,0.8c-1.6,0.5-2.4,1.4-0.8,2.9c2.2,2.2,2.4,5.1,1.9,8
		c-0.2,0.5,0,1.6,0.2,1.6c1.9,0.2,4.2,1,5.9,0.3c2.7-1,4.6-5.3,3.7-7.8C368.3,798.1,367.4,795.8,362.6,795.7z"/>
	<path class="st1" d="M861.3,557.4c0,4.2,2.4,7.5,5.4,7.7c3.4,0.2,6.6-3.8,6.6-8.2c0-3.5-2.1-5.4-5.9-5.4
		C863.5,551.5,861.3,553.8,861.3,557.4z"/>
	<path class="st1" d="M179.7,310.1c-1.8,3.7-0.8,6.6,2.4,8.3c3.8,2.1,8.2,1.4,9.9-1.4c2.1-3.4,1.8-7.2-0.5-8.6
		c-1.9,1.3-3.7,2.4-5.6,3.7c1,1.1,3,2.6,0.6,4.5c-0.5,0.5-2.2,0-2.9-0.5c-1.9-1.4-1-3,0.5-4.5C182.7,311,181.3,310.6,179.7,310.1z"
		/>
	<path class="st1" d="M871.8,550.6c1.1-2.1,2.2-4.2,1.1-6.7c-1.1-2.4-3.4-2.9-5.6-2.6c-1.6,0.3-3.2,0.8-4.5,1.8
		c-2.6,1.8-3.4,4.3-2.4,7.2c0.2,0.5,1.6,1.1,1.8,0.8C865.3,549,868.5,549.1,871.8,550.6z"/>
	<path class="st1" d="M189.3,496.8c5.6,0.5,8.6-4.2,8.8-7.7c0.5-5.9-4.6-11.4-9.9-11.2c-5,0.2-8.3,3.4-8.3,7.5
		C180,491.5,183.4,497.4,189.3,496.8z"/>
	<path class="st1" d="M179.4,502.2c0,4.2,5.9,9.3,10.6,9.1c4-0.2,9-4.8,9.1-8.8c0.2-1.4-1-3.2-2.1-4.5c-0.3-0.5-2.1,0-3,0.3
		c-3.4,1.4-6.7,1.6-9.8-0.3c-1.8-1.1-2.9-0.3-3.7,1.1C179.8,500.2,179.7,501.6,179.4,502.2z"/>
</g>
<path d="M180.8,495.5c-1.9-2.9-2.7-6.1-3-9.6c-0.5-7.7,7.7-10.9,12.6-9.8c5.3,1.3,8,4.6,9.4,9.9c1,3.8-0.3,6.4-2.1,9.1
	c3.8,2.9,5.4,8.3-0.2,14.4c-4.8,5.3-10.2,5.1-16.2,0.5C177.1,506.9,175,500.8,180.8,495.5z M189.3,496.8c5.6,0.5,8.6-4.2,8.8-7.7
	c0.5-5.9-4.6-11.4-9.9-11.2c-5,0.2-8.3,3.4-8.3,7.5C180,491.5,183.4,497.4,189.3,496.8z M179.4,502.2c0,4.2,5.9,9.3,10.6,9.1
	c4-0.2,9-4.8,9.1-8.8c0.2-1.4-1-3.2-2.1-4.5c-0.3-0.5-2.1,0-3,0.3c-3.4,1.4-6.7,1.6-9.8-0.3c-1.8-1.1-2.9-0.3-3.7,1.1
	C179.8,500.2,179.7,501.6,179.4,502.2z"/>
<g>
	<path d="M844.5,803.2c1.3-1.1,1.9-2.2,2.7-2.2c1.6,0.2,2.9,1.4,2.4,3c-0.2,0.8-1.8,2.1-2.2,1.9
		C846.4,805.6,845.8,804.5,844.5,803.2z"/>
	<path d="M835.8,662.9c-1.8,0-4-2.1-3.8-3.8c0.2-1.9,1.6-2.6,3.4-2.6c2.2,0,4.2,1.6,4.2,3.5C839.5,661.6,837.8,662.9,835.8,662.9z"
		/>
	<path d="M850.7,363.8c0-2.7,0.3-3,3.4-3c2.6,0,5,1.9,5,4c0,1.8-2.2,3.2-4.8,3.2C852.2,368.2,850.7,366.2,850.7,363.8z"/>
	<path d="M685.1,820.6c-1,0.8-1.9,1.9-3,2.2c-0.5,0.2-1.9-1.3-2.1-2.1c0-0.8,1.1-2.2,1.8-2.4c1-0.2,2.1,0.8,3.2,1.3
		C685,820,685,820.3,685.1,820.6z"/>
	<path d="M170.6,249c1.3,0.2,1.9,0.2,2.4,0.3c1.3,0.5,2.9,1.3,2.4,2.9c-0.3,1.1-1,2.2-1.9,2.9c-1.3,1-2.6,0.2-3.5-1
		c-0.3-0.3-0.6-0.5-0.8-0.8c-0.3-1.1-1-2.2-0.8-3.2C168.5,249.3,170.1,249.1,170.6,249z"/>
	<path d="M181.9,841.3c0.5-1.9,2.7-4.2,4.2-4.2c1.8,0,2.7,1.1,2.9,2.9c0.2,1.4-2.7,3.7-4.5,3.4C183.5,843,182.7,841.9,181.9,841.3z"
		/>
	<path d="M357.4,850.9c0,2.1-1.6,3.7-3.7,3.7c-2.2,0-2.4-1.9-2.6-3.4s1.9-3.5,3.4-3.4C356.5,847.8,357.6,849.1,357.4,850.9z"/>
	<path d="M823.8,832.8c0.2,0.3,1.1,1.1,1.1,1.8c-0.2,1.4-1,2.9-2.9,2.6c-0.6-0.2-1.8-1-1.8-1.4C820.5,833.9,821.1,832.6,823.8,832.8
		z"/>
	<path d="M158.1,697.4c0,2.2-1.3,3.7-3.4,3.7c-1.8,0-3.4-1.9-3.4-3.8c0-1.8,1.9-3.4,3.7-3.4C156.6,693.9,158.1,695.7,158.1,697.4z"
		/>
	<path d="M470.2,131.4c0,2.1-2.2,3.8-4.8,3.8c-1.6,0-2.9-1.8-2.9-3.7c0-1.8,2.1-3.5,4.3-3.7C468.6,128,470.2,129.4,470.2,131.4z"/>
	<path d="M322.7,834.7c0,1.8-2.4,3.8-4,3.8c-1.3,0-2.9-2.1-2.9-3.4c0.2-1.8,2.2-3.5,4-3.4C321.8,832,322.6,833.1,322.7,834.7z"/>
	<path d="M265.6,137.8c0,2.4-1.9,4.3-4.3,4.3c-2.2,0-3.5-1.3-3.5-3.2c0-2.1,2.7-4.5,4.6-4.5C264.5,134.4,265.6,135.5,265.6,137.8z"
		/>
	<path d="M191,550.1c0.2-1.6,1-2.7,2.9-2.9c1.4-0.2,3.8,2.2,3.2,3.4c-0.6,1.3-1.8,2.6-2.9,3.2C193.3,554.2,191,551.7,191,550.1z"/>
	<path d="M365,130.9c1.9,0,2.9,1.1,2.9,2.9c0.2,1.8-2.1,4.2-3.7,3.7c-1.3-0.3-2.7-1.8-3.2-2.9C360.5,133.1,363.2,131,365,130.9z"/>
	<path d="M618.1,844.8c1.4,0.2,2.4,1.3,2.6,2.9c0.2,1.4-1.8,3.4-3.2,3.4c-1.8,0-3.2-1.3-3-2.9C614.6,846.7,616.3,844.8,618.1,844.8z
		"/>
	<path d="M853.8,383.5c3.2,0,4.6,1.4,4.8,4.2c0,2.2-1.3,2.6-3,2.6c-3-0.2-4.6-1.4-4.6-4.2C850.6,383.8,852,383.4,853.8,383.5z"/>
	<path d="M686.7,129c-2.1,0.2-2.7-1.3-3-2.9c-0.2-1.4,2.1-4.2,3.4-3.8c1.3,0.3,3.5,0,3.4,2.4C690.4,126.7,688.3,129,686.7,129z"/>
	<path d="M594.4,145.9c-0.8-1-2.1-1.8-2.4-2.9c-0.3-1.6,2.1-3.7,3.8-3.8c2.1,0,2.6,1.4,2.7,3C598.7,143.7,596.5,145.4,594.4,145.9z"
		/>
	<path d="M799.7,144.5c0.3,0.5,1.3,1.1,1.4,2.1c0.3,1.4-1.8,3.2-3.5,3.2c-1.4,0-2.7-0.3-2.7-2.2C795,145.9,797,144.5,799.7,144.5z"
		/>
	<path d="M872.8,177.9c-2.7,0-4.6-1.6-4.8-3c-0.2-1.9,1.4-2.2,2.6-2.6c1.1-0.3,3.8,2.4,3.5,3.5C874.1,176.8,873.1,177.4,872.8,177.9
		z"/>
	<path d="M157.6,445.9c0.2,2.1-1.1,2.7-2.7,3c-1.4,0.2-3.5-2.2-3.5-4c0-1.9,1-2.7,2.7-2.7C156,442.1,157.6,443.8,157.6,445.9z"/>
	<path d="M712.2,824.6c-1.3-1.3-1.9-2.1-3-3.2c1-0.8,1.8-1.8,2.9-2.2c0.5-0.2,2.1,1,2.1,1.1C713.6,821.8,713,822.9,712.2,824.6z"/>
	<path d="M848.3,270.7c0.2,1.9-1.1,2.7-2.7,2.9c-1.8,0.2-4.5-2.2-4.5-3.8c0-1.8,1.8-3.4,3.7-3.4
		C846.4,266.6,848.2,268.6,848.3,270.7z"/>
	<path d="M760.5,841c0.3,1.3,0.8,2.4,1,3.7c0,0.2-1.4,0.8-2.1,0.6c-0.8-0.3-2.1-1.3-1.9-1.6c0.3-1.1,1.3-1.9,1.9-2.9
		C759.8,840.8,760.2,840.8,760.5,841z"/>
	<path d="M734.6,118.9c1.9-0.2,2.6,1.3,2.9,2.6c0.3,2.1-2.2,5.1-4.2,5.1c-1.8,0-3.5-1.8-3.5-3.5
		C729.8,120.6,731.8,118.9,734.6,118.9z"/>
	<path d="M626.6,152.2c1.3-0.2,2.1,0.3,2.1,1.9c-0.2,2.2-1.6,4.3-3.2,4.3c-1.8-0.2-2.9-1-3-2.7C622.2,154.1,624.5,152.2,626.6,152.2
		z"/>
	<path d="M380.5,850.4c-0.5,2.6-2.4,4.3-3.7,4c-1.4-0.3-2.9-1.1-2.7-2.9c0.2-1.6,2.9-3.7,4.2-3.2C379.2,848.8,380,849.9,380.5,850.4
		z"/>
	<path d="M146.6,751.2c-0.2-1.6,0.5-2.7,2.2-2.6c1.4,0,4.3,2.6,3.8,3.8c-0.3,1-1.6,2.1-2.7,2.4C148.2,755,146.4,753.1,146.6,751.2z"
		/>
	<path d="M837.6,456.6c-0.5,0.3-1.6,1.6-2.1,1.3c-1.1-0.6-2.2-1.8-2.7-2.9c-0.2-0.3,1.3-2.2,2.1-2.2
		C836.6,453,837.6,454.2,837.6,456.6z"/>
	<path d="M174.4,274.9c-1,0.5-1.8,1.3-2.9,1.6c-1.4,0.3-4-2.1-3.7-3.5c0.2-1,1.1-2.1,2.1-2.6C171,269.9,174.1,273,174.4,274.9z"/>
	<path d="M157.9,204.5c2.4,0,4.5,1.8,4.5,3.5c0,2.1-1.6,3.7-3.8,3.7c-1.9,0-4.5-2.6-4.5-4.2C154.2,206.1,156.2,204.5,157.9,204.5z"
		/>
	<path d="M165.8,135.4c-1.9,0-3.8-1.6-3.8-3.2c0-1.1,2.4-3,3.5-3c1.4,0.2,3.4,2.4,3.2,3.8C168.6,134.7,167.5,135.4,165.8,135.4z"/>
	<path d="M509,811.4c1.9,0.6,3.8,0.6,3.4,2.7c-0.3,1.3-1.9,2.7-3,2.9c-1.6,0.3-2.9-1.3-2.6-3C506.9,813.1,508.2,812.3,509,811.4z"/>
	<path d="M422.4,168.2c1.6-0.3,2.1,0.8,1.9,2.2c-0.2,2.2-1.9,4.2-4,4c-1.6-0.2-2.2-1.1-2.2-2.7C418.1,169.6,419.8,168.2,422.4,168.2
		z"/>
	<path d="M836.2,513.8c-1.3,0.8-2.4,1.6-2.7,1.4c-1.1-0.6-2.1-1.8-3.2-2.7c0.8-0.8,1.6-1.6,2.6-2.6C833.8,511,834.7,512,836.2,513.8
		z"/>
	<path d="M835.7,636.2c1.9-0.2,3,1.1,3.4,2.7c0.3,1.6-2.7,5.1-4,4.5c-1.3-0.5-2.4-1.9-3-3.2C831.4,639.2,834.4,636.2,835.7,636.2z"
		/>
	<path d="M846.2,293.6c-2.6,0-4.8-1.9-4.8-4c0-1.4,1.9-3.2,3.4-3.2s4,3,3.8,4.8C848.6,292.5,848.2,293.8,846.2,293.6z"/>
	<path d="M850.7,776.2c0.2,1.8-1.1,2.2-2.4,2.2c-1.6,0.2-3.5-1.8-3.5-3.2c0-1.8,1.3-1.9,2.6-2.1
		C849.4,773.1,850.7,774.4,850.7,776.2z"/>
	<path d="M207.2,842.1c-0.5-0.6-1.4-1.4-1.6-2.4c-0.3-1.4,2.2-3.5,4.2-3.7c1.9-0.2,2.7,1.1,3,2.7C213,840.6,210.9,842.1,207.2,842.1
		z"/>
	<path d="M579.5,818.2c0.2,2.9-1.3,3.7-2.9,3.7c-0.8,0-1.9-1.1-2.2-1.9c-0.5-1.3,1.8-3.5,3-3.2C578.4,817.1,579.2,817.9,579.5,818.2
		z"/>
	<path d="M776.8,146.9c1.6,0,2.4,0.8,2.2,2.4c0,1.4-2.1,3.4-3.5,2.9c-1-0.3-1.9-1.6-2.2-2.6C773,148.2,774.7,146.9,776.8,146.9z"/>
	<path d="M826.7,719.8c-2.4-0.2-3.5-1.4-3.5-2.9c0-0.8,1.8-2.1,2.9-2.2c2.1-0.5,2.2,1.8,2.6,3C828.8,718.2,827.5,719.2,826.7,719.8z
		"/>
	<path d="M808.2,831c-0.3,2.2-0.5,3.8-2.6,4c-0.5,0-1.3-1.1-1.4-1.9c-0.2-1.6,1.6-4,2.6-3.7C807.5,829.6,808,830.7,808.2,831z"/>
	<path d="M146.2,826.7c-1-1.1-2.2-2.1-2.1-2.6c0.3-1,1.3-1.9,2.2-2.4c0.3-0.2,1.9,1.3,1.9,1.8C148.2,824.5,147.2,825.3,146.2,826.7z
		"/>
	<path d="M736.5,841.9c-0.2-2.7,1.1-3.4,2.4-3.4c0.6,0,1.8,1.3,1.8,1.9c0,1.8-1.1,2.9-2.9,2.7C737.1,843.2,736.6,842.1,736.5,841.9z
		"/>
	<path d="M145,514.6c0.5,0.6,1.8,1.6,1.8,2.4c0,1.3-0.2,3.2-2.4,3c-1.8-0.2-2.4-1-2.6-2.7C141.4,515.4,142.7,515,145,514.6z"/>
	<path d="M190.1,571.8c0.3-1.3,1-2.4,2.9-2.4c1.3,0,4.2,3,3.8,4.2c-0.5,1.1-1.6,2.2-2.6,2.6C192.3,576.5,190.1,574.1,190.1,571.8z"
		/>
	<path d="M247.2,137.3c-0.3,2.7-2.7,5-4.2,4.8c-1.4-0.2-2.9-2.2-2.7-3.8c0.2-1.4,2.9-3.7,4.2-3.2
		C245.8,135.4,246.6,136.6,247.2,137.3z"/>
	<path d="M638.6,852.2c-1.6-1.6-2.9-2.6-3.5-3.7c-0.5-0.8,3-4,3.8-3.4c1.1,0.8,2.6,2.1,2.6,3.2C641.3,849.3,639.8,850.4,638.6,852.2
		z"/>
	<path d="M837.8,143.7c0.5-2.1,2.2-4.3,3.7-3.8c0.8,0.2,1.8,1.4,1.9,2.4c0.3,1.4-1.8,3.5-3,3.2C839.4,145.1,838.6,144.3,837.8,143.7
		z"/>
	<path d="M405.3,807.2c-1.4,1.3-2.2,2.4-3.4,2.7c-0.6,0.2-1.6-1.3-2.4-1.9c1-1,1.9-2.1,3-2.6C403,805.1,404,806.2,405.3,807.2z"/>
	<path d="M664.3,124c0,2.4-2.4,5.4-3.5,4.8c-1.1-0.8-2.2-2.1-2.7-3.5c-0.5-1.1,2.2-3.2,4-3C663,122.6,663.8,123.5,664.3,124z"/>
	<path d="M295.8,829.4c-1-1.6-2.2-2.9-2.1-3.4c0.8-1.3,2.2-2.4,3.4-3.5c0.8,1,2.4,2.2,2.1,2.9C298.7,826.7,297.4,827.7,295.8,829.4z
		"/>
	<path d="M155.7,466.9c0.3,1.8-1,2.2-2.4,2.4c-2.1,0.2-3.7-1.1-3.4-3.2c0.2-1.1,1.4-2.6,2.6-2.9C153.9,462.6,155.7,465,155.7,466.9z
		"/>
	<path d="M870.9,194.2c-1,1.4-2.2,2.2-4,1.3c-1.6-0.8-2.4-2.2-1.9-3.8c0.2-0.6,1.1-1.3,1.8-1.4C868.2,189.8,870.1,191.8,870.9,194.2
		z"/>
	<path d="M149.8,774.1c-2.2,0.2-3-1.3-3.2-3c-0.2-1.8,0.8-2.9,2.6-3c1.4-0.2,3.8,2.1,3.7,3.5C152.5,773.1,151.7,774.4,149.8,774.1z"
		/>
	<path d="M875.8,304.2c0.2-1.1,1-2.4,2.7-2.4c1.9,0,4,2.1,4,4c0,1.4-1.6,3.5-2.7,3.5C878.2,309.4,875.8,306.6,875.8,304.2z"/>
	<path d="M348.8,131c0,2.7-1.4,4.2-4.2,4.3c-1.8,0-2.4-0.6-2.4-2.2c0.2-2.4,1.8-4,4.3-4C348.2,129,349.1,129.4,348.8,131z"/>
	<path d="M764.8,809.9c0.3,1.6,0.8,3.2-1.3,3.4c-0.8,0-2.2-0.8-2.2-1.1C761.3,809.8,763,810.1,764.8,809.9z"/>
	<path d="M864.5,726.1c-1.1,0.8-1.9,1.6-2.2,1.4c-1-0.5-1.6-1.3-2.2-2.1c0.8-0.6,1.4-1.6,2.2-1.6C862.7,724,863.4,725.1,864.5,726.1
		z"/>
	<path d="M484,136.3c-2.2,0.2-2.7-1.1-2.6-2.9c0.2-2.4,2.2-4.8,4.5-4.2c1.3,0.3,2.9,1.8,3,2.9C489.4,134.2,486.4,136.3,484,136.3z"
		/>
	<path d="M574.9,142.9c0-3,1.1-4.2,3-4.2c1.8,0,2.7,1,2.7,2.6c0.2,1.8-1.9,4-3.4,3.5C576.2,144.5,575.4,143.2,574.9,142.9z"/>
	<path d="M184,354.6c-2.2,0-4.2-1.4-4.2-3c0-1.9,1.8-4.2,3.5-4.2c1.6,0,4.2,2.7,4.3,4.3C187.7,353.4,186.2,354.6,184,354.6z"/>
	<path d="M401.1,172.2c-2.1,0.2-2.4-1.3-2.4-2.7c0-1.6,2.1-3.8,3.5-3.4c1,0.3,2.1,1.8,2.2,2.9C404.6,170.9,403.2,172.2,401.1,172.2z
		"/>
	<path d="M169.8,151c0,1.6-1.6,3.2-3.2,3.2c-1.8,0-3.5-1.8-3.5-3.5c0-1.8,1.1-2.2,2.7-2.2C168.2,148.3,169.6,149.3,169.8,151z"/>
	<path d="M143,578.6c2.4,0,3.8,1.9,4,3.8c0,1.8-1.1,2.2-2.4,2.4c-1.6,0.2-4-2.1-3.8-3.5C140.8,579.5,141.9,578.7,143,578.6z"/>
	<path d="M651.8,808.6c-0.2,1.6-1,2.7-2.7,2.7c-1.6,0-2.7-0.8-2.6-2.4c0-1.8,1.1-2.9,2.9-2.9C650.7,806.1,652,806.7,651.8,808.6z"/>
	<path d="M824.8,697.8c0.8-0.3,1.4-1.1,2.2-1.1c2.1,0,2.1,1.9,2.2,3.4c0,0.3-1.6,1.4-1.9,1.3c-1.1-0.6-1.9-1.6-2.9-2.6
		C824.6,698.6,824.6,698.2,824.8,697.8z"/>
	<path d="M148.5,565.6c-2.9-0.2-4.5-1.9-4.3-3.8c0.2-1.8,1-2.6,2.7-2.6c1.4,0,3.8,2.6,3.5,3.8C149.9,564.2,148.8,565.1,148.5,565.6z
		"/>
	<path d="M153.3,675.5c-0.3-1.6,0.6-2.1,2.2-1.9c2.2,0.2,4.2,1.6,4,3.5c-0.2,1.4-0.6,2.6-2.6,2.4
		C154.9,679.2,153.3,677.6,153.3,675.5z"/>
	<path d="M200.3,161.9c-1.4,0.2-2.2-0.5-2.1-2.1c0.2-2.4,1.9-4.6,4.2-4.6c1.3,0,2.6,0.3,2.7,2.1
		C205.1,159.2,202.6,161.9,200.3,161.9z"/>
	<path d="M591.7,822.1c0.2-2.7,1.1-3.4,2.9-3.5c1.8-0.2,2.4,1.3,2.1,2.1c-0.5,1.3-1.8,2.4-2.9,3C593.6,824,592.2,822.6,591.7,822.1z
		"/>
	<path d="M534.6,812.6c0.3,0.6,1.1,1.6,1,2.1c-0.5,1-1.4,1.8-2.4,2.6c-0.6-0.6-1.9-1.6-1.8-1.9c0.3-1.1,1.3-1.9,2.1-2.9
		C533.8,812.5,534.2,812.5,534.6,812.6z"/>
	<path d="M834.6,495.5c-0.8,0.8-1.9,2.2-2.4,2.1c-1.1-0.3-2.2-1.4-2.7-2.6c-0.5-1.3,0.3-2.6,1.9-2.6
		C833.1,492.3,833.8,493.6,834.6,495.5z"/>
	<path d="M866.9,595.4c-1.3-0.3-2.6-0.5-3.5-1.1c-0.5-0.3-0.6-1.8-0.3-2.2c0.2-0.5,1.8-1,2.1-0.6c1,0.8,1.6,2.1,2.4,3
		C867.4,594.7,867,595,866.9,595.4z"/>
	<path d="M162.2,186.6c-1.1,0.6-2.4,1.9-3.4,1.8c-1.1-0.3-2.1-1.8-3-2.7c0.8-0.8,1.9-2.2,2.6-2.2c1.4,0.2,2.7,1.4,4,2.1
		C162.2,185.9,162.2,186.2,162.2,186.6z"/>
	<path d="M839.8,579.5c-1.3,0.6-1.9,1.3-2.6,1.4c-1.6,0.2-4-1.8-3.5-2.9c0.5-1.1,2.2-2.6,3-2.2C837.9,576.3,838.6,577.9,839.8,579.5
		z"/>
	<path d="M753.9,117.9c0,1.9-1.8,3.8-3.4,3.8c-1.4,0-2.9-1.6-2.9-3.2s1.9-3.2,3.7-3C753,115.5,753.9,116.3,753.9,117.9z"/>
	<path d="M881.1,324c0.3,1.6-1,2.9-2.1,2.4c-1.4-0.5-3-2.1-3.5-3.5c-0.6-1.6,1.3-2.4,2.7-2.6C880,320,881.1,321.4,881.1,324z"/>
	<path d="M171.5,408.8c0.8,1.1,2.1,2.1,2.4,3.4c0.2,0.5-1.8,2.2-2.4,2.1c-1.1-0.3-3.4-0.2-3.2-2.4
		C168.3,410.1,169.6,409.4,171.5,408.8z"/>
	<path d="M182.6,364.2c2.1,0,3.7,1.6,3.7,3.5c0,1.8-1,2.7-2.9,2.9c-1.9,0-4-2.1-4-4C179.4,364.8,180.3,364.2,182.6,364.2z"/>
	<path d="M840.2,438.1c-1.6,1-2.6,2.1-3.2,1.9c-1-0.2-1.8-1.4-2.7-2.2c0.8-0.8,1.6-2.2,2.6-2.4C837.6,435.5,838.6,436.8,840.2,438.1
		z"/>
	<path d="M782.2,816.2c-1.1,0-2.1,0-3.2,0c0-1,0-1.9,0-2.9C781.9,812.2,782.6,812.8,782.2,816.2z"/>
	<path d="M474.6,845.9c0.2,1.8-1.3,2.7-2.6,2.7c-1.4,0-2.9-1-2.7-2.9c0-1.6,0.5-2.6,2.4-2.4C473.3,843.5,474.7,843.7,474.6,845.9z"
		/>
	<path d="M156.2,807.8c-1.6,0.2-2.9,0.5-3.7,0.2c-1-0.5-1.6-1.8-2.1-2.9c-0.2-0.2,1-1.3,1.6-1.4
		C154.7,803.4,154.7,805.8,156.2,807.8z"/>
	<path d="M420.6,811.4c-1-1.1-2.2-2.1-2.1-2.4c0.5-1.1,1.4-1.9,2.1-2.7c0.6,0.8,1.8,1.6,1.9,2.6
		C422.9,809.3,421.6,810.1,420.6,811.4z"/>
	<path d="M857,142.7c0.6,0.6,1.3,1.3,1.9,1.9c-1.1,1-2.2,1.9-3.5,2.6c-0.2,0.2-1.8-1.3-1.6-1.8C853.9,144.2,854.7,142.7,857,142.7z"
		/>
	<path d="M647.4,156c-0.5,2.2-1.9,3.5-3.7,3.5c-1.8-0.2-2.7-0.8-2.6-2.9c0.2-2.1,1.9-4.3,3.5-3.7C645.8,153.4,646.4,154.9,647.4,156
		z"/>
	<path d="M475.5,809.9c-0.3,2.2-1.6,2.4-2.7,2.4c-1.4,0-2.7-1-2.4-2.2c0.2-1,1.6-2.4,2.4-2.4C473.8,807.7,474.7,809.1,475.5,809.9z"
		/>
	<path d="M865.9,506.6c0.5-0.8,0.8-2.2,1.3-2.2c1.1,0,2.4,0.3,3.2,1.1c1.1,1.1-0.3,2.9-1.9,2.2C867.7,507.4,867,507,865.9,506.6z"/>
	<path d="M879.7,262.6c-1.4,1-2.2,1.9-2.7,1.8c-1-0.3-1.6-1.3-2.4-1.9c0.8-0.6,1.4-1.6,2.2-1.8C877.4,260.6,878.2,261.6,879.7,262.6
		z"/>
	<path d="M538.7,850.9c0.8-0.5,1.8-1.6,2.6-1.6c1,0.2,2.6,1.4,2.4,1.9c-0.3,1.1-1.4,2.1-2.2,3c-1-0.8-1.9-1.6-2.9-2.4
		C538.6,851.5,538.6,851.2,538.7,850.9z"/>
	<path d="M535.2,167.2c0.2,2.9-1.3,3.8-2.7,3.7c-1-0.2-2.1-1.4-2.4-2.6c-0.5-1.3,1.6-3.4,2.9-3C533.9,165.8,534.9,166.9,535.2,167.2
		z"/>
	<path d="M147.8,501.4c0.2,2.4-1,2.6-2.2,2.6c-2.1,0-3-1.6-3.2-3c-0.2-1.3,1-2.4,2.7-2.2C147.4,498.9,147.7,500.5,147.8,501.4z"/>
	<path d="M215.7,159.8c0-1.6,1.8-3.4,3.5-3c1,0.2,2.2,1.3,2.6,2.2c0.5,1.6-1.6,4.5-2.9,4.5C217.3,163.4,215.7,161.6,215.7,159.8z"/>
	<path d="M241.3,814.4c-1.3,0.8-2.4,1.9-3.7,2.2c-0.6,0.2-1.6-1.4-2.4-2.4c1-1,1.9-2.4,3-2.7c0.8-0.2,2.1,1.1,3,1.8
		C241.3,813.6,241.3,814.1,241.3,814.4z"/>
	<path d="M635.4,809.3c-0.8,0.6-1.6,1.9-2.4,2.1c-1.6,0.2-2.9-1.1-2.7-2.6c0.2-1,1.6-2.2,2.7-2.6
		C634.4,805.9,634.9,807.2,635.4,809.3z"/>
	<path d="M431.2,846.6c-1.1,1.1-1.9,1.8-2.7,2.6c-0.5-0.6-1.8-1.6-1.6-1.9c0.3-1,1.3-1.8,2.1-2.2
		C429.3,844.8,430.1,845.9,431.2,846.6z"/>
	<path d="M838.6,559.2c1.1,1.9,2.1,2.9,2.2,4.2c0.2,0.6-1.1,1.4-1.9,2.2c-1-1.1-2.1-1.9-2.7-3.2
		C836.2,561.9,837.4,560.6,838.6,559.2z"/>
	<path d="M255.8,843.2c-1.3,1.1-2.1,1.9-2.9,2.4c-0.2,0-1.4-1.1-1.3-1.6c0.3-1,1.1-1.8,1.8-2.7C253.9,841.9,254.6,842.4,255.8,843.2
		z"/>
	<path d="M490.1,841.1c0.3,1.6,1,3,1,4.5c0,0.5-1.6,1.4-2.2,1.3c-0.8-0.2-1.6-1.3-1.8-2.1C486.4,843.2,487.5,841.9,490.1,841.1z"/>
	<path d="M862.6,741.6c-1.9,0.3-3.5-0.2-3.7-2.4c-0.2-1.6,1.1-1.6,2.1-1.4C863.2,738.4,862.9,740,862.6,741.6z"/>
	<path d="M498.9,173.9c-1.6,1.4-2.7,2.6-3.8,3.4c-0.2,0.2-1.8-1.1-1.8-1.8c-0.2-1.8,1-2.7,2.7-2.9
		C496.6,172.6,497.3,173.3,498.9,173.9z"/>
	<path d="M175.5,610.7c0.2,1.3,0,2.2-1.8,2.4c-2.2,0.2-2.7-1.6-2.9-3c0-0.8,1.4-2.2,2.2-2.2C174.4,607.8,175.8,608.8,175.5,610.7z"
		/>
	<path d="M455.7,812.5c-0.5-0.6-1.8-1.6-1.8-2.6c-0.2-1.8,1.1-2.9,3-2.9c1.8-0.2,2.2,1.3,2.1,2.6C459,811,458.2,812.2,455.7,812.5z"
		/>
	<path d="M839.5,222.2c-1.1-1.1-1.8-1.8-2.4-2.4c0.6-0.6,1.3-1.6,2.1-1.8c1-0.2,2.4,0.2,2.1,1.6
		C841.3,220.5,840.5,221.1,839.5,222.2z"/>
	<path d="M865,608.6c-1.1,1.3-1.9,2.1-2.7,2.9c-0.6-0.8-1.8-1.4-1.9-2.2c-0.3-1.8,1.1-2.2,2.4-2.4C863.4,606.7,864,607.7,865,608.6z
		"/>
	<path d="M870.7,245.6c2.9,0,3.2,1.8,3.5,3.2c0.2,0.5-1.6,1.9-1.8,1.8c-1.1-0.8-2.2-1.6-2.7-2.7
		C869.4,247.4,870.4,246.2,870.7,245.6z"/>
	<path d="M866.7,417.1c0.3-0.2,1.1-1,1.9-1c2.1,0,3.5,1.3,3.4,3c0,1.8-0.8,2.7-2.6,2.7C868,421.8,866.6,419.8,866.7,417.1z"/>
	<path d="M527.2,847.8c0.3,2.6-1,3.2-2.1,2.7c-1-0.3-1.6-1.6-2.4-2.4c0.8-0.6,1.6-1.8,2.6-1.8C526.1,846.4,526.9,847.5,527.2,847.8z
		"/>
	<path d="M186.4,799.7c-0.8,0.6-1.8,1.6-2.7,1.9c-1.4,0.3-2.9-1.6-2.9-3.4c0-1.8,0.8-2.4,2.6-2.4
		C185.6,795.8,185.8,797.6,186.4,799.7z"/>
	<path d="M199.7,127.4c-0.8-1.1-1.4-1.8-1.4-2.1c0.2-0.8,0.8-1.4,1.3-2.1c0.5,0.5,1.4,1,1.4,1.4
		C201.1,125.3,200.5,126.1,199.7,127.4z"/>
	<path d="M320.5,168c-1.1,0.6-2.2,1.6-3.5,1.9c-0.5,0.2-1.9-1.3-1.9-1.9c0-1.6,1.3-2.9,2.9-2.6c1,0.2,1.8,1.1,2.6,1.6
		C320.5,167.4,320.5,167.7,320.5,168z"/>
	<path d="M536.3,128.5c0.6,2.7,0,4.2-1.8,4.6c-0.6,0.2-1.9,0-1.9-0.3c-0.2-0.8-0.3-2.1,0.3-2.6C533.8,129.4,535,129.1,536.3,128.5z"
		/>
	<path d="M840.3,320.3c-1.4,0.8-2.4,1.8-3,1.6c-1-0.3-1.8-1.4-2.7-2.2c0.6-0.6,1.6-1.9,2.1-1.8C837.9,318.2,838.7,319.2,840.3,320.3
		z"/>
	<path d="M835.4,234.9c1.6-1.9,3.8-2.4,4.6-1.1c0.5,0.6,0.6,2.6,0.3,3C837.9,238.6,837.3,235.5,835.4,234.9z"/>
	<path d="M857.9,843c-0.6-1-1.3-1.4-1.3-2.1c0-0.5,0.6-1,1.1-1.4c0.6,0.6,1.3,1.1,1.6,1.8C859.4,841.4,858.6,842.1,857.9,843z"/>
	<path d="M171.8,394.2c1.6,0.2,3,1,2.7,2.9c-0.2,0.8-1.4,1.9-2.4,1.9c-1.4,0-2.9-0.6-2.9-2.4C169.4,395.2,169.9,393.9,171.8,394.2z"
		/>
	<path d="M869.4,441.8c-2.6-2.2-3-3.8-1.4-5c0.6-0.5,2.2-0.5,2.9,0C872.5,438.1,871.8,439.8,869.4,441.8z"/>
	<path d="M831.7,333.9c1.4-1,2.4-1.8,2.6-1.6c1,0.8,1.6,1.8,2.2,2.9c0,0.2-1.1,1.4-1.4,1.3C834.1,336,833.3,335.2,831.7,333.9z"/>
	<path d="M414.1,840.2c0.8,1.3,1.6,2.2,1.4,2.6c-0.5,1-1.6,1.6-2.4,2.4c-0.5-0.6-1.4-1.4-1.3-1.8
		C412.2,842.6,413.1,841.6,414.1,840.2z"/>
	<path d="M138.6,626.6c2.7,0.2,4,1.1,3.8,2.9c-0.2,1-1.6,2.2-2.6,2.4c-1.6,0.2-3-1-2.9-2.9C137,627.8,138.2,627,138.6,626.6z"/>
	<path d="M254.2,811c0.2,0.5,1.1,1.3,1,2.1c-0.2,1.4-0.8,3-2.6,2.6c-0.8-0.2-2.1-1.3-1.9-2.1C250.7,812.2,251.5,810.7,254.2,811z"/>
	<path d="M185.1,728.6c2.7-0.2,3.2,1.4,3,2.9c0,0.8-1.1,1.6-1.6,2.4c-1-1.1-2.1-2.1-2.7-3.2C183.7,730.2,184.8,729.1,185.1,728.6z"
		/>
	<path d="M479.2,176.2c-0.6-0.8-1.6-1.6-1.8-2.6c-0.2-0.5,1.1-1.6,1.8-1.8c0.5-0.2,1.8,0.6,1.8,1.1c0,1-0.5,2.1-0.8,3
		C479.8,176,479.5,176.2,479.2,176.2z"/>
	<path d="M519.7,135c-0.8-1.1-1.6-1.8-1.4-2.1c0.5-1,1.3-1.6,1.9-2.6c0.6,0.5,1.8,1.3,1.8,1.4C521.4,133,520.8,133.8,519.7,135z"/>
	<path d="M869,493c-1.1-1.4-2.2-2.2-2.6-3.4c-0.2-0.3,1.3-1.3,1.9-1.9c1,1,1.9,1.9,2.7,2.9C871,490.7,869.9,491.7,869,493z"/>
	<path d="M191.4,747.7c-1.3,0.8-1.9,1.6-2.6,1.8c-1.4,0.2-2.7-0.6-2.6-2.2c0-0.6,1.4-1.9,1.9-1.8C189,745.6,189.9,746.6,191.4,747.7
		z"/>
	<path d="M158.2,323.2c-1.1,0.8-2.1,1.8-2.7,1.6c-0.8-0.2-1.6-1.1-2.2-1.8c0.8-0.6,1.6-1.6,2.6-1.8
		C156.3,321.1,157.1,322.2,158.2,323.2z"/>
	<path d="M298.7,167.5c1.6-1.3,2.6-2.6,3.2-2.4c1.1,0.3,2.7,1.4,2.9,2.4c0.3,1.4-1,2.7-2.6,2.6C301.3,169.9,300.5,168.8,298.7,167.5
		z"/>
	<path d="M548.8,171.2c-1.8,1.4-2.7,2.9-4,3.2c-1.4,0.2-2.4-1.3-2.4-2.9c0-1.4,1.8-3.4,3.2-3C546.6,168.6,547.4,169.9,548.8,171.2z"
		/>
	<path d="M241.1,840.6c-0.8,0.6-1.4,1.3-2.4,1.6c-0.2,0.2-1.4-1.3-1.3-1.4c0.6-1,1.3-1.8,2.1-2.2c0.5-0.3,1.4,0.3,2.1,0.6
		C241.6,839.7,241.4,840.2,241.1,840.6z"/>
	<path d="M210.1,126.4c2.6-0.5,3.5,0.2,3.5,1.6c0,0.5-0.8,0.8-1.3,1.3C211.8,128.5,211,127.7,210.1,126.4z"/>
	<path d="M302.7,142.6c-0.8-1.1-1.6-1.8-1.6-2.6c0-0.3,1.1-1.3,1.6-1.3c0.5,0,1.4,1,1.4,1.4C304.2,141,303.4,141.6,302.7,142.6z"/>
	<path d="M184.6,787.4c-1.8-1.8-3-3-4.2-4.2c0.8-0.8,1.6-1.9,2.7-2.1c1.6-0.3,3.8,1.6,3.5,3C186.4,785,185.6,785.8,184.6,787.4z"/>
	<path d="M181.9,297.8c0.2-0.2,1-1.3,1.6-1.3c1.6,0,2.7,1.1,2.6,2.7c0,0.8-1.3,1.8-2.1,1.9C182.2,301.4,181.8,300.2,181.9,297.8z"/>
	<path d="M151.7,369.1c1.3,1.3,2.4,2.1,2.4,2.6c-0.2,0.8-1.3,1.4-1.9,2.2c-0.6-0.6-1.4-1.3-1.8-2.1
		C150.2,371.2,151,370.4,151.7,369.1z"/>
	<path d="M713,155.4c0.8,1.1,1.6,2.1,1.6,2.2c-0.8,0.8-1.8,1.6-2.7,2.2c-0.2,0.2-1.4-1.1-1.3-1.1C711.2,157.8,712,156.8,713,155.4z"
		/>
	<path d="M424,141.3c-1.3-1.4-1.9-2.1-2.6-2.9c1.1-0.8,2.1-1.9,3.4-2.6c0.2-0.2,1.8,1.4,1.6,1.9C426.1,138.9,425.1,139.8,424,141.3z
		"/>
	<path d="M177.3,627.8c-0.8,1-1.6,2.1-2.6,3c-0.6-0.6-1.6-1.3-2.1-2.1c-0.3-0.5,0-1.8,0.3-1.9c1.3-0.3,2.6-0.3,3.8-0.3
		C177,627,177.1,627.4,177.3,627.8z"/>
	<path d="M156.8,307c1.4,0.5,3.7-1.1,3.5,1.8c0,0.8-1.3,2.1-1.9,2.1C156.5,310.6,156.5,309.1,156.8,307z"/>
	<path d="M313.6,141.1c0.5-0.8,1-1.8,1.4-2.6c0.3,0,0.5,0,0.8,0c0.3,0.8,0.6,1.6,1,2.2c-0.8,0.3-1.6,0.6-2.4,1
		C314.1,141.6,313.9,141.3,313.6,141.1z"/>
	<path d="M152,354.6c0.8,1.4,1.4,2.2,1.6,3.2c0,0.5-0.8,1-1.3,1.6c-0.8-0.8-1.8-1.4-2.4-2.2C149.9,357,151,355.8,152,354.6z"/>
	<path d="M144.6,614.6c0.2,1.6-1.3,2.6-2.4,2.2c-1.3-0.3-2.2-1.8-3.4-2.7c0.8-0.8,1.8-2.2,2.6-2.2
		C142.7,611.8,144.6,612,144.6,614.6z"/>
	<path d="M699.5,153.9c0.6,1.1,1.3,1.9,1.1,2.2c-0.3,0.8-1.1,1.6-1.8,2.4c-0.5-0.5-1.6-1.3-1.4-1.6
		C697.8,156,698.6,155.2,699.5,153.9z"/>
	<path d="M410.6,133.3c2.1,0.6,3,1.8,2.2,3.4c-0.3,0.6-2.2,1.3-2.7,0.8C408.3,136,410.4,134.9,410.6,133.3z"/>
	<path d="M868.5,557.8c-1.1,0.2-2.4,0.5-3.5,0.6c-0.2-0.2-0.3-0.3-0.5-0.5c0.3-0.5,0.6-1.4,1.1-1.4c1-0.2,1.9,0.2,2.9,0.2
		C868.6,557.1,868.5,557.4,868.5,557.8z"/>
	<path d="M868.5,546.2c-0.6,0.3-1.4,1-1.6,0.8c-0.6-0.6-1.1-1.3-1.6-2.1c0.5-0.3,1.1-0.8,1.3-0.6
		C867.2,544.8,867.7,545.4,868.5,546.2z"/>
	<path d="M354.9,806.4c0,2.1-1.6,3.7-3.7,3.7c-2.2,0-2.4-1.9-2.6-3.4c-0.2-1.4,1.9-3.5,3.4-3.4C353.9,803.5,355,804.6,354.9,806.4z"
		/>
	<path d="M367.7,804c0,2.1-1.6,3.7-3.7,3.7c-2.2,0-2.4-1.9-2.6-3.4c-0.2-1.4,1.9-3.5,3.4-3.4C366.7,801.1,367.8,802.2,367.7,804z"/>
	<path d="M190.1,490.7c0.3,2.6-1.4,3.5-3.5,3.8c-1.9,0.3-4.5-2.9-4.5-5c0-2.4,1.1-3.5,3.5-3.5C188,485.9,190.1,488,190.1,490.7z"/>
	<path d="M191,505.1c0.3,2.6-1.4,3.5-3.5,3.8c-1.9,0.3-4.5-2.9-4.5-5c0-2.4,1.1-3.5,3.5-3.5C189.1,500.3,191,502.4,191,505.1z"/>
</g>
</svg>
