<?xml version="1.0" encoding="utf-8"?>
<!DOCTYPE svg PUBLIC "-//W3C//DTD SVG 1.1//EN" "http://www.w3.org/Graphics/SVG/1.1/DTD/svg11.dtd">
<svg version="1.1" id="Sensei-the-Cat" xmlns="http://www.w3.org/2000/svg" xmlns:xlink="http://www.w3.org/1999/xlink" x="0px" y="0px"
	 width="1000px" height="750px" viewBox="0 0 1000 750" style="enable-background:new 0 0 1000 750;" xml:space="preserve">
<style type="text/css">
<![CDATA[
	.st0{fill-rule:evenodd;clip-rule:evenodd;fill:#EDEDED;}
	.st1{fill-rule:evenodd;clip-rule:evenodd;}
]]>
</style>
<path class="st1" d="M112.4,341.7c5.7-25.8,14.5-51.3,25.4-75.3c13.5-29.7,30.3-57.9,46.6-86.3c7.4-12.9,16.6-24.8,25.4-36.9
	c8-11,17.8-10.5,25.4,0.6c5.8,8.5,11.4,17.1,17.4,25.5c14.7,20.8,35.5,30.4,60.1,34.4c34.4,5.6,66.8-3.4,99.2-12.3
	c20.9-5.7,41.7-12.6,61.3-21.7c29.9-13.8,58.8-29.9,88.1-45.1c14.9-7.7,29.6-15.7,44.4-23.5c7.6-4,17.2,1.9,23.7,11.9
	c12.6,19.5,17.1,41.9,24.4,63.3c2.3,6.7,5.5,9.8,12.8,11c16.5,2.7,32.8,6.6,49,10.8c21.9,5.7,44.7,9.8,65.3,18.7
	c36.2,15.6,72,34.8,90,72.2c19.1,39.7,31.2,81.6,28.9,127.4c-2.1,42.7-16.5,81.3-29.8,120.8c-7.2,21.5-11.9,43.8-17.8,65.8
	c-3.7,13.6-13.6,21.5-25,28.5c-11.2,6.8-22.4,6.8-35.3,5.8c-30.5-2.3-61.2-2-91.8-2.3c-25.7-0.3-51.3-0.5-77,0.4
	c-29.5,1-58.9,3.2-88.3,4.7c-38,1.8-75.9,3.3-113.9,5c-36.2,1.7-72.4,4.9-108.5,4.9c-29.6,0-59.1-4.4-88.7-5.6
	c-12.7-0.5-21.6-6.5-30-14.5c-2.1-2-4.6-4.5-5-7.1c-2.7-17.4-15.1-29.1-24.3-42.6c-26.2-38.3-49.1-78.2-59.5-124.1
	c-1.8-7.7-3.5-17.7-3.1-23.7C103,409.6,112.4,341.7,112.4,341.7z"/>
<path class="st0" d="M732.2,593.3c-33.9,0-67.8-0.4-101.8,0.2c-19.4,0.3-39.3-0.3-57.8,4.3c-14,3.5-26.9-1.3-40.5,1.5
	c-14.6,3-29.9,2.3-45,3c-14.7,0.7-29.5,1-44.2,1.5c-45.4,1.5-90.8,4.1-136.2,4.2c-22.5,0.1-45.1-3.7-67.6-6.8
	c-13.8-1.9-18.6-7-19.7-21c-0.9-11.6-6.8-20.1-13.6-28.2c-28-32.9-50.6-68.9-65.4-109.7c-12.9-35.6-12.6-71.2-2.5-107.2
	c8.8-31.2,22.5-60.3,37.7-88.6c6.1-11.4,16-21,24.8-30.8c4.1-4.5,9.2-4.3,15.1-0.5c14.9,9.7,29.6,21.1,46.1,26.8
	c16.8,5.8,35.9,8.9,53.6,7.5c46-3.5,90.2-16.7,132.7-34.5c28.5-12,56.2-26,84.4-38.6c9.9-4.4,20.7-7.1,30.6-11.6
	c7.9-3.6,15.4-8.4,22.5-13.4c5-3.6,7.9-4.1,13.7-0.1c20.8,14.5,26.4,37.4,34.9,58.9c6.8,17.5,12.3,35.5,11.5,54.3
	c-0.6,15.2-4.3,30.3-6.8,45.4c-1,6-4.3,12.8,2.8,16.8c7.3,4.2,14,0.3,19.2-4.8c5.4-5.3,9.7-11.4,9.7-20.1
	c-0.1-23.9,0.7-47.8,0.6-71.8c0-8.1,4.7-8,9.9-6.9c21.9,4.6,43.9,8.7,65.5,14.3c33.2,8.7,61.6,26.2,86,50.4
	c13.3,13.3,18.9,30.3,23,48.1c2.5,10.6,5.4,21.2,8.3,31.7c9.1,33,9.8,66.2,0.6,99.1c-6.4,22.7-14.5,44.8-21.8,67.2
	c-4,12.3-7.7,24.8-12,37c-5.2,14.9-13.1,20.5-28.9,21c-11.5,0.3-23,0.5-34.5,0.5c-11.5,0.1-23,0-34.5,0
	C732.2,592.8,732.2,593,732.2,593.3z"/>
<path class="st1" d="M476.7,522.6c5.7,0.4,11.6,3.8,16.3,7.3c5.2,3.9,3.3,8.8-2.4,10.7c-4,1.3-8.8,1.7-12.9,0.9
	c-31.6-6.5-63.1-5.5-94.6,0.8c-2.6,0.5-5.3,0.6-7.9,1c-20.3,3-24.4-0.4-27.9-20.2c-0.7-3.8-6.5-9.3-10.4-9.6
	c-16.3-1.5-32.8-1.4-49.2-1.6c-4.4-0.1-8.8,1.6-13.1,1.3c-2.4-0.2-5.9-2.4-6.6-4.5c-0.7-2.1,1-7,2.6-7.5c7.6-2.3,15.6-4.7,23.4-4.9
	c17.9-0.6,35.9,0.2,53.9,0.2c7.3,0,11.5-4,12.9-11c1.9-9.3,3.7-18.6,5.2-28c1.2-7.1-1.8-11.4-9.1-12.5c-3.2-0.5-6.5-1-9.4-2.3
	c-6.5-2.7-9-7.6-5.5-14.3c8.5-16.2,20-30.1,35.4-40c3.6-2.3,10-3,14-1.5c14.8,5.7,29.2,12.5,43.6,19.3c9,4.3,11.1,14.9,4.3,22.1
	c-8.7,9.2-17.6,18.4-27.6,26c-5.3,4.1-13.3,4.5-19.9,7c-2.2,0.9-5.2,2.9-5.6,4.9c-2.8,14.5-5.3,29-7.4,43.6c-1,6.7,3.3,9.8,9.5,9.9
	c11.2,0.2,22.4-0.2,33.6,0C435.7,520.2,463.1,521.6,476.7,522.6z"/>
<path class="st1" d="M245.4,301.3c0.2-8.9,6.7-13.3,15.3-10.1c11,4.1,21.5,9.6,32.3,14.4c13.9,6.1,28,11.9,41.8,18.4
	c3,1.4,6.9,5.2,6.9,7.8c-0.1,4.9-2.1,10.3-4.9,14.4c-1,1.5-7,0.7-10.1-0.7c-23-10.5-45.8-21.4-68.7-32.1
	C252.1,310.6,245.7,308.4,245.4,301.3z"/>
<path class="st1" d="M510.1,290.6c-0.6,7.3-3.4,11.1-10.1,14.5c-20.6,10.7-40.6,22.5-60.5,34.4c-5.6,3.3-10.7,8.6-17.4,5
	c-2.8-1.5-4.8-6.4-5.2-10c-1-8.4,6.1-11.8,11.9-14.7c13.9-7,28.4-12.7,42.2-19.9c8.6-4.4,16.2-10.7,24.5-15.6
	c3-1.8,7.3-3.4,10.2-2.5C507.9,282.6,508.7,287.6,510.1,290.6z"/>
<path class="st1" d="M303.4,463.8c3.7-3.7,6.8-9.4,11.3-10.8c6.6-2.1,14.2,6.1,14.1,13.4c-0.1,5.9-3.5,9.4-9.3,9.8
	C310.8,476.8,305.4,472.6,303.4,463.8z"/>
<path class="st1" d="M466,501.8c-6.3,0.2-9.9-3-9.2-9.1c0.6-5.6,0.8-12.6,9.1-13c5.5-0.2,12.5,7.4,12.1,13.3
	C477.6,500.6,471.8,501.3,466,501.8z"/>
<path class="st1" d="M284.8,437.2c-1.5-2-5.6-5.1-6.2-8.9c-1.1-6.3,2.2-11.7,9.3-12.7c5.3-0.8,12.4,5.3,12.7,10.2
	C300.9,431.1,294.4,436.9,284.8,437.2z"/>
<path class="st1" d="M425,496.6c-7.6-2-12-4.4-11.6-11.2c0.3-6.1,1.9-12,9.6-12.4c5.4-0.3,13.6,8.3,11.8,13.8
	C433.6,490.8,428.4,493.4,425,496.6z"/>
<path class="st1" d="M250.3,460.2c3.9-2.6,8.3-7.8,11.5-7.2c4.4,0.9,7.8,6.3,11.7,9.8c-4.1,3.5-7.8,8.9-12.4,9.8
	c-2.9,0.6-7.2-5.4-10.9-8.4C250.3,462.8,250.3,461.5,250.3,460.2z"/>
<path class="st1" d="M463.1,468.1c-3.8-5.8-8.2-9.5-7.7-12.5c0.5-3.5,5.3-6.3,8.2-9.4c3.4,3.4,8,6.4,9.5,10.5
	C473.7,458.4,468,462.6,463.1,468.1z"/>
</svg>
