<?xml version="1.0" encoding="utf-8"?>
<!DOCTYPE svg PUBLIC "-//W3C//DTD SVG 1.1//EN" "http://www.w3.org/Graphics/SVG/1.1/DTD/svg11.dtd">
<svg version="1.1" id="css--varriors" xmlns="http://www.w3.org/2000/svg"
	 width="1000" height="333" viewBox="0 0 1000 333">
<style type="text/css">
<![CDATA[
	.main     {/**/}
	.css-fill {fill:white;}
	.var      {fill:hsl( 359, 54%, 53% );}
]]>
</style>
<g>
	<path class="var" d="M712.1,108.4c-3.3-2.3-5.9-5.5-8.2-8.9c-2.4-3.6-4.8-7.1-8.2-10c-3.5-3.1-6.4-7-9.5-10.5c-2-2.3-6.3-3-8.7-1.2
		c-0.8,0.6-1.4,2-1.5,3.1c-0.1,2,0,4,0.5,5.9c1,3.4,1,6.9,0.9,10.4c-0.1,3.8-2.5,6-6.2,5.7c-1.6-0.1-3.2-0.1-4.8-0.1
		c-2.2,0.1-2.9-0.3-3.3-2.6c-0.6-3.4-1-6.9-1.3-10.3c-0.3-2.8-0.3-5.7-0.5-8.5c-0.6-7.5-0.4-14.9,0.6-22.3c0.2-1.6,0-3.2,0.1-4.8
		c0.3-3.2,0.6-6.4,0.9-9.6c0.1-1.3,0.9-2.1,2.2-2.1c1.6-0.1,2.7-0.9,3.8-2.1c0.7-0.8,1.8-1.4,2.9-1.7c4.3-1.2,8.6-2.6,13-3.2
		c4-0.6,8.2-0.7,12.3-0.3c3.8,0.5,7.5,2.2,9,6.2c2.3,6,3.3,12.3,2,18.7c-0.5,2.5-1.9,4.8-3.1,7.1c-0.9,1.8-2,3.4-3.1,5.1
		c-3.2,5-3.1,9.6,0.6,14.4c3.7,4.7,7.5,9.3,11.3,13.9C716.9,104.2,716.7,105.5,712.1,108.4z M674.9,58.6c0.1,0,0.3,0,0.4,0
		c0,1.5-0.2,3,0,4.5c0.5,4,3.9,5.5,7,2.8c1.5-1.3,2.8-1.5,4.7-1.2c3.9,0.6,7.7,0.3,11.3-1.6c1.3-0.7,2.1-1.5,1.9-3.2
		c-0.5-3.1-0.7-6.2-1.1-9.2c-0.6-4.6-3.2-7.7-7.8-8c-3.9-0.3-7.9,0.4-11.8,1c-1.5,0.2-3.1,1.3-3.3,3.2
		C675.6,50.8,675.3,54.7,674.9,58.6z"/>
	<path class="var" d="M591.9,102.4c-1.9-1.5-2.4-3.5-1.7-5.7c1.1-3.1,2.3-6.3,3.7-9.3c2.1-4.3,4.5-8.6,6.9-12.8
		c1.9-3.2,4.2-6.1,6.2-9.3c1.2-2,2-4.4,3.4-6.2c2.1-2.7,4.5-5.3,7-7.6c3.3-3.1,6.8-6.2,10.5-8.9c2.7-1.9,5.7-3.6,8.9-4.5
		c4.9-1.5,9.5,2.2,10,7.3c0.5,4.7,0.6,9.4-0.4,14.1c-0.6,2.6-0.2,5.4-0.2,8.2c-0.1,7.3-0.3,14.7-0.2,22c0,2.2,0.8,4.4,1,6.6
		c0.2,2.4,0.4,4.9,0.2,7.4c-0.2,2.2-2.9,4.3-5,4.4c-1.8,0.1-3.4-1.1-4.2-3.6c-1-3.2-1.7-6.5-2.5-9.7c-0.3-1.1-0.3-2.2-0.6-3.3
		c-1.5-4.6-1.4-5.2-6.3-4.9c-0.9,0-1.8-0.1-2.6-0.3c-4.3-1.2-8.6-0.8-12.7,0.8c-1,0.4-2.2,0.3-3.2,0.2c-5.8-0.9-6.5-0.5-8.3,5.2
		c-0.6,1.9-1.1,3.9-2,5.6C598,100.7,595.2,102,591.9,102.4z M633.9,56.6c0.3-0.1,0.5-0.1,0.8-0.2c-0.5-2-1-3.9-1.5-5.9
		c-1.8,0.6-4.1,0.8-5.4,1.9c-3.5,3.1-6.8,6.5-9.9,10.1c-2.5,2.9-4.5,6.3-6.6,9.4c-0.5,0.7-1,1.4-1.3,2.2c-0.8,2-0.2,3.2,2,3.2
		c6.4,0.1,12.9,0.2,19.3,0.2c0.4,0,0.7-0.1,1.1-0.1c1.4-0.1,2.2-0.7,2.5-2.2c0.7-3.4,0.9-6.9,0.2-10.3
		C634.6,62.2,634.3,59.4,633.9,56.6z"/>
	<path class="main" d="M979.7,103.4c-6.3-0.6-12.6-1.3-18.9-1.9c-1.5-0.2-2.6-0.6-2.8-2.4c-0.2-2,0.7-3.7,2.5-4
		c1.8-0.3,3.7-0.1,5.6,0c2.9,0.2,5.7,0.6,8.5,0.8c5.6,0.3,9-2.3,9.9-7.8c0.8-4.9,1.7-9.8,2.3-14.7c0.7-6-0.9-7.9-6.8-9.4
		c-5.7-1.4-11.3-1.6-17-0.5c-1.9,0.4-4,0.4-5.9,0.4c-3,0-5-1.6-6-4.2c-0.7-1.7-1.3-3.6-1.2-5.4c0.4-5.1,0.8-10.2,1.9-15.1
		c0.7-3.2,2.5-6.2,4.1-9.1c0.4-0.8,1.4-1.5,2.3-1.8c3.5-1.1,7.1-2.4,10.8-2.9c3.7-0.5,7.4,0,11.2,0.1c1.3,0.1,2.8,0.3,4,0.9
		c1.1,0.6,2.4,1.6,2.8,2.7c0.5,1.5-1.2,2.1-2.3,2.9c-4.4,3.2-9.5,4.3-14.7,4.5c-6.8,0.3-14.4,7.9-12,16.4c0.7,2.4,1.1,3,3.5,3.1
		c2.9,0.1,5.7,0.1,8.6-0.1c4-0.4,7.9,0,11.8,0.8c1.2,0.3,2.5,0.7,3.7,0.6c3.7-0.1,6.6,1.7,9.5,3.6c2.5,1.7,3.7,3.9,4.3,6.6
		c1.1,5.2,0.8,10.4,0.4,15.6c-0.1,1.1-0.4,2.3-0.1,3.3c1.5,4.3-0.8,7.5-3.2,10.6c-3.2,4-7.1,6.5-12.5,6c-1.4-0.1-2.7,0-4.1,0
		C979.7,103.1,979.7,103.3,979.7,103.4z"/>
	<path class="var" d="M532.7,45c1.5-0.4,2.6,0.1,3.6,1.2c0.8,0.8,1.6,1.7,2.6,2c2.6,0.8,3.6,2.6,4.8,4.8c2.1,4.2,4.6,8.2,6.9,12.3
		c1,1.8,2,3.7,2.9,5.6c1.8,3.9,5.1,6.6,8,9.6c0.5,0.5,1.9,0.6,2.6,0.2c1-0.5,2-1.5,2.7-2.5c2.2-3.1,4.3-6.3,6.5-9.5
		c1.9-2.8,3.6-5.7,5.6-8.3c4.1-5.3,8.3-10.5,12.4-15.7c2.2-2.8,3.6-2.9,6.3-0.4c0.4,0.4,1,0.8,1.5,1.1c1.2,0.6,1.4,1.6,1.2,2.8
		c-0.7,3.9-2.5,7.3-4.6,10.5c-1.2,1.8-2.6,3.3-4,4.9c-2,2.3-3.3,4.6-3.1,8c0.1,2.4-1.3,5-2.5,7.3c-2.3,4.1-3.9,8.6-7.3,12.1
		c-1.8,1.8-1.7,4.3-1.7,6.7c0.1,4.4-4.6,8.6-8.8,7.9c-0.8-0.1-1.7-0.7-2.2-1.3c-2.1-2.4-4.1-4.9-6.1-7.4c-1.5-1.9-3.1-3.9-4.4-5.9
		c-1.7-2.7-3.1-5.6-4.8-8.4c-2.6-4.2-5.2-8.4-7.9-12.6c-2.4-3.8-4.9-7.5-7.1-11.3C533.4,54.4,531.8,50,532.7,45z"/>
	<path class="main" d="M728.6,95.7c-1.5-4.6-3.8-9-4-14.1c-0.3-9.4-0.6-18.9-0.9-28.3c0-1.2,0-2.5,0.2-3.7c0.6-3.9,2.4-6.9,6.3-8.5
		c3.9-1.6,7.6-3.7,11.4-5.4c0.9-0.4,2.2-0.4,3.2-0.3c3.7,0.6,7.3,1.2,11,2c4.3,0.9,7.2,3.3,8.5,7.9c1.8,6.2,3.5,12.4,3.6,19
		c0.1,5-1.5,7.5-6.3,9.3c-2.3,0.8-3.8,2.3-4.1,4.8c0,0.2,0,0.5-0.1,0.7c-2.4,7,1.7,10.9,6.7,14.6c1.7,1.2,3.4,2.6,4.6,4.2
		c1.5,2,0.9,4.6-1.1,5.8c-0.7,0.4-2.1,0.6-2.7,0.2c-2.2-1.4-4.3-2.9-6.1-4.7c-2-2-3.8-4.3-5.3-6.6c-2.8-4.2-5.4-8.6-8-12.9
		c-1.4-2.3-3.5-2.2-5.6-2c-2.4,0.2-5.3-0.2-6.4,2.7c-0.5,1.3-0.2,2.9-0.2,4.4c0.1,2.1,0.4,4.2,0.4,6.3
		C733.4,93.7,732.1,95,728.6,95.7z M742.1,69.6c0-0.1,0-0.2,0-0.3c1.7,0,3.5,0.1,5.2,0c1.8-0.2,3.7-0.7,5.5-1
		c6.4-1.2,6.2-1.3,7.2-7.5c0.7-4.4-0.2-8.4-1.6-12.4c-0.6-1.7-1.8-2.8-3.5-3.6c-3.4-1.6-7-1.5-10.6-1.6c-2.9-0.1-4.9,1.2-6.6,3.4
		c-4.4,5.8-5.6,12.6-6.4,19.6c-0.2,1.7,0.7,2.7,2.3,2.9C736.5,69.3,739.3,69.4,742.1,69.6z"/>
	<path class="main" d="M884.2,90.1c-0.7-1.6-1.7-3-1.9-4.5c-0.3-3.7-0.4-7.4-0.2-11.1c0.1-2.8-0.1-5.4-0.6-8.1
		c-0.6-3.5-0.6-7.2-0.5-10.7c0.1-5.8,0.7-11.6,0.9-17.5c0.1-3.3,0.6-4.1,3.9-4.7c6.9-1.3,13.9-2.8,20.8-4.2c3.2-0.6,6.4-0.8,9.6-0.2
		c1.8,0.4,3,1.3,3.9,3c2.1,4.4,2.3,9.1,2.6,13.8c0.2,2.4,0,4.7,0.1,7.1c0.2,3.7-1.2,6.6-4,8.8c-6.1,4.9-5.1,7.6,0.8,11.6
		c3.3,2.2,6.5,4.5,9.7,6.9c2,1.4,2.6,3.1,2,4.8c-0.7,1.8-3.2,3.2-5.3,2.6c-1.4-0.4-2.8-1.2-3.8-2.2c-3.4-3.4-7-6.6-11.4-8.8
		c-2.6-1.4-4.7-4-6.7-6.3c-1.5-1.8-3-2.8-5.4-2.6c-2,0.2-4-0.1-6,0c-3,0.1-3.7,0.9-3.8,3.9c-0.1,4-0.1,8,0,11.9
		C889.3,86.7,888,88.8,884.2,90.1z M894.7,60.4c0,0.2,0.1,0.4,0.1,0.5c5.7-1.2,11.4-2.3,17.1-3.5c2.2-0.5,3.6-1.8,3.6-4.1
		c0-5.1,0-10.1-0.2-15.2c0-0.8-1.3-1.8-2.1-2.1c-1.3-0.4-2.7-0.3-4.1-0.2c-4.7,0.6-9.3,1.2-13.9,2.2c-3.6,0.7-6.5,2.6-6.8,6.8
		c-0.2,3.4-0.3,6.9-0.2,10.4c0.1,5.1,0.2,5.1,5.1,5.3C893.7,60.4,894.2,60.4,894.7,60.4z"/>
	<path class="var" d="M386.2,67.8c0,0,0.6-0.1,1.2,0c7,1.5,14.1-0.1,21.1,0c2.8,0,5.6-0.7,8.4-1.3c1.9-0.4,3.8-1.2,5.7-1.7
		c1.1-0.2,2.3-0.3,3.3,0c2.1,0.7,4.2,1.6,6.2,2.6c2.8,1.4,3.3,2.9,2.4,6.1c-0.7,2.5-1,5.1-1.6,7.6c-0.2,0.8-0.8,1.5-1.4,2.1
		c-3.6,3-7.8,4.3-12.5,4.1c-0.4,0-0.9,0.1-1.1-0.1c-2.2-2.1-4.9-1.4-7.6-1.4c-2.7,0-5.4-0.6-8.1-0.7c-5.1-0.3-10.1-0.6-15.2-0.8
		c-1.9-0.1-3.7,0.3-5.6,0.2c-4.6-0.3-9.2-0.7-13.7-1.1c-2.1-0.2-2.9-1.4-3.3-3.4c-1.1-6.3,2.4-9.6,8.8-11c2-0.4,4.2-0.5,6.3-0.6
		C381.5,68,383.5,67.9,386.2,67.8z"/>
	<path class="var" d="M478.1,67.9c1.3-2.5,3.1-2.6,5.2-2.4c8,0.6,15.9,0.2,23.7-1.6c4.4-1,8.1-0.2,11.4,2.6c0.7,0.6,1.3,2.1,1.1,2.9
		c-1.1,3.9-2.2,7.9-4,11.5c-0.8,1.5-3.4,2.5-5.3,3c-5.5,1.4-11,1.5-16.7,0.9c-6.9-0.7-13.8-1-20.8-0.1c-1.8,0.2-3.7,0.3-5.6,0.5
		c-0.7,0.1-1.7-0.1-2.2,0.3c-2.6,1.9-5,0.7-7.6-0.2c-1.6-0.5-2.6-1.5-3-3c-0.6-2.7-1-5.4-1.2-8.1c-0.2-2.7,0.8-3.9,3.4-4.5
		c4.9-1.1,9.9-2.2,14.8-3.2C473.6,66,475.8,65.7,478.1,67.9z"/>
	<path class="main" d="M810.4,68.1c0.5-6.2,0.6-11.5,3.1-16.3c2.5-4.9,6.1-8.4,11.7-9.4c1.1-0.2,2.1-0.7,3.2-1.1
		c0.9-0.3,1.8-0.8,2.8-0.9c8.8-1,17.7-1,26,2.5c4.3,1.8,6.8,4.4,5.5,9.2c-0.3,1.1-0.6,2.3-0.4,3.3c1.7,7.6-0.3,14.8-1.6,22.1
		c-0.4,2.2-0.9,4.4-1.3,6.6c-1,5.9-4.5,9.8-10.4,10.6c-5.6,0.9-11.3,1.4-17,1.9c-2.9,0.3-5.9,0.4-8.9,0.4c-4.7-0.1-9.2-3.8-10-8.5
		C812,81.4,811.2,74.2,810.4,68.1z M818.5,68.3c0.5,4.8,1.2,10.6,1.9,16.4c0.3,2.5,1.7,4.1,4.1,4.8c1.1,0.3,2.2,0.8,3.3,0.7
		c5.6-0.6,11.1-1.3,16.7-2.1c2.3-0.3,3.9-1.6,4.8-3.7c0.5-1.1,1.1-2.2,1.5-3.4c2.5-6.4,4.2-12.9,5.1-19.8c0.5-3.8,0.9-7.2-0.8-10.8
		c-0.9-1.8-2-2.9-3.8-3.7c-4.9-2-9.9-2.1-15-1.1c-2.7,0.5-5.5,1-8.2,1.4c-4.3,0.7-7.8,3.2-8.4,7.6C819,58.7,818.9,62.9,818.5,68.3z"
		/>
	<path class="main" d="M792.8,66.8c-0.7,6.3,0.4,11.3,1.6,16.3c0.9,3.6-2.5,6.9-6,6.1c-1.6-0.3-2.5-1.9-2.5-4.5c0-3,0.1-6-0.1-8.9
		c-0.3-4.8-0.6-9.7-1.1-14.5c-0.2-2.6,0.1-4.9,1-7.3c0.6-1.5,1.7-2,3.3-1.8c1.5,0.2,2.1,1.2,2.2,2.5
		C791.9,59.1,792.4,63.5,792.8,66.8z"/>
	<path class="main" d="M796.1,34.1c0,4.7-3.5,8.7-7.8,8.8c-4.1,0.1-8.1-3.6-7.8-7.8c0.4-6.4,2-8.8,7.5-9
		C792.2,25.9,796.1,29.9,796.1,34.1z"/>
</g>
<g>
	<path class="main" d="M689.4,299.4c-0.1-0.4-0.1-0.5-0.1-0.6c0.4-3.2,0.5-3.2,3.7-3c2.8,0.2,5.6,0.6,8.4-0.1c1-0.2,2.1-0.1,3,0.1
		c2.4,0.5,4.7,1.2,7.1,1c1-0.1,2,0.2,3.1,0.4c2.8,0.3,5.6,0.7,8.4,0.9c2.7,0.2,5.4,0.6,8,0.5c2.8-0.1,5.6-0.5,8.4-1
		c1.7-0.3,2.6-1.5,2.6-3.2c0-1.1-0.1-2.2,0-3.3c0.3-4.1,0.6-8.3,0.8-12.4c0.1-0.9-0.2-1.9-0.3-2.8c-0.2-1.8-0.3-3.6-0.4-5.3
		c0-0.4,0-0.9-0.1-1.2c-1.1-3-1-6.2-1.2-9.4c-0.4-5.1-1.2-10.1-1.8-15.2c-0.3-3.1-1.1-6.1-2.1-9c-0.3-0.9-0.3-1.9-0.5-2.8
		c-0.2-1-0.8-1.5-1.7-1.4c-0.9,0-1.8,0.2-2.7,0.2c-4,0.2-8,0.5-12-0.4c-2.2-0.5-3.3-1.8-4.3-3.5c-0.6-0.9-1.2-1.9-1.5-2.9
		c-0.3-0.9-0.5-1.9-0.5-2.8c0-1.2,0.3-2.4,0.6-3.7c0.2-1,1.1-1.4,1.9-1.8c3-1.6,5.6-3.8,7.7-6.4c1.5-1.9,1.6-3.8,0.7-5.8
		c-1.3-2.7-3-5.1-5.2-7.2c-0.4-0.4-0.9-0.7-1.4-0.8c-3.1-0.7-6.2-1.2-9.4-1.1c-1.5,0-3,0-4.5,0.1c-3.2,0.2-6,1.6-8.8,2.8
		c-2.2,0.9-3.5,2.9-4.5,4.9c-0.3,0.5-0.4,1.2-0.8,1.6c-1.9,1.9-2.3,4.5-2.9,7c-0.5,2,0,3.5,2.7,3.6c2.7,0.1,5,1.1,7.3,2
		c1.2,0.5,2.1,1.7,3.1,2.6c0.3,0.2,0.4,0.8,0.3,1.2c-0.1,1.9-0.4,3.9-1.9,5.3c-0.7,0.7-1.4,1.3-2.1,2c-1,1-2.1,1.5-3.5,1.5
		c-1.2,0-2.6,0.6-3.7,0.3c-1.9-0.6-3.8-0.3-5.7-0.6c-2.5-0.4-3.4,0.7-3.6,3.2c-0.2,2.4-0.5,4.8-1,7.1c-0.6,3.2-1.3,6.3-1.3,9.6
		c0,1.8-0.1,3.6-0.4,5.4c-0.2,1-0.7,1.9-1.3,2.7c-0.7,1-1.5,0.9-2.1-0.2c-0.3-0.6-0.4-1.4-0.5-2.2c0-1.2,0.1-2.3,0.2-3.5
		c0.1-4.3,0.2-8.7,0.4-13c0.1-3.2,0.4-6.3,0.6-9.5c0.2-2.1,0-2.3-2-3.2c-1.1-0.5-2.2-1.1-3.2-1.9c-1.8-1.4-2.7-3.3-2.2-5.6
		c0.1-0.4,0.2-0.8,0.1-1.2c-0.5-3.2,0.8-6.1,1.7-9.1c1.3-4.1,2.7-8.1,4.1-12.1c0.4-1.1,1-2.1,1.6-3.1c1.1-2,2.1-4,3.2-6
		c0.2-0.4,0.4-0.9,0.6-1.3c1.6-2.3,3.2-4.5,4.7-6.8c0.3-0.5,0.6-1.1,0.9-1.6c0.8-1.6,2-3,3.5-4c1.1-0.8,2.1-1.8,3-2.8
		c1-1.1,2.1-2,3.7-1.9c0.3,0,0.6,0,0.8-0.1c2.3-1.1,4.4-0.5,6.6,0.3c1.7,0.6,3.6,1,5.3,1.7c0.9,0.3,1.7,0.9,2.5,1.5
		c1.6,1.3,3.2,2.7,5.2,3.4c0.5,0.2,1,0.7,1.4,1.1c2,2,4,4,6,6c0.1,0.1,0.4,0.3,0.4,0.4c1.2,2.6,3.8,3.6,5.8,5.5
		c0.5,0.5,1.1,0.9,1.4,1.5c1.6,3.1,3.8,5.7,5.2,8.8c1.5,3.1,3.1,6.2,4.1,9.7c0.9,3,2.2,6,3.7,8.7c2.2,4,2.1,8.1,1.2,12.3
		c-0.1,0.7-0.9,1.3-1.5,1.9c-1.3,1.1-1.4,1.4-0.7,3c0.9,2.2,1.9,4.4,2.7,6.7c0.8,2.4,2.5,3.9,4.5,5.1c1.2,0.7,2.5,1.5,3.7,2.2
		c0.5,0.3,0.9,0.6,1.4,0.9c1.8,0.9,3.6,1.7,5.4,2.6c1.6,0.8,2.3,0.8,3.2-0.8c1.5-2.5,2.9-5,4.3-7.5c0.5-0.8,1-1.7,1.6-2.4
		c1.5-1.5,2.1-3.5,2.9-5.4c0.9-1.9-0.1-3-2-3c-1.7,0-3.4,0.3-5.1,0.5c-0.5,0.1-1.1,0.3-1.6,0.3c-1.6,0.1-2.1-0.8-1.8-2.3
		c0.7-3.5,3.6-4.6,6.3-5.9c0.6-0.3,1.2-0.4,1.8-0.6c1.9-0.4,2.6-1.9,3-3.6c0.1-0.4-0.2-1-0.5-1.2c-1.4-1.1-2.9-2.1-4.4-3.1
		c-0.2-0.1-0.4-0.3-0.6-0.3c-2.5-0.2-4-2.3-6-3.4c-1-0.6-1.3-1.3-0.9-2.4c0.5-1.4,0.7-1.7,2.1-1.8c2.2-0.2,4.3,0.3,6.2,1.3
		c1.4,0.7,2.8,0.7,4.2,0.5c1-0.1,1.5-0.5,1.4-1.6c-0.2-1.4,0-2.9-0.4-4.3c-0.6-2.3-0.7-4.7-1.9-6.9c-1-1.9-0.5-4.1,0.1-6.1
		c0.3-1.2,2-1.3,3.1-0.1c0.9,1,1.7,2,2.5,3.1c1,1.3,1.8,2.6,2.8,3.9c0.8,1.1,1.8,1.7,3.2,1.6c1.2-0.1,1.7-1.2,2.2-2.2
		c1.8-3.2,2.1-6.7,2.8-10.1c0.1-0.5,0.1-1.1,0.5-1.3c0.7-0.5,1.6-1,2.4-0.9c0.9,0.1,0.8,1.1,0.9,1.9c0.1,3.7,1,7.2,2.1,10.7
		c0.7,2.3,1.9,3.2,4.2,2.5c2.9-0.9,5.6-2.2,8.4-3.4c1.3-0.6,2.6-1.3,3.9-1.8c0.5-0.2,1.2,0,1.7-0.1c0,0.6,0.1,1.2,0,1.7
		c-0.4,1.8-1.3,3.2-2.9,4.3c-1.9,1.3-2.3,3.5-2.8,5.6c-0.2,0.9,0.3,1.4,1.1,1.7c1.8,0.5,3.6,1.1,5.4,1.5c1.5,0.4,3,0.5,4.5,0.9
		c1.1,0.3,2.8,0.5,2.7,2.1c0,1.5-1.6,1.7-2.8,2c-2.3,0.6-4.6,1.1-6.8,1.6c-1.5,0.4-2.5,1.2-2.6,2.8c0,0.5,0.1,1.1,0.3,1.5
		c1.9,3.5,4.4,6.5,6.9,9.5c0.6,0.7,0.9,1.3,0.4,2.2c-0.7,1.2-1.6,1.5-2.7,0.7c-2.2-1.6-4.7-2.3-7.2-2.9c-1.1-0.3-2-0.9-3-1.3
		c-0.5-0.2-1-0.5-1.5-0.6c-1.4-0.4-1.9-0.3-2.2,1.2c-0.3,1.6-0.5,3.2-0.5,4.9c0,1,0.1,1.9,0.3,2.9c0.2,0.9,0.3,1.7,0.7,2.5
		c0.5,1.1,0.6,2.1-0.1,3.1c-0.5,0.7-1.1,0.9-1.8,0.3c-0.6-0.5-1.1-1.1-1.4-1.7c-0.8-1.4-1.5-3-2.2-4.4c-0.6-1.2-1.2-2.3-1.9-3.4
		c-0.3-0.4-1-0.8-1.5-0.8c-0.3,0-0.8,0.7-1,1.2c-0.9,3.2-1.6,6.4-1.2,9.8c0.1,0.9,0,1.8-0.2,2.6c-0.2,0.5-0.8,1.1-1.2,1.2
		c-0.4,0.1-1.1-0.5-1.4-0.9c-0.4-0.6-0.7-1.4-0.8-2.1c-0.5-3.3-1.9-6.3-3.2-9.4c-0.3-0.8-0.8-1.3-1.9-1.2c-2.1,3.3-4.3,6.7-6.5,10.1
		c-0.8,1.3-1.5,2.6-1.6,4.2c0,0.6-0.6,1.2-0.9,1.8c-0.9,1.5-1.8,2.9-2.6,4.4c-1,1.7-1.9,3.5-2.8,5.3c-1.9,3.9-4.3,7.5-4.8,12
		c-0.3,2.7-1.4,3.3-4,2.7c-0.7-0.2-1.5-0.3-2.2-0.5c-1.7-0.5-2.3-1.7-1.9-3.3c0.2-0.6,0.6-1.2,0.9-1.8c2.1-3.5,4.1-7,5.4-10.9
		c0.3-1,0.1-1.5-0.7-2c-2.8-1.6-5.8-2.6-9-2.6c-1.1,0-2.2-0.2-3.3-0.1c-1.4,0.1-1.7,0.6-1.7,2c0.2,4.5,0.9,8.9,1.6,13.3
		c1,5.9,1.9,11.8,2.6,17.8c0.4,3.6,0.4,7.3,0.5,11c0,2.4-2.1,4.3-4.5,4.4c-2.6,0.2-5.2,0.5-7.8,0.7c-3.2,0.2-6.3,0.4-9.5,0.6
		c-2.1,0.1-2.1,0.1-2.9,1.9c-2.4,5.3-2.6,10.8-1.6,16.4c0.3,1.9,0.5,3.7-0.7,5.4c-0.3,0.4-1,1.1-1.4,1c-0.5-0.2-1.2-0.8-1.3-1.3
		c-0.5-3.6-2-7-1.8-10.8c0-1.6-0.7-3.2-1-4.8c-0.5-2.4-1-4.9-1.4-7.3c-0.2-0.9-0.6-1.4-1.5-1.7c-3-0.8-6-0.7-9-0.8
		c-1.9-0.1-1.8,0.2-2.2,2.1c-0.6,3.8,0.6,7.4,1.3,11c0.6,3,1.5,6,2.3,9c0.2,0.8,0.4,1.7,0.3,2.4c-0.1,0.8-0.5,1.7-1,2.4
		c-0.9,1.1-1.7,1-2.3-0.4c-0.5-1.2-0.8-2.5-1.2-3.7c-0.1-0.3,0-0.7-0.1-1c-1.3-4.7-2.6-9.4-3.9-14.1c-0.1-0.4-0.5-0.8-0.7-1.3
		c-0.7-1.1-1.4-2.2-1.9-3.4c-0.9-2.1-2.7-3.2-4.6-4.3C690.1,299.6,689.7,299.5,689.4,299.4z M798.6,208.1c-0.9-0.9-1.7-2-3.1-2.3
		c-1-0.2-2-0.4-3-0.7c-2.9-0.7-5.6,0-7.8,1.7c-2.9,2.4-5.5,5.2-6.8,8.9c-0.2,0.5-0.3,1.3,0,1.7c0.7,1,0.6,1.8,0.2,2.9
		c-1,2.5,0,5.5,2.3,6.8c0.5,0.3,1.2,0.4,1.7,0.4c2.5-0.3,4.9-0.7,7.4-1.1c1.8-0.3,3.4-1,4.8-2.2c0.4-0.4,0.9-0.6,1.4-0.9
		c1.9-1.2,3.6-2.5,4.1-4.9c0.1-0.3,0.2-0.7,0.5-0.9c2.1-2.3,1.3-5,1.2-7.7c0-0.2-0.4-0.5-0.9-1L798.6,208.1z"/>
	<path class="main" d="M513.7,150.7c0.3,1.8,0.3,3.7,0.6,5.5c0.2,1.1,0.7,2.2,1.2,3.2c0.6,1.2,1.5,2.2,1.9,3.4c0.4,1,0.6,2.2,0.6,3.4
		c0,2-0.9,3.4-3,4.3c-1.8,0.7-3,2.2-2.8,4.3c0,0.3,0,0.7-0.1,1c-0.5,2.6-0.2,5.1,0.6,7.6c0.2,0.5,0.3,1.1,0.4,1.6
		c0.3,1.8,0,2.3-1.7,2.9c-0.9,0.3-1.4,0.8-1.6,1.7c-0.3,2-1.1,3.9-0.4,5.9c0.1,0.3,0,0.5,0,0.8c0,4.1,0,8.1,0,12.2
		c-0.1,5.2-0.2,10.5-0.3,15.7c0,1,0.1,2.1,0.1,3.1c0,1.9,0,3.7,0,5.6c0,1.6,0,3.3,0.1,4.9c0,1.3,0.1,2.6,0.2,3.9
		c0,0.6,0,1.3,0.3,1.8c0.9,1.4,0.8,2.9,0.9,4.4c0.3,3.8,0.6,7.6,0.9,11.4c0,0.3,0.2,0.7,0.2,1c1.4,0.4,2.6-0.3,3.5-0.9
		c2.2-1.5,4.8-2,7.2-3.2c3.6-1.7,6.9-4,9.5-7.2c0.5-0.6,0.7-1.5,0.8-2.3c0.3-2,0.5-4.1,0.8-6.2c0.5-2.5,1.1-5,1.7-7.4
		c0.1-0.5,0.3-0.9,0.3-1.4c0.2-1.4-0.2-2-1.6-2.1c-1.2-0.1-2.2-0.3-2.2-1.8c0-0.3-0.4-0.8-0.7-0.9c-1.1-0.4-1.4-1.3-1.2-2.3
		c1-5.6,1.7-11.2,4-16.4c0.7-1.5,0.9-3.3,1.3-5c0.3-1.6,0.9-3,1.6-4.4c1.4-2.7,2.5-5.7,3.8-8.5c0.7-1.5,1.4-3,2.1-4.5
		c0.8-1.7,1.9-3.2,2-5.2c0-0.7,0.3-1.4,1.1-1.5c2.3-0.5,3.8-2.2,5.5-3.5c4.4-3.5,9.3-4.3,14.6-3.1c0.3,0.1,0.8,0.2,0.9,0.4
		c0.7,1.4,2.2,1.6,3.3,2.3c3.4,2.3,6.5,5,8.7,8.6c2.4,3.9,4.2,8.1,6.3,12.1c1.4,2.8,2.4,5.7,3.8,8.5c1.5,3.3,3.2,6.5,4.8,9.8
		c0.4,1,0.6,2.1,0.7,3.2c0.1,1,0,2.1,0,3.1c0.1,1.7-0.5,3-2,3.8c-1.2,0.6-1.3,1.4-1,2.6c0.3,1,0.5,2,0.7,3c0.1,0.5,0.2,1.1,0.2,1.6
		c0.1,0.9-0.3,1.5-1.2,1.7c-0.9,0.1-1.5-0.3-1.8-1.1c-0.6-1.7-1.2-3.4-1.7-5.1c-0.3-1.1-0.8-1.6-1.8-1.5c-0.7,0-1.4,0-2,0.3
		c-3.5,1.7-7.2,1.9-10.9,1.8c-2.7-0.1-4.4-1.3-5.2-3.9c-0.8-2.7-1-5.5-0.8-8.2c0.1-1.8,1.6-2.8,3.1-3.6c0.7-0.4,1.6-0.5,2.4-0.8
		c1.3-0.5,2.2-1.4,2-2.8c-0.2-2.1-0.4-4.3-0.9-6.3c-0.6-2.3-3.1-3.8-5.5-3.9c-3.1-0.1-6.2-0.3-9.3-0.3c-3.7,0-7.5-0.1-11,1.1
		c-1.7,0.6-3,1.6-3.8,3.2c-1.6,2.9-2.1,6.1-2.3,9.3c-0.2,1.9,0.5,3.2,2.4,3.4c2.6,0.4,5.2,1,8,0.4c2.8-0.6,5.5,0.2,7.4,2.7
		c0.5,0.6,0.9,1.5,0.9,2.2c0,1.6,0,3.2-0.4,4.7c-0.5,1.6-2.1,2.5-3.7,3c-4,1.2-8.1,1.5-12.3,1.4c-2.8,0-3.6,0.6-4,3.4
		c-0.3,2.2-0.4,4.5-0.5,6.8c0,1.4-0.4,2.6-0.9,3.9c-1,2.3-1.7,4.9-1.9,7.4c-0.4,3.8-1.9,7.3-2.6,11.1c-0.1,0.5-0.3,0.9-0.4,1.4
		c-0.7,3.7-1.3,7.5-1.9,11.2c-0.3,1.7-0.4,3.4-0.5,5.1c-0.1,1.4-0.4,2.7-0.5,4.1c-0.1,1.1,0,2.2,0,3.3c0.1,3.4,2.5,5.5,6,5.6
		c5.4,0.1,10.8,0.6,16.1-0.7c0.3-0.1,0.7-0.1,1-0.1c2.5,0.2,4.9-0.4,7.4-0.8c3.2-0.6,6.5-1,9.9-0.6c1.4,0.2,2.8,0,4.2,0.6
		c1.4,0.7,1.8,1.9,1,3.2c-0.3,0.5-0.7,0.9-1.1,1.2c-0.9,0.8-1.7,1.6-1.9,2.8c0,0.3-0.3,0.7-0.5,0.9c-1.3,1-1.7,2.5-1.7,4.1
		c-0.1,2.5-0.2,5,0,7.4c0.3,3.1,0.9,6.1,1.4,9.2c0.3,1.9-0.5,3.2-1.6,4.5c-0.5,0.5-1,0.5-1.4,0c-0.4-0.5-0.8-1-0.9-1.6
		c-1-5.7-1.8-11.4-2-17.3c-0.1-2.1-0.1-4.3-0.2-6.4c0-0.3-0.2-0.6-0.3-1.1c-0.5,0-1-0.1-1.5-0.1c-1.7,0.1-3.4,0.3-5.2,0.5
		c-0.9,0.1-1.5,0.6-1.3,1.5c0.7,3.9-0.4,7.7,0,11.6c0.2,1.5,0.4,3,0.6,4.5c0.1,0.5,0.3,1.1,0.3,1.6c-0.1,2.3,0.8,4.3,1.8,6.3
		c0.5,1,0.7,1.9,0.2,3c-1,2.1-2.3,2.3-3.6,0.3c-1.1-1.7-1.8-3.5-2.6-5.4c-1.7-3.9-2.4-8.1-3.4-12.1c-0.7-2.8-2-5.3-3-7.9
		c-0.5-1.2-1.5-1.4-2.6-1.2c-3.7,0.7-7.3,0.1-10.9-0.4c-0.8-0.1-1.7-0.6-2.4-1c-1.1-0.7-2-1.4-3-2.2c-1.5-1.2-2.5-2.6-2.6-4.7
		c-0.5-6.1-0.7-12.1,0.8-18.1c0.8-3.5,1.4-7,2-10.6c0.6-3.5,0.3-4.1-3.7-3.6c-1.4,0.2-2.8,0.8-4.2,1.2c-2.9,0.7-5.4,1.9-7.7,3.8
		c-0.2,0.2-0.5,0.3-0.8,0.3c-0.9,0.2-1.2,0.8-1.1,1.7c0.6,5.9,1.2,11.8,1.8,17.7c0.4,4.4,1.3,8.7,1.4,13.2
		c0.2,5.6,0.7,11.3,2.3,16.8c0.5,1.8,0.7,3.8,1,5.7c0.2,0.8,0.6,1.6,0.6,2.4c0.1,1.6,0.3,3.3,0,4.9c-0.1,0.7-1.1,1.4-1.9,1.7
		c-0.9,0.3-1.9,0.2-2.9,0c-0.9-0.2-1.6-0.8-1.7-1.8c-0.2-1.1-0.4-2.2-0.5-3.3c-0.4-4.3-0.7-8.5-1-12.8c-0.3-3.8-0.5-7.6-0.7-11.4
		c-0.2-3-0.2-5.9-0.4-8.9c-0.1-1.9-0.6-3.8-0.8-5.7c-0.4-3.8-0.7-7.5-1-11.3c-0.4-4.5-0.7-9.1-1-13.6c-0.2-3.2-0.3-6.3-0.6-9.5
		c-0.5-5.1-1.3-10.3-1.8-15.4c-0.4-4-0.4-8-0.5-12c-0.1-3.4-0.2-6.8-0.2-10.1c0-1.2,0.1-2.5,0.2-3.7c0-1,0.2-2.1,0-3.1
		c-0.5-4.2-0.3-8.4-0.1-12.6c0.1-1.4-0.1-2.8-0.3-4.1c-0.1-0.6-0.7-1.2-1.2-1.6c-1.4-1-1.8-2.3-1.5-4c0.5-2.8,0.9-5.6,1.3-8.4
		c0.3-1.9,0.1-3.6-1.9-4.6c-1.6-0.8-1.7-2.2-1.9-3.9c-0.3-2.6,0.4-4.9,1-7.3c0.4-1.7,1.2-3.4,1.9-5c0.9-2.2,1.8-4.5,1.9-7
		c0-0.3,0.1-0.7,0.2-1c1.7-2.5,2-5.6,3.3-8.2L513.7,150.7z"/>
	<path class="main" d="M615.3,246.2c-0.2,0.5-0.4,0.9-0.6,1.4c0.8,0.7,1.5,1.3,2.1,2c2.3,2.5,2.2,5.5,1.6,8.6
		c-0.4,2.3-0.8,4.6-1.3,6.9c-0.1,0.7-0.3,1.5-0.6,2.2c-0.8,1.6-2,2.7-4.1,2.7c-5.2,0-10.1-1.1-14.7-3.6c-0.6-0.3-1.2-0.6-1.9-0.9
		c-2.4-0.9-4.1-2.5-5.4-4.6c-2.4-3.9-2.6-8.1-1.7-12.4c0.3-1.6,1-3,2.1-4.2c0.6-0.6,1.1-1.4,1.4-2.3c1.3-3.2,3.3-5.9,5.4-8.5
		c1.9-2.4,3.6-5.1,6-7.1c1.9-1.5,3.7-3.1,5.3-4.8c1.6-1.8,3.4-3.3,5.5-4.6c1.5-0.9,3-1.8,4.3-2.8c3.1-2.3,6.6-3.8,10.1-5.2
		c2.3-0.9,4,0.1,5.8,1.2c0.9,0.5,1.7,1.1,2.6,1.7c0.4,0.3,1,0.4,1.2,0.8c1,1.6,2.8,2.1,4.3,3c1.7,1,3.1,2.2,5,2.8
		c0.3,0.1,0.6,0.4,0.8,0.7c1.1,1.8,3,2.6,4.7,3.6c3.3,1.9,6.4,4,8.4,7.4c1.1,1.9,2.7,3.5,4.1,5.2c1.2,1.5,2,3,2.2,5
		c0.2,2.1,1.1,4.1,1.8,6.1c0.8,1.9,1.2,3.8,1.2,6c0.1,3-1,5.5-1.9,8.2c-0.6,2-1.8,3.7-4.2,4.2c-2.7,0.6-5.3,1.6-7.9,2.1
		c-1.2,0.2-2.5-0.2-3.7-0.3c-1-0.1-2,0-3.1-0.1c-2-0.1-4-0.1-6-0.3c-0.5-0.1-1.1-0.6-1.3-1.1c-0.6-1.3-1-2.7-1.5-4.1
		c-0.4-0.9-0.6-2-1.3-2.8c-1.8-2.2-2.7-4.8-3.1-7.6c-0.2-1.4,0.3-3,0.7-4.4c0.1-0.4,0.9-0.9,1.4-1c1.2-0.2,1.9-0.9,2.7-1.7
		c1.3-1.5,2.8-2.9,4.2-4.3c1.1-1.2,1-1.7,0-2.8c-0.7-0.8-1.3-1.6-2.1-2.3c-0.7-0.6-1.7-1.3-2.5-1.3c-2.2,0.1-4.1-0.9-6.3-1.1
		c-4.2-0.4-8.4-0.5-12.6,0.1c-2.6,0.4-4.5,2.1-6.1,4c-1.3,1.5-2.4,3.4-3.1,5.3C612.5,243.5,613.1,244.8,615.3,246.2z"/>
	<path class="main" d="M600.1,285.7c0.1-2.5-1.4-5,1.2-6.6c1.2,0.4,1.6,1.4,1.9,2.4c0.5,1.1,0.9,2.3,1.3,3.5c0.6,1.5,1.2,1.9,2.7,1.5
		c1.8-0.4,3.6-1,5.4-1.5c2.5-0.8,4.9-1.7,7.4-2.6c0.6-0.2,1.2-0.5,1.7-0.8c2.9-2,6.6-1.9,9.8-3c0.5-0.2,1.5,0,1.9,0.3
		c0.7,0.6,0.1,1.4-0.2,2.1c-1.1,1.9-2.8,2.7-4.8,3.3c-5.3,1.6-10.3,4-15.1,6.7c-1.1,0.6-2.1,1.5-3.2,2.3c-0.9,0.7-1.1,1.5-0.6,2.5
		c0.6,1.4,1.2,2.8,1.8,4.2c0.2,0.4,0.4,1,0.2,1.4c-0.2,0.6-0.7,1.1-1.1,1.6c-0.4-0.4-1-0.7-1.3-1.1c-1-1.6-1.9-3.2-2.9-4.7
		c-0.9-1.4-1.5-1.5-2.9-0.5c-1.4,1-2.9,2.1-4.3,3.2c-2,1.6-2.9,1.6-4.6-0.2c-1.3-1.4-2.2-3-2.5-4.9c-0.2-1.3,0.1-2.1,1.1-2.9
		c0.6-0.4,1.2-0.9,1.8-1.4c-2.2-2.2-4.7-2.9-7.5-2.5c-0.5,0.1-1,0.6-1.4,1c-0.4,0.5-0.7,1.2-0.9,1.8c-1.1,3-2.7,5.9-3.2,9.1
		c-0.3,2.7,0.7,6.2,4,7.4c3.9,1.4,7.8,2.7,12.1,2.6c2.7,0,5.3,0.6,8,0.9c2.8,0.4,5.6,0.8,8.4,1.1c3.4,0.4,6.7,0.6,10.1,1
		c3.9,0.4,7.8,0.8,11.7,0c2-0.4,4.1-0.1,6.1-1.1c0.6-0.3,1.3-0.6,1.9-0.8c1.3-0.6,2.6-1.2,4-1.7c2.4-0.9,4.8-1.6,7.2-2.6
		c1.5-0.6,2.9-1.6,4.2-2.5c1.2-0.8,1.2-1.3,0.1-2.3c-1.2-1-2.4-2.1-2.9-3.7c-0.1-0.4-0.4-0.7-0.7-1c-1.9-1.4-2.8-3.6-4.1-5.4
		c-0.2-0.3-0.5-0.6-0.5-0.9c-0.4-2.9-2.8-4.7-4.4-6.9c-1.4-2-2.4-4.4-2.7-6.8c-0.1-0.5,0.2-1.3,0.6-1.6c1.5-1.2,3-2.5,4.6-3.5
		c3.8-2.4,7.8-4,12.4-3.8c1.6,0.1,3.3-0.3,4.9-0.5c1.1-0.1,2.2-0.2,3.3-0.3c2.1-0.1,4.1-0.2,6.2-0.3c2.9-0.1,5.7,0.1,8.2,1.5
		c1.7,0.9,3.3,2,3.6,4.2c0.1,0.9,0.8,1.7,1.1,2.7c0.7,2.2,0.4,4.4-0.2,6.5c-0.6,2.5-1.3,4.9-2.1,7.4c-0.3,1-0.8,2-1.3,3
		c-0.6,1.5-1.3,2.9-1.9,4.4c-0.2,0.4-0.2,0.8-0.4,1.2c-2.2,3.6-3.1,7.7-4.7,11.4c-1.3,2.9-4.9,4-7.7,2.4c-2.6-1.4-5.2-2.9-7.1-5.2
		c-0.2-0.2-0.5-0.3-0.8-0.4c-2,1.2-4.1,2.3-5.9,3.8c-0.8,0.7-1.2,2.1-1.5,3.3c-0.9,4.3-1.1,8.8-1.3,13.2c-0.1,1.2-0.2,2.3-0.5,3.5
		c-0.2,0.6-0.6,1.3-1.1,1.6c-1.5,1-2.6,0.4-2.6-1.4c0-2.5,0.1-5,0.2-7.4c0-1.3,0.1-2.6,0.1-3.9c-0.1-1.8-1.1-3.3-2.1-4.6
		c-0.5-0.7-1.4-0.7-2.1-0.2c-4,3.1-8.9,2.8-13.5,3.2c-4.7,0.4-9.4-0.1-14-0.7c-1.4-0.2-2.8-0.1-4.1-0.1c-1,0-1.5,0.5-1.7,1.5
		c-0.4,2.2-0.8,4.4,0,6.5c0.2,0.5,0.2,1.1,0.4,1.6c0.7,2.1-0.5,3.3-1.9,4.4c-0.8,0.6-1.4,0.4-1.8-0.5c-1.2-2.8-2.3-5.6-3.5-8.4
		c-0.5-1.2-1.1-2.4-2.1-3.3c-0.7-0.6-1.3-1.4-1.8-2.2c-0.8-1.2-1.8-1.9-3.2-1.9c-3.5-0.1-6.8-0.8-10.2-1.7c-3.1-0.8-6-2.2-8.4-4.2
		c-1.7-1.3-2.4-3.3-2.4-5.5c-0.1-3.7,0.7-7.2,2.4-10.6c0.3-0.5,0.5-1.2,0.5-1.8c0.1-1,0.4-1.9,1.2-2.6c0.9-0.9,1-1.9,0.4-3
		c-0.5-0.8-0.8-1.8-1.3-2.6c-1.4-2.2-1.1-3.8,0.8-5.4c2.1-1.6,4.2-3.1,6.2-4.8c0.6-0.5,1-1.3,1.5-1.9c0.8-0.9,1.6-1.9,2.6-2.6
		c0.9-0.6,1.6-0.2,1.8,0.8c0.3,1.7,0.4,3.2-0.8,4.7c-1.1,1.3-2.1,2.8-3,4.2c-1.2,2-0.8,2.6,1.2,3.6c2,0.9,3.8,2.2,5.7,3.3
		C598.1,284.7,599,285.1,600.1,285.7z M653.7,283.9c0.1,0.7,0.2,1.9,0.7,2.9c1,1.9,2.2,3.9,3.6,5.6c2.3,2.9,4.3,6.1,7.1,8.6
		c1.4,1.2,2.4,2.8,3.7,4.2c0.6,0.7,1.2,1.3,2,1.8c1.3,0.8,2.3,0.5,3.1-0.8c0.6-1,1-2.1,1.4-3.2c0.6-1.5,1-3,1.5-4.5
		c1.1-2.9,2.4-5.7,3.2-8.7c1.2-4.1,2-8.3,2.9-12.4c0.1-0.3,0.2-0.7,0.2-1c0.3-2.2-0.7-3.8-2.9-4.2c-1.6-0.3-3.3-0.3-4.9-0.3
		c-1.3,0-2.6,0.2-3.9,0.3c-0.6,0-1.1,0.1-1.6,0.2c-2.4,0.5-4.7,0.9-7,1.6c-2.6,0.7-5.4,0.9-7.4,3c-0.5,0.5-0.9,1.2-1.1,1.9
		C654,280.3,653.9,281.8,653.7,283.9z"/>
	<path class="main" d="M564.8,210.3c-2.5,0-3.4-1.5-2.5-3.5c0.5-1.1,1-2.1,1.6-3.1c0.7-1.3,1.9-1.8,3.3-1.7c0.5,0,1.2,0.3,1.4,0.7
		c0.6,1.5,1.3,3.1,0.8,4.8c-0.4,1.3-1.1,2.3-2.7,2.5C565.9,210,565.2,210.2,564.8,210.3z"/>
	<path class="main" d="M548.5,206.3c0-2.1,1.6-4.1,3.4-4.2c1.9,0,4.4,2.1,4.4,3.9c0.1,1.7-2.2,3.9-4.1,3.9
		C550,210,548.5,208.5,548.5,206.3z"/>
	<path class="main" d="M709.5,205.6c0-1.4,1.8-2.9,3.5-2.8c2.3,0.1,3.4,1.5,4.1,3.5c0.5,1.4-0.6,3.5-2.2,4.3
		c-0.4,0.2-1.1,0.3-1.6,0.1C711.4,210.3,709.5,207.7,709.5,205.6z"/>
	<path class="main" d="M633.8,243.5c-0.1,0-0.7-0.1-1.2-0.3c-2.1-0.9-2.5-3.1-0.8-4.7c0.6-0.6,1.3-1.1,2-1.5c1.1-0.7,2.9-0.5,3.8,0.4
		c0.9,0.9,1.3,2.5,0.6,3.6C637.4,242.6,636.1,243.5,633.8,243.5z"/>
	<path class="main" d="M622.9,243.9c-1.9,0-3.1-1.1-3.3-2.7c-0.2-1.6,1-3.5,2.6-3.6c1.2-0.1,2.4,0.1,3.6,0.5c0.4,0.1,0.9,0.9,1,1.4
		C627.2,241.7,625.1,243.9,622.9,243.9z"/>
	<path class="main" d="M698.8,203.4c1.5,0,2.6,1.3,2.7,3.1c0.1,1.5-1.5,3.4-3,3.5c-1.8,0.1-3.5-1.3-3.6-2.8
		C694.9,205.1,696.6,203.4,698.8,203.4z"/>
	<path class="main" d="M788.7,221.5c-3,0-5.3-2.1-5.1-5c0-0.7,0.4-1.4,0.7-2.1c0.2-0.4,0.6-0.8,0.8-1.2c1.3-2.4,4.5-3.6,7.1-2.5
		c0.3,0.1,0.5,0.2,0.7,0.4c2.2,1.8,2.4,6.8,0.4,8.7C792.6,220.4,789.8,221.5,788.7,221.5z"/>
	<path class="main" d="M660.9,286.6c0.1-3.4,2.6-6.5,5.4-7.3c0.1,0,0.3-0.1,0.4-0.1c2.3-0.3,6.3,2.3,6.8,4.6c0.4,1.9,0,3.7-1.6,5.1
		c-0.9,0.8-2,1.5-3,2.2c-1.7,1.2-3.1,1.3-4.7,0c-1.1-0.9-2-2-2.9-3.1C661,287.5,661,286.8,660.9,286.6z"/>
</g>
<g>
	<path class="main" d="M369.2,51.7c-4.7-0.2-9.5-0.8-14.2-0.6c-8.3,0.4-16.7-0.5-24.9,1.1c-5.2,1-8,4.4-10.3,8.7
		c-3.5,6.5-3.6,13.5-2.7,20.3c0.8,5.6,2.2,11.5,6.4,16c1.7,1.8,3.5,2.7,5.6,3.3c2.7,0.8,5.4,1.7,8.2,2.5c1.2,0.3,2.4,0.5,3.7,0.7
		c12.4,1.3,24.7,2.5,37.1,3.9c1.3,0.1,2.6,0.7,3.8,1.4c3.7,2,7.4,4.1,11.1,6.1c1.8,1,2.6,2.6,2.9,4.5c1.1,7.4,2.4,14.7,2.7,22.2
		c0.4,7.3,1.8,14.6,3,21.8c1,6.1,2.2,12.2,3.5,18.3c0.9,4.1,0.5,8.1,0.1,12.3c-0.7,7.1-2.6,13.7-6.3,19.7c-3,4.9-7.1,8.8-12,11.5
		c-2.8,1.5-6.4,2-9.7,2.2c-4.1,0.3-8.2-0.2-12.3-0.4c-1.7-0.1-3.5-0.1-5.2-0.2c-3.3-0.2-6.7,0.2-9.9-1.2c-1-0.4-2.2-0.4-3.3-0.4
		c-8.6,0-17.2-0.1-25.8,0.3c-6.7,0.3-13.5,0.2-20,2.3c-0.8,0.3-1.7,0.2-2.6,0.1c-5.5-0.3-10.9-0.7-16.4-1.1
		c-6.9-0.4-10.8-4.9-14.2-10.1c-0.3-0.4-0.4-0.9-0.4-1.4c-0.3-4.3-0.7-8.7-0.9-13c-0.1-3.2,0.7-6.1,2.6-8.8c1.6-2.2,2.4-4.9,3.7-7.3
		c2.3-4,5.9-5.9,10.5-6c4.4-0.1,8.7-0.4,13.1-0.4c4.5,0,9,0.7,13.4,0.5c5.4-0.2,10.9-1.1,16.3-1.6c4.9-0.5,9.9-1.3,14.9-1.2
		c5.4,0.1,8.6-2.4,10-7.2c1.3-4.5,2.6-9.2,2.9-13.8c0.4-6.2-2.9-10.9-8.3-14c-2.6-1.5-5.5-1.8-8.6-2c-10.5-0.5-20.8,1.2-31.2,2.3
		c-9,1-17.1-0.7-24-6.8c-0.6-0.6-1.2-1.3-1.7-2c-3.5-5.2-5.8-10.9-7-17.1c-0.7-3.8-2.4-7.3-3.1-11.1c-0.9-5.3-2.8-10.6-1.7-16.2
		c0.4-2,0.1-4.2,0.2-6.3c0.2-5.5,0.2-10.9,0.6-16.4c0.6-7.2,1.4-14.3,2.2-21.5c0.1-1.1,0.2-2.2,0.3-3.3c0.1-1-0.1-2.1,0.3-3
		c3.2-6.9,3.7-14.6,6.8-21.5c1.6-3.6,4.8-5.1,7.9-6.4c7.2-3,14.5-5.9,22.4-6.7c2.2-0.2,4.4-1,6.5-1.5c1.3-0.3,2.7-0.5,4-0.7
		c1.1-0.2,2.2-0.3,3.3-0.6c4.2-1.3,8.5-1.6,12.9-1.3c4.6,0.3,9.2,0.3,13.8,0.3c6-0.1,11.9,0.4,17.8,1.7c4,0.9,8.1,1.2,12.2,1.3
		c4.6,0.2,9,0.7,12.9,3c1.1,0.7,2.3,1.7,2.8,2.8c0.9,2,1.6,4.2,1.9,6.4c0.5,4.6,0.7,9.2,1,13.8c0,0.9,0.1,1.8-0.2,2.6
		c-2.2,4.6-4.2,9.3-6.8,13.7c-2.3,3.9-6.4,4.9-10.7,5C376.4,51.6,372.8,51.6,369.2,51.7C369.2,51.6,369.2,51.6,369.2,51.7z
		 M394.9,143.4c-0.5-0.9-0.9-1.5-1.1-2.2c-1.5-5.1-2.9-10.3-3.1-15.7c0-1.1-0.2-2.3-0.9-3.1c-3-3.7-6.5-6.7-11.6-7.4
		c-1.6-0.2-3.1-0.9-4.7-1.3c-2.4-0.6-4.7-1.4-7.1-1.8c-2.3-0.4-4.8,0.1-7-0.4c-8.8-2-17.9-0.3-26.7-2.3c-0.3-0.1-0.7,0.2-1.1,0.1
		c-1.7-0.2-3.6-0.1-5.1-0.7c-6-2.5-10.4-6.7-11.9-13.3c-0.9-3.9-2.2-7.6-4.4-11c-0.8-1.2-0.9-3-1.1-4.5c-0.2-1.3-0.1-2.7-0.2-4.1
		c-0.1-2.4-0.7-4.9-0.1-7.1c1.4-5.5,1.4-11.2,4.1-16.5c1.7-3.3,3.2-6,6.6-7.7c0.8-0.4,1.4-1,2.1-1.5c2.4-1.9,5-2.5,8-1.5
		c7.3,2.6,15.1,0.8,22.5,2.7c0.6,0.1,1.2-0.1,1.9-0.1c2.6,0,5.2,0.1,7.8,0c4.6-0.1,9.2-0.2,13.8-0.7c1.8-0.2,3.6-1.1,5.1-2.1
		c2.5-1.5,4.9-3.4,7.4-5c1.3-0.8,1.6-1.7,1.3-3.1c-0.6-3.4-0.8-7-2-10.3c-1.4-4-2.2-8.6-7.4-9.9c-0.3-0.1-0.6-0.4-0.9-0.7
		c-2.5-2-5.7-1.6-8.5-2.4c-4,1.9-8.2,0.5-12.1,0.4c-5.6-0.1-11.2-0.4-16.8-0.1c-7.8,0.4-15.7,0.7-23.4,1.6
		c-4.4,0.6-8.9,1.1-13.3,1.3c-1,0-2,0.2-2.9,0.7c-2.4,1.2-4.7,2.7-7.1,3.9c-6.7,3.6-10.8,9.4-13.6,16.2c-1,2.4-1.5,5-1.9,7.5
		c-1,5.9-2.1,11.8-2.6,17.7c-0.6,7.4-0.3,14.9-0.9,22.3c-0.6,7.6-0.8,15.1,1.1,22.5c1.6,6.2,2.5,12.7,5.9,18.3
		c1.4,2.2,2.4,4.7,3.8,6.9c0.8,1.3,2,2.6,3.2,3.6c2.9,2.4,6.4,3.2,10.1,3.6c1.6,0.1,2.9-0.1,4-1.5c0.6-0.8,1.8-1.4,2.8-1.5
		c3.4-0.4,6.9-0.7,10.4-0.7c5.3,0,10.8,0.9,16,0.1c5.9-0.8,10.7,0.8,15.8,3.1c3,1.4,5.1,3.6,6.5,6.4c1.8,3.3,3.7,6.6,4.5,10.4
		c2,9.4,2.4,18.3-5.8,25.4c-0.3,0.2-0.5,0.6-0.8,0.8c-1.9,1.3-3.8,3.2-5.9,3.7c-4.2,1-8.3,2.5-12.8,1.7c-2.4-0.4-5,0-7.4,0.2
		c-4.8,0.5-9.6,1.5-14.5,1.7c-7.8,0.3-15.7,0-23.5,0c-2,0-4,0-6,0.2c-5.6,0.5-7.4,2.5-8.6,8c-1.2,5.6-0.6,11.1-0.1,16.7
		c0.5,5.6,4.1,8.9,9.8,9c3.5,0,7,0.2,10.4,0.3c0.9,0,1.8,0,2.6-0.2c6.6-1.4,13.2-2.5,20-1.7c2.6,0.3,5.2-0.2,7.8-0.1
		c6.2,0.2,12.4,0.6,18.6,1c5.6,0.3,11.2,0.8,16.8,1.1c3.7,0.3,7.5,1,11.2,0.7c3.8-0.3,7.6-1.2,11.3-2.3c7.5-2.2,11.9-7.7,13.2-15.2
		c0.8-4.9,0.7-9.9,0.7-14.9c0-6.6-1.5-13-1.5-19.6c0-6.9-1.4-13.8-2.3-20.7C393.3,146.7,392.9,144.8,394.9,143.4z"/>
	<path class="main" d="M179,230.2c-9.8,0-19.4-1.4-28.9-3.3c-6.8-1.4-12-8.1-12.5-15.4c-0.6-7.9,1.4-15.4,4.5-22.5
		c1.5-3.5,4-6.3,8.1-7.6c4.9-1.5,9.6-2.8,14.9-2.3c7.6,0.6,15.1-0.3,22.6-1.6c4.6-0.8,9-1.6,13.3-3.5c2.1-1,3.6-2.1,3.8-4.6
		c0.1-0.7,0.1-1.5,0.5-2.2c2.7-5.9,1.8-12.1,1.6-18.3c-0.1-3.9-1-7.6-1.6-11.4c-0.4-2.4-1.4-4.8-2.4-7c-1-2.2-3.1-3.4-5.4-3.6
		c-4.4-0.5-8.9-1.1-13.4-0.9c-5.9,0.2-11.9,0.9-17.8,1.8c-4.6,0.7-9.2,1.1-13.7-0.1c-4.1-1.1-8.2-2.3-12.1-3.8
		c-3-1.2-4.6-3.8-4.6-7.1c0-4.2,0.2-8.4,0.3-12.6c0-2.6-0.1-5.2-0.1-7.8c0-4.2,0.1-8.4,0.2-12.7c0-0.9,0.3-1.8,0.1-2.6
		c-1.7-5.5-0.9-11.1-0.8-16.7c0.2-6.7,0.4-13.4,2.3-20c0.4-1.5,0.8-3.2,0.7-4.8c-0.5-6.2,1.3-12,3.3-17.8c1.5-4.4,4.8-6.9,9.1-7.8
		c8.6-2,17.2-4,25.9-5.6c5.4-1,10.9-1.3,16.3-1.9c2.8-0.3,5.7-0.4,8.5-0.7c9.9-0.9,18.9,2.3,27,7.1c6.8,4,12,9.8,11.8,19
		c-0.1,5.3-1.7,10.3-1.7,15.5c0,1.4-1.1,2.1-2.3,2.6c-2.6,1.1-5.2,1.6-8,1.2c-3.5-0.4-6.9-0.8-10.4-1.4c-6.7-1.2-13.4-0.9-20.1,0
		c-3.5,0.5-6.3,2.2-8.8,4.5c-0.5,0.5-1.1,1.1-1.4,1.7c-2.5,4.2-1.3,15.1,1.7,18.8c2.8,3.5,6.4,4.1,10.4,3.3c3-0.6,5.9-0.8,8.8,0.2
		c0.9,0.3,2,0.3,2.9,0.5c6.3,0.9,12.4,2.1,18.2,4.9c4.5,2.2,9.1,4.1,13.8,5.7c2.7,1,4.4,2.7,5.5,5.1c0.9,1.9,1.9,3.7,2.9,5.6
		c0.3,0.7,0.8,1.4,0.8,2.1c0.2,4.3,0.4,8.7,0.5,13c0.1,2.4-0.4,4.8,0,7.1c0.7,4.4,0.1,8.7-0.5,13c-0.5,3.6-1,7.2-1.2,10.8
		c-0.4,11.6-0.6,23.1-0.9,34.7c-0.1,3.6-0.1,7.2-0.1,10.8c0,0.6,0.1,1.3-0.2,1.9c-2.1,5.5-1.1,11.3-2.1,16.9
		c-0.8,4.3-2.4,8.4-5.1,11.9c-2.6,3.2-6.5,4.4-10.4,5.5c-7.3,1.9-14.7,2.4-22.2,2.4c-1.7,0-3.5,0.3-5.2,0.4
		c-1.7,0.1-3.6,0.4-5.2-0.2c-3.9-1.4-7.9-1.1-11.8-0.9C185.5,229.6,182.3,229.9,179,230.2z M205.7,86.5c-2.8-1-5.5-0.9-8.1,0
		c-0.9,0.3-1.9,0.6-2.9,0.5c-3.6-0.3-7.2-0.8-10.7-1.2c-1.4-0.2-2.8-0.4-3.3-2c-0.9-2.7-2.1-5.4-2.5-8.2c-0.8-6,0.5-12,1.8-17.7
		c1.5-7.1,7.5-11.2,12.9-15.4c0.6-0.4,1.4-0.7,2.1-0.8c7.4-1.5,14.8-1.2,22.2,0.5c4.2,1,8.6,1.2,12.9,1.6c2,0.2,3.5-1,3.8-2.9
		c0.5-3.6,0.7-7.2,0.9-10.8c0-1-0.7-2.1-1.2-3c-0.9-1.6-1.9-3.2-3-4.7c-0.5-0.7-1.1-1.4-1.8-1.8c-2.4-1.3-4.8-2.5-7.3-3.7
		c-1.6-0.8-3.1-1.6-4.7-2.1c-2.8-0.7-5.6-1.3-8.4-1.7c-3.4-0.5-6.9-1.3-10.3-1.2c-5.5,0.1-10.9,0.8-16.4,1.4c-2,0.2-3.9,0.6-5.9,1.1
		c-4.3,1.1-8.6,2.5-13,3.4c-7.8,1.7-12.9,6.2-15.2,13.8c-1.9,6.5-3,13.1-3.2,19.8c-0.1,3.6,0.1,7.3-0.7,10.8
		c-1.4,6.5-1,12.9-0.3,19.3c0.5,4.6,1.5,9.1,1.6,13.7c0.1,5.6,0.8,11.2,1.6,16.7c0.4,2.8,1.9,4.5,4.3,5.7c1.3,0.7,2.8,1,4.3,1.2
		c3.5,0.4,6.9,0.6,10.4,0.8c5,0.3,9.8,0.1,14.8-0.8c6-1,12.1-1.3,18.2-1.6c1.5-0.1,3.2,0.6,4.5,1.4c5.8,3.9,9.2,9.4,10.3,16.2
		c0.8,5,1.5,10.1,1.9,15.1c0.3,3.7,0.3,7.5,0.1,11.2c-0.2,2.7-0.6,5.5-1.6,8c-2.2,5.4-5.8,9.6-11.6,11.3
		c-11.7,3.3-23.6,4.8-35.7,5.5c-5.2,0.3-10.4,0.9-15.2,3.3c-1.9,0.9-3.4,2.1-3.8,4.3c-0.1,0.9-0.4,1.7-0.7,2.5
		c-2.3,6.3-1.6,12.5,0.7,18.6c1,2.7,2.7,5,5.6,5.6c6,1.2,12,3.5,18.4,1.6c1-0.3,2.2-0.1,3.3-0.1c3.5,0.2,7,1,10.4,0.6
		c4.4-0.5,8.7,0,13,0.6c3.9,0.5,7.4-0.4,10.9-1.8c1.5-0.6,3-1.2,4.5-1.5c3.1-0.7,6.5-0.7,9.4-1.8c6.8-2.7,12.7-6.8,17.5-12.3
		c0.6-0.7,1.2-1.7,1.3-2.6c0.8-3.8,1.5-7.5,2-11.3c0.3-2.6,0.4-5.2,0.4-7.8c0-3.9-0.3-7.7-0.4-11.5c-0.1-2.5,0.2-4.9-0.2-7.5
		c-0.8-4.7-0.2-9.6-0.2-14.5c0-1.2,0.2-2.5,0-3.7c-0.4-2.3-0.2-4.4,0.9-6.5c0.9-1.7,1.7-3.7-0.2-5.4c-0.3-0.2-0.1-1-0.1-1.5
		c0.1-0.6,0.5-1.1,0.5-1.6c-0.7-6.2,0.2-12.3,1.9-18.3c0.8-2.7,0.9-5.4-0.7-7.9c-0.5-0.8-1.2-1.7-1.4-2.6c-0.5-3-2.7-3.8-5.2-4.6
		c-1.4-0.4-2.6-1.3-3.8-2.1c-1-0.7-1.9-1.6-2.9-2.2c-4.5-2.7-9.3-4.8-14.6-5.2c-1-0.1-2-0.2-2.9-0.5c-3.2-1.1-6.1-0.6-9,0.9
		c-0.1,0.1-0.4-0.1-0.6-0.2C205.2,88,205.4,87.4,205.7,86.5z"/>
	<path class="main" d="M106.3,226.1c-5.8,0.5-11.7,0.8-17.4,1.7c-8.2,1.3-16.3,1.6-24.6,1.6c-2.2,0-4.4,0.8-6.6,1
		c-3.6,0.4-7.2,1.2-10.7,0.9c-8.3-0.7-16.6-1.9-24.8-2.9c-3.4-0.4-5.7-2.9-7.4-5.3c-2.5-3.7-4.1-7.9-5.9-12
		c-1.4-3.1-1.3-6.5-1.4-9.9c0-1.1,0.1-2.3-0.3-3.3c-1.9-4.7-1.3-9.5-1.2-14.4c0-1.2,0-2.6-0.7-3.4c-2.2-2.8-2.2-5.8-0.7-8.7
		c0.8-1.5,0.6-2.5-0.4-3.7c-0.6-0.7-1.1-1.7-1.1-2.7c-0.2-3.9-0.1-7.7-0.2-11.6c0-0.5,0-1.1,0.2-1.5c1.6-3.1,0.6-5.6-0.8-8.7
		c-1.5-3.4-1.4-7.5-1.6-11.3c-0.3-5,0.3-10-0.3-14.9C0,113,0,109.1,0,105.2c0-1.5,0.3-3,0.5-4.4c0.5-3.7,1.1-7.3,1.6-11
		C2.2,89,2.2,88.2,2,87.5c-1.4-3.4-0.8-6.8-0.6-10.3c0.1-1.1-0.2-2.2-0.3-3.3c-0.1-1-0.3-2-0.1-3c1.1-7.8,2.3-15.7,3.5-23.5
		c0.1-0.5,0.1-1,0.2-1.5c0.9-4,2.1-7.9,2.8-12c0.9-5.2,3.7-8.7,8.6-10.4c6.7-2.3,13.5-4.4,20.3-6.4c1.5-0.4,3.3-0.5,4.8-0.2
		c4.4,0.8,8.7,0.2,13-0.3c7.4-0.9,14.7-2.5,22.1-2.9c7.9-0.4,15.6-3.2,23.7-2.2c1.3,0.2,2.7-0.2,4.1-0.3c5.4-0.5,10.5,0.9,14.9,3.7
		c2.3,1.5,3.9,4.4,5.3,7c2.6,4.7,2.3,10.1,2.7,15.3c0.3,3.5,1,6.9,1.1,10.4c0,3.1-0.5,6.2-1.1,9.2c-0.4,1.9-2,3.2-4,3.5
		c-8.2,1.4-15.5,5-23,8.3c-6.4,2.8-13.3,4.3-19.9,6.3c-1.3,0.4-2.5,0.8-3.4,2c-0.7,0.9-2,1.4-3.1,1.7c-3.8,1-7.2,2.6-9.8,5.7
		c-1,1.2-2.3,2.3-3.4,3.5c-1.6,1.6-2.5,3.6-3.4,5.7c-3,7.2-3.4,14.7-3.8,22.3c-0.1,1.5-0.4,3-0.6,4.4c-0.5,4.6-1.1,9.2-0.2,13.8
		c0.1,0.4,0.1,0.7,0.1,1.1c-0.6,8.8,1.3,17.3,2.3,25.9c0.1,1.3,0.8,2.7,1.7,3.6c2.4,2.4,5.1,4.3,8.6,4.8c1.7,0.3,3.3,1.2,5,1.4
		c3.2,0.3,6.5,0.5,9.6,0.3c6.8-0.5,13.4,0.3,20,1.5c3.9,0.7,7.8,1.8,11.7,2.1c4,0.3,6.4,2.5,7.4,5.8c1.7,5.7,2.9,11.6,4,17.4
		c0.8,4.3,1.3,8.6,1.9,12.9c0.2,1.4,0.3,2.7,0.2,4.1c-0.3,5.6-2.8,8.7-8.4,9.9c-3.3,0.7-6.6,1.2-9.9,1.8
		C106.4,226.6,106.4,226.4,106.3,226.1z M44.6,224.5c4.3-0.4,8.6-0.8,13-1.2c11.3-1,22.6-1.8,33.8-3.1c7.2-0.8,14.3-2.2,21.3-3.6
		c4.1-0.8,5.8-3.3,4.4-7.1c-0.8-2.2-0.7-4.2-0.6-6.4c0.1-1.4,0-2.8-0.3-4.1c-0.7-3.7-1.9-7.3-2.3-11c-0.5-4.5-3.6-6.5-7.2-7.5
		c-9.7-2.8-19.6-3.5-29.6-2.6c-6.2,0.5-12.5,1.3-18.6-0.6c-8.2-2.5-9.3-3.6-10.8-11.9c-0.3-1.5-0.2-3-0.3-4.5
		c-0.2-2.2,0-4.6-0.8-6.6c-1.9-4.7-1.7-9.5-1.8-14.3c-0.1-4.1-0.5-8.2-0.6-12.3c0-2.1,0.3-4.2,0.5-6.3c0.2-3.3,0.4-6.7,0.6-10
		c0.1-1.1-0.1-2.2,0-3.3c0.6-4.9,1.5-9.8,2-14.8c0.5-4.9,2.5-9.3,4.4-13.8c0.9-2.1,2.2-4.1,3.6-6c1-1.2,2.5-2,3.6-3.1
		c2.4-2.3,5.2-3.7,8.5-4.4c8.3-1.8,16.4-4,24.7-5.5c4.7-0.8,9.2-1.7,13.5-3.8c0.7-0.4,1.7-0.2,2.6-0.5c2.6-0.8,5.3-1.5,7.7-2.7
		c3.8-1.9,4.8-5,3.4-9.1c-0.2-0.6-0.4-1.2-0.5-1.8c-0.2-6-1.6-11.8-3.4-17.5c-1.1-3.8-3.1-5.6-7-6.1c-2.5-0.3-4.9-0.7-7.4-0.8
		c-4.5-0.2-8.9-0.3-13.3,1.1c-4.9,1.5-9.8,2.8-15,2.8c-1.5,0-2.9,0.5-4.4,0.9C62.9,25,57.2,26,51.2,25.8c-3.3-0.1-6.8,0.1-10,1
		c-3.8,1.1-7.5,1.4-11.4,1.4c-1.2,0-2.6,0.1-3.6,0.6c-6.4,3.5-11.6,8.2-13.5,15.6c-0.7,2.9-0.9,5.9-1.4,8.8
		c-1.2,7.6-2.8,15.2-1.9,23c0.3,2.5,0.1,5-0.1,7.5C8.7,91.1,8,98.5,7.4,105.9c-0.2,2.1-0.7,4.2-0.5,6.3c0.6,9.4,1.5,18.8,2.1,28.3
		c0.5,7.1,0.8,14.1,1.3,21.2c0.3,4.1,0.8,8.1,1.1,12.2c0.3,5.3,0.1,10.7,0.9,16c1.3,8.7,3.1,17.3,7.3,25.4c1.9,3.6,4.5,5.5,8.1,6.5
		C33.1,223.2,38.7,224.7,44.6,224.5z"/>
	<path class="css-fill" d="M44.6,224.5c4.3-0.4,8.6-0.8,13-1.2c11.3-1,22.6-1.8,33.8-3.1c7.2-0.8,14.3-2.2,21.3-3.6
		c4.1-0.8,5.8-3.3,4.4-7.1c-0.8-2.2-0.7-4.2-0.6-6.4c0.1-1.4,0-2.8-0.3-4.1c-0.7-3.7-1.9-7.3-2.3-11c-0.5-4.5-3.6-6.5-7.2-7.5
		c-9.7-2.8-19.6-3.5-29.6-2.6c-6.2,0.5-12.5,1.3-18.6-0.6c-8.2-2.5-9.3-3.6-10.8-11.9c-0.3-1.5-0.2-3-0.3-4.5
		c-0.2-2.2,0-4.6-0.8-6.6c-1.9-4.7-1.7-9.5-1.8-14.3c-0.1-4.1-0.5-8.2-0.6-12.3c0-2.1,0.3-4.2,0.5-6.3c0.2-3.3,0.4-6.7,0.6-10
		c0.1-1.1-0.1-2.2,0-3.3c0.6-4.9,1.5-9.8,2-14.8c0.5-4.9,2.5-9.3,4.4-13.8c0.9-2.1,2.2-4.1,3.6-6c1-1.2,2.5-2,3.6-3.1
		c2.4-2.3,5.2-3.7,8.5-4.4c8.3-1.8,16.4-4,24.7-5.5c4.7-0.8,9.2-1.7,13.5-3.8c0.7-0.4,1.7-0.2,2.6-0.5c2.6-0.8,5.3-1.5,7.7-2.7
		c3.8-1.9,4.8-5,3.4-9.1c-0.2-0.6-0.4-1.2-0.5-1.8c-0.2-6-1.6-11.8-3.4-17.5c-1.1-3.8-3.1-5.6-7-6.1c-2.5-0.3-4.9-0.7-7.4-0.8
		c-4.5-0.2-8.9-0.3-13.3,1.1c-4.9,1.5-9.8,2.8-15,2.8c-1.5,0-2.9,0.5-4.4,0.9C62.9,25,57.2,26,51.2,25.8c-3.3-0.1-6.8,0.1-10,1
		c-3.8,1.1-7.5,1.4-11.4,1.4c-1.2,0-2.6,0.1-3.6,0.6c-6.4,3.5-11.6,8.2-13.5,15.6c-0.7,2.9-0.9,5.9-1.4,8.8
		c-1.2,7.6-2.8,15.2-1.9,23c0.3,2.5,0.1,5-0.1,7.5C8.7,91.1,8,98.5,7.4,105.9c-0.2,2.1-0.7,4.2-0.5,6.3c0.6,9.4,1.5,18.8,2.1,28.3
		c0.5,7.1,0.8,14.1,1.3,21.2c0.3,4.1,0.8,8.1,1.1,12.2c0.3,5.3,0.1,10.7,0.9,16c1.3,8.7,3.1,17.3,7.3,25.4c1.9,3.6,4.5,5.5,8.1,6.5
		C33.1,223.2,38.7,224.7,44.6,224.5z"/>
	<path class="css-fill" d="M205.7,86.5c-2.8-1-5.5-0.9-8.1,0c-0.9,0.3-1.9,0.6-2.9,0.5c-3.6-0.3-7.2-0.8-10.7-1.2c-1.4-0.2-2.8-0.4-3.3-2
		c-0.9-2.7-2.1-5.4-2.5-8.2c-0.8-6,0.5-12,1.8-17.7c1.5-7.1,7.5-11.2,12.9-15.4c0.6-0.4,1.4-0.7,2.1-0.8c7.4-1.5,14.8-1.2,22.2,0.5
		c4.2,1,8.6,1.2,12.9,1.6c2,0.2,3.5-1,3.8-2.9c0.5-3.6,0.7-7.2,0.9-10.8c0-1-0.7-2.1-1.2-3c-0.9-1.6-1.9-3.2-3-4.7
		c-0.5-0.7-1.1-1.4-1.8-1.8c-2.4-1.3-4.8-2.5-7.3-3.7c-1.6-0.8-3.1-1.6-4.7-2.1c-2.8-0.7-5.6-1.3-8.4-1.7c-3.4-0.5-6.9-1.3-10.3-1.2
		c-5.5,0.1-10.9,0.8-16.4,1.4c-2,0.2-3.9,0.6-5.9,1.1c-4.3,1.1-8.6,2.5-13,3.4c-7.8,1.7-12.9,6.2-15.2,13.8
		c-1.9,6.5-3,13.1-3.2,19.8c-0.1,3.6,0.1,7.3-0.7,10.8c-1.4,6.5-1,12.9-0.3,19.3c0.5,4.6,1.5,9.1,1.6,13.7
		c0.1,5.6,0.8,11.2,1.6,16.7c0.4,2.8,1.9,4.5,4.3,5.7c1.3,0.7,2.8,1,4.3,1.2c3.5,0.4,6.9,0.6,10.4,0.8c5,0.3,9.8,0.1,14.8-0.8
		c6-1,12.1-1.3,18.2-1.6c1.5-0.1,3.2,0.6,4.5,1.4c5.8,3.9,9.2,9.4,10.3,16.2c0.8,5,1.5,10.1,1.9,15.1c0.3,3.7,0.3,7.5,0.1,11.2
		c-0.2,2.7-0.6,5.5-1.6,8c-2.2,5.4-5.8,9.6-11.6,11.3c-11.7,3.3-23.6,4.8-35.7,5.5c-5.2,0.3-10.4,0.9-15.2,3.3
		c-1.9,0.9-3.4,2.1-3.8,4.3c-0.1,0.9-0.4,1.7-0.7,2.5c-2.3,6.3-1.6,12.5,0.7,18.6c1,2.7,2.7,5,5.6,5.6c6,1.2,12,3.5,18.4,1.6
		c1-0.3,2.2-0.1,3.3-0.1c3.5,0.2,7,1,10.4,0.6c4.4-0.5,8.7,0,13,0.6c3.9,0.5,7.4-0.4,10.9-1.8c1.5-0.6,3-1.2,4.5-1.5
		c3.1-0.7,6.5-0.7,9.4-1.8c6.8-2.7,12.7-6.8,17.5-12.3c0.6-0.7,1.2-1.7,1.3-2.6c0.8-3.8,1.5-7.5,2-11.3c0.3-2.6,0.4-5.2,0.4-7.8
		c0-3.9-0.3-7.7-0.4-11.5c-0.1-2.5,0.2-4.9-0.2-7.5c-0.8-4.7-0.2-9.6-0.2-14.5c0-1.2,0.2-2.5,0-3.7c-0.4-2.3-0.2-4.4,0.9-6.5
		c0.9-1.7,1.7-3.7-0.2-5.4c-0.3-0.2-0.1-1-0.1-1.5c0.1-0.6,0.5-1.1,0.5-1.6c-0.7-6.2,0.2-12.3,1.9-18.3c0.8-2.7,0.9-5.4-0.7-7.9
		c-0.5-0.8-1.2-1.7-1.4-2.6c-0.5-3-2.7-3.8-5.2-4.6c-1.4-0.4-2.6-1.3-3.8-2.1c-1-0.7-1.9-1.6-2.9-2.2c-4.5-2.7-9.3-4.8-14.6-5.2
		c-1-0.1-2-0.2-2.9-0.5c-3.2-1.1-6.1-0.6-9,0.9c-0.1,0.1-0.4-0.1-0.6-0.2C205.2,88,205.4,87.4,205.7,86.5z"/>
	<path class="css-fill" d="M394.9,143.4c-0.5-0.9-0.9-1.5-1.1-2.2c-1.5-5.1-2.9-10.3-3.1-15.7c0-1.1-0.2-2.3-0.9-3.1
		c-3-3.7-6.5-6.7-11.6-7.4c-1.6-0.2-3.1-0.9-4.7-1.3c-2.4-0.6-4.7-1.4-7.1-1.8c-2.3-0.4-4.8,0.1-7-0.4c-8.8-2-17.9-0.3-26.7-2.3
		c-0.3-0.1-0.7,0.2-1.1,0.1c-1.7-0.2-3.6-0.1-5.1-0.7c-6-2.5-10.4-6.7-11.9-13.3c-0.9-3.9-2.2-7.6-4.4-11c-0.8-1.2-0.9-3-1.1-4.5
		c-0.2-1.3-0.1-2.7-0.2-4.1c-0.1-2.4-0.7-4.9-0.1-7.1c1.4-5.5,1.4-11.2,4.1-16.5c1.7-3.3,3.2-6,6.6-7.7c0.8-0.4,1.4-1,2.1-1.5
		c2.4-1.9,5-2.5,8-1.5c7.3,2.6,15.1,0.8,22.5,2.7c0.6,0.1,1.2-0.1,1.9-0.1c2.6,0,5.2,0.1,7.8,0c4.6-0.1,9.2-0.2,13.8-0.7
		c1.8-0.2,3.6-1.1,5.1-2.1c2.5-1.5,4.9-3.4,7.4-5c1.3-0.8,1.6-1.7,1.3-3.1c-0.6-3.4-0.8-7-2-10.3c-1.4-4-2.2-8.6-7.4-9.9
		c-0.3-0.1-0.6-0.4-0.9-0.7c-2.5-2-5.7-1.6-8.5-2.4c-4,1.9-8.2,0.5-12.1,0.4c-5.6-0.1-11.2-0.4-16.8-0.1c-7.8,0.4-15.7,0.7-23.4,1.6
		c-4.4,0.6-8.9,1.1-13.3,1.3c-1,0-2,0.2-2.9,0.7c-2.4,1.2-4.7,2.7-7.1,3.9c-6.7,3.6-10.8,9.4-13.6,16.2c-1,2.4-1.5,5-1.9,7.5
		c-1,5.9-2.1,11.8-2.6,17.7c-0.6,7.4-0.3,14.9-0.9,22.3c-0.6,7.6-0.8,15.1,1.1,22.5c1.6,6.2,2.5,12.7,5.9,18.3
		c1.4,2.2,2.4,4.7,3.8,6.9c0.8,1.3,2,2.6,3.2,3.6c2.9,2.4,6.4,3.2,10.1,3.6c1.6,0.1,2.9-0.1,4-1.5c0.6-0.8,1.8-1.4,2.8-1.5
		c3.4-0.4,6.9-0.7,10.4-0.7c5.3,0,10.8,0.9,16,0.1c5.9-0.8,10.7,0.8,15.8,3.1c3,1.4,5.1,3.6,6.5,6.4c1.8,3.3,3.7,6.6,4.5,10.4
		c2,9.4,2.4,18.3-5.8,25.4c-0.3,0.2-0.5,0.6-0.8,0.8c-1.9,1.3-3.8,3.2-5.9,3.7c-4.2,1-8.3,2.5-12.8,1.7c-2.4-0.4-5,0-7.4,0.2
		c-4.8,0.5-9.6,1.5-14.5,1.7c-7.8,0.3-15.7,0-23.5,0c-2,0-4,0-6,0.2c-5.6,0.5-7.4,2.5-8.6,8c-1.2,5.6-0.6,11.1-0.1,16.7
		c0.5,5.6,4.1,8.9,9.8,9c3.5,0,7,0.2,10.4,0.3c0.9,0,1.8,0,2.6-0.2c6.6-1.4,13.2-2.5,20-1.7c2.6,0.3,5.2-0.2,7.8-0.1
		c6.2,0.2,12.4,0.6,18.6,1c5.6,0.3,11.2,0.8,16.8,1.1c3.7,0.3,7.5,1,11.2,0.7c3.8-0.3,7.6-1.2,11.3-2.3c7.5-2.2,11.9-7.7,13.2-15.2
		c0.8-4.9,0.7-9.9,0.7-14.9c0-6.6-1.5-13-1.5-19.6c0-6.9-1.4-13.8-2.3-20.7C393.3,146.7,392.9,144.8,394.9,143.4z"/>
</g>
</svg>
