<?xml version="1.0" encoding="utf-8"?>
<!DOCTYPE svg PUBLIC "-//W3C//DTD SVG 1.1//EN" "http://www.w3.org/Graphics/SVG/1.1/DTD/svg11.dtd">
<svg version="1.1" id="Documents" xmlns="http://www.w3.org/2000/svg" width="1000" height="1000" viewBox="0 0 1000 1000">
<path d="M8.8,537.7c4.6-9.2,11.1-13.6,20.4-13.4c18.3,0.4,35.7-4.3,52.9-7.4c3-4.2,1.8-7.3-1.1-9.7
	c-15.3-13.1-29.4-27.8-48.8-35.6c-4.9-2-9.1-6.4-13-10.3c-1.6-1.6-1.4-4.9-2.3-8.7c15.2-3.3,29.4-6.3,43.5-9.4
	c14.2-3.1,28.7-5.3,41.9-13.6c-6.2-12.7-17.6-18.3-27.6-25.6c-9.5-6.9-19.3-13.6-27.7-23.2c5.7-11.3,13.9-18.4,25.6-22.9
	c24.9-9.5,50.7-15.4,76.6-20.7c24.6-5,49-10.5,74.2-12.5c14.5-1.1,29-4,43.2-7.5c27.2-6.6,54.9-9.4,82.7-11.9
	c10.8-1,16.1-5.6,18.8-15.8c5.9-22.2,11.5-44.5,19.1-66.1c7.3-21,16.3-41.5,25.6-61.8c17.1-37.6,41-71.2,63.9-105.2
	c12-17.8,27.1-33.7,40.9-50.3c2.2-2.6,5.2-4.5,7.4-6.3c9.3,1.6,13.9,8.1,18.1,14.3c5.7,8.3,13.3,14,21.9,18.9
	c34.8,20,71.7,34.1,111.4,40.9c29.5,5,58.7,11.6,88.2,16.4c39.3,6.4,79.1,10.7,118.8,7c26.9-2.5,54.2-3.6,80.5-10.9
	c2-0.5,4.3-1.1,6.1-0.6c2.3,0.7,4.7,2.3,6.1,4.2c0.6,0.8-0.9,3.9-2.2,5.1c-6.5,6.3-13.2,12.5-20.1,18.4
	c-16.2,13.9-26.7,32.1-38.7,49.3c-11.6,16.6-22.4,33.7-33.4,50.7c-23,35.4-40.4,73.3-50.6,114.4c-8,32.6-3.3,64,11.3,93.7
	c15.7,32,34.9,61.6,60.2,87.4c23.5,23.9,49.8,44.4,74.9,66.3c4.1,3.6,8.7,7.2,11.5,11.7c4.8,7.7-0.3,17.9-9.2,19
	c-6.2,0.8-12.6,0.6-18.8,1c-18.1,1.2-36.1,2.3-54.2,3.7c-3.9,0.3-7.7,1.6-12.4,2.7c3.6,19,13.8,31.3,28.7,40.3
	c6.9,4.2,9.6,9.7,5.8,18.4c-20.1,2.3-40.8,4-61.5,10.8c4.4,12,13.7,18.8,20.4,27.4c2.5,3.3,6.2,5.7,8.8,8.9
	c5.1,6.1,3.7,13.8-2.9,17.6c-1.8,1.1-3.8,1.8-5.7,2.6c-52.4,21.2-103.3,45.7-156.7,64.7c-21.7,7.7-43.7,14.4-65.2,22.3
	c-29.4,10.7-60.2,17.5-88.6,31.2c-10.7,5.1-22,8.8-33.3,12.5c-22.6,7.4-44.7,15.6-65.8,26.5c-4.3,2.2-8.8,4.1-13.3,6.1
	c-7.3,3.3-13.5,2-18.6-4.4c-7.4-9.3-15.1-18.3-22.3-27.8c-19.2-25.7-37.8-51.8-57.3-77.3c-14.4-18.8-29.6-37.1-48.7-51.6
	c-11.3-8.5-18.2-21-27.8-30.9c-19.4-20-39.1-39.7-59-59.2c-22.4-22-45.4-43.4-67.8-65.3c-17.4-17-34.7-34.4-51.6-51.9
	c-5.3-5.5-10.8-8-18.4-7.6c-18.1,0.8-36.3,1.2-53.1,8.9c-2.2,6.3,2,9.7,5.4,12.5c12.8,10.7,26,21,39.1,31.3
	c23.1,18,46.4,35.8,69.5,53.8c2.7,2.1,5.3,4.6,7.6,7.2c23.9,27.3,47.8,54.6,71.6,81.9c22.9,26.3,45.7,52.7,67.8,79.6
	c23.9,29,50.1,56.1,70.6,88c20.3,31.6,44,61.1,66.2,91.4c0.8,1,2.2,1.5,4.8,3.2c4.7-2.3,10.4-4.5,15.6-7.6
	c58.4-34.4,119.3-63.8,180.1-93.5c8.1-3.9,16.7-6.9,25.4-9.3c18.3-5,34.9-13.9,52.1-21.4c30.6-13.4,61-27.4,91.9-40.3
	c14.1-5.9,29.1-9.7,43.6-14.6c4.5-1.5,8.7-3.6,14.8-6.2c-5.8-8.6-11-16.2-17.6-26c5.4,0.3,8.7-0.5,10.3,0.8
	c7.7,5.9,15.2,12.2,22.4,18.8c1.9,1.7,3,4.7,3.6,7.3c1.1,4.4,0,8.6-4.3,10.7c-3.7,1.8-7.8,3-11.8,4.2c-16,4.8-32.5,8.4-48,14.4
	c-26.6,10.3-52.5,22.3-78.8,33.2c-23.2,9.6-46.4,19.2-70,27.6c-26.4,9.4-51.6,21.2-76.7,33.2c-21.4,10.2-41.9,22.5-63.9,31.1
	c-15.8,6.2-29.7,15.1-44.2,23.1c-11.5,6.4-21.8,14.9-32.7,22.4c-3.4,2.3-6.9,4.8-10.6,6.4c-5.1,2.2-9.6,0.4-12.8-4.1
	c-16.9-23.9-33.9-47.7-50.7-71.7c-9.2-13.1-18-26.4-27-39.6c-2-2.9-4-5.7-6.4-8.3c-13-14.6-26.4-28.7-39.1-43.6
	c-21.7-25.4-42.7-51.4-64.4-76.8c-15.3-18-31.3-35.5-46.9-53.3c-14.3-16.2-28.4-32.6-42.9-48.7c-6.5-7.2-13.2-14.5-20.8-20.5
	c-26.7-21.3-53.7-42.3-80.9-63c-10.5-8-21.7-15.3-32.4-23C16.3,543.8,12.7,540.8,8.8,537.7z M482.6,829.8c3.6-2,7-4.6,10.9-5.9
	c27.8-9.5,53.9-22.7,80.1-35.8c11.2-5.6,23-10,34.4-15c7.7-3.3,15.3-6.7,22.9-10.2c23.9-11.3,47.3-23.6,71.6-34
	c26.9-11.4,54.5-21.2,81.9-31.5c11-4.2,22-8.9,33.4-11.8c25.6-6.4,51.1-14,77.3-18.1c3.3-0.5,8.7,0,10-7.5
	c-15.2-8.5-16.5-26.9-25.2-40.7c-11.8-2.1-22.8-0.8-33.7,1.8c-7.4,1.8-14.8,3.8-22.1,5.8c-25.5,7.1-50.7,15-76.4,21.4
	c-25.8,6.4-49.8,17.8-74.9,26.1c-37.3,12.3-72.2,29.3-106.1,48.8c-6,3.5-12,7.2-18.1,10.4c-12.3,6.6-19.8,5.2-26.4-6.4
	c-5.3-9.3-12.1-17-19.9-24.1c-23.9-21.7-43.9-47-62.2-73.3c-30.8-44.1-57.6-90.4-71.3-143.3c-8.9-34.5-16.6-68.9-12-104.9
	c0.7-5.5,1.6-11.2,0.9-16.7c-1.6-12.7-0.8-25,2.2-37.4c0.7-2.7-1.2-6.1-2-9.5c-24.1,2.7-47.2,3.7-69.6,8.3
	c-38.4,7.8-77.3,10.7-115.8,16.8c-29,4.6-57.3,12-85,21.7c-3.1,1.1-6.6,2.6-6.8,8.3c2.1,2.4,4.5,5.8,7.5,8.5
	c11.4,10.3,23,20.3,34.5,30.5c5.8,5.1,13.1,9.3,16.9,15.5c8.9,14.8,21.8,25.5,35.1,35.5c17.5,13.1,32.8,28.3,47.4,44.2
	c25.5,27.6,52.2,54.2,75.8,83.7c19.1,23.9,40.1,46.4,59.1,70.4c23.3,29.4,45.2,60,68.4,89.5c12.8,16.3,27,31.6,40.7,47.2
	c8.3,9.4,17,18.5,17.5,32.2c-5.6-1.6-9.7-4.8-12.9-9.8c-4.1-6.5-8.7-12.6-13.6-18.5c-16.4-19.9-33.1-39.5-49.4-59.5
	c-39.7-48.6-78.2-98.2-119.1-145.8c-28.6-33.3-60-64.1-90.6-95.6c-9.2-9.4-19.8-17.6-30-26c-14.5-11.9-29.2-23.5-42.6-34.3
	c-11,1-20.1,1.4-29,2.9c-9.6,1.6-19.1,3.8-28.4,6.6c-8,2.4-18.2-0.5-24.8,9.4c5.7,4.5,11.4,8.5,16.4,13.1
	c10.7,10,20.3,21.2,31.7,30.2c11.9,9.4,22.1,20.4,34.1,29.7c13.2,10.1,25.3,22,36.7,34.3c36,38.8,77.3,72.3,112.9,111.6
	c12.1,13.4,26.3,24.9,37.2,39.5c3.7,5,8.4,9.4,13.2,13.5c26.7,22.8,49.8,48.6,69.7,77.6c16.9,24.7,35.2,48.5,53.1,72.5
	c3.6,4.9,8.3,8.9,12,12.8c18.5-7.5,35.8-14.8,53.3-21.6c29.8-11.7,59.8-23.4,89.7-34.9c50-19.2,101.2-35.2,150.8-55.6
	c39.4-16.2,78-33.9,116.6-51.7c2.9-1.3,5.4-3.6,8.8-6.1c-7.7-14.9-20-24.5-28.6-37.9c-14,4.1-27.5,7.4-40.5,12
	c-20.4,7.2-40.4,15.3-60.6,22.9c-16.3,6.1-33.2,11-48.8,18.5c-36.5,17.3-72.8,35.1-109.9,51.2c-28.8,12.5-56.9,26.4-85.4,39.5
	c-5,2.3-10.4,3.9-15.8,4.9C485.6,836.6,483.1,833.8,482.6,829.8z M950.5,584.2c-3.3-8.4-9.2-12.5-13.9-17.6
	c-23.6-25.7-51.4-47-75.1-72.7c-15-16.3-26.8-33.7-32.7-55.1c-3.4-12.1-7.5-24-10.5-36.1c-5.9-23.8-9.7-47.8-3.2-72.2
	c2.7-10.1,4.5-20.5,7.9-30.4c5.5-15.8,10.2-32.2,18.3-46.6c27.2-48.7,55.2-97.1,92.3-139.3c2-2.3,2.7-5.7,5.1-11
	c-28.4,5.9-54.5,9.3-80.9,5.7c-0.7-0.1-1.4-0.1-2.1,0c-18.9,3.9-37.5-0.5-56-2.8c-23.5-2.9-46.8-6.9-70.2-10.8
	c-34.4-5.7-69-11.2-102.2-22.4c-33.9-11.5-66.1-26.4-93-50.8c-1.8-1.7-4.7-2.2-7.6-3.5c-6.1,6.6-12,12.6-17.4,18.9
	c-22.9,26.5-39.8,57.1-58.9,86.3c-4.9,7.5-9.1,15.7-12.6,24c-12.7,29.4-25.2,59-37.4,88.6c-11.7,28.5-20.6,57.8-25.5,88.2
	c-2.4,14.4-5,29.3-3.7,43.6c1.7,17.5,1.7,34.8,1.9,52.2c0.2,18.3,2.7,36.2,8.3,53.5c10.6,32.5,24.3,63.7,42.6,92.8
	c10,16,20.9,31.3,32,46.5c19.8,27.2,44,50.3,65.9,75.6c8.9,10.2,19.4,19.7,31.7,26.9c6.7-3.5,12.8-6.6,19-9.9
	c27-14.5,54.5-28.1,83-39.5c29.2-11.6,58.5-22.4,88.7-31.4c56.9-16.9,114.3-31.2,173-40.6C928.2,592.6,939.3,591,950.5,584.2z"/>
<path d="M616.7,312.9c-15.6,6.4-31.4,5.9-47.3,5.4c-10.2-0.3-17.2-4.7-22.7-12.6c-8.9-12.9-15.1-26.6-14.1-42.8
	c0.5-7.7,0.3-15.4-0.1-23.1c-1.7-35.4,34-69.6,69.9-69c20.7,0.3,40.5,1.3,57.3,16.1c14.5-2.7,28.7-3,43.5-1.2
	c14.4,1.8,23.2,9.5,29.6,20.5c5.9,10.2,10.2,21.5,9.6,33.9c-0.3,6.3,0,12.6-0.1,18.9c-0.5,27.9-23,71.3-57,83.7
	c-15.9,5.8-31,6.4-46.4-1.8c-7.2-3.8-12.4-8.9-16.2-15.7C620.6,321.5,619,317.7,616.7,312.9z M670.7,194.6
	c-4.8,5.4-7.4,9.7-11.1,12.3c-13.2,9.3-20.1,22.9-25.6,37.2c-3.7,9.7-5.6,20-8,30.2c-3.9,16.5-0.1,31.9,7.8,46.3
	c8.6,15.9,28.6,21.8,44.9,14.2c37.6-17.5,56.6-61,49.4-103.2c-0.7-4.1-1.6-8.3-3.1-12.1c-5-12.5-13.7-21-27.4-22.8
	C688.6,195.5,679.6,195.2,670.7,194.6z M610.5,303.9c2.1-12.1,3-21.8,5.5-31.1c4.1-15.4,8.6-30.9,14.3-45.7
	c2.9-7.5,8.8-13.9,13.7-20.6c2.3-3.1,5.4-5.7,8.4-8.9c-18.9-16.9-39.8-17.6-61.9-13c-16,3.3-28.3,12.4-35.8,26.5
	c-14.9,28-12.9,56.4,2.1,83.8c2.5,4.6,7.2,9.1,11.9,11.1C582.8,311.7,597.1,311.2,610.5,303.9z"/>
<path d="M657.9,407.4c2.7-1.9,6-4.2,9.6-6.7c4.1,1.6,7.8,3.5,11.7,4.6c12.2,3.5,20,0.4,26.1-10.9
	c2.6-4.8,3.7-10.4,6.1-15.4c1.1-2.3,3.3-4.3,5.5-6c2.7-2.1,7.8-0.4,8.6,2.8c0.7,2.7,1.7,5.6,1.1,8.1c-2.9,11.6-3.9,23.2-4,35.1
	c-0.1,6.8-3.8,11.4-9.9,11.4c-20.4-0.1-40.5-1.8-54.5-19.7C657.8,410.2,658,409.3,657.9,407.4z"/>
<path d="M670.5,260.9c0.4,5-4.9,10.1-10.8,10.6c-6.3,0.5-11.9-3.8-11.8-9.1c0.1-6,5.7-11.7,11.9-12.5
	C664.3,249.5,670.1,255.4,670.5,260.9z"/>
<path d="M588.1,248.8c-1,2.2-2.7,7.5-5.5,12.1c-3.3,5.4-9.6,6.7-14.6,4c-6.5-3.5-8.8-9.1-6.2-15.6
	c3.8-9.7,9.4-13.3,19.1-12.3C585.3,237.5,588.4,241,588.1,248.8z"/>
</svg>
