<?xml version="1.0" encoding="utf-8"?>
<!-- Generator: Adobe Illustrator 16.0.0, SVG Export Plug-In . SVG Version: 6.00 Build 0)  -->
<!DOCTYPE svg PUBLIC "-//W3C//DTD SVG 1.1//EN" "http://www.w3.org/Graphics/SVG/1.1/DTD/svg11.dtd">
<svg version="1.1" id="Layer_1" xmlns="http://www.w3.org/2000/svg" xmlns:xlink="http://www.w3.org/1999/xlink" x="0px" y="0px"
	 width="400px" height="500px" viewBox="0 0 400 500" style="enable-background:new 0 0 400 500;" xml:space="preserve">
<style type="text/css">
<![CDATA[
	.st0{fill-rule:evenodd;clip-rule:evenodd;}
]]>
</style>
<g>
	<path class="st0" d="M263.7,12.7c8.7-2.1,16.9-4,25-6c5.1-1.3,10.2-2.7,14.8-5.4c2.7-1.5,6.2-1.6,8.7-0.5C322,5,332.5,7.1,343,9.1
		c5.9,1.1,11.9,2.1,17.9,3.1c3,0.5,5.6,1.4,7.6,4c1.2,1.6,3.8,2.2,5.3,3.6c1.4,1.3,1.9,3.5,3.5,4.7c2.7,2.2,4.6,4.7,5.8,7.7
		c0.5,1.2,1.3,2.2,2.2,3.2c4.8,5.5,9.6,10.9,14.7,16.6c0.6,3.5-1.1,6.7-2.8,10c-1.6,3-3,6.2-4.4,9.3c-2.2,5.1-4.1,10.4-6.5,15.4
		c-5.7,11.9-9.2,24.4-13,36.8c-2.2,7.1-4.5,14.2-6.8,21.3c-2.5,7.9-5,15.9-7.5,23.8c-1.1,3.5-2.3,6.9-3.5,10.3
		c-5,14.1-8.3,28.7-12.2,43.1c-0.7,2.5-1.4,4.9-2.2,7.3c-4.6,13.3-8.7,26.8-11.9,40.4c-0.2,0.8-0.6,1.6-0.6,2.5
		c-0.2,7.3-2.8,14.1-4.3,21.2c-1.8,8.7-3.6,17.5-4.4,26.3c-0.4,5-1.6,10-2.5,15c-0.1,0.8-0.8,1.5-1.2,2.2
		c-3.5,5.7-7.1,11.4-10.5,17.2c-6.7,11.5-15.3,21.8-24.5,31.7c-4.5,4.9-9,9.7-13.5,14.5c-4.4,4.6-8.9,9.2-13.4,13.7
		c-12.9,13.1-25.9,26.2-37.7,40.1c-3.8,4.5-7.4,9.2-11,13.9c-1,1.4-1.7,3-2.4,4.5c-2.7,6.1-5.5,12.1-10.1,17.3
		c-0.6,0.6-1.1,1.5-1.9,1.8c-0.7,0.3-1.9,0.3-2.6-0.1c-0.6-0.4-1.4-1.5-1.2-2c2.8-8.3,3.2-17,5.3-25.4c0.3-1,0.4-2.1,0.4-3.1
		c0.3-9.1,1.5-18.1,0.3-27.2c-0.2-1.7-0.4-3.4-0.6-5c-0.1-0.8-0.8-1.9-0.4-2.5c2.9-4.9,0-9.6-0.5-14.3c-1.3-12.7-2.6-25.3-2.5-38
		c0.2-16.1-0.1-32.2-0.7-48.3c-0.3-7.6-0.5-15.3-3.2-22.6c-0.3-0.9-0.3-2.1,0-3c2.1-5.8,3.9-11.7,6.8-17.3c2-3.8,3.2-7.9,4.8-11.9
		c2.4-6,4.8-11.9,7.2-17.9c0.5-1.2,1.1-2.4,1.3-3.6c1.6-9,5.7-17.4,8.6-26.1c1.2-3.7,2.5-7.3,3.3-11c1.7-7.5,4.3-14.7,6.7-22
		c1.8-5.2,2.9-10.7,3.9-16.1c2.1-10.6,3.7-21.3,5.8-31.9c1.5-7.5,3.5-14.9,5.2-22.3c0.3-1.2,0.7-2.7,0.2-3.7
		c-2.2-4.5-1.6-9.3-1.2-13.8c0.9-11.5,3.7-22.6,11.2-32.3c1.7-2.3,2.9-4.7,3-7.6c0.1-2.5,1.4-4.9,2-7.4c1.2-4.5,2.2-9.1,3.4-13.6
		c1.1-3.9,0.9-7.9,1.3-11.9c0.3-2.9,0-6,0.7-8.8C260.5,18.1,262.3,15.5,263.7,12.7z M277.6,214c0.6-1,0.7-1.3,0.8-1.3
		c1.1-0.1,2.3-0.2,3.4-0.1c8.1,1.3,15.5,4.5,23,7.5c3.6,1.4,7,3.1,11.3,3.6c1.1-3.5,2.3-6.6,1.8-10.4c-3.5-1-7.1-2-10.6-3
		c-8.5-2.4-16.9-4.7-25.4-7.1c-0.6-0.2-1.1-1-2.1-2.1c3.9-0.2,6.8,0.6,9.6,1.6c9.2,3.6,19.1,5.3,28.6,8.1c0.2,0.1,0.5-0.1,0.7-0.1
		c0.2-0.1,0.4-0.2,0.5-0.4c0.4-0.5,0.8-1.1,1-1.7c1.6-4.1,1.1-5.2-3.5-6.6c-6.7-1.9-13.4-3.7-20.1-5.6c-3-0.8-6.1-1.5-9.1-2.8
		c1.2-2.1,3-1.8,4.4-1.5c4.1,0.9,8.1,1.9,12.1,3.1c5.5,1.6,11,3.5,16.6,5.2c0.4,0.1,0.9-0.1,1.6-0.3c0.2-0.7,0.6-1.4,0.8-2.2
		c0.1-0.8,0-1.6,0-2.7c-3-0.8-5.8-1.6-8.7-2.3c-2.9-0.7-5.9-1.3-8.8-2c-2.9-0.7-5.9-1.4-8.7-2.4c-2.6-1-5.9-0.4-8.4-2.7
		c0.9-0.5,1.5-1.1,2-1c2.1,0.2,4.2,0.5,6.2,1c5.6,1.6,11.1,3.4,16.6,4.9c3.5,1,7.1,1.7,10.5,2.5c2.1-2.2,2.5-4.4,2.5-6.8
		c-4.2-3.5-9.8-3-14.5-4.5c-4.7-1.5-9.8-2.2-15.1-3.3c0.7-0.8,1.1-1.6,1.6-1.6c1.6-0.1,3.2-0.1,4.8,0.2c6.5,0.9,12.6,2.9,18.8,4.8
		c1.5,0.4,3,0.6,4.7,1c0.6-2.4,2.7-4,1.2-6.6c-3.1-0.9-6.3-2.1-9.8-2.7c-5.7-1-11.4-2.3-17.1-3.4c-1-0.2-1.6-0.7-1.4-2
		c1-0.1,2.2-0.5,3.2-0.3c4.8,0.9,9.6,1.9,14.3,3c3.4,0.8,6.8,1.7,10.2,2.4c1.9,0.4,2.9-0.2,3.5-2.2c0.3-0.9,0-1.9,0-2.7
		c-2.7-0.7-4.9-1.4-7.1-1.9c-2.2-0.6-4.5-1-6.7-1.7c-2-0.6-4.6-0.2-6.1-2.6c7.8-1.8,13.9,3.1,21.3,3.6c0.7-2.4,1.9-4.4,1.4-7
		c-1.8-0.7-3.4-1.4-5.1-2.1c-1.6-0.6-3.7-0.1-5.3-2c4.3-1.8,7.7,1.9,11.5,0.6c0.5-1.2,1-2.3,1.4-3.5c2.2-7.1,5.9-13.8,7.3-21.1
		c1-5.2,2.5-10.3,3.7-15.5c1.2-5.3,4.1-10.3,3.5-16c0-0.4,0.3-0.8,0.4-1.2c1.9-6.3,3.9-12.6,5.8-18.9c1.2-4,2-8.1,2-12.4
		c-5.5-2.1-10.7-3.7-16.2-5c-0.9-0.2-1.6-1-3-1.8c4.7-1.2,8.2,0.1,11.7,1.3c2.4,0.8,4.7,1.8,7.1,2.6c0.3,0.1,0.8-0.2,1.7-0.4
		c0.3-1,0.5-2.2,0.9-3.5c-6.7-3-13-6.1-20.1-7.9c-8.8-2.2-17.5-4.5-26.2-6.9c-1-0.3-3-0.1-2.7-2c9-0.1,21.7,3.4,48.4,13.5
		c2-3.3,2.1-4,1.2-8.5c-2.1-0.6-4.3-1.2-6.5-1.7c-1.8-0.5-3.7-0.7-5.4-1.3c-12.3-4.1-25.1-6.5-37.9-8.8c-0.9-0.2-1.9-0.2-2.7-0.5
		c-0.5-0.2-1.3-1.1-1.2-1.3c0.5-0.6,1.1-1.3,1.9-1.4c0.8-0.2,1.8,0,2.7,0.2c7,1.5,14.1,3,21.1,4.7c8.8,2.2,17.5,4.6,26.2,6.9
		c0.7,0.2,1.4,0.4,2,0.3c0.6-0.1,1.3-0.6,1.5-1.1c0.2-0.5,0-1.5-0.3-1.7c-1.6-0.9-3.2-1.8-4.9-2.3c-9.6-2.6-19.3-5.1-28.9-7.6
		c-6.1-1.5-12.2-2.9-18.2-4.4c-0.9-0.2-1.6-0.7-2.6-1.2c0.6-0.6,0.9-1.4,1.4-1.4c1.1-0.1,2.3-0.2,3.4,0.1c8.5,2.2,17,4.5,25.5,6.7
		c2.2,0.6,4.5,1.2,6.7,1.8c3.8,1,7.6,1.9,11.4,3c2,0.6,3.9,1.4,5.9,1.9c1,0.2,2.2-0.1,3.9-0.2c-0.8-1.6-1.1-3-2-3.6
		c-1.7-1.1-3.7-1.8-5.7-2.4c-11-3.6-22.3-6.3-33.8-8.2c-3.7-0.6-7.3-1.3-11-2.1c-0.9-0.2-1.7-0.7-1.4-2.1c4.5-1.4,9,0.5,13.4,1.2
		c4.6,0.6,9,2.1,13.5,3.3c4.7,1.2,9.3,2.8,14.1,3.8c4.5,1,8.3,3.9,13.1,3.9c1-2,1.1-3.8-0.3-5.9c-8.1-2-16.5-3.9-24.7-6.2
		c-8.2-2.2-16.7-3.4-25.2-6.3c3.6-1.3,6.7-1,9.6-0.4c11.3,2.5,22.6,5.1,33.6,8.6c2.2,0.7,4.3,1.3,6.4,2c2.1-1.9,1.4-3.8,1.2-5.8
		c-3-2.3-6.1-4.3-10.3-4.6c-1.9-0.1-3.7-0.6-5.5-0.9c-12-1.6-23.8-4.4-35.2-8.3c-1.2-0.4-2.5-0.8-3.9-1.2c-0.3,1.4-0.5,2.5-0.8,3.5
		c-3.8,10.5-7.2,21-9.7,31.8c-0.3,1.4-1,2.8-1.6,4.2c-0.4,0.7-1,1.4-2.5,0.5c1.1-5.2,2.1-10.6,3.3-15.9c1-4.5,2.3-9.1,3.4-13.6
		c0.7-2.8,0.4-5.4-1.4-8.1c-5.2,0.5-9.4,2.6-13.8,4.6c-5,2.2-10.1,4.3-15.2,6.5c-1.2,0.5-2.5,1-3.6,1.4c-2.3,10.9-4.4,21.4-4.8,32.4
		c3.3-0.3,6-0.6,8.7-0.7c6.1-0.3,11.6,1,15.7,5.5c1.3,1.5,2.8,2.8,4.2,4.3c1.8,1.9,3.5,3.8,5.3,5.8c2.2-1.3,4.1-2.6,6.2-3.5
		c2.5-1.1,5.1-2.2,7.7-2.9c2.5-0.7,5.2-0.5,7.4,0.9c4,2.6,7.9,5.3,11.9,7.8c2.7,1.6,4.2,3.9,5.4,6.5c4.3,9,4.7,18.5,4.5,28.1
		c-0.2,8.3-2.9,16.3-6.2,24c-3.1,7.2-8.7,12.6-15.7,16.6c-8.8,5-18.3,4.2-27.8,1.8c-0.7-0.2-1.3-0.5-1.8-0.9
		c-6.2-5-11.9-10.2-12.9-18.2c-0.2-1.4-0.9-2.7-1.5-4.3c-9.1,2.8-17.8,4.9-27.2,2.7c-0.7,1.3-1.5,2.4-1.8,3.6
		c-2,7.4-4,14.8-5.8,22.2c-2,8.3-3.8,16.6-7.2,24.5c-2.6,6.1-4.7,12.4-6.5,18.8c-2,6.7-3.3,13.6-5.1,20.4c-1.4,4.9-3.6,9.7-4.7,14.6
		c-1.7,7.5-4.6,14.6-7.7,21.7c-0.7,1.6-1.5,3.1-2.1,4.7c-5.3,13.3-10.5,26.7-16,40c-2,4.8-1.7,8.5,2.9,11.8
		c4.4,3.2,7.6,7.4,10.6,11.8c2.7,3.9,5,8.1,7.5,12.2c3.6,6,6.6,12.1,9.3,18.5c0.3,0.6,1,1.1,1.7,2c4.6-8.2,7.7-16.5,10.3-24.8
		c3.3-10.6,5.9-21.3,8.8-32c0.3-1.2,0.9-2.4,1.3-3.6c0.8-2.4,1.8-4.8,2.5-7.3c1.9-7.4,3.7-14.8,5.4-22.3c0.8-3.7,1.2-7.5,1.8-11.3
		c0.1-0.8,0.2-1.7,0.4-2.5c1.2-3.9,2.3-7.8,3.6-11.6c0.3-0.9,1.1-1.7,1.7-2.5c0.3,0.1,0.6,0.2,0.8,0.2c-0.2,1.7-0.4,3.4-0.7,5.4
		c2.4,0.4,4.5,0.8,6.5,1.2c3.2,0.6,6.5,1,9.6,1.9c10.5,2.9,21.1,5.3,31,9.8c0.9,0.4,2.1,0.2,3.1,0.3c2.5-6.1,0.2-7.7-5.1-9.1
		c-1.3-0.4-2.7-0.6-4.1-1c-9.7-2.2-19.5-4.4-29.2-6.6c-0.8-0.2-1.5-0.6-2.2-0.8c0.5-1.9,1.8-1.8,2.8-1.6c11.2,2.1,22.4,4.2,33,8
		c1.5,0.5,3.1,1,4.6,1.4c0.4,0.1,0.9-0.1,1.9-0.3c0.3-1.3,0.7-2.9,1.1-4.4c-3.9-2.4-8-3.3-12-4.4c-9.6-2.5-19.2-5.3-28.8-8
		c-0.7-0.2-1.9-0.2-1.2-1.8c14.6,1.5,28.2,6.6,42.1,11.4c0.9-1.6,1.8-2.8,2.3-4.1c1-2.6,0.4-4.1-2.4-5.2c-4.9-1.9-9.9-3.8-15-5.4
		C291.3,218.2,284.6,216.2,277.6,214z M191.2,309.9c0.3,4,0.8,7.5,0.9,11.1c0.4,16.3-0.5,32.6,0.8,48.9c1,11.8,1,23.7,1.6,35.5
		c0.2,3.2,0.6,6.3,1.1,9.5c0.6,4.2,1.6,8.3,2.1,12.5c0.4,3,1.4,5.8,3.1,8.3c2.1,3.3,4.1,4.1,8.2,3.4c1.3-0.2,2.6-0.8,3.9-1.3
		c7.8-3.3,14.9-7.8,21.7-12.6c1.5-1,2.7-2.3,4-3.5c3.6-3.6,7.2-7.2,10.9-10.7c0.6-0.5,1.7-1.3,2.2-1.1c2.8,1,3.8-1,5.1-2.3
		c6.2-6.6,12.3-13.3,18.4-20c1.8-2,3.3-4.1,5.2-6c6.6-6.9,12.6-14.1,18-21.8c3.7-5.3,7.2-10.7,10.4-17.7c-1.8,1.4-2.6,1.9-3.4,2.6
		c-5.8,5.2-11.7,10.3-17.2,15.7c-2.3,2.3-4.6,2.4-7.5,1.6c-1.8-0.5-3.5-1.1-5.3-1.4c-5.3-0.8-10.6-1.5-15.9-2.1
		c-2.5-0.3-5.1-0.3-7.6-0.4c-6.7-0.3-13.5-0.8-20.3-0.8c-6.5,0-10.3-2.9-12.8-8.1c-2.4-5-5.3-9.9-8-14.8
		c-4.2-7.6-8.8-14.9-14.7-21.5C194.7,311.6,193.6,310.1,191.2,309.9z M337.7,99.8c-0.4-3.2-0.7-8.1-1.6-12.9
		c-0.7-3.7-1.8-7.5-3.4-11c-1.5-3.5-4.4-5.9-9-6c-2.1,0-4.1-0.7-6.1-1.1c-3-0.5-6-1.2-9-0.3c-5.7,1.7-10.6,4.5-13.4,9.6
		c-3.3,5.9-6.4,11.8-9.5,17.7c-3.4,6.4-3.6,13-1.7,19.8c0.9,3.1,1.4,6.2,2.3,9.3c1.1,3.7,2.3,7.3,3.7,10.9c0.9,2.5,2.4,4.9,5.1,5.8
		c7.7,2.6,15.5,3.1,22.8-1.2c5.6-3.3,9.7-7.8,12.4-13.4C334.2,118.8,337.6,110.6,337.7,99.8z M294.7,70.9c-2.4-2.8-4.9-5.1-6.7-7.8
		c-2.6-3.6-6.6-5.3-10.5-7.1c-2.7-1.2-5.9-1.3-8.7,0.5c-4.6,2.9-9.1,5.8-12.5,10c-5.6,6.9-9.7,14.4-12,22.7
		c-1.8,6.6-2.8,13.3-2,20.1c0.6,5.9,4.3,9.7,10.4,11.5c2,0.6,4.1,0.8,6.2,0.9c5.5,0.3,10.6-1.4,15.7-2.6c1.8-0.4,2.3-1.8,2.4-4.1
		c0.1-5.9,0.2-11.8,2.5-17.4c3-7.5,6.2-15,11.6-21.6C292.3,74.3,293.5,72.5,294.7,70.9z M249.2,289.6c2.7-0.3,3.8-0.6,4.8-0.4
		c3.6,0.8,7.3,1.5,10.8,2.6c8.4,2.6,16.7,5.4,25,8.1c1.5,0.5,3.1,0.7,4.5,1c2.5-3,2.5-3,2.5-7.2c-0.7-0.3-1.5-0.7-2.4-0.9
		c-10.8-2.7-21.8-4.7-32.2-8.6c-2.4-0.9-4.9-1.4-7.4-1.8c-1.5-0.2-3.1,0.1-4.5,0.1c-1.2,3.9-2.4,7.3-3.4,10.8c-0.3,1.1,0,2.4,0,3.8
		c4.1,0.9,7.9,1.7,11.7,2.6c7.4,1.7,14.8,3.7,22.3,5.3c3.6,0.8,7.3,1.2,11,1.6c0.6,0.1,1.5-0.8,1.9-1.4c0.2-0.4-0.3-1.2-0.7-1.6
		c-0.4-0.4-1.2-0.7-1.8-0.9c-2.2-0.7-4.4-1.4-6.6-2.1c-10.7-3.1-21.4-6.1-32-9.1C251.9,291.4,251.3,290.9,249.2,289.6z M300.2,284.9
		c2.1-2.3,2.4-5.4,3.4-8.2c0.5-1.3-0.4-2.6-1.9-3c-3.6-1-7.2-2-10.8-2.6c-7.7-1.2-15-3.2-22.2-5.9c-4.1-1.5-8.1-3.2-12.5-3.4
		c-2.7,3.7-2.7,3.7-2,8.2C263,274.4,284.8,281.4,300.2,284.9z M256.3,257.9c5.6,1.8,10.6,3,15.1,5c5.5,2.4,11.2,4,17.1,5.4
		c4.3,1,8.5,2.1,12.8,3.1c1.1,0.3,2.1,0.4,3.4,0.7c0.5-1.3,1-2.2,1.3-3.2c1.1-3.7,0.9-4.3-2.8-5.9c-5.1-2.1-10.2-4-15.6-5.2
		c-8.5-2-16.9-4.5-25.4-6.7c-3.7-1-5.1-0.1-5.8,3.4C256.1,255.5,256.3,256.6,256.3,257.9z M286.3,335.6c-1.1-0.5-1.9-0.9-2.8-1.2
		c-8.3-2.8-17-4.6-25.6-6.5c-5.2-1.2-10.4-2.4-15.5-3.8c-0.5-0.1-0.8-1.2-1.4-2.1c5.4-0.7,9.7,0.7,14.2,2c9.3,2.7,18.6,5.4,28,8
		c1.2,0.3,2.6,0,4,0c-0.2-0.8-0.2-1.4-0.5-1.5c-14.8-6.3-30.7-9.6-46.2-15c-1.2,4.2-2.3,8.1-3.6,12.5c5.5,1.4,10.6,3.3,16.1,4.3
		c5.3,1,10.3,2.7,15.6,3.6c5.4,0.9,10.4,3.4,16.2,3.6C285.4,338.1,285.8,337,286.3,335.6z M241.4,313.4c16.7,3.3,31.4,9.8,46.7,15
		c2-3.4,2.1-6.9,2.3-10.4c-3.3-0.8-6.2-1.8-9.1-2.3c-10.8-1.8-21.5-3.7-31.8-7.1c-0.9-0.3-1.8-0.7-2.7-0.7c-1.3-0.1-2.6,0.1-3.9,0.2
		C242.4,309.9,242,311.3,241.4,313.4z M257.9,247.5c17.4,2.9,33.1,9.1,49.4,14.8c0.7-2,1.3-3.5,1.9-5.1c-1.1-0.9-1.7-1.9-2.7-2.3
		c-5.3-2.1-10.6-4.4-16.1-6c-6.9-2-14-3.4-20.9-5c-3.3-0.8-6.7-1.5-10.6-1.6C258.5,244,258.2,245.6,257.9,247.5z M281.3,348.8
		c1.1-2.1,2-4,2.9-5.9c-3.8-2.7-8.1-2.8-12.1-3.7c-4.1-0.9-8.1-1.9-12.2-2.8c-4.1-0.9-8.2-1.5-12.2-2.5c-4-1-7.9-2.3-12.3-1.8
		c-0.4,1.3-0.7,2.5-1.1,4.1c5.4,1.3,10.8,1.5,15.8,2.7c5.4,1.3,10.7,3,15.9,4.7C271.1,345.1,276,346.9,281.3,348.8z M280.7,352.1
		c-0.8-0.6-1.2-1.2-1.8-1.4c-11.1-4.5-22.6-7.7-34.5-9.6c-2.7-0.4-5.4-1.1-8.2-1.4c-1.1-0.1-2.2,0.3-3.1,0.5
		c-1.2,1.9-2.7,3.3-1.6,5.5c3.5,0.5,6.9,1.2,10.3,1.6c11.5,1.3,23.1,2.1,34.1,5.9C277.3,353.6,279.1,354.1,280.7,352.1z M291,315.5
		c1.6-3.5,2-4.5,1.2-5c-1.3-0.8-2.8-1.4-4.3-1.9c-1.1-0.4-2.3-0.4-3.4-0.6c-7.8-1.3-15.6-2.6-23.3-4.1c-4.5-0.9-9-2.2-13.5-3.3
		c-1.2-0.3-2.3,0-2.9,1.1c-0.7,1.3,0.2,1.9,1.4,2.4c0.6,0.3,1.3,0.5,2,0.7C262.1,309.1,276.1,312.7,291,315.5z M277.9,357.1
		c-10-4.9-39.1-8.3-49.1-6.8c-0.4,1.2-0.8,2.5-1.4,4.1c4,0.3,7.5,0.8,11,0.7c9.8-0.1,19.6-0.2,29.3,1.2c2.1,0.3,4.1,0.6,6.2,0.7
		C275.2,357.2,276.6,357.1,277.9,357.1z M299.8,288.3c-4.7-2.5-9.3-3.8-14.1-4.8c-8.8-1.9-17.6-4-25.8-7.5c-1.9-0.8-3.9-1.4-5.9-2
		c-0.4-0.1-0.9,0.1-1.7,0.2c-0.1,1.3-0.3,2.6-0.4,4.1c3.6,0.8,6.8,1.2,9.8,2.1c9.2,2.8,18.4,5.8,27.6,8.7c2.8,0.9,5.6,1.9,8.8,2
		C298.7,290.2,299.1,289.5,299.8,288.3z"/>
	<path class="st0" d="M125.4,158.2c0.5,0.3,1.4,0.6,1.4,1c0.2,2.5,0.4,5.1,0.1,7.6c-1.2,10.3-1.5,20.7-1.3,31.1
		c0.2,10.2,1.1,20.3,2.5,30.4c0.9,6.5,1.6,13,2.1,19.6c1.5,17.3,2.5,34.6,4.4,51.9c1.3,11.8,2.4,23.6,4.7,35.2
		c1.2,5.8,1.1,11.8,1.7,17.7c0.3,2.9,0.6,5.9,1.3,8.8c1,4.5-0.3,8.8-0.5,13.2c-0.5,8.7-1.4,17.3-2.2,25.9c-0.4,4-1.2,7.9-1.7,11.9
		c-0.4,2.7-0.6,5.5-0.8,8.2c-0.4,5.3-0.9,10.5-1.1,15.8c-0.3,7.2,0.7,14.4,2,21.5c0.7,4.2,0.6,8.5,1.3,12.6c1.2,6.9,1.2,14,4.5,20.5
		c0.2,0.4,0.3,0.8,0.2,1.2c-0.4,2.5,1.8,5.4-1.2,7.6c-3.1-0.7-4.1-3.2-5.6-5.3c-2.1-2.8-3.9-5.8-5.9-8.6c-1.3-1.8-2.7-3.5-4-5.2
		c-1.8-2.4-3.7-4.9-5.5-7.3c-0.5-0.7-0.8-1.6-1.5-2.1c-4-3.2-5.7-7.7-7.8-11.9c-3-6-6.2-11.8-11.1-16.8c-0.9-0.9-1.5-2.1-2.3-3.2
		c-3.8-5.1-7.5-10.1-12.2-14.7c-5.4-5.3-9.8-11.3-14.8-16.9c-2.5-2.8-5.1-5.5-7.8-8.1c-1.6-1.5-2.8-3.1-2.6-5
		c0.6-5.4-1-10.5-1.7-15.8c-0.9-6.9-1.7-13.9-2.7-20.8c-2.3-16.6-4.6-33.2-7.1-49.7c-1.6-10.5-3.6-20.9-5.4-31.3
		c-1.1-6.5-1.6-13-3.1-19.4c-2.9-12.8-4-26-8.3-38.6c-0.8-2.4-1-5-1.6-7.5c-0.9-3.7-1.8-7.4-2.7-11.1c-1-4.4-2.2-8.7-2.7-13.1
		c-1.2-11-3.9-21.7-6.7-32.4c-2.3-9.1-5.3-18-8-26.9c-1.5-5.1-2.7-10.3-4.3-15.3C5.2,105.4,2.6,98,0,90.4
		c7.8-8.3,15.7-16.9,23.6-25.2c6.1-1.6,12.1-3.5,18.2-4.7c9.9-2,19.2-5.4,28.6-8.5c3.9-1.3,7.3-3.7,10.8-5.7
		c2.2-1.2,4.2-2.7,6.5-4.2c5.4,3.2,10.9,5.7,16.7,7.9c4.4,1.7,9,2,13.4,3.4c3.2,1,6.7,1.5,9.9,3.1c-5.1,9.6-6.5,19.6-7,29.7
		c0,0.8,0.1,1.8-0.2,2.5c-1.8,5-0.8,10,0.1,15c0.3,1.8,0,3.8,0.4,5.6c0.3,1.8,0.9,3.7,1.7,5.4c3.1,6.4,5.5,13,6.9,19.9
		c1.4,7.3,1.3,14.3-4,20.6C125.1,156,125.5,157.3,125.4,158.2c-2-0.7-3.4,0.5-5,1.4c-2.8,1.5-5.7,2.8-8.7,3.9
		c-1.2,0.4-2.8,0.4-3.7-1.4c1.1-0.6,2.2-1.3,3.3-2c2.5-1.5,5.2-2.9,7.6-4.6c4.2-3,6.5-6.9,7.1-11.9c0.4-3.5-0.6-6.7-1.3-10
		c-1.6-7.7-4.5-15.1-8.9-22c-1.6-2.6-3.5-5-7.1-6.3c-6.4,3.1-8.7,8.9-11.5,14.4c5.6,5.7,9.4,12,10.3,19.4c0.5,4,1.1,8,0.8,12
		c-0.3,4.2-0.7,8.5-2.4,12.4c-4.4,10.4-12.7,17.6-24,21.9c-3.5,1.3-7.4,1.9-10.9,0.1c-3.7-1.8-7.1-4.2-9-7.8
		c-4.1-7.5-6.5-15.5-5.9-23.9c0.4-5.9,1-11.8,3.1-17.4c0.4-1,0.8-2,0.9-3c0.5-6.3,4.2-11.1,9.1-15.3c5.6-4.8,12-6.2,19.2-3.1
		c1.6,0.7,3.2,1.5,5.2,2.4c1-1.5,2-2.7,2.5-4c1.5-3.9,4.3-7,7.5-9.8c3.5-3,5.6-3,9.9-0.6c1.1,0.6,2,1.1,3.1,0.5
		c-0.1,0.4-0.3,0.8-0.3,1.2c0,0.1,0.2,0.3,0.3,0.4c0-0.5,0-1-0.1-1.5c-0.7-5-1.5-10.1-2.2-15.1c-0.2-1.7-0.2-3.4,0-5.1
		c0.8-7.4,1.6-14.8,1.3-22.2c0-1.2-0.2-2.4-0.3-3.7c-4.6-1.2-8.8-2.3-13.1-3.4c-4.2-1.1-8-3.3-12.8-3.4c0,5.1,0,10,0,14.8
		c0,5.1,0.1,10.2,0,15.3c-0.1,4.8,0.5,9.7-0.5,14.7c-4.6-1.7-0.3-5.8-3.3-7.9c-9,1.9-17.5,6.1-26.6,8.5c-9.4,2.5-18.7,5.1-27.9,7.6
		c-1.4,3.8,0.1,6.8,1.3,10.2c15.9-3.7,30.9-8.5,46.4-16c-0.9,1.9-1,2.8-1.6,3.1c-1.9,1.1-3.9,2.3-6.1,3c-10.5,3.5-21,6.9-31.6,10.4
		c-2.2,0.7-4.6,0.8-6.5,2.7c-0.6,2.1-0.3,4.2,1.2,6.1c5.7,0.3,10.1-3.6,17-2.9c-5.7,3.6-11.6,3.8-16.4,6.3c-0.5,3.5-0.3,6.8,1.7,9.7
		c1.8,0.3,4-1.1,4.7,0.8c0.9,2.5-2.1,2.2-3.5,2.9c-0.4,0.2-0.7,0.5-1.5,1.1c0,3.9,0.9,8,2.2,12c0.5,1.4,0.8,2.7,0.5,4.3
		c-0.3,1.8,0,3.8,0.4,5.7c3,15,6.1,30,9.3,44.9c0.7,3.5,1.3,7.1,3.6,10.6c6.4-0.8,12.6-2.4,19.4-3.8c-0.4,1.1-0.5,2-0.9,2.1
		c-2.2,0.7-4.4,1.3-6.6,1.8c-3.8,1-7.9,0.9-11.6,3c0.4,3.5,0.3,7,2.7,10.5c2.9-0.7,5.8-1.5,8.7-2.2c6.3-1.6,12.6-3.2,18.9-4.8
		c0.8-0.2,1.9,0.1,1.7,1.7c-1.8,0.5-3.7,1-5.7,1.5c-6.5,1.7-13.1,3.3-19.6,5c-3.5,0.9-4.1,1.8-3.8,5.1c0.1,1,0.6,2,1,3.2
		c1.3-0.2,2.5-0.3,3.6-0.6c8.6-1.8,17.3-3.6,25.9-5.4c1.2-0.2,1.7,0.4,1.6,2.2c-10,1.9-20.4,2.9-30.2,6.5c-0.4,3.4,0.1,6.4,2,9.6
		c6.1-1.5,12.2-2.9,18.2-4.3c3.9-0.9,7.7-1.6,11-3.9c0.3-0.2,0.9-0.2,1.3-0.2c0.2,0,0.5,0.1,0.6,0.3c0.2,0.3,0.5,0.9,0.3,1.1
		c-0.5,0.7-1.1,1.4-1.9,1.8c-2.6,1-5.2,2-7.9,2.7c-4.7,1.1-9.6,1.9-14.4,2.8c-2.7,0.5-5.5,1-7.5,2.9c0.1,4,0.1,4,2,7
		c0.2,0,0.5,0.1,0.7,0c10.4-2.4,20.8-4.8,31.2-7.2c1.3-0.3,2.8-0.6,3.4,1.1c-1,1.8-3,1.7-4.7,2.1c-8.2,1.7-16.4,3.5-24.5,5.2
		c-1.4,0.3-2.8,0.6-3.9,1.2c-0.9,0.5-1.9,1.5-2,2.4c-0.1,2.9-0.2,5.9,2.1,8.6c12.8-2.7,25.4-5.3,38.1-8c0.6-0.1,1.2-0.6,2-1
		c0.8-5.7,0.1-11.3-0.4-17c-0.3-3.1-0.5-6.3-0.5-9.5c0-1,1-1.2,2.4-0.7c0.1,3.4,0.1,7,0.5,10.5c0.8,8.4,2,16.8,2.5,25.3
		c0.5,9.1-0.2,18.1,1.2,27.2c0.5,2.9,0.6,5.9,0.9,8.8c0.7,5.5,1.5,10.9,2.3,16.4c0.8,5.3,1.6,10.5,2.6,15.7c0.8,4.4,2,8.7,2.8,13
		c1.4,7.7,2.4,15.5,3.9,23.2c1.5,7.8,3.3,15.6,5.3,25c1.3-5.6,2.2-9.7,3.1-13.9c1.5-6.9,4.5-13.4,6.9-20c1.6-4.3,2.4-8.6,1.7-13.1
		c-0.5-3.4-1.1-6.7-1-10.1c0.4-11.7-2.5-23.2-3.5-34.7c-1-11.4-2.8-22.7-4-34c-0.5-4.4-0.6-8.8-0.9-13.3c-0.6-8.2-0.1-16.5-2.4-24.6
		c-0.3-1-0.1-2.1-0.2-3.2c-0.5-4.8-1.1-9.7-1.6-14.5c-0.5-4.4-1.2-8.8-1.5-13.2c-1.3-17.4,0-34.7,0.9-52.1
		C124.4,159.7,125,158.9,125.4,158.2z M59.9,154.9c0.4,4,0.6,8,1.4,11.9c1,4.6,3.1,8.9,6.5,12.5c2.2,2.4,5,3.8,8.6,2.8
		c8.6-2.6,16-6.5,21-13.8c4.2-6.1,6-12.6,6.3-19.8c0.3-8.7-2.2-16.3-7.6-23.2c-3.9-4.9-9.5-7.4-16.2-7.4c-1.7,0-3.5,0.9-5.2,1.5
		c-1.4,0.6-1.7,1.8-1.8,3.2c0,0.7-0.8,1.5-1.5,1.9c-2.4,1.2-3.5,3.3-4.7,5.4C62.1,137.7,59.8,146,59.9,154.9z M128.2,415.5
		c-5.9-0.2-11.2-0.4-16.6-0.6c-4.2-0.1-8.4-0.3-12.6-0.3c-2.2,0-4.2-0.4-5.9-1.7c-4.2-3.2-9.7-4.2-14.2-6.7
		c-0.4-0.2-1.3,0.1-2.1,0.2c0.2,0.8,0.2,1.5,0.6,1.9c4.8,5.7,9.6,11.4,14.5,17c2.7,3.2,6,6,8.4,9.3c6.4,8.8,13.1,17.4,17.5,26.5
		c4.8,2.1,9,3.9,13.1,5.7c4.7-2.7,5.2-3.6,3.9-8.8c-2.9-11.5-2.3-23.1-0.9-34.7c1.1-9.5,2.3-18.9,3.4-28.4c0.3-2.7,0.4-5.5,0.6-8.2
		c0.1-0.8,0.6-1.6-0.8-2c-3.1,2.7-3.1,6.5-3.8,9.9C132.1,401.7,130.5,408.4,128.2,415.5z M84.1,76.3c0.3,0.3,0.6,0.7,1,1
		c-0.8,0.6-1.5,1.6-2.4,1.9c-6.5,1.7-12.6,4.4-18.9,6.6c-0.6,0.2-1.3,0.5-2,0.6c-9.4,1.7-18.3,4.9-27.3,7.8
		c-1.9,0.6-3.7,1.6-5.8,2.6c0.9,1.7,1.5,2.9,2.1,4C44.2,99.6,78.1,89,86.4,83.5c0.9-8.6,0.7-19-0.6-23.2c-9.1,4.3-18.9,7-28.6,10
		c-9.6,3-19.3,5.8-28.9,8.7c-0.3,2.5-1.1,4.6,0.7,6.3c5.1,0.7,9.2-1.8,13.6-2.9c4.5-1.1,8.9-2.6,13.2-4c4.6-1.5,9-3.3,13.6-4.9
		c4.2-1.4,7.3-4.9,12.4-5.6c-0.7,3-3,3.8-5,4.6c-6.4,2.6-12.7,5.3-19.2,7.5c-7,2.4-14.2,4.2-21.2,6.3c-2,0.6-3.9,1.3-5.8,2.2
		c-0.6,0.3-1.1,1.5-0.9,2.1c0.2,0.6,1.4,1.2,2.1,1.1c2.7-0.5,5.4-1.3,8.1-1.9c11.8-2.6,23.3-5.9,34.5-10.3
		C77.6,78.2,80.9,77.3,84.1,76.3z M78.9,356.7c12-1.8,22.5-5.4,33.1-10.3c-1.8-6.2-0.7-12.6-3.6-18.6c-1.1,0.2-1.8,0.3-2.4,0.5
		c-5.8,2.2-11.7,3.9-18.2,4.3c-4.6,0.3-9,1.5-13.6,2.3c-1,3.8,0.7,6.8,1.8,10.2c6.5-1.1,12.6-2.2,18.5-4.2c3.9-1.4,7.5-3.3,11.4-4.7
		c1.2-0.5,2.9-0.6,3,1.4c-2.6,2.6-6.1,3.8-9.7,4.8c-6,1.6-12.1,2.8-18.2,4.2c-1.5,0.4-2.8,1.1-4.5,1.8C77.3,351,78,353.4,78.9,356.7
		z M85.2,46.8c-7.7,5.8-15.7,8.8-23.8,11.3c-6.2,1.9-12.5,3.3-18.7,5C37.4,64.5,32.1,66,27,67.4c-1,3.5,0.5,6.1,0.9,8.9
		c12-0.9,47.2-12.9,58.7-20.1C86.2,53.5,85.8,50.7,85.2,46.8z M88.2,387.8c1.4-0.2,2.6-0.3,3.7-0.5c7-1.6,14-3.2,21-4.8
		c1.8-0.4,3.2-0.3,3.9,1.7c-0.5,0.4-0.9,1-1.5,1.2c-2.5,0.6-5,1.2-7.5,1.6c-5.3,1-10.5,1.9-15.8,2.9c-1.1,0.2-2,0.9-3,1.3
		c0.2,0.9,0.3,1.5,0.6,2.1c0.4,0.7,0.9,1.4,1.5,2.2c10.3,0.2,19.8-2.7,29.4-5.3c-1.1-5.3-2-10.3-3.1-15.3c-0.2-0.7-1-1.3-1.5-2
		c-10.1,2.5-20,4.9-29.9,7.3C85.7,383.4,85.7,383.4,88.2,387.8z M104.8,272.7c-6.6-0.1-35.3,5.9-41.5,8.6c0.5,2.7,0.2,5.7,1.6,8.6
		c1-0.1,2-0.1,2.8-0.4c6.8-2.2,13.8-3.8,20.9-5.1c5.4-1,11.1-1.5,16.2-4.5C104.8,277.8,104.8,275.5,104.8,272.7z M104.9,306.3
		c-11.6,1.9-23.2,4.8-35,7.3c-0.1,3.2-0.3,6,1.3,9c9.9-0.9,19.4-2.4,28.6-5.4c2.6-0.8,5.2-1.8,7-3.9
		C106.4,310.9,107.2,308.5,104.9,306.3z M104.8,284.7c-13.6,1.7-26.7,3.8-39.7,7.6c0.5,2.5,0.9,4.7,1.3,6.6c0.9,0.3,1.4,0.6,1.8,0.5
		c10.5-1.6,21.2-2.9,31.4-5.9c1.9-0.6,3.7-1.6,5.3-2.4C104.8,288.8,104.8,287,104.8,284.7z M105,302.3c0.2-2,0.5-3.7,0.4-5.3
		c0-0.6-1.1-1.3-1.8-1.6c-0.5-0.2-1.4-0.1-2,0.1c-8.8,2.9-18.1,3.6-27.3,4.9c-2.2,0.3-4.4,1-6.8,1.6c0.7,3.2,0.2,6.3,2,8.8
		C80.5,309.5,97.8,305.3,105,302.3z M84.4,377.3c15.6-2.4,26.6-5.7,31.8-9.5c-0.6-1.9-1.1-3.9-1.8-6.2c-5.5,1.2-10.8,2.1-15.8,3.6
		c-5.2,1.5-10.9,1.9-15.9,4.9C83.2,372.5,83.7,374.7,84.4,377.3z M97.5,408.4c9.2-0.8,17.2-3.7,25-7.8c-0.5-2.2-1-4.2-1.5-6.3
		c-8.9,1.3-17.3,2.6-25.7,3.9c-0.6,0.1-1.2,0.5-1.8,0.8c-0.2,0.1-0.3,0.3-0.7,0.9C93.2,402.8,94.9,405.4,97.5,408.4z M71.1,325
		c0.2,3.1,0.9,5.2,2.6,7.4c12.1-1.3,24-2.7,34.6-9c0-1.8,0.1-3.7-2.1-5.3C95.2,322.1,83.4,323.3,71.1,325z M112.2,350.8
		c-11.2,3-21.8,5.9-32.7,8.8c0.3,1.2,0.5,2.4,0.9,3.6c0.4,1.1,1,2.2,1.4,3.2c0.9,0.1,1.4,0.2,1.8,0.1c8.5-2.2,17-4.5,25.4-6.8
		c1.5-0.4,2.8-1.2,4.2-1.8C113.5,355.3,114.1,353,112.2,350.8z M123,405.3c-5.1,1.7-9.4,3.2-13.7,4.7c-0.1,0.1-0.2,0.4-0.3,0.6
		c0,0.1,0.1,0.3,0.2,0.4c3.4,0.4,6.8,0.8,10.2,1.1c0.9,0.1,1.8-0.1,2.7-0.4c0.6-0.2,1.1-0.7,1.7-1.3
		C123.6,408.7,123.3,407.1,123,405.3z"/>
	<path class="st0" d="M258.1,169.1c1.2,0.6,2.6,0.9,2.9,1.5c1,1.9,1.5,3.9,4.4,4.4c2.9,0.5,5.2-0.6,7-2.2c4.5-4,9.2-7.9,10.7-13.8
		c0.1-0.4,0.4-0.7,0.7-1.1c1.8-0.8,2.6,0.1,3,1.5c0.2,0.8,0.1,1.7,0,2.5c-1,6.3-2.6,12.4-2.7,18.9c-0.1,3.8-1.4,7.5-3.6,10.8
		c-3,4.5-7.1,5.3-11.7,2.1c-5.3-3.8-8.9-8.6-10.1-14.7C258.1,176,257.5,172.9,258.1,169.1z"/>
	<path class="st0" d="M295,110.9c1.9-0.8,3.5-1.6,5.3-2.2c2.5-0.9,5.2-0.1,6.7,1.9c1.5,2,1.3,4.5-0.6,6.4c-3.6,3.6-8.4,3.5-11.3-0.2
		C293.7,115,294.3,113.2,295,110.9z"/>
	<path class="st0" d="M258.4,110.2c-1.4-0.8-2.4-1.3-3.3-2c-1.6-1.2-2.1-2.9-1.1-4.6c1-1.7,2.1-3.3,3.5-4.7c1.8-1.7,4.6-1.2,6,0.7
		c2.5,3.2,1.9,6.4-1.7,8.8C261,109.1,259.8,109.5,258.4,110.2z"/>
	<path class="st0" d="M89.8,199.9c0.8,0.9,1.6,1.6,2.2,2.4c1.4,1.7,2.6,3.5,4.2,5c1.9,1.8,4.2,1.8,6.2,0c2.4-2.1,3.9-4.7,4.2-7.8
		c0.1-1.3,0.2-2.5,0.5-3.7c0.1-0.4,1.1-1,1.6-1c0.5,0,1.2,0.6,1.4,1.1c0.4,1,0.6,2.1,0.6,3.1c-0.5,6.5-1,13-1.6,19.6
		c-0.3,2.7-2.5,4.3-5.3,3.6c-2.6-0.7-5.4-1.6-7.5-3.2c-4-3-6.8-6.9-8.1-11.6C87.5,205.1,87.6,204.9,89.8,199.9z"/>
	<path class="st0" d="M115.3,131c0.6,0.7,1.7,1.5,2.1,2.5c0.3,0.8-0.2,1.9-0.5,2.9c0,0.1-0.3,0.2-0.5,0.3c-1.5,0.5-3.4-0.7-4-2.6
		c-0.4-1.1,0.5-2.7,1.7-3C114.3,131,114.5,131,115.3,131z"/>
	<path class="st0" d="M48.9,200.2c2.5,0,4.4,0,6.6,0c-1.2,2.5-3.5,1.6-5.4,1.8C49.8,202,49.4,201.1,48.9,200.2z"/>
	<path class="st0" d="M88.9,140.9c0.8,0.4,2.3,0.6,2.6,1.4c0.8,1.4,1.2,3.1,1.2,4.7c0,1.3-0.9,2.4-2.5,2.6c-1.9,0.2-3.4-0.3-4.1-1.6
		c-1.1-2-0.5-4.9,1.2-6.4C87.7,141.2,88.2,141.2,88.9,140.9z"/>
</g>
</svg>
