<?xml version="1.0" encoding="utf-8"?>
<!-- Generator: Adobe Illustrator 16.0.0, SVG Export Plug-In . SVG Version: 6.00 Build 0)  -->
<!DOCTYPE svg PUBLIC "-//W3C//DTD SVG 1.1//EN" "http://www.w3.org/Graphics/SVG/1.1/DTD/svg11.dtd">
<svg version="1.1" id="Layer_1" xmlns="http://www.w3.org/2000/svg" xmlns:xlink="http://www.w3.org/1999/xlink" x="0px" y="0px"
	 width="77.2px" height="85.3px" viewBox="487.6 339.3 77.2 85.3" enable-background="new 487.6 339.3 77.2 85.3"
	 xml:space="preserve">
<path d="M549.6,361.5c-1.4-1.4-2.4-2.6-3.5-3.7c-1.7-1.7-3.5-3.3-5.2-5c-0.1-0.1-0.4-0.4-0.5-0.4c-4.3-1.6-8.4-3.6-13.5-2.9
	c-3.6,0.5-7.2,1.2-10.4,2.9c-3.5,1.6-7.2,3.2-8.9,7.2c-0.6,1.4-2.2,2.5-3.6,3.5c-1,0.7-2.2,1.2-3.5,1.7c-0.4,0.1-0.9,0-1.5,0
	c0.4-0.7,0.6-1.2,0.7-1.7c0.4-0.9,0.5-1.9-0.7-2.1c-0.1,0-0.4-0.1-0.5-0.2c-0.4-1-0.6-2-1-3c-0.4-1.1-0.2-1.7,0.9-2.6
	c1.7-1.2,2.9-3.2,4.5-4.5c1.5-1.2,3.3-2,5-3.1c2.7-1.7,6-2.2,8.9-3.2c0.7-0.2,1.7-0.2,2.5-0.4c2.9-0.2,5.7-0.9,8.4-0.7
	c4.1,0.2,8.3,0.7,12,2.9c2.2,1.2,4.7,2,6.8,3.2c2.1,1.2,3.8,3.1,5.8,4.6c0.2,0.2,0.7,0.2,1.2,0.4c0-0.4,0.2-0.7,0.1-1
	c-0.4-2.6-0.9-5.3-1.4-7.9c-0.4-1.7-0.9-3.3-1.4-5.5c2.1,2.2,2.9,2,3.7-0.4c0.9,0,1.6-0.1,2.9-0.2c0.7,1.7,1.7,3.8,2.4,6.1
	c1.1,3.5,2,6.9,2.9,10.5c0.4,1.4,0.2,2.9,0.5,4.2c0.4,2,0.9,3.8,1.4,5.7c0.1,0.7,0.5,1.5-0.7,1.6c-0.6,0.1-1.1,1.1-1.7,1.7
	c-1.5-0.1-3.1-1.4-5-0.2c-0.2,0.1-0.6-0.1-1-0.1c-0.7-0.1-1.6-0.4-2.4-0.4c-2.4,0.1-4.6,0.4-6.9,0.4c-2,0-4.3,0.4-5.8-0.5
	c-1.9-1.1-3.5-0.9-5.3-1.2c-1.7-0.2-2.1-1.1-1.7-2.7c0.1-0.5-0.1-1.1-0.1-1.6s0.1-1.1,0.5-1.5c0.1-0.2,0.9-0.1,1.2,0
	c2.9,1.6,6,1.2,9.1,0.7C546.2,361.8,547.5,361.8,549.6,361.5z M556.8,359.3c0.4-0.9,0.6-1.2,0.6-1.5c-0.1-2.1-0.2-4.2-0.5-6.3
	c-0.1-0.5-0.9-0.9-1.2-1.4c-0.2,0.7-0.7,1.4-0.7,2.1c0.1,1.4,0.5,2.6,0.9,3.8C556.1,357,556.3,357.8,556.8,359.3z"/>
<path d="M502.8,402.5c1.4,1.4,2.4,2.6,3.5,3.7c1.7,1.7,3.5,3.3,5.2,5c0.1,0.1,0.4,0.4,0.5,0.4c4.3,1.6,8.4,3.6,13.5,2.9
	c3.6-0.5,7.2-1.2,10.4-2.9c3.5-1.6,7.2-3.2,8.9-7.2c0.6-1.4,2.2-2.5,3.6-3.5c1-0.7,2.2-1.2,3.5-1.7c0.4-0.1,0.9,0,1.5,0
	c-0.4,0.7-0.6,1.2-0.7,1.7c-0.4,0.9-0.5,1.9,0.7,2.1c0.1,0,0.4,0.1,0.5,0.2c0.4,1,0.6,2,1,3c0.4,1.1,0.2,1.7-0.9,2.6
	c-1.7,1.2-2.9,3.2-4.5,4.5c-1.5,1.2-3.3,2-5,3.1c-2.7,1.7-6,2.2-8.9,3.2c-0.7,0.2-1.7,0.2-2.5,0.4c-2.9,0.2-5.7,0.9-8.4,0.7
	c-4.1-0.2-8.3-0.7-12-2.9c-2.2-1.2-4.7-2-6.8-3.2s-3.8-3.1-5.8-4.6c-0.2-0.2-0.7-0.2-1.2-0.4c0,0.4-0.2,0.7-0.1,1
	c0.4,2.6,0.9,5.3,1.4,7.9c0.4,1.7,0.9,3.3,1.4,5.5c-2.1-2.2-2.9-2-3.7,0.4c-0.9,0-1.6,0.1-2.9,0.2c-0.7-1.7-1.7-3.8-2.4-6.1
	c-1.1-3.5-2-6.9-2.9-10.5c-0.4-1.4-0.2-2.9-0.5-4.2c-0.4-2-0.9-3.8-1.4-5.7c-0.1-0.7-0.5-1.5,0.7-1.6c0.6-0.1,1.1-1.1,1.7-1.7
	c1.5,0.1,3.1,1.4,5,0.2c0.2-0.1,0.6,0.1,1,0.1c0.7,0.1,1.6,0.4,2.4,0.4c2.4-0.1,4.6-0.4,6.9-0.4c2,0,4.3-0.4,5.8,0.5
	c1.9,1.1,3.5,0.9,5.3,1.2c1.7,0.2,2.1,1.1,1.7,2.7c-0.1,0.5,0.1,1.1,0.1,1.6s-0.1,1.1-0.5,1.5c-0.1,0.2-0.9,0.1-1.2,0
	c-2.9-1.6-6-1.2-9.1-0.7C506.2,402.2,504.9,402.2,502.8,402.5z M495.6,404.8c-0.4,0.9-0.6,1.2-0.6,1.5c0.1,2.1,0.2,4.2,0.5,6.3
	c0.1,0.5,0.9,0.9,1.2,1.4c0.2-0.7,0.7-1.4,0.7-2.1c-0.1-1.4-0.5-2.6-0.9-3.8C496.3,407.2,496.1,406.2,495.6,404.8z"/>
</svg>
