<?xml version="1.0" encoding="utf-8"?>
<!-- Generator: Adobe Illustrator 16.0.0, SVG Export Plug-In . SVG Version: 6.00 Build 0)  -->
<!DOCTYPE svg PUBLIC "-//W3C//DTD SVG 1.1//EN" "http://www.w3.org/Graphics/SVG/1.1/DTD/svg11.dtd">
<svg version="1.1" id="CloseX" xmlns="http://www.w3.org/2000/svg" xmlns:xlink="http://www.w3.org/1999/xlink" x="0px" y="0px"
	 width="1000px" height="1000px" viewBox="0 -100.2 1000 1000" style="enable-background:new 0 -100.2 1000 1000;"
	 xml:space="preserve">
<path d="M900,774c-24.6,37-53,28.2-81.5,10.9c-17-8.7-34.1-17.4-49.3-28.2c-64.4-47.8-130.7-93.5-193.3-145.7
	c-30.3-23.9-56.9-56.6-85.3-84.8c-17,17.4-34.1,34.8-51.2,47.8c-24.6,21.8-51.2,43.4-77.7,63c-13.3,8.7-28.4,10.9-43.6,17.4
	c-17,6.6-36,13-53,19.6c-13.3,4.3-26.6,13-39.8,10.9c-13.3-2.2-28.4-10.9-36-21.8c-3.8-6.6,5.7-26.1,13.3-37
	c9.4-17.4,20.9-30.4,32.2-45.7c1.9-2.2,1.9-4.3,1.9-4.3c-17-54.3,30.3-41.3,49.3-58.7c11.4-8.6,20.8-19.5,30.3-30.4
	c17-17.4,30.3-37,49.3-50c19-13,13.3-23.9,3.8-34.8c-24.6-26.1-49.3-47.8-73.9-71.8l-1.9-2.2c-7.6-17.4-13.3-32.6-34.1-39.1
	c-15.2-4.3-26.6-28.2-37.9-43.4c-28.4-39.1-60.6-76.1-77.7-126.1c-5.7-19.6-24.6-37-36-54.3c-17-26.1-3.8-41.3,13.3-56.6
	c19-15.2,36-4.3,53,8.7c13.3,10.9,36,6.6,55,4.3c15.2-2.2,26.6-17.4,41.7-21.8c9.4-2.2,20.9,6.6,28.4,15.2
	c55,58.7,109.9,119.6,164.8,180.3c19,19.6,36,41.3,55,60.9c5.7,4.3,19,8.7,22.7,6.6c20.9-15.2,39.8-32.6,58.8-50
	c22.7-19.6,45.5-41.3,66.3-63c13.3-15.1,22.7-34.7,34.1-52.1c7.6-13,11.4-30.4,30.3-21.8c15.2,8.7,24.6,15.2,15.2,39.1
	c-5.7,15.2,0,34.8,1.9,54.4c1.9,13,5.7,23.9,7.6,37c11.4,54.3-30.3,69.5-55,95.6c-22.7,23.9-49.3,45.7-70.1,69.6
	c-5.7,6.6-5.7,23.9-1.9,32.6c17,26.1,34.1,54.3,55,73.9c39.8,41.3,83.4,76.1,123.2,117.3c28.4,28.2,55,60.9,81.5,91.3
	c-1.9,2.2-3.8,6.6-5.7,8.7c-9.4-4.3-20.9-10.9-36-17.4C867.8,713.2,884.8,745.7,900,774z"/>
</svg>
