<?xml version="1.0" encoding="utf-8"?>
<!DOCTYPE svg PUBLIC "-//W3C//DTD SVG 1.1//EN" "http://www.w3.org/Graphics/SVG/1.1/DTD/svg11.dtd">
<svg version="1.1" id="SettingsBottomGround" xmlns="http://www.w3.org/2000/svg" width="1000" height="750" viewBox="0 0 1000 750">
<style type="text/css">
<![CDATA[
	.fill {fill:#eee6aa;}
	.face {fill:#FFFFFF;}
	.gears-inner {fill:#A7A9AC;opacity:0.2;}
	.gears-outer {fill:#939598;opacity:0.2;}
]]>
</style>
<path class="lines" d="M990.4,740.3c7.8-3.1-0.4-144.7-0.4-157.6c0.1-32.1,0.2-64.2-0.1-96.2c-0.3-28.3,1.2-20.7-22.8-22.4
	c-29.6-2.1-62.9,16.7-83.8,36.7c-11.1,10.6-63.2,43.8-64.7,57.2c-1,8.7-22.2,17.5-27.3,21.1c-16.4,11.8-30.9,30.7-50,38.4
	c-26.7,10.7-45,38.8-76,45.4c-14.7,3.1-31.3,19.2-47.1,17.7c-8.9-0.8-41.6,6.5-49,10c-32.4,15.2-68.1-19-97.3-14.3
	C439,681.8,382.4,614,363.7,594c-14.4-15.5-26.2-67.2-29.3-88.2c-5.3-35.7-23.3-85.9-15.8-123.7c1.9-9.5,2.2-30.6,2.8-41.3
	c1.3-22.6,9-45,13.7-66.9c7.4-34.7,27.5-84.2,46.9-113.8c-20.4-4.4-34.2-7.8-52.7-17.6c-11.1-5.9-12.5-17.4-24.4-11.1
	c-19.3,10.1-43,32.1-60.4,49.3c-24.6,24.3-48.5,49.8-68.3,79c-21.7,31.9-40.2,64.4-55.6,99.6c-26,59.3-54.8,111-68.6,174.9
	c-14.6,67.6-33.8,137-40.3,206.1C337.8,740.3,664.1,740.3,990.4,740.3z M1000,750C667.3,750,0,750,0,750s-0.2-14.7,2.6-28.4
	C8,695,20,658.9,21.7,650.6c10.2-46.9,20.7-93.6,30.8-140.5c3.6-16.5,11.5-33.8,13.3-50.1c0.2-1.9,15.3-44.5,19.1-46.9
	c19.4-12.2,33.8-69.3,45.6-91.4c11.8-22,29.5-60.9,48.3-76.6c19.3-16.3,32.1-41.3,52.2-57.9c17.9-14.8,39.9-36.2,55.3-53.8
	c9.3-10.6,11.3-9.9,15.7-20.7c3-7.6,4.6-25.7,7.4-34.8c8-26.5,47.3-29.2,68.8-27.7c25,1.8,47.1,3.2,57.3,30.9
	c8.3,22.5,8.9,44.5-11,61.4c-7.4,6.3-26.9,11-31,19.1c-4.2,8.2-10.2,23.1-16.3,30.1c-18.1,21-20.7,52.4-33.5,76
	c28.7-3.6,85.2-20.2,86.5-56.4c0.7-19.4-22.6-18.5-14-40.8c3.5-9,32.2-26.1,41-23.8c2.7,15.8-31.5,42.5,6.9,40.7
	c7.8-0.4,20.3-33.8,24.3-26.5c13.2,24.3,9.3,41.1-11.6,54c-5.9,3.7-29.7,20.3-28.8,22.9c-3.6-10.4,16.1-25,25.5-25.9
	c22.5-2.3,11-30.8,10.5-42.5c-2.7,2-8.6,14.2-8.8,18.1c-0.4,7.2-17.9,4.7-22.1,7.2c-6.1,3.7-10.8-15.5-16-17.8
	c-6.9-3.1,7.1-16.8,8.1-19.9c-6.9,0.5-29.8,18.6-26.3,24.5c5.5,9.4,14.8,15.4,19.9,23.3c6.6,10.1-20,21,7.2,23.9
	c-0.8,1.3-0.7,2.4,0.3,3.5c-19.4,9.6-38.4,21.9-56.1,35.4c-14.5,11-38,16.6-52.5,29.2c-13.7,11.9-14.1,118.8-11,141.1
	c12,85,37,186.4,132,211.7c50.5,13.5,101.5,25.6,153.8,12.5c55.5-13.9,93.3-44.4,140.2-75.2c46.2-30.2,78-79.9,121.2-113.9
	c36.8-29,81.8-42,126.1-48.4C1000,533.3,1000,641.6,1000,750z M430.6,130c21.5-68.6-68.1-104.5-112.3-55
	c-26.5,29.6,5.6,65.4,36.5,73.3c11.2,2.8,34.9,12,44.6,1.3C404.3,144.3,423.4,132.2,430.6,130C430.8,129.4,428.6,130.6,430.6,130z"
	/>
<path class="fill" d="M1000,750c7.8-3.1-10.1-154.5-10-167.3c0.1-32.1,0.2-64.2-0.1-96.2c-0.3-28.3,1.2-20.7-22.8-22.4
	c-29.6-2.1-62.9,16.7-83.8,36.7c-11.1,10.6-63.2,43.8-64.7,57.2c-1,8.7-22.2,17.5-27.3,21.1c-16.4,11.8-30.9,30.7-50,38.4
	c-26.7,10.7-45,38.8-76,45.4c-14.7,3.1-31.3,19.2-47.1,17.7c-8.9-0.8-41.6,6.5-49,10c-32.4,15.2-68.1-19-97.3-14.3
	C439,681.8,382.4,614,363.7,594c-14.4-15.5-26.2-67.2-29.3-88.2c-5.3-35.7-23.3-85.9-15.8-123.7c1.9-9.5,2.2-30.6,2.8-41.3
	c1.3-22.6,9-45,13.7-66.9c7.4-34.7,27.5-84.2,46.9-113.8c-20.4-4.4-34.2-7.8-52.7-17.6c-11.1-5.9-12.5-17.4-24.4-11.1
	c-19.3,10.1-43,32.1-60.4,49.3c-24.6,24.3-48.5,49.8-68.3,79c-21.7,31.9-40.2,64.4-55.6,99.6c-26,59.3-54.8,111-68.6,174.9
	C37.2,601.8,6.5,681,0,750C326.3,750,673.7,750,1000,750z"/>
<path class="gears-outer" d="M459.6,596.1c15.3,4.8,32.3-0.4,47.5,8.6c2,1.2,7.1-34.1,8.4-37.8c5.4-16.1,40.1-16.7,48.2-4.6
	c4.9,7.3,13.2,37.5,24.3,34c8.7-2.7,41-12.7,32.2-26.5c-15.3-23.6-12-32.5,6.4-47.3c13.5-10.9,24.4,11.6,35.8,18.8
	c4,2.6,31.5-33.1,20.8-42c-11-9.1-35.5-13.7-23.8-33.4c12.9-22,28.1,5.7,45-12.3c-2.8-13.4,0-27.3-4.4-40.4
	c-11.6-2.2-22.7,4.3-34.1,2.6c-14.3-2-33.2-30.2-18.5-41.2c16.5-12.3,26.3-48.9-4.1-38.3c-32.1,11.2-14.4,17.8-44,1.7
	c-9.2-5-3.8-24.9,2.5-30.4c12.9-11.3-6.9-14.7-12.9-17.2c-6.1-2.5-21.8-9.4-28.6-5.1c1,4.1,0,16.1-2.5,18.8
	c-13.9,14.8-5.9,20.6-33.1,21.7c-23.5,0.9-10.3-8.7-22.6-18.5c-17-13.5,9.3-19.2-22.1-13.2c-6.8,1.3-29.7,20.7-13,24.8
	c18.8,4.4,7,28.1,0.3,34.5c-25.6,24.7-25.7,25.3-56.7,14.4c-39.3-13.8-36.2,52.9-30,52.7c28.9-0.7,42.9,13.2,38.7,43.7
	c-5.7,42.3-69-0.3-37.7,64.9c1,2.2,14.1,24.7,16.4,23.4c12-6.7,26.9-32.5,42.7-20.3C472.8,556.8,470.5,561.2,459.6,596.1
	C463.6,597.4,460.3,593.7,459.6,596.1z"/>
<path class="gears-outer" d="M729.6,157.8c-2.5,10.7,1,19.2,1.2,29.6c0.4,16-35,27-45.4,19.1c-23.2-17.4-22.4-5.4-37.4,14.7
	c-7.7,10.4,15.6,18.5,23,20.9c10.3,3.3-0.8,28-4.7,31.9c-9.6,9.8-37.5,0.3-40,14c-5.3,28.5,11,13.4,17.6,27.5
	c19.3,0,17.2,1.1,30.2,14.6c22.3,23.3-14.8,54.9,17.3,63.1c13.3,3.4,17.7-27.7,30.1-24.5c17.6,4.6,29.4,1,34.2,19.7
	c7.2,27.7,3.9,16.5,30.5,16.3c19.8-0.1,21.1,0.1,15-18.7c-6.5-20-8.3-18.3,6.8-29.9c20.5-15.6,31-1.6,46.9,12.6
	c26.6-26.1,29.9-23.4,6.2-47.6c-8.7-8.9-20-27.4-1.3-38.4c29.8-17.7,25.3,2.5,25-34.3c-0.1-18.1-24.5,2.4-34.1-12.1
	c-16.6-25-0.9-25.2,5.9-48.8c2.4-8.2-28.4-36.2-35.6-21.2c-12.1,24.8-22.6,28.9-48.7,17.9c-5.8-2.4-3.4-27.8-5.6-34.7
	C751.9,147.7,741.8,152.4,729.6,157.8C729.1,159.8,732,156.8,729.6,157.8z"/>
<path class="gears-inner" d="M586.6,509.2c35.6-8.8,43.2-86.3,32.1-114.3c-15.3-38.6-71.9-54.2-107.9-37.6c-41.5,19.2-87.4,70.9-64,121.4
	c13.6,29.4,31.7,44.4,64.4,49.7C526.6,530.9,585.8,532.5,586.6,509.2C587.7,509,586.5,511.6,586.6,509.2z"/>
<path class="gears-inner" d="M748,343.5c72.7,0,101.6-117.9,21.2-132C698,199,667.7,343.2,748,343.5C749.3,343.5,741.8,343.5,748,343.5z"/>
<path class="face" d="M430.6,130c21.5-68.6-68.1-104.5-112.3-55c-26.5,29.6,5.6,65.4,36.5,73.3c11.2,2.8,34.9,12,44.6,1.3
	C404.3,144.3,423.4,132.2,430.6,130C430.8,129.4,428.6,130.6,430.6,130z"/>
<path class="lines" d="M678.7,354.6c1.2-50-44.4-15.5-54.1-32.4c-6.8-11.8-3.8-29-5.1-41.2c-1.6-14.7,22-5,29.9-6.1
	c14.2-2,24.9-20.1,8.8-32.5c-15.9-12.1-25.5-10.1-9.4-31.6c6-8,14.1-28.7,28-20.4c15.7,9.5,15.6,21.6,32.5,6.4
	c22.1-20.4,0.7-45.7,36.8-51.3c12.5-2,22.5-7.6,27.2,6.3c1.4,4.3-2.1,33.2,6.9,30.1c5.7-2,18.4,2.6,22.5-3.9
	c3.6-5.7,16.6-23.8,23.3-23.6c9.1,0.3,29.3,11.2,34,19.4c10.3,17.8-0.8,19-11.3,36.8c-13.7,23.3,61.8,26.5,41.7,41.9
	c7.4,3.8,8.3,28.3-2.3,29.3c-13.3,1.2-29.4,3.3-27.7,19.8c2.9,27.7,42,31.1,11.7,55.5c-5.5,4.4-9,16.5-16.2,19
	c-8.1,2.8-32.2-15.5-43.1-17.3c-3.9,3-7.6,6.3-11,9.9c-3.4,9.6,8.9,21.7,11.4,30.9c3.5,13.3-29,12.4-33.6,13.2
	c-26.7,4.3-27.1-0.8-33.4-28.8c-7.2-32.5-48.3,23.1-51.6,18.5c-3.5-4.8-21.5-13.1-27.7-13.4c-15.1-0.6,7.6-27.1,7.2-29.2
	c-29.1,6.5-18.9,30.1-12.6,45.3c6,14.4,37.7-6.7,45.8,8.9c4.7,9.2-0.7,24.7,2.1,35.3c5.3,20.4-35,8.8-43.6,17.4
	c-12.9,12.9,11.5,23.3,19.5,26.6c16.9,6.9,7.4,18.9-0.4,31c-17.8,27.5-15,25.7-38.5,11.7c-5.5-3.3-38.9-6.7-30.1,4.9
	c5.7,7.5,12.3,28.3,11.2,38.3c-1.3,11.4-33.7,25.9-44,22.7c-8.7-2.7-57.7-77.7-64.1-22.2c-3.1,26.8,7.4,34-24.5,29.6
	c-12.7-1.7-36.5-1.6-45.2-11.8c-1.1-13.8,13.5-23.3,11.4-39.2c-1.2-8.9-29-19.2-35.5-16.9c-24.2,8.3-29.4,30.4-46.8-1.7
	c-5.9-11-23.4-46.6-8.8-54.6c10.6-5.9,69.3-39.7,33.1-54.8c-13.4-5.6-43.5,1.7-34.6-24.9c2.7-8,11.5-50.2,22.7-47.7
	c26.8,5.9,55.3,16.5,75.4-11.5c9.9-13.7-23.5-37.8-8.6-47.1c6.4-4,45.1-29.9,47.4-13.2c5.8,42,48.3,44.1,49.4,0.2
	c0.4-17.1,40.5-2,47.4,0.4c20.2,7.1-1.9,29,4.1,44.9c8.2,21.9,17,2.1,32.4,0.2C676.1,327,664.9,343.9,678.7,354.6
	C678.8,348.7,676.9,353.2,678.7,354.6z M459.6,596.1c15.3,4.8,32.3-0.4,47.5,8.6c2,1.2,7.1-34.1,8.4-37.8
	c5.4-16.1,40.1-16.7,48.2-4.6c4.9,7.3,13.2,37.5,24.3,34c8.7-2.7,41-12.7,32.2-26.5c-15.3-23.6-12-32.5,6.4-47.3
	c13.5-10.9,24.4,11.6,35.8,18.8c4,2.6,31.5-33.1,20.8-42c-11-9.1-35.5-13.7-23.8-33.4c12.9-22,28.1,5.7,45-12.3
	c-2.8-13.4,0-27.3-4.4-40.4c-11.6-2.2-22.7,4.3-34.1,2.6c-14.3-2-33.2-30.2-18.5-41.2c16.5-12.3,26.3-48.9-4.1-38.3
	c-32.1,11.2-14.4,17.8-44,1.7c-9.2-5-3.8-24.9,2.5-30.4c12.9-11.3-6.9-14.7-12.9-17.2c-6.1-2.5-21.8-9.4-28.6-5.1
	c1,4.1,0,16.1-2.5,18.8c-13.9,14.8-5.9,20.6-33.1,21.7c-23.5,0.9-10.3-8.7-22.6-18.5c-17-13.5,9.3-19.2-22.1-13.2
	c-6.8,1.3-29.7,20.7-13,24.8c18.8,4.4,7,28.1,0.3,34.5c-25.6,24.7-25.7,25.3-56.7,14.4c-39.3-13.8-36.2,52.9-30,52.7
	c28.9-0.7,42.9,13.2,38.7,43.7c-5.7,42.3-69-0.3-37.7,64.9c1,2.2,14.1,24.7,16.4,23.4c12-6.7,26.9-32.5,42.7-20.3
	C472.8,556.8,470.5,561.2,459.6,596.1C463.6,597.4,460.3,593.7,459.6,596.1z M729.6,157.8c-2.5,10.7,1,19.2,1.2,29.6
	c0.4,16-35,27-45.4,19.1c-23.2-17.4-22.4-5.4-37.4,14.7c-7.7,10.4,15.6,18.5,23,20.9c10.3,3.3-0.8,28-4.7,31.9
	c-9.6,9.8-37.5,0.3-40,14c-5.3,28.5,11,13.4,17.6,27.5c19.3,0,17.2,1.1,30.2,14.6c22.3,23.3-14.8,54.9,17.3,63.1
	c13.3,3.4,17.7-27.7,30.1-24.5c17.6,4.6,29.4,1,34.2,19.7c7.2,27.7,3.9,16.5,30.5,16.3c19.8-0.1,21.1,0.1,15-18.7
	c-6.5-20-8.3-18.3,6.8-29.9c20.5-15.6,31-1.6,46.9,12.6c26.6-26.1,29.9-23.4,6.2-47.6c-8.7-8.9-20-27.4-1.3-38.4
	c29.8-17.7,25.3,2.5,25-34.3c-0.1-18.1-24.5,2.4-34.1-12.1c-16.6-25-0.9-25.2,5.9-48.8c2.4-8.2-28.4-36.2-35.6-21.2
	c-12.1,24.8-22.6,28.9-48.7,17.9c-5.8-2.4-3.4-27.8-5.6-34.7C751.9,147.7,741.8,152.4,729.6,157.8
	C729.1,159.8,732,156.8,729.6,157.8z"/>
<path class="lines" d="M304.5,306.7c2,7.8,3.7,7.6-8,9.5c8.3,7.9,12.7,0.5,20.3,3.3c5.8,18-19.3,4.6-22.5,5.3
	c1.5,9.3,7.8,13.7,16.6,16.7c-3.5,24.9-38.5-37.3-40.9-41.5c-3.6-6-48.3-93.4-15.5-79.8C258.9,237.4,272.5,323.8,304.5,306.7
	C305.1,309.2,301.8,308.1,304.5,306.7z"/>
<path class="lines" d="M425.4,351.4c-5.4-10.4,6.7-41-6.5-48.2c-30.3-16.2-12.8,26.3-19.3,35.7c-13.2,5.8-37.9-25.9-30.5-40.5
	c4.5-9,34.5-37.2,43.7-39.6c14.7,9-20.7,27.4-23.2,28.6c-23.1,11.5-13.6,28.8,4.1,40.5c3.5-4.4-6.9-49.4,18.4-34.6
	c24,14,13.4,19.2,17.7,43c13.6-14.6,15.9-26.6,0.6-41.8c-4.1-4.1,5.4-30.3,10.4-26.6c3.6,2.6-9.4,25.4,1.7,31.8
	C459.1,309,439.3,347.9,425.4,351.4C424.4,349.5,430.2,350.2,425.4,351.4z"/>
<path class="lines" d="M149.2,402.2c-0.7,0.7-1.5,1.2-2.5,1.3c-2,0.2-3-0.4-2.7-2.3c0.7-4.9-0.1-9.9,1.9-14.6c1.3-3,2.1-6.1,2-9.5
	c0-2,0.9-3.7,1.4-5.5c1.4-4.5,2.9-9,4.1-13.5c1.2-4.6,3.3-9,5.2-13.3c0.8-1.9,1.1-4,2.5-5.7c3.1-3.8,4.2-8.8,7.3-12.6
	c1-1.3,1.2-3.1,1.8-4.6c1.8-4.6,4.2-8.8,6-13.3c2.5-6.2,4.9-12.5,8.5-18.2c0.4-0.6,0.2-1.2,0.3-1.7c0.2-1.1,0.2-2.5,1.3-3.3
	c0.6-0.5,1.2-1.1,2.1-0.8c1,0.4,1.1,1.2,1.3,2.1c0.3,1.6-1.1,2.4-1.5,3.6c-1,2.9-2,5.8-3.6,8.4c-2.7,4.5-4.5,9.6-6.4,14.5
	c-2.8,7.3-6,14.3-9.7,21.1c-3,5.4-4.8,11.2-7.3,16.6c-1.9,4.1-3.8,8.2-4.8,12.5c-1.4,6.2-3.4,12.2-4.5,18.5
	c-0.1,0.5-0.3,1.2-0.6,1.5c-2.8,2.3-1.9,5.6-2.2,8.6c-0.1,1.4-0.2,2.8-0.4,4.2C148.2,398.3,148.4,400.1,149.2,402.2z"/>
<path class="lines" d="M123,382.3c1.1-4.8,1.5-9.3,3.2-13.6c1.4-3.5,2-7.3,4.4-10.4c1-1.3,1-3.4,1.6-5c1.1-3.2,2.5-6.1,4.2-9
	c2.1-3.5,3.7-7.3,5.3-11.1c0.8-1.8,1.8-3.5,2.9-5.2c2.5-3.9,4.9-7.9,7-12.2c2.2-4.5,4.5-9.1,7.8-13c1-1.2,1.9-2.5,2-4.2
	c0.1-1.4,1.1-2.2,2.4-2.4c0.8-1.1-0.9-2.9,1.4-3.6c0.6,0.5,1.4,1.1,2.3,1.8c-1,4.5-3,8.3-5.8,11.7c-1.2,1.4-1.7,3.3-2.6,4.9
	c-2.1,3.8-4.7,7.2-6.6,11.1c-2.3,4.6-4.4,9.3-6.6,14c-0.3,0.7-0.5,1.5-0.8,2.2c-4.1,7.3-7.8,14.8-10.8,22.6
	c-2.6,6.8-6.4,13.3-5.9,21.1c0.1,1-0.2,1.9-1.2,2.2c-0.8,0.2-1.8,0.3-2.5-0.5C124.2,383.2,123.6,382.8,123,382.3z"/>
<path class="lines" d="M448.6,241.2c1.4,1.4,2.8,2.2,4.6,2.2c1.8,0,3.3,1.1,3.8,2.7c0.6,1.9,0.1,3.9-1.7,5c-2.1,1.3-4.2,2.4-6.3,3.6
	c-1,0.6-1.9,0.1-2.4-0.6c-1.4-2.3-3.8-2.4-5.9-3.3c-1.1-0.4-2.2-0.8-3.4-1.3c-2-0.7-2.6-2.2-2.4-4.2c0.1-2.1,1.8-2,3-2.6
	c2.9-1.3,5.9-1,8.9-0.8C447.4,242,448.1,242.2,448.6,241.2z"/>
<path class="lines" d="M432.3,260.8c0.4-1,0.9-1.9,1.1-2.9c0.2-1.6,1.4-2.3,2.5-2.1c4.3,0.5,8.7-0.3,12.7,2.2c2.2,1.4,2.7,3.5,0.7,5.1
	c-4.5,3.6-2.9,3.7-9.1,1c-1.3-0.6-2.7-1.1-4.1-1.4C434.8,262.3,433.6,262,432.3,260.8z"/>
<path class="lines" d="M983.9,409.2c0.1,1.1,0.2,2.1,0.2,3.1c0,2.1-1.2,3.7-3,3.9c-2.2,0.3-4.3,0.5-6.3,1.5c-0.6,0.3-1.5,0-2.6,0
	c-0.1-1.9-1.2-3-3.3-3.5c1.5-1.8,0.3-3.9,2-5.2c1.3,0,2.3,1,3.7,1.2c1.6-0.5,2.1-3.3,4.3-2.7C980.5,408,982.2,408.6,983.9,409.2z"/>
<path class="lines" d="M975.1,376c0.3,4.1-0.6,6-2.8,6.3c-2.4,0.4-4.7-0.3-6.9-1.4c-0.2-1.9,0.1-4-0.7-6.1
	C968.4,371.6,971.7,374,975.1,376z"/>
<path class="lines" d="M922.4,385.3c0.9-1-0.8-1.9,0-3.1c1.5-2.5,2.1-2.7,5.3-1.2c3.8,1.8,4.7,4.2,2.8,7.4c-1.2,2-3,3.1-4.6,2.3
	c-1.6-0.7-3.9-1.2-3.3-4C922.7,386.2,922.5,385.7,922.4,385.3z"/>
<path class="lines" d="M890.7,431.5c0.8,2.6,3.6,2.4,5.1,4.2c-1.2,1.5-1.1,3.7-3.3,4.9c-2.6,1.4-5.5,0.8-6.8-1.9
	c-0.4-0.9-0.9-1.8-1-2.8c-0.3-2.2,1.2-3.7,3.5-3.8C889,432,889.8,432.1,890.7,431.5z"/>
<path class="lines" d="M633.6,559.8c-0.8-1-1-2.4-2.3-3.3c-1.5-1.1-1.3-3.7-0.4-5.3c0.6-1,1.5-1.6,2.5-1.2c1.6,0.8,3.3,0.1,5,0.8
	c1.3,2.3,2.2,4.7,0.7,7.2C637.9,560,636,560.7,633.6,559.8z"/>
<path class="lines" d="M863.2,470.8c-3.2-4.5-5.4-4.3-2-10.2c1.4,1.5,3.9,0.5,5.1,2.5c0.1,0.1,0.2,0.2,0.3,0.1c2-0.9,2.9-0.6,2.7,1.9
	c-0.3,4.4-0.5,4.8-3.5,5.4C865,470.8,864.1,470.9,863.2,470.8z"/>
<path class="lines" d="M968.3,396.2c-1.1,1.6-1.4,3.6-3.2,4.8c-2.2,1.5-3.3,1.6-5.1-0.6c-0.5-0.6-0.9-1.3-1.3-2
	c-0.4-0.6-1.3-0.4-1.5-1.1c0-0.1-0.1-0.3,0-0.3c0.9-1.4,0.2-3.8,2.4-4.4c2.6-0.6,4.9,0.4,6.8,1.9C966.9,395,967.8,395.1,968.3,396.2
	z"/>
<path class="lines" d="M403,575.9c2.5,0,4.4,1.4,6.2,3.4c0.4,2.6-1.5,4.3-3.4,5.9c-1.5,1.2-3.1,0.7-4.7,0.7
	C397.5,581.7,401.2,579,403,575.9z"/>
<path class="lines" d="M762,444.7c-1.3-0.3-2.4-0.4-3.7-0.3c-1.8,0.2-3.8,0-4.7-2.2c-1.7-4.1-1.6-4.8,1.1-7.3c2.5,0.5,4.4,2.4,6.5,3.7
	C763.2,439.9,763.3,442.3,762,444.7z"/>
<path class="lines" d="M960,420c-0.3,1.9-1.9,1.1-3.1,1.1c-1.1-1.2-0.9-2.8-2-3.9c-1.6-1.8-1.6-4.1-0.3-5.3c1.3-1.2,4.2-0.9,5.7,0.8
	c0.9,1,1.4,2.3,3.2,2c-0.5,2.4-0.1,4.6-1.8,6.3C960.7,421.1,961.4,419.5,960,420z"/>
<path class="lines" d="M395.6,227.7c1.6-1.7,1.6-1.7,1.7-4.3c3.8-0.8,3.8-0.8,8.4,2.1c-0.1,2-1.2,3.4-2.6,4.8
	c-1.5,1.5-3.1,2.7-5.3,2.1C395.7,231.8,395.8,229.7,395.6,227.7z"/>
<path class="lines" d="M457.4,630.4c1.2-0.4,2.4-1,3.8-1.1c1.2,0.7,1.7,2.3,3.4,2.4c0.8,0.1,1.2,0.8,1.2,1.7c0,1.1,0,2.3,0,3.4
	c-0.1,2.7-2.3,4.2-4.4,2.6c-1.6-1.2-3.7-2.4-3.7-4.9C457.8,633.2,456.6,632.1,457.4,630.4z"/>
<path class="lines" d="M568.4,216.5c-1.3,0.4-2.3,0.6-2.3,2c0,0.7-0.6,1.4-1.1,2c-1.5,1.9-3.4,2.2-5.2,1.1c-1.6-1-2-3.2-0.8-5.2
	c0.7-1.2,1.4-2.5,2.3-3.7c1.3-1.8,2.7-1.8,4-0.1c0.5,0.6,0.6,1.3,1.3,1.8C567.2,214.9,567.6,215.6,568.4,216.5z"/>
<path class="lines" d="M169.3,159.7c-1.1-1-2-1.8-2.9-2.7c0.5-2,2-3.4,2.6-5.3c0.6-1.9,4-2.4,5.6-1.2c0.4,0.3,0.6,0.7,1.2,1
	c2.1,1,2.2,1.9,0.6,3.3c-0.3,0.3-1,0.3-1,0.7C174.7,158.8,171.8,158.7,169.3,159.7z"/>
<path class="lines" d="M531.7,295.6c1.5,1.2,2.7,2.5,4.7,2.3c0,4-2.2,6.2-5,8.1c-0.2,0-0.5,0-0.7-0.1c-1.6-0.6-3.8-0.4-4.1-2.8
	c-0.3-2.4,0.9-4.2,2.7-5.7C530,296.8,530.7,296.3,531.7,295.6z"/>
<path class="lines" d="M405.8,341.8c3.3-4.4,6.6-2.9,10.1-1.2c0.1,3.6-2.5,5.5-4.9,7.3c-1.6,1.2-4-0.4-4.4-2.5
	C406.4,344.1,406.7,342.7,405.8,341.8z"/>
<path class="lines" d="M530.3,268.3c-2.3-2.5-2.3-2.5,0.2-6.2c0.5-0.7,0.7-1.7,1.8-2.2c1.9-0.7,3.8,1.3,6,0.2c0.6,2.6,1,4.8-1,6.3
	C535.3,267.7,533.3,269.5,530.3,268.3z"/>
<path class="lines" d="M333.2,363.1c0.7-2.5,1.5-4.8,3.1-6.8c1.7-2.3,3.1-2.6,5-0.4c0.6,0.8,1.3,1.5,2,2.4c-0.3,1.8-1.8,2.8-2.4,4.5
	C340.1,365.2,336,365.2,333.2,363.1z"/>
<path class="lines" d="M381.9,578.5c1.3,0.1,1,1.3,1.9,1.3c1.7,0,3,0.6,3.2,2.6c0.3,2.3-0.8,3.8-2.5,5c-2,1.4-4.8,1.7-5.8,0.6
	c-1.8-1.9-0.6-3.5,0.1-5.5C379.5,580.7,381.5,580.3,381.9,578.5z"/>
<path class="lines" d="M352,484.8c-1.2,1.7-2.2,3-3.6,4c-1.7,1.2-4.1,1.2-5.4,0c-1-1-1-4.4,0.2-5.8c0.6-0.7,1.2-1.3,1.9-1.9
	c2.2-1.8,3.1-1.6,4.6,0.9C350.3,482.9,351,483.9,352,484.8z"/>
<path class="lines" d="M355.2,465.9c-1.4,0.1-2.6,0.9-3.6,1.8c-1,1-2.1,1.1-3.3,1.1c-1.5,0-2.3-0.6-2.3-2.2c0-1.2,0-2.5,0-3.8
	c1.3-0.8,2.5-1.7,3.7-2.7c1.5-1.3,3-1,4.2,0.6C355.4,462.8,355.4,462.8,355.2,465.9z"/>
<path class="lines" d="M952.1,114.8c-3.1-1-4.6-3.7-6.3-6.3c-0.6-0.8-1.4-1.8-0.4-2.7c0.9-0.9,2.1-1.8,3.6-1.2
	c1.5,0.7,3.1,1.2,4.4,2.4c2.4,2.4,2.5,3.7,0.2,6.2C953,113.8,952.6,114.3,952.1,114.8z"/>
<path class="lines" d="M345.1,320.4c0.8,0.4,1.6,0.8,2.4,1.3c1.9,1,2.4,2.9,1.1,4.6c-1.8,2.3-3.8,4.1-7.1,3.4c-1.8-0.4-2.4-1.6-2-3.5
	C340.2,323,342.9,322.1,345.1,320.4z"/>
<path class="lines" d="M520.4,279.2c3.6-1.7,5.6,0.5,7.4,2.8c-0.9,2.4-1.9,4.7-4.4,5.9c-1.2,0.6-2.6,0.8-3.8-0.1
	c-1.2-1-1.3-2.1-0.6-3.6c0.4-0.8,0.3-1.9,0.9-2.8C520.3,280.8,520.2,280,520.4,279.2z"/>
<path class="lines" d="M865.4,437.2c2-1.7,4.8-2,6.5-0.9c0.2,0.1,0.4,0.4,0.4,0.5c-0.6,2.4,1.8,3.4,2.4,5.2c0.6,1.8-0.1,2.8-1.9,3
	c-4.4,0.5-5.9-0.6-6.6-5.1C866,439,865.6,438.2,865.4,437.2z"/>
<path class="lines" d="M594.9,212.3c0.8-1.5,2-2,2.5-3.5c0.7-2.2,3-2.7,5-1.4c0.7,0.4,1.4,0.5,2.1,0.7c0,4.9-2.3,7.4-7.6,8.6
	c-0.5-0.3-0.7-0.8-1-1.3C595.2,214.4,595.3,213.3,594.9,212.3z"/>
<path class="lines" d="M797.5,459c-2.3,1.7-4.7,1.2-6.8,1.3c-1.5,0-2.5-1.9-2.7-3.7c-0.2-1.6-0.1-3.1,1-4.5c2.1-0.6,4.1-0.1,6.2,0.7
	C795.8,454.7,796.6,456.7,797.5,459z"/>
<path class="lines" d="M196.2,198.3c-2.7-3.6,1.8-5.9,1.6-9c4.1-1.1,7.2,1.5,6.5,5.6c-0.3,1.8-2.4,1.8-3.6,2.8
	C199.5,198.7,197.9,198.6,196.2,198.3z"/>
<path class="lines" d="M360.7,520.1c2.4,2.1,1.3,4.5,0.4,6.1c-1,1.8-3.6,2.2-5.6,2.8c-1.4,0.4-2.1-1.1-2.6-2.2
	c-0.7-1.6,0.6-4.7,2.4-5.6C356.9,520.2,358.4,519.9,360.7,520.1z"/>
<path class="lines" d="M914.1,409.1c2.7-1,6-0.4,6.8,1.6c0.6,1.6,2.5,3.2,1.2,5.5c-0.9,1.7-2.1,1.7-3.6,1.6c-1.4-0.1-3,0.3-3.3-1.8
	c-0.2-1.3-0.6-2.6-1.5-3.6C912.8,411.2,914.2,410.3,914.1,409.1z"/>
<path class="lines" d="M451.5,278c2.9,2,3.5,4.3,2.8,7.1c-2.7,1.4-4.2,5.7-8.6,3.6C445.1,283.7,448.7,281.2,451.5,278z"/>
<path class="lines" d="M637.5,249.4c-1.5,0.1-3-2.3-2.4-4c0.5-1.4,1.2-2.8,1.5-4.4c0.2-1.5,1.5-2.1,3.1-1.7c1.9,0.5,4.1,2.7,4.1,4.3
	c0,1.8-2.2,4.5-4.1,5.1C638.9,249,638.1,248.7,637.5,249.4z"/>
<path class="lines" d="M194.7,142.4c-1.2,0.9-2.7,1.2-3.9,2.4c-1.1,1.1-3.4,0.8-5.1,0c-1.2-0.6-0.9-1.7-0.7-2.7c0.5-2.4,2.7-3.6,4-5.4
	c0.6-0.9,2.3-0.6,3.1,0C193.8,138.1,195.9,139.5,194.7,142.4z"/>
<path class="lines" d="M857.5,422.7c3.7-0.3,5.1,0.7,7.2,5.3c-0.3,0.6-0.6,1.2-0.8,1.8c-0.3,0.6-0.5,1.3-0.7,1.8
	c-0.9,0.8-1.5-0.8-2.5-0.1c-1.5,1-3.4,0.7-4.1-0.7c-0.7-1.4-1.3-3.4-0.2-4.9C857.2,425,857.3,423.8,857.5,422.7z"/>
<path class="lines" d="M378.6,204c1.8-0.4,3.5-0.2,5.1,0.6c1.1,0.5,2.4,1.1,2.1,2.5c-0.3,1.4-0.5,3.2-2.2,3.4
	c-1.6,0.2-2.2,1.4-3.2,2.1C376.2,212.1,374.6,211.3,378.6,204z"/>
<path class="lines" d="M355.5,254.7c0.5-3.1,3-4,4.4-5.8c4.1-0.1,5.4,1,4.9,4.2c-0.3,2-4.8,5.4-6.8,5.1
	C357,258.1,356.2,256.9,355.5,254.7z"/>
<path class="lines" d="M364.3,436.2c2.7,0.8,5,1.7,5,5.1c-0.6,1.1-2.3,1.3-2.7,3.2c-0.4,1.8-2.7,1-4.1,1.3c-1.1,0.2-2.3-0.3-2.3-1.8
	c0-0.9-0.9-1.3-0.8-2.1C361.3,440.3,362.9,438.3,364.3,436.2z"/>
<path class="lines" d="M376.2,550.3c0.4,1.5-1.9,2.4-0.5,4.1c-1.5,0.2-2.5,0.7-3.3,1.7c-0.7,0.8-1.5,1.2-2.6,1.3
	c-2.5,0.1-3.4-0.8-2.9-3.2c0.3-1.5,0.9-3,1.4-4.4c0.3-1,1.1-1.2,2.1-1.3C372.3,548.2,373.2,548.5,376.2,550.3z"/>
<path class="lines" d="M451.7,338c2.1,0.3,3.6-0.3,4.7-1.3c1.4,0.5,1.6,1.9,2.7,2.6c1.4,1,0.9,2.9-0.7,4.6c-2.8,2.9-4.5,3.6-5.9,2.4
	c-1.2-1-2-3.6-0.9-4.8C452.6,340.3,451.9,339.4,451.7,338z"/>
<path class="lines" d="M352.1,396.9c1.1-0.4,2.1-0.2,3-0.9c1.2-0.9,2-0.4,1.8,1.2c-0.2,1.4,1.6,1.5,1.5,3.3c-1.3,4.2-2.8,5.2-8,5
	c-1.8-1.2-0.8-2.8-0.4-4.2C350.6,399.8,352,398.7,352.1,396.9z"/>
<path class="lines" d="M880,159c1.6,0.4,3.3,0.9,4.9,1.3c2.8,0.7,3.8,3.8,1.9,5.9c-1.2,1.3-2.2,3-4.8,1.9c-0.7-0.6-0.2-2.3-2.2-2.8
	C878,164.9,878.2,161.3,880,159z"/>
<path class="lines" d="M542,166c0.1,2.3-1.5,3-3,3.6c-1.8,0.7-4.5-0.3-5.6-2c-0.2-0.4-0.3-0.9-0.5-1.2c-0.9-1.4-0.9-2.7,0-4
	c0.9-1.2,2.3-0.8,3.4-0.6c1.5,0.2,2.9,0.9,4.2,1.6C541.5,163.8,542.3,164.8,542,166z"/>
<path class="lines" d="M840.3,412.6c0.2,2.7-1.2,4.2-3.1,5.4c-1.7,1-3,0.6-3.4-1.3c-0.4-1.8-1.3-3.4-1.8-5.2c-0.5-1.9,0.1-3,1.5-3.5
	c1.4-0.6,2.6-0.5,3.3,1.5C837.3,410.7,838.5,412.2,840.3,412.6z"/>
<path class="lines" d="M370.7,346.1c-2.2,0.3-3.3,1.8-4.1,3.5c-1.7,0.1-2.9-0.8-4.4-1.5c0.7-2.2-1.8-4.7,0.8-6.6
	c2.2-1.6,4.5-0.5,6.6,0.1C370.9,341.9,370.9,342.4,370.7,346.1z"/>
<path class="lines" d="M348.7,300.3c0.6-0.4,1.5-0.7,1.6-1.2c0.5-1.4,1.2-2.7,2.7-2.5c2,0.3,4,1,5.5,2.7c0.2,0.3,0.4,1,0.2,1.3
	c-1.2,1.9-2.4,4.1-4.7,4.8c-1.6,0.5-3.4,0-4.2-1.9C349.4,302.6,349.1,301.6,348.7,300.3z"/>
<path class="lines" d="M428.3,586.5c-1.1-4.2,2.2-6,4-8.4c0.5-0.7,1.8-0.8,2.4-0.1c0.8,1,2.3,1.6,2.2,3.4
	C436.6,585.9,432.7,588.4,428.3,586.5z"/>
<path class="lines" d="M479.2,273.5c-2.2,5.2-3.4,6.3-9,5.8c-1-3,0.8-5.4,1.3-8.1C474.5,270.8,477.3,270.2,479.2,273.5z"/>
<path class="lines" d="M171.4,110.4c1.9-0.6,3-2.6,5-1.7c1.7,0.7,1.1,3.3,3,3.9c0,1.6-2.1,2.4-0.9,4.2c-1.7,0.9-3.3,0.6-4.7,1.1
	c-2.3,0.7-3.4-0.6-2.9-2.9c0.2-0.8,0.6-1.4,0.6-2.3C171.4,112.1,171.4,111.4,171.4,110.4z"/>
<path class="lines" d="M937.2,424.9c0.4,1.4,0.2,2.6,0.2,3.6c-0.7,1-1.7,1.2-2.5,1.8c-2.4,1.8-4.7,0.9-5.4-2c-0.3-1.1-0.4-2.1-0.8-3.2
	c-0.6-1.8,0.7-3.5,2.5-3c1.1,0.3,2.7,0,3.3,1.7C934.9,425.1,936.2,424.8,937.2,424.9z"/>
<path class="lines" d="M587.7,186.5c-3,2.3-6.1,2.1-9.1,0.7c-1.5-0.8-1.8-2.7-1.4-4.6c3.2-2.3,6.5-0.2,10.2-0.5
	C586.8,183.8,588,184.9,587.7,186.5z"/>
<path class="lines" d="M372.2,460.1c0-2.7,2.6-5.9,5.1-6.2c1.2-0.2,2.1,0.3,2.5,1.3c0.6,1.3,1.3,2.9,0.5,4.3c-0.8,1.4-1.9,2.7-3.4,3.5
	C374.7,464.3,372.2,462.8,372.2,460.1z"/>
<path class="lines" d="M897.8,172.6c4.7-2.6,8.6-1.7,10.8,2.4c-1.8,1.9-3,5.2-6.5,3.3C899.8,177.2,896.9,176.2,897.8,172.6z"/>
<path class="lines" d="M752.3,518.9c-1.2,0.4-2.1,1.1-2.3,2.4c-3.8,0.6-5.4-2.1-7-4.4c-0.8-1.1,0.1-2.3,0.9-3.3c0.9-1.2,2.1-1.5,3.2-1
	C749.6,513.8,752.2,515,752.3,518.9z"/>
<path class="lines" d="M505.2,641.8c0.5,0.8-0.3,1.2-0.3,1.9c0.2,2.4-0.8,3.6-3,4.2c-1.6,0.4-3.7-0.7-4.4-2.4
	c-0.4-1.1-1.6-1.8-1.4-3.3c0.2-2.3,1.7-3.6,3.8-2.8C501.8,640,503.5,641,505.2,641.8z"/>
<path class="lines" d="M207,163.7c-2.5,0-3.6-1.7-2.6-3.7c0.7-1.4,1.4-2.8,2-4.2c0.6-1.3,1.7-1.8,3-1.6c1.3,0.1,2.3,0.9,2.2,2.4
	c0,0.5,0,0.6,0.4,1c1.7,1.8,1.6,3.1-0.6,3.9C209.7,162.1,208.8,164.1,207,163.7z"/>
<path class="lines" d="M545.4,583.6c0,1,0.1,2,0,3c-0.2,2.7-2,3.8-4.4,2.7c-0.9-0.4-2.4,0.9-2.7-0.8c-0.4-1.9-0.9-3.9-0.8-5.9
	c0.1-1.6,3.3-2.5,4.7-1.5c0.5,0.4,1,0.9,1.5,1.4C544.1,582.8,544.7,583.1,545.4,583.6z"/>
<path class="lines" d="M881.4,449.7c1.5,3.5,5.4,6.1,2.6,10.6c-0.1,0-0.3-0.2-0.4-0.1c-3.8,0.8-5-2.2-6.4-4.7
	c-0.9-1.5-0.1-3.8,1.4-4.7C879.3,450.3,880.3,450.1,881.4,449.7z"/>
<path class="lines" d="M253.7,132.7c-1.1-3.3,0.6-5.7,2.7-7.8c0.8-0.8,1.7-2.3,3.1-1.2c1.2,1,2.2,2.2,2.2,4
	C261.7,131.7,257.7,134.2,253.7,132.7z"/>
<path class="lines" d="M895.4,408.5c3.5-0.6,5,2.2,6.6,4.4c1.8,2.3,0.4,4.9-2.6,5.7c-0.8,0.2-1.6,0.7-2.7,0.4
	C896.5,415.5,893.8,412.3,895.4,408.5z"/>
<path class="lines" d="M430.4,555.4c1.1,1.2,1.6,2.9,3,3.7c-0.7,2.7-2.4,4.4-5.1,5.3c-1.5,0.5-2.7,0.5-3.5-0.9c-1.1-1.8-1-3.9,0.4-4.8
	c0.8-0.5,1.3-1,1.8-1.8C427.6,555.7,428.8,555.1,430.4,555.4z"/>
<path class="lines" d="M505,150c2.6-2.9,5.4-2.1,8.4-0.9c0.4,1.1,0.7,2.2,1.1,3.3c-0.8,2.7-3.6,2.5-5.4,3.6c-1.2,0.7-3.8-1.9-4.1-3.9
	C504.9,151.4,505,150.6,505,150z"/>
<path class="lines" d="M527.2,647.4c-1.8,0.7-2.1,2.9-4,3.3c-1,0.2-2,0.1-3.2-0.1c0.1-1.7-1.1-3-1.8-4.4c-0.6-1.2-0.8-2.3,0.3-3.4
	c1-1,2.2-1.1,3.4-0.6C524.2,643.1,526.4,644.3,527.2,647.4z"/>
<path class="lines" d="M949,340.8c3.3,0.1,5.5,3.9,5,7.1c-0.4,2.7-2.3,1.8-3.5,2.4c-1.2,0.6-1.8-0.6-2.4-1.9c-0.7-1.5-1.6-2.8-1.8-4.5
	C946,341.4,946.7,340.7,949,340.8z"/>
<path class="lines" d="M625.4,605c2.4-2,4.2-1.6,6,0c2.5,2.2,3.9,4.5,1.5,8.4c-0.2,0.2-1.4-0.3-1.9,0.6
	C627.7,611.6,626.4,608.4,625.4,605z"/>
<path class="lines" d="M283.7,116.6c0.3,3.9-2.7,7.2-6.4,7c-1.9-0.1-2.5-1.4-2.4-3.3c0.1-1.7,1.2-2.8,2-4c1.2-1.8,2.5-1.7,4.9-0.4
	C282.5,116.2,283.3,115.9,283.7,116.6z"/>
<path class="lines" d="M771.2,549.2c-0.7,1.5-1.8,1.9-2.4,2.8c-1.5,1.9-3.9,1.9-5.4-0.1c-1.2-1.6-2.7-3.3-2.9-5.5
	c2.2-1.8,3.4-2,5.4-0.7C767.6,546.8,769.8,547.4,771.2,549.2z"/>
<path class="lines" d="M244.9,152.3c-1.7,6.2-3.3,7.4-7.9,6.4c-0.4-1.6-0.9-3.3-2.6-4.9c2.6-0.3,4.7-0.8,4.8-3.6
	C241.7,149.6,242.9,151.7,244.9,152.3z"/>
<path class="lines" d="M604.9,232c2.8-0.2,1.8,3.4,3.9,4.5c-1.7,1.7-3.5,3.2-4.8,5.4c-1.3-0.4-2.8-0.5-3.9-1.5
	C599.3,236.3,599.7,232.8,604.9,232z"/>
<path class="lines" d="M549.5,234c-2.1,2.3-3.6,5.4-7.7,5.2c-0.7-1.4-2.9-2.7-1.4-4.5c1.4-1.7,2.2-4.5,4.9-4.5
	C548.2,230.2,548.7,230.9,549.5,234z"/>
<path class="lines" d="M640.2,263.5c-0.7,0.5-1.4,1.2-2.3,0.7c-0.9-0.5-1.3,0-1.9,0.5c-1.2,1.1-2.7,1.5-4.2,0.3
	c-1.5-1.2-0.7-2.6,0-3.5c0.8-1.1,0.1-2.5,0.9-3.7c1.9,0.5,3.8-1.6,5.9,0.7C640,260,640.7,261.4,640.2,263.5z"/>
<path class="lines" d="M923.1,141.1c-1.3-2.3-5.6-2.9-4.3-7.1c2.5-1.7,5.1-0.4,7.7-0.2c2.1,0.1,2.7,2.2,1.4,3.9
	C926.7,139.2,926.1,141.2,923.1,141.1z"/>
<path class="lines" d="M333,398.8c0.7-1.8,1.3-3.4,1.5-5c0.1-1.5,1.2-1.8,2.4-1.6c1.9,0.5,4,0.2,5.7,2.4c0.4,3.1-2.7,4.1-4.7,5.7
	C336.1,401.6,334.6,400.2,333,398.8z"/>
<path class="lines" d="M581.6,238c-0.5,2.3-1.6,4.1-2.7,5.8c-1.8,2.8-2.7,2.9-5.5,1.1c-1.3-2.2,1.5-4.1,0-6.2
	C576.5,236.4,578.4,236.2,581.6,238z"/>
<path class="lines" d="M949.1,409.4c-1.9,2.9-3.4,3.6-5.6,2.6c-1.8-0.8-3.9-4.5-3.5-6.3c0.3-1.4,0.9-2.4,2.7-2.3
	c2.3,0.2,4.5,1.6,4.7,4C947.4,408.8,948.6,408.7,949.1,409.4z"/>
<path class="lines" d="M794,162.3c-1,1-0.6,2.4-0.8,3.6c-1.1,1-2.8-0.3-3.6,1.3c-0.1,0.2-1.4,0.1-1.5-0.1c-0.6-2.8-5.1-3.3-4-7.2
	C787.7,159.1,791.1,159,794,162.3z"/>
<path class="lines" d="M649.5,616.8c2.2,1.2,4.8,1.1,7.1,3.3c0.3,0.6-0.4,2.3,1.7,3.2c-2.4,1.2-4.2,2.1-6.2,3.1
	c-0.5-2.3-2.7-3.1-3.7-5.1C647.4,619.3,647.7,618,649.5,616.8z"/>
<path class="lines" d="M911.2,432.7c2.8,1.2,5.4,2.1,6.6,4.8c-0.8,2.9-2.5,4.6-5.9,4.1C907.9,437.7,907.7,435.7,911.2,432.7z"/>
<path class="lines" d="M952.3,366.1c-0.5,3-2.4,4.8-4.8,5.3c-2.2,0.5-2.4-1.7-3.6-2.5c-1.1-0.7-0.1-5.1,1.2-6.8
	C948.1,362.3,949.4,365.5,952.3,366.1z"/>
<path class="lines" d="M228.7,126.8c1.8-1.8,1.9-5.1,5.3-5.8c0.5,2.2,4.9,1,4.1,4.6c-0.4,1.5-4.4,4.7-5.8,4.6
	C230.5,130,229.1,129.2,228.7,126.8z"/>
<path class="lines" d="M814.4,472.9c-0.8-0.2-1.6-0.6-2.5-0.7c-1.5-0.2-2.4-1.2-2.3-2.8c0.1-1.5-0.5-2.8-1.2-3.8
	c0.4-1.5,1.6-1.7,2.6-2.2c1.9,1,3.9,1.9,5.6,3.3c1.1,0.9,1.5,1.7,0.3,2.9C815.9,470.5,816.1,472.1,814.4,472.9z"/>
<path class="lines" d="M222.6,168.5c0.5,0,1.2,0,1.9,0c1.7,0,3.4,0.2,4,2.1c0.4,1.2-1,4.2-2.4,4.6c-1.3,0.4-1.6,1.9-2.9,2.1
	c-1.2,0.2-1.9-1.1-3.2-0.8C220,173.5,220.4,170.9,222.6,168.5z"/>
<path class="lines" d="M556.1,644.6c-0.6,0.9-1.1-0.2-1.7,0.3c-0.6,0.8,0.1,1.9-0.4,2.8c-3.7,0.9-5.1,0.2-6.6-3
	c-0.5-1-1.9-1.5-1.8-3.1c1.4-1.9,3.3-2.4,5.5-1C552.9,641.6,554.9,642.7,556.1,644.6z"/>
<path class="lines" d="M574.6,644.1c-0.3,1.3-0.6,2.4-0.9,3.8c-1.8-0.9-3.6-0.3-5.2-0.7c-1.7-1.8-2.8-3.7-3.2-6.1
	c-0.2-1.6,0.5-2,1.9-1.8C571,639.9,571,639.9,574.6,644.1z"/>
<path class="lines" d="M512.2,209.9c-0.5-0.4-0.4-1.1-0.6-1.6c-0.2-0.4-0.4-0.8-0.7-1.3c2.1-1.6,2.9-4.6,5.7-5.2
	c1.6,0.4,2.2,2,3.4,2.7c0.7,0.4,0.6,1.2,0.4,1.9c-0.5,2.3-3.9,4.4-6.3,3.9C513.4,210.1,512.7,210.5,512.2,209.9z"/>
<path class="lines" d="M624.2,218.7c1.3-2.3,2.8-4.4,2.8-7.1c2.4-0.9,2.9,2.6,4.9,1.7c1.3,3.6-0.9,5.7-2.6,8c-0.7,1-3.4,0.6-4.2-0.6
	C624.7,220.1,624.5,219.3,624.2,218.7z"/>
<path class="lines" d="M574.5,620.5c3.1-1.8,3.2-1.9,5.3,1.2c0.7,0.9,1.8,0.8,2.3,1.3c0.8,1.4-0.4,2.5,0.1,3.7
	c0.3,0.6-0.3,1.1-0.8,1.3c-2.8,1.5-6.3-0.1-6.6-3.1C574.8,623.4,574,622,574.5,620.5z"/>
<path class="lines" d="M741.2,550.7c-0.6-1-0.2-1.9-0.5-2.8c-0.3-0.9-0.7-1.9-1.1-2.8c3.2-2.5,7.1-1.5,8.6,2.3
	c0.9,2.2-0.6,4.4-3.1,4.5C743.6,552,742.3,551.3,741.2,550.7z"/>
<path class="lines" d="M982.1,399.2c-1.7-1.9-1.6-4.6-3.6-6c0.9-1,1.7-1.8,2.3-2.4c1.1-0.4,1.7,0.4,2.5,0.5c3,0.5,5.1,2.6,4.9,4.6
	C987.8,398.2,985.6,399.5,982.1,399.2z"/>
<path class="lines" d="M530.5,617.3c5.4,3,5.9,5.3,3.3,9.4c-1.2,0.4-2.4,0.3-3.5,0.1c-1.5-2.4-2.6-4.9-3-7.8
	C528.1,617.7,529.8,618.3,530.5,617.3z"/>
<path class="lines" d="M780,484.6c1-0.7,1.2-1.8,1.6-2.7c3.4,0.2,6.4,0.8,7.7,4.8c-0.5,1.7-1.5,3.7-3.6,3.9
	C781.7,491,781.6,487.1,780,484.6z"/>
<path class="lines" d="M362.7,363.2c-1.1,1.7-2.5,2.8-4,3.9c-1.3,1-3.7,0.9-4.7-0.3c-1-1.2-0.3-2.4,0.1-3.8c0.8-2.8,2.2-3.4,4.7-3.2
	C360.9,360,362,361.2,362.7,363.2z"/>
<path class="lines" d="M938.6,330.7c-1.2,1.6,0.3,3.4-1.5,4.7c-1.3,1-2.7,1.5-4.4,1.2c-1.9-1.8-3.2-3.8-2.7-6.7c0.2-1,0.3-1.8,1.2-2.1
	c0.9-0.3,1.7-0.1,2.4,0.7C934.9,329.9,936.4,330.6,938.6,330.7z"/>
<path class="lines" d="M341.7,437.3c-2.7-1.3-3.2-3.3-1.8-6.2c1.2-2.3,4.6-3.2,6.9-1.8c2.4,1.6,2.3,2.1,0.3,4.3
	c-0.8,0.9-1.7,1.6-2.7,1.7C342.9,435.3,342.6,436.6,341.7,437.3z"/>
<path class="lines" d="M406.7,311.9c0.9-0.7,1.8-0.5,2.5-1.2c1.4-1.5,3.5-1.4,5-0.2c1.6,1.2,1.2,4-0.6,5c-0.5,0.3-1.3,0-1.6,0.8
	c-1,2.2-2.9,2-4.5,1.1c-1.4-0.8-1.9-2.4-1-4.1C406.7,313,406.6,312.5,406.7,311.9z"/>
<path class="lines" d="M907.7,122.8c-5-0.1-9.2,0.2-11.2-4.8c1.5-3,2.9-3.6,6-2C905,117.3,906.3,119.7,907.7,122.8z"/>
<path class="lines" d="M608.7,614.7c-0.7,1.3-1.8,1.5-2.5,2.2c-1.3,1.2-3.1,2.2-4.4,1.4c-1.7-1.2-3.1-3.1-3.2-5.5
	c-0.1-1.6,0.6-2.4,2.4-2.3C604.5,610.4,606.2,613.2,608.7,614.7z"/>
<path class="lines" d="M609.9,266.7c0.5-3.1,1.6-6,3.9-8.2c1.2,0.1,0.7,2.5,2.6,1.8c0.9-0.3,1.7,1.5,1.6,2.5c-0.3,2-1.5,3.7-3.1,5
	C614,268.8,611.3,268,609.9,266.7z"/>
<path class="lines" d="M221.7,134c1,2.2,0.5,4-1.8,5.2c-0.4,0.2-0.9,0.4-1,0.8c-0.8,2-2.4,1.4-3.6,0.9c-1.3-0.6-1.9-2-1.2-3.4
	c0.6-1.2,0.4-2.6,1.4-3.7C217.7,131.6,219.7,132.7,221.7,134z"/>
<path class="lines" d="M818.7,517c-3.5,1.1-5.3-1.3-7.1-3.1c-0.8-0.8-1.1-2.1-0.3-3.4c0.9-1.4,2-1.7,3.4-1.5c2.1,0.3,5,3.1,5.3,5
	C820.2,515.3,818.9,515.9,818.7,517z"/>
<path class="lines" d="M940.9,387c1.3,1.7,2.4,3.3,4,4.5c1.1,0.8,1,1.8-0.1,2.8c-2.5,2.5-3.9,2.5-6.5,0c-0.7-0.7-1.5-1.4-2-2.5
	C936.5,389,938.9,388.3,940.9,387z"/>
<path class="lines" d="M592.5,262.9c-1.6,1.9-4,1.9-5.6,3.4c-0.9,0.8-2.8,0.2-3.6-1.6c0.2-1,0.7-2,0.6-3.1c-0.1-2.3,1.7-3,3.3-3.9
	c0.8-0.4,3.7,1.8,4.1,3.1C591.4,261.7,592,262.1,592.5,262.9z"/>
<path class="lines" d="M634.8,156.7c-2.9-0.3-1,2.3-2.7,3c-1.5,0.6-2.8-0.8-4.3,0.4c0.4-2.3-1.6-1.7-2.5-2.5c-1.3-1.1-1-2.4-0.9-3.7
	C628.5,152,631.5,152.7,634.8,156.7z"/>
<path class="lines" d="M803.5,435c2-3.1,2-3.1,6.8-2c0.8,0.6,0.3,1.7,0.8,2.5c1.2,2.1,1,3.9-0.3,4.6c-1.8,1-4.4,0.4-5.4-1.3
	C804.7,437.5,804.2,436.2,803.5,435z"/>
<path class="lines" d="M780.2,441.6c-0.6-0.5-1.2-1.3-1.7-1.3c-3.4,0.1-3.3-2.8-4-4.8c-0.5-1.3,1.2-2.9,2.6-2.7
	c2.4,0.3,3.9,2.4,5.8,3.6c0.6,0.4,0.3,1.4,0.1,2.2C782.7,439.9,782,440.7,780.2,441.6z"/>
<path class="lines" d="M391.2,447.7c0.6-3.1,1.6-5.8,5.3-6.1c2.4-0.2,3.2,1.6,4.1,3.6c-1.2,1.2-2.3,2.5-3.6,3.7
	C395.5,450.3,394.3,450,391.2,447.7z"/>
<path class="lines" d="M647.5,152.9c2,2.5,5.4,3.7,5.4,7.9c-0.4,0.8-2,0.6-2.6,1.7c-0.9-0.5-2.5,0-2.6-1.8c-0.1-0.6-0.7-1.1-1.5-1.1
	c-1.2,0-2.3-0.2-2.4-1.7c-0.1-1.3,0.3-2.5,1.4-3.1C646,154.4,646.3,153.5,647.5,152.9z"/>
<path class="lines" d="M761.3,483.2c-3.3-0.4-3.9-3.5-5-6.3c0.7-1,1.4-2.1,2.1-3.1c3.6-0.1,4.4,3.2,6.5,4.8
	C765.5,481.3,762.6,481.4,761.3,483.2z"/>
<path class="lines" d="M176,224.2c-7.3,0.4-7.3,0.4-7.1-4.2c1.4-1,2.8-2.1,4.2-3.2c2.3,0.1,3.3,2.3,5.1,3.1
	C178.4,222.1,176.1,222.5,176,224.2z"/>
<path class="lines" d="M806.9,492c-0.5,0.5-0.8,0.9-1.2,1.4c-2,2.6-4.4,3.1-5.6-0.6c-0.4-1.1-1.6-1.2-2-2c-0.1-3.7,0.2-4.5,2.2-4.3
	c1.7,0.2,3.7,0.6,4.5,2.5C805.2,490.1,806.2,490.8,806.9,492z"/>
<path class="lines" d="M928.7,153.9c-0.1,1.1,0.6,1.9,1.4,2.6c-0.5,0.3-0.8,0.6-1.2,0.8c-1.2,0.7-1.5,3.1-3.3,2.2
	c-1.6-0.9-3.7-1-5-2.4c-0.6-0.7-1.4-1.3-1-2.3c0.4-1.1,1.1-2,2.4-2C924.1,152.7,926.3,152.7,928.7,153.9z"/>
<path class="lines" d="M840,453.8c1.8,3-0.9,4.5-1.3,6.5c-0.8,0.5-1.8,0.7-2.3,0.2c-1.2-1.1-2.2-2.4-3.1-3.8c-0.8-1.3,0.3-4.3,2.2-6.3
	C836.8,452,838.3,453.2,840,453.8z"/>
<path class="lines" d="M720.1,582.8c0.8-0.5,1.6-1.1,2.4-1.5c2.9,1.3,7,1.2,5.5,5.5c-0.2,1.2-0.8,1.3-1,1.6c-1.2,1.4-2.5,2.4-4.3,1.3
	c-1.5-0.8-2.7-3.7-2-5.3C721,583.5,720.5,583.3,720.1,582.8z"/>
<path class="lines" d="M540,193.1c-0.5,0.8-1.2,0.4-1.7,0.7c0.1,1.1,0.7,1.2,1.8,0.8c-0.3,0.6-0.4,1-0.4,1c-1.6,0.1-3.1,0.1-4.7,0.1
	c-2.5,0-3.9-1.7-4.9-3.7c-0.8-1.5,0.7-3.3,2.7-3.1C535.7,189.2,538.6,189.8,540,193.1z"/>
<path class="lines" d="M731.4,409.8c0.4-1.2,0.4-2.5-0.1-3.6c-0.6-1.5-0.1-2.3,1.4-2.4c3.6-0.3,6.8,1.4,6.7,4.9c0,1.7-0.8,2.5-2.4,2.4
	C735.1,411,733.4,410.5,731.4,409.8z"/>
<path class="lines" d="M912.9,352.2c1.3,1.5,3.4,1.5,5,2.8c1.8,1.5,2,2.6,0,3.8c-1.4,0.9-2.8,2.4-4.8,1.3c-0.4-0.2-0.9,0.7-1.8,0.2
	C911.7,357.7,908.6,354.5,912.9,352.2z"/>
<path class="lines" d="M378.1,238.5c-1-0.9-3-1.5-2.4-3.7c0.5-1.7,1.3-3.3,3.2-4c2.3-0.8,3.5-0.6,4.5,1.3c1.3,2.3,1.2,2.8-1.3,4.5
	c-0.7,0.5-1.3,1.2-2.2,1.5C379.4,238.3,379.1,238.6,378.1,238.5z"/>
<path class="lines" d="M783.9,512c-0.1-2,1.5-2.6,1.8-3.9c4.9,0.6,5.4,1,6.2,4.4c0.7,3.1-0.6,4.4-3.7,3.5c-0.6-0.2-1.3-0.2-2.2-0.3
	C786.4,513.9,785.2,512.8,783.9,512z"/>
<path class="lines" d="M686.2,163.2c0.2-1.1,1.2-1.1,1.6-1.7c1.3-1.7,5.9-1.2,6.9,0.6c1,1.8,0.4,3.4-1.5,4.6c-3.5,2.1-4.9,1.6-6.1-2.2
	C686.9,163.9,686.5,163.5,686.2,163.2z"/>
<path class="lines" d="M948.9,138.7c-1.9-0.8-3.7-1.3-5.3-2.6c-0.4-1.7-0.4-3.5,1.3-4.7c1.5-1,3.5,0.1,4.9-1.1
	C952.3,134.3,952.2,135.2,948.9,138.7z"/>
<path class="lines" d="M478.1,617c1.9-1.1,3.7-1.9,6-0.7c-0.2,0.7-0.3,1.4-0.5,2c0.9,0.8,2,0.2,2.8,0.7c0.6,4.1,0.5,4.2-3.1,5.1
	c-1.2,0.3-2,0-2.6-0.9C479.6,621.3,478.4,619.4,478.1,617z"/>
<path class="lines" d="M870.2,209.2c1.1,0.4,2.3,0.8,3.6,1.2c-0.9,1.6-1.3,3,0,4.4c0.8,0.8,0.8,1.9,0,2.7c-0.9,0.9-2.1,1-3,0.1
	c-1.1-1.1-2.4-1.7-3.7-2.1c-1.3-0.4-1.2-1.6-1.2-2.5c0-0.8,0.4-1.9,1.6-1.7C869,211.6,869.2,210,870.2,209.2z"/>
<path class="lines" d="M789.9,527.6c4.8-0.8,5.9,2.8,7.8,5.5c-1.5,4.1-4.5,2.4-7.4,2C789.5,532.7,790.2,530.2,789.9,527.6z"/>
<path class="lines" d="M648.9,201.2c-1.3-0.1-2.3,0-3.2-0.2c-1.6-0.5-2.5-1.5-2.1-3.5c0.4-2.2,2.3-3,3.7-4.3c1-1,2.2,0.5,3.1,1.2
	c1.8,1.2,2,2.4,0.6,4.1C650.3,199.2,649.2,199.7,648.9,201.2z"/>
<path class="lines" d="M929.6,112.6c-0.2,1.2-1.1,2.3-0.9,3.7c-1.2,0.5-2.4,0.1-3.2,1c-2.1-1.5-4.1-3-5.1-5.6c1.2-0.7,0.8-3.1,2.8-3.8
	C924.1,110.9,927.9,110.2,929.6,112.6z"/>
<path class="lines" d="M558.7,259.9c2.3,0.1,3.5-2.1,5.6-1.2c1.7,0.7,1.4,3.2,4.2,3.7c-2.7,1.7-4.6,3.1-6.7,4.2
	c-1.8,0.9-2.8-0.1-2.9-2.2C558.7,262.9,560.1,261.6,558.7,259.9z"/>
<path class="lines" d="M683.6,544.5c3.1-1.2,7.7,0.5,8.5,3.2c0.5,1.5,0,2.8-1.5,3.6c-2.6,1.3-4.9,0-5.9-2.8
	C684.3,547.2,684.1,545.9,683.6,544.5z"/>
<path class="lines" d="M630.8,650.8c-2.7,1.7-3.6,1.6-5.8-0.1c-2-1.5-1.1-3.9-2.1-5.6c3-2.9,5.4-2.5,6.7,1.3
	C630.1,647.9,631.4,649.1,630.8,650.8z M627.7,649.4c-0.4-0.1-0.6,0.2-0.7,0.5c-0.1,0.4,0.1,0.6,0.5,0.7c0.4,0.1,0.6-0.2,0.7-0.5
	C628.2,649.7,628,649.6,627.7,649.4z"/>
<path class="lines" d="M509.9,244.4c-1-2.2,0.1-4.4,0.6-6.6c0.3-1.4,1.8-2.2,3.4-2.1c1.4,0.1,2.7,0.8,3,2.2c0.4,1.5,0.5,4.1-0.8,4.3
	C513.9,242.5,512.5,245,509.9,244.4z"/>
<path class="lines" d="M844.1,484.7c-0.4,1-0.8,2-1.1,2.7c-2.7,1-4.6,0.2-6.4-1.9c-2.2-2.6,0.2-4.3,0.8-6.5
	C840.3,480.1,842.6,481.7,844.1,484.7z"/>
<path class="lines" d="M675.4,614.5c0.2-2.6-0.6-4.9,0.6-7.2c1.6,0.5,3,0.8,4.4,1.3c2.4,1,3.2,4,1.6,6.1c-0.8,1.1-1.8,1.8-3.1,0.8
	C677.9,614.7,676.8,614.5,675.4,614.5z"/>
<path class="lines" d="M884.8,196.8c-0.6,0.3-0.9,0.6-1.3,0.8c-0.4,0.2-0.7,0.5-1,0.7c-2.3,0.2-6.5-2.6-7.7-5.1c1-0.9,2.1-1.9,3.1-2.9
	C884.7,194.3,884.7,194.3,884.8,196.8z"/>
<path class="lines" d="M442.9,622.1c-0.8,2.3-3.4,1.7-4.5,3.7c-1.3-1.8-2.4-3.4-3.4-5.1c-0.8-1.3-1.3-2.7,0.2-3.9
	c1.2-1,3.1-0.6,4.4,0.8c0.7,0.8,1.4,1.8,1.8,2.8C441.6,621.2,442.6,621.3,442.9,622.1z"/>
<path class="lines" d="M549.5,608c1.8-0.3,3.5-0.2,5.2,0c-0.1,2.2-0.1,4.3,2.7,4.4c0.2,1.5-0.5,2.4-1.1,3.2
	C550.7,615.9,549.5,615.7,549.5,608z"/>
<path class="lines" d="M894.6,375.2c2,2.2,6,2,5.7,6.1c-2.8,2.8-5.3,3.5-6.2,1.7c-0.7-1.5-2.4-2.4-2.3-4.1
	C892,377.1,893.7,376.6,894.6,375.2z"/>
<path class="lines" d="M485.5,254.8c3.3-1.4,3.5-6.2,7.6-4.3c2,3.8-0.7,6-2.6,8.4c-1.4,0.5-2.2-1-3.3-0.5
	C486.3,257.3,487.3,255.8,485.5,254.8z"/>
<path class="lines" d="M589.8,166c2.2-3,6-3.9,8.8-2.2c1.2,0.7,1.8,3.2,1.1,4.5c-0.8,1.5-1.8,1.6-3.8,0.6
	C593.9,167.9,591.9,167,589.8,166z"/>
<path class="lines" d="M482.6,231.8c-1.5-0.9-2.5-1.9-1.3-4c0.5-1,1.4-2.4-0.1-3.7c1.9-0.8,3.4-2.5,5.4-1.4c1.7,0.9,1.7,2.7,1.3,4.7
	C485.2,227.4,485.1,230.9,482.6,231.8z"/>
<path class="lines" d="M604.4,641c-2.2-0.4-3.7,1.7-6.1,0.2c-1.1-1.3-2.1-3.2-2.4-5.4C599.9,632.8,603.2,634.7,604.4,641z"/>
<path class="lines" d="M893.4,129.8c0,3.8-0.2,4.1-3.3,4.6c-0.7,0.1-1.5,0.4-2.3,0.7c-1.9-1-2.6-3.2-4.4-4.8
	C886.7,127.8,890,129.2,893.4,129.8z"/>
<path class="lines" d="M908.1,158.2c-2.4-0.7-3.6-3-5.8-3.7c1.3-3.6,3.6-4.6,6.3-2.4c0.9,0.7,2.3,0.3,3,2c0.2,0.5-0.6,1.4-0.4,2.4
	C910.1,157.1,909.3,158,908.1,158.2z"/>
<path class="lines" d="M920.2,319.6c-3.4,0.4-4.3-2.3-5.5-4.5c-0.4-0.7,0-1.5,0.7-2.1c1.2-0.8,2.5-1.2,3.8-0.6
	c1.3,0.6,2.3,1.9,3.7,2.5c0.7,0.3,0.8,1.7,0,1.9C921.4,317.2,921.5,319.1,920.2,319.6z"/>
<path class="lines" d="M406.8,212.5c-0.8-2.7,0.9-4.4,2-6.5c2.1,0.7,5.3-0.8,5.9,3.3C412.4,211,411.1,215.2,406.8,212.5z"/>
<path class="lines" d="M643,596.8c0.8-2.3-0.8-4.8,1.5-6.3c3.4,0.7,4.9,3.4,6.5,6.2c-1.2,0.9-2.6,1.5-3.2,3.3
	C646.3,598.6,645.3,597,643,596.8z"/>
<path class="lines" d="M904.1,338c-0.4-3-2.3-5.7-0.6-8.7c4.1-0.8,4.5,3.5,7.2,5C908.9,336.4,906.7,337.3,904.1,338z"/>
<path class="lines" d="M822.2,476.9c2.3,0.3,3.8,2.3,5.7,3.5c1,0.7,0.6,3.1-0.4,3.9c-1.6,1.3-4,1.2-5.1-0.1
	C820.4,481.9,820.5,479.5,822.2,476.9z"/>
<path class="lines" d="M746.2,459.1c-6.5,1.9-8.3,0.8-8-4.7C742.2,451.9,744.4,453.2,746.2,459.1z"/>
<path class="lines" d="M910.7,296.7c-0.1-2-0.5-3.9,1.2-5.5c2.4-0.1,4.4,1.3,5.8,3.1c1.2,1.6-0.7,2.8-1.5,4
	C914.1,299.2,912.4,298.3,910.7,296.7z"/>
<path class="lines" d="M904.2,438.3c1.4,0.4,2.9,0.5,3.6,2.2c0.6,1.3,1.4,2.5,2.5,3.3c-0.1,1.2-1.4,1.2-1.9,2.2c-1,2-1.9,1.9-3.4,0.2
	C902.7,443.7,902.5,441.7,904.2,438.3z"/>
<path class="lines" d="M416,605.1c-1.3-1.1-2.7-2-3.4-3.6c-0.6-1.4-0.6-2.6,1-3.3c1.3-0.6,2.5-1.5,3.3,0.8c0.6,1.4,2.4,1.1,3.7,1.6
	C420.4,603.4,420.1,603.6,416,605.1z"/>
<path class="lines" d="M902.7,100.8c-0.1-2.5-1.8-4-3-5.8c2.5-2.5,5.7-1.6,8.6,2.3C907.3,99.4,906.2,101.6,902.7,100.8z"/>
<path class="lines" d="M773.5,532.5c2.7-0.9,4.8,0,6.6,1.7c1,0.9,1.5,2.1,1,3.3c-0.5,1.3-1.7,1.4-3,0.9c-0.9-0.4-2,0.1-3-0.4
	C773.1,536.8,772.7,535.6,773.5,532.5z"/>
<path class="lines" d="M887.8,309.2c0-1.9-0.9-3.6-1.3-5.4c-0.4-1.9,0.5-3,2.3-2.4c1.4,0.5,3,0.7,3.8,2.4c1.2,2.6,0.5,4.3-2.3,5.1
	C889.6,309,889,309.7,887.8,309.2z"/>
<path class="lines" d="M872,398.4c-0.5,2.3,1.6,3,2.9,4.2c-1.3,2.4-3.3,3.3-5.9,3.6c0-2.2-3-3.7-1.1-6.3
	C868.8,398.6,869.7,397.4,872,398.4z"/>
<path class="lines" d="M623.1,178.9c-0.3,1.3-1.7,1.7-1.8,3.1c-2.8-0.1-4.7-1.5-6.5-3.1c-1.3-1.2-0.9-2.3,0.8-3c2-0.7,3.9-1.2,5.3,1
	C621.4,177.7,622.5,177.7,623.1,178.9z"/>
<path class="lines" d="M711.9,482.6c1.1-1.5,2.6-2.2,4.5-2.6c1.3,0.6,1.9,2.8,3.9,2.7c0.1,2.2-1.1,3.8-3,4.4c-1.8,0.6-2.8-0.4-3.2-2
	C713.9,483.8,712.3,483.9,711.9,482.6z"/>
<path class="lines" d="M593.8,149c-2,1.5-2.5,3.9-5.3,4.5c-0.7-0.9-1.6-1.9-2.4-2.9c-0.8-1-1.7-2.2-0.5-3.3c1.1-1,2.6-1.9,4.1-0.7
	C590.7,147.5,592,148.1,593.8,149z"/>
<path class="lines" d="M489.7,143c1.6,1.8,3.2,1.1,4.8,0.3c1.5,2.5,1,4.3-1.9,7.4c-1-1-1.1-2.5-2.8-3.1C487,146.7,487,145.7,489.7,143
	z"/>
<path class="lines" d="M715.1,523.2c-2.8,1.8-2.8,1.9-4.8-0.2c-0.5-0.5-1.4,0-1.7-0.9c-0.1-1.2-0.3-2.6,0.2-3.9
	c2.5-0.8,4.4,0.6,6.1,1.8C715.6,521.1,714.5,522.2,715.1,523.2z"/>
<path class="lines" d="M696.6,188.7c-1.3-0.9-2.8-1.7-4.4-1.8c-1.8-0.2-2.2-1.2-1.9-2.8c2.9-2.4,5.6-2.1,8.3,1
	C698.7,186.4,698.1,187.7,696.6,188.7z"/>
<path class="lines" d="M736.6,433c-3.9,2-3.7,2.7-7.3-0.3c0.5-1.5,0.3-3.2,1.5-4.7C733.7,428.7,736.3,429.4,736.6,433z"/>
<path class="lines" d="M711.9,547.4c3.4-2,4.3-1.8,8.6,2.3c-0.2,1.4-1.4,1.9-2.4,2.9C715.8,551.2,712.8,550.8,711.9,547.4z"/>
<path class="lines" d="M818.8,382.3c-1.2-1.8-2.1-2.6-3.2-3.2c-0.4-1.8,0.7-2.7,2.1-3.6c1.4,1.2,3.8-0.1,5,1.7c0.6,0.9,0.6,2.1,0,3.3
	C821.5,381.4,819.7,380.3,818.8,382.3z"/>
<path class="lines" d="M748.4,571.3c0-2.5-4.5-2.9-2.5-6.2c2.7-1,4.7,0.8,6.9,1.9C751.8,571.2,751.8,571.2,748.4,571.3z"/>
<path class="lines" d="M607.1,145.3c2.9-2.2,6.7-1.8,8.3,0.8c0.5,0.8,1.2,1.8,0.2,2.7c-1.2,1.1-2.9,0.9-4,0.3
	C610,148.2,608.8,146.7,607.1,145.3z"/>
<path class="lines" d="M560.1,179.9c-2-1.2-3-3.4-5.5-3.9c0.8-1.1,1.2-2,2.3-2.1c1.3-0.1,2.9-0.5,3.9,0.1c1.6,0.9,2.4,2.7,1.9,4.9
	C562,179.3,561.1,179.6,560.1,179.9z"/>
<path class="lines" d="M835.2,380.7c2.3-1.4,3.7-1.4,5.3-0.1c1.4,1.1,1.6,2.6,1.1,4.2c-0.5,1.4-1.8,2-3.1,1.3
	c-0.8-0.4-0.8-1.1-0.9-1.9c-0.1-1.1-1.7-0.1-1.9-1.3C835.6,382.2,834.9,381.6,835.2,380.7z"/>
<path class="lines" d="M573.9,149c2.1-2,4.4-1.7,6.7-1.6c1.1,0,1.9,1,1.4,2.4c-0.4,1-0.6,2.1-1.5,3C577.5,153,576,150.7,573.9,149z"/>
<path class="lines" d="M687.6,474.9c-1.2-0.3-1.9-1.6-2.9-2.5c-0.8-0.7-0.7-1.6-0.3-2.5c0.4-0.9,1.2-1.4,2.2-1c1.1,0.5,2.1-0.4,3.4,0
	c1.2,1,1.6,3,0.4,3.7C689.2,473.3,689.2,474.9,687.6,474.9z"/>
<path class="lines" d="M707,573.2c-1.6-2.5-1-5-1.3-7.4c3.2,0.5,6,2.7,5.6,4.5C710.7,572.2,709.1,573,707,573.2z"/>
<path class="lines" d="M665.4,575.1c-3.3-2.8-3.4-3-1.7-6.1c3.9,1,3.9,1,4.8,4C667.4,573.7,666.4,574.4,665.4,575.1z"/>
<path class="lines" d="M682.8,586c1.8-1.7,3.6-0.6,5.3-0.2c0.7,0.2,1.6,1,1.3,2.1c-0.2,1-0.8,1.6-1.9,1.5c-0.7-0.1-1.3,0.3-2.1,0.5
	C684.7,588.8,683.3,587.9,682.8,586z"/>
<path class="lines" d="M873.5,302.6c0,1.8-0.9,2.6-2,3.6c-1-1.4-3.2-2.3-2-4.3C870.7,300.2,872.2,301.8,873.5,302.6z"/>
<path class="lines" d="M992.7,410.6c-3.5-2.9-3.8-3.6-2.2-5.5C992.3,406.6,992.2,408.7,992.7,410.6z"/>
<path class="lines" d="M404,120c1.7-1.6,1.8-3.9,2.6-5.8c1.4-3.3,3.9-4.2,6.7-2c1.2,1,2.5,1.9,3.3,3.2c1.4,2.3,0.8,4.7-1.2,6.6
	C411.3,125.7,406.2,124.8,404,120z"/>
<path class="lines" d="M386.5,98.2c4.4-0.2,6.4,1.1,7.2,4.3c0.5,2.3-0.5,4-2.8,4.9c-1.4,0.5-2.8,0.7-4.1,1c-3.2,0.7-6.3-1.7-6.5-4.7
	c-0.2-3.3,1.9-5.5,5.4-5.7C386,98.1,386.3,98.2,386.5,98.2z"/>
<path class="lines" d="M434.3,453.3c-10.1-121.6,213.4-149.8,198.5-23.6c-5.4,45.1-30.6,95.4-78.5,104.8
	C502.6,544.6,430.3,519.1,434.3,453.3C433.6,445.5,433.9,459.4,434.3,453.3z M586.6,509.2c35.6-8.8,43.2-86.3,32.1-114.3
	c-15.3-38.6-71.9-54.2-107.9-37.6c-41.5,19.2-87.4,70.9-64,121.4c13.6,29.4,31.7,44.4,64.4,49.7
	C526.6,530.9,585.8,532.5,586.6,509.2C587.7,509,586.5,511.6,586.6,509.2z"/>
<path class="lines" d="M829.7,259.8c1.7,23.8-10,71.2-35.5,80c-22.6,8.1-81,25.9-91.3-15.9c-12.2-50-6.5-87.8,42.7-115.5
	C770.2,194.4,838.1,223.9,829.7,259.8C830,262.9,830.4,257,829.7,259.8z M748,343.5c72.7,0,101.6-117.9,21.2-132
	C698,199,667.7,343.2,748,343.5C749.3,343.5,741.8,343.5,748,343.5z"/>
<path class="lines" d="M538.2,418.3c27.3,19,11.6,56.4-21,49.2c-16.8-3.7-23.2-27.3-13.1-40.2C511.4,418,528.3,420.6,538.2,418.3
	C539.8,419.5,537.5,418.5,538.2,418.3z M543.8,429.9c-14.5-9.9-33.9-4.7-28.2,16c4,14.6,16.7,10.8,27.3,9.6
	C559.4,453.6,545,434.7,543.8,429.9C541.6,428.4,544.4,432.1,543.8,429.9z"/>
<path class="lines" d="M460.3,429c-1.4-0.2-2.5-0.3-3.8-0.5c-1.2-2.5-0.3-5.3,0.2-7.7c1-5.2,2.7-10.4,5.6-14.9
	c2.1-3.3,4.5-6.4,7.2-9.5c2.8-3.2,5.9-6.1,9.2-8.9c2.4-2,4.3-4.8,7.7-5.4c0.2,0,0.4-0.2,0.5-0.4c2.2-2.6,5-4.4,8.4-5
	c0.2,0.8,0.4,1.3-0.7,2.2c-6.2,5.4-12.3,11-18.3,16.6c-3.4,3.2-5.6,7.2-9,10.3c-0.2,0.1-0.4,0.3-0.5,0.4c-2.5,6.4-5.7,12.6-5.5,19.7
	C461.2,427.2,460.7,428.1,460.3,429z"/>
<path class="lines" d="M584.4,486.3c1.8-1.1,2.6-3.2,4.4-4.3c0.4-0.2,1-0.4,0.9-0.8c-0.2-2.1,1.4-2.9,2.4-4.2
	c3.5-4.5,6.4-9.3,8.1-14.8c0.5-1.5,0.2-2.9,0.4-4.3c1.1-6,1.6-12.2,2.8-18.2c1-5.2-0.7-10-0.3-15.3c1-1.5,2.5-1,3.8-0.3
	c1.3,6.5,1,12.9,0.8,19.4c-0.1,2.5-1.2,4.7-1.7,7.1c-0.6,3.3,0.4,6.6-0.8,9.8c-0.9,2.6-2,5-3.3,7.5c-1,1.9-2,3.9-2.8,5.9
	c-0.5,1.2-0.6,2.5-2.6,2.8c-1.2,0.2-2.6,2.1-3.3,3.5c-1.4,2.9-4.1,4.5-5.8,6.9C586.7,488.1,585.7,487.9,584.4,486.3z"/>
<path class="lines" d="M495,394.1c-5.4,2.6-9.2,6.7-12.7,11.1c-2.3,3-4.9,5.8-7.2,8.7c-1.2,1.4-1.5,3.9-2.5,5.8
	c-0.4,0.8-1,1.2-1.5,1.9c-1-0.3-1.9-0.5-2.1-0.8c-0.7-1.3,0-1.7,0.1-2.2c1.6-7.1,6.2-12.2,10.9-17.3c2.6-2.8,5.9-4.5,8.5-7.3
	c1.4-1.4,3.9-1,5.9-1.1C494.6,392.9,494.7,393.5,495,394.1z"/>
<path class="lines" d="M592.5,440c3.1-1.6,3.8-1.2,4,1.8c0.5,5.5-0.3,11-0.8,16.5c-0.3,3.4-2,6.9-4.4,9c-1.7,1.4-3.2,5-6.9,3.2
	c1-1.5,2.2-3,3-4.6c2.8-5.5,4.9-11.1,4.6-17.5C591.8,445.6,592.7,442.9,592.5,440z"/>
<path class="lines" d="M485.1,419.6c-2-2.3-2.4-4.6-0.7-5.7c2-1.3,3-3.4,5-4.7c1.3-0.9,3.1-0.9,4.2-2.2c0,0,0.7,0.4,1.4,0.9
	C491.8,411.9,487.9,415,485.1,419.6z"/>
<path class="lines" d="M581.9,453.1c2.7,4.3,0.4,7.7,0.4,11.1c-1.1,0.8-2,0.7-3.1,0.3C578.8,460.6,579.3,457,581.9,453.1z"/>
<path class="lines" d="M787.3,281.1c-6.8,16.9-52.9,22.5-48.3-1.4C744.8,248.7,781.6,251.4,787.3,281.1
	C786.4,283.2,786.4,276.8,787.3,281.1z M782.2,282.6c-0.9-12.6-15.5-31.4-27.9-16.7C738.2,284.9,768.5,293.6,782.2,282.6
	C781.9,278.2,781.6,283.1,782.2,282.6z"/>
<path class="lines" d="M789.1,311.8c-0.5-0.9-0.7-1.4-1-2c0.2-0.2,0.3-0.6,0.6-0.7c4.6-2.1,6.8-6.5,9.6-10.3c3-4,4.3-9,5.8-13.7
	c1.2-3.6,1.7-7.3,2.1-11c0.1-1.1,1-2.2,1.4-3.2c1.1-0.5,2.1-0.3,3.3,0c-0.2,4.4-1.1,8.6-1.8,12.9c-1,6.1-3.3,11.9-6.6,16.9
	c-2.5,3.7-5.7,7.3-10.2,9.1C791.3,310.2,790.3,310.8,789.1,311.8z"/>
<path class="lines" d="M744.6,227.7c-4.5,4.1-9.6,6.5-13.7,10.6c-4.3,4.2-7.3,8.9-10.6,13.8c-3.3,4.8-5.4,10-6.7,15.7
	c-1.5-3.1-3-5.9,0-9.3c1.1-1.2,1.2-3.6,2.2-5.4c2.4-4.7,4.5-9.7,8.2-13.5c2.1-2.2,3.8-4.9,6.9-6c0.7-0.3,1.4-0.7,1.7-1.5
	c1.2-2.8,4.1-3.6,6.2-5.2C740.4,225.7,742.5,225.9,744.6,227.7z"/>
<path class="lines" d="M741,239.2c1,1.6,0.1,2.5-0.8,3.3c-4.2,3.8-8.1,7.8-10.9,12.9c-1,1.7-2.2,3.4-4.4,4.4c-0.4-1.4-0.6-2.7,0-3.7
	c2-3.4,3.6-7.3,6.4-9.8c2.2-2,4.4-3.9,6.3-6.3C738.5,238.9,739.9,239.2,741,239.2z"/>
<path class="lines" d="M789.5,296c-1.1-3.9,1.1-7.3,2-10.9c2.5-1,0.5-5.3,4-5.7c2.3,2.9,0.6,5.7-0.1,8.3c-0.6,2.6-2,4.9-2.2,7.7
	C792.2,296.3,791.1,297,789.5,296z"/>
<path class="lines" d="M739,257.6c-1.4,0-2.7,0.4-3.5-0.9c1.8-3.7,1.6-4.3,5-3.6C741.5,255.2,739.6,256.2,739,257.6z"/>
</svg>
