<?xml version="1.0" encoding="utf-8"?>
<!-- Generator: Adobe Illustrator 16.0.0, SVG Export Plug-In . SVG Version: 6.00 Build 0)  -->
<!DOCTYPE svg PUBLIC "-//W3C//DTD SVG 1.1//EN" "http://www.w3.org/Graphics/SVG/1.1/DTD/svg11.dtd">
<svg version="1.1" id="Layer_1" xmlns="http://www.w3.org/2000/svg" xmlns:xlink="http://www.w3.org/1999/xlink" x="0px" y="0px"
	 width="1000px" height="1000px" viewBox="0 0 1000 1000" style="enable-background:new 0 0 1000 1000;" xml:space="preserve">
<style type="text/css">
<![CDATA[
	.st0{fill-rule:evenodd;clip-rule:evenodd;}
]]>
</style>
<g>
	<path class="st0" d="M245.2,326.9c5.4,1.3,5.4,1.3,9.5-1.5c6.2-4.3,13.1-7,20.4-9.1c5.5-1.6,11.1-2.6,16.7-3.8
		c4.7-1,9.3-2.7,13.8-4.6c6.9-2.9,14.2-4.8,21.4-6.6c9.8-2.5,19.8-4.3,29.8-6.2c7.6-1.4,15.2-2.3,23-2.4c3.1-0.1,6.2-0.7,9.1-1.4
		c7.5-1.9,15.3-1.6,22.9-2.9c3-0.5,6.1-1,9.1-1.5c9.5-1.6,19.1-3.4,28.8-3.5c1.1,0,2.2,0,3.3-0.2c9.8-1.9,19.7-1.2,29.6-1
		c6.6,0.2,13.2-0.2,19.8-0.3c0.7,0,1.3-0.2,2-0.1c10.5,0.8,21.1,1.8,31.6,2.3c12.1,0.5,24.2,2,36.1,4.1c1.5,0.3,3.1,0.5,4.6,0.5
		c5.1,0,10,1.2,14.9,2.3c7.5,1.6,15.2,2.7,22.7,4.3c10.1,2.2,20.2,4.7,30.2,7.4c3.6,1,7,2.7,10.8,3.1c0.8,0.1,1.7,0.1,2.8,0.1
		c0.9-2.3,0.4-4.5,0.2-6.6c-0.6-4.2-0.1-8.4,1-12.5c2.8-10.5,6.4-20.6,12.5-29.7c3.5-5.3,6.2-11.2,10-16.3c4.4-6,9.2-11.9,14.5-17.2
		c5.5-5.7,11.8-10.6,17.6-16.1c6.7-6.4,14.7-11.3,20.7-18.5c0.6-0.7,1.2-1.3,1.9-1.8c7.8-5.4,13-13,17.9-20.9
		c4.8-7.7,8.1-16.1,11-24.7c1-2.9,1.2-6.1,1.9-9.1c2.5-10.4,2.4-21,1.4-31.4c-0.8-9-4.1-17.6-7.4-26c-3-7.6-8.3-13.4-14.6-18.2
		c-1.3-1-3.1-1.6-4.7-2.2c-5.9-2.1-12.1-2.3-18.3-2.6c-10.1-0.5-18.3,4.3-25.8,10.4c-2.4,2-4.5,4.2-6.8,6.3c-4.5,4-7.2,9-8.3,14.7
		c-1,5.2-0.4,10.6,1.7,15.5c1.3,3.1,3.9,5,7.3,4.8c4.2-0.3,8.4,0.2,12.4-1.5c2.2-0.9,4.3-0.9,6.4,0.1c1.7,0.8,2.5,3.1,1.3,4.5
		c-1.4,1.6-3.1,3.1-4.8,4.5c-3.7,3.1-8.1,4.4-12.7,5.1c-2.9,0.4-5.4-0.4-8.2-1.6c-10.1-4.4-12.5-13-13.1-22.6
		c-0.4-5.6,1.1-11,2.8-16.2c1.2-3.6,2.4-7.1,4.2-10.4c2.4-4.5,5.8-8.2,9.9-11.4c6-4.6,13-7.3,19.6-10.8c1.5-0.8,3.4-0.9,5.1-1.1
		c10.4-1.4,20.7-0.5,30.9,1.8c7.6,1.7,13.5,6.4,19.2,11.3c2.1,1.8,3.8,4.2,5.8,6.3c5,5.3,7.5,11.9,9.8,18.6
		c2.7,7.5,4.5,15.1,5.2,23.1c0.6,7.4-0.3,14.4-2.3,21.4c-2.4,8.3-6.1,16-9.2,24c-1.4,3.7-3.6,7-5.5,10.5c-1.8,3.2-3.8,6.3-5.7,9.5
		c-4.7,7.7-9.5,15.4-14,23.2c-4.6,8.1-11,14.9-17,21.9c-6.8,8.1-14,15.9-21.1,23.7c-1.8,2-3.7,3.8-5.7,5.5
		c-11.1,9.7-19.5,21.5-26.5,34.4c-2.8,5.1-4.8,10.4-5.4,16.2c-0.1,0.8,0.1,1.7,0.1,2.5c0.7,0.1,1.3,0.3,1.4,0.1
		c5.8-7.7,14.2-12.4,21.3-18.6c9.9-8.5,20.8-15.5,31.7-22.6c4.1-2.6,8.4-4.8,12.5-7.4c10-6.1,20-12.1,29.8-18.4
		c7.6-4.9,15-10.1,22.4-15.3c4.9-3.4,9.6-7,14.5-10.4c9.1-6.3,17.6-13.3,25.9-20.6c0.8-0.7,1.5-1.5,2.3-2.3
		c9.7-9.8,17.7-20.8,24.1-32.9c0.2-0.4,0.3-0.8,0.6-1.2c4.9-5.4,7.5-12.4,11.8-18.2c2-2.6,4.1-5.2,6.7-7.3c3.2-2.6,5.9-5.9,10.1-7.4
		c1.7-0.6,2.8-2.7,4.3-4c11.3-9.8,19.9-21.5,26.7-34.9c5-9.8,9.7-19.8,15.6-29.1c2.7-4.2,4.3-9.2,6.3-13.8c1.2-2.8,2-5.8,4.4-8.2
		c0.7,0.4,1.5,0.5,1.7,0.9c0.4,0.9,0.9,2.2,0.7,3c-0.9,2.7-2.1,5.3-3.2,8c-2.6,6.3-6,12.4-7.8,18.9c-2.6,9.9-5.7,19.9-3.5,30.6
		c0.6,3,0.5,6.1,2,8.9c2.1,4.1,3.7,5,7.9,3.4c3.7-1.4,7.2-3.3,10.6-5.3c11.9-7,21.7-16.5,31-26.6c3.4-3.7,6.4-7.9,9.5-11.8
		c0.5-0.7,1-1.5,1.6-2.1c0.8-0.8,2.1-1.4,2.9-0.5c0.7,0.7,1.2,2.1,1,2.9c-0.4,1.4-1.3,2.8-2.2,4c-3,3.8-6.1,7.6-9.1,11.4
		c-1.2,1.5-2.6,3-3.7,4.7c-6.8,10.5-13.6,21.1-20.4,31.7c-3,4.7-4.1,10.2-6,15.4c-0.5,1.4-0.9,3.1-1.9,4.1c-2.7,2.9-3.5,6.5-4.7,10
		c-1.1,3.1-1.8,6.4-3.3,9.3c-5.6,10.8-12.3,20.9-19.3,30.8c-4.1,5.8-9.7,8.8-16.3,10.5c-8.8,2.2-17.5,4.5-26.4,6.4
		c-11,2.4-21.9,5.6-32.2,10c-13.2,5.6-25.8,12.4-36.6,22.2c-3.8,3.4-8,6.2-11.9,9.5c-7.1,5.9-14.4,11.6-21.2,17.9
		c-5.3,5-9.1,11.4-12.4,17.8c-2.9,5.7-6.5,11-10.3,16.1c-5.9,7.8-10.7,16.2-13,25.8c-0.6,2.3-1.7,4.6-2.3,6.9
		c-0.6,2.3-0.7,4.7-1.1,7.3c5.3,1.3,10.2,2.5,15.1,3.6c3.5,0.8,6.8,1.7,10.1,3c7.8,3,15.8,5.5,23.7,8.3c4.4,1.6,8.7,3.2,12.9,5.1
		c12.7,5.7,25.8,10.2,39.2,13.9c0.6,0.2,1.2,0.5,2.1,0.9c0.2,3.4-1.7,5.7-4,7.7c-2.1,1.8-4.5,2.8-7.3,2c-3.2-0.9-6.3-1.9-9.5-3
		c-8.6-2.9-17.2-5.6-25.7-8.7c-7.9-2.9-15.5-6.2-23.4-9.1c-7.6-2.8-15.4-5.5-23.1-8c-3.3-1.1-6.8-1.8-10.3-2.3
		c-7.6-1-15.3-1.7-23-2.5c-1.8-0.2-3.5-0.3-5.2-0.7c-10.7-2.5-21.4-5-31.9-8.1c-8.6-2.6-17.4-4.8-26.1-7.4
		c-8.9-2.7-17.9-4.7-26.9-6.9c-5.8-1.4-11.4-3.3-17.2-4.8c-4.7-1.2-9.4-2.1-14.2-3.1c-13.4-2.6-26.7-5.8-40.4-7.1
		c-7.7-0.7-15.4-1.1-23-1.6c-4-0.3-7.9-0.3-11.9-0.7c-12.7-1.3-25.5-1.8-38.3-1.7c-14.5,0.2-29,0.3-43.5,2.2
		c-5.9,0.8-11.8,1.6-17.7,2.2c-13.8,1.3-27.5,3.4-41.2,5.4c-13.9,2.1-27.9,4-41.7,6.7c-9.9,1.9-19.6,5.2-29.4,7.6
		c-13.2,3.3-26.5,6.5-39.8,9.8c-1.3,0.3-2.6,0.5-3.9,0.9c-6.5,2.1-13,4.3-19.8,6.5c-1.5,5.5-0.7,11.5-0.7,17.4
		c0.1,7,0,14.1,0.1,21.1c0,2,0.2,4,0.3,5.9c0.9,11.2,1.4,22.4,1.1,33.7c0,1.3,0,2.7,0.1,4c1,13.6,1.1,27.3,0.9,40.9
		c-0.1,8.1,0.2,16.3,0.6,24.4c0.5,9.4,0.3,18.9,0.3,28.4c0,0.7-0.1,1.3,0,2c1.5,8.7,0.5,17.6,1.4,26.4c0.3,3.1,0.2,6.2,0.4,9.2
		c0.8,13.9,1.7,27.7,2.5,41.6c0.5,9.5,0.9,18.9,1.4,28.4c0.2,4.2,0.7,8.4,0.7,12.6c0.1,9.9,0,19.8-0.1,29.7c0,6.8,0,13.7-0.1,20.5
		c-0.1,6.4,0.4,12.8-0.8,19.1c-0.2,1.1-0.3,2.2-0.6,3.3c-0.8,3.1-3.4,4-6,2c-1-0.8-1.8-1.9-2.3-2.4c0-12.9,0-25.2,0.1-37.5
		c0.1-9.9,0.6-19.8,0.3-29.7c-0.7-22.5-1.4-45-3.4-67.4c-0.7-8.5-1.5-17.1-1.1-25.7c0.2-4.6-0.4-9.2-0.7-13.9
		c-0.9-14.1-1.3-28.1-1.1-42.2c0-2.9-0.4-5.7-0.4-8.6c0-10.6,0.2-21.2,0.1-31.7c-0.1-7.9-0.6-15.8-0.9-23.8
		c-0.2-7-0.2-14.1-0.4-21.2c-0.3-9.2-0.7-18.5-1.1-27.7c-0.1-1.5-0.2-3.1-0.1-4.6c0.1-6.6,0.2-13.2,0.5-19.8
		C241.9,342.7,242.7,334.8,245.2,326.9z M863.9,153.3c-0.6,2.2-0.3,5.5,0.7,8.7c1.9,6.5,5.6,8.8,12.4,7.6c8.8-1.6,16.2-6,22.7-11.7
		c8.6-7.7,15.3-16.9,19.1-28.1c1.5-4.4,0.7-8.7,0-13c-0.2-1-0.9-2.1-1.6-2.8c-3.5-3.9-7.8-5.9-13-4.1c-7,2.5-14,4.9-20,9.9
		C873.7,128.4,866.8,138.9,863.9,153.3z M898.3,163.6c0.1,7.6,4.2,11.4,9.5,14.2c2.1,1.1,4.4,2.1,6.7,2.7c2.4,0.6,4.9,0.1,6.8-1.7
		c1-0.9,1.8-1.9,2.7-2.9c6.8-8.1,12.8-16.9,18.2-26c3.4-5.7,6-11.7,6.6-18.5c0.4-3.9-0.9-7.1-3.5-9.5c-1.9-1.7-4.5-2.5-6.8-3.8
		c-4.1,0.8-8.3,0.6-12.4,2.4c-0.9,3-1.9,5.9-2.7,8.8c-3.5,11.7-10,21.5-19.2,29.5C902.1,160.6,900,162.2,898.3,163.6z"/>
	<path class="st0" d="M0.1,501.2c1.2-1,2.6-1.7,3.6-2.9c7.1-8.1,16.3-13.3,25.6-18.5c0.2-0.1,0.4-0.2,0.6-0.3
		c10.7-8.8,23.9-13.2,36-19.4c7.1-3.6,14.6-6.2,22-9.1c8.6-3.4,17.3-6.6,25.9-9.9c1.9-0.7,3.8-1.2,5.7-1.8c1.8-0.7,3.6-1.5,5.5-2.1
		c4.5-1.7,9.1-3.4,13.7-5c6.3-2.2,12.5-4.3,18.8-6.3c5-1.6,10.1-3,15.2-4.5c0.4-0.1,0.8-0.4,1.5-0.8c0.5-2.6,0.7-5.4,0.1-8.2
		c-0.6-2.5-0.1-4.8,0.6-7.2c0.9-2.7,1.6-5.5,2.7-8.1c1.8-4.4,2.4-8.9,2.3-13.6c-0.2-5.9-0.1-11.8-0.2-18.4c-1.6,0.6-2.7,0.9-3.5,1.4
		c-6.5,4.9-13,9.9-19.5,14.9c-4.7,3.6-9.5,7.2-14.3,10.7c-1.6,1.2-3.3,2.3-5.6,1c-1-3.1,0.6-6,1.3-8.9c1-3.9,2.9-7.3,6.1-10
		c7.3-6,14.5-12.2,21.9-18.1c4.1-3.3,8.6-6.2,12.6-9c0.9-6.5,0.4-19.1-0.9-23.6c-0.8,0.4-1.6,0.6-2.3,1.1c-4.1,2.9-8.3,5.9-12.3,8.9
		c-1.4,1-2.6,2.3-3.9,3.5c-3.5,3.1-6.9,6.1-10.4,9.2c-1.3,1.1-2.7,1.3-4.3,0.6c-2-0.9-2.4-2.9-2-4.5c1-4.7,2.4-9.4,3.7-14
		c0.3-1,1-2,1.9-2.6c6.4-5,12.9-9.9,19.5-14.8c2.1-1.6,4.2-3.2,6.4-4.7c1.6-1.1,2.4-2.6,2.3-4.5c0-0.7,0-1.4-0.2-2
		c-2.2-7.2,0.3-13.9,1.5-20.8c0-0.1,0.3-0.2,0.8-0.5c2,1.4,1.5,3.8,1.9,5.8c0.5,2.4,1.2,4.7,1.6,7.1c0.4,2.1,0.7,4.3,1.1,6.2
		c2.4,0.8,3.9-0.2,5.3-1.2c12.3-8.3,25.5-14.9,38.9-21.1c3.2-1.5,6.5-2.7,9.9-3.7c4.8-1.4,7.8,1,7.4,6.1c-0.1,1.5-0.4,3.1-0.7,4.6
		c-0.7,4-2.9,6.5-6.9,7.9c-17.2,6-32.8,15.1-48,25.1c-3.1,2-4.6,4.3-4.2,8.2c0.7,5.9,1.1,11.7,1.7,18.3c2.4-1.2,4.4-2.2,6.3-3.2
		c6.6-3.6,13.1-7.3,19.8-10.7c4.1-2.1,8.4-3.7,12.7-5.5c1.9-0.8,3.8-1.2,5.9-0.3c1.2,1.4,1.5,3,0.8,4.8c-0.9,2.5-1.8,4.9-2.8,7.3
		c-0.2,0.6-0.6,1.3-1.1,1.6c-3,2.1-6,4.5-9.3,6.3c-8.5,4.7-17,9.3-25.6,13.7c-4.7,2.4-6.7,5.7-6.4,11.1c0.6,8.3,0.6,16.7,0.7,25.1
		c0.1,5.5,0,11-0.3,16.5c-0.2,2.8-1,5.5-1.7,8.8c2.5,0.4,4.7,0.2,7-0.5c4.8-1.5,9.7-2.8,14.6-4.2c4.2-1.2,8.5-2.4,12.7-3.7
		c1.7-0.5,3.4-1,5.1-1.3c4.6-0.9,7.1,0.7,8.3,5.1c0.5,1.9-0.5,3.5-2.4,4c-2.3,0.6-4.7,0.9-7,1.6c-7,2-14,4.1-21,6
		c-8.1,2.2-16.2,4.2-24.3,6.3c-12.6,3.2-25,7.1-37.4,11.1c-20.8,6.8-40.9,15.2-61.2,23.3c-15.4,6.1-30.4,13-44.7,21.4
		c-8,4.7-15.6,9.9-23.4,14.9c-1.7,1.1-3.3,2.2-5,3.5c-0.1,2.8,0.5,5.5,1.7,8.2c5.7,13.1,11.3,26.3,16.9,39.5
		c5.3,12.6,10.8,25.1,15.8,37.9c4.7,11.8,8.9,23.9,13.2,35.9c4.7,13,9.5,26.1,14,39.2c4.4,12.9,8.6,26,12.7,39
		c5.4,17.2,9.9,34.8,14.1,52.3c1.9,7.9,3.3,16,5,23.9c1,4.5,2.2,9,3.2,13.5c1.5,6.9,3.1,13.8,4.4,20.7c2.2,11.2,4.3,22.5,6.2,33.8
		c1.3,7.6,2.5,15.2,3.5,22.9c1.1,8.9,1.9,17.9,3,26.9c1.8,15.7,3.5,31.5,4.4,47.3c0.5,7.9,1.1,15.8,1.9,23.7
		c0.3,3.1-0.7,5.1-3.5,6.5c-6.7-2-10.1-6.9-11-13.4c-0.8-6.3-2.3-12.6-1.2-19c0.3-1.9,0-4-0.2-5.9c-1.2-12.9-1.5-25.9-3.3-38.8
		c-1.1-8.3-1.1-16.7-1.7-25c-0.8-11-2.4-21.9-4-32.8c-3.3-21.6-6.7-43.1-11.6-64.4c-2.7-11.8-4.6-23.8-7.3-35.6
		c-1.7-7.5-4-14.9-6.1-22.3c-1.7-6.4-3.3-12.8-5.2-19.1c-5.6-18.6-11-37.2-17.9-55.4c-2.9-7.6-5-15.5-7.7-23.2
		c-2.9-8.3-5.8-16.6-9.1-24.8c-6.2-15.6-12.6-31.1-19-46.6c-4.5-10.8-9.2-21.4-13.6-32.3c-1.7-4.3-2.8-8.8-4.1-13.2
		C-0.1,503.1,0.1,502.1,0.1,501.2z"/>
	<path class="st0" d="M296.1,448.4c-0.1-1.1-0.3-2-0.3-2.9c0-2.9,0.9-6,0-8.5c-1-2.7-1.9-5.3-2.5-8.1c-1.1-5.6-1.9-11.3-2.6-17
		c-0.8-7.2-1.4-14.5-1.9-21.7c-0.4-6.6-1.3-13.2,0.8-20.2c2.2-1.5,4.7-3.2,7.3-4.9c1.8-1.2,3.9-2.3,5.4-3.8
		c3.7-3.7,8.3-5.7,12.9-7.9c14.3-6.9,28.9-13.1,43.6-19.2c3.3-1.3,6.6-2.5,9.9-3.6c6.7-2.2,13.4-4.2,20.4-6.4c0.8,1,1.9,1.8,2.3,3
		c0.8,2,1.3,4.2,1.7,6.4c1,6.7,1.9,13.5,2.8,20.3c1,8.4,3.2,16.5,5.4,24.5c2.6,9.1,5.7,18.1,7.5,27.4c0.7,3.4,1.8,6.8,2.4,10.3
		c0.6,3.6-0.3,4.8-4,5.4c-4.3,0.7-8.7,1.1-13.1,1.4c-13,1-26,1.1-38.8,3.4c-6.7,1.2-13.4,2.6-20,4.1c-6.2,1.4-12.4,3.1-18.6,4.8
		c-5.7,1.5-10.4,4.6-14.4,8.9C300.7,445.6,299.7,448.2,296.1,448.4z M294,377.6c1.2,15.8,1,31.7,4.1,47.3c0.4,1.9,1,3.7,1.6,5.9
		c1.2-0.6,1.9-0.9,2.7-1.3c5.4-3,10.9-5.9,17-7.3c11.1-2.7,22.3-5.2,33.5-7.6c9.7-2.1,19.6-2.8,29.5-3.3c5.1-0.3,10.1-0.1,15.2-0.3
		c1.4-0.1,2.8-0.7,4.6-1.2c-1-5.8-2.7-11.1-4.3-16.3c-3.2-10.6-6.1-21.2-7.7-32.1c-0.9-6.1-1.8-12.2-2.7-18.3
		c-0.3-1.7-0.9-3.3-1.5-5.3c-2,0.3-3.8,0.3-5.3,0.8c-11.8,4.2-23.7,8.3-35.4,12.8c-4.5,1.7-8.6,4.4-13.1,6.2
		c-11.9,4.8-23,11.2-34.4,17C296.4,375.2,295.4,376.5,294,377.6z"/>
	<path class="st0" d="M670.5,379.5c1,1.9,1.7,3.2,2.5,4.8c4.1-4.9,9.7-5.3,15.5-5.4c13.5-0.3,26.9,1.4,40,4.2
		c7.3,1.5,14.5,3.5,20.9,7.9c5.4,3.7,7.9,8.7,8.1,15.1c0.1,4.8,0.4,9.7-0.2,14.5c-0.7,5.2-2,10.4-3.6,15.4
		c-3.1,9.4-6.6,18.7-9.8,28.1c-1.4,4.2-2.5,8.4-3.7,12.7c-1.8,1.5-4,1.9-6.2,1.2c-3.8-1.1-7.7-2-11.3-3.6c-11.3-5-23.1-8.5-35-11.7
		c-7.8-2.1-16-3-24.1-4.4c-1.7-1.7-2.4-3.8-1.8-6c0.7-2.3,1.7-4.5,2.9-6.6c0.9-1.5,2.7-1.2,4.2-1.4c10.1-1.2,19.6,1,29.1,4
		c11.1,3.6,22.2,7.2,32.9,11.8c3.2,1.4,4.2,0.9,5.5-2.4c2.2-5.8,4.3-11.6,6.4-17.3c1.8-4.9,3.8-9.9,5.5-14.8
		c0.9-2.7,1.6-5.5,2.1-8.3c1-5.7-1.2-10.1-6.3-12.6c-4.1-2-8.6-3.4-12.9-5c-1.4-0.5-3-0.9-4.5-1.2c-12.4-2.2-24.7-4.4-37.3-4.3
		c-6,0.1-11.8,0.8-17.7,3.4c-2.4,7-4.4,14.4-5.5,22.1c-0.7,4.8-1.9,9.4-1.8,14.3c0.1,2.8-1.2,5.1-5,5.2c-1.1-2.2-1.6-4.5-1.3-6.9
		c1.2-10.5,1.9-21.1,5.5-31.2c0.9-2.7,1-5.6,1.6-8.4c0.7-3.2,1.5-6.4,2.6-9.6C668.2,381.8,669.3,381,670.5,379.5z"/>
	<path class="st0" d="M481.1,365.9c1.7,1.8,2.5,2.7,3.4,3.6c0.4-0.2,0.9-0.2,1-0.5c0.5-1.3,1.4-2.2,2.8-2.6c4.4-1.3,8.8-3.1,13.3-4
		c13-2.5,26.1-4.3,39.4-4.1c5.1,0.1,10.1-0.2,15.2,0c4.4,0.2,8.8,0.6,13.1,1.7c4.8,1.1,8.2,4,9,9.4c1.1,7.6,2.8,15.3,1.1,23
		c-1.6,7.5-3.6,15-5.4,22.5c-2,8.2-3.4,16.4-3.6,24.8c0,1.8-0.1,3.5-0.2,5.3c-0.3,2.7-1.5,3.9-4.3,4c-1.3,0-2.7-0.1-3.9-0.3
		c-8.3-1.7-16.7-1.6-25-2.5c-11.9-1.2-23.7-0.6-35.6-1c-3.9-0.1-7.9,0.4-11.9,0.8c-1.5,0.2-2.9,0.9-4.3,1.5
		c-0.8,0.3-1.5,0.9-2.3,1.2c-2.3,0.9-4.1-0.1-4.1-2.5c0-1.3,0.2-2.6,0.3-4c0.1-1.3,0.3-2.6,0.5-4.2c-4.1-2.3-4.1-6.4-4.3-10.4
		c-0.5-14.1,0.8-28.2,2-42.2c0.3-3,0.7-6.1,0.9-9.1C478.1,372.9,479.7,370,481.1,365.9z M482.2,433.2c9.3-2.9,18.5-2.7,27.7-2.7
		c5.7,0,11.4,0.2,17.2,0.4c9.7,0.4,19.3,0.5,28.9,2c7.7,1.2,8.1,0.9,9-7.1c0.9-8.1,2.3-16.1,4.7-23.9c1.7-5.7,3.2-11.4,3.5-17.4
		c0.3-6.1-2.3-9.8-8.2-10.8c-4.8-0.8-9.6-1.4-14.4-1.5c-7.5-0.1-14.9,0.2-22.4,0.5c-11.7,0.3-23.1,2.2-34.5,4.8
		c-3.6,0.8-7.2,1.8-10.3,4.1c-0.6,5.8-1.9,11.3-1.6,17.1c0.3,5.7-0.5,11.4-0.5,17.1C481.3,421.6,480.6,427.3,482.2,433.2z"/>
	<path class="st0" d="M746.2,669.8c-0.5-0.2-1.4-0.3-1.6-0.8c-1.9-3.5-3.2-7-3-11.2c0.3-11.7,2.3-23.2,4.2-34.8
		c1.4-8.5,2.9-16.9,4.5-25.4c0.8-4.1,1.7-8.2,3.2-12.1c2.4-6.4,3.8-13.1,5.5-19.7c2.2-8.3,4.8-16.5,7.5-24.6
		c2.7-8.2,5.7-16.2,8.6-24.3c0.8-2.3,1.8-4.5,2.8-6.7c6.6-14.6,13.1-29.3,19.9-43.9c3.4-7.4,6.7-15,11.1-21.8
		c6.1-9.4,10.9-19.6,16.6-29.3c7.2-12.3,14.2-24.9,20-38c1-2.2,2.5-4.2,3.3-6.4c1.1-3,3.6-4.3,6.3-5.4c1.7-0.7,3.8,0.9,3.6,2.7
		c0,0.4-0.1,0.9-0.2,1.3c-3.5,8.3-6.7,16.7-10.6,24.8c-3.7,7.7-8.3,15-12.3,22.5c-5.2,9.9-11.2,19.4-15.9,29.6
		c-3.3,7.2-7.3,14.1-10.8,21.2c-3.7,7.5-7.2,15.1-10.7,22.7c-4,8.8-8.1,17.6-11.7,26.6c-3.7,9.2-6.9,18.6-10.2,27.9
		c-3.9,11-6.5,22.4-9.4,33.7c-2,7.9-4.1,15.8-6.2,23.6c-0.3,1.1-0.5,2.1-0.7,3.2c-2,11.7-4,23.5-6.1,35.2
		c-1.4,7.8-2.9,15.6-4.6,23.3C748.6,666,748.4,668.4,746.2,669.8z"/>
	<path class="st0" d="M313.6,506.8c2-0.2,3.7,0.8,4.8-0.7c3.9-5.4,10.2-6.6,15.7-9.2c4-1.8,8.3-2.8,12.5-4.2c2.9-1,5.7-2,8.6-3.1
		c6.2-2.3,12.5-3.8,19-5c5.2-0.9,10.5-0.9,15.7,0.1c4,0.8,6.4,3.1,7.7,7.2c2.8,8.7,4,17.6,3.7,26.7c-0.3,7.9-0.5,15.8,0.3,23.7
		c0.1,0.7,0,1.3,0.1,2c0.7,4.9,0.3,7-6.7,6.8c-10.6-0.3-21.1,0.9-31.6,2.1c-11.4,1.3-22.6,3.3-33.9,5.4c-4.3,0.8-8.6,1.7-12.7,3.4
		c-2.7,1.1-4.1-0.7-4.7-3.1c-0.1-0.6-0.1-1.3,0.1-2c1.3-6.8,0.1-13.6-0.3-20.4c-0.5-8.8-0.8-17.6,0.8-26.3
		C313,509.2,313.3,508.1,313.6,506.8z M393.4,536.1c0.4-0.6,0.6-0.8,0.6-1c0.2-8.3,0.5-16.7,0.6-25c0-2.1-0.7-4.3-1.4-6.4
		c-1.2-3.9-4-5.6-8-5.6c-7.5,0.1-15,0.9-22.3,2.6c-14,3.1-27.4,8.2-40.7,13.6c-1.6,0.7-3.2,1.4-4.6,2c-0.8,16.3-0.3,23.6,2.1,29.8
		C343.7,539.8,368.4,537.5,393.4,536.1z"/>
	<path class="st0" d="M697.4,537c0.1-4.7-1.4-8.5-4-11.9c-2.6-3.3-5.5-6.4-9.8-7.5c-0.8-0.2-1.7-0.5-2.5-0.9
		c-7.9-3.3-15.8-3.3-23.9-0.7c-2.7,0.9-5.5,1.5-8.8,2.4c-1.1,4.4-2.2,9.1-3.3,13.7c-0.5,2.1-0.7,4.4-1.2,6.5
		c-0.4,1.7-1.5,2.7-3.6,2.8c-2.1-2.7-2.1-6.1-1.9-9.2c0.8-9.9,2.7-19.6,5.9-29c0.1-0.4,0.4-0.8,0.6-1.1c0.4-0.6,2-0.6,2.3,0.1
		c0.7,1.6,1.2,3.2,1.8,5c1.4-0.1,1.5-1.4,1.7-2.2c1.4-3.9,4.4-5.7,8.1-7.1c5.1-2,10.2-2.8,15.5-1.3c4,1.1,8.2,2.1,11.9,3.9
		c9.4,4.5,14.4,12.7,16.6,22.6c1.9,8.9,2.5,17.8,1.6,26.9c-0.2,2.4-1.3,4.2-3.4,5.3c-1.6,0.8-3.2,1.5-5,1.8
		c-5.2,0.7-10.5,1.5-15.7,1.7c-7.5,0.2-14.9-0.1-22.4-0.1c-1.3,0-2.6,0.1-3.9,0c-2.2-0.2-4.3-0.7-7-1.1c-0.9-1.7-2.1-3.5-3-5.4
		c-0.9-1.9-0.7-3.9,0.1-5.8c1-2.4,2.5-4,5.4-4c2.2,0,4.4-0.2,6.6-0.3c10.1-0.3,20.2-0.6,30.3-1.1c2.4-0.1,4.8-0.8,7.1-1.5
		C695,538.9,696.2,537.8,697.4,537z"/>
	<path class="st0" d="M479.6,549.9c-2.2-0.1-3.4-1.1-4-3.3c-1.3-4.5-1.2-9.1-1.1-13.7c0.1-4,0.1-8,0.8-11.8c1-5.4,2.3-10.8,4.9-15.7
		c3.8-2.4,6.8-6.2,11.7-6.8c2.7-0.3,5.1-1.2,7.6-2.1c7.6-2.9,15.5-3,23.4-1.4c3.2,0.6,5.4,2.9,7.2,5.5c2.1,2.9,3.2,6.3,3.9,9.8
		c0.8,4.3,1.7,8.7,1.9,13.1c0.3,7.1,1.7,14,3.3,20.8c0.2,1.1,0.6,2.1,0.8,3.2c0.5,2.5-0.2,3.8-2.5,4.7c-2.7,1.1-5.3,2.1-8.1,2.9
		c-8.3,2.1-16.7,3.8-25.3,4.8c-3.7,0.4-7.4,1-11.2,1.4c-2.4,0.3-4.8,0.5-7.2,0.3c-4.4-0.4-6.6-3.1-6.4-7.6c0-0.6,0.3-1.3,0.4-1.9
		C479.8,551.3,479.7,550.6,479.6,549.9z M481.1,544.7c0.7,0.2,1.2,0.5,1.5,0.4c11.5-2.1,23.1-3.5,34.7-4.5c3.5-0.3,6.8-1.6,10.2-2.6
		c1.6-0.5,2.6-1.9,2.4-3.6c-0.6-5.5-1.1-10.9-2-16.3c-0.6-3.9-3.3-6.2-7-6.9c-2.4-0.5-4.8-0.7-7.2-0.6c-5.3,0.3-10.5,0.7-15.8,1.3
		c-3.1,0.3-6.1,1-9.1,1.6c-2.8,0.6-4.3,2.1-5,5.2c-1.7,7.1-2.2,14.3-2.6,21.6C481.1,541.8,481.2,543.3,481.1,544.7z"/>
	<path class="st0" d="M187.7,562.7c-0.7-1.7-1-3.3-1.9-4.5c-5.3-8-8.6-16.8-10.8-26.1c-1.5-6.7-2.9-13.4-4.8-19.9
		c-0.9-3.1-2.5-6.1-4.2-8.9c-1.5-2.5-3.8-3.3-6.8-2.9c-5.7,0.9-11.2,2.6-16.4,4.9c-9.5,4.2-18.5,9.3-26.7,15.8
		c-1.4,1.1-2.6,2.3-3.9,3.5c-1.3,1.2-2.2,3-3.7,3.7c-5.6,2.9-5.3,7.2-3.8,12.3c2.2,7.6,3.8,15.4,5.9,23.1c1.1,3.8,2.8,7.4,4.2,11.1
		c0.4,1.1,0.5,2.2-0.6,3c-1.2,0.9-2.8,0.9-3.6,0c-1.3-1.4-2.6-3.1-3.2-4.9c-1.8-5.4-3.6-10.9-5-16.5c-2-7.9-3.5-15.9-5.4-23.9
		c-0.6-2.5-0.6-4.7,1.1-7.2c1.4,0.1,2.8,0.3,4.2,0.4c4.4-7.7,10.6-13.5,18-18.1c2.8-1.7,5.6-3.5,8.3-5.4c7.9-5.4,16.9-8.4,26-11.2
		c1.3-0.4,2.6-0.5,3.9-0.7c3.7-0.4,6.9,0.6,9.7,3.3c2.8,2.7,4.8,5.9,6,9.4c1.7,5,3.3,10.1,4.2,15.3c1.7,9.4,4.1,18.5,7.9,27.2
		c1.9,4.4,4.5,8.6,6.6,12.9c5,9.9,1.9,11-4.9,14.5c-5.2,2.7-11.1,4.1-16.7,6.2c-12.5,4.6-25.5,6.8-38.4,10
		c-5.1,1.3-10.3,2.3-15.5,3.3c-2.5,0.5-3.9-0.8-3.5-3.2c0.5-3.8,1.4-5.1,5.2-5.7c6.3-1,12.2-3.7,18.6-4.2c0.4,0,1-0.1,1.3-0.3
		c3.9-3.4,9-3.2,13.5-4.7c4.4-1.5,8.9-2.6,13.4-3.9c5.9-1.7,11.8-3.4,17.7-5.3C185,564.7,186.2,563.6,187.7,562.7z"/>
	<path class="st0" d="M135,653.2c4.5-0.2,4.8,3.5,6.6,6.2c3.9-3.9,8.1-7,12.7-9.5c9.8-5.3,20.2-8.7,30.9-11.3
		c0.4-0.1,0.9-0.2,1.3-0.2c7.6-1.2,11.5,1,14.5,8.2c2.2,5.2,3,10.6,3,16.1c0,2.4,0,4.8-0.1,7.3c-0.6,10,2,19.2,6.6,27.9
		c1.7,3.3,3.6,6.6,3.8,10.8c-2.9,3.2-6.7,5.5-10.8,7c-6.8,2.6-13.7,4.8-20.6,7.1c-6.5,2.2-12.9,4.5-19.4,6.6c-3.1,1-6.3,1.9-8.9,2.6
		c-2.4-0.9-2.7-2.4-2.7-4c0.1-2.6,1.3-4.7,3.2-6.3c0.8-0.7,1.9-1.2,2.9-1.6c2.8-1.2,5.6-2.5,8.6-3.5c10-3.6,20-7,29.9-10.5
		c1.5-0.5,2.8-1.2,4.2-1.9c3.2-1.6,3.9-2.9,2.6-6.3c-1.8-4.7-3.9-9.3-4.7-14.4c-1.2-7.2-2.1-14.4-1.5-21.7c0.2-2.4,0.1-4.9-0.2-7.2
		c-0.6-5.3-2.9-7.1-8-6.1c-3.9,0.7-7.7,1.8-11.5,3c-10,3-19.5,7.1-27.9,13.4c-2.3,1.7-5,2.9-7.7,4.4c-0.4,5.1,0.4,10.4,1.4,15.5
		c1.7,8.9,2.1,18,4.8,26.6c0.6,1.8,0.3,3.5-1.2,4.8c-2.6,0.6-4.3-0.3-4.9-2.9c-0.7-3.4-1.2-6.9-1.9-10.4c-2.6-13.2-4.3-26.6-4.9-40
		c-0.1-2-0.6-3.9-0.7-5.9C134.4,655.7,134.8,654.5,135,653.2z"/>
	<path class="st0" d="M29.8,506.4c2.5,1.4,2.9,3.4,3,5.4c0.5,7.4,2.8,14.2,5.3,21c1.7,4.5,2.6,9.3,3.9,13.9
		c3.4,12.1,8.5,23.6,13.1,35.3c0.8,2,1.6,4.1,2.2,6.2c0.2,0.7-0.3,1.9-0.8,2.2c-0.4,0.3-1.8-0.2-2.2-0.7c-1-1.5-1.7-3.1-2.3-4.7
		c-5.3-13.8-10.7-27.6-15.9-41.4c-2.6-6.8-4.8-13.7-7.2-20.6c-0.9-2.7-1.7-5.5-2.9-8.1c-1.6-3.2-0.6-5.5,1.8-7.6
		C28.3,507,29,506.8,29.8,506.4z"/>
	<path class="st0" d="M63.1,569.6c-1.9,1.1-2.8,0.2-3.4-1.1c-1.3-3-2.6-6.1-3.6-9.2c-4.3-12.7-8.5-25.5-12.8-38.2
		c-1-2.9-2-5.8-3.1-9c2.5-2.4,3.3-6.1,6-8.2c1.9,0.5,2,1.9,2.4,3.2c0.1,0.4-0.1,0.9-0.2,1.3c-2.2,6.2-0.3,12.2,0.9,18.3
		c1.4,6.9,4,13.5,6.6,20c1.5,3.7,3.4,7.2,4.5,11C61.7,561.5,62.3,565.7,63.1,569.6z"/>
	<path class="st0" d="M733,439.8c-0.4-1.3-0.7-1.9-0.7-2.4c1.2-8.7,4.4-16.9,6.6-25.3c0.1-0.4,0.4-0.9,0.8-1
		c0.6-0.2,1.2-0.3,1.8-0.2c0.3,0,0.8,0.6,0.7,0.9c0,0.9-0.2,1.7-0.5,2.5c-2.4,7.9-4.9,15.8-7.4,23.8
		C734.3,438.5,733.9,438.8,733,439.8z"/>
	<path class="st0" d="M192.1,683.7c-0.4-0.1-0.9,0-1.2-0.2c-0.3-0.2-0.7-0.6-0.7-1c-1.2-6.3-2.3-12.5-3.4-18.8
		c-0.2-1.1,0.4-2.3,0.8-3.8c2,2.7,2.5,4.8,3.2,12.1C191.2,675.9,191.7,679.8,192.1,683.7L192.1,683.7z"/>
	<path class="st0" d="M161.8,537.7c-2.9-6-4.5-12.3-6.2-18.5c-0.2-0.6-0.3-1.4,0-1.9c0.2-0.5,0.8-0.9,1.4-1.2
		c0.3-0.1,0.8,0.2,1.1,0.5c0.3,0.3,0.6,0.7,0.7,1.1c1.3,6.2,2.5,12.4,3.7,18.6C162.4,536.7,162,537.1,161.8,537.7z"/>
	<path class="st0" d="M185.2,684.5c-3.3-2.2-3.1-5.6-3.6-8.7c-0.3-2.3-1-4.7,0.7-6.9c1.8,2.2,1.7,2.2,2,7.9
		C184.4,679.4,184.9,681.9,185.2,684.5z"/>
	<path class="st0" d="M728,423.1c0.2-6.3,0.6-7.3,3.6-8.9C731.2,417.5,730.9,420.5,728,423.1z"/>
	<path class="st0" d="M683.1,531.7c-1.6-3.7-1.1-5.6,0.1-7.4c0.2-0.3,0.9-0.5,1.1-0.3c0.5,0.3,1.1,0.8,1.2,1.2
		C686,527.3,684.4,528.6,683.1,531.7z"/>
	<path class="st0" d="M150.4,521.4c2.1,3.5,1.2,6.7,1.2,10.1c-0.3-0.6-0.8-1.1-1-1.7c-0.6-2.3-1.1-4.6-1.5-6.9
		C149.1,522.7,149.7,522.3,150.4,521.4z"/>
	<path class="st0" d="M192.1,683.7c0.1,1.6,0.2,3.2,0.3,4.7l0.2-0.1c-1-0.2-1.3-0.8-1.2-1.7C191.6,685.7,191.9,684.7,192.1,683.7
		C192.1,683.7,192.1,683.7,192.1,683.7z"/>
	<path class="st0" d="M192.5,688.5c0.1,0.6,0.2,1.2,0.3,1.7c0,0.1-0.2,0.3-0.2,0.4c-0.2-0.2-0.6-0.5-0.6-0.6
		c0.1-0.6,0.4-1.1,0.7-1.6C192.6,688.4,192.5,688.5,192.5,688.5z"/>
	<path class="st0" d="M893.4,147.1c0.6,0.5,1.9,1.3,2.7,2.4c0.9,1.3,0.3,3.2-0.9,4.1c-1.9,1.3-4.1,1.5-6.3,1.1c-2-0.4-2.9-3-1.8-4.7
		C888.3,148,890,146.7,893.4,147.1z"/>
	<path class="st0" d="M915.5,168c-0.5-1.3-1.2-2.2-1.3-3.2c-0.4-3.3,1.5-5.1,4.7-4.7c2.3,0.3,3.9,1.4,3.8,3c0,1.9-0.9,3.5-2.6,4.3
		C918.7,167.9,917.1,167.8,915.5,168z"/>
	<path class="st0" d="M378.3,386c-2.8-2.2-3-5.5-3.2-8.7c-0.5-7.2-0.5-14.4-2-21.5c-0.3-1.3-0.6-2.7-0.4-3.9
		c0.1-0.8,1.2-1.4,2.5-2.7C377.7,361.9,377,373.9,378.3,386z"/>
	<path class="st0" d="M367.3,357.2c0.5,5.1,1,10.2,1.4,15.1c-1.6,1-2-0.1-2.1-0.8c-0.7-4.3-1.4-8.5-1.9-12.8
		c-0.1-0.6,0.8-1.3,1.2-1.9C366.4,357,366.9,357.1,367.3,357.2z"/>
	<path class="st0" d="M559.6,378.9c0.7,0.3,1.1,0.3,1.1,0.4c0.3,0.6,0.7,1.3,0.6,1.8c-1.7,10-3.5,19.9-5.3,29.8c0,0.3-0.6,0.4-1,0.7
		c-0.3-0.3-0.8-0.5-0.8-0.8C554.2,407.3,558,384.7,559.6,378.9z"/>
	<path class="st0" d="M549,394.5c0.3-5.3,0.3-5.3,2.4-6.8C551.6,391.2,551.6,391.2,549,394.5z"/>
	<path class="st0" d="M383,525.1c-0.6-5.6-1.3-11.2-1.9-16.9c-0.1-0.8,0.1-1.7,0.4-2.5c0.1-0.3,0.7-0.6,1.1-0.6
		c0.4,0,0.8,0.2,1.1,0.5c0.3,0.3,0.5,0.7,0.6,1.1c0.2,5.7,0.5,11.3,0.6,17c0,0.5-0.4,1-0.7,1.5C383.7,525.3,383.4,525.2,383,525.1z"
		/>
	<path class="st0" d="M377.7,510.5c-0.2,2.5-0.5,5-0.8,7.6c-0.9,0.6-1.6,0.7-1.9-0.5c-0.6-2.1-1.3-4.3-0.2-6.4
		C375.3,510.1,376.2,509.7,377.7,510.5z"/>
	<path class="st0" d="M521.5,517.2c-0.7,3.3-1.3,6.4-2.1,10C517.2,519.9,517.6,518.1,521.5,517.2z"/>
</g>
</svg>
