<?xml version="1.0" encoding="utf-8"?>
<!DOCTYPE svg PUBLIC "-//W3C//DTD SVG 1.1//EN" "http://www.w3.org/Graphics/SVG/1.1/DTD/svg11.dtd">
<svg version="1.1" id="mr-router-icon-set" xmlns="http://www.w3.org/2000/svg"
	 width="1000" height="400" viewBox="0 0 1000 400">
<style type="text/css">
<![CDATA[
	.st0{fill-rule:evenodd;clip-rule:evenodd;}
	.bg{fill-rule:evenodd;clip-rule:evenodd;fill:#FFFFFF;opacity:0;}
]]>
</style>
<rect class="bg" width="1000" height="400"/>
<g>
	<path class="st0" d="M189.7,229.2c-0.1-2.6-2.1-2.7-3.5-3.2c-2.9-1-4.1-2.8-4-5.5c0.1-2.1,0.2-4.2,0.4-6.2c0.4-3.5-0.4-6.8-2.4-10
		c-2.4,0.7-2.6,2.6-3.3,4.2c-1.2,2.6-2.2,5.3-3.5,7.9c-0.6,1.2-1.8,2.2-2.7,3.3c-0.4-0.1-0.7-0.2-1.1-0.3c-0.1-0.9-0.6-1.9-0.3-2.7
		c1.4-4.3,2.9-8.5,4.4-12.8c0.7-2,1.4-4,1.9-6c2-9,4.4-18.1,5.7-27.2c1.3-8.7,1.6-17.5,2.3-26.3c0.2-2.8,0.1-5.7,0.5-8.5
		c0.2-1.1,1.2-2.6,2.3-3c1.8-0.8,3.2,0.6,3.8,2c0.7,1.6,1.1,3.4,0.9,5.1c-0.7,7.3-1.9,14.5-2.4,21.8c-0.6,9.2-0.7,18.5-1,27.7
		c-0.1,1.9,0.2,3.9,0.2,5.8c-0.2,4.9,1.1,9.3,3.2,13.8c3.4,7.4,6,15.1,8.5,22.8c1.8,5.4,2.9,10.9,3.8,16.6c1.3,7.8,4.1,15.3,6.2,23
		c0.7,2.3,1.2,4.7,2.1,6.9c1.2,3-0.9,4.9-4.1,5.1c-1.4,0.1-2.9-0.2-4.4-0.4c-5-0.7-6.8-0.2-9.2,4c-1.6,2.9-2.2,6.1-3.2,9.3
		c-0.4,1.4-0.3,3-0.9,4.3c-0.4,0.8-1.7,1.7-2.5,1.7c-0.8,0-1.9-1.2-2.1-2c-0.7-3.4-1.3-6.8-1.6-10.2c-0.4-4.5-1.1-5.6-5.8-6.3
		c-10.3-1.6-20.6-3.4-30.9-4.4c-18.2-1.9-36.3-3.7-54.7-3.2c-7.5,0.2-15,0-22.5,0.3c-4.2,0.2-8.4,1-12.6,1.6
		c-2.3,0.3-3.8,1.5-4.6,3.5c-1.3,3.2-3.2,6.2-3,9.8c0,0.7-0.1,1.6-0.4,2.2c-0.3,0.6-1.1,1.3-1.7,1.3c-0.6,0-1.5-0.7-1.7-1.2
		c-0.5-1.6-0.7-3.2-1-4.8c-1.8-8.7-2.1-8.9-11.5-7c-3.3,0.7-6.5,0.8-9.6-0.3c-2.4-0.8-4.6-2.2-4.2-4.9c0.9-6.3-1.4-12.1-2.4-18.1
		c-1-6-2.6-11.9-3.8-17.9c-0.2-0.8,0.5-2.2,1.2-2.5c0.8-0.3,2.5-0.1,3,0.5c1.1,1.4,1.9,3.1,2.4,4.8c1.1,3.9,2.1,7.8,2.8,11.8
		c0.8,4.5,1.1,9.1,1.6,13.7c0.1,0.6,0,1.2,0.1,1.8c0.7,5.7,3.3,7.4,9.3,5.6c10.7-3.1,21.9-3.7,32.9-4.3c13.8-0.7,27.7-0.6,41.6-0.2
		c16.1,0.6,32.2,1.8,48.4,3c11.1,0.8,22.1,2,33.1,2.9c3.8,0.3,4.6-0.3,4.9-3.9c0.3-2.8,0.4-5.6,2.6-8c0.6-0.6,0.5-2,0.3-3
		c-0.9-4.7-2-9.3-3-14c-0.4-2.2-0.8-4.4-0.8-6.6c0-2.8-1.5-4.5-4.3-5.2c-15-3.5-29.6-8.5-45.3-9.3c-11.9-0.6-23.7-1.9-35.6-2.1
		c-7.4-0.1-14.9-0.2-22.3-0.1c-11.1,0.1-22.2,0.9-33.2,2.4c-8.2,1.1-16.2,3.5-24.2,5.6c-2.6,0.7-4.8,2.2-7.5,3.5
		c-1.3-2.6,0-4.3,1.7-5.7c1.5-1.3,3.4-2.3,5.1-3.4c1.7-1.1,3.5-2.2,5.2-3.4c5.5-3.9,6-6.2,2.9-12.5c-3,0.9-3.7,3.4-4.8,5.6
		c-0.6,1.2-1.1,2.5-2,3.5c-0.5,0.5-1.8,0.6-2.6,0.4c-0.5-0.1-1-1.1-1.1-1.8c-0.1-0.9,0.1-1.8,0.3-2.6c0.5-2.5,1-5,1.6-7.4
		c2.2-8.5,2.4-17.1,2.6-25.8c0-1.2,0-2.4,0.2-3.6c2.6-14,2.3-28.2,3.3-42.4c0.1-1.3,0-2.7,0.4-4c0.3-0.9,1.4-2.2,2-2.1
		c1.1,0.1,2.3,1,2.9,1.8c0.6,1,0.7,2.3,0.8,3.5c0.1,3.1,0.1,6.3,0.1,9.4c-0.2,8-1.4,16.2-0.3,24.1c1.2,8.6,0.4,17.6,5,25.8
		c2.6,4.7,4.2,10,6.6,14.8c1.2,2.4,2.9,4.7,4.6,6.8c1.8,2.2,4.4,2.9,7.4,2.8c12.1-0.1,24.2-0.3,36.2-0.1c12.4,0.2,24.8,0.5,37.2,1.3
		c10.7,0.6,21.4,1.8,32.1,2.9c2.9,0.3,5.6,1.4,8.5,2.1c2.8,0.7,5.6,1.6,8.5,2.1C186.9,229.6,188.3,229.3,189.7,229.2z"/>
	<path class="st0" d="M97.3,105.2c9.7,0.3,17.8,0.6,26,0.9c7,0.3,13.6,2.1,19.5,5.4c7.5,4.1,14.8,8.7,22.1,13.2
		c0.8,0.5,1.6,1.1,2.1,1.8c1.2,1.4,0.8,2.8-0.4,4.1c-1.2,1.3-2.7,1.6-4.4,0.7c-0.9-0.6-1.8-1.3-2.6-2c-8.2-7.6-18.1-12.6-29.1-15.9
		c-2.8-0.8-5.7-1.5-8.6-1.6c-12.9-0.2-25.8-1-38.5,1c-3.8,0.6-7.6,1.7-11.5,2.2c-2.2,0.3-4.6,0.3-6.7-0.2c-1.3-0.3-2.9-1.9-3-3
		c-0.1-1.1,1.4-2.5,2.6-3.3c1.1-0.7,2.8-0.9,4.2-1C79,106.6,88.9,105.9,97.3,105.2z"/>
	<path class="st0" d="M115.9,142.2c-9,0.5-16.1,1.3-22.6,4.4c-1.6,0.8-3.3,1.3-5.1,1.5c-1,0.1-2.2-0.8-3.2-1.3
		c0.5-0.9,0.8-2.1,1.6-2.5c3.1-1.7,6.2-3.4,9.5-4.6c4.7-1.7,9.5-3.1,14.2-4.6c2.9-0.9,5.6-0.8,8.6-0.2c8.6,1.6,15.6,5.9,22.5,10.4
		c5.2,3.3,10.5,6.6,15.4,10.2c2,1.5,3.7,3.7,4.8,5.9c1,2-1.1,3.6-3.3,2.6c-1.4-0.6-2.7-1.7-3.7-2.8c-6.9-7.7-15.9-12.8-25.7-16.5
		C124.4,142.8,119.1,142.7,115.9,142.2z"/>
	<path class="st0" d="M34.2,252.2c-0.7,1-1.3,2-2,2.8c-1.3,1.7-1,3,0.8,4.1c4.3,2.7,15.1,2.5,19.2-0.2c2-1.3,2.2-2.8,0.5-4.5
		c-0.4-0.4-1-0.7-1.5-1.1c-1.1-0.9-2.7-1.9-1.6-3.3c0.5-0.7,2.3-0.8,3.5-0.8c2.5,0.1,4.5,1.1,5.1,3.4c0.8,3,0.9,6-1.7,8.3
		c-2.7,2.5-5.9,4.1-9.9,4.4c-5.1,0.4-10.1-0.2-14.9-1.7c-6-1.9-7-6.7-2.2-10.5C30.6,252.5,31.8,251.3,34.2,252.2z"/>
	<path class="st0" d="M103.5,174.6c1.2-6.4,6.4-10.2,14-10.1c3.9,0.1,7.8,0.7,11.7,1c5.4,0.4,7.6,4.1,9.8,7.8c1,1.8-0.4,3.4-2.6,3.1
		c-1.1-0.1-2-0.8-3.1-1.2c-4.2-1.6-8.3-3.5-12.6-4.7c-4.5-1.2-8.8-0.5-11.9,3.1C107.5,175.1,106,176,103.5,174.6z"/>
	<path class="st0" d="M71.3,240.1c0.1-2.5,1.7-2.8,3.1-3c3.4-0.4,6.9-1.1,10.2-0.8c10,1,20,2.4,30,3.7c1.6,0.2,3.1,1.1,4.9,1.7
		c-1.6,2.7-3.8,2.6-5.8,2.5c-5.2-0.4-10.3-1.1-15.5-1.5c-7.6-0.7-15.2-1.4-22.8-2.1C74,240.5,72.7,240.3,71.3,240.1z"/>
	<path class="st0" d="M185.3,246.2c-1.2,2.8-3.2,3.1-5.1,3.2c-2.6,0.1-5.2,0-7.8-0.2c-7.9-0.8-15.8-1.8-23.7-2.8
		c-2-0.3-4.5-0.1-4.7-2.8c-0.1-1.6,1.6-2.4,5.1-2.1c10.5,1,21,2.1,31.5,3.3C182.1,245,183.5,245.7,185.3,246.2z"/>
	<path class="st0" d="M121.3,200.9c-2.2-0.9-4.6-1.4-6.6-2.6c-3.2-1.9-4-4.1-3.1-6.8c1.1-3.2,3.5-5.3,7-5.2c2.2,0,4.6,0.5,6.5,1.4
		c3.7,1.7,4.5,4.4,3.3,8.4C127.4,199.2,125.5,200.4,121.3,200.9z M122.5,195.5c-1.3-2.9-3.3-4.4-5.1-3.8c-0.6,0.2-1.2,1.4-1,2
		C116.8,195.6,119.1,196.2,122.5,195.5z"/>
	<path class="st0" d="M45.9,244.6c0,1.5,0.3,3.1-0.1,4.4c-0.4,1.1-1.5,2.3-2.6,2.8c-1.6,0.7-3.1-0.2-4-1.6c-1.6-2.7-2.4-5.6-1.1-8.5
		c0.4-1,1.3-2.2,2.4-2.6c1.4-0.5,3.2-0.6,4.6-0.2c0.6,0.2,0.7,2,0.9,3.1C46,242.9,45.9,243.8,45.9,244.6
		C45.9,244.6,45.9,244.6,45.9,244.6z"/>
	<path class="st0" d="M122.7,252.1c2.3,2.5,4.3,3.7,4.6,5.2c0.6,2.6-1.3,4.7-4.2,4.3c-1.6-0.2-3.7-2.3-4-3.7
		C118.9,256.6,120.8,254.9,122.7,252.1z"/>
	<path class="st0" d="M134.7,263.5c-3-3.6-3.6-6.5,0.6-8.6c1.2-0.6,4.9,0.6,5.1,1.4C141.4,260.4,138.3,262,134.7,263.5z"/>
</g>
<g>
	<path class="st0" d="M306.9,143.3c-1-2.3-1.9-4.5-2.7-6.7c-1-2.7-1.9-5.4-2.6-8.1c-0.9-3.8,2.6-6.3,6.6-4.3
		c12.2,6,25.8,8.2,38.8,12.3c4.4,1.4,9.1,2.2,13.6,3.4c3.6,0.9,5.2,5.3,3.3,9c-1.6,2.9-3.4,5.8-4.8,8.8c-1.8,3.7-1.7,4.4,1.8,6.9
		c5.4,3.8,11.2,7.1,16.8,10.7c3.5,2.2,6.9,4.5,10.1,7c3.8,3,3.6,5.5-0.4,8.3c-6.4,4.4-12.8,8.8-19,13.3c-2.6,1.9-5,1.8-7.7,0.4
		c-3.9-2-6.7-5-9.2-8.4c-4.3-5.8-9-11.3-13.6-16.9c-0.4-0.4-1-0.7-2-1.3c-1.2,1.5-2.4,2.8-3.5,4.2c-2.1,2.6-4,2.8-6.3,0.3
		c-4-4.4-6.5-9.6-8.7-14.9c-2.5-6-5.2-11.9-8.1-17.7c-1.4-3-1.9-2.9-5.2-1.4c-3.5,1.6-7.1,2.9-10.6,4.5c-2.6,1.2-2.7,1.8-1.4,4.2
		c3.5,6.4,7.1,12.7,10.5,19.2c1.2,2.2,2.7,3.2,5.4,2.8c2.3-0.3,4.6-0.5,6.8-0.5c0.8,0,1.7,0.6,2.5,0.9c-0.5,0.9-0.7,2-1.4,2.5
		c-1.7,1-3.7,1.7-6.1,2.7c0.6,1.5,0.9,3.2,1.8,4.5c2.6,3.8,5.4,7.5,8.1,11.2c1.3,1.8,3.2,2,5.2,1.2c3.2-1.4,6.4-2.8,9.6-4.3
		c1.4-0.6,2.5-2,4.4-1.1c1,1.8-0.4,3-1.6,3.8c-2.2,1.5-4.5,3-7.1,3.9c-7.7,2.9-15.7,5-24,6c-9.2,1.2-18.3,2.7-27.7,2.1
		c-6.1-0.4-11.9-1.5-17.7-3c-2-0.5-4-1.3-6-1.9c-8-2.3-13.9-6.9-18.3-13.4c-0.8-1.3-1.8-2.5-2.7-3.7c-3-4.1-6-8.1-8.9-12.2
		c-0.7-1-1.1-2.2-1.4-3.3c-3.5-13.4-3.1-26.8-0.3-40.3c0.2-1.2,0.7-2.3,0.7-3.5c-0.3-7.9,2.2-15.4,5.1-22.7
		c4-10.1,9.8-19.4,17.9-27.3c5.6-5.5,11.9-10.1,18.3-14.7c3.1-2.2,6.5-3.4,10.2-4c4.8-0.7,9.6-1.8,14.4-2.2
		c5.8-0.5,11.7-0.9,17.6-0.8c7,0.1,14,0.7,21,1.2c10.8,0.8,19.8,5.5,28.7,10.7c6.6,3.8,11.2,9.5,16.9,14.1c1.6,1.3,3.2,2.6,4.7,3.9
		c1,0.8,2.1,1.5,2.8,2.5c3.1,4.7,7.2,9.1,9,14.2c4.3,11.8,5.8,23.9-0.2,35.7c-3,5.9-6.1,11.8-9.3,17.7c-1.5,2.9-3,3.8-4.6,3
		c-2-1-3.2-5.3-2-7.1c2-3.1,4.2-6,5.8-9.3c2.8-5.7,5.4-11.5,7.8-17.3c1.9-4.6,0.1-9.1-1.4-13.5c-0.6-1.8-2.2-2.1-4-1.3
		c-1.9,0.9-3.7,2-5.6,2.8c-7,3.1-14.1,6.1-21.2,9.3c-2.5,1.1-4.9,2.4-7.2,3.7c-1.4,0.8-2.9,1.9-4.4,0.6c-1.5-1.3-1.7-3.2-0.2-4.4
		c3.1-2.7,2.1-5.4,1.2-8.6c-2.1-7-5.6-13.3-9.6-19.5c-1.8-2.7-2.3-2.9-5.5-1.9c-5.1,1.6-10.1,3.5-15.3,4.8
		c-5.3,1.4-10.8,2.2-16.2,3.2c-1.8,0.3-3.6,0.4-5.3,0.6c-7,1.1-8,1.9-9,8.5c-0.5,3.1-0.8,6.2-0.8,9.4c0.1,7.6-0.3,15.2,3.1,22.5
		c1.7,3.5,1.5,3.5,5.7,2.5C296.9,145.5,301.5,144.5,306.9,143.3z M361.4,198.5c1.3-0.3,1.7-0.3,1.9-0.4c5.2-4.5,10.4-9,15.6-13.5
		c1.5-1.3,1.2-2.8-0.3-3.9c-2.1-1.6-4.3-3.2-6.5-4.7c-5.6-3.8-11.3-7.6-16.9-11.3c-3-2-4.1-4.5-3.3-7.8c0.4-1.7,0.8-3.5,1.5-5.1
		c1.7-4.2,0.7-6.3-4-7.9c-2-0.7-3.9-1.4-5.9-2.1c-10.5-3.6-21-7.1-31.6-10.7c-1.1-0.4-2.4-0.3-4.4-0.6c3.3,14.7,11.4,26.7,18.3,39.1
		c1.3,2.4,2.7,4.8,5.9,6.2c1.4-1.1,2.8-2.3,4.3-3.4c2.8-2.1,3.9-2.1,5.9,0.5c4.6,6.1,9.1,12.3,13.7,18.4
		C357.4,193.9,359.4,196.2,361.4,198.5z M248.7,128.5c0.7,6,0.8,14.6,4.8,22.7c1.9,3.9,2.4,4.3,6.9,3.1c5.8-1.5,11.6-3.1,17.4-4.6
		c4.3-1.1,4.6-1.7,3.7-5.6c-1-4.4-2.4-8.7-2.6-13.1c-0.5-6.9-0.2-13.9-0.1-20.9c0-2.2-0.7-3.5-3-3.8c-5.7-0.6-11.3-1.2-17-1.7
		c-2.4-0.2-3.9,0.8-5,2.8C250.6,113.3,248.6,119.3,248.7,128.5z M249.6,160.9c-6.6,0.8-13.3,1.5-19.9,2.4c-2.2,0.3-3.8,1.4-3.1,3.6
		c1.3,4,2.4,8.1,4.5,11.8c2.7,4.7,6,9.3,9.8,13.3c2.6,2.7,6.2,4.7,9.7,6.5c1.3,0.7,3.6,0.3,5.2-0.2c4-1.3,7.8-3,11.7-4.6
		c1.9-0.8,3.7-1.9,5.4-3c1.7-1.1,2.2-2.6,0.8-4.3c-1.6-1.9-3.3-3.6-5-5.4c-1.8-1.9-3.9-3.6-5.5-5.6c-3-3.7-5.6-7.7-8.4-11.5
		C253.5,162.3,252.2,160.7,249.6,160.9z M382.4,102.6c-0.3-0.8-0.4-1.4-0.7-1.9c-1.7-2.4-3.1-4.9-5.2-7c-3.7-3.8-7.8-7.2-11.6-10.9
		c-4.3-4.1-4.6-4.2-9.9-1.4c-0.6,0.3-1.2,0.6-1.7,0.9c-3.5,1.9-7.1,3.7-10.4,5.9c-3.8,2.5-4,4.4-1.5,7.9c1.1,1.6,2.2,3.3,2.9,5.1
		c2.2,5.1,4.2,10.3,6.4,15.4c1.5,3.4,2.7,3.8,6.3,2.6c9-3.1,16.5-8.4,23.4-14.3C381.3,104.4,381.8,103.4,382.4,102.6z M225.3,150.6
		c0.1,0,0.1,0,0.2,0c0.1,0.9,0.2,1.8,0.2,2.7c-0.3,4.3,1.1,5.4,6.3,5c4.4-0.3,8.7-1,13.1-1.7c3-0.5,3.5-1.3,2.9-4
		c-1.1-5-2.1-9.9-3.3-14.9c-1.7-7.3-1.6-14.5,0.4-21.7c0.8-3.2,1.7-6.4,2.7-9.5c0.7-2.1,0.2-3.5-2.2-4.1c-0.9-0.2-1.8-0.6-2.8-0.8
		c-3.2-0.8-4.1-0.5-5.2,2.4c-2.1,5.5-4.5,10.8-6.2,16.4c-2.5,8.2-3.9,16.6-5.6,24.9C225.4,147,225.5,148.8,225.3,150.6z M260,160.1
		c0.1,1.1,0.1,1.5,0.2,1.7c4.1,9.2,11.7,16,19.5,22.5c1.3,1.1,4.1,1.3,5.9,1c3.3-0.6,6.5-1.8,9.7-3c4.2-1.6,4.3-2,2.3-5.6
		c-3.6-6.5-7.4-12.9-11.1-19.3c-1.2-2.2-3-2.4-5.3-2c-4.6,0.9-9.3,1.7-13.9,2.6C264.9,158.6,262.5,159.4,260,160.1z M311.1,71.5
		c-1.7,0.6-3.2,0.9-4.6,1.6c-10,4.9-15.1,13.2-18.1,22.8c-0.8,2.6,0.4,3.7,3.3,3.3c4.2-0.6,8.4-1.1,12.5-1.8
		c7.4-1.3,14.7-2.8,21.3-6.2c3.8-2,4.3-3.2,1.6-6.3c-3.6-4-7.6-7.8-11.6-11.5C314.5,72.4,312.7,72.1,311.1,71.5z M305.5,205.2
		c0-0.5,0.1-0.9,0.1-1.4c-1.6-0.9-3.1-2-4.7-2.8c-5.7-2.8-11.5-5.5-17.4-8c-1.2-0.5-3.1-0.9-4.1-0.4c-5.5,2.8-11,5.8-16.3,9
		c-1.7,1-1.4,2.8,0.5,3.5c2.6,0.9,5.3,1.7,8,1.8c9.7,0.2,19.5,0.2,29.2,0C302.4,206.8,303.9,205.8,305.5,205.2z M287.9,65.5
		c-6.6,1.2-13.4,1.3-19.6,4.4c-10,5.1-17.6,12.2-23.6,20.9c-0.8,1.1-1.4,3.6-0.9,4c2,1.4,4.4,2.3,6.8,3.1c2,0.6,2.7-1.2,3.6-2.4
		c4.3-6.4,9.4-12.1,15.5-17.2C275.2,73.5,281.1,69.2,287.9,65.5z M353.7,75.2c-5.7-5.8-13-7.8-20.5-8.9c-4.4-0.6-8.9-2.3-13.8-1.1
		c4.9,6.4,9.5,12.4,14.1,18.2c1.5,1.9,3.3,2,5.6,0.8c2.1-1.1,4.3-2,6.3-3.2C348.1,79.5,351.6,78.5,353.7,75.2z M288.2,79.5
		c-3.8-0.3-5.5,2-7.7,3.3c-2.1,1.3-4.2,2.8-6.2,4.3c-3.8,2.7-7.7,5.4-11.3,8.4c-2.1,1.8-1.5,3.8,1.3,4.1c4.6,0.6,9.4,0.7,14.1,0.7
		c2.2,0,3.2-1.6,3.9-3.5c1.5-4.2,3.3-8.4,4.8-12.6C287.6,82.8,287.8,81.3,288.2,79.5z M309.5,198.1c-0.1-2.5-1.1-5.6-3.1-8.1
		c-4.2-5.3-3.9-5.1-9.7-2.9c-1.2,0.5-2.5,0.7-3.6,1.3c-0.9,0.4-1.5,1.2-2.3,1.9C294.3,193.3,306.3,198.2,309.5,198.1z"/>
	<path class="st0" d="M397,42.8c-3.5,1.9-5.6,1.6-7.4-0.5c-1.6-1.9-3.4-3.7-4.7-5.7c-4.3-6.8-10.4-11.3-18.7-13.5
		c-1.4-0.4-2.8-0.9-4-1.6c-5.7-3.3-12.2-4.1-18.7-4.4c-5-0.3-10.1-0.4-15.1-0.7c-5.1-0.3-10,0.6-14.9,2c-1,0.3-3,0.1-3.5-0.6
		c-0.7-0.9-0.9-2.6-0.5-3.7c0.3-0.9,1.8-1.7,3-2c6.8-1.6,13.8-2.9,20.8-1.9c11.4,1.6,23,3.1,33.5,7.9c5.9,2.8,11.7,5.9,17.3,9.2
		c2,1.2,3.5,3.1,4.9,4.9C391.6,35.7,394.1,39.1,397,42.8z"/>
	<path class="st0" d="M217.8,45.2c-11.1-0.7-20.5,3.4-28.5,9.8c-8,6.4-13.6,14.4-16,24.1c-0.5,2-1.1,4.1-2.2,5.9
		c-0.6,1-2.2,1.4-3.3,2.1c-0.5-1-1.5-2.1-1.4-3c1.3-8.6,3.4-17,10.2-23.7c2.5-2.5,4.9-5.2,7.6-7.6c10.8-9.8,23.8-14.3,39-12.9
		c0.6,0.1,1.4,0,1.9,0.3c0.9,0.7,2.4,1.6,2.4,2.4c0,0.8-1.4,2.1-2.4,2.3C222.7,45.2,220.2,45.1,217.8,45.2z"/>
	<path class="st0" d="M232.9,55.5c-1.1,3.1-3,3.9-5.2,4c-1.6,0.1-3.3,0.2-4.9,0.1c-7-0.4-13.1,1.8-18.7,5.5
		c-7.1,4.6-9.5,11.4-11.2,18.7c-0.4,1.7-0.9,3.5-2,4.9c-1.6,2.1-3.8,1.9-4.8-0.5c-0.7-1.6-1.1-3.5-0.9-5.2c0.3-2.2,0.9-4.5,2.1-6.4
		c6.3-10.3,15.4-18.1,27.6-22.4c5.3-1.9,10.9-1.1,16.3,0.5C231.8,54.8,232.4,55.2,232.9,55.5z"/>
	<path class="st0" d="M367.4,39.9c-2.9,2-4.9,1.6-6.9,0.2c-1.9-1.4-3.9-2.7-5.7-4.2c-4.6-4.1-10.4-5.5-16.5-5.5
		c-7.8-0.1-15.6,0.9-23,3.4c-1,0.3-2.1,0.4-4.4,0.8c1.3-1.8,1.8-2.8,2.6-3.5c4.5-3.9,10-5.6,16-5.8c9.6-0.2,18.8,1.2,27.2,5.8
		C360.7,33.2,364.1,36.2,367.4,39.9z"/>
	<path class="st0" d="M210.8,80.5c-1.9-2.3-1.8-4.9-0.3-7.1c3.6-5.2,8.6-9,15.3-10.4c1.4-0.3,3.3,0.1,4.7,0.6
		c0.8,0.3,1.5,1.6,1.5,2.4c0,0.6-1,1.4-1.7,2c-0.5,0.3-1.2,0.4-1.9,0.5c-6.2,0.4-10,3.8-12.9,8.5C214.6,78.6,213.5,80.3,210.8,80.5z
		"/>
	<path class="st0" d="M349,43.3c-2.2,2-4.2,1.6-6,0.5c-4.5-2.9-9.4-2.9-14.5-2c-1.6,0.3-3.3-0.1-5.8-0.2c2.8-4.9,6.9-5.4,11.1-5.4
		C340.1,36.2,345.5,38,349,43.3z"/>
	<path class="st0" d="M236,76.8c-1.2,1.8-2.1,3.9-3.6,5.5c-2.2,2.2-4.5,2.5-6.5,1.3c-2.3-1.5-3.3-4.8-1.9-7.2c1.6-2.6,4.4-4,7.5-4.5
		C233.9,71.5,235.5,73.6,236,76.8z"/>
	<path class="st0" d="M338.4,49c-0.1,3.4-1.9,5.5-4.9,5.5c-2.8,0-5.3-2.7-5.3-5.8c0-2.8,1.7-4.2,5-4.1C337,44.7,338.4,45.9,338.4,49
		z"/>
</g>
<g>
	<path class="st0" d="M505.4,186.4c6.3-0.1,7.2,1,6.7,6.6c-1.4,14.5-2.1,29.1-3.8,43.6c-1.8,16-2.6,31.9-2.7,47.9
		c0,3.9-2,6.1-6.1,7.6c-10.4,4-21.4,4.8-32.2,6.4c-2.1,0.3-4.4,0-6.4-0.5c-6.9-1.7-13.6-3.5-20.5-5.3c-3.9-1-6.1-3.5-7.5-7
		c-3.9-9.8-8.4-19.4-12-29.3c-2.9-8.2-4.9-16.7-7.2-25c-1.1-4-1.9-8.1-3.1-12.1c-1.1-3.5-0.5-6.4,2.7-8.7c2.5-1.7,4.9-3.8,7.8-4.9
		c7-2.7,14.2-5.1,21.5-7.4c5.4-1.7,10.9-3.1,16.3-4.8c6.7-2.1,13.4-3.8,20.7-4.2c6.8-0.3,13.6-1.7,20.4-2.6
		C501.7,186.7,503.7,186.6,505.4,186.4z M505.6,203.3c0-1.6,0.1-3.4,0-5.2c-0.3-4.3-1.4-5.3-6.2-5.3c-3.5,0-7.1,0.2-10.6,0.9
		c-7.7,1.6-15.7,1.1-23.1,3.9c-5.8,2.2-11.8,4.5-18,5.3c-10,1.3-17.8,6.5-26.1,10.8c-1.2,0.6-2.3,2.5-2.4,3.9
		c-0.2,3.5-0.1,7.1,0.4,10.6c0.9,5.7,2.2,11.3,3.4,16.9c2.4,11.3,10.9,20.7,11.9,32.6c0.4,5.5,4.3,9.6,11.4,9.5
		c1.9,0,3.8,0.9,5.7,1.2c7.2,0.9,14.4,2.6,21.6,2.4c6.4-0.1,12.7-2.3,19-3.5c4.4-0.8,6.8-3.3,7.3-7.4c0.2-1.6,0.4-3.2,0.5-4.8
		c0.9-14.2,1.6-28.4,2.6-42.5C503.8,222.9,504.8,213.2,505.6,203.3z"/>
	<path class="st0" d="M644.8,254.2c-5.9,0.3-11.8,0.5-17.7,0.8c-5.3,0.3-5.8,0.1-7.8-4c-3.8-7.9-7.7-15.8-11.2-23.8
		c-1.7-3.8-2.4-7.9-3.6-11.9c-1.8-6.1-3.7-12.1-5.5-18.2c-1.2-4.3-2.6-8.7-3.2-13.1c-0.7-5.2,1-8,6.5-9.6c7.5-2.1,15.2-3.8,22.9-5.1
		c8-1.3,16-1.4,24.1-0.5c5.8,0.6,11.8,0.1,17.7,0.2c6.8,0.1,8.3,1.7,7.4,7.9c-2.1,16.4-4.3,32.9-6.2,49.3
		c-0.7,6.1-0.9,12.2-1.3,18.3c-0.4,6.9-4,10.1-11.5,10.2c-3.5,0-7.1,0-10.6,0C644.8,254.6,644.8,254.4,644.8,254.2z M644.9,174.3
		c0-0.1,0-0.2,0-0.4c-5.1,0.2-10.3,0.2-15.3,0.8c-5.1,0.5-10.1,1.6-15.1,2.4c-12.1,1.8-14.9,6.2-11,16.9c2.2,6.1,3.8,12.4,5.7,18.7
		c3.4,11.5,7.4,22.8,17.6,31.2c2.5,2.1,5,3.3,8.3,3.5c5.9,0.3,11.8,0.7,17.7,1.3c6.5,0.6,8.1-0.4,8.9-6.4c0.9-6.6,1.6-13.2,2.1-19.9
		c1.1-14.2,2.1-28.3,3-42.5c0.3-4.4-0.8-5.4-5.8-5.5C655.6,174.2,650.3,174.3,644.9,174.3z"/>
	<path class="st0" d="M539,142.8c-3.5,0-7.1,0.1-10.6,0c-3.3-0.2-5.6-1.4-7.2-4.5c-2.3-4.5-5.9-8.5-8.2-13
		c-3.9-7.6-7.5-15.4-10.8-23.3c-2.5-6-0.1-7.7,5-9.2c11.7-3.2,23.2-7,34.7-10.4c2-0.6,4.1-1.1,6.3-1.6c11.8-2.4,19.3,4.1,17.8,15
		c-1.1,7.5-1.7,15-2.9,22.5c-0.7,4-2.2,7.9-3.3,11.9c-0.4,1.4-0.5,2.8-0.6,4.3c-0.4,5.7-2.5,7.9-8.9,8.6c-1.9,0.2-3.9,0.1-5.9,0.1
		c-1.8,0-3.5,0-5.3,0C539,143,539,142.9,539,142.8z M538.6,137c2.8-0.4,6.1-0.9,9.4-1.4c3.9-0.6,5.6-2.9,6.1-6.3
		c0.3-2.9,0.9-5.7,1.3-8.5c1.2-8.2,2.7-16.3,3.6-24.6c0.9-8.1-4.3-11.8-12.8-9.6c-4.9,1.3-9.8,2.5-14.7,3.9
		c-5.6,1.7-11.2,3.5-16.7,5.4c-4.8,1.6-5.7,3.5-4.4,7.9c0.8,2.8,1.8,5.5,2.6,8.3c2.4,8.6,8.1,15.5,14.1,22.2
		c0.8,0.9,2.2,1.6,3.5,1.9C533,136.6,535.5,136.7,538.6,137z"/>
	<path class="st0" d="M496.8,154.7c-6.7,3.5-8,10.7-13.8,15.7c2.5,1.1,4.1,1.9,5.8,2.6c-1,4.9-9.2,9-19.3,9.6
		c-0.4-1-1.2-2.2-1.1-3.2c0.3-3.9,0.8-7.9,1.4-11.8c0.4-2.5,2.4-3.4,4.8-2.6c3.9,1.4,5.9-0.4,7.8-3c1.3-1.8,2.9-3.4,4.2-5.2
		c2-2.6,4.5-5.1,1.3-8.6c-0.6-0.6,0.3-3.3,1.4-4.1c4-3.1,8.3-6,12.8-8.7c1.2-0.7,3.8-0.8,4.8,0c1.1,0.7,1.5,2.8,1.4,4.2
		c-0.3,3.6-1.1,7.1-1.7,10.6C505.3,156.4,503.1,157.4,496.8,154.7z"/>
	<path class="st0" d="M611.1,143.2c0.7-1.9,1.2-3.4,1.7-4.9c4.8,0,6.8,3.1,8.4,6c2.1,3.9,3.5,8,5.1,12.1c0.4,1,0.4,2.1,0.2,3.2
		c-0.3,2.1-1.8,2.7-3.8,1.9c-0.9-0.4-1.6-1-2.4-1.5c-3.7-2-7.5-3.8-11.2-5.9c-1.4-0.8-3.5-1.9-3.7-3.1c-0.9-5.9-6.1-8-10.1-11.2
		c-5.1,2.2-5.3,2.3-8.3-1.5c-2.8-3.5-5.3-7.1-7.7-10.8c-0.7-1-0.8-3.3-0.1-3.9c1.1-0.9,3.3-1.4,4.7-1c4.7,1.2,9.3,2.8,13.9,4.5
		c4.4,1.6,4.7,2.4,4.2,7c-0.1,1.1,0.2,2.6,1,3.3C605.4,139.3,608.1,141,611.1,143.2z"/>
	<path class="st0" d="M541.7,230.5c0.4,1.1,0.8,2.2,1.3,3.5c-2,2.2-4.5,2.1-7,1.4c-4.5-1.2-9.1-2.4-13.5-3.9
		c-1.1-0.4-2.6-1.6-2.6-2.4c0-1.2,0.9-2.8,1.9-3.4c6-3.4,12.8-4.4,19.7-4.7c1.2-0.1,2.4,1,3.7,1.4c1.9,0.7,4,2,5.9,1.9
		c7.6-0.5,15.2-1.5,22.7-2.3c0.5-1.1,0.8-1.7,1-2.4c0.8-3.8,1.1-4,4.8-3.4c3.7,0.6,7.4,1.3,10.9,2.3c2.1,0.6,3.9,2,5.9,3
		c-3.3,4.9-17.5,11-23.4,10.4c-0.1-1.5-0.2-3-0.3-4.4C569.1,226.6,545.7,228.9,541.7,230.5z"/>
	<path class="st0" d="M476.1,208.9c0.1,1.3,0.5,2.2,0.3,3c-2.2,6.3-0.1,12.1,2,17.9c0.5,1.5,1.7,3.2-0.7,4.1
		c-2.1,0.8-3.4-0.6-4.2-2.1c-3-5.8-4-12-4.1-18.4C469.3,210.6,471.1,209.7,476.1,208.9z"/>
	<path class="st0" d="M455.4,230.4c0-0.1,0.2,0.8-0.2,1.6c-0.3,0.7-1.1,1.7-1.8,1.7c-0.7,0.1-1.7-0.6-2.4-1.1
		c-0.4-0.3-0.6-0.9-0.8-1.4c-1.4-3.9-2.8-7.8-4-11.8c-1-3.1-0.2-4.8,2.5-5.7c3.2-1.1,5.4,0.1,5.7,3.3
		C454.9,221.2,455.1,225.3,455.4,230.4z"/>
	<path class="st0" d="M646.7,194.9c0.4,2.8,0.9,5.7,0.9,8.5c0,1.4-1.1,2.8-1.7,4.2c-1.4-0.8-3.3-1.3-4-2.5
		c-2.8-4.6-2.8-9.7-1.6-14.7c0.2-1,1.1-1.9,2-2.6c2.3-1.9,4.6-1.1,5,1.6c0.2,1.8,0,3.6,0,5.4C647.1,194.8,646.9,194.8,646.7,194.9z"
		/>
	<path class="st0" d="M629,207.5c-3.9,0.8-5.6-1.1-6.5-3.2c-1.7-4.2-2.9-8.5-4-12.8c-0.5-2,0.4-3.5,3-3.7c3-0.2,5.6,1.1,6,3.1
		c0.1,0.7,0,1.4-0.1,2.1c-0.7,4-0.3,7.8,1.3,11.6C628.9,205.3,628.8,206.2,629,207.5z"/>
	<path class="st0" d="M544.6,115.4c-5.1-3.9-7.5-10.7-5.3-15.3c0.7-1.5,2.3-2.9,3.9-3.7c1.8-1,3.8-0.3,3.9,1.8
		c0.1,5-0.3,10-0.6,14.9C546.4,113.8,545.4,114.4,544.6,115.4z"/>
	<path class="st0" d="M533.3,112.2c-0.7,0.9-1.3,2.8-2.6,3.2c-1.3,0.4-3.9-0.4-4.5-1.3c-1.7-2.9-3.1-6.2-4-9.4
		c-0.6-2,1.3-3.5,3.5-3.5c1.5,0,3.9,0.7,4.4,1.6C531.5,105.5,532.2,108.6,533.3,112.2z"/>
</g>
<g>
	<path class="st0" d="M816.7,127.3c-3.4,1.6-4.5,5.2-5.7,8.5c-1.7,4.5-3.1,9.1-4.6,13.6c-0.8,2.6-1.8,5.2-2.2,7.8
		c-0.6,3.6-0.8,7.3-1.2,11c-0.7,6.5,0.3,12.8,2.4,18.9c2.9,8.3,6.8,16.4,11.8,23.8c3.4,5,8.4,8.5,13.4,11.9
		c4.7,3.2,9.9,5.8,14.9,8.7c0.5,0.3,1,0.5,1.6,0.7c6.8,2.7,13.9,4.8,21.1,6.4c5,1.1,9.3,0.6,14.1-1c9.2-3.3,15.8-9,20-17
		c2.4-4.6,5-9.1,6.1-14.1c1.7-7.4,3.7-14.7,4.9-22.2c1-5.6,1.1-11.4,1.5-17.1c0.1-2.1,0.1-4.3-0.2-6.5c-1.3-8.1-2.8-16.2-4-24.3
		c-0.4-2.7-1.8-4.2-4.5-5.3c-6.7-2.5-13.2-5.3-19.8-7.9c-9.1-3.5-18.2-6.8-27.3-10.1l-1.8-4.8c7,1.8,13.6,4.4,20.2,7
		c7.8,3.1,15.8,5.8,23.6,8.9c3.7,1.5,7.1,3.4,10.7,5.1c2.6,1.2,4.1,3.1,4.3,5.9c0.5,5.8,0.9,11.7,1.9,17.4
		c1.3,7.8,0.8,15.5,0.4,23.3c-0.1,1,0.1,2.4,0.7,3.1c3.5,3.8,7.2,7.4,10.8,11.1c0.1,0.1,0.4,0.1,0.8,0.2c4.3-3.6,8.6-7.1,12.9-10.8
		c1.6-1.4,2.8-3.1,3.3-5.2c0.9-3.7,1.9-4.1,6.1-4.3c1,0,2-0.5,2.9-1c1.2-0.6,2.3-1.5,3.5-2.2c1.2-0.7,2.6-1.1,4.2-0.2
		c0,0.8,0.1,1.8,0.1,2.8c1,0.4,1.9,0.8,3.2,1.4c-0.7,0.7-1.2,1.2-1.7,1.7c-0.6,0.7-1.6,1.5-1.7,2.3c-0.2,2-1.6,2.5-3.4,2.7
		c-1.2,0.2-2.4,0.1-3.5,0.3c-3.6,0.8-6.7,2.1-9.4,4.7c-4,3.8-8,7.6-11.5,11.8c-2,2.4-3.6,2.4-6.2,0.4c-1.9-1.5-3.8-3-5.8-4.2
		c-1.1-0.7-2.5-1.2-3.9-1.5c-1.6-0.4-2.7,0.1-3.1,1.8c-1.3,4.7-2.7,9.4-4.1,14.1c-1.6,5.7-3.7,11.1-6.8,16.3c-1.6,2.6-2.2,5.7-3,8.6
		c-0.2,0.9,0.2,2.2,0.8,3c3.6,4.9,7.7,9.3,12.9,12.8c1.3,0.9,2.7,1.8,3.9,2.8c1.6,1.4,1.6,2.5,0.2,3.9c-0.8,0.8-1.7,1.6-2.7,2
		c-3.2,1.2-5.6,3.2-7.9,5.4c-1.6,1.6-3.4,3-5,4.6c-1.6,1.6-1.3,2.5,0.9,3.4c0.2,0.1,0.4,0.2,0.7,0.2c6.8,1,13.6,1.5,20-1.7
		c0.6-0.3,1.2-0.8,1.9-0.9c0.7-0.1,1.9-0.1,2.2,0.3c0.3,0.4,0.1,1.5-0.3,2c-0.5,0.7-1.3,1.3-2.1,1.7c-5.2,2.6-10.8,3.6-16.8,3
		c-2.7-0.3-5.4-0.2-8.1-0.3c-1.8-0.1-3.6,0-5.3-0.3c-2.5-0.4-3.3-2.2-1.8-4.1c1.2-1.6,2.7-3,4.3-4.3c4.3-3.6,7.5-8,10.6-12.5
		c1.6-2.3,1.3-3.2-1.3-4.9c-3.6-2.4-7.3-4.8-11-7.1c-3.5-2.2-4.5-2-8,0.1c-5.4,3.3-11,6.3-16.5,9.5c-2.8,1.6-5.6,1.9-8.7,0.6
		c-3.6-1.6-7.3-2.9-10.3-5.5c-4.3-3.7-8-2.9-9.8,2.4c-1.4,4.1-2.6,8.3-3.5,12.5c-0.6,2.8-1.9,4.6-4.9,6.1c-4.9,2.5-9.4,5.8-14,8.8
		c-0.6,0.4-1,1.1-1.8,2c1,0.3,1.8,0.7,2.5,0.7c3.9,0,7.8-0.1,11.7-0.2c1.2,0,2.4-0.1,3.5,0.1c0.7,0.1,1.3,0.7,1.9,1.1
		c-0.5,0.6-0.9,1.4-1.6,1.9c-0.6,0.4-1.5,0.6-2.4,0.6c-2.1,0.1-4.2,0.2-6.4,0.2c-4.1,0.1-8.3,0-12.4,0.2c-1.1,0-2.2,0.8-3.3,1
		c-2.1,0.4-4.5,1.3-6.3-0.5c-1.1-1.1,0.1-2.9,3.1-4.8c3.6-2.3,7.3-4.4,10.7-6.8c4.4-3.1,8.7-6.3,12.9-9.6c1-0.8,1.6-2.1,2-3.3
		c1.3-4,2.8-8.1,3.5-12.2c0.5-2.8,0.3-5.9-0.3-8.7c-0.6-2.5-3.1-4.1-5.5-5.2c-5.3-2.4-9.9-5.5-13.7-9.6c-1.4-1.5-3.5-2.4-4.7-3.9
		c-4.1-5.5-8.6-10.8-10.7-17.4c-1.6-5-4.3-9.8-5.4-15c-0.5-2.2-1.9-2.8-4.3-2c-2.3,0.8-4.6,1.8-6.7,2.9c-2,1-3.8,2.2-5.6,3.4
		c-3.2,2.1-5.1,5.9-3.3,9.3c1.2,2.3,1.7,4.9,2.6,7.4c0.5,1.4,1.2,2.8,2.1,4.1c1.6,2.2,3.6,4.1,6.9,3.9c0.5,0,1-0.1,1.4,0.1
		c0.7,0.3,1.7,0.7,1.8,1.2c0.1,0.6-0.5,1.6-1,1.8c-1,0.4-2.2,0.6-3.4,0.6c-1,0-2.1-0.2-3.2-0.4c-0.4,1.5,0.7,2.4,1,3.5
		c0.2,0.8,0.5,1.8,0.2,2.4c-0.6,1.1-1.8,0.7-2.8,0.3c-0.3-0.1-0.7-0.1-1.2-0.2c-0.5,0.4-0.9,0.9-1.5,1.2c-0.6,0.3-1.8,0.6-1.9,0.5
		c-1.3-2.4-4.8,0.1-5.9-2.3c-0.4-0.7-0.5-1.8-0.3-2.5c0.8-2.3,1.5-4.8,2.9-6.9c1.1-1.7,1.8-3.3,1.2-5.1c-1.2-3.5-2.4-7-3.7-10.5
		c-0.3-0.9-0.8-1.8-1.1-2.7c-0.7-1.9-0.4-3.3,1.5-4.8c2.2-1.9,4.6-3.3,7.1-4.8c3.5-2.2,7.1-4.4,9.9-7.3c3.8-3.7,6.2-8.1,6.8-13.5
		c0.7-7.1,2.5-14.1,3.8-21.1c0.5-2.4,1.3-4.8,1.7-7.3c0.6-3.4,2.4-5.8,5.8-7.3L816.7,127.3z"/>
	<path class="st0" d="M828.1,183c0-5.5,0-11,0-16.5c0-3,1.4-5.5,4.7-6.6c2.8-1,4-2.7,4.3-5.6c0.4-3.5,1.7-6.9,2.9-10.3
		c0.9-2.6,3.3-4.2,6-5.2c1.8-0.7,3.7-1.5,5.7-1.9c7.7-1.2,15.3-1.5,22.4,2.1c3.4,1.7,5.8,4.1,6.3,7.8c0.4,3.2,0.9,6.4,1,9.6
		c0.1,2,0.9,3.2,2.9,4c2,0.7,3.8,1.8,5.7,2.6c4.2,1.8,5.4,5.1,4.8,9.2c-0.6,3.8-1.5,7.6-2.1,11.5c-0.8,4.5-1.5,8.9-2.4,13.4
		c-0.3,1.6-0.8,3.2-1.2,4.7c-0.5,2.1-1.9,3.2-4.2,3.4c-1.8,0.1-3.6,0.5-5.3,0.2c-7.5-1.3-15.1-0.5-22.6-0.1
		c-7.3,0.4-14.6,1.2-21.9,0.5c-4-0.4-4.8-0.8-5.3-4.7c-0.8-6-1.5-12-2.3-18C827.7,183,827.9,183,828.1,183z M861.4,198.8
		c-0.2-1.1-0.2-1.5-0.4-1.9c-3.1-5.8-2.8-11.9-1.6-18.1c0.5-2.7,2-4.5,5-5.3c1.4-0.4,2.9-1.1,4-2c2.8-2.3,2.4-5.3-0.9-6.9
		c-1.9-0.9-3.8-1.8-5.8-2.4c-4.9-1.4-8.4-0.6-11.2,2.6c-0.8,0.9-1.7,1.8-2.6,2.7c-2.6,2.9-2.2,5.2,1.4,6.8c2.4,1.1,3.2,2.7,3.5,4.8
		c0.8,5.5,0,10.8-3.3,15.6c-0.7,1-1.2,2.2-2.1,3.7C852.4,199.2,856.7,198.8,861.4,198.8z M861.2,156C861.2,156,861.2,156,861.2,156
		c2.7,0.1,5.4,0,8.1,0.1c1.9,0,3.1-0.7,3.9-2.2c3.3-6.8,1.8-10.5-6-12.4c-0.6-0.1-1.2-0.2-1.7-0.3c-4.3-0.7-8.4-0.2-12.6,0.8
		c-4,1-6.5,3.2-8.5,6.3c-1.2,1.8-1.5,3.6-0.3,5.5c1.2,1.9,3.2,2.3,5.5,2.3C853.4,155.9,857.3,156,861.2,156z"/>
	<path class="st0" d="M856.9,104.4c0.6,0.4,1,0.5,1.1,0.7c2,2.8,4.9,4.7,7.4,7c6.5,6.1,14.8,8.5,23.5,10.2c0.9,0.2,1.9,0,2.8,0
		c3-0.1,5.8,0.6,8.5,1.9c1,0.5,1.7,1.2,1.3,2.3c-0.4,1.1-1.6,1.7-3,1.4c-8.4-1.8-16.9-3.2-24.9-6c-5.2-1.8-10.4-3.7-14.4-7.5
		c-0.4-0.3-0.8-0.6-1.2-1c-2.1-1.6-2.7-1.5-4.7,0.3c-4.4,4-8.9,7.9-13.3,11.8c-2.7,2.4-6.2,3.1-9.6,4.2c-3.3,1.1-6.8,2-10.2,3
		c-0.3,0.1-0.7,0.2-0.9,0.4c-1.7,1.9-3.6,0.9-5.5,0.4c-1.5-0.4-2.4-1.2-2.3-2.7c0.1-1.4,0.6-2.7,2.2-3.2c1.2-0.3,2.5-0.6,3.7-0.4
		c4.7,0.6,8.8-0.6,13.1-2.3c8.1-3.3,15.2-7.8,20.9-14.1c1.4-1.5,2.5-3.3,3.8-4.9C855.7,105.4,856.3,105,856.9,104.4z"/>
</g>
<g>
	<path class="st0" d="M19.3,378.3c0.1,0.9,0.4,1.9,0.1,2.7c-0.4,1-1.1,2.3-2.1,2.7c-1.5,0.7-3.2-0.1-3.6-1.5
		c-1.2-3.6-2.4-7.3-2.9-11c-0.6-4.4-0.6-8.8-0.7-13.2c-0.2-4.7,0.7-5.6,5.5-6.5c2.8-0.5,5.5-1.1,8.2-1.8c3.9-1.1,7.6-0.6,11.2,0.9
		c4.7,2,6.6,7,4,11.1c-1.1,1.7-3,3.2-2.2,5.3c1.2,3,2.5,5.9,4.1,8.7c0.9,1.5,2.7,2.7,4.1,3.9c1.4,1.2,2.8,2.5,1.1,4.3
		c-1.1,1.2-3.1,0.9-4.8-0.8c-3.6-3.6-7.2-7.2-10.6-10.9c-2.4-2.6-3-2.9-6.2-2c-4.3,1.2-5.5,2.4-5.6,5.5
		C19,376.5,19.2,377.4,19.3,378.3C19.3,378.3,19.3,378.3,19.3,378.3z M16.5,359.8c0.3,1.6,0.4,3.3,1.1,4.9c0.3,0.8,1.8,1.9,2.5,1.7
		c4.5-1,9.2-1.8,12.4-5.2c2.8-2.9,1.8-5.6-2.1-7.1c-3.6-1.3-6.8,0-10.1,0.9C17.6,355.7,16.5,357.3,16.5,359.8z"/>
	<path class="st0" d="M19.6,326.5c-0.7,2.3-1.3,4.6-2.3,6.8c-0.3,0.7-1.9,1.2-2.9,1.2c-0.6,0-1.5-1.1-1.7-1.9
		c-1.8-5.5-0.5-10.8,1.1-16.1c0.2-0.7,0.8-1.4,1.5-1.7c7.1-3.3,14.3-5.6,22.2-1.6c1.2,0.6,3.2,0.2,4.7-0.2c6-1.8,10.5-0.3,12.9,5.1
		c1.1,2.5,1.7,5.2,2.1,7.9c0.3,1.6-0.5,3.3-2.5,3.3c-1.1,0-2.7-1.2-3.3-2.2c-1-1.7-1.3-3.7-2-5.6c-1.2-3.1-2.8-3.8-6.1-2.8
		c-3.2,1-5.3,3-5.9,6.2c-0.2,1.3-0.4,2.8-1,4c-0.4,0.8-1.7,1.8-2.5,1.7c-0.7,0-1.7-1.3-2-2.2c-0.4-1.6-0.3-3.3-0.5-5
		c-0.1-0.9-0.2-1.8-0.4-2.7c-0.5-2.1-1-4.2-4.1-4.3c-3.5-0.1-6.7,1.6-7.4,4.2c-0.5,1.9-0.5,3.9-0.7,5.9
		C19,326.3,19.3,326.4,19.6,326.5z"/>
	<path class="st0" d="M127,364.8c0.3,3.4,0.7,6.1,0.7,8.9c0,1.2-0.4,2.8-1.2,3.7c-1.4,1.5-3.6,1-4.3-0.9c-0.5-1.3-0.6-2.7-0.7-4
		c-0.2-4.9-0.3-9.7-0.5-14.6c-0.1-3.8-0.3-4-4.6-4.2c-1.7-0.1-3.4,0-5-0.3c-0.8-0.2-1.8-1.1-1.8-1.8c-0.1-0.6,0.8-1.8,1.5-2
		c2.1-0.5,4.2-0.7,6.4-0.8c3.8-0.2,4-0.3,5.2-3.7c0.4-1.3,0.7-2.7,1.4-3.9c0.5-0.7,1.6-1.4,2.6-1.5c0.4-0.1,1.3,1.2,1.5,2
		c0.2,1,0,2.1-0.1,3.2c-0.1,3.6,0.4,4.2,4.5,4.3c2.5,0.1,5,0.1,7.5,0.4c0.9,0.1,1.8,1.1,2.6,1.6c-0.7,0.9-1.3,2.4-2.2,2.6
		c-2,0.5-4.3,0.4-6.4,0.4c-6,0.1-7,1-7.1,6.4C127,362.1,127,363.8,127,364.8z"/>
	<path class="st0" d="M75.8,312.1c2.5,0.3,5,0.4,7.4,1c2.6,0.6,3.6,2.1,2.1,4c-2.5,3.5-2.1,6.4,0.5,9.6c0.6,0.7,0.9,1.7,1,2.5
		c0.2,1.9-2,3.2-3.6,2c-1.9-1.4-3.6-3.1-5.2-4.8c-1.5-1.5-2.8-2.9-5.4-2.3c-2.6,0.6-4.1,1.8-4.3,4.3c-0.1,1.5-0.9,3-2.7,2.6
		c-1.2-0.2-2.8-1.5-3-2.4c-0.7-3.4-1.1-6.9-1-10.3c0.1-3.1,1.9-4.4,5.4-5C69.9,312.7,72.9,312.4,75.8,312.1z M72.3,317.7
		c-0.6,0-1,0-1.4,0.1c-0.1,0-0.1,0.4-0.1,0.7c0.3,0,0.7,0.1,0.9,0C71.9,318.3,72,318,72.3,317.7z"/>
	<path class="st0" d="M60,377.8c-8.4,0.9-12.8-8.6-11.3-14.5c0.2-0.9,1-2.2,1.9-2.5c6-2.5,11.6-6,18.6-6.1c4,0,7.4,0.9,9.5,4
		c1.9,2.8,1.2,6-0.4,8.7C74.4,373.6,68.8,377.5,60,377.8z M62.4,374.4c4.6-0.9,8.6-3.9,11.4-8.2c1.1-1.6,2.2-3.6,0.4-5.5
		c-1.7-1.9-4.1-1.9-6.4-1.4c-4.2,0.9-7.7,2.9-10.6,5.7c-2.2,2.1-1.3,4.6-0.5,6.9C57.4,373.8,59.2,374.5,62.4,374.4z"/>
	<path class="st0" d="M161.1,387.9c-1,1-1.4,1.6-1.9,1.8c-0.7,0.2-1.6,0.3-2.4,0.2c-6.7-0.3-11.4-5.6-13.8-11.6
		c-2-5,0.9-12.2,5.5-15c5-3.1,11.7-3.2,16.4-0.3c5.1,3.1,4.9,6.7-0.5,9.2c-1.3,0.6-2.8,0.9-4.2,1.4c-3,0.9-6,1.7-8.9,2.9
		c-2.8,1.1-3.2,2.7-1.5,5.1c1.8,2.5,4.1,4.4,7.2,5.3C158.1,387.2,159.1,387.4,161.1,387.9z M161.1,366.9c-6.1-2.7-10.5-1.2-12.9,4.2
		C152.9,370.7,156.7,369.4,161.1,366.9z"/>
	<path class="st0" d="M95.9,379.9c-8.2-0.1-12.4-4.8-10.7-12c0.6-2.5,1.8-4.9,3-7.2c0.4-0.7,1.8-1,2.7-1.5c0.5,1,1.3,2,1.5,3.1
		c0.1,0.6-0.6,1.4-0.9,2.1c-0.5,1.1-1.2,2.2-1.5,3.4c-0.9,3.5,0.9,7.1,3.5,7.6c3.8,0.7,8.4-1.7,9.3-5.1c0.5-1.9,0.7-3.9,1.3-5.8
		c0.3-1.2,0.9-2.3,1.6-3.3c0.4-0.5,1.5-0.9,2.1-0.8c0.6,0.1,1.5,0.9,1.5,1.5c0.4,4.9,0.2,9.9-2.6,14.2
		C104.4,379.5,100,380.1,95.9,379.9z"/>
	<path class="st0" d="M178.8,367c0-0.7,0-0.9,0-1c0.9-8.4,1-9.3,9.9-11.1c2-0.4,3.9-0.7,5.9-0.9c1.5-0.2,3.2-0.3,3.6,1.5
		c0.4,1.8-0.3,3.4-2.3,4c-0.9,0.3-2,0.3-2.9,0.5c-6.9,1.3-9.1,4.5-7.4,10.9c0.3,1.3,0.8,2.6,1.1,4c0.3,1.5,0.8,3.2-1.5,3.7
		c-1.9,0.4-3.7-0.2-4.6-1.9c-0.4-0.8-0.7-1.7-0.8-2.6C179.3,371.6,179,369,178.8,367z"/>
</g>
<g>
	<path class="st0" d="M340,374.3c-0.4-1.9-1-3.4-0.9-4.9c0.2-3.7,0.7-7.5,1-11.2c0.2-2.6,1.5-4.4,4.4-4.9c2.1-0.4,4.2-0.7,6.2-0.9
		c2.9-0.2,5.8-0.2,8.7-0.4c2.7-0.2,5,0.4,6.7,2.4c1.5,1.8,1.5,3.2-0.4,4.7c-1,0.8-2.1,1.4-3.3,1.9c-1.9,0.8-2.5,1.9-2.1,3.7
		c0.5,2.4,1,4.8,2.9,6.6c0.4,0.4,1,1,1,1.5c0,0.7-0.2,1.7-0.8,2.2c-0.3,0.3-1.7,0.3-2.1-0.1c-1.2-1-2.1-2.1-3.1-3.3
		c-1.6-1.9-3.2-3.8-4.6-5.9c-1-1.5-2.3-1.9-4-1.4c-0.6,0.2-1.3,0.4-1.9,0.4c-2.4,0.2-3.4,1.5-3.5,3.6
		C343.8,370.8,343.5,373,340,374.3z M345.1,361c4.5,0.3,11.6-1.9,13.8-4.6c-1.6-0.2-3-0.5-4.4-0.5c-2,0-4,0.2-5.9,0.3
		C344.5,356.4,344.1,357,345.1,361z"/>
	<path class="st0" d="M328.6,372.7c-1.1,1.1-1.3,1.5-1.6,1.5c-3.9,0.9-7.8,1.2-11.8,0.5c-2.2-0.4-3.5-1.6-4.1-3.5
		c-2.5-8.6,1.9-18.8,13.2-20.9c6.3-1.1,10.4,2.3,9.6,8.1c-0.1,0.7-0.3,1.4-0.5,2.1c-0.8,3.1-1.6,3.9-5,4.1c-2.9,0.2-5.8,0-8.7-0.2
		c-2.9-0.2-3.5,0.1-4.7,2.3c-1.6,3.3-0.4,5.2,3.5,5.3c1.7,0.1,3.4-0.2,5.1-0.1C325.1,372.1,326.5,372.4,328.6,372.7z M316.4,360.4
		c3.3,1,6.4,1.1,9.5,0.7c2.4-0.3,3.7-2.3,3.4-4.6c-0.2-1.6-2.2-2.9-4.4-2.8C321.3,353.8,317.8,356.3,316.4,360.4z"/>
	<path class="st0" d="M265.6,321.1c-0.5-1.2-1.1-2.1-1.2-3c-0.3-2.1-1.6-3.5-3-4.9c-1.6-1.6-3.5-2.2-5.7-1.4
		c-2.2,0.8-3.8,2.2-3.9,4.6c-0.1,1.3,0,2.7-0.2,4c-0.1,1.1-0.3,2.2-0.7,3.1c-0.2,0.5-1.2,0.9-1.9,1c-0.4,0-1.2-0.7-1.3-1.1
		c-0.9-4-2.2-8.1,0.6-11.9c0.6-0.8,1.6-1.4,2.5-2c0.3-0.2,0.8-0.1,1.1-0.3c3.2-2.5,6.5-2.8,10.2-0.8c1.5,0.8,2.8-0.1,3.9-1
		c1.5-1.2,2.9-2.4,4.6-3.5c2.8-1.8,4.7-1.6,7.1,0.4c3.3,2.8,4.6,6.4,4.8,10.4c0.1,1.3-0.3,2.4-2.1,2.8c-1.5-1.2-1.5-2.9-2.1-4.5
		c-0.6-1.7-1.2-3.5-2.2-4.9c-1.1-1.6-2.3-1.6-4-0.5c-3.1,2.1-5.4,4.6-4,8.6C268.7,318,268.6,319.9,265.6,321.1z"/>
	<path class="st0" d="M447,343.4c-0.3,2.6-1.8,2.7-3.3,2.9c-7.3,1-5.9,1-5.5,6.6c0.3,5,1.1,10.1,1.6,15.1c0.1,0.7,0.2,1.4,0.3,2.2
		c0.1,1.2,0.6,2.6-1.1,3.1c-1.6,0.4-1.8-1-2.3-2c-2.5-4.2-2.7-8.8-3.1-13.3c-0.2-2.2,0-4.3-0.2-6.5c-0.2-3.5-0.8-3.8-4.3-3.1
		c-0.4,0.1-0.7,0.3-1.1,0.3c-2.2,0.4-3.4-0.2-3.8-1.6c-0.3-1.5,0.8-3.2,2.6-3.5c1.1-0.2,2.4-0.2,3.5-0.3c1.7,0,2.7-0.8,2.9-2.4
		c0.2-1.8,0.3-3.6,0.7-5.4c0.2-0.8,1-1.9,1.7-2c1.4-0.3,2,0.9,2.2,2.1c0.2,1.2,0.2,2.4,0.1,3.6c0,3.5,0.2,3.7,3.9,3.8
		C443.6,343,445.2,343.2,447,343.4z"/>
	<path class="st0" d="M293.4,373.8c-0.5-1.4-1.1-2.6-1.3-3.8c-0.4-4-0.7-7.9-0.9-11.9c-0.1-1.1,0-2.2,0-3.3c-0.2-3-0.7-3.4-4.1-3.6
		c-1.2-0.1-2.4,0-3.6-0.1c-1.2,0-2.6,0-2.8-1.4c-0.2-1.7,1.4-1.9,2.6-2.1c1.2-0.2,2.4-0.2,3.5-0.2c3.8,0,3.8,0,5.1-3.1
		c0.3-0.7,0.4-1.5,1-1.9c0.6-0.5,1.6-0.9,2.4-0.8c0.5,0.1,0.9,1,1.2,1.6c0.2,0.4,0.1,1,0.1,1.4c0,2,1.2,2.7,3.3,2.8
		c2.5,0.1,5,0.2,7.5,0.4c1.3,0.1,2.8,0.5,2.6,2.1c-0.2,1.5-1.6,1.8-3,1.7c-2.2-0.1-4.5-0.3-6.7-0.3c-3.7,0-4.1,0.4-4.4,3.7
		c-0.4,4.8-0.7,9.6,0.3,14.4C296.6,371.2,296.6,372.9,293.4,373.8z"/>
	<path class="st0" d="M422,373.5c-1.3,0.5-1.8,0.9-2.2,0.9c-4.6-0.1-9.3-0.1-13.9-0.6c-3.9-0.4-5.6-2.6-5-6.1
		c0.6-3.5,1.1-7.2,3.6-10.2c2.5-3.1,5.6-4.6,9.9-4.2c4.4,0.5,6.6,2.7,6.5,6.8c-0.1,2.5-1.3,3.7-4.1,4c-2.5,0.3-5,0.7-7.4,1.1
		c-0.8,0.1-1.5,0.4-2.3,0.6c-1.7,0.5-2.4,1.7-2.1,3.1c0.2,0.8,1.4,1.8,2.4,2c1.8,0.4,3.7,0.4,5.5,0.5
		C415.8,371.5,418.7,371.7,422,373.5z M416.6,359.6c-1.2-2.6-2.1-3.1-4.3-2.9c-2.8,0.3-4.4,1.8-4.9,4.8
		C410.7,361.5,413.8,361.5,416.6,359.6z"/>
	<path class="st0" d="M263.6,355.6c1.2,1.4,1.8,2.2,2.3,2.9c3.6-0.6,7.1-1.3,10.6-1.8c4.2-0.6,4.9,0,5.3,3.7c0.3,3,0.9,6,1.2,9
		c0.2,1.8,0,3.4-2.8,3.9c-0.3-0.9-0.6-1.7-1-2.6c-0.9-2.5-1.8-5-2.8-7.5c-0.8-1.9-2.3-2.5-4.4-2c-3.3,0.7-7.1,2.4-7.1,7
		c0,1.4-0.3,2.9-0.6,4.3c-0.2,0.9-0.5,1.9-1.1,2.7c-0.4,0.5-1.4,1-1.9,0.8c-0.6-0.1-1.3-0.9-1.3-1.5c-0.3-2-0.5-4.1-0.3-6.1
		c0.3-3,0.8-6,1.5-8.9C261.4,358.2,262.5,357.2,263.6,355.6z"/>
	<path class="st0" d="M381.7,373.3c-3.9-4.3-4.6-9.5-5.8-14.5c-0.4-1.7,0.9-2.9,2.4-2.4c2.6,0.9,4.6-0.2,6.8-1.1
		c3.8-1.5,8.1-0.1,9.5,3.3c1.4,3.2,2.3,6.7,3.4,10c0.2,0.6,0.1,1.2,0.2,1.8c0.1,1.2-0.3,2.3-1.6,2.6c-1.6,0.4-2.1-0.9-2.4-1.9
		c-0.8-2.4-1.4-4.9-2.1-7.4c-1.1-4.1-4.7-5.1-8.1-2c-0.7,0.7-0.9,2.2-0.8,3.3c0,1.7,0.6,3.3,0.7,5
		C384.1,371.4,384,372.7,381.7,373.3z"/>
	<path class="st0" d="M304.5,311.8c-3.2-0.9-6.5-1.8-9.7-2.6c-1-0.3-2.1-0.4-3-0.9c-2.1-0.9-2.8-3.1-1.2-4.4c4.3-3.4,9-6.2,15.3-5.2
		c0.5,2.5-1.1,3.3-3,4.1c-1.5,0.6-3,1.3-4.6,1.9c0.9,1.9,2.5,1.8,3.8,2.1c2.1,0.6,4.3,1.1,6.4,1.9c2,0.8,2.3,2.1,1.4,3.9
		c-0.3,0.7-0.7,1.5-1.3,1.8c-3.9,2-7.8,3.9-11.8,5.7c-0.4,0.2-1.7-0.4-1.8-0.8c-0.2-0.5,0.2-1.5,0.7-1.8c1.6-1,3.4-1.9,5.1-2.8
		c1.2-0.6,2.5-1.3,3.7-1.9C304.6,312.5,304.5,312.2,304.5,311.8z"/>
	<path class="st0" d="M252.8,343.5c0.1,1.3,0.3,2.4,0.2,3.5c-0.5,8-1.1,16.1-1.7,24.1c0,0.4,0.1,0.8-0.1,1.1
		c-0.6,0.7-1.4,1.2-2.1,1.8c-0.5-0.6-1.3-1.2-1.5-1.8c-0.4-2-0.9-4.1-0.8-6.1c0.3-5.9,0.7-11.8,1.3-17.6
		C248.3,346.1,249.4,344.2,252.8,343.5z"/>
</g>
<g>
	<path class="st0" d="M625.9,371.3c-0.1,4-2.3,5.2-4.8,3.3c-1.9-1.4-3.1-3.6-4.4-5.6c-0.5-0.7-0.2-1.8-0.5-2.6
		c-1.4-5.8-2.6-6.8-9.1-7.5c-2.4-0.3-4.9-0.3-7.3-0.4c-3.1-0.1-5.4,0.9-6.2,4c-0.3,1-0.9,1.9-1.6,2.7c-1.1,1.3-2.6,2-4.3,1.1
		c-1.9-1-1.5-2.6-0.6-3.9c2.4-3.5,4.8-7.1,7.6-10.4c2.8-3.3,6-6.2,9.1-9.3c2.4-2.4,3.6-2.5,6.1-0.3c1,0.9,2.1,2,2.7,3.1
		c3.8,7,7.6,14.1,11.3,21.2C624.9,368.5,625.5,370.4,625.9,371.3z M606.4,347.5c-2.9,1.7-5.2,3.1-5.4,6.8c2.8,0.2,5.5,0.4,8.2,0.6
		C609.7,351.6,608.3,349.7,606.4,347.5z"/>
	<path class="st0" d="M501,356.7c0-6.2,0-12.5,0-18.7c0-1.8-0.1-3.6-0.1-5.3c0-1.6,0-3.3,0.4-4.9c0.2-0.8,1.4-1.9,2.1-1.9
		c0.8,0,2,1,2.4,1.8c0.5,1,0.4,2.3,0.5,3.5c0.4,7.4,0.8,14.8,1.1,22.3c0.2,5.6,1.3,10.9,4.1,15.9c1.3,2.3-0.7,9.1-3.1,10.4
		c-0.8,0.4-2.6,0.1-3.4-0.5c-2.9-2.1-3.7-5.2-3.7-8.4c-0.1-4.7,0-9.5,0-14.2C501.2,356.7,501.1,356.7,501,356.7z"/>
	<path class="st0" d="M668.9,364.4c-2.7-0.9-5.3-1.4-7.4-2.6c-3.6-1.9-6.6-4.6-6.4-8.8c0.2-4.4,3-7.5,7-9.7c3.4-1.9,7.9,0.6,8.8,4.9
		c-0.8,0.1-1.5,0.5-2.2,0.4c-2.4-0.4-4,0.8-5.6,2.1c-1.6,1.3-2.6,2.7-1.9,4.7c0.7,2.1,2.5,3.1,4.8,3.3c3.1,0.3,6.2,0.5,9.2,0.9
		c2.4,0.3,5.3,0.4,5.9,3.1c0.6,2.6-1.4,4.4-3.7,5.8c-6.4,3.8-12.8,7.7-19.2,11.5c-0.8,0.5-1.7,1-2.6,1.2c-0.7,0.1-1.7-0.2-2.1-0.6
		c-0.3-0.5-0.3-1.6,0.1-2c0.9-1,2.1-1.8,3.3-2.6c3.1-2.1,6.3-4.2,9.4-6.4C667.8,368.3,669.4,367,668.9,364.4z"/>
	<path class="st0" d="M645.9,327.7c-0.7,7.2-1.2,14.1-2.2,21.1c-1,7-1.4,13.9,0.4,20.9c0.5,1.8,0.4,3.4-1.8,3.9
		c-2.3,0.5-3.3-0.9-3.7-2.7c-0.7-3-1.6-6.1-1.9-9.2c-0.7-8-1.1-16-1.6-24.1c-0.1-1.5,0.4-2.9,0.5-4.4c0.1-1.8,1-3.2,2.9-3.8
		C640.7,328.7,642.5,326.7,645.9,327.7z"/>
	<path class="st0" d="M543.8,361.8c0.1,5.2-3.3,9.1-9.9,11.4c-4.7,1.6-9.6,0.4-13.1-3.5c-3.3-3.6-3.4-8.2,0-11.7
		c1.8-1.9,3.9-3.5,6-5.2c6.1-4.8,17.6-0.1,16.9,7.7C543.6,360.9,543.7,361.3,543.8,361.8z M537.9,360.9c0.2-4-2.5-6.3-6.7-5.2
		c-1.9,0.5-3.7,1.7-5.3,3c-3.2,2.6-3.3,5.6-0.6,8.6c2.2,2.4,6.1,2.5,9.2,0.3C536.8,365.8,537.8,363.6,537.9,360.9z"/>
	<path class="st0" d="M584.2,373.6c-0.2,2.1-1.9,2.6-3.7,2.8c-4.5,0.6-9,1.2-13.5,1.7c-6.4,0.7-8.9-0.5-11.8-5.8
		c-0.2-0.4-0.4-0.8-0.6-1.2c-0.8-1.9-3.6-3.2-2.5-5.5c1.4-2.9,2.4-6.2,5.6-8.2c1.8-1.1,3.3-2.5,5.2-3.3c1.9-0.7,4-1,6.1-1.1
		c0.7,0,1.9,1.3,2,2c0.1,0.6-1.2,1.6-2.1,1.9c-6.9,1.9-10,6.4-8.8,12.7c0.7,3.4,2.6,4.8,6.5,4.4c4.2-0.4,8.4-1,12.6-1.5
		C581.1,372.5,582.9,371.7,584.2,373.6z"/>
</g>
<g>
	<path class="st0" d="M793.2,328.1c-1.5,2.4-3.3,1.3-4.7,1c-4.9-1.2-9.3,0-13.4,2.2c-4.4,2.4-6.4,6.1-6.1,10.8
		c0.2,2.8,0.8,3.6,3.8,4.1c3.9,0.7,7.9,1.1,11.8,1.5c2.2,0.2,4,1,5.3,2.5c1.6,1.8,1.8,3.5-0.1,5.1c-1.6,1.4-3.7,2.6-5.8,3.2
		c-5.7,1.7-11.6,3.1-17.4,4.5c-0.7,0.2-1.9,0.1-2.1-0.3c-0.3-0.5-0.2-1.7,0.2-2c1.2-1,2.6-1.9,4.1-2.4c3.2-1,6.6-1.7,9.9-2.6
		c0.9-0.2,2-0.3,2.7-0.8c0.8-0.6,1.8-1.5,1.7-2.3c0-0.6-1.3-1.6-2.1-1.8c-4.1-1-8.4-1.6-12.5-2.6c-1.9-0.5-3.9-1.4-5.3-2.6
		c-3.2-2.8-3-5.2-0.8-8.7c4.2-6.5,10.1-10.4,18.3-11.5C785.3,324.9,789.1,326,793.2,328.1z"/>
	<path class="st0" d="M825,360.8c-1,0.4-2.1,1.1-3.1,1c-2.4-0.2-4.9-0.7-7.2-1.3c-1.8-0.5-3.6-1.2-5.2-2.1c-2.9-1.7-5-4.1-5.5-7.2
		c-0.8-4.5-0.6-9,3.2-12.7c3.4-3.4,7.2-6.2,12.3-7.1c2-0.4,3.9-0.2,5.4,1.1c2.1,1.8,4.3,3.6,6,5.6c2.7,3.1,1.6,5.7-2.6,6.6
		c-4.6,0.9-9.1,1.8-13.7,2.7c-1,0.2-2.1,0.6-3,1.1c-1.9,1.1-1.9,1.9-0.8,3.8c2.4,3.7,6.2,5.5,10.6,6.6c1.1,0.3,2.3,0.5,3.5,0.8
		C824.9,360.1,824.9,360.5,825,360.8z M809.9,344.2c5.6-0.3,10.4-1.7,15-4c-2.3-3.2-4.6-4.2-7.7-3.5
		C812.8,337.6,810.4,340,809.9,344.2z"/>
	<path class="st0" d="M914.7,360.1c-3-2.9-6-5.7-9-8.7c-1.1-1-2-2.2-3.8-1.4c-1.8,0.8-2.7,2.1-2.4,4c0.3,2,0.7,4,1,5.9
		c0.1,0.8,0.1,1.8-0.3,2.5c-0.7,1.4-2.4,1.5-3.2,0.3c-0.9-1.2-1.7-2.7-1.9-4.1c-0.9-6.5-1.7-12.9-2.4-19.4c-0.1-0.8,0.5-2,1.2-2.6
		c4.1-3.1,15.5-3.3,20.1-0.5c3.5,2.2,3.6,4.6,0.1,6.8c-0.9,0.6-1.9,1-2.8,1.5c-3.1,1.8-3.2,3.7-0.5,6c2,1.7,4,3.5,5.7,5.4
		C918.1,357.9,917.6,358.7,914.7,360.1z M911,340.2c-2.8-2.2-5.1-2.8-7.7-2.6c-3.9,0.3-5.8,2.4-5.5,6c0.2,2.2,1.1,2.9,3.1,2
		C904.1,344.1,907.2,342.3,911,340.2z"/>
	<path class="st0" d="M966.9,335.8c-1.3,2.2-3,2.9-5,3c-1,0.1-1.9,0-2.9,0.1c-3.1,0.3-4.3,1.4-3.9,4.2c0.4,2.7,1.3,5.4,2.2,8
		c0.8,2.4,1.9,4.7,2.8,7.1c0.2,0.5,0.4,1.1,0.3,1.5c-0.5,1.1-0.8,2.6-1.8,3.1c-1.4,0.8-3,0-3.9-1.3c-0.7-0.9-1.2-2-1.4-3.1
		c-1.1-4.9-2.1-9.9-3.1-14.8c-0.5-2.5-1-2.9-3.9-2.7c-0.1,0-0.3,0-0.4,0.1c-1.6,0.2-3.6,1-4.1-1.1c-0.5-2.1,1.7-2.2,3.1-2.8
		c4.3-1.8,4.5-2,4-6.3c-0.3-2.1-0.6-4.2-0.8-6.4c-0.1-1-0.1-2,0.1-3c0.3-1.3,0.4-3.1,2.4-3c1.9,0,1.7,1.8,1.8,2.9c0.4,3,0.6,6,0.8,9
		c0.3,3.2,0.8,3.8,4.3,3.2C961.2,332.9,964,333.8,966.9,335.8z"/>
	<path class="st0" d="M885.9,350c0.2,2.4,0.5,4.7,0.7,7.1c0.2,2.4-0.8,3-3.4,2.5c-1.1-0.2-2.4-0.3-3.6-0.1
		c-5.6,0.8-9.7-1.6-13.8-4.6c-2.9-2.2-3-10.4-1.7-12.6c0.4-0.6,1.5-1.2,2.3-1.2c0.5,0,1.4,0.9,1.5,1.5c0.3,1.3,0.4,2.7,0.3,4.1
		c-0.2,2.8,0.8,5.2,2.6,7.3c1.3,1.4,2.9,2.3,5,2.2c2.8-0.1,4.3-1.3,4.4-3.9c0.1-1.8-0.1-3.5-0.1-5.3c0-1,0.1-2,0.1-3
		c0.1-1.3,0.5-2.6,2.2-2.7c1.8-0.1,2.8,0.9,3.2,2.4c0.3,1,0.2,2,0.2,3C886.1,347.7,886,348.8,885.9,350C886,350,886,350,885.9,350z"
		/>
	<path class="st0" d="M972.7,375.9c-1.8-2.9-0.8-5.1,0-7.3c0.7-2,1.6-4,2.5-5.9c1.2-2.3,0.5-4.1-1.4-5.8c-1.7-1.6-3.4-3.3-5.1-4.9
		c-0.6-0.5-1.3-1.1-1.6-1.7c-0.3-0.6-0.4-1.7,0-2c0.6-0.5,1.8-0.8,2.5-0.5c1.1,0.4,2,1.3,2.8,2.1c1.7,1.7,3.3,3.5,5.4,5.8
		c1.2-1.6,2.1-2.7,2.8-3.8c0.9-1.5,1.6-3.2,2.6-4.7c0.7-1.1,1.5-2.1,2.5-3c1-0.9,2.3-1.6,3.7-0.6c1.3,1,0.4,2.1-0.4,3
		c-5,6-6.9,13.3-10,20.1c-1.1,2.3-2.1,4.7-3.4,6.8C975.1,374.4,973.8,375,972.7,375.9z"/>
	<path class="st0" d="M855.8,338.8c-2.2,1.2-4,2.1-6.3,2.2c-5.6,0.3-7.6,2.5-7.2,7.5c0.1,1.8,1,2.8,3,2.9c2.1,0.1,4.1,0,6.2,0.1
		c2.9,0.1,3.2,0.2,5.8,2.3c-0.1,1.4-1.1,1.6-2.3,1.5c-4.2-0.2-8.5-0.5-12.7-0.6c-3.5-0.1-5.5-2.1-7-4.5c-1.1-1.8-0.5-3.7,0.8-5.3
		c3.6-4.7,8.9-6.9,14.9-7.9C852.7,336.6,854.3,337.3,855.8,338.8z"/>
	<path class="st0" d="M927.5,344c3.3,0.5,3.5,2.5,3.9,4.1c0.9,3,1.7,6.1,2.5,9.1c0.3,1.1-1,5.4-2.1,5.7c-0.7,0.2-2,0-2.5-0.4
		c-0.8-0.8-1.3-2-1.5-3c-0.6-4-1.1-8-1.4-12C926.4,346.4,927.1,345.2,927.5,344z"/>
	<path class="st0" d="M926.5,334.8c-2.3-0.2-3.5-1.3-3.3-3c0.3-2,3-3.8,5.6-3.5c1.9,0.2,2.7,1.1,2.5,2.8
		C930.9,333.3,928.9,335,926.5,334.8z"/>
</g>
</svg>
