<?xml version="1.0" encoding="utf-8"?>
<!-- Generator: Adobe Illustrator 16.0.0, SVG Export Plug-In . SVG Version: 6.00 Build 0)  -->
<!DOCTYPE svg PUBLIC "-//W3C//DTD SVG 1.1//EN" "http://www.w3.org/Graphics/SVG/1.1/DTD/svg11.dtd">
<svg version="1.1" id="Layer_1" xmlns="http://www.w3.org/2000/svg" xmlns:xlink="http://www.w3.org/1999/xlink" x="0px" y="0px"
	 width="1000px" height="830px" viewBox="0 0 1000 830" style="enable-background:new 0 0 1000 830;" xml:space="preserve">
<style type="text/css">
<![CDATA[
	.st0{fill-rule:evenodd;clip-rule:evenodd;fill:#DDDDDD;}
	.st1{fill-rule:evenodd;clip-rule:evenodd;fill:#AA8888;}
	.st2{fill-rule:evenodd;clip-rule:evenodd;fill:#888888;}
	.st3{fill-rule:evenodd;clip-rule:evenodd;fill:#BBBBBB;}
	.st4{fill-rule:evenodd;clip-rule:evenodd;}
	.st5{fill-rule:evenodd;clip-rule:evenodd;fill:#5B85EF;}
	.st6{fill-rule:evenodd;clip-rule:evenodd;fill:#FFFFFF;}
	.st7{fill-rule:evenodd;clip-rule:evenodd;fill:#666666;}
]]>
</style>
<path class="st4" d="M707.2,762.9c-2.2-3.1-1.9-5.3,0.6-8.6c2.7-3.6,5.6-7.1,8-10.9c4.6-7.3,9-14.6,13.3-22.1
	c4.2-7.3,8.1-14.8,12.4-22c2.5-4.2,5.7-8.1,8.2-12.4c3.6-6.1,6.8-12.5,10.3-18.7c2-3.7,4.3-7.2,6.3-10.9c2.8-5.1,5.6-10.2,8.1-15.5
	c1.9-4.1,3.3-8.4,4.9-12.6c0.9-2.5,1.6-2.9,4.3-2.1c5,1.4,10.1,2.7,15.2,3.9c5,1.2,9.5,0.6,12.9-3.9c4-5.3,8.3-10.5,12.4-15.8
	c4.3-5.7,8.4-11.5,12.7-17.1c4.8-6.4,9.8-12.6,14.8-18.9c2.4-2.9,5-5.7,7.5-8.5c7.7-8.7,15.6-17.3,23.1-26.2
	c5.3-6.2,10.9-12.2,14.6-19.5c2.4-4.7,2.4-9.8,2.4-14.9c0-1.9-1.2-2.9-3-3.1c-2.8-0.3-5.5-0.6-8.3-0.7c-14.1-0.1-28.3-0.3-42.4,0
	c-10.3,0.3-20.6,1.8-30.9,1.9c-10.5,0.1-20.5,2.6-30.7,3.8c-5.1,0.6-9.3,3.3-13.6,5.7c-3.4,1.9-4.4,5.3-3.3,9.1
	c1.3,4.2,2.8,8.1,5.9,11.5c2.5,2.8,4,6.4,6.2,9.4c5.2,7,10.7,13.8,15.9,20.8c1.9,2.6,3.4,5.4,4.6,8.4c2.6,6.6-0.1,12.6-6.5,15.6
	c-5.4,2.5-10.4,5.8-15.7,8.6c-7,3.8-14.7,6.2-22.2,9.2c-2.2,0.8-4.5,1.3-6.7,2c-6.6,2-13.1,3.9-19.6,5.9c-3.7,1.2-7.4,2.7-11.2,3.7
	c-6.5,1.8-13,3.2-19.5,4.8c-1.1,0.3-2.2,0.6-3.3,1c-1.7,0.6-2.6,1.7-2.3,3.7c0.7,4.4-1.6,7.6-4.9,10.1c-1.9,1.5-4.2,2.8-6.5,3.5
	c-5.3,1.6-10.2,4.4-15.9,4.6c-2.1,0.1-3.5,1.4-4.6,3c-3.5,4.9-8.6,6.9-14.2,7.4c-6.2,0.6-12.2-0.2-18.1-2.4
	c-3.7-1.4-7.2-0.8-10.7,0.4c-1.5,0.5-3,1.1-4.5,1.7c-6.5,2.5-12.3,1-17.7-3c-2-1.4-4-3-6.3-3.8c-8.6-2.9-17.2-2.3-25.7,0.6
	c-1.3,0.4-2.8,2-3.1,3.3c-2.5,10.5-10.4,14.5-19.8,16.8c-2.8,0.7-5.7,1.2-8.6,1.5c-2.1,0.2-3.6,1-4.6,2.8c-2.1,4-5.8,6.1-9.9,7.4
	c-4.9,1.5-9.8,2.8-15,2.1c-3.9-0.6-7.8,0-11.4,2.1c-5.3,2.9-10.9,3.7-16.9,2.5c-3.5-0.7-6.4-2.1-8.2-5.2c-1.5-2.6-3.7-3.3-6.6-3.3
	c-7.1-0.1-14.3-0.7-21.4-0.5c-5.8,0.2-11.5,1.5-17.3,1.9c-9.3,0.7-18.6,1.1-27.9,1.5c-5.8,0.3-11.7,0.5-17.5,0.4
	c-3.6-0.1-7.3-0.6-10.7-1.7c-1.8-0.6-3.2-2.9-4.3-4.7c-3.5-5.7-4.8-12.1-5.4-18.7c-0.5-5.8-1.1-6.8-6.7-8.2
	c-6.4-1.6-12.8-1.5-19.5-0.4c-8,1.3-16,3.2-24.2,2.5c-2.3-0.2-4.9,0.8-7,1.9c-6.6,3.4-13.6,4.4-20.8,2.7c-2.5-0.6-4.8-1.9-7.1-3.1
	c-1.7-0.9-3.2-2-4.8-3c-3.1-1.9-6.4-2.8-10-1.8c-1.1,0.3-2.3,0.5-3.4,0.6c-1,0.1-2.2,0.6-3,0.2c-5.7-2.4-12-3.9-14.7-10.4
	c-0.5-1.3-0.8-2.8-1.4-4.1c-0.5-1.2-0.9-2.6-1.8-3.4c-3-2.9-6.1-5.8-9.5-8.4c-1.3-1-3.2-1.2-4.9-1.4c-2.3-0.2-4.7,0.3-7-0.1
	c-4-0.6-8.1-1.2-11.9-2.4c-7.2-2.3-14.2-5.1-20.8-8.9c-8.1-4.6-13.6-10.8-14.6-20.4c-0.2-2.3-1.6-3.4-3.8-3.4c-3.5,0-7-0.2-10.5,0.3
	c-5.8,0.7-11.5,1.8-17.2,2.9c-4.1,0.8-8.3,1.5-12.4,2.7c-7.8,2.3-15.6,4.8-23.3,7.4c-3.3,1.1-6.4,2.8-9.7,4c-5.2,1.8-9.5,5-13.4,8.8
	c-1.9,1.8-3.6,3.8-5.7,5.5c-5.7,4.6-7.8,11.1-9.4,17.8c-0.9,3.9-0.1,5.8,3.7,7.3c4.6,1.8,9.3,3.3,14.1,4.6c11.1,3,22.2,5.8,33,9.9
	c5.7,2.1,11.8,3.3,17.6,5.3c6.6,2.3,13.1,4.8,19.5,7.5c7.6,3.2,14.9,7.4,22.7,10.1c7.2,2.5,13.8,6.1,20.6,9.5c1.9,1,3.9,2.1,5.5,3.5
	c1.4,1.2,2.6,2.8,3.3,4.5c1.2,2.8,0.7,4.3-2.1,5.8c-4.3,2.2-8.6,4.4-13.1,6c-12.2,4.3-24.5,8.5-36.8,12.5
	c-7.9,2.5-14.8,6.8-21.3,11.8c-4,3.1-8.3,6-11.8,9.6c-4.3,4.3-8.1,9.2-12,13.8c-1.2,1.4-2.3,3-3.3,4.6c-1.4,2.5-1.1,3.8,1.7,4.6
	c3.8,1.1,7.6,2.2,11.5,2.6c9.4,1.1,18.8,1.9,28.3,2.8c1.5,0.1,3.1,0.3,3.5,2c0.4,2-0.9,3.5-2.6,4.1c-3.1,1.2-6.4,2.1-9.6,3
	c-13.6,3.8-27.1,8.1-40,13.9c-11.3,5.1-22,11.3-30.7,20.4c-3.2,3.4-6.4,6.8-9.6,10.2c-1.8,1.9-3.5,3.9-6.3,4.4
	c-1.9-2.3-1.6-4.8-0.3-7c3.7-6.4,6-13.2,8.3-20.2c1.3-3.9,3.4-7.4,4.8-11.2c3.2-8.9,6.2-17.9,9-26.9c2.4-7.6,4.5-15.4,6.8-23
	c1.1-3.6,2.6-7.1,3.8-10.7c0.8-2.6,1.3-5.4,2.2-8c0.4-1.1,1.5-1.9,2.3-2.8c0.8,0.7,2.1,1.3,2.4,2.2c1.2,3.5,2.5,7.1,3.2,10.8
	c0.9,4.9,1.1,9.8,1.8,14.7c0.3,2.2,1.1,4.4,1.8,7.1c1.5-0.8,2.4-1.2,3.1-1.8c4.8-4.5,9.3-9.3,14.4-13.4c6.2-5.1,12.7-9.8,19.2-14.4
	c9.5-6.7,19.3-13,28.9-19.5c3-2.1,5.7-4.6,7.4-7.9c1.4-2.9,1.3-4.4-1.4-5.9c-5.5-3.2-11.2-6.1-17-8.9c-5-2.4-10-4.7-15.1-6.8
	c-10.8-4.4-21.5-9-32.6-12.7c-11.4-3.8-23.1-6.9-35.1-8.8c-16.1-2.5-32.2-5.5-48.2-8.5C9,645.5,6,644,3.3,642.3
	c-4.2-2.7-4.4-6.5-0.4-9.6c8.1-6.2,16.2-12.3,24.8-17.9c6.2-4,13.1-7,19.6-10.5c6.3-3.3,12.6-6.7,18.9-10
	c7.2-3.8,14.4-7.6,21.6-11.4c8.3-4.3,16.7-8.3,24.9-12.8c5.9-3.2,11-7.8,15.2-13c1.9-2.3,3.1-5.2,4.1-8.1c1.6-4.2,0.3-7.8-2.3-11.4
	c-5.8-8-12.9-15-17.8-23.8c-2.4-4.3-5.6-8.2-8.1-12.4c-4-6.6-4.3-13.8-2.2-21c2.4-8.4,7.2-15.6,11.8-22.9
	c7.8-12.4,14.9-25.4,24.1-36.9c2.2-2.7,3.9-5.8,5.9-8.6c2.9-4.2,6-8.2,8.7-12.5c4.4-6.8,8.6-13.8,12.9-20.7c1.9-3.1,4-6.1,5.8-9.2
	c3.3-5.5,6.7-10.9,9.6-16.6c4-7.9,4.6-16.1,1.6-24.5c-1.8-5.1-1.9-10.2,0.2-15.3c3-7.2,6.1-14.1,11.9-19.7c4.3-4.1,8.2-8.6,12.3-13
	c0.5-0.5,1.1-1,1.5-1.6c5.8-9.6,13.7-17.7,18.7-27.9c1.7-3.5,4-6.8,5.8-10.3c1.6-3.1,3.2-6.2,4.4-9.5c3.2-9,6.2-18.2,9.3-27.3
	c0.2-0.6,0.3-1.2,0.7-1.6c0.7-0.7,1.5-1.7,2.3-1.7c0.7,0,1.6,1.1,1.9,1.9c1.8,4.4,3.4,9,5.3,13.4c2.9,7.1,7.9,12.9,13,18.5
	c3.4,3.7,7.3,7.1,11.3,10.2c4.5,3.5,8.5,2.3,10-3.2c3.5-12.3,6.9-24.7,10-37.1c2.2-8.6,3.8-17.3,5.7-26c0.7-3.2,1.8-4.4,3.6-4.2
	c2,0.2,2.9,1.9,3.2,5c0.8,11.3,1.8,22.6,2.6,34c0.2,2.3,0.1,4.7,0.1,7c0,7-0.2,14,0,20.9c0.2,6.1,0.8,12.2,1.3,18.3
	c0.4,4.8,1.6,6.3,5.1,6.9c6.1,1,9.1-0.3,11-4.5c0.3-0.7,0.6-1.4,0.7-2.1c1.4-7.7,3.8-15.2,4.1-23.2c0.4-10.3,1.4-20.6,2.2-30.9
	c0.9-10.3,1.8-20.6,2.8-30.9c0.1-1.1,0.3-2.4,0.9-3.3c0.5-0.7,1.6-1.3,2.4-1.3c0.6,0,1.6,0.9,1.7,1.6c0.5,2,0.8,4,1,6
	c0.3,2.9,0.5,5.8,0.8,8.7c1.5,11.4,2.7,22.8,4.6,34.1c1.5,8.4,4,16.7,6.1,25c0.1,0.4,0.3,0.8,0.5,1.2c2.2,4.5,3.6,4.9,7.6,1.6
	c4.6-3.8,9.1-7.7,12.9-12.3c3.9-4.7,8.6-8.7,12.7-13.2c2-2.2,3.7-4.9,5.5-7.3c0.3-0.5,0.6-1,0.9-1.5c1.2-1.5,2.5-3.3,4.6-2.7
	c2.2,0.6,1.7,2.9,1.6,4.5c-1,13.5,1.3,26.8,3,40c1.2,9.9,3.1,19.9,7.9,29c2.6,5,4.8,10.3,9.6,13.9c3.6,2.6,4.7,2.6,6.6-1.5
	c3.8-8.2,7.6-16.4,11-24.8c2.7-6.7,6.2-12.8,9.8-19c3.7-6.1,7.3-12.2,11.1-18.3c1.9-2.9,4-5.7,6.1-8.5c0.6-0.7,1.5-1.1,2.9-2.1
	c1.6,3.4,3.2,6.5,4.6,9.6c3,7,6.5,13.6,12.1,19c2.9,2.8,6.9,2.1,8.4-1.6c2.4-5.6,5.2-11.1,7.4-16.8c2.6-6.9,6.1-13.2,10.1-19.3
	c3.7-5.6,7.3-11.2,11-16.8c0.8-1.2,1.5-2.5,3.5-2.4c1.4,2.4,1.6,4.8,0.9,7.5c-2.9,10.6-4.6,21.5-4.2,32.4
	c0.5,12.2,0.5,24.5,3.2,36.5c0.9,3.8,2.3,5.3,6.2,5.4c3.3,0.1,6.7-0.1,10-0.3c3-0.2,5.3-1.8,6.6-4.5c1.2-2.6,2.5-5.3,3.1-8.1
	c2.7-13.9,5-27.8,3-42.1c-0.6-3.9-0.9-7.8-1.2-11.7c-0.1-1.1,0.3-2.8,1.1-3.4c1.5-1.2,2.7,0.3,3.6,1.4c1.4,1.7,2.7,3.4,3.9,5.3
	c4.4,7,8.9,14,13,21.2c1.9,3.4,2.9,7.3,4.4,10.9c2.9,6.9,4.4,7.5,9.9,2.6c4.9-4.3,9.3-9.2,13.8-13.9c3-3.2,5.8-6.5,8.6-9.9
	c1.5-1.9,2.5-4.3,4.1-6.2c0.8-1,2.4-1.8,3.6-1.8c0.8,0,1.8,1.7,2.1,2.9c1.5,6.5,2.6,13.2,4.1,19.7c3.8,16.3,7.7,32.6,11.7,48.9
	c2.1,8.8,4.4,17.5,6.9,26.2c1.7,6,3.8,11.9,6.1,17.7c5.9,15,12,30,18.1,44.9c3.8,9.3,7.9,18.5,11.8,27.7c3.6,8.4,7,17,10.7,25.4
	c4.5,10.3,8.8,20.6,13.8,30.7c2.4,4.9,6.2,8.9,11.9,10.9c7.2,2.6,14.2,3.3,21.8,2.7c9.1-0.8,18.4-0.1,27.5-0.5
	c13.8-0.6,27.6-1.5,41.5-2.3c5.8-0.3,11.6-0.7,17.5-0.9c11.6-0.4,23.3-0.6,35-1c6.8-0.2,13.7-0.5,20.5-0.9c3.5-0.2,6.9-1.1,10.3-1
	c10.5,0.3,20.9,1,31.4,1.5c4.6,0.2,9.3,0.1,13.9,0.4c9.3,0.7,18.5,1.7,27.8,2.5c5.2,0.5,10.4,0.4,15.6,1.9c6.9,2,11.5,6.2,13.9,12.7
	c1.4,3.7,1.1,4.9-2.1,7.1c-2.9,2-6,3.5-9.1,5.1c-4.5,2.4-9.1,4.6-13.5,7.1c-5.8,3.3-11.8,6.5-17.1,10.4
	c-10.4,7.8-20.3,16.1-30.5,24.1c-3.4,2.7-7.2,5-10.7,7.5c-2.7,1.9-5.5,3.8-8.1,5.9c-8.7,6.6-17.4,13.2-26,19.9
	c-3.8,3-7.5,6-10.9,9.4c-9.3,9.3-18.6,18.4-27.4,28.2c-7.1,7.9-13,16.8-18.1,26.1c-1.7,3-0.5,5.2,2.8,6.4c4.1,1.5,8.2,3.1,12.1,5
	c2.1,1.1,4,2.9,5.7,4.7c1.9,2.1,1.8,4.2-0.2,6.2c-1.2,1.2-2.7,2.2-4.2,3c-9.3,4.8-18.8,9.3-27.9,14.4c-10.2,5.7-20.2,11.6-29.9,17.9
	c-11.7,7.6-22.8,16.1-33.1,25.6c-4.7,4.4-9.8,8.2-14.4,12.6c-5.6,5.3-10.9,10.9-16.3,16.4c-1,1-2,2.1-3,3.1
	c-2.5,2.6-5.1,5.1-7.7,7.6C708.7,762,707.9,762.4,707.2,762.9z"/>
<path class="st4" d="M630.4,35.5c-0.2,10.8-0.5,21.5-0.7,32.3c-0.3,13.7,0.7,27.3,3.3,40.8c1.9,9.8,2.4,19.9,3.5,29.9
	c0.8,6.6,1.7,13.3,2.6,19.9c0.4,3-0.5,5-3.2,6.4c-6.6,3.5-13.5,6.4-20.8,7.8c-12.4,2.4-24.9,4.5-37.7,4.5c-11.8,0-23.5,1-35.3,1.3
	c-4.8,0.1-9.6-0.2-14.4-0.7c-6.9-0.7-13.9-1.4-20.8-2.5c-6.3-1-12.5-2.5-18.8-3.8c-2.6-0.5-5.1-1.1-7.7-1.4
	c-5.9-0.6-11.4-2-16.4-5.5c-1.9-1.3-3-2.7-3.1-4.9c-0.3-5.5-0.9-11-0.8-16.5c0.2-7.4,1-14.8,1.4-22.2c0.7-15.1,1.3-30.2,1.8-45.4
	c0.3-9.2,0.5-18.3,0.6-27.5c0-4.1-0.5-8.1-0.6-12.2c-0.1-3.3,0-6.7,0.1-10c0.1-4,2-6.8,5.5-8.7c6.3-3.4,13-6.1,20.1-7.2
	c8.2-1.3,16.4-2.4,24.7-3.3c10.9-1.1,21.7-2,32.6-2.9c1.7-0.2,3.5-0.3,5.2-0.7c6.7-1.8,13.5-1.8,20.4-1.6c3.1,0.1,6.2,0.2,9.2-0.2
	c12.1-1.8,23.5,1.2,34.7,4.8c3.6,1.1,7,2.9,10.2,4.8c3,1.8,4.6,4.7,4.5,8.4C630.4,24.4,630.5,29.9,630.4,35.5
	C630.5,35.5,630.5,35.5,630.4,35.5z M625.8,30.1c-1.8,0.6-2.9,0.9-3.9,1.4c-9.4,4.6-19.3,7.4-29.7,8.1c-8.7,0.6-17.4,1.2-26.1,1.8
	c-19.3,1.5-38.5,0.6-57.6-1.7c-12.5-1.5-25.2-3.4-36.8-9c-1.8-0.9-2.8,0-3.4,1.5c-0.3,0.8-0.4,1.7-0.4,2.6
	c-0.2,11.5-0.5,23-0.7,34.5c-0.1,3.8,1.3,7.2,4.2,9.7c2.3,2,4.6,4.1,7.3,5.4c5.3,2.7,10.7,5.8,16.4,7c8.5,1.8,17.3,2.3,26,3.1
	c8.8,0.9,17.7,1.7,26.6,2.1c7.5,0.3,15.2,0.5,22.7-0.2c8.7-0.8,17.3-2.2,25.7-4.9c9.4-3,18.1-7.3,26.1-13c2.3-1.7,3.4-3.8,3.3-6.7
	c-0.1-3.3,0.3-6.8-0.1-10c-0.9-6.3-0.2-12.5,0.9-18.7C626.7,39.2,626.7,35,625.8,30.1z M467.6,83.3c-0.3,2.5-0.6,4-0.7,5.5
	c-0.3,9.2-0.6,18.3-0.9,27.5c0,0.9,0,1.7,0,2.6c0,2.4,0.9,4.3,2.8,5.7c2.5,1.8,5,3.6,7.6,5.1c9,5.4,19.4,6.4,29.4,7.4
	c11.4,1.2,23,1.2,34.5,1c17.2-0.3,34.3-2.1,51.2-5.4c10.3-2,20.3-5.1,30.1-9c2.1-0.9,4.2-2.1,6.1-3.3c2.1-1.4,2.7-3.5,2.3-6.1
	c-1.4-8.6-2.7-17.3-4-25.9c-0.3-1.8-0.7-3.6-1.1-5.7c-1.3,0.4-2.2,0.5-2.9,0.9c-6.8,4.3-14.1,7.5-21.6,10.4
	c-10,3.9-20.4,6.5-30.9,7.2c-9.8,0.6-19.8-0.5-29.7-1.1c-8.6-0.5-17.1-1.2-25.7-2c-5.8-0.5-11.6-1.1-17.4-1.8
	c-1.4-0.2-2.9-0.6-4.2-1.2c-6.3-3-12.6-6-18.9-9C471.9,85.3,470.2,84.5,467.6,83.3z M555.4,174.4c9.3-0.5,17.3-0.8,25.3-1.5
	c10-0.9,20-1.9,29.9-3.3c4.7-0.6,9.5-1.6,13.9-3.3c8.2-3.2,10.3-7.3,9.2-16c-0.8-5.6-1.5-11.2-2.3-16.8c-0.4-2.8-1.3-3.3-4.2-2.8
	c-3.6,0.6-7.2,1.2-10.7,1.8c-1.7,0.3-3.4,0.6-5.2,1c-11.4,2.1-22.9,4.4-34.3,6.3c-6.7,1.1-13.6,1.9-20.4,2.2
	c-9.5,0.3-18.9,0-28.4-0.1c-7-0.1-14.1,0.5-21-0.3c-13-1.6-25.8-4.5-37.6-10.7c-3.6-1.9-5.1-1-5.2,3.1c-0.2,6.8-1.1,13.6-0.2,20.5
	c0.6,5,4.4,9.3,9.4,10c3.2,0.4,6.3,0.9,9.5,1.3c14.8,2.2,29.6,4.6,44.4,6.5C537.2,173.3,547,173.8,555.4,174.4z M528.6,9.1
	c0-0.2,0-0.4-0.1-0.6c-10.9,1-21.8,1.6-32.6,3.1c-8.5,1.2-16.8,3.7-24.3,8.3c-3.9,2.4-3.8,4.5,0,6.7c5.8,3.4,12,6,18.8,6.7
	c4.9,0.5,9.8,1.1,14.8,1.6c9.1,1,18.2,2.5,27.4,2.7c13.2,0.3,26.4,1.4,39.7,0.5c14.5-1,28.7-2.4,42.3-8.1c4.1-1.8,7.7-4.2,10.3-7.8
	c2.8-3.9,2.1-6.4-1.9-9.1c-5-3.4-10.7-4.7-16.4-5.5c-13.9-1.8-27.8-3.2-41.8-3c-2.3,0-4.6,0.5-6.8,1c-3.3,0.7-6.4,2-9.7,2.3
	C541.7,8.5,535.2,8.7,528.6,9.1z"/>
<path class="st4" d="M336.8,108.6c0.4,0.3,0.6,0.6,0.9,0.6c10.3-0.5,20.8-0.5,30-6.1c2.1-1.3,4.6-3.1,5.5-5.3
	c3.6-8.5,4.4-17.2-0.5-25.6c-1.1-1.9-2.9-3.8-4.9-4.8c-7.5-3.9-15.1-7.4-22.8-11c-1.2-0.6-2.5-0.7-3.8-1.1c-0.9-0.3-1.6-0.9-3.1-1.8
	c1.5-0.7,2.3-1.3,3.1-1.5c0.8-0.2,1.7,0,2.6,0.2c8.8,2,17.6,3.9,25.5,8.6c5.4,3.2,9.2,7.8,10.4,13.9c1,5.1,1.4,10.4,1.2,15.6
	c-0.2,7.1-4.2,12.4-10.2,15.8c-5.6,3.2-11.6,5.3-18.1,6c-5.2,0.6-10.3,1.8-15.5,2.8c-0.7,0.1-1.2,0.6-2.1,1.1
	c2.1,5.6,9.3,6.6,11.1,13c-1.3-0.1-2.4,0.1-2.8-0.3c-6.2-6.4-14.5-8.3-22.6-10.8c-1.4-0.4-2.8-1-4-1.8c-2.5-1.8-2.4-3.9,0.1-5.6
	c1.4-0.9,3.1-1.6,4.7-2.3c5.3-2.4,10.6-4.8,15.9-7.2c2.2-1,4.2-2.6,7.2-1.8C344,104.2,338.6,105,336.8,108.6z"/>
<path class="st4" d="M306.2,53.1c-2.4-2.7-4.9-3.2-7.2-4c-1.5-0.5-3.1-1-4.4-1.8c-0.6-0.3-1.2-1.5-1.1-2.1c0.1-0.7,1-1.7,1.6-1.8
	c1.4-0.2,2.9,0,4.2,0.4c7.4,2.1,14.6,5,22.4,5.5c0.8,0.1,1.7,0.3,2.5,0.8c1.7,1,2,2.7,0.5,4c-1.3,1.1-2.9,1.9-4.5,2.6
	c-6.4,2.9-12.6,6.1-17.4,11.5c-0.9,1-2,2.3-4.2,1.2c0.9-4.4,6.1-5.9,7.3-10.5c-1.4,0.1-2.5-0.1-3.6,0.2c-7.3,2.1-14.5,4.5-20.9,8.7
	c-2.9,1.9-5.4,4.4-7.7,7c-5.5,6-4,16.2-0.9,20.5c2.1,2.9,5.6,5,8.9,6.8c3.9,2.1,8.3,3.5,12.4,5.3c2,0.9,4,2.1,5.9,3.1
	c-0.1,0.3-0.2,0.6-0.3,0.9c-0.8,0.1-1.6,0.5-2.3,0.3c-7.2-2.2-14.5-4.2-20.8-8.8c-2.1-1.5-4.6-2.6-7-3.6c-5.6-2.4-7.9-6.1-6.1-11.7
	c3.3-10.2,8.2-19.4,18.5-24.3c6.3-3,12.8-5.5,19.3-8.2C302.9,54.4,304.2,53.9,306.2,53.1z"/>
<path class="st4" d="M724.2,641.9c0.6,2.1-0.8,2.5-2.1,2.6c-12.6,1.2-24.4,5.7-36.5,8.6c-9.3,2.3-18.4,5.4-27.6,8.3
	c-5.4,1.7-10.7,3.8-16.1,5.6c-3.2,1.1-6.4,1.8-9.6,2.8c-8.8,2.7-17.5,5.4-26.2,8.2c-4.4,1.4-8.8,2.9-13.3,4.3
	c-10.3,3.2-20.6,6.4-30.9,9.5c-10.5,3.1-21,6-31.5,9.1c-6.8,2-13.6,4.4-20.4,6.5c-3.7,1.2-7.5,2.3-11.3,3.3
	c-1.4,0.4-2.9,0.7-4.3-1.3c3.4-1.6,6.7-2.8,10-3.9c4.7-1.4,9.5-2.8,14.2-4.2c8.9-2.6,17.9-5.1,26.8-7.7c12.8-3.8,25.6-7.7,38.5-11.5
	c11.6-3.4,23.2-6.7,34.8-10.3c11.1-3.5,22.2-7.2,33.2-10.8c3.2-1,6.4-2.1,9.6-3c13.1-3.8,26.2-7.7,39.4-11.3
	c7.2-2,14.4-3.5,21.6-5.2C723.2,641.4,723.8,641.8,724.2,641.9z"/>
<path class="st4" d="M142.7,628.2c1.7,0.6,3.5,1.2,5.2,1.9c7.4,3.3,15.3,4.7,23.2,6.1c11.7,2.2,22.7,6.5,33.9,10.1
	c10.7,3.4,21.3,6.9,32.1,10c17.3,5.1,34.8,9.7,52,14.9c16,4.9,31.8,10.3,47.8,15.5c2.3,0.7,4.6,1.4,7.2,2.3c-1.5,2.3-3,2.2-4.5,1.4
	c-9.1-4.8-18.8-7.7-28.5-10.7c-18.1-5.6-36.2-10.9-54.4-16.3c-17-5.1-34.1-10.1-51.1-15.1c-9.8-2.9-19.5-6-29.3-8.8
	c-4.5-1.3-9.2-1.7-13.7-2.9c-5.8-1.5-11.4-3.3-17.1-5.1c-1.3-0.4-2.3-1.3-3.5-2C142.3,629.1,142.5,628.6,142.7,628.2z"/>
<path class="st4" d="M160.2,648c1.5-0.1,2.3-0.4,3-0.2c7,1.4,14,2.8,20.9,4.4c4,0.9,7.8,2.3,11.7,3.4c19.5,5.5,38.9,11,58.4,16.5
	c3.1,0.9,6.2,1.7,9.1,3c14.3,6.5,29.5,9.8,44.5,13.9c3.4,0.9,6.7,2,10,3.2c0.6,0.2,0.9,1.2,1.4,1.8c-0.7,0.2-1.7,0.8-2.2,0.5
	c-11.6-5-24.2-6.5-36-10.4c-7.2-2.4-14.2-5.2-21.4-7.6c-9-3-17.8-6.3-27-8.6c-13.3-3.3-26.4-7.1-39.5-11c-8.3-2.4-16.6-4.2-25.2-5.3
	C165.3,651.3,162.6,650.7,160.2,648z"/>
<path class="st4" d="M312.7,710.2c-1.3-0.4-2.7-0.6-3.9-1.1c-17.7-7.6-36.1-13.1-54.3-19.2c-10.4-3.5-20.5-7.6-30.8-11.1
	c-6.2-2.1-12.6-3.5-18.9-5.2c-1-0.3-2-0.4-3-0.8c-5.3-2.1-10.7-3.9-16.3-4.7c-0.9-0.1-1.7-0.8-2.6-1.2c0.3-0.5,0.4-0.9,0.5-0.9
	c4.6,0.7,9.2,1.1,13.7,2.2c5.3,1.4,10.5,3.3,15.8,5.1c10.8,3.6,21.5,7.2,32.3,10.9c14.2,4.8,28.4,9.7,42.5,14.6
	c8,2.8,15.9,5.8,23.8,8.7c0.7,0.3,1.2,1,1.8,1.5C313.1,709.4,312.9,709.8,312.7,710.2z"/>
<path class="st4" d="M647.2,678.4c-1,0.4-1.9,0.9-2.9,1.2c-7.6,2.4-15.2,4.8-22.9,7.2c-1.9,0.6-3.8,1.5-5.8,1.9
	c-8.3,1.9-15.9,5.5-23.8,8.4c-5.8,2.2-12.1,3.3-18,5.3c-8.1,2.7-16.1,5.7-24.2,8.6c-2.1,0.7-4.2,1.2-6.3,1.9
	c-4.7,1.6-9.3,3.3-14,4.9c-0.9,0.3-2,0.4-3.3,0.6c0.5-3.1,2.6-3.5,4.2-4.1c6.6-2.3,13.2-4.5,19.9-6.6c16.2-5.2,32.6-9.9,48.7-15.5
	c11-3.8,22-7.6,33.1-10.9c4.5-1.3,9-2.5,13.4-3.7c0.5-0.1,1.1,0,1.6,0C647,677.9,647.1,678.1,647.2,678.4z"/>
<path class="st4" d="M792.9,711.5c-8.5,2.3-15,7.3-21.6,12c-6.8,4.7-13.6,9.4-20.4,14.3c-5.5,4-10.9,8.2-16.3,12.4
	c-0.7,0.6-1.6,1-2.7,1.8c-0.2-2.8,0.9-4.4,2.6-5.6c7.2-5.4,14.5-10.7,21.8-16c5.4-3.9,10.8-7.9,16.4-11.6c5.1-3.3,10.5-6.3,15.8-9.3
	C790.3,708.2,791.9,708.5,792.9,711.5z"/>
<path class="st4" d="M96.9,681.5c-3-1-6.1-2-9.1-3.2c-3-1.2-5.8-2.6-8.8-3.8c-3.1-1.2-6.3-2.2-9.5-3.2c-3.2-1-6.4-1.9-9.6-2.8
	c-3.1-0.8-6.2-1.5-9.3-2.2c-3.3-0.7-6.5-1.5-9.8-2.2s-6.6-1.3-9.9-1.9c-3.2-0.5-6.4-0.8-9.5-1.4c-3.1-0.6-6.7,0.3-9.7-2.1
	c1.5-2.2,3.3-1.6,4.9-1.3c8.2,1.4,16.4,2.6,24.5,4.4c10.4,2.3,20.7,4.8,30.8,7.9c8.2,2.5,16.1,6,24,9.2c0.6,0.2,1,1.2,1.5,1.8
	C97.2,681,97.1,681.2,96.9,681.5z"/>
<path class="st4" d="M857,618.2c-1-3,0.6-4,1.7-5.2c6.2-6.9,13.7-12.2,20.8-18c10.4-8.5,20.8-16.8,31.3-25.2c0.9-0.8,2-1.4,3-2
	c0.2,0.3,0.5,0.6,0.7,0.8c-3,2.8-5.8,5.8-9,8.5c-5.3,4.5-10.9,8.8-16.2,13.3c-6.9,5.8-13.8,11.6-20.6,17.5c-3,2.6-5.7,5.4-8.6,8
	C859.3,616.6,858.3,617.2,857,618.2z"/>
<path class="st4" d="M935.9,570.1c-0.9,1-1.7,2.2-2.7,2.9c-3.1,2.1-6.5,3.8-9.6,6c-8,5.7-16,11.5-23.8,17.6
	c-5.9,4.6-11.4,9.8-17.2,14.7c-0.5,0.4-1.2,0.4-2,0.6c-1.1-2.3,0.2-3.6,1.5-4.7c2.5-2.2,5-4.4,7.6-6.5c6.6-5.3,13.1-10.6,19.9-15.6
	c7.1-5.2,14.6-10,21.9-15C932.7,569.3,933.9,568.2,935.9,570.1z"/>
<path class="st4" d="M63.5,822.7c0-1.3-0.3-2.2,0.1-2.8c0.8-1.2,1.7-2.4,2.9-3.2c5.2-3.2,10.5-6.2,15.8-9.2
	c4.3-2.4,8.6-4.8,13.1-6.9c5.2-2.5,10.6-4.8,15.9-7c1.6-0.7,3.3-1.3,4.9-1.6c0.7-0.1,1.6,0.8,2.3,1.2c-0.6,0.5-1.1,1.5-1.7,1.6
	c-7.2,1.1-13.3,4.8-19.5,8.2c-5.9,3.1-11.6,6.5-17.3,9.9c-4.5,2.7-8.8,5.5-13.2,8.3C65.8,821.7,64.9,822,63.5,822.7z"/>
<path class="st4" d="M747.3,749.4c0.9-8.6,29.7-29.1,39-28.7c-0.5,0.8-0.8,1.8-1.3,2c-7,2.9-13,7.6-19.2,11.9
	c-5.2,3.7-9.9,8-14.9,12.1C749.8,747.7,748.5,748.5,747.3,749.4z"/>
<path class="st4" d="M274.6,713c-11.6-6.6-24.3-8.6-35.8-13.7c-7.2-3.2-14.6-5.7-22.3-7.6c-1.4-0.4-2.7-1.2-4.1-1.8
	c0.1-0.3,0.1-0.6,0.2-1c0.9,0,1.8-0.3,2.6-0.1c6.9,2.2,13.9,4.3,20.7,6.7c5.5,1.9,10.8,4.2,16.3,6.2c6.6,2.4,13.2,4.7,19.7,7.1
	C273.6,709.3,275.4,709.9,274.6,713z"/>
<path class="st4" d="M22,668.5c1.9,0,3.9-0.2,5.8,0c12.6,1.8,24.7,5.5,36.5,10.3c1.8,0.7,3.8,1.5,5.1,4.4c-4.4-1.8-8-3.4-11.8-4.7
	c-4-1.4-8-2.6-12.1-3.7c-3.9-1.1-7.9-2-11.9-2.8c-3.9-0.7-8-0.3-11.8-1.9C21.9,669.5,22,669,22,668.5z"/>
<path class="st4" d="M562,720.1c1.2-0.7,2.3-1.5,3.5-2.1c7.2-3.4,32.2-11.7,35.7-11.8c-2.7,3.1-6.4,2.9-9.4,4.3
	c-3.1,1.5-6.4,2.8-9.6,4c-3.3,1.2-6.7,2-9.9,3.2c-3.2,1.2-6.1,3.2-9.7,3.4C562.5,720.8,562.3,720.5,562,720.1z"/>
<path class="st4" d="M947.7,542.3c-0.3,0.9-0.4,1.8-0.9,2.5c-0.7,0.9-1.6,1.7-2.5,2.4c-6.6,4.9-13.2,9.9-19.9,14.7
	c-1.9,1.4-4.1,2.5-6.5,3.3c4-4.9,9.7-7.8,14.3-12c4.6-4.2,9.8-7.6,14.5-11.8C947,541.7,947.3,542,947.7,542.3z"/>
<path class="st4" d="M651.3,675.9c12.5-5.1,25.6-7.9,38.9-10.1c-5.8,3.8-12.6,3.8-19,5.5c-6.5,1.7-13,3.8-19.5,5.7
	C651.5,676.7,651.4,676.3,651.3,675.9z"/>
<path class="st4" d="M576.9,731.3c6-4.4,12.9-6.7,20.9-8.7C594.9,726.1,581.3,731.9,576.9,731.3z"/>
<path class="st4" d="M80.1,818.3c2.3-3,5.8-3.7,8.9-5.5c1,3.2-1.4,4.1-2.8,5.3C84.5,819.4,82.5,820.3,80.1,818.3z"/>
<path class="st4" d="M659.8,686.3c2-0.6,4-1.3,6-1.8c0.5-0.1,1.1,0.6,1.7,1c-0.5,0.6-1,1.5-1.5,1.6c-1.9,0.2-3.9,0.1-5.9,0.1
	C660,686.9,659.9,686.6,659.8,686.3z"/>
<path class="st4" d="M660.2,705.6c1.5-1.8,2.9-1.7,4.7-0.6C663.4,707.2,662.1,707.2,660.2,705.6z"/>
<path class="st4" d="M600.7,722.2c0.7-0.3,1.5-0.7,2.2-1c0.1,0.2,0.2,0.4,0.4,0.7c-0.7,0.4-1.3,0.9-2,1.3
	C601.1,722.8,600.9,722.5,600.7,722.2z"/>
<path class="st4" d="M646.3,710.1c-0.3,0.3-0.5,0.7-0.6,0.6c-0.3-0.1-0.6-0.3-0.9-0.4c0.2-0.2,0.3-0.5,0.5-0.5
	C645.5,709.8,645.9,710,646.3,710.1z"/>
<path class="st4" d="M617.1,718.4c-0.6,0.1-1.2,0.2-1.9,0.3c0-0.2-0.1-0.5-0.1-0.7c0.6-0.1,1.2-0.2,1.9-0.2
	C617,717.9,617.1,718.2,617.1,718.4z"/>
<path class="st4" d="M651.5,708.8c-0.2,0-0.4,0-0.7,0c0-0.2,0.1-0.4,0.1-0.6c0,0,0.3-0.1,0.3,0C651.4,708.4,651.4,708.6,651.5,708.8
	z"/>
<path class="st0" d="M747.6,538c-0.4-1.4-0.5-3-1.2-4.3c-2.4-4.5-5.2-8.8-7.6-13.3c-4.1-7.7-8-15.5-11.9-23.3
	c-1.8-3.5-3.5-7-5.2-10.6c-0.8-1.6-1.4-3.4-2.2-5.3c1.4-0.4,2.1-0.8,2.9-0.8c3.9-0.3,7.8-0.7,11.7-0.9c13.2-0.6,26.5-1.1,39.7-1.7
	c21-0.9,41.9-2.1,62.9-2.9c18-0.7,36.1-1.3,54.1-1.6c9.4-0.2,18.9,0.4,28.4,0.5c2.8,0,5.5-0.3,8.3-0.3c18.3-0.3,36.4,1.8,54.2,5.5
	c2.9,0.6,5.9,1.9,8.4,3.4c3.4,2,3.4,4.2,0.5,6.9c-8,7.5-17.1,13.5-26.8,18.7c-1.8,0.9-3.6,1.9-5.2,3.1c-10.1,7.9-20,16-30.2,23.8
	c-7.7,5.9-15.3,12.3-23.7,17.1c-12.1,6.9-21.9,16.3-32.3,25.2c-7.7,6.6-15.2,13.6-22.4,20.8c-4.6,4.6-8.8,9.7-12.9,14.8
	c-5.5,6.8-10.7,13.8-16,20.8c-1,1.3-2,2.6-2.7,4c-2.1,4.2-0.9,7.4,3.4,9.2c3.9,1.6,7.8,3.2,11.7,4.8c3,1.2,5.6,2.9,7.7,5.4
	c-0.8,2.7-3,3.4-4.9,4.4c-6.3,3.3-12.8,6.2-19.1,9.7c-11.3,6.2-23,11.9-33.5,19.6c-6.3,4.6-13.1,8.6-19.6,13.1
	c-5.3,3.8-10.5,7.8-15.6,11.9c-6.2,5.1-12.2,10.4-18.3,15.5c-0.4,0.3-1,0.5-1.9,0.9c0.1-3.1,1.7-5.2,2.9-7.3
	c5.8-9.6,11.6-19.2,17.6-28.7c3.5-5.5,7.4-10.8,11-16.3c1.9-2.9,3.3-6.1,4.9-9.2c1.7-3.4,3.4-6.7,5-10.1c3.3-7,6.5-14,9.8-21
	c0.7-1.5,1.2-3,2-4.4c1.6-2.9,2.5-3.2,5.6-2c6.1,2.4,12.2,4.8,18.3,7.2c3.3,1.3,4.5,1.2,6.4-1.6c1.6-2.4,2.8-5,4.2-7.6
	c0.5-0.9,0.9-1.8,1.5-2.7c5.7-8.3,11.3-16.6,17.2-24.7c3.2-4.5,6.9-8.7,10.6-12.8c10.9-12.2,22.3-23.9,32.7-36.4
	c8-9.7,16.7-19.1,22.6-30.5c2.1-4.1,5.6-7.4,8.5-11.1c0.7-0.9,1.5-1.8,2.1-2.8c3-4.8,1.5-8.8-4.1-10.3c-2.8-0.7-5.7-1.2-8.6-1.4
	c-8.7-0.4-17.5-0.7-26.2-0.7c-6.3,0-12.5,0.8-18.8,0.7c-8.6-0.1-17.2-1-25.7-1.1c-8-0.1-16,0-24,0.5c-10.8,0.7-21.4,2.7-31.6,6.5
	c-3,1.1-6,2.2-8.9,3.6c-3.7,1.9-6.1,7.7-4.4,11.6c1.9,4.4,4,8.8,6.8,12.6c6.1,8.3,12.9,16.1,19.1,24.4c3.2,4.3,6,9,8.5,13.7
	c2.1,4.2,0.8,10.2-3,13c-4.7,3.4-9.7,6.3-14.9,9c-5.9,3-12.1,5.7-18.3,8.2c-8.2,3.4-16.5,6.6-25.2,8.6c-2,0.5-4,1-5.8,1.9
	c-10.2,4.6-21.2,6.1-32.1,7.7c-3.5,0.5-5.9-0.6-8.1-3.7c-4.5-6.5-10.6-11-17.9-14.2c-9-4-18.3-4.5-27.8-3.6
	c-6.1,0.6-12.1,1.6-18.1,2.6c-7.8,1.3-13.7,6.1-19.3,11.3c-6.1,5.6-10.1,12.7-13.6,20.1c-2.7,5.7-6.8,9.7-13.2,11
	c-4.3,0.9-8.5,1.9-12.7,3.2c-2.3,0.7-3.7,0.1-4.5-2c-3.8-9.3-11.9-14.1-20-18.8c-10.8-6.3-22.6-7.7-34.7-5.2
	c-5.8,1.2-11.6,2.9-17.1,5.2c-5,2.1-8.9,5.8-12.2,10.3c-4,5.3-7.3,10.8-9.8,16.9c-2.1,5.1-3.2,10.2-3.5,15.7
	c-0.2,4.1-0.6,4.4-4.5,4.8c-14,1.6-28,3.4-42.1,5c-6.4,0.7-12.8,1-19.2,1.4c-4.2,0.3-8.5,0.8-12.6,0.4c-5.5-0.5-10.9-1.5-16.3-2.8
	c-2.9-0.7-4.6-3.4-5.7-6.2c-2.6-6.3-3.1-13-3.5-19.7c-0.7-13.3,0.5-26.5,1.8-39.7c0.2-2,0.3-4.1,0.4-6.1c0.3-4.5,0.6-9,1-13.5
	c0.9-9.7,1.7-19.4,2.8-29.1c1.1-9.5,2.5-19,3.9-28.6c1.3-8.9,2.6-17.9,3.9-26.8c0.2-1.4,0.3-2.9,0.6-4.3c1.9-9.9,4-19.7,5.8-29.6
	c1-5.3,1.4-10.7,2.2-16c2-14.3,5.6-28.2,10.5-41.8c2.2-6.2,3.9-12.5,6.2-18.6c3.6-9.8,7.3-19.7,11.4-29.3
	c4.9-11.4,9.7-22.7,14.2-34.3c4.8-12.3,10.1-24.5,15.4-36.6c2.2-5.2,4.9-10.3,7.2-15.4c2.3-5,4.4-10.2,6.9-15.1
	c3.2-6.4,6.7-12.6,10.2-18.8c1.9-3.4,4-6.7,6.2-10c3.7-5.4,4.7-5.4,7.9,0.3c2.7,4.8,5.2,9.7,7.8,14.6c0.6,1.2,1.2,2.4,2,3.3
	c5.7,6.8,11.8,13.3,20,17.3c2.5,1.2,4.9,2.6,7.2,4.1c5.9,4,12.4,5.6,19.4,6c2.2,0.1,4.3,0.5,6.5,0.7c11.5,0.7,21.8-3,31.6-8.4
	c2-1.1,4.1-2.2,6.1-3.3c8-4.7,14.1-11.4,20.7-17.9c6.5-6.5,11.8-14,18.5-20.3c1.8-1.7,3.2-3.8,5.1-5.4c2.2-2,3.6-1.5,4.3,1.4
	c3.1,13.8,6.1,27.6,9.1,41.4c3.8,17.4,8.2,34.6,14.2,51.3c1.3,3.7,2.2,7.6,3.6,11.2c7.4,19.6,15.3,39,24,58.1
	c3.9,8.6,7.2,17.5,10.9,26.2c5.9,14,11.7,28,17.9,41.8c5.2,11.5,10.9,22.8,16.4,34.2c2.4,5.1,4.7,10.4,7.3,15.4
	c2.9,5.5,6.2,10.9,9.3,16.3c2,3.5,3.9,7.1,6,10.7c0.6,1,1.4,1.9,2.2,2.8C746.7,538.5,747.2,538.2,747.6,538z"/>
<path class="st3" d="M225.6,619.3c1-0.8,1.4-1.4,2.1-1.7c4.3-1.6,7.8-4.5,11.3-7.3c6.8-5.5,10.8-18.1,7.5-26.1
	c-2.6-6.3-7.4-10.9-14.2-12.5c-4.7-1.1-4.9-1.7-5.1-6.5c-0.4-6-0.9-11.9-1.7-17.8c-0.4-2.3-1.5-4.8-3-6.6c-3.4-4-7-4.3-11-1
	c-6.3,5.3-12.3,10.9-15.9,18.4c-1.8,3.7-4.5,5.1-8.3,5.1c-1.7,0-3.5-0.1-5.2,0c-3.4,0.2-6.7,0.9-9.2,3.5c-2.1,2.1-4.3,2.2-6.7,0.5
	c-3-2.1-6.1-4-8.8-6.4c-11.4-10.1-20.9-21.9-30.2-33.9c-5.9-7.6-11-15.7-16-23.9c-4.7-7.8-5.3-15.5-1.7-23.7
	c1.7-3.9,3.1-7.9,4.8-11.7c5.4-12,11.3-23.6,19.1-34.2c7.5-10.4,14.7-21,21.8-31.7c3.5-5.2,6.5-10.7,9.8-16
	c5.3-8.5,10.4-17.2,16.2-25.4c4.4-6.3,9.6-11.9,16.3-16.1c8.8-5.5,18.6-8.8,27.7-13.8c2.4-1.3,5-2.3,7.3-3.9
	c6.3-4.3,13.4-7,20.4-9.9c3.2-1.3,6.5-2.7,9.7-4.1c1.9-0.8,1.9-0.9,3-3.9c-1.7-0.6-3.4-1.4-5.1-1.9c-9.5-2.8-19.2-5.2-27.7-10.4
	c-5.2-3.2-10.1-6.8-15.1-10.5c-3.5-2.6-3.9-5.6-1.7-10.1c1.2-2.5,2.8-4.8,4.2-7.2c5.7-9.8,11.5-19.6,16.9-29.6
	c2.5-4.7,4.1-9.9,6.1-14.9c1.1-2.8,2-5.8,3.2-8.6c0.3-0.7,1.2-1.8,1.6-1.8c0.8,0.2,1.9,0.9,2.2,1.6c2.2,5.6,6,10.2,9.5,15
	c3.5,4.9,8.1,8.3,12.5,12c7.4,6.1,14.9,12.1,22.8,17.6c6.7,4.7,14.5,7.9,22.4,9.4c9.9,2,20,1,29.7-2.6c7.4-2.7,13.9-6.6,19.4-12.2
	c2-2.1,4.7-3.4,6.8-5.4c7.8-7.6,15.5-15.4,23.2-23.1c1.5-1.5,2.7-3.4,5-3.7c2,1.2,1.9,3.1,1.8,4.7c-0.4,6.3-0.1,12.5,0.9,18.7
	c0.8,5,1.7,10,2.6,15c1,5,2.3,9.9,3.3,14.9c1.3,6.8,3.8,13.1,6.9,19.3c2.4,4.9,5.4,9.6,7.9,14.5c0.7,1.3,1,3.2,0.6,4.6
	c-1.3,4.7-2.8,9.5-4.7,14c-3,7.6-6.3,15-9.4,22.6c-2.9,7-5.8,13.9-8.7,21c-4.8,12-9.9,23.9-13.4,36.4c-2.1,7.7-5.1,15.2-7.4,22.9
	c-1.6,5.4-3,10.9-4.1,16.5c-1.9,10.6-3.6,21.2-5.3,31.9c-2.8,17.4-5.7,34.8-8.1,52.2c-2,14.1-3.4,28.3-4.8,42.5
	c-1.8,18.4-3.4,36.8-4.9,55.2c-0.3,4.1-0.2,8.2-0.4,12.2c-0.2,3.5-1.1,4.5-4.6,4.1c-4.8-0.6-9.5-1.3-14.2-2.3
	c-2.8-0.6-3.7-2.1-3.5-5.2c0.1-1.2,0.3-2.3,0.4-3.5c0.2-4.2-1-7.8-4.2-10.6c-1.9-1.6-3.8-3.2-5.9-4.5c-10.3-6.3-21-11-33.2-12.4
	c-8.2-0.9-16.2-1.4-24.4-1c-11.9,0.6-21.6,5.3-28.9,14.9c-3,3.9-3.3,3.9-7,0.8C227.7,621.3,226.9,620.5,225.6,619.3z"/>
<path class="st2" d="M476.1,678.6c-0.1-3.2-5.3-4.3-3.2-8.1c-1.8-0.7-4.2-0.9-4.7-2c-0.9-2-1.2-4.5-1.1-6.7c0.6-8,4.7-14.4,9.4-20.7
	c11.5-15.2,27-19.8,45.1-17.9c9.1,0.9,17.4,4,24.5,9.6c3.3,2.7,6.4,6.1,8.6,9.7c3.6,5.9,0.8,15.6-5,19.3c-3.6,2.3-7.6,3.7-11.9,3.7
	c-4,0-4.8-0.6-6.3-4.5c-0.2-0.6-0.8-1.1-1.6-2.2c-0.8,1.3-1.4,2.2-1.9,3.2c-1.1,2.5-1.9,5.2-3.3,7.6c-1,1.8-2.5,3.6-4.1,4.9
	c-2.6,2.2-2.8,2.1-6,0.1c-0.3-0.2-0.8-0.2-1.2-0.3c-1.2,4.2-1.2,4.3-5.8,4.6c-7.5,0.4-14.6-0.7-19.6-7.2c-0.6-0.8-1.8-1.1-2.9-1.8
	c-1.2,3.3,0.2,5.2,1.7,7.2c2.4,3.1,2.1,4.7-1.7,5.4c-5.1,1-10.2,1.3-14.5-2.5c-2-1.8-2.2-2.4-1.3-6.1c2,1.9,3.8,3.7,5.7,5.4
	C475.5,679.2,475.8,678.9,476.1,678.6z"/>
<path class="st2" d="M664.2,635.5c-1.2,1.3-2.3,2-2.5,2.9c-3.4,12.3-15.9,14.8-24.7,13.9c-7-0.7-11.7-4.8-15.4-10.3
	c-0.7-1.1-0.3-2.9-0.4-4.7c-2.6,1.8-4.6-0.4-7.5-1.1c0.4,1.4,0.5,2.3,0.8,3.1c0.8,2.2,1.9,4.3,2.5,6.5c1,3.5,0.4,4.5-3,6.2
	c-6.3,3.1-13,1.5-18.1-4.3c1.8-3,0.3-5.8-1.7-7.6c-2.2-2-2.1-3.9-1.3-6.2c1.9-5.4,5-10.2,8.7-14.5c3.2-3.8,6.7-7.3,10.5-10.4
	c2.3-1.9,5.2-3.3,8-4.1c7.5-2.2,15.2-2.7,22.9-2.4c7.2,0.3,14.5,1.1,21.6,2.3c5.8,1,10.3,4.7,14,9.1c2.8,3.3,5.5,6.8,8.1,10.3
	c3.2,4.3,2,8.8-2.7,11.3c-4,2.1-8.1,3.9-12.6,4.9C665.9,641.5,666,641.6,664.2,635.5z"/>
<path class="st2" d="M219.9,580.1c0.6-0.4,1.2-0.6,1.7-1.1c5.7-5,12.9-4.2,17.9,1.6c4.7,5.4,4.1,11.3,1.9,17.2
	c-4.3,11.6-13.5,16.9-25.2,18.8c-9.2,1.5-17.6-1.3-25.7-5c-5.3-2.4-10.5-5-15.5-8c-6.1-3.6-9-9-8.4-16.4c0.5-6.2,2.3-11.7,6.9-16.1
	c4.3-4.2,9.6-5.2,15.4-4c3,0.7,3.5,1.5,3.2,4.7c-0.1,1.5-1.3,3.5,0.7,4.3c2.2,0.9,3-1.4,3.7-2.8c1.6-2.9,2.8-6,4.3-9
	c1.7-3.4,3.5-6.7,5.2-10.1c0.7-1.4,1.3-2.9,2.1-4.3c1.4-2.2,2.6-4.6,4.5-6.3c3.7-3.4,8.6-1.8,9.1,3.1c0.8,8.3,2.6,16.8-0.4,25.1
	c-0.5,1.5-1.2,2.9-1.7,4.5c-0.3,1-0.5,2.1-0.7,3.1C219.2,579.8,219.6,580,219.9,580.1z"/>
<path class="st3" d="M154.1,713.1c1.8-2.6,4.2-3.4,6.3-4.5c3.1-1.6,6.2-3.2,9.1-5.1c4.5-2.9,4.7-6.7,0.3-9.8
	c-9.2-6.4-18.7-12.4-29.1-16.7c-10.6-4.4-21.2-8.8-31.9-13.1c-6.6-2.7-13.1-5.8-20-7.6c-9.4-2.5-18.6-5.7-28.4-6.7
	c-10.7-1.1-21.4-2.7-32-4.3c-3.2-0.5-6.3-1.2-9.4-2.1c-1.6-0.5-3.2-1.4-4.6-2.5c-2.3-1.8-2.7-4.1-1.1-6.5c1.5-2.1,3.2-4.2,5.2-5.8
	c4.6-3.6,9.3-7,14.1-10.3c3.1-2.1,6.5-3.7,9.8-5.5c2.3-1.3,4.5-2.6,6.9-3.8c5.5-2.9,11-6,16.7-8.6c12.5-5.8,25.4-11,37.8-17.2
	c6.5-3.2,12.2-7.8,18.3-11.9c5.1-3.4,10-7,15.2-10.3c1.8-1.1,4-1.7,6.1-2.3c2.9-0.8,5.4-0.2,7.6,2c3.7,3.7,7.6,7.2,11.4,10.8
	c1.5,1.4,2.9,2.8,2.1,5.3c-0.8,2.6-2.9,2.8-5.1,3.3c-16,3.2-32.3,4.5-47.9,9.4c-9.3,2.9-18.6,5.7-27.9,8.5
	c-9.7,3-17.7,8.8-24.8,15.8c-3.5,3.5-6.8,7.1-10.1,10.8c-2.6,2.9-4.3,6.2-4.9,10.1c-0.5,3.7,0.7,6.7,4,8.5c2.3,1.2,4.7,2.3,7.2,3
	c7,1.9,14.1,3.6,21.1,5.4c6.6,1.7,13.3,3.3,19.8,5.2c5.2,1.5,10.1,3.9,15.3,5.2c17,4,32.7,11.4,48.5,18.4c8.2,3.7,16,8.3,24,12.6
	c1.3,0.7,2.4,1.6,3.5,2.6c3.1,2.6,3.1,4.9-0.7,6.6c-6.2,2.9-12.5,5.5-18.9,7.9c-3.5,1.3-7.3,2-11,3
	C156,713.2,155.3,713.1,154.1,713.1z"/>
<path class="st2" d="M303.8,642.7c-2,1.5-3.8,2.4-4.9,3.7c-3.2,3.9-7.3,5.6-12.2,5.9c-1.7,0.1-3.5,0.3-5.2,0.3
	c-6.7,0.2-11-2.6-13.7-8.7c-1-2.3-1.8-4.6-2.9-6.8c-0.3-0.7-1.1-1.1-1.7-1.7c-1.8,1.3-0.9,2.9-0.9,4.2c0,2.1-0.7,3.3-3,3.4
	c-2.5,0.1-4.9,0.5-7.4,0.6c-7.5,0.5-12.7-5.4-10.9-12.6c0.5-2.2,1.5-4.4,2.7-6.4c1.6-2.8,3.5-5.4,5.3-8c2.2-3.1,5.2-5,9.1-5.3
	c3.6-0.3,7.2-0.5,10.8-0.9c4.8-0.6,9.5-0.7,14.3,0c7.6,1.1,15.3,1.8,22.6,4.8c6.9,2.8,13.4,6.2,18.9,11.5c3.5,3.4,5,7.2,3.5,11.8
	c-1.5,4.5-5,7-9.5,8c-2,0.4-4,0.6-6.1,0.6C309.1,647.2,305.4,647.7,303.8,642.7z"/>
<path class="st3" d="M53.4,810.5c1.4-3.8,2.5-6.7,3.6-9.7c2.7-7.5,5.4-15,7.9-22.6c2.9-8.7,5.4-17.5,8.2-26.2
	c0.6-2.1,1.2-4.2,2.1-6.2c0.6-1.5,1.7-2.8,2.5-4.2c0.4,0,0.7,0.1,1.1,0.1c0.4,1.3,1,2.5,1.3,3.8c1.1,4.5,2,9.1,3.2,13.6
	c0.5,1.9,0.5,3.6-0.4,5.5c-1.2,2.5-2.3,5-3.2,7.6c-0.3,0.8,0.1,1.9,0.2,2.8c1-0.1,2.6,0.1,3-0.5c3.9-5.2,8.5-4.3,14-2.7
	c4.8,1.4,10.1,1,15.1,1.6c3.7,0.4,7.4,0.9,11.3,1.4c-0.8,2.6-2.6,3-4.1,3.5c-7.1,2.5-14.2,5-21.4,7.3c-9.7,3.2-18.9,7.4-27.2,13.5
	c-4.4,3.3-9.6,5.5-13.4,9.7C56.5,809.4,55.3,809.6,53.4,810.5z"/>
<path class="st6" d="M221.3,327.9c-1.7,1.1-2.7,2-3.9,2.4c-4.7,1.5-9.4,3.3-14.2,4.3c-5.5,1.1-10.6-0.8-14.6-4.4
	c-3.4-3.1-4.9-7.5-3.4-12.4c1.9-6.1,3.5-12.3,8.3-17.1c1.9-1.9,3.2-4.5,4.9-6.7c1.4-1.7,2.8-3.4,4.5-4.7c3.6-2.8,5.7-2.6,9.3,0.3
	c2.1,1.7,4.4,3.3,6.7,4.9c3.4,2.4,3.5,3.2,1.1,6.6c-1.7,2.3-3.4,4.8-4.4,7.5c-2.3,5.6-0.9,10.8,2.9,15.4
	C219.3,325,220,326.2,221.3,327.9z"/>
<path class="st1" d="M516.5,253.6c-1.9-1.2-3.5-2.1-5-3.1c-1.4-1-2.7-2.2-3.8-3.4c-0.3-0.4-0.2-1.5,0.1-1.9c0.3-0.4,1.3-0.6,1.9-0.4
	c1.4,0.5,2.6,1.3,4,1.8c1.2,0.5,2.6,0.7,3.9,1c0.1-0.3,0.2-0.6,0.4-0.9c-1.6-1.1-3.2-2.2-4.8-3.3c-0.8-0.6-1.6-1.2-2.4-1.9
	c-1.3-1-1.8-2.3-0.8-3.8c0.9-1.4,2.2-1.7,3.8-1c1.5,0.7,3,1.3,4.6,1.9c0.2-0.3,0.4-0.6,0.5-0.9c-0.5-0.6-0.9-1.2-1.4-1.7
	c-0.7-0.6-1.5-0.9-2.2-1.5c-1.3-1.1-3.1-2.3-1.9-4.3c1-1.8,2.8-1,4.3-0.6c0.9,0.2,1.8,0.5,3,0.8c-0.2-2.2-1.8-2.6-2.8-3.5
	c-0.8-0.7-1.9-1.8-1.7-2.6c0.2-0.9,1.4-1.7,2.3-2.3c0.8-0.5,1.8-0.7,2.8-1c-1.2-4.3,0.7-8,5.7-10.7c0,1.2,0.1,2.1,0,3
	c-0.9,10.7-2.2,21.4-2.7,32.2c-0.3,6.2,0.8,12.5,1.2,18.7c0.2,2.6,0.3,5.2,0.3,7.9c0,1.8-1.2,2.7-2.9,2.2c-1.8-0.5-3.7-1-5.3-1.9
	c-4.8-2.8-9.4-5.8-14-8.8c-0.5-0.3-1.1-0.7-1.2-1.2c-0.3-1-0.7-2.4-0.2-3.1c0.4-0.6,2.1-0.7,3-0.3c2.1,1,4,2.4,6,3.5
	c2.9,1.6,5.7,3.4,9.5,3c-1.9-1.1-3.9-2-5.6-3.2c-3.3-2.4-6.4-5-9.5-7.6c-0.5-0.4-0.7-1.8-0.4-2.3c0.5-0.7,1.7-1.4,2.4-1.2
	c1.4,0.3,2.6,1.2,3.9,1.8C512.5,254,513.9,255.2,516.5,253.6z"/>
<path class="st1" d="M307.4,241.9c-2.8-2.2-5-3.9-7.1-5.6c-0.8-0.6-1.6-1.3-2.1-2.2c-0.4-0.8-0.7-2.1-0.3-2.7
	c0.4-0.6,1.7-0.7,2.6-0.7c1.3,0.1,2.5,0.6,3.8,0.8c0.3,0,0.7-0.4,1.3-0.9c-1.6-1.1-3.1-1.9-4.3-3c-0.8-0.8-1.7-2.3-1.6-3.2
	c0.3-1.7,2-1.2,3.3-1c0.7,0.1,1.4,0,3.1,0c-1.5-1.4-2.4-1.9-3-2.8c-0.8-1.1-1.8-2.4-1.8-3.6c0.1-1.8,1.9-1.9,3.4-1.8
	c0.7,0,1.4-0.1,3.1-0.2c-1.5-1.3-2.6-1.9-3.3-2.8c-0.6-0.9-1.2-2.2-0.9-3.1c0.3-0.8,1.7-1.8,2.6-1.8c1.1,0,2.6,0.7,3.2,1.6
	c0.7,1,0.6,2.5,0.7,3.8c0.1,4.4-0.1,8.7,0.2,13.1c0.6,10.2,1.4,20.3,2.3,30.5c0.6,7.4-0.3,8-7.2,5.5c-4.4-1.6-7.9-4.2-11.6-6.8
	c-0.9-0.7-1.6-1.8-2.6-3c2.5-1,3.7,0.2,4.9,1.1c1.4,1,2.7,2.2,4.2,3.2c1.2,0.8,2.5,1.5,4.4,0.1c-4.7-2.9-8.5-6.2-11.1-10.8
	c0.9-1.6,2-1.3,3-0.6c1.4,0.9,2.6,1.9,4,2.7c1,0.6,2.2,0.9,3.3,1.4c0.1-0.3,0.3-0.6,0.4-0.9c-0.9-0.6-1.9-1.1-2.7-1.8
	c-1.8-1.5-3.7-2.9-5.1-4.7c-0.7-0.8-1-2.7-0.5-3.5c0.8-1.5,2.3-0.5,3.4,0.1c1.8,1,3.4,2.2,5.2,3.2
	C305.2,241.8,306,241.7,307.4,241.9z"/>
<path class="st1" d="M563.9,254.7c-0.9-2,0-3.2,1.4-4.2c1.7-1.1,3.5-2.1,5.2-3.2c1.4-1,2.7-2.1,4.6-3.6c-4.3-1.2-6.5,2.9-9.8,2.5
	c-1.5-3.2-1.3-4.4,1.4-6.1c2.1-1.3,4.2-2.4,5-5.4c-1.7,0.6-3.3,1.1-5.1,1.8c-2.3-3.7,1.8-5,2.6-7.4c-1.4-1-3.3-1.6-3.9-2.9
	c-0.9-1.9-0.8-4.2,0.5-6.6c0.9,0.5,1.9,0.7,2.3,1.3c3.4,5.2,7.2,10.2,9.1,16.4c1.5,4.9,3.5,9.6,5.1,14.4c0.5,1.5,0.7,3.1,0.9,4.7
	c0.4,2.7-0.5,4.7-2.7,6.4c-4.1,3.1-7.8,6.5-12,9.5c-2.3,1.6-5.1,2.5-7.8,3.8c-0.8-5,0.6-8,4.1-9.9c2.6-1.4,5.2-2.7,7.6-4.3
	c1.2-0.8,2-2.1,3-3.2c-0.2-0.3-0.4-0.6-0.7-0.9c-3.4,1.8-6.9,3.6-10.4,5.5c-1.9-2.5-1.1-4,0.8-5.1c2.5-1.4,5.2-2.6,7.7-4.1
	c2-1.1,2-1.2,2.9-4.3C571.6,251.2,568.5,254.9,563.9,254.7z"/>
<path class="st1" d="M350.2,240.2c-1.6-0.4-2.8-0.5-3.8-0.9c-1.2-0.5-2.4-1-3.4-1.8c-0.5-0.4-0.8-1.7-0.5-2.3c0.2-0.6,1.3-1.2,2-1.2
	c1.3-0.1,2.7,0.1,4.4-0.6c-0.6-0.5-1.1-1-1.8-1.3c-1-0.6-2.2-0.9-3-1.7c-2.1-1.9-1.5-3.8,1.2-4.6c0.5-0.1,1.1-0.2,2.2-0.5
	c-1-1-1.9-1.5-2.4-2.3c-0.6-1.1-1.3-2.4-1.1-3.4c0.1-0.7,1.7-1.4,2.7-1.5c1.5-0.3,3,0.1,3.6,1.7c0.3,0.7,0.4,1.4,0.5,2.1
	c2.3,10.2,4.6,20.4,6.9,30.6c1,4.3,0.8,4.7-2.9,7.1c-4.9,3.2-10.5,4.7-16.2,6.2c-1.4-2.8-0.2-5,0.4-7.1c0.4-1.5,1.9-1.6,3.3-1.4
	c1.3,0.2,2.6,0.6,3.8,0.8c1.4,0.1,2.9,0.4,3.8-1.9c-1.2-0.2-2.2-0.4-3.3-0.6c-1.8-0.4-3.7-0.7-5.4-1.6c-0.7-0.4-1.2-2.1-1-2.9
	c0.2-0.8,1.6-1.6,2.6-1.6c1.4-0.1,2.8,0.5,4.3,0.7c1.5,0.2,3.1,0.6,4.8-1.2c-1.1-0.5-1.9-1-2.7-1.2c-2-0.5-4-0.6-5.9-1.3
	c-2.1-0.8-2.8-2.5-2.1-4.1c0.8-1.9,2.3-1.3,3.7-0.8C346.7,242,348.4,242.6,350.2,240.2z"/>
<path class="st5" d="M240,317.2c-0.8-2.5-1.4-4.9-2.4-7.1c-0.5-1-1.7-2.3-2.6-2.4c-1.8-0.1-2.2,1.7-2.2,3.2c0.1,2.2,0.3,4.3,0.5,6.5
	c0.3,4.4-3.1,8.4-7.4,8.4c-0.8,0-1.8-0.4-2.3-1c-3.5-4.4-6.5-9-4.1-15.1c1.2-3.1,3.3-5.5,6-7.3c1.9-1.2,4-1.4,6.3-0.6
	c6.1,2,12.2,3.9,18.3,5.8c1.5,0.5,2.9,1.1,4.4,1.7C252.2,312.8,246.2,316.1,240,317.2z"/>
<path class="st1" d="M346.7,195.2c0.3,0.5,0.8,0.9,0.9,1.4c0.7,5.6,1.3,11.2,1.8,16.9c0.1,0.8-0.7,2.1-1.3,2.3
	c-0.8,0.2-2-0.4-2.6-1.1c-1.3-1.4-1.3-3.2-0.5-4.9c0.7-1.4,0.4-2.7,0.3-4.1c-0.2-3.4,0.2-6.8,0.3-10.2
	C346,195.3,346.3,195.3,346.7,195.2z"/>
<path class="st1" d="M309.1,191c1,3.8,0.4,7.7,0.2,11.5c0,0.6-0.7,1.4-1.2,1.5c-0.5,0.1-1.6-0.2-1.8-0.7c-0.5-1-1.1-2.2-0.9-3.2
	c0.7-3.2,1.7-6.3,2.6-9.5C308.3,190.9,308.7,190.9,309.1,191z"/>
<path class="st2" d="M625.8,30.1c0.9,4.9,0.9,9.1,0.2,13.2c-1.1,6.2-1.7,12.4-0.9,18.7c0.5,3.3,0,6.7,0.1,10c0.1,2.9-0.9,5-3.3,6.7
	c-8,5.7-16.7,10-26.1,13c-8.4,2.6-17,4.1-25.7,4.9c-7.5,0.7-15.1,0.5-22.7,0.2c-8.9-0.4-17.7-1.2-26.6-2.1c-8.7-0.8-17.5-1.3-26-3.1
	c-5.7-1.2-11-4.4-16.4-7c-2.7-1.3-5-3.4-7.3-5.4c-2.9-2.5-4.2-5.9-4.2-9.7c0.2-11.5,0.4-23,0.7-34.5c0-0.9,0.1-1.8,0.4-2.6
	c0.6-1.5,1.7-2.4,3.4-1.5c11.6,5.6,24.2,7.5,36.8,9c19.1,2.3,38.3,3.2,57.6,1.7c8.7-0.7,17.4-1.2,26.1-1.8
	c10.5-0.7,20.3-3.5,29.7-8.1C622.9,31.1,624,30.8,625.8,30.1z"/>
<path class="st2" d="M467.6,83.3c2.6,1.2,4.3,2,6,2.8c6.3,3,12.6,6.1,18.9,9c1.3,0.6,2.8,1,4.2,1.2c5.8,0.7,11.6,1.3,17.4,1.8
	c8.6,0.7,17.1,1.5,25.7,2c9.9,0.6,19.8,1.7,29.7,1.1c10.6-0.7,21-3.2,30.9-7.2c7.5-3,14.8-6.2,21.6-10.4c0.7-0.4,1.6-0.5,2.9-0.9
	c0.4,2.1,0.8,3.9,1.1,5.7c1.4,8.6,2.6,17.3,4,25.9c0.4,2.6-0.2,4.7-2.3,6.1c-1.9,1.3-4,2.5-6.1,3.3c-9.7,3.9-19.7,7.1-30.1,9
	c-16.9,3.2-34,5.1-51.2,5.4c-11.5,0.2-23.1,0.1-34.5-1c-10-1-20.4-2-29.4-7.4c-2.6-1.6-5.1-3.3-7.6-5.1c-1.8-1.4-2.8-3.3-2.8-5.7
	c0-0.9,0-1.7,0-2.6c0.3-9.2,0.6-18.3,0.9-27.5C467,87.3,467.3,85.7,467.6,83.3z"/>
<path class="st2" d="M555.4,174.4c-8.4-0.7-18.2-1.1-27.8-2.4c-14.8-1.9-29.6-4.3-44.4-6.5c-3.2-0.5-6.3-0.9-9.5-1.3
	c-5-0.7-8.8-5-9.4-10c-0.9-6.9,0.1-13.7,0.2-20.5c0.1-4.2,1.6-5,5.2-3.1c11.8,6.2,24.6,9.1,37.6,10.7c6.9,0.8,14,0.3,21,0.3
	c9.5,0.1,18.9,0.4,28.4,0.1c6.8-0.2,13.6-1.1,20.4-2.2c11.5-1.9,22.9-4.2,34.3-6.3c1.7-0.3,3.4-0.7,5.2-1c3.6-0.6,7.2-1.1,10.7-1.8
	c2.9-0.5,3.8,0.1,4.2,2.8c0.8,5.6,1.5,11.2,2.3,16.8c1.2,8.7-0.9,12.9-9.2,16c-4.4,1.7-9.2,2.7-13.9,3.3c-9.9,1.4-19.9,2.4-29.9,3.3
	C572.7,173.7,564.7,173.9,555.4,174.4z"/>
<path class="st7" d="M528.6,9.1c6.5-0.4,13.1-0.6,19.6-1.3c3.3-0.3,6.5-1.6,9.7-2.3c2.3-0.5,4.6-1,6.8-1c14-0.2,27.9,1.2,41.8,3
	c5.8,0.8,11.5,2.1,16.4,5.5c3.9,2.7,4.6,5.2,1.9,9.1c-2.6,3.6-6.2,6.1-10.3,7.8c-13.5,5.7-27.8,7.1-42.3,8.1
	c-13.3,0.9-26.5-0.1-39.7-0.5c-9.1-0.2-18.3-1.8-27.4-2.7c-4.9-0.5-9.8-1.1-14.8-1.6c-6.8-0.7-13-3.2-18.8-6.7
	c-3.8-2.2-3.9-4.4,0-6.7c7.5-4.6,15.8-7,24.3-8.3c10.8-1.6,21.7-2.1,32.6-3.1C528.6,8.6,528.6,8.9,528.6,9.1z"/>
<path class="st4" d="M617.1,473.1c-1.8,1.5-3,0.7-4-0.1c-7.8-6-17.1-7.8-26.4-9.6c-9-1.7-18-3.7-27-5.4c-4.4-0.8-9-1.2-13.5-1.4
	c-3.7-0.2-4.2,0.3-5,3.9c-0.8,3.9-3.1,6.1-6.8,7.3c-9.3,2.9-18.7,5.6-28,8.5c-4.3,1.3-8.6,2.8-12.9,4.2c-11.8,4-23.1,9-33.4,16
	c-5.2,3.5-10,7.5-13.7,12.6c-0.2,0.2-0.3,0.5-0.5,0.7c-1,1.1-2.1,2.5-3.6,1.3c-1.3-1.1-0.3-2.4,0.5-3.5c0.4-0.6,0.9-1.1,1.5-1.6
	c7-6.1,13.8-12.5,21.1-18.3c5.2-4.1,11.5-6.2,17.8-8.1c13.4-4.1,26.8-8,40.1-12.2c4-1.3,7.8-3.2,11.6-4.9c2.5-1.1,3.2-3.2,2.5-5.8
	c-2.3-8.7-4.8-17.4-6.8-26.2c-1.5-6.7-2.4-13.5-3.4-20.2c-0.9-6-1.3-12.2-2.2-18.2c-1-6-1.9-6.7-7.9-7.2c-6.1-0.5-12.2-1.4-17.9-3.7
	c-2.5-1-4.9-2.5-7.1-4.2c-2.7-2.1-3-5.1-1.8-8.3c1.3-3.3,3.6-5.8,6.4-7.5c7.8-4.8,16.2-8.2,25.4-8.5c3.8-0.1,7.9,0.6,11.5,1.9
	c5.1,1.7,9.9,4.3,14.8,6.4c4.1,1.8,5.7,5,5.9,9.3c0.2,4.6-1.8,8.1-5.8,9.9c-4.1,1.9-8.5,3.1-12.7,4.5c-0.8,0.3-1.7,0.3-2.6,0.5
	c-3.7,0.8-4.4,1.5-4.3,5.4c0.1,3.9,0.5,7.9,1,11.7c1,7.9,2,15.9,3.5,23.8c1.1,6,3,11.8,4.8,17.7c1.2,3.9,3.8,6.4,7.9,7.4
	c1.4,0.3,2.8,0.8,4.3,0.9c13.8,1.6,27.2,5.2,40.7,8.2c8.4,1.8,16.6,4.4,23.4,10.3C615.5,471.2,616.3,472.2,617.1,473.1z"/>
<path class="st4" d="M439.3,330.3c1-3.3,1.9-6.7,3.2-9.9c1.2-3,3-5.7,4.1-8.7c1.2-3.1,2.1-6.4,2.8-9.6c1.1-4.8,1.9-5.6,6.4-4.3
	c14.2,3.8,28.5,7.2,42.2,12.7c2.7,1.1,5.5,2,8.2,3.1c1.1,0.4,2.1,1,3,1.8c2.1,1.9,1.9,3.7-0.4,5.3c-0.6,0.4-1.2,0.8-1.9,1.1
	c-10.1,6-20.2,12.1-30.3,18.1c-5.5,3.2-11.2,6-17.8,6.9c-4.7,0.6-9-0.5-13-2.6c-4-2-4.6-6.1-5.6-9.9c-0.3-1.3-0.3-2.6-0.4-3.9
	C439.6,330.4,439.4,330.3,439.3,330.3z M475.6,336.4c-5-9.5-5.5-18.2,2.7-26.6c-5.9-1.5-10.9-2.7-15.9-4.2c-4.1-1.2-7.1,0.1-9.4,3.5
	c-3.2,4.9-6.6,9.7-7.9,15.4c-0.7,3.2-1,6.6-0.7,9.9c0.5,4.9,3.7,7.6,8.7,8.4C461.5,344,468.4,340.6,475.6,336.4z M493.2,324.9
	c4-2.1,7.5-3.9,11.1-5.8c-0.5-0.8-0.7-1.3-1-1.4c-5.8-1.9-11.5-3.9-17.4-5.6c-2.3-0.7-4.2,0.5-5.9,2.1c-4.5,4.2-4.9,9.3-3.2,14.8
	c0.5,1.7,1.2,3.8,3.1,3.7c1.7-0.1,3.4-1.4,4.8-2.6c0.6-0.5,0.6-1.8,0.8-2.8c0.4-2.4,0.6-4.9,1.3-7.3c0.3-1,1.4-2.3,2.4-2.6
	c1.6-0.5,2.1,1.1,2.5,2.4C492.2,321.2,492.6,322.7,493.2,324.9z"/>
<path class="st4" d="M584.4,344.5c-9.2,0.2-17-2.8-23.7-8.9c-1.6-1.5-3.3-2.8-5-4.2c-4.3-3.6-8.7-7.3-13.1-10.9
	c-2.9-2.4-2.8-3.6,0.6-5.3c1-0.5,2.2-0.8,3.3-1.2c11.5-3.3,22.5-7.9,33.3-13c1.6-0.7,3.3-1.2,4.9-1.9c3.9-1.8,7.9-3.8,11.8-5.7
	c1.4-0.7,2.7-1.7,4.1-2.4c3.1-1.5,4.3-1,4.9,2.4c0.4,2.3,0.5,4.6,0.9,6.9c0.8,5,1.7,10.1,2.4,15.1c1.4,10.3-4.7,22.5-13.9,27
	C591.9,343.9,588,343.8,584.4,344.5z M568.8,335.7c0.6,0.8,0.7,1.3,1.1,1.5c7.3,3.9,15.1,3.9,22.9,2.3c0.8-0.2,1.6-0.7,2.3-1.2
	c7.4-5.9,10.7-13.7,9.9-23c-0.3-3.7-1.4-7.4-2.3-11.1c-1.2-4.6-2.9-5.5-7.3-3.9c-6.1,2.4-12.2,4.8-18.2,7.4
	c-4.3,1.9-4.4,2.3-2.5,6.4c0.5,1.2,1,2.4,1.5,3.6c2.4,6.1,0.6,11-4.3,15.1C570.9,333.7,569.9,334.6,568.8,335.7z M548.8,318.7
	c1,2.9,2.4,4.4,5.3,4.6c0.4-0.6,0.8-1.2,1-1.9c0.4-1.3,0.8-2.6,2.5-2.4c1.7,0.2,1.9,1.6,2.1,2.9c0.3,2.2,0.5,4.3,0.9,6.5
	c0.5,2.6,1.9,3.5,4.3,3.2c3.5-0.4,7.9-4.2,8.4-7.4c0.6-3.6-2.4-9.2-5.6-10.6c-0.7-0.3-1.4-0.6-2.1-0.4
	C559.8,314.2,554.4,316.3,548.8,318.7z"/>
<path class="st4" d="M669.1,402.9c2.9-0.2,3.7,1.2,4.3,2.7c1.6,3.9,3.3,7.8,4.8,11.7c2.7,7,5.2,14.2,8,21.2
	c3.9,9.7,7.8,19.5,12.2,28.9c5.6,12,11.1,24,18.2,35.2c2.8,4.4,4.9,9.3,7.2,14c0.6,1.2,1.6,2.5,0.3,4.1c-2-0.1-2.9-1.6-3.7-3.1
	c-8.3-15.9-16.6-31.7-24.7-47.6c-3-6-5.8-12.1-8.4-18.2c-3-7.1-5.6-14.3-8.4-21.5c-3-7.7-5.9-15.5-8.9-23.2
	C669.7,405.8,669.5,404.5,669.1,402.9z"/>
<path class="st4" d="M372.1,657.4c-0.6-0.7-1.5-1.2-1.8-2c-0.7-1.7-1.3-3.6-1.6-5.4c-0.8-5.6-1.7-11.2-2.1-16.9
	c-0.6-8.3-1.3-16.6-1-24.9c0.5-13.2,1.9-26.4,2.9-39.6c0.2-2.2,0.4-4.3,0.6-6.5c0.1-1.1,0.3-2.6,1.9-2.2c0.5,0.1,1,1.6,1,2.5
	c-0.4,5.5-1.3,11-1.6,16.5c-0.6,11.6-1.5,23.3-1.3,34.9c0.3,13.1,1.2,26.2,4,39c0.3,1.3,0,2.8,0,4.2
	C372.9,657.1,372.5,657.2,372.1,657.4z"/>
<path class="st4" d="M380.8,643.5c-3.1-4.4-6.4-32.1-5.4-46.6c0.3-3.7-0.2-7.7,1.8-11.1c2.4,0.7,2.1,2.1,1.9,3.4
	c-1.4,13,0.7,25.9,2.5,38.7c0.5,3.8,1,7.5,1.4,11.3C383.1,640.8,383.4,642.7,380.8,643.5z"/>
<path class="st4" d="M699,493.1c-3.4-0.9-4.5-2.5-5.3-4.4c-4.7-11.3-9.4-22.5-13.9-33.9c-2.4-6.1-4.5-12.3-6.6-18.4
	c-0.5-1.4-0.9-2.8,0.4-3.9c0.5,0.1,0.9,0.1,1,0.2c0.5,0.7,0.9,1.5,1.2,2.3C683.4,454.1,691,473.2,699,493.1z"/>
<path class="st4" d="M685.3,486.9c-3.4-0.5-4.1-2.6-5-4.5c-1.7-3.9-3.3-7.8-4.9-11.6c-3.4-8-6.9-16-10.3-24
	c-0.6-1.4-1.6-2.9-0.1-4.6c1.9,0.2,2.1,2,2.7,3.4c4.7,10.3,9.4,20.6,14.1,30.9c1.1,2.4,2.2,4.7,3.2,7.2
	C685.3,484.4,685.1,485.4,685.3,486.9z"/>
<path class="st4" d="M388.2,628.3c-3.7-7.7-3.3-16-4.1-24.1c-0.2-2.2-0.1-2.2,1.5-4.4c1.8,3.2,1.1,6.6,1.7,9.7
	c0.6,3.1,1.1,6.3,1.4,9.5C389,622,391.1,625.2,388.2,628.3z"/>
<path class="st4" d="M506.3,416.8c0.1,2.4-2.8,5.4-5.6,5.7c-2.4,0.2-3.9-1.2-4-3.5c0-2.7,2.8-5.6,5.5-5.8
	C504.4,413.1,506.2,414.7,506.3,416.8z"/>
<path class="st4" d="M510,442.7c-2.5,0.1-4.4-1.4-4.5-3.7c-0.1-2.5,2.7-5.5,5.2-5.6c2.1-0.1,3.9,2,4.1,4.8
	C514.9,440.5,512.7,442.6,510,442.7z"/>
<path class="st4" d="M561.3,412.5c0.1,2.6-2,5.1-4.3,5.2c-2,0.1-4.1-1.8-4.2-3.6c-0.1-2.2,2.3-4.3,5-4.5
	C560,409.4,561.2,410.4,561.3,412.5z"/>
<path class="st4" d="M486.2,439.8c0.1-2.5,1.8-4.2,4.1-4.1c2.3,0.1,4.1,1.6,4.1,3.6c0,2.3-2.5,4.4-5.1,4.3
	C487.3,443.5,486.1,442.1,486.2,439.8z"/>
<path class="st4" d="M584.8,428.8c0,1.9-1.9,3.5-4.2,3.5c-2.2,0-3.8-1.3-3.9-3.2c-0.1-2.1,1.6-3.7,3.9-3.7
	C583,425.3,584.9,426.8,584.8,428.8z"/>
<path class="st4" d="M579.4,412.7c-1.8,0-3-1.1-3-2.9c0-2.2,2-4.4,4-4.4c1.9,0,3.8,1.8,3.6,3.5C583.9,410.8,581.6,412.7,579.4,412.7
	z"/>
<path class="st4" d="M232.5,401.7c-2.9-0.2-5.6-0.4-8.3-0.6c-4.4-0.3-7.3-2.7-9.3-6.4c-0.7-1.3-1.2-2.7-1.9-3.9
	c-1.6-2.9-1.8-6-0.4-8.8c1.5-3.1,3.2-6.3,5.5-8.8c5.1-5.4,10.5-10.5,16-15.5c1.7-1.5,3.8-2.7,5.9-3.6c5.2-2.1,9.3-0.1,10.9,5.2
	c2.4,8.2,4.6,16.5,7,24.8c1,3.6,2.2,7.2,3.4,10.8c0.9,2.8,0.5,4-2.1,5.3c-1.4,0.7-3,1.1-4.6,1.2c-2.2,0.2-4.4,0.1-6.6,0.1
	c-6.7,0-11.4,3.2-13.1,9.7c-4.5,16.5-6.3,33.2-3.6,50.2c0.8,4.9,1.4,9.8,2.3,14.7c1,5.1,3.8,8.5,8.9,10.4c9.4,3.5,18.7,7.3,28,11.2
	c8.8,3.8,17.6,7.8,26.2,12c6.3,3,12.4,6.4,18.6,9.7c1.3,0.7,2.9,1.5,2.7,3.6c-1.7,1.3-3.1,0.1-4.4-0.5c-6.7-3.3-13.5-6.3-19.9-10
	c-9.6-5.7-20-9.4-30.4-13.4c-6.1-2.3-12-5.2-18.1-7.7c-2.3-0.9-4.7-1.6-7.1-2.3c-2.9-0.8-5.2-2.2-6.8-5c-1.7-3-2.6-2.9-6.2-2.4
	c-12.5,1.8-23,8.1-33.4,14.4c-5.7,3.5-11.5,6.8-16.3,11.7c-2.9,3-6.6,5.2-10,7.6c-0.6,0.5-2.5,0.5-2.7,0.1c-0.5-0.8-0.7-2.3-0.2-3.1
	c0.9-1.4,2.2-2.7,3.6-3.8c6.5-5.2,13-10.3,20.4-14.2c1.8-0.9,3.4-2.3,5.1-3.3c3.1-1.8,6.3-3.5,9.6-5.1c5.7-2.8,11.5-5.5,17.2-8.3
	c1.2-0.6,2.4-1,3.6-1.6c4-1.9,5.3-4.4,4.9-8.7c-0.5-5.4-1.3-10.7-1.2-16.1c0.1-7.1,0.8-14.2,1.5-21.3c0.9-9.1,2.7-18.1,5.5-26.9
	C232.8,402.9,232.6,402.6,232.5,401.7z"/>
<path class="st4" d="M281.6,315c2-2.5,4.5-2.2,6.7-2.6c5-0.9,10-1.8,15.1-2.5c11.6-1.7,22.7-5.3,33.5-9.6c9-3.6,17.8-8,26.6-12
	c1.7-0.8,3.4-2.6,5.2-1.3c2,1.4,0.6,3.5-0.1,5.2c-2.9,7.9-3.8,16.2-3.1,24.5c1,11.3-5.4,17.3-14.2,21.7c-4.4,2.2-9.3,3.4-13.9,5
	c-5.7,2.1-11.2,0.7-16.6-1.4c-4-1.6-8-3.5-12-5.2c-3.8-1.6-7.2-3.7-10.3-6.5c-4.7-4.1-9.5-8.1-14.2-12.2
	C283.3,317.2,282.5,316,281.6,315z M338.5,316.8c-0.2-1.4-0.3-3.2-0.7-4.9c-1.2-4.5-2.8-5.5-7.3-4.3c-4.6,1.2-9.3,2.4-13.8,3.9
	c-6.9,2.3-9.2,8.7-5.7,15c0.8,1.4,2.1,2.5,2.6,4c2.2,6.1,7.2,8,12.8,9.2c3.6,0.8,4.9,0,6.8-3.1C336.9,330.7,337.6,323.9,338.5,316.8
	z M337.8,338c12.6-1.6,28-26.5,20.7-38.8c-4.5,1.4-9.2,2.9-13.9,4.4c-3.6,1.2-3.8,1.5-3.2,5.4c1,6.4,0.8,12.7-0.9,19
	C339.7,331.1,338.8,334.3,337.8,338z M291.2,316.6c-0.1,0.4-0.3,0.9-0.4,1.3c3.7,4.3,8.2,7.8,12.8,11.2c0.5,0.4,1.5,0,1.8,0
	c0-4.9,0-9.4,0-14.6C300.2,315.3,295.7,316,291.2,316.6z"/>
<path class="st4" d="M146.4,537.4c-2.7,1-4-0.5-5.1-1.9c-4.1-5.3-7.9-10.8-9.9-17.3c-2.3-7.9-4.4-16-6.5-24
	c-0.8-2.8-1.5-5.6-2.2-8.4c-0.3-1.3-0.4-2.8,1.2-3.3c1.7-0.6,2.9,0.5,3.2,2.1c0.6,2.5,1,5.1,1.4,7.7c2.3,15.4,6.2,30.2,16.3,42.6
	C145.4,535.5,145.8,536.4,146.4,537.4z"/>
<path class="st4" d="M395.1,256c2.1-0.1,2.2,1.2,2.5,2.5c1.7,6.8,3.4,13.5,5.2,20.3c1.4,5.3,2.9,10.7,4.7,15.9
	c2.2,6.4,5.2,12.3,9.2,17.8c0.5,0.7,1.3,1.3,1.5,2.1c0.2,0.5,0,1.6-0.4,1.9c-0.4,0.3-1.4,0.3-1.9,0.1c-0.6-0.3-1.1-0.9-1.5-1.5
	c-3.9-6.3-7.8-12.6-9.7-19.9c-2.3-8.9-5.3-17.6-7.7-26.4c-0.9-3.4-1.4-6.8-2-10.3C394.8,257.7,395.1,256.9,395.1,256z"/>
<path class="st4" d="M393.6,281.2c0.5,1.4,1,2.6,1.3,3.7c2.2,9.7,5.4,19,10.6,27.5c1.7,2.8,3.7,5.5,5.4,8.3c0.5,0.8,0.2,2.1,0.3,3.1
	c-1-0.3-2.1-0.5-3-1c-0.6-0.3-0.9-1.1-1.3-1.7c-6.6-11.2-12.2-22.8-14.4-35.7C392.3,284.1,391.6,282.6,393.6,281.2z"/>
<path class="st4" d="M133.1,486.7c0.4,0.4,1,0.6,1.1,0.9c0.4,1.5,0.8,3.1,1.1,4.6c2,10.6,5,20.9,9.1,30.9c-2.8,0.9-3.5-0.6-4-1.9
	c-1.2-2.8-2.4-5.6-3.3-8.5c-1.9-6.7-3.8-13.4-5.4-20.1C131.1,490.7,130.1,488.1,133.1,486.7z"/>
<path class="st4" d="M393.9,310.2c2.2,0.2,2.4,1.8,2.8,3.1c2.4,7.2,5.9,13.9,9.5,20.5c0.8,1.5,2,2.8,2.8,4.4
	c0.3,0.6-0.1,1.6-0.1,2.4c-0.8-0.1-1.8,0-2.3-0.4c-0.8-0.6-1.2-1.6-1.7-2.5c-4.2-8-8.6-15.8-11.2-24.5c-0.2-0.7-0.3-1.4-0.4-2.1
	C393.3,310.9,393.6,310.7,393.9,310.2z"/>
<path class="st4" d="M122.8,511.3c-5-4.1-6.2-10.4-8.5-16c-1.1-2.6-0.9-2.9,0.6-6.1c0.8,0.6,1.8,1,2.2,1.7c0.9,1.6,1.7,3.4,2.3,5.2
	c1.4,4,2.8,8,4.1,12c0.3,0.9,0.3,1.9,0.4,2.8C123.5,511,123.2,511.1,122.8,511.3z"/>
<path class="st4" d="M257.8,465.3c0.1,2.5-1.7,4.2-4.4,4.3c-2.3,0.1-3.9-1.7-4-4.2c0-2.5,2-5.1,4.2-5.3
	C255.6,459.9,257.7,462.5,257.8,465.3z"/>
<path class="st4" d="M257.9,433.1c0,3-1.9,5.8-4.2,6.3c-0.9,0.2-2.1,0-2.8-0.5c-1.9-1.3-2.3-4.2-1-6.2c1.2-1.9,4.8-3,6.5-1.7
	C257.3,431.5,257.7,432.7,257.9,433.1z"/>
<path class="st4" d="M197.6,428.3c0,2.8-1.8,4.7-4.2,4.5c-1.7-0.1-2.7-0.9-2.8-2.7c-0.1-2.3,2.5-5,4.7-4.9
	C197.3,425.4,197.5,426.8,197.6,428.3z"/>
<path class="st4" d="M205.7,447.8c-1.5-0.1-2.6-0.8-2.6-2.6c0-2.2,1.9-4.8,3.6-4.9c1.5,0,3.3,1.7,3.4,3.4
	C210.2,445.7,208,447.8,205.7,447.8z"/>
<path class="st4" d="M183.3,458.5c-0.4-0.5-1.6-1.4-1.8-2.4c-0.4-2,1.9-4.6,3.7-4.7c1.6-0.1,3.1,1.3,3.2,3
	C188.5,456.2,186.1,458.5,183.3,458.5z"/>
<path class="st4" d="M278.1,450.2c0.1,2.1-0.8,3.3-2.5,3.4c-1.9,0.1-3.6-1.3-3.5-3c0-1.7,1.6-3.5,3.2-3.5
	C276.9,447,278,448.2,278.1,450.2z"/>
<path class="st4" d="M497.1,672.4c-0.9,0.9-1.6,2-2.2,2c-0.7-0.1-1.9-1.2-1.8-1.8c0-0.7,1.1-1.6,1.9-1.9
	C495.3,670.5,496.1,671.6,497.1,672.4z"/>
<path class="st4" d="M547.7,648c-0.6-0.5-1.3-1-1.3-1.2c0.1-0.6,0.5-1.3,1-1.5c0.4-0.1,1,0.6,1.5,0.9
	C548.5,646.7,548.2,647.2,547.7,648z"/>
<path class="st4" d="M553.8,656.3c-1,0.3-1.6,0.8-2.1,0.7c-0.5-0.2-1.1-0.8-1.3-1.3c-0.1-0.3,0.5-0.8,0.9-1.2
	C551.8,654.8,552.3,655.1,553.8,656.3z"/>
<path class="st4" d="M539.6,637.7c-0.7-0.9-1.5-1.9-2.2-2.8c0.3-0.3,0.6-0.5,0.9-0.8c0.8,0.8,1.6,1.6,2.4,2.5
	C540.4,636.9,540,637.3,539.6,637.7z"/>
<path class="st4" d="M501.3,672.9c0.6,1.2,1.2,2.4,2.1,4.1C501.1,676.3,501.4,674.5,501.3,672.9z"/>
<path class="st4" d="M472.7,663.7c-0.3,0.4-0.5,0.7-0.7,1c-0.4-0.3-0.8-0.6-1-1c-0.1-0.1,0.5-0.8,0.7-0.8
	C472,662.9,472.3,663.3,472.7,663.7z"/>
<path class="st4" d="M507.7,676.6c-0.3,0.2-0.6,0.4-0.8,0.6c-0.2-0.3-0.5-0.6-0.6-0.9c0,0,0.5-0.5,0.6-0.4
	C507.2,676,507.4,676.3,507.7,676.6z"/>
<path class="st4" d="M476.3,649c-0.5,0.3-0.9,0.6-1.2,0.5c-0.3-0.1-0.4-0.6-0.5-0.9c0-0.1,0.5-0.5,0.6-0.4
	C475.6,648.3,475.8,648.6,476.3,649z"/>
<path class="st4" d="M552.2,648.8c0.2,0.3,0.5,0.6,0.7,0.9c0,0.1-0.3,0.4-0.5,0.5c-0.3-0.3-0.5-0.5-0.7-0.8
	C551.6,649.4,552,649.1,552.2,648.8z"/>
<path class="st4" d="M530.5,632c-0.2-0.1-0.4-0.2-0.6-0.4c0.2-0.2,0.3-0.4,0.6-0.5c0.1,0,0.3,0.1,0.3,0.2
	C530.7,631.5,530.6,631.8,530.5,632z"/>
<path class="st4" d="M671,622.2c1.8-1.1,3.3-2.7,5.2-1.8c0.8,0.4,1.2,1.9,1.9,3.3C675.1,624.4,673,624.2,671,622.2z"/>
<path class="st4" d="M632.7,646.5c-3.3,1.4-4.6,0.5-6.2-4.1C628.6,643.7,630.6,645.1,632.7,646.5z"/>
<path class="st4" d="M664.3,611.5c1.9-0.9,3.5-1.6,5.5-2.5c0,2.8-1.5,3.9-3,4.6C665.5,614.2,664.6,613.4,664.3,611.5z"/>
<path class="st4" d="M636.6,644.4c2.6,0.6,3.7,2.5,5,4.5C638.6,649.2,637.8,648.4,636.6,644.4z"/>
<path class="st4" d="M657.3,610.1c0.9-3.6,0.9-3.6,4-3C660.9,609.1,659.7,610,657.3,610.1z"/>
<path class="st4" d="M611,649.9c-1.7-1.5-1.8-2.9-0.5-4.7C612.9,647.2,612.9,647.2,611,649.9z"/>
<path class="st4" d="M602.6,649.7c-2.4-1.7-1.4-3.2-0.3-5.4C603.8,646.3,603.7,647.7,602.6,649.7z"/>
<path class="st4" d="M596.3,636.5c-0.3-1.7,0.5-2.5,2.1-2.5c0.4,0,1.2,1.1,1,1.5C598.9,637,597.8,637.3,596.3,636.5z"/>
<path class="st4" d="M644.6,644c1,0.9,2,1.8,3.4,3C645.5,646.7,645.5,646.7,644.6,644z"/>
<path class="st4" d="M633.5,643c-0.5-0.5-1-0.8-1.2-1.2c-0.1-0.1,0.5-0.6,0.8-0.9c0.4,0.4,0.8,0.7,1.1,1.1
	C634.2,642,633.8,642.5,633.5,643z"/>
<path class="st4" d="M678,633.6c-0.1-0.4-0.3-0.7-0.4-1.1c0.3-0.1,0.7-0.3,0.7-0.2c0.2,0.3,0.4,0.7,0.6,1
	C678.6,633.4,678.4,633.5,678,633.6z"/>
<path class="st4" d="M681.6,631.8c-0.2-0.3-0.3-0.7-0.5-1c0.3-0.1,0.6-0.3,0.9-0.4c0.1,0.4,0.3,0.7,0.4,1.1
	C682.4,631.6,681.9,631.7,681.6,631.8z"/>
<path class="st4" d="M607,650.9c-0.2-0.1-0.5-0.3-0.5-0.4c0-0.2,0.2-0.4,0.4-0.6c0.2,0.1,0.5,0.3,0.5,0.4
	C607.4,650.5,607.2,650.7,607,650.9z"/>
<path class="st4" d="M600.3,627.6c-0.1-0.3-0.3-0.7-0.3-1c0-0.1,0.6-0.3,0.6-0.2c0.2,0.3,0.3,0.6,0.5,0.9
	C600.9,627.4,600.6,627.4,600.3,627.6z"/>
<path class="st4" d="M190.3,603.4c-2.5,1-4.3-0.6-5.8-1.6c-1.7-1.1-3-2.7-5.2-2.9c-0.4,0-1.1-1.1-1-1.6c0.1-0.5,1-1.3,1.5-1.2
	c0.9,0.1,1.9,0.5,2.7,1C184.9,599,187.3,601,190.3,603.4z"/>
<path class="st4" d="M181.7,591.4c-5.1,0-5.6-0.5-5.3-4.3C179.1,587.1,180,589.2,181.7,591.4z"/>
<path class="st4" d="M241.4,590c-4.2-1.7-4.3-1.8-5.9-4.9C238.2,585.8,240,586.9,241.4,590z"/>
<path class="st4" d="M238,594c-0.3,0.3-0.3,0.5-0.4,0.5c-1.5,0.7-2.9,0.6-3.5-1.2c-0.1-0.4,0.6-1.5,1.1-1.5
	C236.9,591.4,237.8,592.5,238,594z"/>
<path class="st4" d="M235.3,582.6c-0.3,0.2-0.9,0.5-1,0.4c-0.4-0.4-0.7-1-1.1-1.5c0.4-0.1,0.8-0.4,1.1-0.3c0.6,0.1,1.1,0.3,1.7,0.5
	C235.8,582,235.6,582.3,235.3,582.6z"/>
<path class="st4" d="M173.3,593.9c-0.7-0.7-1.3-1-1.4-1.4c-0.1-0.4,0.5-0.8,0.8-1.3c0.4,0.3,1.1,0.5,1.3,1
	C174.1,592.5,173.7,593.1,173.3,593.9z"/>
<path class="st4" d="M171.5,582.1c0.4,1,0.7,1.5,0.8,2c0,0.3-0.6,0.9-0.7,0.8c-0.5-0.2-0.9-0.6-1.3-1
	C170.3,583.8,170.7,583.3,171.5,582.1z"/>
<path class="st4" d="M226.9,580.6c0.5-0.5,0.9-0.9,1.1-0.9c0.4,0.2,0.8,0.6,1.2,0.9c-0.2,0.3-0.5,0.8-0.7,0.8
	C228,581.2,227.6,580.9,226.9,580.6z"/>
<path class="st4" d="M176.8,574.9c-0.1,0.4-0.2,0.6-0.3,0.8c-0.3-0.2-0.7-0.3-1-0.6c-0.1-0.1,0.2-0.7,0.2-0.7
	C176.1,574.6,176.5,574.8,176.8,574.9z"/>
<path class="st4" d="M318.7,636.1c3.6-1.4,4.9-0.9,6.2,2.6c-0.5,0.2-1.1,0.4-1.6,0.5c-0.5,0.1-1.1,0.1-1.7,0.2
	c0.1,0.6,0.1,1.1,0.2,1.4c0.4,1,0.7,2.2-0.8,2.3c-0.4,0-1.2-1.3-1.5-2C319.1,639.5,319,638,318.7,636.1z"/>
<path class="st4" d="M270.6,636.1c-2.4-0.5-3.1-1.8-3.6-3.7C270.4,632.6,270.4,632.6,270.6,636.1z"/>
<path class="st4" d="M247.1,628.7c1.5,1.9,0.9,3-0.4,3.9c-0.2,0.2-1.2-0.2-1.4-0.6C244.6,630.3,245.6,629.5,247.1,628.7z"/>
<path class="st4" d="M250.2,636.8c-2.8,3.4-2.8,3.4-5,0.3C246.8,637,248,636.9,250.2,636.8z"/>
<path class="st4" d="M322.8,628.7c0.5,1.3,0.9,2,1.1,2.9c0,0.2-0.8,0.6-1.2,0.9c-0.5-0.8-1-1.5-1.4-2.3
	C321.3,630,322,629.5,322.8,628.7z"/>
<path class="st4" d="M276.3,641.8c-1.6,0-2.6-0.5-2.6-2.3C276.2,639.6,276.2,639.6,276.3,641.8z"/>
<path class="st4" d="M272.4,644.5c-0.5,0.3-0.8,0.8-1.1,0.7c-0.3-0.1-0.6-0.5-0.9-0.8c0.3-0.3,0.6-0.7,0.8-0.7
	C271.6,643.7,271.9,644.1,272.4,644.5z"/>
<path class="st4" d="M282,647.1c-0.4,0.3-0.8,0.7-1,0.7c-0.3,0-0.5-0.5-0.8-0.7c0.3-0.3,0.5-0.7,0.8-0.7
	C281.3,646.3,281.5,646.7,282,647.1z"/>
<path class="st4" d="M315.8,629.1c-0.1-0.3-0.2-0.7-0.4-1.1c0.2-0.1,0.6-0.3,0.7-0.2c0.2,0.3,0.4,0.7,0.5,1
	C316.5,628.9,316.2,629,315.8,629.1z"/>
<path class="st4" d="M250.4,623.4c-0.3,0.2-0.5,0.6-0.6,0.5c-0.3-0.2-0.6-0.4-0.9-0.7c0.3-0.2,0.6-0.7,0.7-0.6
	C250,622.7,250.2,623.1,250.4,623.4z"/>
<path class="st4" d="M276.6,647.7c-0.2-0.3-0.4-0.7-0.6-1c0.3-0.1,0.6-0.3,1-0.4c0.1,0.4,0.3,0.7,0.4,1.1
	C277.2,647.4,276.9,647.5,276.6,647.7z"/>
<path class="st4" d="M300.9,617.1c0.2,0.3,0.3,0.6,0.5,0.9c-0.2,0.1-0.6,0.3-0.7,0.3c-0.3-0.2-0.4-0.5-0.6-0.8
	C300.2,617.3,300.5,617.2,300.9,617.1z"/>
<path class="st6" d="M475.6,336.4c-7.2,4.2-14.2,7.6-22.5,6.3c-4.9-0.8-8.2-3.4-8.7-8.4c-0.3-3.2,0-6.7,0.7-9.9
	c1.3-5.7,4.7-10.6,7.9-15.4c2.3-3.5,5.3-4.7,9.4-3.5c5,1.4,10,2.6,15.9,4.2C470.2,318.2,470.6,326.9,475.6,336.4z"/>
<path class="st5" d="M493.2,324.9c-0.6-2.2-1-3.7-1.5-5.2c-0.4-1.3-0.9-2.9-2.5-2.4c-1,0.3-2.1,1.5-2.4,2.6
	c-0.7,2.4-0.9,4.8-1.3,7.3c-0.2,1-0.2,2.3-0.8,2.8c-1.4,1.1-3.1,2.4-4.8,2.6c-2,0.2-2.6-2-3.1-3.7c-1.8-5.5-1.3-10.6,3.2-14.8
	c1.7-1.5,3.6-2.8,5.9-2.1c5.8,1.8,11.6,3.7,17.4,5.6c0.3,0.1,0.5,0.7,1,1.4C500.6,320.9,497.2,322.8,493.2,324.9z"/>
<path class="st6" d="M568.8,335.7c1.2-1.1,2.1-2,3.1-2.8c4.9-4.1,6.7-9,4.3-15.1c-0.5-1.2-0.9-2.5-1.5-3.6c-1.9-4.2-1.9-4.6,2.5-6.4
	c6-2.6,12.1-5.1,18.2-7.4c4.4-1.7,6.1-0.8,7.3,3.9c1,3.7,2,7.3,2.3,11.1c0.8,9.3-2.5,17.1-9.9,23c-0.7,0.5-1.5,1-2.3,1.2
	c-7.9,1.6-15.6,1.6-22.9-2.3C569.5,337,569.3,336.5,568.8,335.7z"/>
<path class="st5" d="M548.8,318.7c5.5-2.4,11-4.5,16.8-5.5c0.7-0.1,1.5,0.2,2.1,0.4c3.3,1.4,6.2,7.1,5.6,10.6
	c-0.5,3.2-4.9,7-8.4,7.4c-2.4,0.3-3.8-0.7-4.3-3.2c-0.4-2.1-0.6-4.3-0.9-6.5c-0.2-1.3-0.4-2.7-2.1-2.9c-1.7-0.2-2.1,1.1-2.5,2.4
	c-0.2,0.7-0.7,1.2-1,1.9C551.3,323.1,549.9,321.5,548.8,318.7z"/>
<path class="st5" d="M338.5,316.8c-0.9,7.1-1.6,13.9-5.3,19.9c-1.9,3.1-3.2,3.8-6.8,3.1c-5.6-1.2-10.6-3.1-12.8-9.2
	c-0.5-1.5-1.8-2.6-2.6-4c-3.5-6.3-1.2-12.7,5.7-15c4.5-1.5,9.2-2.8,13.8-3.9c4.5-1.2,6.1-0.2,7.3,4.3
	C338.2,313.6,338.3,315.3,338.5,316.8z M322.4,314.9c-0.5,5.5-1.6,11.1,0.4,16.7c0.5,1.3,1.5,2.6,3.9,1.8c0.4-5.3,1-10.7-0.5-16.1
	C325.8,315.8,325.1,314.5,322.4,314.9z"/>
<path class="st6" d="M337.8,338c1-3.7,1.9-6.9,2.8-10.1c1.7-6.3,1.9-12.6,0.9-19c-0.6-3.8-0.4-4.2,3.2-5.4c4.7-1.5,9.4-2.9,13.9-4.4
	C365.8,311.5,350.4,336.4,337.8,338z"/>
<path class="st6" d="M291.2,316.6c4.5-0.6,9-1.3,14.2-2c0,5.2,0,9.7,0,14.6c-0.3,0-1.3,0.3-1.8,0c-4.6-3.4-9.1-6.9-12.8-11.2
	C290.9,317.5,291.1,317.1,291.2,316.6z"/>
<path class="st4" d="M322.4,314.9c2.7-0.4,3.4,1,3.8,2.4c1.5,5.4,0.9,10.8,0.5,16.1c-2.4,0.8-3.4-0.5-3.9-1.8
	C320.8,325.9,321.9,320.3,322.4,314.9z"/>
</svg>
