<?xml version="1.0" encoding="utf-8"?>
<!DOCTYPE svg PUBLIC "-//W3C//DTD SVG 1.1//EN" "http://www.w3.org/Graphics/SVG/1.1/DTD/svg11.dtd">
<svg version="1.1" id="horizont--css-varriors" xmlns="http://www.w3.org/2000/svg"
	 width="1000" height="100" viewBox="0 0 1000 100">
<path class="back" fill="hsla(240, 10%, 24%, 0.75)" d="M0,100V50c0,0,20.7,10.4,29,4.6c12-8.4,24.6-27.5,39.6-29c15.1-1.6,29.7,8.6,44.9,7.4c13-1,29.9-4.6,39.5-13
	c3.5-3.1,8.6-10.9,13.7-7c7.9,6.1,16.9,6.9,26,4.1c6.3-1.9,11.5,4.1,17.9,1.2c5.6-2.5,20.4,8.2,25.8,10.1c6.1,2.1,13.5,1.8,19.9,3.1
	c8,1.7,14.3,7.7,22.7,3.8c7.4-3.5,11-9.1,18.3-13.5c1.6-1,12.5-15.1,12.1-15.1c0.9,0.2,12.3,10.5,12.5,12c1.2,7.7,7.1,9.5,13.1,12.1
	c3.7,1.6,12.8-1.3,16.2-3c11.6-5.4,4.9-2.2,13.5,5.9c12.9,12.1,25.1,0,35.3-8.4c4.5-3.7,8.5-7.9,12.4-12.2c4.9-5.3,3.8,0.5,8.2,5.2
	c4.9,5.3,10.4,9.7,17.5,11.4c2.1,0.5,6.2,1.6,7.8-0.3c1-1.1,3.2-5.3,5.7-4.5c6.9,2.2,13.6,7.3,21.3,4.7c8-2.7,12.7-5.9,20-9.8
	c4.7-2.5,5.2-13.6,12.3-9.1c6.2,3.9,9.1,9.6,16.5,12.8c3.6,1.6,3.5-1.9,6.6-2.6c2.9-0.6,5.6,2.8,7.8,4.1c5.3,3.2,11.9,5.2,18,3.3
	c7.8-2.5,11.8,1.6,18.6,5c7.5,3.8,16.3,2,24.2,0.2c14.4-3.3,28.1-11.7,42.5-15.2c6.4-1.5,15,4.3,21,6.3c7.5,2.5,15.4,3.3,23.4,2.1
	c4-0.6,7.5-6.5,11.3-8.5c5.5-2.9,8.7-12.4,14.6-11.2c7.4,1.5,10.9,7.8,16.8,11.2c6.9,4,12.8,4.7,20.3,6.4c14,3.1,31.7,12.6,45.9,5.3
	c6.7-3.4,13-6,19.4-10.2c4.4-2.9,13.4-7.6,18.9-7.2c6.2,0.5,15.6,1.7,21.5,3.2c7.9,2.1,14.8,7.9,23,9c6,0.8,10.2-0.2,16.2-0.8
	c6.2-0.6,11-5.5,15.9-8.7c5.8-3.7,7-8.8,9.9-11.1C920.2,2,931.1,0,931.1,0s22.4,18.4,37.5,20c8.4,0.9,9.1,5,15.2,10.6
	C989.7,36.1,1000,50,1000,50v50H0z"/>
<path class="front" fill="hsl(240, 15%, 12%)" d="M0,100V54c0,0,13.7,12.4,18.1,9.8c18.5-10.8,35.3-26,55.9-32.1c4.3-1.3,14.9,1.4,17.9,5.1
	c2.3,2.8,7.5,11,11.8,7.8c8.4-6.2,21.1-5.9,29.6,0.2c-5.7,5.5-13.7,7.9-19.7,12.8c5.1,3.7,16.7-6.2,21.6-8c6.5-2.4,16.4-3.5,21.7-8
	c5.7-4.8,13.9-6.6,19-11.2c7.2-6.5,17.7-2.9,25.9-4.6c9.8-2,18.2,0.4,27.5,3.2c7.7,2.3,18.6,3.6,25.9,6.5c6.3,2.5,11.3,4.6,11.3,12
	c0,7-7.5,13.6-6.3,20.1c3.4-1,3.6-6.8,5-9.6c2.7-5.5,6.3-10.8,10.9-14.8c3.8-3.3,9-5.2,11.7-9.6c0.8-1.6,1.7-3.2,2.7-4.8
	c2-2.4,6.2-0.9,7.8-3.3c2.3-3.2,3.8-5.5,6.7-8.2c6.2-5.9,3.5-2.7,7.8,0.2c4.8,3.3,6.9,5.3,9.8,10.4c2.4,4.2-5.3,7.1-6.5,10
	c6.9,0,8.3-8.5,16.1-5.6c4.1,1.5,6.7,2.4,11.1,0.9c1.1-0.4,9.7-4.4,10.7-3.1c7.6,10,17.3,16.1,29.6,19.3c9,2.4,17.6,8.5,26.9,9.1
	c8.3,0.5,15.9-0.7,23.2,4.5c6.6,4.6,13.2,10.1,18.9,15.7c3.9,3.8,17.5,7,23.1,8.7c-3.1-5.4-12-6.6-17.4-8.9
	c-8.6-3.7-16.2-11.8-23.2-17.9c7.3-5.7,16.7-4.7,23.8-10.1c3.5-2.7,2.5-7.9,6.2-10.1c1.7-0.9,5-2.4,6.8-3.2
	c8.9-3.8,17.4-8.7,24.3-15.7c6.8-7,13-0.8,20.3,3.4c8.2,4.7,15.6,2.4,24.7,5.5c3.4,1.1,9.7,4.8,13.2,2.7c5-3,6.8-4.1,12-0.8
	c9.1,5.9,18,10,27.8,14.3c4.9,2.2,10,3.9,15,5.9c4.5,1.8,11.6,1.7,15.3,4.5c3.4,2.5-29.8,10.9-28.7,9.9c11.4,4.7,25-3.7,34.5-9.2
	c10.9-6.3,22.3-10.2,33.2-16.5c7.4-4.3,19.4-8.3,25.6-14.1c1.9-1.8,19.8-17.6,20.8-17.1c8.9,4.5,15.2,11.5,24.9,15.1
	c13.2,4.9,28.7,5.2,41.3,10.4c9.5,3.9,20.5-0.6,29.6,5c10.2,6.2,22.7,10.5,31.2,18.7c-1.8,0.7-14,3.7-12.5,5.8
	c16-1.7,30.8-11.6,45.2-18.2c7.5-3.5,13.8-7.7,20.3-12.8c6.3-5,11.9-13.3,19.5-16.1C914.7,16,924.2,0.6,929.3,6
	c7.5,7.9,15.2,12.7,26.2,14.4c9.8,1.5,18.1,7,26.1,12.5c6,4,18.4,21.2,18.4,21.2v46H0z"/>
</svg>
