<?xml version="1.0" encoding="utf-8"?>
<!DOCTYPE svg PUBLIC "-//W3C//DTD SVG 1.1//EN" "http://www.w3.org/Graphics/SVG/1.1/DTD/svg11.dtd">
<svg id="ennoia-logo" fill="white" width="1000" height="200" viewBox="0 0 1000 200" xmlns="http://www.w3.org/2000/svg" version="1.1">
<rect style="opacity:0" width="1000" height="200"/>
<g>
	<g>
		<path d="M241.7,77.4l-15.4-8.9V50.8l15.4-8.9l15.4,8.9v17.7L241.7,77.4z M229,67l12.8,7.4l12.8-7.4V52.3l-12.8-7.4L229,52.3V67z"/>
		<polygon points="255.8,100.3 340.2,149 326.1,173.3 241.7,124.6 227.7,116.5 227.7,100.3 241.7,92.2"/>
		<path d="M326.1,77.4l-15.4-8.9V50.8l15.4-8.9l15.4,8.9v17.7L326.1,77.4z M313.4,67.1l12.8,7.4l12.8-7.4V52.3L326.1,45l-12.8,7.4V67.1z"/>
		<polygon points="312.1,67.8 312.1,84 326.1,92.1 340.2,84 340.2,67.8 326.1,59.7"/>
		<polygon points="312.1,100.3 312.1,116.5 326.1,124.6 340.2,116.5 340.2,100.3 326.1,92.1"/>
		<path d="M326.1,158.6l-15.4-8.9V132l15.4-8.9l15.4,8.9v17.7L326.1,158.6z M313.4,148.2l12.8,7.4l12.8-7.4v-14.7l-12.8-7.4l-12.8,7.4V148.2z"/>
		<polygon points="312.1,148.9 312.1,165.2 326.1,173.3 340.2,165.2 340.2,148.9 326.1,140.8"/>
		<polygon points="312.1,35.3 312.1,51.6 326.1,59.7 340.2,51.6 340.2,35.3 326.1,27.2"/>
		<polygon points="255.8,35.3 255.8,51.6 241.7,59.7 227.7,51.6 227.7,35.3 241.7,27.2"/>
		<polygon points="255.8,67.8 255.8,84 241.7,92.1 227.7,84 227.7,67.8 241.7,59.7"/>
		<path d="M241.7,158.6l-15.4-8.9V132l15.4-8.9l15.4,8.9v17.7L241.7,158.6z M229,148.2l12.8,7.4l12.8-7.4v-14.7l-12.8-7.4l-12.8,7.4V148.2z"/>
		<polygon points="255.8,165.2 255.8,149 241.7,140.9 227.7,149 227.7,165.2 241.7,173.3"/>
		<polygon points="255.8,116.5 255.8,100.3 241.7,92.1 227.7,100.3 227.7,116.5 241.7,124.6"/>
	</g>
	<g>
		<path d="M383.6,77.4l-15.4-8.9V50.8l15.4-8.9l15.4,8.9v17.7L383.6,77.4z M370.9,67l12.8,7.4l12.8-7.4V52.3l-12.8-7.4l-12.8,7.4V67z"/>
		<polygon points="397.7,100.3 482.1,149 468,173.3 383.6,124.6 369.6,116.5 369.6,100.3 383.6,92.2"/>
		<path d="M468,77.4l-15.4-8.9V50.8L468,42l15.4,8.9v17.7L468,77.4z M455.2,67.1l12.8,7.4l12.8-7.4V52.3L468,45l-12.8,7.4V67.1z"/>
		<polygon points="453.9,67.8 453.9,84 468,92.1 482.1,84 482.1,67.8 468,59.7"/>
		<polygon points="453.9,100.3 453.9,116.5 468,124.6 482.1,116.5 482.1,100.3 468,92.1"/>
		<path d="M468,158.6l-15.4-8.9V132l15.4-8.9l15.4,8.9v17.7L468,158.6z M455.2,148.2l12.8,7.4l12.8-7.4v-14.7l-12.8-7.4l-12.8,7.4V148.2z"/>
		<polygon points="453.9,148.9 453.9,165.2 468,173.3 482.1,165.2 482.1,148.9 468,140.8"/>
		<polygon points="453.9,35.3 453.9,51.6 468,59.7 482.1,51.6 482.1,35.3 468,27.2"/>
		<polygon points="397.7,35.3 397.7,51.6 383.6,59.7 369.6,51.6 369.6,35.3 383.6,27.2"/>
		<polygon points="397.7,67.8 397.7,84 383.6,92.1 369.6,84 369.6,67.8 383.6,59.7"/>
		<path d="M383.6,158.6l-15.4-8.9V132l15.4-8.9L399,132v17.7L383.6,158.6z M370.9,148.2l12.8,7.4l12.8-7.4v-14.7l-12.8-7.4l-12.8,7.4V148.2z"/>
		<polygon points="397.7,165.2 397.7,149 383.6,140.9 369.6,149 369.6,165.2 383.6,173.3"/>
		<polygon points="397.7,116.5 397.7,100.3 383.6,92.1 369.6,100.3 369.6,116.5 383.6,124.6"/>
	</g>
	<g>
		<path d="M755.2,118l-16.7-9.6l16.7-9.6l16.7,9.6L755.2,118z M743.8,108.4l11.5,6.6l11.5-6.6l-11.5-6.6L743.8,108.4z"/>
		<path d="M727.1,118l-16.7-9.6l16.7-9.6l16.7,9.6L727.1,118z M715.7,108.4l11.5,6.6l11.5-6.6l-11.5-6.6L715.7,108.4z"/>
		<path d="M755.2,150.4l-16.7-9.6l16.7-9.6l16.7,9.6L755.2,150.4z M743.8,140.8l11.5,6.6l11.5-6.6l-11.5-6.6L743.8,140.8z"/>
		<path d="M727.1,150.4l-16.7-9.6l16.7-9.6l16.7,9.6L727.1,150.4z M715.7,140.8l11.5,6.6l11.5-6.6l-11.5-6.6L715.7,140.8z"/>
		<g><path d="M755.2,85.5l-15.4-8.9V58.9l15.4-8.9l15.4,8.9v17.7L755.2,85.5z M742.5,75.1l12.8,7.4l12.8-7.4V60.4L755.2,53l-12.8,7.4	V75.1z"/><path d="M727.1,85.5l-15.4-8.9V58.9l15.4-8.9l15.4,8.9v17.7L727.1,85.5z M714.4,75.1l12.8,7.4l12.8-7.4V60.4L727.1,53l-12.8,7.4	V75.1z"/><polygon points="727.1,84 727.1,100.3 741.2,108.4 755.2,100.3 755.2,84 741.2,75.9	"/><polygon points="727.1,116.4 727.1,132.6 741.2,140.8 755.2,132.6 755.2,116.4 741.2,108.3	"/><polygon points="727.1,149 727.1,165.2 741.2,173.3 755.2,165.2 755.2,149 741.2,140.8	"/><polygon points="727.1,35.3 727.1,51.6 741.2,59.7 755.2,51.6 755.2,35.3 741.2,27.2	"/>
		</g>
	</g>
	<g>
		<g><path d="M856.1,175.3h-60.7l30.4-52.6L856.1,175.3z M799.9,172.7h51.7l-25.9-44.8L799.9,172.7z"/><path d="M912.3,175.3h-60.7l30.4-52.6L912.3,175.3z M856.1,172.7h51.7l-25.9-44.8L856.1,172.7z"/><path d="M968.5,175.3h-60.7l30.4-52.6L968.5,175.3z M912.3,172.7H964l-25.9-44.8L912.3,172.7z"/><path d="M909.3,175.2L879.7,124h59.1l0.8,1.3l-28.8,49.9L909.3,175.2z M884.2,126.6l25.9,44.8l25.9-44.8H884.2z"/><path d="M881.9,127.9l-29.6-51.2l0.9-1.4h57.4l0.8,1.4L881.9,127.9z M856.1,77.9l25.9,44.8l25.9-44.8H856.1L856.1,77.9z"/><path d="M884.2,126.6h-60.7L853.8,74L884.2,126.6z M828,124h51.7l-25.9-44.8L828,124z"/><path d="M940.4,126.6h-60.7L910.1,74L940.4,126.6z M884.2,124h51.7l-25.9-44.8L884.2,124z"/><path d="M912.3,77.9h-60.7l30.4-52.6L912.3,77.9z M856.1,75.3h51.7l-25.9-44.8L856.1,75.3z"/>
		</g>
		<g><polygon points="860.9,64.4 839.8,100.9 881.9,100.9	"/><polygon points="903,64.4 881.9,100.9 924.1,100.9	"/><polygon points="881.9,27.9 860.9,64.4 903,64.4	"/>
		</g>
		<g><polygon points="818.7,137.4 797.6,174 839.8,174	"/><polygon points="860.8,137.4 839.8,174 881.9,174	"/><polygon points="839.8,100.9 818.7,137.4 860.8,137.4	"/>
		</g>
		<g><polygon points="903,137.4 881.9,174 924.1,174	"/><polygon points="945.2,137.4 924.1,174 966.3,174	"/><polygon points="924.1,100.9 903,137.4 945.2,137.4	"/>
		</g>
	</g>
	<g>
		<rect x="30.8" y="35.7" width="138.2" height="29.8"/>
		<rect x="30.8" y="85" width="138.2" height="29.8"/>
		<rect x="30.8" y="135" width="138.2" height="29.8"/>
	</g>
	<g>
		<g><path d="M629.2,54.2l26.6,46.1l-26.6,46.1h-53.2l-26.6-46.1l26.6-46.1H629.2 M642.9,30.5h-80.6l-40.3,69.8l40.3,69.8h80.6	l40.3-69.8L642.9,30.5L642.9,30.5z"/>
		</g>
	</g>
</g>
</svg>
