<?xml version="1.0" encoding="utf-8"?>
<!-- Generator: Adobe Illustrator 16.0.0, SVG Export Plug-In . SVG Version: 6.00 Build 0)  -->
<!DOCTYPE svg PUBLIC "-//W3C//DTD SVG 1.1//EN" "http://www.w3.org/Graphics/SVG/1.1/DTD/svg11.dtd">
<svg version="1.1" id="Layer_1" xmlns="http://www.w3.org/2000/svg" xmlns:xlink="http://www.w3.org/1999/xlink" x="0px" y="0px"
	 width="600px" height="500px" viewBox="0 0 600 500" style="enable-background:new 0 0 600 500;" xml:space="preserve">
<style type="text/css">
<![CDATA[
	.st0{fill-rule:evenodd;clip-rule:evenodd;}
]]>
</style>
<path class="st0" d="M50,358.6c10-69.9,32.2-137.4,62.8-201.2c13.1-27.4,25.8-57.1,44.7-81c11.5-14.6,16.1-18.2,31.4-6.4
	c13.5,10.3,27,20.2,41.6,28.8c59.1,35.1,136.2,18.1,189.1-22.9c14.5-11.2,45-43.9,58-13.1c13.6,32.5,25.4,67.6,36.2,101.2
	c21.9,67.5,42.9,149.6,34.3,221c-0.3,2.8-10,10.1-11.9,14.5c-5.4,12.2-20.3,15.7-32.1,18.2c-33.1,7.1-70.6,20.5-104.5,21.2
	c-65.2,1.3-133.4,17.8-199.1,8c-34.2-5.1-67.4-13.1-100.1-24.5c-10.9-3.8-40.3-9.1-46.1-19.8C48.2,391.4,50.7,371.1,50,358.6
	C52.2,343.5,51,374.6,50,358.6z"/>
</svg>
