<?xml version="1.0" encoding="utf-8"?>
<!-- Generator: Adobe Illustrator 16.0.0, SVG Export Plug-In . SVG Version: 6.00 Build 0)  -->
<!DOCTYPE svg PUBLIC "-//W3C//DTD SVG 1.1//EN" "http://www.w3.org/Graphics/SVG/1.1/DTD/svg11.dtd">
<svg version="1.1" id="Layer_1" xmlns="http://www.w3.org/2000/svg" xmlns:xlink="http://www.w3.org/1999/xlink" x="0px" y="0px"
	 width="500px" height="500px" viewBox="0 0 500 500" style="enable-background:new 0 0 500 500;" xml:space="preserve">
<style type="text/css">
<![CDATA[
	.st0{opacity:8.000000e-002;fill-rule:evenodd;clip-rule:evenodd;}
	.st1{fill-rule:evenodd;clip-rule:evenodd;}
	.st2{fill-rule:evenodd;clip-rule:evenodd;fill:#FFFFFF;}
]]>
</style>
<path class="st0" d="M449.4,32.3c-5,1-2.1,12.6-5.3,15.5c-5.1-4.3-12.9-5.2-19-2.7c-10.4,4.1-5.7-2.2-12.1-11
	c-4.2,0.6-9.9-3.7-10.3,2.4c-0.6,8.1,5,16,4.5,24.9c-0.3,6-2.2,12.8-6.3,17.4c-2.5,2.8-15.9,9.1-13.2-0.1c1.8-6.2,9.5-8.3,11.5-15.7
	c1.1-4.3,1-19.4-5.4-20.9c-0.9,2.3-1.6,11-3.9,11.9c-4.9,1.9-12.8-6-20.8-2.2c-0.3-7.9,0.6-18.3-10.1-17.2
	c-6.4,0.6-9.5,1.2-10.5,7.1c-0.3,2.1-0.3,16.2-1.6,17.1c-1.2,0.8-11.2-2.6-13.3-2.5c-5.1,0.3-9.8,2.4-13.3,6.2
	c-2.7-4.7-1.6-11.1-5.3-15.4c-6.5,12.2,3.5,20.3,2.1,32.9c-0.7,5.9-12.5,26.7-20.7,18c-0.6-0.6,14.6-17.7,13-25.1
	c-1.1-5-4-9.8-4.3-15c-0.3-6.7,4-12.2,3.5-18.9c-0.4,0-17.6,3.4-15.2,5.3c-3-2.3-2.9-9.8-4-13.5c-2.1,0.1-8,27.5-8.8,30.5
	c-6.2-6.9-14.1-6.2-21.9-2.6c-1.8-3.1,0.5-12-0.2-15.9c-4.3,4-5.4,12.1-7.1,17.4c0.3-0.8-19,5-21,6c-4.2-9.5-2.3-18-10.1-26.2
	c-5.2,7.8-8.8,16.4-12.3,25.1c-9.3-5.1-17.9-5.3-27.9-1.7c-0.4-6.8,0.1-13.6-1.3-20.3c-12,12,2.3,19.2-2.8,31.7
	c-3,7.3-14.6,16.8-21.4,7.6c-3.5-4.7,12.6-4.4,14.8-10c2.4-6-3.5-10.9-3.7-17c-0.1-2.9,5.9-13.4,4.8-15c-3.4-5.2-16.5,2.5-19.5,4.3
	c-0.6-1.1-1.1-2.4-1.3-3.7c-2-0.2-5.2,13-7,15.1c-3.4-1.1-7.3-2.3-11-1.9c-1.8,0.2-11.2,5.6-11.8,5.3c-2.3-1.1-2.1-18.2-2.6-21.3
	c-9.9,5.2-13.5,19-6.2,27.7c2.5,3,10.7,8.6,6.4,13.6c-2.4,2.7-5.3,1.7-7.1-1c-7.5-11.3-13.3-20.5-6-33.7c11-19.9-13.6,0.1-17.2-1.2
	c-0.8-1.4-1.4-2.9-1.8-4.5c-3.1,0.2-10,13.1-11.9,15.8c-2.6,3.6-6-2.8-9.6-2.9c-12.2-0.6-6.2,16.2-2,20.7c0.3,0.3-19,6.9-21.3,7.9
	c6.8,3.5,14.3,4.9,21.6,6.8c-0.9,2.3-8.4,20.5-0.9,20.1c10.2-0.6,17.3,9.6,27.9,7.5c5.1-1,1.8,12.3-10.2,6.5
	c-9.1-4.3-11-7.4-20.9-3.1c1.7,7.6,10-3.9,7.4,5.9c-1,3.9,0.1,10.2,3.2,13c0.9,0.8-15.6,4.8-15.9,4.9c1.3,2.5,19.4,5.6,18,8.6
	c-4.7,10.3,0.6,13.3,4.5,21.5c-7.1,3.4-17.3,3.2-25.1,5c4.4,3,9.8,4.4,14.5,6.9c-2.9,2.6-4.8,8.3-4,12.1c0.4,1.7,5.3,9,4.9,10
	c-0.7,1.8-5.3,0.4-7.3,0.8c10.1,11.4,32.6-6.9,37.5,16.4c2.3,11-16.4-5.5-16.8-5.6c-8.4-1.6-15.4,0.1-23.7-3.2
	c-0.1,8.1,11.6,14.6,2.9,16.5c2.2,3.5,14.6,2.3,15.8,6.5c-1.1,2.1-2.3,4.2-3.6,6.1c-2.2,5.5-0.6,10.2,1.3,15.4
	c-5.6,1.3-11.3,2.6-16.9,3.9c-0.3,3.4,19.6,9.9,22.7,11.1c-6.6,5.4-7.1,18.3-1.5,24.4c-7.6,3.7-15.2,7.4-22.8,11.1
	c11.2,8.1,2.5,0.3,4.3,14.8c0.1,1.1,4.3,8.7,2.8,9.1c-6.3,1.6-11.9,3.9-17.5,7.1c10.5,7.4,25.6-3,36.7-3.7
	c4.1-0.2,28.6,4.9,19.5,12.6c-5.8,4.9-21.5-7.8-30.8-3.1c-10.6,5.3-22.9,3.8-33.7,0.4c-1.3,3.2,16.7,8.1,19.4,8.9
	c-0.5-0.1-3.3,18.7-2.2,21.6c1.5,4.1,19.8,6,18.4,8.7c-4.5,8.7-3.8,14.6-0.1,22.9c-6.3,2.2-12.7,3.8-18.8,6.7
	c3.5,1.5,15.6,3.2,17.6,6.1c0.6,0.9-1.8,16.3-1.7,18.4c3.3-0.8,6.4-14.3,10.4-10.5c6.9,6.5,16,3.2,22.7-1.2c2.1,6.6,4.7,13,8.9,18.5
	c3.8-5.3,5.7-12.1,8-18.1c0.6-1.7,9,6.2,9.6,6.5c14.4,8.2,8.9-18.1,5.6-24.6c-1.4-2.8-7.8-4.9-7.9-8c-0.2-5.1,6.5-5.9,9.4-3.6
	c10.3,7.7,11.6,19.2,10.5,31.3c7.1-5.5,0.3-4.3,8.8-1.2c6.9,2.5,9.8-3,13.4-7.1c3,6.6,5.9,13.2,8.9,19.8c4.6-7.1,2.8-25.2,12.4-16.3
	c-3.6-3.3,12.5-19.8,14.8-23c1.5-2.2,2.4-9.1,6.8-8.9c4.7,0.3,3.4,6.4,2.7,9.2c-2.2,8.7-18.8,14.5-14,24.8c3.3-0.2,7.8-7.5,9.5-7
	c0.2,0.1,4,23,4.8,25.7c5.3,0.1,1.5-19.1,6.9-19.5c7.5,10.2,15.1,2.6,22.5-1.3c0.5,4.1-0.7,25.4,5.3,25c1.9-8.3,1.9-18.8,5-26.6
	c7.4,10.7,17.5,3.1,24.9-1.8c1.3,2.5,3.7,18.4,5.7,18.1c0.5-3,0.3-9.2,2.4-11.7c-0.9,1,11.7,5.3,10.6,5.2c6.9,0.7,9.2-2.5,14-6.2
	c3.6,5.7,3.5,13.6,9.1,18.2c2.3-3.6,7.6-24.6,10.3-25.4c1.8-0.6,7.4,4.7,10.5,4.8c3.4,0.2,11.2-6.4,12.3-6c2,0.7,4.4,19.4,5,21.6
	c3.9-0.6,0.5-11,2.7-12.2c0.8-0.4,6.4,3.3,5.9,3c5.5,2.5,11.4,0.6,16.2-2.4c8.9-5.6,3.1,0.8,9.8,3.9c2.3-14.1-21.6-36.7,1.6-47.7
	c11.1-5.3-1.7,17.3-1.5,19.6c0.5,6.1,6.2,12.3,8.9,17.5c2.8,5.5-1.9,16.2,0.3,19.7c2.8-5.8,3.2-12.4,5-18.5
	c9.3,7.4,15.6,6.6,21.7-3.9c1.1,1.5,11.1,23.1,13.3,20.9c9.4-9.3,9.8-15.6,3.3-26.9c5.8,0.3,11.5-0.4,16.9-2.6
	c-3.8-3.4-7.9-6.2-12.6-8.1c-3.3-1.4-18.8-2.7-20.1-5.4c-1.1-2.3,4.6-7.6,5.4-10.3c2.1-7.5-1.3-12.3-5.5-18.1c7.2-2.3,15-4,20.8-9.1
	c-2.9-1.4-9.4-2.5-11.1-5.4c0.6,1.1,6.2-8.1,6-7.6c2.4-5.7,2-13.1-1.9-18c-3.3-4.2-12.3-5.6-17.3-4.6c-6.4,1.4-7.5,10.6-12.9,10.7
	c-12.1,0.3,1.5-17.3,9.3-18.2c11.2-1.3,29.1,9.5,38.3-0.5c-1.9-1-23.3-7.5-22-9.2c6.8-8.5,6.3-16.2,2.3-25.8
	c6.3-0.5,12.6-1.4,18.9-2.3c-6.7-4.9-21.4-5.5-17-13.6c6.2-11.4,2.8-14.5,0-25.7c6.2-0.8,11.8-3.7,17.6-5.8
	c-7.6-5.9-21.5-0.6-14.3-12c3.2-5-0.6-19.7-0.2-20.2c2.1-2.7,15.2-3.3,18.9-4.1c-14-15.4-45.9,16.4-55.3-10.9
	c-0.9-2.7,0.3-8.2,4.2-8.1c5.6,0.1,5,9.6,9.8,12.1c5.9,3.1,12.5,0.5,18.1-1.6c8.9-3.4,15.8-2.8,24.9-0.7c-0.2-2.5-12.2-6.8-14.7-8.3
	c6.4-9.5,1.1-15.2-1.6-24.4c3.7,1.1,7.5,1.3,11.3,0.6c-1.5-5.4-14.8-7.5-18.8-10c7-5.3,5.8-13.1,1.2-19.4c4.5,0.6,8.9,0.4,13.3-0.5
	c0.2-1.4-15-7.4-16.8-8.2c4.2-3.7,6-9.6,5.2-15c-0.4-3-5.4-7.7-5.2-10c0.1-1.4,18.4-0.7,20.5-1.1c-4.6-4.9-12.1-7-17.7-10.8
	c5.5-7.2,3.8-10.6,0.6-18.9c2.8,0.7,5.6,0.6,8.3-0.4c-6.9-4.3-25-9.7-27,3.3c-3,19.1-16.7,1-5.4-10c14.1-13.7,24.5-0.3,39.4-0.5
	c14.1-0.2,8.9-26.9-7.2-15.8C450.6,37.2,450,34.8,449.4,32.3C449.2,32.4,450,34.7,449.4,32.3z"/>
<path class="st1" d="M0,0h500v500H0V0z M449.4,32.3c-5,1-2.1,12.6-5.3,15.5c-5.1-4.3-12.9-5.2-19-2.7c-10.4,4.1-5.7-2.2-12.1-11
	c-4.2,0.6-9.9-3.7-10.3,2.4c-0.6,8.1,5,16,4.5,24.9c-0.3,6-2.2,12.8-6.3,17.4c-2.5,2.8-15.9,9.1-13.2-0.1c1.8-6.2,9.5-8.3,11.5-15.7
	c1.1-4.3,1-19.4-5.4-20.9c-0.9,2.3-1.6,11-3.9,11.9c-4.9,1.9-12.8-6-20.8-2.2c-0.3-7.9,0.6-18.3-10.1-17.2
	c-6.4,0.6-9.5,1.2-10.5,7.1c-0.3,2.1-0.3,16.2-1.6,17.1c-1.2,0.8-11.2-2.6-13.3-2.5c-5.1,0.3-9.8,2.4-13.3,6.2
	c-2.7-4.7-1.6-11.1-5.3-15.4c-6.5,12.2,3.5,20.3,2.1,32.9c-0.7,5.9-12.5,26.7-20.7,18c-0.6-0.6,14.6-17.7,13-25.1
	c-1.1-5-4-9.8-4.3-15c-0.3-6.7,4-12.2,3.5-18.9c-0.4,0-17.6,3.4-15.2,5.3c-3-2.3-2.9-9.8-4-13.5c-2.1,0.1-8,27.5-8.8,30.5
	c-6.2-6.9-14.1-6.2-21.9-2.6c-1.8-3.1,0.5-12-0.2-15.9c-4.3,4-5.4,12.1-7.1,17.4c0.3-0.8-19,5-21,6c-4.2-9.5-2.3-18-10.1-26.2
	c-5.2,7.8-8.8,16.4-12.3,25.1c-9.3-5.1-17.9-5.3-27.9-1.7c-0.4-6.8,0.1-13.6-1.3-20.3c-12,12,2.3,19.2-2.8,31.7
	c-3,7.3-14.6,16.8-21.4,7.6c-3.5-4.7,12.6-4.4,14.8-10c2.4-6-3.5-10.9-3.7-17c-0.1-2.9,5.9-13.4,4.8-15c-3.4-5.2-16.5,2.5-19.5,4.3
	c-0.6-1.1-1.1-2.4-1.3-3.7c-2-0.2-5.2,13-7,15.1c-3.4-1.1-7.3-2.3-11-1.9c-1.8,0.2-11.2,5.6-11.8,5.3c-2.3-1.1-2.1-18.2-2.6-21.3
	c-9.9,5.2-13.5,19-6.2,27.7c2.5,3,10.7,8.6,6.4,13.6c-2.4,2.7-5.3,1.7-7.1-1c-7.5-11.3-13.3-20.5-6-33.7c11-19.9-13.6,0.1-17.2-1.2
	c-0.8-1.4-1.4-2.9-1.8-4.5c-3.1,0.2-10,13.1-11.9,15.8c-2.6,3.6-6-2.8-9.6-2.9c-12.2-0.6-6.2,16.2-2,20.7c0.3,0.3-19,6.9-21.3,7.9
	c6.8,3.5,14.3,4.9,21.6,6.8c-0.9,2.3-8.4,20.5-0.9,20.1c10.2-0.6,17.3,9.6,27.9,7.5c5.1-1,1.8,12.3-10.2,6.5
	c-9.1-4.3-11-7.4-20.9-3.1c1.7,7.6,10-3.9,7.4,5.9c-1,3.9,0.1,10.2,3.2,13c0.9,0.8-15.6,4.8-15.9,4.9c1.3,2.5,19.4,5.6,18,8.6
	c-4.7,10.3,0.6,13.3,4.5,21.5c-7.1,3.4-17.3,3.2-25.1,5c4.4,3,9.8,4.4,14.5,6.9c-2.9,2.6-4.8,8.3-4,12.1c0.4,1.7,5.3,9,4.9,10
	c-0.7,1.8-5.3,0.4-7.3,0.8c10.1,11.4,32.6-6.9,37.5,16.4c2.3,11-16.4-5.5-16.8-5.6c-8.4-1.6-15.4,0.1-23.7-3.2
	c-0.1,8.1,11.6,14.6,2.9,16.5c2.2,3.5,14.6,2.3,15.8,6.5c-1.1,2.1-2.3,4.2-3.6,6.1c-2.2,5.5-0.6,10.2,1.3,15.4
	c-5.6,1.3-11.3,2.6-16.9,3.9c-0.3,3.4,19.6,9.9,22.7,11.1c-6.6,5.4-7.1,18.3-1.5,24.4c-7.6,3.7-15.2,7.4-22.8,11.1
	c11.2,8.1,2.5,0.3,4.3,14.8c0.1,1.1,4.3,8.7,2.8,9.1c-6.3,1.6-11.9,3.9-17.5,7.1c10.5,7.4,25.6-3,36.7-3.7
	c4.1-0.2,28.6,4.9,19.5,12.6c-5.8,4.9-21.5-7.8-30.8-3.1c-10.6,5.3-22.9,3.8-33.7,0.4c-1.3,3.2,16.7,8.1,19.4,8.9
	c-0.5-0.1-3.3,18.7-2.2,21.6c1.5,4.1,19.8,6,18.4,8.7c-4.5,8.7-3.8,14.6-0.1,22.9c-6.3,2.2-12.7,3.8-18.8,6.7
	c3.5,1.5,15.6,3.2,17.6,6.1c0.6,0.9-1.8,16.3-1.7,18.4c3.3-0.8,6.4-14.3,10.4-10.5c6.9,6.5,16,3.2,22.7-1.2c2.1,6.6,4.7,13,8.9,18.5
	c3.8-5.3,5.7-12.1,8-18.1c0.6-1.7,9,6.2,9.6,6.5c14.4,8.2,8.9-18.1,5.6-24.6c-1.4-2.8-7.8-4.9-7.9-8c-0.2-5.1,6.5-5.9,9.4-3.6
	c10.3,7.7,11.6,19.2,10.5,31.3c7.1-5.5,0.3-4.3,8.8-1.2c6.9,2.5,9.8-3,13.4-7.1c3,6.6,5.9,13.2,8.9,19.8c4.6-7.1,2.8-25.2,12.4-16.3
	c-3.6-3.3,12.5-19.8,14.8-23c1.5-2.2,2.4-9.1,6.8-8.9c4.7,0.3,3.4,6.4,2.7,9.2c-2.2,8.7-18.8,14.5-14,24.8c3.3-0.2,7.8-7.5,9.5-7
	c0.2,0.1,4,23,4.8,25.7c5.3,0.1,1.5-19.1,6.9-19.5c7.5,10.2,15.1,2.6,22.5-1.3c0.5,4.1-0.7,25.4,5.3,25c1.9-8.3,1.9-18.8,5-26.6
	c7.4,10.7,17.5,3.1,24.9-1.8c1.3,2.5,3.7,18.4,5.7,18.1c0.5-3,0.3-9.2,2.4-11.7c-0.9,1,11.7,5.3,10.6,5.2c6.9,0.7,9.2-2.5,14-6.2
	c3.6,5.7,3.5,13.6,9.1,18.2c2.3-3.6,7.6-24.6,10.3-25.4c1.8-0.6,7.4,4.7,10.5,4.8c3.4,0.2,11.2-6.4,12.3-6c2,0.7,4.4,19.4,5,21.6
	c3.9-0.6,0.5-11,2.7-12.2c0.8-0.4,6.4,3.3,5.9,3c5.5,2.5,11.4,0.6,16.2-2.4c8.9-5.6,3.1,0.8,9.8,3.9c2.3-14.1-21.6-36.7,1.6-47.7
	c11.1-5.3-1.7,17.3-1.5,19.6c0.5,6.1,6.2,12.3,8.9,17.5c2.8,5.5-1.9,16.2,0.3,19.7c2.8-5.8,3.2-12.4,5-18.5
	c9.3,7.4,15.6,6.6,21.7-3.9c1.1,1.5,11.1,23.1,13.3,20.9c9.4-9.3,9.8-15.6,3.3-26.9c5.8,0.3,11.5-0.4,16.9-2.6
	c-3.8-3.4-7.9-6.2-12.6-8.1c-3.3-1.4-18.8-2.7-20.1-5.4c-1.1-2.3,4.6-7.6,5.4-10.3c2.1-7.5-1.3-12.3-5.5-18.1c7.2-2.3,15-4,20.8-9.1
	c-2.9-1.4-9.4-2.5-11.1-5.4c0.6,1.1,6.2-8.1,6-7.6c2.4-5.7,2-13.1-1.9-18c-3.3-4.2-12.3-5.6-17.3-4.6c-6.4,1.4-7.5,10.6-12.9,10.7
	c-12.1,0.3,1.5-17.3,9.3-18.2c11.2-1.3,29.1,9.5,38.3-0.5c-1.9-1-23.3-7.5-22-9.2c6.8-8.5,6.3-16.2,2.3-25.8
	c6.3-0.5,12.6-1.4,18.9-2.3c-6.7-4.9-21.4-5.5-17-13.6c6.2-11.4,2.8-14.5,0-25.7c6.2-0.8,11.8-3.7,17.6-5.8
	c-7.6-5.9-21.5-0.6-14.3-12c3.2-5-0.6-19.7-0.2-20.2c2.1-2.7,15.2-3.3,18.9-4.1c-14-15.4-45.9,16.4-55.3-10.9
	c-0.9-2.7,0.3-8.2,4.2-8.1c5.6,0.1,5,9.6,9.8,12.1c5.9,3.1,12.5,0.5,18.1-1.6c8.9-3.4,15.8-2.8,24.9-0.7c-0.2-2.5-12.2-6.8-14.7-8.3
	c6.4-9.5,1.1-15.2-1.6-24.4c3.7,1.1,7.5,1.3,11.3,0.6c-1.5-5.4-14.8-7.5-18.8-10c7-5.3,5.8-13.1,1.2-19.4c4.5,0.6,8.9,0.4,13.3-0.5
	c0.2-1.4-15-7.4-16.8-8.2c4.2-3.7,6-9.6,5.2-15c-0.4-3-5.4-7.7-5.2-10c0.1-1.4,18.4-0.7,20.5-1.1c-4.6-4.9-12.1-7-17.7-10.8
	c5.5-7.2,3.8-10.6,0.6-18.9c2.8,0.7,5.6,0.6,8.3-0.4c-6.9-4.3-25-9.7-27,3.3c-3,19.1-16.7,1-5.4-10c14.1-13.7,24.5-0.3,39.4-0.5
	c14.1-0.2,8.9-26.9-7.2-15.8C450.6,37.2,450,34.8,449.4,32.3C449.2,32.4,450,34.7,449.4,32.3z"/>
<g>
	<path class="st2" d="M458.3,436.7c-0.4,2.5,0.7,5,2.3,7.3c2.3,3.3,5.5,5,9.4,5.9c3.6,0.8,8.4-1.4,9.4-5c1-3.6,1.6-7.3,0.1-11.1
		c-1.4-3.4-4-5-7.4-5.8c-2.3-0.5-4.6-0.2-6.9,0.2C460.6,429.1,458.3,431.7,458.3,436.7z"/>
	<path class="st2" d="M471,363.6c2.6-0.3,4.9-1.3,6.5-3.5c1.6-2.1,2.6-4.4,1.4-7.1c-1.6-3.4-3.5-6.5-6.8-8.6c-2-1.2-4.2-2.3-6.5-2
		c-2.3,0.3-4.6,0.9-6.9,1.6c-5.4,1.6-5.4,7.2-3,10.6c1.1,1.6,2.6,2.9,4,4.3C462.7,362.1,466.6,363.1,471,363.6z"/>
	<path class="st2" d="M475.9,155c-1,0.1-2,0.2-2.9,0.4c-3.1,0.6-5,2.9-6.8,5.3c-1.7,2.3-1.3,5.3,0.6,7.3c2.2,2.4,4.9,4.1,8,4.9
		c2.1,0.6,4.3,1.2,6.5,1.2c3.7,0,6.9-1.8,9.2-4.8c0.6-0.7,1.1-1.8,1-2.7c-0.3-2.7-1.5-5-3.3-6.9C484.8,156.3,480.6,155.1,475.9,155z
		"/>
	<path class="st2" d="M377.6,450.1c-0.1-1,0-2.1-0.4-2.9c-0.8-1.9-1.5-4.2-3-5.5c-3.7-3.4-9.8-2.8-13,1.1
		c-3.9,4.6-5.4,10.3-1.9,15.9c1.7,2.7,6.2,4.5,9.2,3.7C373.9,460.8,377.5,455.3,377.6,450.1z"/>
	<path class="st2" d="M27.6,89.7c-0.2,3.3,0.6,6.1,3,8c1.4,1.1,3,1.8,4.6,2.6c4.6,2.3,9.3,1.8,14,0.4c1.4-0.4,2.6-1.5,2.8-3
		c0.4-2.9-0.3-5.4-2.4-7.7c-2.1-2.2-4.8-3.5-7.4-4.9c-3.3-1.6-6.8-2.1-10.4-1.8c-0.9,0.1-1.8,0.7-2.6,1.2
		C27.4,86.1,27.4,88,27.6,89.7z"/>
	<path class="st2" d="M60.2,464c0.2-2.8-0.8-5.2-3-7.1c-2.2-2-5.8-2.4-8.2-0.6c-1.5,1.1-2.9,2.4-4.1,3.8c-1.6,1.9-3.3,4-3.6,6.6
		c-0.3,1.9-0.6,3.8-0.4,5.6c0.3,3.3,1.6,4.7,4.5,5.2c1.5,0.2,3.3,0.1,4.7-0.4C55.7,475.4,60.3,470.8,60.2,464z"/>
	<path class="st2" d="M148.2,467.9c0.5,1.5,0.7,3.2,1.5,4.5c1.5,2.7,6.5,3.4,9.2,2.5c4.8-1.7,7.9-5.3,8.9-10.2
		c0.5-2.6,0.3-5.4-1.9-7.5c-3.6-3.3-7.5-3.6-11.3-0.6c-0.9,0.7-1.6,1.6-2.4,2.4C149.8,461.5,148.6,464.4,148.2,467.9z"/>
	<path class="st2" d="M462.2,463.3c0-3,0-3.2-1.6-5.3c-2.6-3.3-7.1-4.6-10.4-2c-1.6,1.2-3,2.9-4,4.6c-2.3,3.8-3.2,7.9-0.5,11.8
		c1.6,2.4,3.8,4.6,7.2,3.9c2.7-0.6,4.9-2.4,6.7-4.5C461.6,469.3,462.4,466.3,462.2,463.3z"/>
	<path class="st2" d="M21.2,371.9c0.1,1.2,0.1,2.9,0.4,4.5c0.2,1,0.5,2.2,1.2,3c3.6,3.8,7.8,6.3,13.2,4.4c1.5-0.5,3.2-1.7,3.9-3.1
		c1.3-2.7,0.5-5.6-0.5-8.3c-1.2-3.3-3.8-5.2-7-6.4c-2.6-1-5.2-0.8-7.8-0.2C21.9,366.5,21.2,368,21.2,371.9z"/>
	<path class="st2" d="M223.9,31.6c0.8-0.1,1.6-0.2,2.3-0.4c2-0.4,3-2.1,4.4-3.2c3.3-2.8,4.4-6.6,4.1-10.7c-0.3-4.2-2.9-7.1-7.1-6.6
		c-3.1,0.3-5.9,2-7.9,4.5c-2.2,2.6-3.5,5.6-3.1,9.2C217,28.4,219.5,31.8,223.9,31.6z"/>
	<path class="st2" d="M144.6,455c0-4.1-1.7-6-5.7-6.4c-0.2,0-0.5-0.1-0.7-0.2c-1.8-0.3-3.6-0.9-5.2,0.7c-1.5,1.5-3.1,2.9-4.6,4.4
		c-2.8,2.7-3.2,6-2.4,9.6c0.1,0.5,0.2,1.1,0.6,1.5c1.8,1.8,3.6,3.4,6.7,2.9C139.3,466.4,144.9,461.8,144.6,455z"/>
	<path class="st2" d="M95.6,21.1c-0.1,3.5,0.7,5.8,2,7.9c1,1.6,2.7,2.3,4.4,1.5c2-0.9,3.8-2.1,5.7-3.1c4.7-2.5,7.2-10.4,4.8-14.8
		c-0.9-1.6-1.9-3.3-3.8-3.3c-2,0-4.2,0.1-5.9,0.9C98,12.7,96.1,17,95.6,21.1z"/>
	<path class="st2" d="M56.5,289.3c0.6-0.1,1.5-0.2,2.3-0.4c2.3-0.8,3.7-2.5,4.5-4.8c0.9-2.2,0.5-4.5-0.3-6.5
		c-1.4-3.9-4.6-6.2-8.3-7.9c-2.8-1.2-5.7-0.1-7.1,2.7c-1.2,2.5-1.6,5.2-0.8,7.9C48.3,285.6,51.8,288.7,56.5,289.3z"/>
	<path class="st2" d="M159.7,23.9c0.1,1-0.1,1.8,0.2,2.3c1.1,1.9,2.3,3.7,4.6,4.5c3.8,1.3,7.4,1.2,10.1-1.8c2.3-2.4,3.5-5.7,3.6-9.1
		c0-1,0-2.4-0.6-2.9c-1.7-1.4-3.5-2.9-5.5-3.6c-2.7-0.9-5.4,0.2-7.6,2C161.7,17.7,160,20.6,159.7,23.9z"/>
	<path class="st2" d="M329.1,464.5c-0.5-1.4-0.7-2.9-1.5-4.1c-2.6-3.8-8.6-4.2-12-1c-2.4,2.3-3.7,5.1-4.3,8.2
		c-0.5,2.6,0.5,4.9,2.4,6.7c1.5,1.6,3.3,2.2,5.6,1.8C324.5,475.2,329.1,469.5,329.1,464.5z"/>
	<path class="st2" d="M488.3,173.6c-0.2,0-0.4,0-0.6,0.1c-2,1-4.1,1.7-6.4,1.6c-4.9-0.2-9.4-1.7-13.3-4.7c-0.7-0.5-1.3-1-1.8,0.1
		c-0.9,1.8-1.1,3.7-0.6,5.8c0.9,3.9,3.4,6.4,6.6,8.3c5.7,3.3,14.2,3.2,17.3-4.6c0.3-0.7,0.3-1.5,0.1-2.3
		C489.2,176.6,488.7,175.2,488.3,173.6z"/>
	<path class="st2" d="M373.6,13.2c0.2-6-4-7.3-7.7-6.4c-5.8,1.5-9.9,5.4-11.1,11.6c-0.2,1.2,0.8,4.2,2.3,5c2.7,1.3,5.5,1.2,8.4,0.6
		c1.2-0.3,2.6-0.5,3.6-1.3C372,20.4,373.7,17.4,373.6,13.2z"/>
	<path class="st2" d="M314.4,11.7c-0.3,0.1-0.9,0.1-1.4,0.3c-3,0.7-5.3,2.6-7.2,4.8c-2.2,2.6-3.5,7.1-1,10.6c1.5,2,4,3.3,6.4,2.7
		c3.6-0.9,6.5-2.8,8.7-5.7c1.9-2.5,2.3-5.3,1.3-8.2C320.2,12.9,317.7,11.9,314.4,11.7z"/>
	<path class="st2" d="M438.2,17.4c-0.8,0.3-2.3,0.8-3.6,1.6c-3.7,2.2-5.8,6.4-4.7,10.7c0.9,3.4,4.1,5.8,7.4,5.3
		c3.3-0.5,6.4-1.4,8.6-4.5c2.4-3.3,3-6.2,1.1-9.3C445.1,18.2,442.2,17.7,438.2,17.4z"/>
	<path class="st2" d="M487.1,53.3c0.7-0.1,1.4,0,2-0.2c3.6-1,4.9-3.3,4.5-7.5c-0.5-5.2-6.8-10.1-11.8-8.9c-1.9,0.4-3.7,1.2-5.5,2.1
		c-2.6,1.4-3.2,5.6-1.1,7.7c1.1,1.1,2.2,2.2,3.3,3.3C480.9,52.1,483.8,53.1,487.1,53.3z"/>
	<path class="st2" d="M26.6,211.9c0.1,1,0.2,2.1,0.4,3.1c0.8,3.9,3.8,8,8.8,7.9c4.1-0.1,7.1-2.1,8.8-5.5c1.9-3.8,1.6-5.3-1.3-7.9
		c-0.3-0.3-0.7-0.6-1.1-0.7c-2.7-1-5.3-2.2-8.1-2.7C29.7,205.2,26.5,207.5,26.6,211.9z"/>
	<path class="st2" d="M391.6,448.5c-0.4-1.1-0.9-2.6-1.7-4c-1.3-2.5-3-4.9-6-5.3c-1.9-0.3-3.9,0.1-5.8,0.5c-2.1,0.4-2.2,1.2-1.2,3
		c2.4,4.2,2.8,8.5,0.6,13c-0.5,1.1-0.5,2,0.4,2.8c3,2.9,6.7,3,9.7,0.2C390.4,456.2,391,452.6,391.6,448.5z"/>
	<path class="st2" d="M459.4,96.1c-2-0.4-4.3,0.9-6.1,3.1c-1.1,1.3-2.1,2.9-1.6,4.6c0.6,2.1,1.9,3.9,3.6,5.1
		c3.2,2.2,6.9,2.9,10.8,2.5c2.9-0.3,4.9-1.9,6-5.3c0.6-1.9-0.6-5.5-2.2-6.7C467.2,97.1,463.9,96.2,459.4,96.1z"/>
	<path class="st2" d="M414.2,459.3c-1.3,0.4-3.3,0.8-5,1.7c-2.6,1.5-3.8,4-4.4,6.9c-0.8,3.7,1,7,3.8,8.5c3.5,1.9,9.1-0.3,11.5-3.6
		c2.2-3,2.4-6.3,0.5-9.7C419.4,460.7,417.4,459.7,414.2,459.3z"/>
	<path class="st2" d="M401.7,16c0-2.4-0.4-3-1.4-4.4c-2.3-2.9-5.2-3.5-8.6-2.9c-2.8,0.5-5.2,1.7-6.8,4.3c-1.1,1.7-1.4,3.6-1.7,5.6
		c-0.3,2.4,1.6,5.8,3.9,6.1c2.1,0.3,4.3,0.4,6.4,0.3C398.1,24.8,401.7,20.7,401.7,16z"/>
	<path class="st2" d="M335.6,36.5c-0.3-0.9-0.6-2-0.9-3.1c-0.7-3.1-4.3-4.2-6.5-3.8c-5.6,1.1-10.7,7.8-10,13.1
		c0.4,3.1,3.4,5.7,6.5,5.6c3.1-0.2,5.7-1.3,7.5-3.9C333.9,42.1,335.1,39.6,335.6,36.5z"/>
	<path class="st2" d="M166.6,471.6c0.2,0.2,0.6,0.3,0.9,0.6c3.3,3.7,7.5,2.2,10.5-0.4c2.5-2.2,3.1-5.4,3.9-8.5c0.7-2.7,0.1-5-1.7-7
		c-3-3.4-8.3-3.3-11.6-1.5c-1.4,0.7-1.3,1.2-0.6,2.6c1.2,2.3,2,4.9,1.2,7.5C168.5,467.3,167.5,469.4,166.6,471.6z"/>
	<path class="st2" d="M21.2,401.3c-0.2,3.2,1.1,5.7,3.4,7.9c3.2,3.1,8.6,3.7,12.3,1.4c3-1.9,3.6-4.5,2.3-7.3c-0.8-1.8-2.5-3.3-4-4.7
		c-2.1-1.9-4.9-2.5-7.6-2.6C24,395.9,20.7,396.9,21.2,401.3z"/>
	<path class="st2" d="M466.4,231.7c0.6,0,1.2,0,1.8,0c2.5-0.1,4.5-1.6,5.1-3.8c0.4-1.8,0-3.5-0.8-5.1c-1.4-3-3.4-5.2-6.9-5.9
		c-1.8-0.4-3.6-0.5-5.4-0.3c-1.7,0.1-3,0.7-3.8,2.1c-1,1.7-1.8,3.4-1.2,5.6c0.5,2,1.3,3.7,2.7,4.7
		C460.5,230.6,463.3,232,466.4,231.7z"/>
	<path class="st2" d="M41.1,114.3c2.1,0,4.1-0.4,6-1.5c4-2.3,5-4.9,3.1-8.7c-0.8-1.5-1.6-1.8-3.3-1.6c-2.1,0.2-4.1,0.3-6.2,0.4
		c-2.6,0.1-4.9-0.9-7.2-2.1c-1.2-0.6-2.1-0.5-2.8,0.6c-0.4,0.6-0.7,1.2-0.9,1.8c-0.7,2.2-0.9,4.8,0.7,6.4
		C33.3,112.4,36.9,114.3,41.1,114.3z"/>
	<path class="st2" d="M34.8,57.7c-1.2,0.1-2.3,0.2-3.4,0.4c-2.2,0.4-3.5,2-3.6,4.3c0,0.8,0,1.6,0,2.5c-0.1,3.2,1.3,5.6,3.9,7.2
		c2.4,1.4,5,2.5,7.9,1.8c3.1-0.8,4.7-3.3,5.4-6.3c0.6-2.7-0.8-4.9-2.4-6.7C40.5,58.8,37.6,58,34.8,57.7z"/>
	<path class="st2" d="M47.5,17.8c0.4-1.4-0.5-2.5-1.6-3.5c-2.3-2.1-4.7-3.6-7.9-4c-4.2-0.5-7.2,1-7.9,4.6c-0.5,2.6-0.4,5.3,1.9,7.4
		c1.6,1.5,3.3,2.5,5.3,3.1C42.3,26.8,47.4,23.8,47.5,17.8z"/>
	<path class="st2" d="M266.7,445.5c-0.3-1.1-0.6-2.2-0.8-3.3c-1.1-5.5-5.2-5.7-8.7-3.9c-5.1,2.6-7.8,7.3-4.8,13.4
		c1.3,2.7,2.6,4.5,6.2,3.6C262.7,454.2,267.1,449.3,266.7,445.5z"/>
	<path class="st2" d="M195.7,46.6c0,0.3,0,0.6,0,0.9c0.2,3.6,5.5,6.9,8.5,5c3.2-2,5.8-4.8,7.4-8.2c1.9-3.9-1-8.3-3.9-8.7
		c-2.8-0.3-5.5,0.2-7.8,1.8C196.7,39.6,195.7,42.9,195.7,46.6z"/>
	<path class="st2" d="M459.8,252.9c-1.1,0.3-2.2,0.4-3.2,0.9c-2.5,1.2-3.2,3.9-3.3,6.2c-0.1,1.7-0.2,3.9,1.2,5.5
		c1.7,1.9,3.8,3.1,6.3,3.7c2.8,0.7,5.2,0.1,7.2-2c1.6-1.7,1.7-3.8,1.3-6.1C468.6,257.3,464,252.4,459.8,252.9z"/>
	<path class="st2" d="M473.1,343.1c0.7-1.2,1.4-2.2,2-3.2c1.1-1.7,0.8-4.6-0.5-6.1c-2.4-2.8-5.6-3.7-9-4c-3.6-0.3-6.5,1.5-9,3.9
		c-2.1,2.1-2.6,5.8-1.4,8.3c0.5,0.9,1.1,1.3,2.1,0.9c1-0.4,2-0.6,3-0.9c3.8-1,7.5-1.4,11.1,0.6C472,342.7,472.5,342.9,473.1,343.1z"
		/>
	<path class="st2" d="M470,111.7c-1.6,0.3-2.9,0.8-4.2,0.8c-3.9,0.2-7.7-0.4-11-2.7c-0.3-0.2-0.9-0.3-1.2-0.1
		c-1.3,0.9-2.4,4.7-1.9,6.4c2.4,7.3,10.1,9.1,15.9,7.6c3.1-0.8,5.2-4.9,4.7-7C471.7,114.8,470.7,113.2,470,111.7z"/>
	<path class="st2" d="M469,415.3c-0.1,0-0.5,0-0.8,0c-5.2-0.2-9.1,4.6-9,9.4c0.1,2.3,1.5,3.3,3.8,2.7c1.7-0.4,3.4-0.7,5.1-0.9
		c3-0.3,5.8,0.2,8.5,1.7c0.5,0.3,1.1,0.6,1.8-0.1c1.8-1.9,2-6,0.5-8.1C476.4,416.7,473.3,415.1,469,415.3z"/>
	<path class="st2" d="M65.2,475.4c1.9-0.1,3.3-0.6,4.6-2c2.5-2.8,3.2-6.2,3.8-9.8c0.1-0.7,0-1.4-0.1-2.1c-0.8-4.7-8.1-7.5-12.1-4.9
		c-1,0.7-1.2,1.2-0.8,2.3c0.5,1.3,1,2.7,1.2,4.1c0.4,3.1-0.5,6-2,8.7c-0.8,1.3-0.4,2.1,1.1,2.6C62.2,474.7,63.7,475,65.2,475.4z"/>
	<path class="st2" d="M287.5,452.9c0.3,1.2,0.5,2.4,0.8,3.6c0.6,1.8,2.3,3,3.8,2.6c6.4-1.5,10.6-5.1,10.4-12.5
		c-0.1-3.8-4.7-6.5-7.5-5.2C290.7,443.4,287.8,446.9,287.5,452.9z"/>
	<path class="st2" d="M416.2,29.3c-0.4,2.6,0.8,4.7,3,6.3c2.7,1.9,7.8,1.3,10.1-1.2c0.7-0.8,1-1.5,0.3-2.6c-0.6-1-1-2.4-1-3.6
		c0.1-1.9,0.7-3.9,1.2-5.7c0.3-1,0.4-1.6-0.7-2c-1.5-0.5-3-1.3-4.6-1.4c-2.6-0.3-5,0.2-6.5,2.8C416.7,24.1,416.1,26.5,416.2,29.3z"
		/>
	<path class="st2" d="M451.5,394.7c4.9,0.4,7.6-3.8,7.4-7.4c-0.3-5.7-3.1-7.9-8.3-8.2c-4.1-0.2-7.8,3-7.7,6.6
		C443,389.9,447.1,395,451.5,394.7z"/>
	<path class="st2" d="M443.8,472.3c-0.2-1.2-0.6-2.3-0.7-3.4c-0.4-4.7,1.6-8.6,4.7-11.9c1.3-1.4,1-2.8-0.7-3.6
		c-2.3-0.9-6.6-0.1-8.4,1.5c-3.9,3.4-5.3,7.7-4.9,12.7c0.2,3.4,4.8,7.6,8.8,5.3C443,472.7,443.4,472.5,443.8,472.3z"/>
	<path class="st2" d="M30.2,462.3c1.4,0.1,2.9-1.2,4.9-3.8c2.1-2.8,1.8-5.5-0.9-7.7c-2.6-2.1-5.5-3.5-9-3.5c-2.4,0-3.8,1.5-4.8,3.2
		c-1.1,1.8-1.4,3.8,0,5.7c0.4,0.6,0.8,1.3,1.2,1.8C23.4,460.5,25.8,462.1,30.2,462.3z"/>
	<path class="st2" d="M403.9,473.5c-0.1-0.4-0.3-0.9-0.3-1.3c-0.3-3.9,0.5-7.5,3.3-10.4c1.1-1.2,0.9-2.3-0.5-2.9
		c-2.6-1-5.3-1.2-7.9-0.2c-1.8,0.7-3.4,2.1-4.9,3.5c-4.3,3.8-1.5,11,3,12.5C399.3,475.5,401.5,474.8,403.9,473.5z"/>
	<path class="st2" d="M29.4,256.8c-3.4,0-5.3,1.2-6.5,4.3c-1,2.5-0.4,4.8,1.3,6.9c3.5,4.5,7.1,5.4,11.7,2.7c2.3-1.4,3.3-3.8,2.3-6.4
		c-0.6-1.4-1.6-2.7-2.3-4.1C34.4,257.7,32.1,256.8,29.4,256.8z"/>
	<path class="st2" d="M55.9,301.9c5.9,0.8,9.7-7.2,7-11.4c-0.7-1-1.2-1.8-2.3-0.6c-0.2,0.2-0.6,0.4-0.9,0.5c-3.8,1-7.1-0.1-9.8-2.7
		c-1.9-1.7-1.9-1.8-3.3,0.2c-1.3,1.9-1.8,3.8-1.1,6.1c0.8,2.5,2.3,4.1,4.4,5.6C51.7,300.9,53.6,302,55.9,301.9z"/>
	<path class="st2" d="M92.9,10.7c-3.7,0.2-6.5,2.1-8.4,5c-1.4,2.2-2.2,4.9-1.4,7.4c1.4,4.5,6.7,7.2,11.5,4.9
		c0.8-0.4,1.2-0.7,0.8-1.8c-1.4-4-0.5-7.8,1.3-11.5c1-2.1,0.8-2.6-1.3-3.5C94.5,11,93.7,10.9,92.9,10.7z"/>
	<path class="st2" d="M332.6,475c1.1-0.2,2.5-0.2,3.5-0.8c1.6-1.1,3.6-2.3,4.3-3.9c1.4-3,1.6-6.3-0.2-9.6c-2-3.8-6.8-4.6-9.8-3.5
		c-1.3,0.5-1.8,1.5-1.3,2.6c1.8,3.7,1.3,7.3-0.5,10.8c-1.4,2.7-1.2,2.8,1.7,4C330.9,474.8,331.7,474.9,332.6,475z"/>
	<path class="st2" d="M469.6,20.9c-0.2-1-0.3-2.3-0.7-3.4c-1-2.8-3.8-4.3-6.4-2.8c-1.8,1-3.3,2.6-4.5,4.2c-1.7,2.3-2,5-1.7,7.9
		c0.2,2.4,1.3,4,3.3,5.2c1.8,1.1,3.3,0.4,4.8-0.7C467.5,28.5,469.2,25.2,469.6,20.9z"/>
	<path class="st2" d="M195.5,440.7c0.2-4.5-4.2-7.1-6.9-6.5c-3.5,0.8-6.2,3.1-7.2,6.4c-0.7,2.2-0.1,5,0.3,7.4
		c0.1,0.8,1.3,1.8,2.1,1.9c2.8,0.5,5.6,0.1,8-1.5C194.5,446.6,195.2,443.7,195.5,440.7z"/>
	<path class="st2" d="M350.5,25.2c0.5-0.1,1.1-0.2,1.6-0.4c1.9-0.7,2.6-1.9,2.1-3.8c-0.6-2.5-0.1-4.8,1.1-7c1.7-3.3,1.7-3.4-1.7-5.1
		c-0.3-0.2-0.6-0.3-0.9-0.4c-2.3-1-4.5-0.8-6.6,0.8c-2.6,2-4,4.7-4,8c0,3.4,0.9,6.4,4.9,7.4C348.1,24.9,349.2,25,350.5,25.2z"/>
	<path class="st2" d="M120.7,461.6c0.8,0,1.6,0.2,2.2-0.1c0.6-0.2,1.4-0.9,1.4-1.3c-0.2-4.6,2.8-7.4,5.6-10.2c1.1-1.2,1.3-2,0.1-3.2
		c-2.3-2.1-6.8-3-9.4-1.4c-3.7,2.3-5.9,5.6-5.8,10.1C114.7,459.8,116.4,461.6,120.7,461.6z"/>
	<path class="st2" d="M26.3,226.1c0.3,2.1,0.8,3.2,2.2,4.6c0.6,0.6,1.3,1.1,1.9,1.6c3.1,3.1,6.9,2.9,10.6,0.9c2.6-1.4,3.5-4,4.6-6.4
		c0.8-1.6,0.2-3.5-0.9-5c-0.5-0.7-1-0.9-1.8-0.2c-1.1,0.9-2.3,1.9-3.7,2.2c-3.7,0.8-7.3,0.8-10.2-2.3c-0.6-0.6-1.1-0.5-1.3,0.2
		C27.2,223.2,26.8,224.6,26.3,226.1z"/>
	<path class="st2" d="M490.5,58.5c-0.3-1.1-0.6-2.3-0.8-3.4c-0.2-0.8-0.6-1-1.4-1c-4.5,0.4-8.2-1.8-11.8-4c-0.6-0.4-0.9-1.7-1.9-0.9
		c-0.6,0.5-0.9,1.4-1.2,2.2c-0.2,0.5-0.3,1.1-0.3,1.7c-0.3,6.3,3.8,10.2,8.9,11.5C486,65.5,490.7,63.4,490.5,58.5z"/>
	<path class="st2" d="M24.1,410.9c-0.6,1.4-1.4,2.7-1.6,4.1c-0.5,3.7,1.3,6.4,4.3,8.4c2.9,1.9,5.9,2.4,8.9,0.4c4.4-2.9,5.3-5.4,3-10
		c-0.5-1.1-1.2-1.8-2.8-1.1c-2.4,1-5,1.3-7.5,0.2C27.1,412.3,25.8,411.7,24.1,410.9z"/>
	<path class="st2" d="M482.9,119c-0.8,0.2-1.7,0.3-2.4,0.5c-2.3,0.7-2.7,2.9-3.5,4.8c-0.2,0.5-0.1,1-0.1,1.5
		c0.3,3.6,2.8,5.7,5.6,7.3c3.9,2.3,7.1,1.5,8.5-2.5c1.6-4.5,2-6.3-1.3-9.3C487.8,119.7,485.5,119.1,482.9,119z"/>
	<path class="st2" d="M161.8,15.6c-0.2-0.2-0.6-0.5-1-0.8c-2-1.9-4.7-2.2-7.2-1c-3,1.5-4.7,4.1-5.6,7.3c-0.8,2.8-0.3,5.3,2.1,7.2
		c1,0.8,2,1.5,3,2.1c1.6,1.1,5.4,0.3,6.3-1.4c0.3-0.5,0.2-1.4-0.1-1.9c-0.9-1.7-0.8-3.5-0.2-5.2C159.8,19.8,160.8,17.9,161.8,15.6z"
		/>
	<path class="st2" d="M406.3,442.8c-0.1,4.3,3,7.5,6.7,7.6c3.9,0.1,8.1-4.1,8.1-7.7c0-4.3-3.1-6.5-7.2-6.7
		C409.6,435.6,405.8,439.6,406.3,442.8z"/>
	<path class="st2" d="M468.2,385.9c0.1,0.8,0.1,1.5,0.3,2.3c1.1,4.1,4.9,6.1,8.5,6.5c1,0.1,2.3-0.5,3.2-1.1c2.5-1.9,2.2-4.6,1.7-7.3
		c-0.8-4.6-6.2-7.9-10.9-6c-1.1,0.5-2.1,1.2-2.4,2.4C468.4,383.7,468.3,384.8,468.2,385.9z"/>
	<path class="st2" d="M245.6,18.8c0-0.6,0.1-1.1,0-1.7c-0.3-2-1-3.6-3-4.4c-2.5-0.9-4.8-0.3-7,0.7c-0.3,0.1-0.6,0.8-0.5,1
		c0.9,2.5,0.8,5-0.1,7.4c-0.8,2.3-1.6,4.7-2.8,6.8c-0.6,1.2-0.5,1.5,0.5,2c2.3,1.1,4.5,0.6,6.5-0.6
		C243.5,27.7,245.8,23.9,245.6,18.8z"/>
	<path class="st2" d="M301,11.9c-1.1,0.3-2.3,0.3-3.2,0.9c-4.1,2.7-5.6,6.9-5.5,11.5c0.1,3.8,5.6,8.4,10.4,4.8
		c1-0.8,1.2-1.4,0.6-2.4c-1.1-1.9-1.2-3.9-0.5-5.9c0.7-1.9,1.8-3.6,2.6-5.4c0.2-0.4,0.2-1.2-0.1-1.5C304.2,12.7,302.8,11.9,301,11.9
		z"/>
	<path class="st2" d="M44.4,152.6c0.1,0.8,0.1,1.6,0.4,2.3c1,3.4,3.7,5,6.7,6.2c2,0.8,4.1,0.4,6.1-0.4c1.7-0.7,1.8-2.3,2.1-3.8
		c0.1-0.8,0.7-1.7,0.4-2.2c-1.5-3-3-5.8-6.4-7.2C49.6,145.8,43.5,147.8,44.4,152.6z"/>
	<path class="st2" d="M183.3,44.3c-0.1,2.6,0.6,4.8,2.7,6.1c2.2,1.3,4.6,2.7,7.1,0.8c1-0.7,2-1.2,1.7-3c-0.5-2.6-0.3-5.3,1.1-7.7
		c0.9-1.6,0.7-2.6-0.8-3.6c-1.8-1.2-3.6-2.2-5.8-1.5C185.8,36.6,183.1,39.9,183.3,44.3z"/>
	<path class="st2" d="M47.5,30.5c0.5-1.6-0.5-3-1.5-4.3c-0.5-0.6-0.9-0.9-1.8-0.5c-3.1,1.3-6.2,1.2-9.3-0.3
		c-0.7-0.4-1.4-0.4-1.9,0.4c-0.7,1.2-1.5,2.3-2,3.6c-0.8,1.9,0.3,5,2,6.2c2.2,1.6,4.7,2.3,7.4,2.2C44.5,37.8,47.5,34.9,47.5,30.5z"
		/>
	<path class="st2" d="M20.6,299.1c0.3,1.1,0.5,2.3,1.1,3.3c1.7,2.7,4.3,4.3,7.3,4.8c4.4,0.8,7.9-1.7,8.8-6.1c0.1-0.4,0.1-0.8,0-1.2
		c-0.4-1.2-1-2.4-1.5-3.5c-0.3-0.7-0.8-1-1.6-0.7c-3.6,1.3-6.8,0.7-9.6-1.9c-0.3-0.2-1-0.3-1.3-0.1C21.9,295,20.4,296.6,20.6,299.1z
		"/>
	<path class="st2" d="M346.2,432.7c-0.9,0.2-1.8,0.3-2.6,0.6c-2.3,1-3.9,3-4.8,5.2c-0.5,1.4-0.8,3.2-0.5,4.6c0.8,3.4,3,4.5,6.8,4.2
		c5.2-0.4,7.6-4.1,7.1-8.6C352,435.6,350.4,432.6,346.2,432.7z"/>
	<path class="st2" d="M459,374.6c-0.1-0.4-0.1-1.4-0.6-2c-1-1.3-2.1-2.6-3.5-3.4c-2-1.2-4.1-2.7-6.6-1.8c-4,1.4-7.7,5.1-6.3,10.4
		c0.6,2.1,1.7,2.6,3.6,1.5c2.9-1.7,6.1-1.7,9.2-0.6c2.9,1,2.7,1.3,4-1.9C459,376.3,458.9,375.6,459,374.6z"/>
	<path class="st2" d="M31.3,294.9c3.8,0,5-1.2,6-4.6c0.7-2.3-0.8-4-1.5-5.6c-1.4-3.1-4.7-3.8-7.8-4.3c-3.6-0.6-6.6,2.8-5.2,6.2
		c0.5,1.3,0.9,2.7,1.6,3.9C25.9,293.2,28,295.2,31.3,294.9z"/>
	<path class="st2" d="M39.1,368.5c1.5-2.2,1.4-4.5,1-6.8c-0.6-2.8-2.8-4.7-5-6.3c-1.8-1.4-3.9-2.3-6.3-2.1c-3.8,0.3-6.8,3.9-5.5,7.3
		c0.3,0.9,0.7,1.7,1,2.6c0.3,0.9,0.9,1.2,1.7,1c2.8-0.7,5.4-0.2,7.9,1.1C35.6,366.2,37.2,367.3,39.1,368.5z"/>
	<path class="st2" d="M68.7,36.3c0-0.3,0-0.5,0-0.8c-0.6-4.6-2.6-6.2-6.8-5c-4.1,1.2-6.3,4.2-7.4,8.1c-0.5,2,1.1,4.9,2.9,6.1
		c2,1.2,3.7,0.1,5.6-0.2c0.8-0.1,1.8-0.4,2.4-0.9C67.6,41.7,68.7,39.3,68.7,36.3z"/>
	<path class="st2" d="M313.7,449.5c0.2-3.2-1.5-5.4-3.7-7.3c-1.7-1.5-3.6-2.1-5.9-1c-1.4,0.7-1.6,1.4-1.1,2.6
		c1.8,3.9,0.5,7.5-1.5,10.9c-0.8,1.3-0.7,1.9,0.7,2.7c0.4,0.2,0.9,0.4,1.3,0.7c1.5,1.4,3.4,0.9,4.6,0.1
		C311.3,456.2,313.6,453.4,313.7,449.5z"/>
	<path class="st2" d="M265.7,452.4c0.6,0.4,1,0.8,1.5,1.1c2.7,1.5,5.9,1.1,8.1-1.2c2.7-2.6,3.7-5.7,2.6-9.4c-0.7-2.5-3.1-3.3-5-4.6
		c-1.7-1.2-3.4-0.6-5,0.2c-0.9,0.5-1.5,1.3-0.9,2.6c0.9,2,1.3,4.2,0.6,6.3C267.1,449.1,266.4,450.7,265.7,452.4z"/>
	<path class="st2" d="M460.2,241c-0.6,0.3-1.6,0.6-2.5,1c-3.8,1.4-5.7,5.6-4.2,9.3c0.3,0.8,0.9,2,2,1.4c3.9-1.9,7.4-1.3,10.8,1.3
		c0.3,0.2,1,0.2,1.2,0c1.4-1.4,1.9-3.1,1.8-5.2c-0.1-2.5-1.6-4-3.3-5.3C464.4,242.3,462.7,241.2,460.2,241z"/>
	<path class="st2" d="M487.1,306.2c-0.2-0.7-0.5-1.9-1-3.1c-1.1-2.7-4.3-4.2-7.1-3.4c-3.2,0.9-4,3.7-5.3,6.1c-0.2,0.4-0.3,1-0.2,1.4
		c0.6,1.4,1.3,2.9,2.1,4.2c1.2,1.8,4.9,3.1,6.7,2.5C485.4,313,486.8,310.5,487.1,306.2z"/>
	<path class="st2" d="M43.2,60.1c1.6-0.7,2.7-3.3,2.4-5.1c-0.5-3-2.1-4.9-4.6-6.5c-3.4-2.1-7.4-1.9-10.7,0.4
		c-1.2,0.8-1.7,1.8-1.5,3.1c0.2,1.7,0.6,3.3,0.9,5.2C34.8,56.2,39.3,56.9,43.2,60.1z"/>
	<path class="st2" d="M459.4,308.2c3.1,0,5.5-1.9,5.8-4.8c0.3-3.6-2.1-7.6-5.8-9.2c-2.1-0.9-4.6-0.5-5.7,1.1c-1.3,1.7-2,4.3-1.9,6.5
		C451.9,305.1,456.1,308.2,459.4,308.2z"/>
	<path class="st2" d="M400.4,22.2c0.4,0.4,0.8,1,1.3,1c2.5,0.2,5.1,0.2,7.3-1.3c2.1-1.5,3.4-3.8,4.1-6.3c0.9-3.1-1-7-3.8-7.7
		c-3.1-0.8-6.1-0.8-8.7,1.9C403.8,13.9,403.5,18,400.4,22.2z"/>
	<path class="st2" d="M485.9,145.5c2.8,0,5.6-3.9,4.7-6.5c-0.4-1.1-0.9-2.2-1.5-3.2c-0.2-0.3-0.7-0.5-1.1-0.5
		c-1.2-0.2-2.5-0.1-3.7-0.3c-2.5-0.4-4.3-2.1-6.2-3.7c-0.9-0.8-1.8-0.6-2.2,0.5c-0.8,2.1-0.7,4.4-0.1,6.5
		C477.2,143.3,480.9,145.1,485.9,145.5z"/>
	<path class="st2" d="M52.7,196.4c-0.4-0.9-0.7-2.9-1.8-4c-2.8-2.9-7.3-3-10.7-0.7c-1.9,1.3-2.6,3.8-1.4,5.6c0.9,1.3,1.8,2.6,3,3.7
		c2.1,1.9,4.6,2.8,7.5,2C51.2,202.4,52.6,200.1,52.7,196.4z"/>
	<path class="st2" d="M58.6,161.7c-0.8,0.3-1.5,0.5-2.3,0.8c-3.4,1-6.3-0.2-9.1-1.9c-0.4-0.2-1-0.4-1.3-0.2
		c-2.6,1.7-4.1,6.5-1.1,8.9c1.8,1.4,3.4,2.7,5.7,2.7c1.8,0,3.7-0.1,5.5-0.4c2.1-0.3,2.8-2.1,3.6-3.8
		C60.9,165.6,60.5,162.9,58.6,161.7z"/>
	<path class="st2" d="M457.4,215.8c4.2-1.5,8-0.7,11.8,0.9c0.4,0.2,1.3,0.2,1.4,0c1.1-1.9,1.9-4.1,1.3-6.2c-0.7-2.4-2.9-3.5-5.1-4.7
		c-3.8-2-9.7,0.7-10.5,3.7C455.7,211.9,455.3,214.5,457.4,215.8z"/>
	<path class="st2" d="M422.6,442.1c0,2.3-1.1,3.9-2.3,5.5c-0.2,0.3-0.4,0.9-0.3,1.2c1.1,2.2,5,3.6,7.2,2.5c1.1-0.6,2.1-1.5,3.1-2.4
		c2.7-2.6,2.7-6.8,0.6-9.3c-2.6-3.2-4.9-4.3-8.8-2.7c-0.9,0.4-1.1,0.9-0.7,1.8C421.9,439.8,422.2,441,422.6,442.1z"/>
	<path class="st2" d="M229.8,473.7c4.4,0,7.7-3,7.7-6.7c0-2.1-1.2-3.7-2.4-5.3c-1.6-2.2-4.1-0.7-6.2-1.5c-1.5-0.6-5,4.5-5,7
		C223.9,470.7,226.5,473.7,229.8,473.7z"/>
	<path class="st2" d="M39.1,446.5c-0.5-1.8-0.9-3.4-1.4-4.9c-0.9-2.7-4.4-5.2-7.3-5.1c-4.2,0.1-6.8,3.3-6.2,7.4
		c0.2,1.1,0.5,2,1.9,2.2c3.7,0.5,6.9,1.9,9.5,4.7c0.6,0.7,1.4,0.6,1.8-0.2C38.1,449.2,38.6,447.8,39.1,446.5z"/>
	<path class="st2" d="M194.2,448.6c3.4,2.5,4.7,1.9,8.2,0.7c2.3-0.8,2.7-2.9,3.4-4.7c2.1-5.3-0.5-10.2-6.6-9.9
		c-2.5,0.1-3.3,1.4-2.9,3.7c0.3,1.7,0.3,3.5,0,5.1C196,445.2,195,446.8,194.2,448.6z"/>
	<path class="st2" d="M479.2,22.3c0-0.3,0-0.5,0-0.8c0-3.1-3.1-5.4-6-4.5c-0.7,0.2-1.4,0.6-2.1,0.7c-0.9,0.1-1,0.6-1,1.4
		c0,1.5,0,3-0.2,4.5c-0.4,2.6-1.9,4.6-3.4,6.6c-0.9,1.3-0.5,2.3,1,2.7c2.4,0.6,4.5,0.6,6.6-1.2C477,29.2,479.1,26.3,479.2,22.3z"/>
	<path class="st2" d="M335.7,32.5c0.2,1.1,0.5,2.2,0.6,3.4c0.2,2.6-0.9,4.9-2.1,7.1c-0.9,1.6-0.8,2.1,0.8,2.9
		c2.3,1.1,4.6,0.8,6.8-0.5c2.9-1.7,5.1-6,4.2-10c-0.6-2.6-3.6-4.5-6.1-3.9C338.6,31.9,337.3,32.2,335.7,32.5z"/>
	<path class="st2" d="M241.2,447.2c-1.1-2-2-4.1-3.2-5.9c-0.5-0.7-1.9-0.9-2.9-1.1c-2.7-0.8-4.2-0.4-5.6,1.5c-2,2.8-1.8,7.5,0.6,9.9
		c1.4,1.3,3.1,2.3,5.1,1.2c1.6-0.9,3.2-1.9,4.6-3.1C240.4,449.2,240.6,448.2,241.2,447.2z"/>
	<path class="st2" d="M487.6,255.2c0.1-3-3.5-6.8-6.3-6.8c-2.4,0-4.4,1.2-5.8,2.8c-0.9,1-0.9,2.7-1.1,4.2c-0.2,2.2,3.6,5.6,6.2,5.7
		C484,261.2,487.6,258.2,487.6,255.2z"/>
	<path class="st2" d="M488.5,108.7c0.8-0.3,2.3-0.7,3.7-1.3c1.3-0.6,2.6-3,2.3-4c-1.2-3.8-3-6.8-7.8-7c-2.1-0.1-4.5,1.8-5.2,3.8
		c-0.7,2.1,0.4,3.6,1.2,5.4C483.7,107.8,485.5,108.5,488.5,108.7z"/>
	<path class="st2" d="M283.1,467.1c0-2.8-1.7-4.6-4.5-5.3c-3.7-0.9-5.7,0.6-7.1,3.6c-2.3,5,0.9,9.1,5.6,9.1
		C279.9,474.6,283.4,470.8,283.1,467.1z"/>
	<path class="st2" d="M275.1,39c0.1-4.5-2.9-5.9-5.7-5.3c-3.5,0.7-6.2,3-6.7,6.9c-0.3,2.4,0.4,4,2.6,5c1.1,0.5,2.4,0.8,3.6,1.2
		c0.2,0.1,0.6,0,0.8-0.1C273.1,45.4,275.1,42.5,275.1,39z"/>
	<path class="st2" d="M37.1,259.1c2-1.8,2.2-5.4,0.5-8.1c-1.6-2.5-3.9-4.1-6.8-4.5c-1.8-0.2-3.7-0.3-5.2,1.1
		c-2.2,2.1-2.5,4.5-1.2,7.4c0.4,0.9,0.8,1.2,1.9,0.8c2.1-0.8,4.3-0.8,6.3,0.1C34.2,256.8,35.5,258,37.1,259.1z"/>
	<path class="st2" d="M69.9,47c4.4-0.1,8.1-2.9,8.9-7.3c0.5-2.3,0.2-4.6-1.6-6.4c-1.7-1.7-3.8-1.4-5.9-0.5c-2,0.9-2,0.8-1.6,3.1
		c0.1,0.4-0.1,0.9-0.1,1.3c-0.3,2.6-1.5,4.9-3.1,6.9c-0.9,1.2-0.4,1.9,0.7,2.3C68.1,46.8,69,46.8,69.9,47z"/>
	<path class="st2" d="M77.5,446.5c0,2.9,1.1,4.4,3.8,5.3c3.2,1.1,7-0.2,8.8-3c0.5-0.8,0.8-2,0.7-3c-0.5-3.7-3.4-5.9-6.9-5.4
		C80.5,440.8,77,442.7,77.5,446.5z"/>
	<path class="st2" d="M337.8,446.1c-1.8-3.7-0.7-7.1,1.3-10.4c1-1.7,0.8-2-1.1-2.7c-1.8-0.7-3.5,0-5.1,0.6c-5,1.5-6.1,6.7-4.3,10.6
		C329.9,446.6,333.7,448.1,337.8,446.1z"/>
	<path class="st2" d="M208.2,459.3c-0.7,0.2-1.5,0.2-2.1,0.6c-2.1,1.3-3.9,3.1-4.8,5.4c-1.3,3.3,1.1,6.9,5.3,6.3
		c2.1-0.3,3.6-1.2,4.9-2.5c2-1.9,3-3.3,2-5.8C212.5,461.1,210.4,459.5,208.2,459.3z"/>
	<path class="st2" d="M466.6,292c-0.4-2.7-1-4.7-2.6-6c-2.7-2.2-6.5-2.1-9.5-0.1c-2.9,1.9-3.4,2.9-2.8,5.6c0.4,1.9,1.1,2.2,2.9,1.7
		c1.4-0.4,3-0.6,4.4-0.3c1.5,0.3,2.7,1.5,4.1,2.1c0.5,0.2,1.4,0.4,1.5,0.2C465.5,294.1,466.1,292.8,466.6,292z"/>
	<path class="st2" d="M103.6,465.6c-0.2-0.7-0.2-1.7-0.7-2.2c-1.5-1.2-2.2-3.7-4.9-3.1c-0.9,0.2-1.9-0.1-2.6,0.4
		c-2.7,1.8-4.5,4.4-4,7.9c0.2,2,3.1,4.2,4.9,3.5c1.8-0.7,3.6-1.6,5.2-2.7C102.7,468.5,103.9,467.4,103.6,465.6z"/>
	<path class="st2" d="M248.1,465.7c0-2.4-1.1-4.1-3.3-5.2c-2.6-1.3-5.1-1.5-7.5,0.2c-0.3,0.2-0.4,1.2-0.1,1.5c1.9,2.5,1.8,5.2,0.8,8
		c-0.2,0.4-0.2,1.3-0.1,1.4c1.4,0.5,3,1.5,4.4,1.3C245.4,472.6,248.1,469,248.1,465.7z"/>
	<path class="st2" d="M468.5,391.7c-0.4,1.2-1,2.2-1.2,3.2c-0.6,2.9,0.9,5.1,3,6.9c2.8,2.4,5.8,2.6,8.7,0.7c2.1-1.4,3.1-4.7,2.2-6.6
		c-0.4-0.8-0.8-1-1.7-0.7c-1.1,0.4-2.4,0.6-3.5,0.4C473.3,395.3,471,393.7,468.5,391.7z"/>
	<path class="st2" d="M254.1,44.4c-0.5-0.8-0.9-2.1-1.6-2.4c-1.4-0.5-2.9-0.7-4.4-0.7c-2.6,0-4.1,2.1-5.6,3.8
		c-1.3,1.4-1.4,4.2-0.5,5.6c0.9,1.4,3.7,2.6,5.2,2.2C250.3,52.1,253.9,47.9,254.1,44.4z"/>
	<path class="st2" d="M43.6,313.4c-3.2-0.3-5.3,2.3-5.2,4.8c0.2,3.2,2.4,6.4,5.3,7.6c2.1,0.8,4.3-0.2,5-2.4c0.3-0.8,0.4-1.7,0.6-2.6
		C50.2,317.2,47.2,313.4,43.6,313.4z"/>
	<path class="st2" d="M223.7,451.6c1-0.2,2.3-0.4,3.4-0.7c0.2-0.1,0.6-0.8,0.4-1.1c-1.1-2.6-0.9-5.2,0.2-7.8
		c0.7-1.5,0.2-2.5-1.4-3.1c-2.7-1-5.2-0.3-7.4,2.5c-1.7,2.2-1.7,4.7-0.6,7.2C219.4,450.8,221.3,451.5,223.7,451.6z"/>
	<path class="st2" d="M462.6,78.6c3.3,0.3,4.4-1.9,4.7-5.1c0.3-3.1-3.3-6.2-6.3-6.4c-2.9-0.2-5.2,2.4-5.2,5.6
		C455.9,75.5,459.4,78.6,462.6,78.6z"/>
	<path class="st2" d="M484.5,314.7c-0.7,0.2-1.3,0.3-1.8,0.4c-0.8,0.1-1.6,0.4-2.3,0.2c-2.3-0.8-4.6-1.6-5.9-3.9
		c-0.2-0.4-0.7-0.6-1-0.9c-0.3,0.4-0.7,0.8-0.9,1.2c-1.7,4.1,0.6,9.5,5.3,11.1c1.9,0.6,3.7,0.7,5.4-0.8c1.8-1.6,2.5-3.3,1.5-5.6
		C484.5,316.1,484.6,315.5,484.5,314.7z"/>
	<path class="st2" d="M484,86.8c-0.2,0-0.8,0.3-1.4,0.3c-2.2,0.1-4.4,2.4-4.9,4.9c-0.4,1.8,0.9,4.2,2.8,5.3c0.3,0.2,1,0.3,1.2,0.1
		c1.9-1.5,4-2,6.4-1.8c1.5,0.1,2.5-1,2.5-2.6C490.6,89.7,487.7,86.8,484,86.8z"/>
	<path class="st2" d="M486.7,201.8c0-1.8-1.1-4.2-2.5-5.7c-1.9-2.1-5.8-1.8-6.8,1.1c-0.6,1.7-1,3.2-0.9,5.1c0.2,2.2,2.4,5.1,4.7,5.3
		C484.2,207.6,486.7,205.1,486.7,201.8z"/>
	<path class="st2" d="M265.7,471.6c0.9-0.3,2.2-0.7,3.5-1.2c0.2-0.1,0.4-0.6,0.4-0.8c-0.4-2.3,0.4-4.3,1.7-6c0.7-1,0.5-1.5-0.4-2
		c-2.6-1.5-5.3-1.5-8-0.2c-1.7,0.8-3.4,3.8-3.1,5.2C260.5,469.9,262.4,471.4,265.7,471.6z"/>
	<path class="st2" d="M54.3,444.3c3.3,0.5,5.4-2.5,5-5.2c-0.1-0.8-0.4-1.5-0.6-2.3c-0.5-2.3-4.2-4.6-6.5-4c-2.8,0.7-4.8,3.1-3.8,6.2
		C49.5,442.2,50.9,444.6,54.3,444.3z"/>
	<path class="st2" d="M56,14.4c0.3,3,2.9,5.6,5.3,4.9c2.2-0.6,4-1.9,4.8-4.2c1.3-3.8-0.9-7.1-5.1-7.2C58.5,7.8,55.7,11.4,56,14.4z"
		/>
	<path class="st2" d="M138,47.8c1,0,3-0.4,4.3-2.1c2.2-2.7,2.1-7.3-2.1-8.4c-2.1-0.5-4,0.4-5.7,1.4c-1.7,1-2.8,4-2.2,5.9
		C132.8,46.4,134.8,47.8,138,47.8z"/>
	<path class="st2" d="M274.6,13.9c-2.8,0-6,2.4-6.9,5c-0.7,2.2,0.9,5.6,2.9,5.5c3-0.1,5.9-0.5,7.7-3.5c0.9-1.5,1.3-3.1,0.5-4.6
		C278,14.7,276.6,13.7,274.6,13.9z"/>
	<path class="st2" d="M468.3,138.2c0-2.4-1.5-4.1-3.3-5.4c-2.9-2.1-7.4-0.3-8.2,3.2c-0.1,0.3,0.1,0.8,0.2,1.1
		c0.7,2.3,2.5,3.5,4.4,4.8c1.8,1.2,3.4,0.8,5,0C467.9,141.2,468.4,139.8,468.3,138.2z"/>
	<path class="st2" d="M465.4,79.4c-2.7,0.8-5,0.4-7.1-1.2c-1.4-1-2.8-0.4-3.3,1.2c-1.1,3.6,1.7,8.2,5.5,8.8c3.6,0.6,7.1-1.8,5.7-6.1
		C465.9,81.3,465.7,80.5,465.4,79.4z"/>
	<path class="st2" d="M479.1,464.6c0.3-1.3-0.3-2.5-1.4-3.4c-2.2-1.7-5.8-1.6-7.6,0.5c-2.5,2.9-3.5,4.3-0.3,6.9
		c1.8,1.5,4.1,1.9,6.3,1C478.1,468.8,479.3,467.1,479.1,464.6z"/>
	<path class="st2" d="M41,189.4c4-0.7,7.4-0.8,10.4,1.8c0.2,0.2,0.9,0.1,1.1-0.1c1.6-1.2,1.8-4,0.5-5.8c-2.4-3.4-5.6-4.6-9.6-3.5
		c-1.3,0.4-2.7,0.9-2.7,2.7C40.8,186.1,40.9,187.7,41,189.4z"/>
	<path class="st2" d="M486.7,212.2c-0.3-0.9-0.8-2.3-1.4-3.7c-0.1-0.2-0.7-0.4-0.9-0.3c-2.4,1.1-4.5,0.7-6.5-1
		c-0.2-0.2-1.1,0-1.2,0.3c-1.8,2.8-1.8,5.5,0.7,8.4c1.4,1.7,3.6,2.9,6.1,1.9C485.3,217,486.7,214.8,486.7,212.2z"/>
	<path class="st2" d="M466,143.6c-3,0.4-5.5-0.5-7.6-2.7c-0.3-0.3-1.3-0.4-1.5-0.1c-0.7,0.8-1.5,1.8-1.5,2.7
		c-0.2,3.5,0.8,5.4,4.2,7.3c1.1,0.6,2.8,1.1,3.9,0.7c2.8-1,5-3.6,3-6.7C466.2,144.5,466.2,144.1,466,143.6z"/>
	<path class="st2" d="M196.6,468.5c2.4,0,2.3-0.1,3.2-2.6c0.7-1.8,1.9-3.6,3-5.2c0.7-1,0.4-1.5-0.4-2c-2.9-2.1-6.9-1.6-9.1,1.1
		c-1.7,2-1.7,4.4-0.6,6.7C193.4,468.1,194.8,468.6,196.6,468.5z"/>
	<path class="st2" d="M29.5,330.5c-0.2-0.3-0.3-0.9-0.7-1.2c-0.8-0.8-1.7-1.5-2.7-2.1c-1.8-1.2-3.5-0.4-4.9,0.6
		c-1.4,1-2.3,2.5-1.6,4.4c0.4,1.1,0.7,2.3,1.3,3.2c1.1,1.6,2.6,3.3,4.8,3c2.2-0.3,3.2-2.2,3.7-4.1C29.7,333.2,29.5,331.9,29.5,330.5
		z"/>
	<path class="st2" d="M89.8,441c1.9,2.3,2.6,4.8,1.7,7.5c-0.4,1.1,0.1,1.5,0.9,1.8c1,0.4,2,0.7,3.1,1c0.3,0.1,0.8,0.1,1-0.1
		c2.6-1.7,4.5-5.6,3-8.9c-1.2-2.7-3.7-2.7-6.1-3.1C91.9,438.9,90.7,439.6,89.8,441z"/>
	<path class="st2" d="M52.6,388.7c-3.2,0-5.3,1.5-5,3.7c0.3,2.6,1.1,5.2,3.7,6.3c1.2,0.6,3.2,0.6,4.4,0c2.3-1.1,3.1-4,2.1-6.5
		C56.9,390.1,55.9,388.5,52.6,388.7z"/>
	<path class="st2" d="M232,46.9c0,2.3,3,5.3,5.4,5.3c1.5,0,3.2-1.4,3.1-2.6c-0.2-2,0.5-3.8,1.4-5.5c0.2-0.3,0.3-0.9,0.1-1.2
		c-0.6-1.3-3.3-2.6-4.6-2.3C234.5,41.1,232.1,44,232,46.9z"/>
	<path class="st2" d="M263.6,26.5c0.9-0.5,2.2-1,3.4-1.8c0.3-0.2,0.4-0.9,0.3-1.3c-0.6-2-1-3.9-0.1-5.9c0.6-1.4-0.2-1.9-1.2-2.2
		c-2-0.8-3.9-0.6-5.4,1.1c-0.6,0.7-1.1,1.5-1.7,2.2c-1.2,1.6-1.1,3.3-0.2,4.9C259.6,25.1,261.2,26.1,263.6,26.5z"/>
	<path class="st2" d="M485.6,248.5c0.1-1.6,0.2-3,0.2-4.3c-0.2-3-4.2-5.7-7.4-5.1c-3.4,0.6-5,6-3.3,8.9c0.5,1,1.1,1.1,1.9,0.5
		c2.2-1.7,4.5-1.7,6.9-0.6C484.2,248.1,484.7,248.2,485.6,248.5z"/>
	<path class="st2" d="M49.5,399.3c-1.9,1.4-1,3.5-0.9,5.1c0.2,3,4.3,5.7,7.7,4.7c2.6-0.8,4.7-4.2,2.3-7.7c-0.5-0.7-0.8-1.9-1.9-1.4
		C54.1,401.2,51.8,400.7,49.5,399.3z"/>
	<path class="st2" d="M38.4,140.9c-0.3-2.3-1.2-4.2-3.3-5.5c-2.1-1.4-4.2-0.7-5.7,1.5c-2.4,3.4-0.4,6.7,2.6,8.4
		c0.8,0.5,2,0.6,2.9,0.4C36.5,145.3,38.4,142.5,38.4,140.9z"/>
	<path class="st2" d="M127.5,48.7c1.3,0,3.6-1.5,4-2.6c0.1-0.2,0.1-0.5,0-0.7c-0.9-1.6-0.5-3.1,0.1-4.6c0.6-1.4,0-2.3-1.1-3
		c-0.6-0.4-1.5-0.6-2.2-0.7c-2.9-0.1-4.4,1.9-5.5,4.2C121,45.4,123.5,48.5,127.5,48.7z"/>
	<path class="st2" d="M283.3,40.9c0-0.3,0-0.6,0-0.9c-0.2-2.9-1.7-4.3-4.1-4c-1.7,0.2-2.9,0.9-2.8,1.9c0.2,2.6-0.8,4.8-2.2,6.9
		c-0.5,0.8-1.2,1.4-0.4,2.3c0.9,1,1.7,2.1,3.4,1.8C281,48,283.4,44.8,283.3,40.9z"/>
	<path class="st2" d="M89.8,469c0-0.1,0.1-0.3,0.1-0.5c0.2-2.8,1.1-5.3,2.8-7.5c0.9-1.1,0.3-1.6-0.7-1.9c-3.9-1.1-7.7,0.6-9.2,4.7
		c-0.7,1.9,0.2,3.8,1.6,5.3c1,1,2.2,0.7,3.4,0.3C88.3,469.3,89,469.2,89.8,469z"/>
	<path class="st2" d="M65,18.4c2.9,3.4,6.7,2.3,9-0.7c1.5-2,1.4-4.1-0.3-6.4c-1.3-1.7-2.7-1.9-5.2-1.3c-0.9,0.2-1.6,0.7-1.4,1.9
		C67.5,14.4,66.6,16.5,65,18.4z"/>
	<path class="st2" d="M125,29c4,0.1,6-3.7,5.7-6.8c-0.1-1.3-0.8-2.5-2.3-2.9c-2.9-0.8-6.7,1.4-7.3,4.4C120.4,27.1,122.6,29.3,125,29
		z"/>
	<path class="st2" d="M58.5,433.7c1.7-2.1,2.2-4.3,0.2-7.3c-1.9-2.7-4.8-3.9-8.2-2.5c-1.2,0.5-2,1.4-1.7,2.7c0.4,1.7,1,3.2,1.6,4.8
		c0.1,0.2,0.6,0.4,0.9,0.4C54,431.2,56.2,432.4,58.5,433.7z"/>
	<path class="st2" d="M53,130.7c2.1,0.1,4.7-2.6,4.5-4.6c-0.3-3-3.4-5.6-6.5-5.4c-1.9,0.1-4.2,2.3-4.1,3.8
		C47,127.4,50,130.5,53,130.7z"/>
	<path class="st2" d="M28.9,165.7c-1.4,2-1.5,2.8-1.2,4.3c0.5,3,2.8,3.9,5.2,4.8c1,0.4,2.1,0.4,2.9-0.4c1-1,2.2-2.1,2.5-3.3
		c0.3-1.1-0.3-2.5-0.9-3.6c-0.3-0.7-1.6-1.5-2-1.3C33.1,167.1,31,166.5,28.9,165.7z"/>
	<path class="st2" d="M382.5,41.3c2.5-0.2,5.6-1.8,6.1-5c0.3-1.4,0.2-2.8-1.1-3.8c-1.2-0.9-2.4-1.3-4-0.8c-2.8,0.8-4.1,2.9-4.9,5.5
		c-0.5,1.4,0.1,2.7,1.4,3.4C380.8,40.9,381.7,41,382.5,41.3z"/>
	<path class="st2" d="M482.4,470.3c2.9,0,5.9-3.4,5.5-6.2c-0.5-3.3-5.2-5-7.5-4.3c-0.7,0.2-1.4,0.8-0.9,1.6c1.4,2.1,0.8,4.1,0,6.2
		c-0.5,1.3,0.1,2.5,1.5,2.7C481.5,470.4,482,470.3,482.4,470.3z"/>
	<path class="st2" d="M199.4,19.1c0,2.3-0.3,4.5-2,6.2c-0.2,0.2-0.2,0.6-0.1,0.8c0.3,1.2,2,2.4,3.3,2.5c3.1,0.4,6.3-3.3,6.6-5.8
		c0.2-2.1-0.2-2.7-1.8-3.6C203.4,18.2,201.4,18.8,199.4,19.1z"/>
	<path class="st2" d="M40.6,325.5c-0.3,0.7-0.7,1.3-0.9,2c-0.3,1.4-0.9,2.8,0.2,4.1c1.5,2,4.7,3.5,7.8,2.3c1.9-0.7,2.7-2.3,3.1-4
		c0.3-1.5-0.4-2.9-1.7-4C46.1,328.3,43.4,326.8,40.6,325.5z"/>
	<path class="st2" d="M30.4,133.9c5.8-0.4,4.6,0.3,6.7,1.6c1.1,0.7,1.7,0.7,2.3-0.5c1.2-2.4,0.6-4.8-0.7-6.9c-1.2-2.1-3.1-2.4-5-1.7
		C30,127.6,29,129.7,30.4,133.9z"/>
	<path class="st2" d="M132.8,28.7c3.2,0.4,5.9-2.9,6.6-5.1c0.6-1.9-0.5-4-2.3-4.8c-1.7-0.8-3.2,0-4.8,0.5c-0.9,0.3-1.2,0.9-1,1.6
		c0.7,2.1,0,4-0.9,5.8c-0.6,1.1-0.2,1.7,1,1.9C131.9,28.8,132.4,28.7,132.8,28.7z"/>
	<path class="st2" d="M155.8,444.9c2.8,0,5.4-2.2,5.4-4.4c0-1.8-3.1-4.6-5.1-4.6c-2.3-0.1-5,2.2-4.9,4.3
		C151.4,442.5,153.7,445.2,155.8,444.9z"/>
	<path class="st2" d="M31.4,156.4c-3.1,0-4.3,1.3-3.9,4.5c0.3,2.7,1.9,3.8,4.2,4.4c2,0.5,4.2-0.6,5.3-2c0.3-0.4,0.5-1.1,0.4-1.7
		C37.1,158.9,34.2,156.4,31.4,156.4z"/>
	<path class="st2" d="M31.3,324.2c-0.1-0.5-0.3-1.1-0.5-1.8c-0.7-2.1-2.6-3.2-4.2-4.5c-1.5-1.2-4.1-0.7-5.1,1
		c-1.4,2.3,0.1,4.3,0.6,6.4c0,0.2,0.8,0.4,1,0.3c1.9-0.7,3.3,0.2,4.6,1.2c2.5,1.8,2.5,1.8,3.3-1.2C31.1,325.3,31.2,324.9,31.3,324.2
		z"/>
	<path class="st2" d="M377.9,40.3c-1.6-2.7,0.1-4.8,1.2-7c-1.7-2-5-2.2-7.3-0.4c-2,1.5-2.3,5.3-0.7,7.4
		C371.9,41.4,375.8,42.2,377.9,40.3z"/>
	<path class="st2" d="M198.1,20.9c0-2.4-1.5-3.8-3.8-3.7c-2.1,0.1-3.3,1.5-4.3,3c-0.8,1.1-1.5,2.4-0.3,3.7c1.2,1.4,2.4,2.8,4.6,2.3
		C196.4,25.9,198.2,23.5,198.1,20.9z"/>
	<path class="st2" d="M164.1,434.8c-0.8,0.2-1.7,0.3-2.4,0.5c-1,0.3-1.5,0.9-0.5,1.8c1.4,1.4,1.5,3.2,1.2,5c-0.1,0.3,0,1,0.1,1
		c1.2,0.1,2.6,0.6,3.7,0.2c1.7-0.6,2.9-3.3,2.3-4.9C167.7,436.3,167.1,434.9,164.1,434.8z"/>
	<path class="st2" d="M475.8,285.9c0,2.6,1.5,4.7,3.4,4.8c2.1,0.1,4.1-2.4,4.1-5.1c0-2.2-1.3-3.4-3.7-3.4
		C477.2,282.2,475.8,283.6,475.8,285.9z"/>
	<path class="st2" d="M49.8,131.3c-1.1,2.3-0.5,4.1,1.5,5.2c2.4,1.3,5.1,0.9,6.2-0.9c1.3-2.1,1.1-4.5-0.3-5.4
		c-1.2,0.8-2.3,1.5-3.5,2.3c0.6,0.7,1.9,1.6,0.4,2.8c-0.3,0.3-1.4,0-1.8-0.3c-1.2-0.9-0.6-1.9,0.3-2.8
		C51.7,131.9,50.8,131.6,49.8,131.3z"/>
	<path class="st2" d="M482.4,281.6c0.7-1.3,1.4-2.6,0.7-4.2c-0.7-1.5-2.1-1.8-3.5-1.6c-1,0.2-2,0.5-2.8,1.1
		c-1.6,1.1-2.1,2.7-1.5,4.5c0.1,0.3,1,0.7,1.1,0.5C478.3,280.6,480.3,280.7,482.4,281.6z"/>
	<path class="st2" d="M55.8,248c3.5,0.3,5.4-2.6,5.5-4.8c0.3-3.7-2.9-7.1-6.2-7c-3.1,0.1-5.2,2.1-5.2,4.7
		C50,244.7,52.1,248.4,55.8,248z"/>
	<path class="st2" d="M49.6,251.4c0,2.6,3.7,5.8,6.6,5.7c2.5-0.1,5.6-3,5.7-5.5c0.1-0.9-0.6-2-1.3-2.8c-0.2-0.3-1.3,0-1.9,0.2
		c-2.1,0.9-4.2,1-6.1-0.2c-1.1-0.7-1.8-0.2-2.3,0.7C49.9,250.1,49.8,251,49.6,251.4z"/>
</g>
<path class="st1" d="M50.5,247.2c-1.2-1.8-1.7-3.8-1.9-6c-0.3-4.8,4.8-6.8,7.9-6.1c3.3,0.8,5,2.9,5.9,6.2c0.6,2.4-0.2,4-1.3,5.7
	c2.4,1.8,3.4,5.2-0.1,9c-3,3.3-6.4,3.2-10.1,0.3C48.2,254.3,46.9,250.5,50.5,247.2z M55.8,248c3.5,0.3,5.4-2.6,5.5-4.8
	c0.3-3.7-2.9-7.1-6.2-7c-3.1,0.1-5.2,2.1-5.2,4.7C50,244.7,52.1,248.4,55.8,248z M49.6,251.4c0,2.6,3.7,5.8,6.6,5.7
	c2.5-0.1,5.6-3,5.7-5.5c0.1-0.9-0.6-2-1.3-2.8c-0.2-0.3-1.3,0-1.9,0.2c-2.1,0.9-4.2,1-6.1-0.2c-1.1-0.7-1.8-0.2-2.3,0.7
	C49.9,250.1,49.8,251,49.6,251.4z"/>
<g>
	<path class="st1" d="M465.3,439.5c0.8-0.7,1.2-1.4,1.7-1.4c1,0.1,1.8,0.9,1.5,1.9c-0.1,0.5-1.1,1.3-1.4,1.2
		C466.5,441,466.1,440.3,465.3,439.5z"/>
	<path class="st1" d="M459.9,351.8c-1.1,0-2.5-1.3-2.4-2.4c0.1-1.2,1-1.6,2.1-1.6c1.4,0,2.6,1,2.6,2.2
		C462.2,351,461.1,351.8,459.9,351.8z"/>
	<path class="st1" d="M469.2,164.9c0-1.7,0.2-1.9,2.1-1.9c1.6,0,3.1,1.2,3.1,2.5c0,1.1-1.4,2-3,2
		C470.1,167.6,469.2,166.4,469.2,164.9z"/>
	<path class="st1" d="M365.7,450.4c-0.6,0.5-1.2,1.2-1.9,1.4c-0.3,0.1-1.2-0.8-1.3-1.3c0-0.5,0.7-1.4,1.1-1.5c0.6-0.1,1.3,0.5,2,0.8
		C365.6,450,365.6,450.2,365.7,450.4z"/>
	<path class="st1" d="M44.1,93.1c0.8,0.1,1.2,0.1,1.5,0.2c0.8,0.3,1.8,0.8,1.5,1.8c-0.2,0.7-0.6,1.4-1.2,1.8
		c-0.8,0.6-1.6,0.1-2.2-0.6c-0.2-0.2-0.4-0.3-0.5-0.5c-0.2-0.7-0.6-1.4-0.5-2C42.8,93.3,43.8,93.2,44.1,93.1z"/>
	<path class="st1" d="M51.2,463.3c0.3-1.2,1.7-2.6,2.6-2.6c1.1,0,1.7,0.7,1.8,1.8c0.1,0.9-1.7,2.3-2.8,2.1
		C52.2,464.4,51.7,463.7,51.2,463.3z"/>
	<path class="st1" d="M160.9,469.3c0,1.3-1,2.3-2.3,2.3c-1.4,0-1.5-1.2-1.6-2.1c-0.1-0.9,1.2-2.2,2.1-2.1
		C160.3,467.4,161,468.2,160.9,469.3z"/>
	<path class="st1" d="M452.4,458c0.1,0.2,0.7,0.7,0.7,1.1c-0.1,0.9-0.6,1.8-1.8,1.6c-0.4-0.1-1.1-0.6-1.1-0.9
		C450.3,458.7,450.7,457.9,452.4,458z"/>
	<path class="st1" d="M36.3,373.4c0,1.4-0.8,2.3-2.1,2.3c-1.1,0-2.1-1.2-2.1-2.4c0-1.1,1.2-2.1,2.3-2.1
		C35.4,371.2,36.3,372.3,36.3,373.4z"/>
	<path class="st1" d="M231.4,19.6c0,1.3-1.4,2.4-3,2.4c-1,0-1.8-1.1-1.8-2.3c0-1.1,1.3-2.2,2.7-2.3
		C230.4,17.5,231.4,18.4,231.4,19.6z"/>
	<path class="st1" d="M139.2,459.2c0,1.1-1.5,2.4-2.5,2.4c-0.8,0-1.8-1.3-1.8-2.1c0.1-1.1,1.4-2.2,2.5-2.1
		C138.6,457.5,139.1,458.2,139.2,459.2z"/>
	<path class="st1" d="M103.5,23.6c0,1.5-1.2,2.7-2.7,2.7c-1.4,0-2.2-0.8-2.2-2c0-1.3,1.7-2.8,2.9-2.8
		C102.8,21.5,103.5,22.2,103.5,23.6z"/>
	<path class="st1" d="M56.9,281.3c0.1-1,0.6-1.7,1.8-1.8c0.9-0.1,2.4,1.4,2,2.1c-0.4,0.8-1.1,1.6-1.8,2
		C58.3,283.9,56.9,282.3,56.9,281.3z"/>
	<path class="st1" d="M165.6,19.3c1.2,0,1.8,0.7,1.8,1.8c0.1,1.1-1.3,2.6-2.3,2.3c-0.8-0.2-1.7-1.1-2-1.8
		C162.8,20.7,164.5,19.4,165.6,19.3z"/>
	<path class="st1" d="M323.8,465.5c0.9,0.1,1.5,0.8,1.6,1.8c0.1,0.9-1.1,2.1-2,2.1c-1.1,0-2-0.8-1.9-1.8
		C321.6,466.7,322.7,465.5,323.8,465.5z"/>
	<path class="st1" d="M471.1,177.2c2,0,2.9,0.9,3,2.6c0,1.4-0.8,1.6-1.9,1.6c-1.9-0.1-2.9-0.9-2.9-2.6
		C469.1,177.4,470,177.1,471.1,177.2z"/>
	<path class="st1" d="M366.7,18.1c-1.3,0.1-1.7-0.8-1.9-1.8c-0.1-0.9,1.3-2.6,2.1-2.4c0.8,0.2,2.2,0,2.1,1.5
		C369,16.7,367.7,18.1,366.7,18.1z"/>
	<path class="st1" d="M309,28.7c-0.5-0.6-1.3-1.1-1.5-1.8c-0.2-1,1.3-2.3,2.4-2.4c1.3,0,1.6,0.9,1.7,1.9
		C311.7,27.3,310.3,28.4,309,28.7z"/>
	<path class="st1" d="M437.3,27.8c0.2,0.3,0.8,0.7,0.9,1.3c0.2,0.9-1.1,2-2.2,2c-0.9,0-1.7-0.2-1.7-1.4
		C434.4,28.7,435.6,27.8,437.3,27.8z"/>
	<path class="st1" d="M483,48.7c-1.7,0-2.9-1-3-1.9c-0.1-1.2,0.9-1.4,1.6-1.6c0.7-0.2,2.4,1.5,2.2,2.2C483.8,48,483.2,48.4,483,48.7
		z"/>
	<path class="st1" d="M36,216.2c0.1,1.3-0.7,1.7-1.7,1.9c-0.9,0.1-2.2-1.4-2.2-2.5c0-1.2,0.6-1.7,1.7-1.7
		C35,213.8,36,214.9,36,216.2z"/>
	<path class="st1" d="M382.6,452.9c-0.8-0.8-1.2-1.3-1.9-2c0.6-0.5,1.1-1.1,1.8-1.4c0.3-0.1,1.3,0.6,1.3,0.7
		C383.5,451.1,383.1,451.8,382.6,452.9z"/>
	<path class="st1" d="M467.7,106.7c0.1,1.2-0.7,1.7-1.7,1.8c-1.1,0.1-2.8-1.4-2.8-2.4c0-1.1,1.1-2.1,2.3-2.1
		C466.5,104.1,467.6,105.4,467.7,106.7z"/>
	<path class="st1" d="M412.8,463.1c0.2,0.8,0.5,1.5,0.6,2.3c0,0.1-0.9,0.5-1.3,0.4c-0.5-0.2-1.3-0.8-1.2-1c0.2-0.7,0.8-1.2,1.2-1.8
		C412.4,463,412.6,463,412.8,463.1z"/>
	<path class="st1" d="M396.6,11.8c1.2-0.1,1.6,0.8,1.8,1.6c0.2,1.3-1.4,3.2-2.6,3.2c-1.1,0-2.2-1.1-2.2-2.2
		C393.6,12.9,394.9,11.8,396.6,11.8z"/>
	<path class="st1" d="M329.1,32.6c0.8-0.1,1.3,0.2,1.3,1.2c-0.1,1.4-1,2.7-2,2.7c-1.1-0.1-1.8-0.6-1.9-1.7
		C326.4,33.8,327.8,32.6,329.1,32.6z"/>
	<path class="st1" d="M175.3,469c-0.3,1.6-1.5,2.7-2.3,2.5c-0.9-0.2-1.8-0.7-1.7-1.8c0.1-1,1.8-2.3,2.6-2
		C174.5,468,175,468.7,175.3,469z"/>
	<path class="st1" d="M29.1,407c-0.1-1,0.3-1.7,1.4-1.6c0.9,0,2.7,1.6,2.4,2.4c-0.2,0.6-1,1.3-1.7,1.5C30.1,409.4,29,408.2,29.1,407
		z"/>
	<path class="st1" d="M461,222.9c-0.3,0.2-1,1-1.3,0.8c-0.7-0.4-1.4-1.1-1.7-1.8c-0.1-0.2,0.8-1.4,1.3-1.4
		C460.4,220.6,461,221.4,461,222.9z"/>
	<path class="st1" d="M46.5,109.3c-0.6,0.3-1.1,0.8-1.8,1c-0.9,0.2-2.5-1.3-2.3-2.2c0.1-0.6,0.7-1.3,1.3-1.6
		C44.4,106.2,46.3,108.1,46.5,109.3z"/>
	<path class="st1" d="M36.2,65.3c1.5,0,2.8,1.1,2.8,2.2c0,1.3-1,2.3-2.4,2.3c-1.2,0-2.8-1.6-2.8-2.6C33.9,66.3,35.1,65.3,36.2,65.3z
		"/>
	<path class="st1" d="M41.1,22.1c-1.2,0-2.4-1-2.4-2c0-0.7,1.5-1.9,2.2-1.9c0.9,0.1,2.1,1.5,2,2.4C42.9,21.7,42.2,22.1,41.1,22.1z"
		/>
	<path class="st1" d="M255.6,444.6c1.2,0.4,2.4,0.4,2.1,1.7c-0.2,0.8-1.2,1.7-1.9,1.8c-1,0.2-1.8-0.8-1.6-1.9
		C254.3,445.7,255.1,445.2,255.6,444.6z"/>
	<path class="st1" d="M201.5,42.6c1-0.2,1.3,0.5,1.2,1.4c-0.1,1.4-1.2,2.6-2.5,2.5c-1-0.1-1.4-0.7-1.4-1.7
		C198.8,43.5,199.9,42.6,201.5,42.6z"/>
	<path class="st1" d="M460.1,258.6c-0.8,0.5-1.5,1-1.7,0.9c-0.7-0.4-1.3-1.1-2-1.7c0.5-0.5,1-1,1.6-1.6
		C458.6,256.9,459.2,257.5,460.1,258.6z"/>
	<path class="st1" d="M459.8,335.1c1.2-0.1,1.9,0.7,2.1,1.7c0.2,1-1.7,3.2-2.5,2.8c-0.8-0.3-1.5-1.2-1.9-2
		C457.1,337,459,335.1,459.8,335.1z"/>
	<path class="st1" d="M466.4,121c-1.6,0-3-1.2-3-2.5c0-0.9,1.2-2,2.1-2c0.9,0,2.5,1.9,2.4,3C467.9,120.3,467.6,121.1,466.4,121z"/>
	<path class="st1" d="M469.2,422.6c0.1,1.1-0.7,1.4-1.5,1.4c-1,0.1-2.2-1.1-2.2-2c0-1.1,0.8-1.2,1.6-1.3
		C468.4,420.7,469.2,421.5,469.2,422.6z"/>
	<path class="st1" d="M67,463.8c-0.3-0.4-0.9-0.9-1-1.5c-0.2-0.9,1.4-2.2,2.6-2.3c1.2-0.1,1.7,0.7,1.9,1.7
		C70.6,462.9,69.3,463.8,67,463.8z"/>
	<path class="st1" d="M299.7,448.9c0.1,1.8-0.8,2.3-1.8,2.3c-0.5,0-1.2-0.7-1.4-1.2c-0.3-0.8,1.1-2.2,1.9-2
		C299,448.2,299.5,448.7,299.7,448.9z"/>
	<path class="st1" d="M423,29.3c1,0,1.5,0.5,1.4,1.5c0,0.9-1.3,2.1-2.2,1.8c-0.6-0.2-1.2-1-1.4-1.6C420.6,30.1,421.7,29.3,423,29.3z
		"/>
	<path class="st1" d="M454.2,387.4c-1.5-0.1-2.2-0.9-2.2-1.8c0-0.5,1.1-1.3,1.8-1.4c1.3-0.3,1.4,1.1,1.6,1.9
		C455.5,386.4,454.7,387,454.2,387.4z"/>
	<path class="st1" d="M442.6,456.9c-0.2,1.4-0.3,2.4-1.6,2.5c-0.3,0-0.8-0.7-0.9-1.2c-0.1-1,1-2.5,1.6-2.3
		C442.2,456,442.5,456.7,442.6,456.9z"/>
	<path class="st1" d="M28.9,454.2c-0.6-0.7-1.4-1.3-1.3-1.6c0.2-0.6,0.8-1.2,1.4-1.5c0.2-0.1,1.2,0.8,1.2,1.1
		C30.1,452.8,29.5,453.3,28.9,454.2z"/>
	<path class="st1" d="M397.8,463.7c-0.1-1.7,0.7-2.1,1.5-2.1c0.4,0,1.1,0.8,1.1,1.2c0,1.1-0.7,1.8-1.8,1.7
		C398.2,464.5,397.9,463.8,397.8,463.7z"/>
	<path class="st1" d="M28.1,259.1c0.3,0.4,1.1,1,1.1,1.5c0,0.8-0.1,2-1.5,1.9c-1.1-0.1-1.5-0.6-1.6-1.7
		C25.9,259.6,26.7,259.4,28.1,259.1z"/>
	<path class="st1" d="M56.3,294.9c0.2-0.8,0.6-1.5,1.8-1.5c0.8,0,2.6,1.9,2.4,2.6c-0.3,0.7-1,1.4-1.6,1.6
		C57.7,297.8,56.3,296.3,56.3,294.9z"/>
	<path class="st1" d="M92,23.3c-0.2,1.7-1.7,3.1-2.6,3c-0.9-0.1-1.8-1.4-1.7-2.4c0.1-0.9,1.8-2.3,2.6-2C91.1,22.1,91.6,22.9,92,23.3
		z"/>
	<path class="st1" d="M336.6,470.1c-1-1-1.8-1.6-2.2-2.3c-0.3-0.5,1.9-2.5,2.4-2.1c0.7,0.5,1.6,1.3,1.6,2
		C338.3,468.3,337.4,469,336.6,470.1z"/>
	<path class="st1" d="M461.1,27.3c0.3-1.3,1.4-2.7,2.3-2.4c0.5,0.1,1.1,0.9,1.2,1.5c0.2,0.9-1.1,2.2-1.9,2
		C462.1,28.2,461.6,27.7,461.1,27.3z"/>
	<path class="st1" d="M190.8,442c-0.9,0.8-1.4,1.5-2.1,1.7c-0.4,0.1-1-0.8-1.5-1.2c0.6-0.6,1.2-1.3,1.9-1.6
		C189.4,440.7,190,441.4,190.8,442z"/>
	<path class="st1" d="M352.7,15c0,1.5-1.5,3.4-2.2,3c-0.7-0.5-1.4-1.3-1.7-2.2c-0.3-0.7,1.4-2,2.5-1.9
		C351.9,14.1,352.4,14.7,352.7,15z"/>
	<path class="st1" d="M122.4,455.9c-0.6-1-1.4-1.8-1.3-2.1c0.5-0.8,1.4-1.5,2.1-2.2c0.5,0.6,1.5,1.4,1.3,1.8
		C124.2,454.2,123.4,454.8,122.4,455.9z"/>
	<path class="st1" d="M34.8,229.3c0.2,1.1-0.6,1.4-1.5,1.5c-1.3,0.1-2.3-0.7-2.1-2c0.1-0.7,0.9-1.6,1.6-1.8
		C33.7,226.6,34.8,228.1,34.8,229.3z"/>
	<path class="st1" d="M481.8,58.9c-0.6,0.9-1.4,1.4-2.5,0.8c-1-0.5-1.5-1.4-1.2-2.4c0.1-0.4,0.7-0.8,1.1-0.9
		C480.1,56.1,481.3,57.4,481.8,58.9z"/>
	<path class="st1" d="M31.1,421.3c-1.4,0.1-1.9-0.8-2-1.9c-0.1-1.1,0.5-1.8,1.6-1.9c0.9-0.1,2.4,1.3,2.3,2.2
		C32.8,420.7,32.3,421.5,31.1,421.3z"/>
	<path class="st1" d="M484.9,127.6c0.1-0.7,0.6-1.5,1.7-1.5c1.2,0,2.5,1.3,2.5,2.5c0,0.9-1,2.2-1.7,2.2
		C486.4,130.9,484.9,129.1,484.9,127.6z"/>
	<path class="st1" d="M155.5,19.4c0,1.7-0.9,2.6-2.6,2.7c-1.1,0-1.5-0.4-1.5-1.4c0.1-1.5,1.1-2.5,2.7-2.5
		C155.1,18.1,155.7,18.4,155.5,19.4z"/>
	<path class="st1" d="M415.5,443.7c0.2,1,0.5,2-0.8,2.1c-0.5,0-1.4-0.5-1.4-0.7C413.3,443.6,414.4,443.8,415.5,443.7z"/>
	<path class="st1" d="M477.8,391.3c-0.7,0.5-1.2,1-1.4,0.9c-0.6-0.3-1-0.8-1.4-1.3c0.5-0.4,0.9-1,1.4-1
		C476.7,390,477.1,390.7,477.8,391.3z"/>
	<path class="st1" d="M240,22.7c-1.4,0.1-1.7-0.7-1.6-1.8c0.1-1.5,1.4-3,2.8-2.6c0.8,0.2,1.8,1.1,1.9,1.8
		C243.4,21.4,241.5,22.7,240,22.7z"/>
	<path class="st1" d="M296.8,26.8c0-1.9,0.7-2.6,1.9-2.6c1.1,0,1.7,0.6,1.7,1.6c0.1,1.1-1.2,2.5-2.1,2.2
		C297.6,27.8,297.1,27,296.8,26.8z"/>
	<path class="st1" d="M52.5,159.1c-1.4,0-2.6-0.9-2.6-1.9c0-1.2,1.1-2.6,2.2-2.6c1,0,2.6,1.7,2.7,2.7
		C54.8,158.4,53.9,159.1,52.5,159.1z"/>
	<path class="st1" d="M188.2,45.1c-1.3,0.1-1.5-0.8-1.5-1.7c0-1,1.3-2.4,2.2-2.1c0.6,0.2,1.3,1.1,1.4,1.8
		C190.4,44.3,189.5,45.1,188.2,45.1z"/>
	<path class="st1" d="M43.6,31.9c0,1-1,2-2,2c-1.1,0-2.2-1.1-2.2-2.2c0-1.1,0.7-1.4,1.7-1.4C42.6,30.2,43.5,30.8,43.6,31.9z"/>
	<path class="st1" d="M26.9,299.1c1.5,0,2.4,1.2,2.5,2.4c0,1.1-0.7,1.4-1.5,1.5c-1,0.1-2.5-1.3-2.4-2.2
		C25.5,299.7,26.2,299.2,26.9,299.1z"/>
	<path class="st1" d="M344.9,442.9c-0.1,1-0.6,1.7-1.7,1.7c-1,0-1.7-0.5-1.6-1.5c0-1.1,0.7-1.8,1.8-1.8
		C344.2,441.3,345,441.7,344.9,442.9z"/>
	<path class="st1" d="M453,373.6c0.5-0.2,0.9-0.7,1.4-0.7c1.3,0,1.3,1.2,1.4,2.1c0,0.2-1,0.9-1.2,0.8c-0.7-0.4-1.2-1-1.8-1.6
		C452.9,374.1,452.9,373.9,453,373.6z"/>
	<path class="st1" d="M30.3,291c-1.8-0.1-2.8-1.2-2.7-2.4c0.1-1.1,0.6-1.6,1.7-1.6c0.9,0,2.4,1.6,2.2,2.4
		C31.2,290.1,30.5,290.7,30.3,291z"/>
	<path class="st1" d="M33.3,359.7c-0.2-1,0.4-1.3,1.4-1.2c1.4,0.1,2.6,1,2.5,2.2c-0.1,0.9-0.4,1.6-1.6,1.5
		C34.3,362,33.3,361,33.3,359.7z"/>
	<path class="st1" d="M62.7,38.7c-0.9,0.1-1.4-0.3-1.3-1.3c0.1-1.5,1.2-2.9,2.6-2.9c0.8,0,1.6,0.2,1.7,1.3
		C65.7,37,64.1,38.7,62.7,38.7z"/>
	<path class="st1" d="M307.3,451.3c0.1-1.7,0.7-2.1,1.8-2.2c1.1-0.1,1.5,0.8,1.3,1.3c-0.3,0.8-1.1,1.5-1.8,1.9
		C308.5,452.5,307.6,451.6,307.3,451.3z"/>
	<path class="st1" d="M271.6,445.4c0.2,0.4,0.7,1,0.6,1.3c-0.3,0.6-0.9,1.1-1.5,1.6c-0.4-0.4-1.2-1-1.1-1.2c0.2-0.7,0.8-1.2,1.3-1.8
		C271.1,445.3,271.4,445.3,271.6,445.4z"/>
	<path class="st1" d="M459.1,247.2c-0.5,0.5-1.2,1.4-1.5,1.3c-0.7-0.2-1.4-0.9-1.7-1.6c-0.3-0.8,0.2-1.6,1.2-1.6
		C458.2,245.2,458.6,246,459.1,247.2z"/>
	<path class="st1" d="M479.3,309.6c-0.8-0.2-1.6-0.3-2.2-0.7c-0.3-0.2-0.4-1.1-0.2-1.4c0.1-0.3,1.1-0.6,1.3-0.4
		c0.6,0.5,1,1.3,1.5,1.9C479.6,309.2,479.4,309.4,479.3,309.6z"/>
	<path class="st1" d="M38.9,54.1c-0.7,0.4-1.5,1.2-2.1,1.1c-0.7-0.2-1.3-1.1-1.9-1.7c0.5-0.5,1.2-1.4,1.6-1.4
		c0.9,0.1,1.7,0.9,2.5,1.3C38.9,53.7,38.9,53.9,38.9,54.1z"/>
	<path class="st1" d="M462.4,299.7c-0.8,0.4-1.2,0.8-1.6,0.9c-1,0.1-2.5-1.1-2.2-1.8c0.3-0.7,1.4-1.6,1.9-1.4
		C461.2,297.7,461.6,298.7,462.4,299.7z"/>
	<path class="st1" d="M408.7,11.2c0,1.2-1.1,2.4-2.1,2.4c-0.9,0-1.8-1-1.8-2c0-1,1.2-2,2.3-1.9C408.1,9.7,408.7,10.2,408.7,11.2z"/>
	<path class="st1" d="M488.2,140c0.2,1-0.6,1.8-1.3,1.5c-0.9-0.3-1.9-1.3-2.2-2.2c-0.4-1,0.8-1.5,1.7-1.6
		C487.5,137.5,488.2,138.4,488.2,140z"/>
	<path class="st1" d="M44.7,193c0.5,0.7,1.3,1.3,1.5,2.1c0.1,0.3-1.1,1.4-1.5,1.3c-0.7-0.2-2.1-0.1-2-1.5
		C42.7,193.8,43.5,193.4,44.7,193z"/>
	<path class="st1" d="M51.6,165.1c1.3,0,2.3,1,2.3,2.2c0,1.1-0.6,1.7-1.8,1.8c-1.2,0-2.5-1.3-2.5-2.5
		C49.6,165.5,50.2,165.1,51.6,165.1z"/>
	<path class="st1" d="M462.6,211.3c-1,0.6-1.6,1.3-2,1.2c-0.6-0.1-1.1-0.9-1.7-1.4c0.5-0.5,1-1.4,1.6-1.5
		C461,209.7,461.6,210.5,462.6,211.3z"/>
	<path class="st1" d="M426.4,447.6c-0.7,0-1.3,0-2,0c0-0.6,0-1.2,0-1.8C426.2,445.1,426.6,445.5,426.4,447.6z"/>
	<path class="st1" d="M234.1,466.2c0.1,1.1-0.8,1.7-1.6,1.7c-0.9,0-1.8-0.6-1.7-1.8c0-1,0.3-1.6,1.5-1.5
		C233.3,464.7,234.2,464.8,234.1,466.2z"/>
	<path class="st1" d="M35.1,442.4c-1,0.1-1.8,0.3-2.3,0.1c-0.6-0.3-1-1.1-1.3-1.8c-0.1-0.1,0.6-0.8,1-0.9
		C34.2,439.6,34.2,441.1,35.1,442.4z"/>
	<path class="st1" d="M200.4,444.6c-0.6-0.7-1.4-1.3-1.3-1.5c0.3-0.7,0.9-1.2,1.3-1.7c0.4,0.5,1.1,1,1.2,1.6
		C201.8,443.3,201,443.8,200.4,444.6z"/>
	<path class="st1" d="M473.1,26.7c0.4,0.4,0.8,0.8,1.2,1.2c-0.7,0.6-1.4,1.2-2.2,1.6c-0.1,0.1-1.1-0.8-1-1.1
		C471.2,27.6,471.7,26.7,473.1,26.7z"/>
	<path class="st1" d="M342.1,35c-0.3,1.4-1.2,2.2-2.3,2.2c-1.1-0.1-1.7-0.5-1.6-1.8c0.1-1.3,1.2-2.7,2.2-2.3
		C341.1,33.4,341.5,34.3,342.1,35z"/>
	<path class="st1" d="M234.7,443.7c-0.2,1.4-1,1.5-1.7,1.5c-0.9,0-1.7-0.6-1.5-1.4c0.1-0.6,1-1.5,1.5-1.5
		C233.6,442.3,234.2,443.2,234.7,443.7z"/>
	<path class="st1" d="M478.7,254.1c0.3-0.5,0.5-1.4,0.8-1.4c0.7,0,1.5,0.2,2,0.7c0.7,0.7-0.2,1.8-1.2,1.4
		C479.8,254.6,479.4,254.4,478.7,254.1z"/>
	<path class="st1" d="M487.3,101.6c-0.9,0.6-1.4,1.2-1.7,1.1c-0.6-0.2-1-0.8-1.5-1.2c0.5-0.4,0.9-1,1.4-1.1
		C485.9,100.4,486.4,101,487.3,101.6z"/>
	<path class="st1" d="M274.2,469.3c0.5-0.3,1.1-1,1.6-1c0.6,0.1,1.6,0.9,1.5,1.2c-0.2,0.7-0.9,1.3-1.4,1.9c-0.6-0.5-1.2-1-1.8-1.5
		C274.1,469.7,274.1,469.5,274.2,469.3z"/>
	<path class="st1" d="M272,42c0.1,1.8-0.8,2.4-1.7,2.3c-0.6-0.1-1.3-0.9-1.5-1.6c-0.3-0.8,1-2.1,1.8-1.9
		C271.2,41.1,271.8,41.8,272,42z"/>
	<path class="st1" d="M29.9,250.9c0.1,1.5-0.6,1.6-1.4,1.6c-1.3,0-1.9-1-2-1.9c-0.1-0.8,0.6-1.5,1.7-1.4
		C29.6,249.3,29.8,250.3,29.9,250.9z"/>
	<path class="st1" d="M72.3,37.4c0-1,1.1-2.1,2.2-1.9c0.6,0.1,1.4,0.8,1.6,1.4c0.3,1-1,2.8-1.8,2.8C73.3,39.6,72.3,38.5,72.3,37.4z"
		/>
	<path class="st1" d="M88.3,446.5c-0.8,0.5-1.5,1.2-2.3,1.4c-0.4,0.1-1-0.9-1.5-1.5c0.6-0.6,1.2-1.5,1.9-1.7
		c0.5-0.1,1.3,0.7,1.9,1.1C88.3,446,88.3,446.3,88.3,446.5z"/>
	<path class="st1" d="M334.6,443.3c-0.5,0.4-1,1.2-1.5,1.3c-1,0.1-1.8-0.7-1.7-1.6c0.1-0.6,1-1.4,1.7-1.6
		C334,441.2,334.3,442,334.6,443.3z"/>
	<path class="st1" d="M207,466.6c-0.7,0.7-1.2,1.1-1.7,1.6c-0.3-0.4-1.1-1-1-1.2c0.2-0.6,0.8-1.1,1.3-1.4
		C205.8,465.5,206.3,466.2,207,466.6z"/>
	<path class="st1" d="M461.6,287c0.7,1.2,1.3,1.8,1.4,2.6c0.1,0.4-0.7,0.9-1.2,1.4c-0.6-0.7-1.3-1.2-1.7-2
		C460.1,288.7,460.9,287.9,461.6,287z"/>
	<path class="st1" d="M97.4,464.5c-0.8,0.7-1.3,1.2-1.8,1.5c-0.1,0-0.9-0.7-0.8-1c0.2-0.6,0.7-1.1,1.1-1.7
		C96.2,463.7,96.6,464,97.4,464.5z"/>
	<path class="st1" d="M243.8,463.2c0.2,1,0.6,1.9,0.6,2.8c0,0.3-1,0.9-1.4,0.8c-0.5-0.1-1-0.8-1.1-1.3
		C241.5,464.5,242.2,463.7,243.8,463.2z"/>
	<path class="st1" d="M476.6,401c-1.2,0.2-2.2-0.1-2.3-1.5c-0.1-1,0.7-1,1.3-0.9C477,399,476.8,400,476.6,401z"/>
	<path class="st1" d="M249.3,46.2c-1,0.9-1.7,1.6-2.4,2.1c-0.1,0.1-1.1-0.7-1.1-1.1c-0.1-1.1,0.6-1.7,1.7-1.8
		C247.9,45.4,248.3,45.8,249.3,46.2z"/>
	<path class="st1" d="M47.2,319.2c0.1,0.8,0,1.4-1.1,1.5c-1.4,0.1-1.7-1-1.8-1.9c0-0.5,0.9-1.4,1.4-1.4
		C46.5,317.4,47.4,318,47.2,319.2z"/>
	<path class="st1" d="M222.3,445.3c-0.3-0.4-1.1-1-1.1-1.6c-0.1-1.1,0.7-1.8,1.9-1.8c1.1-0.1,1.4,0.8,1.3,1.6
		C224.4,444.4,223.9,445.1,222.3,445.3z"/>
	<path class="st1" d="M462.2,76.4c-0.7-0.7-1.1-1.1-1.5-1.5c0.4-0.4,0.8-1,1.3-1.1c0.6-0.1,1.5,0.1,1.3,1
		C463.3,75.3,462.8,75.7,462.2,76.4z"/>
	<path class="st1" d="M478.1,317.9c-0.7,0.8-1.2,1.3-1.7,1.8c-0.4-0.5-1.1-0.9-1.2-1.4c-0.2-1.1,0.7-1.4,1.5-1.5
		C477.1,316.7,477.5,317.3,478.1,317.9z"/>
	<path class="st1" d="M481.7,91c1.8,0,2,1.1,2.2,2c0.1,0.3-1,1.2-1.1,1.1c-0.7-0.5-1.4-1-1.7-1.7C480.9,92.1,481.5,91.4,481.7,91z"
		/>
	<path class="st1" d="M479.2,198.2c0.2-0.1,0.7-0.6,1.2-0.6c1.3,0,2.2,0.8,2.1,1.9c0,1.1-0.5,1.7-1.6,1.7
		C480,201.1,479.1,199.9,479.2,198.2z"/>
	<path class="st1" d="M267,467.4c0.2,1.6-0.6,2-1.3,1.7c-0.6-0.2-1-1-1.5-1.5c0.5-0.4,1-1.1,1.6-1.1
		C266.3,466.5,266.8,467.2,267,467.4z"/>
	<path class="st1" d="M54,437.3c-0.5,0.4-1.1,1-1.7,1.2c-0.9,0.2-1.8-1-1.8-2.1c0-1.1,0.5-1.5,1.6-1.5C53.5,434.9,53.6,436,54,437.3
		z"/>
	<path class="st1" d="M62.3,17.1c-0.5-0.7-0.9-1.1-0.9-1.3c0.1-0.5,0.5-0.9,0.8-1.3c0.3,0.3,0.9,0.6,0.9,0.9
		C63.2,15.8,62.8,16.3,62.3,17.1z"/>
	<path class="st1" d="M137.8,42.5c-0.7,0.4-1.4,1-2.2,1.2c-0.3,0.1-1.2-0.8-1.2-1.2c0-1,0.8-1.8,1.8-1.6c0.6,0.1,1.1,0.7,1.6,1
		C137.8,42.1,137.8,42.3,137.8,42.5z"/>
	<path class="st1" d="M272.7,17.8c0.4,1.7,0,2.6-1.1,2.9c-0.4,0.1-1.2,0-1.2-0.2c-0.1-0.5-0.2-1.3,0.2-1.6
		C271.1,18.4,271.9,18.2,272.7,17.8z"/>
	<path class="st1" d="M462.7,137.7c-0.9,0.5-1.5,1.1-1.9,1c-0.6-0.2-1.1-0.9-1.7-1.4c0.4-0.4,1-1.2,1.3-1.1
		C461.2,136.4,461.7,137,462.7,137.7z"/>
	<path class="st1" d="M459.6,84.3c1-1.2,2.4-1.5,2.9-0.7c0.3,0.4,0.4,1.6,0.2,1.9C461.2,86.6,460.8,84.7,459.6,84.3z"/>
	<path class="st1" d="M473.7,464.4c-0.4-0.6-0.8-0.9-0.8-1.3c0-0.3,0.4-0.6,0.7-0.9c0.4,0.4,0.8,0.7,1,1.1
		C474.6,463.4,474.1,463.8,473.7,464.4z"/>
	<path class="st1" d="M44.9,183.9c1,0.1,1.9,0.6,1.7,1.8c-0.1,0.5-0.9,1.2-1.5,1.2c-0.9,0-1.8-0.4-1.8-1.5
		C43.4,184.5,43.7,183.7,44.9,183.9z"/>
	<path class="st1" d="M480.9,213.6c-1.6-1.4-1.9-2.4-0.9-3.1c0.4-0.3,1.4-0.3,1.8,0C482.8,211.3,482.4,212.4,480.9,213.6z"/>
	<path class="st1" d="M457.3,146.2c0.9-0.6,1.5-1.1,1.6-1c0.6,0.5,1,1.1,1.4,1.8c0,0.1-0.7,0.9-0.9,0.8
		C458.8,147.5,458.3,147,457.3,146.2z"/>
	<path class="st1" d="M196.3,462.6c0.5,0.8,1,1.4,0.9,1.6c-0.3,0.6-1,1-1.5,1.5c-0.3-0.4-0.9-0.9-0.8-1.1
		C195.1,464.1,195.7,463.5,196.3,462.6z"/>
	<path class="st1" d="M24.1,329.1c1.7,0.1,2.5,0.7,2.4,1.8c-0.1,0.6-1,1.4-1.6,1.5c-1,0.1-1.9-0.6-1.8-1.8
		C23.1,329.9,23.9,329.4,24.1,329.1z"/>
	<path class="st1" d="M96.4,444.4c0.1,0.3,0.7,0.8,0.6,1.3c-0.1,0.9-0.5,1.9-1.6,1.6c-0.5-0.1-1.3-0.8-1.2-1.3
		C94.2,445.1,94.7,444.2,96.4,444.4z"/>
	<path class="st1" d="M53.2,392.9c1.7-0.1,2,0.9,1.9,1.8c0,0.5-0.7,1-1,1.5c-0.6-0.7-1.3-1.3-1.7-2C52.3,393.9,53,393.2,53.2,392.9z
		"/>
	<path class="st1" d="M237,47.6c-0.4-0.5-1-1-1.1-1.6c-0.1-0.3,0.7-1,1.1-1.1c0.3-0.1,1.1,0.4,1.1,0.7c0,0.6-0.3,1.3-0.5,1.9
		C237.4,47.5,237.2,47.6,237,47.6z"/>
	<path class="st1" d="M262.3,21.9c-0.5-0.7-1-1.1-0.9-1.3c0.3-0.6,0.8-1,1.2-1.6c0.4,0.3,1.1,0.8,1.1,0.9
		C263.4,20.6,263,21.1,262.3,21.9z"/>
	<path class="st1" d="M480.6,245.6c-0.7-0.9-1.4-1.4-1.6-2.1c-0.1-0.2,0.8-0.8,1.2-1.2c0.6,0.6,1.2,1.2,1.7,1.8
		C481.9,244.2,481.2,244.8,480.6,245.6z"/>
	<path class="st1" d="M57.1,404.8c-0.8,0.5-1.2,1-1.6,1.1c-0.9,0.1-1.7-0.4-1.6-1.4c0-0.4,0.9-1.2,1.2-1.1
		C55.6,403.5,56.2,404.1,57.1,404.8z"/>
	<path class="st1" d="M36.4,139.5c-0.7,0.5-1.3,1.1-1.7,1c-0.5-0.1-1-0.7-1.4-1.1c0.5-0.4,1-1,1.6-1.1
		C35.2,138.2,35.7,138.9,36.4,139.5z"/>
	<path class="st1" d="M124.2,42.2c1-0.8,1.6-1.6,2-1.5c0.7,0.2,1.7,0.9,1.8,1.5c0.2,0.9-0.6,1.7-1.6,1.6
		C125.8,43.7,125.3,43,124.2,42.2z"/>
	<path class="st1" d="M280.5,44.5c-1.1,0.9-1.7,1.8-2.5,2c-0.9,0.1-1.5-0.8-1.5-1.8c0-0.9,1.1-2.1,2-1.9
		C279.1,42.9,279.6,43.7,280.5,44.5z"/>
	<path class="st1" d="M88.2,462.9c-0.5,0.4-0.9,0.8-1.5,1c-0.1,0.1-0.9-0.8-0.8-0.9c0.4-0.6,0.8-1.1,1.3-1.4
		c0.3-0.2,0.9,0.2,1.3,0.4C88.5,462.3,88.4,462.6,88.2,462.9z"/>
	<path class="st1" d="M68.8,16.5c1.6-0.3,2.2,0.1,2.2,1c0,0.3-0.5,0.5-0.8,0.8C69.9,17.8,69.4,17.3,68.8,16.5z"/>
	<path class="st1" d="M126.7,26.6c-0.5-0.7-1-1.1-1-1.6c0-0.2,0.7-0.8,1-0.8c0.3,0,0.9,0.6,0.9,0.9C127.6,25.6,127.1,26,126.7,26.6z
		"/>
	<path class="st1" d="M52.9,429.6c-1.1-1.1-1.9-1.9-2.6-2.6c0.5-0.5,1-1.2,1.7-1.3c1-0.2,2.4,1,2.2,1.9
		C54,428.1,53.5,428.6,52.9,429.6z"/>
	<path class="st1" d="M51.2,123.6c0.1-0.1,0.6-0.8,1-0.8c1,0,1.7,0.7,1.6,1.7c0,0.5-0.8,1.1-1.3,1.2
		C51.4,125.9,51.1,125.1,51.2,123.6z"/>
	<path class="st1" d="M32.3,168.2c0.8,0.8,1.5,1.3,1.5,1.6c-0.1,0.5-0.8,0.9-1.2,1.4c-0.4-0.4-0.9-0.8-1.1-1.3
		C31.4,169.5,31.9,169,32.3,168.2z"/>
	<path class="st1" d="M383.1,34.6c0.5,0.7,1,1.3,1,1.4c-0.5,0.5-1.1,1-1.7,1.4c-0.1,0.1-0.9-0.7-0.8-0.7
		C382,36.1,382.5,35.5,383.1,34.6z"/>
	<path class="st1" d="M202.5,25.8c-0.8-0.9-1.2-1.3-1.6-1.8c0.7-0.5,1.3-1.2,2.1-1.6c0.1-0.1,1.1,0.9,1,1.2
		C203.8,24.3,203.2,24.9,202.5,25.8z"/>
	<path class="st1" d="M48.3,329.9c-0.5,0.6-1,1.3-1.6,1.9c-0.4-0.4-1-0.8-1.3-1.3c-0.2-0.3,0-1.1,0.2-1.2c0.8-0.2,1.6-0.2,2.4-0.2
		C48.1,329.4,48.2,329.6,48.3,329.9z"/>
	<path class="st1" d="M35.5,129.4c0.9,0.3,2.3-0.7,2.2,1.1c0,0.5-0.8,1.3-1.2,1.3C35.3,131.6,35.3,130.7,35.5,129.4z"/>
	<path class="st1" d="M133.5,25.7c0.3-0.5,0.6-1.1,0.9-1.6c0.2,0,0.3,0,0.5,0c0.2,0.5,0.4,1,0.6,1.4c-0.5,0.2-1,0.4-1.5,0.6
		C133.8,26,133.7,25.8,133.5,25.7z"/>
	<path class="st1" d="M32.5,159.1c0.5,0.9,0.9,1.4,1,2c0,0.3-0.5,0.6-0.8,1c-0.5-0.5-1.1-0.9-1.5-1.4
		C31.2,160.6,31.9,159.9,32.5,159.1z"/>
	<path class="st1" d="M27.9,321.6c0.1,1-0.8,1.6-1.5,1.4c-0.8-0.2-1.4-1.1-2.1-1.7c0.5-0.5,1.1-1.4,1.6-1.4
		C26.7,319.9,27.9,320,27.9,321.6z"/>
	<path class="st1" d="M374.7,33.7c0.4,0.7,0.8,1.2,0.7,1.4c-0.2,0.5-0.7,1-1.1,1.5c-0.3-0.3-1-0.8-0.9-1
		C373.6,35,374.1,34.5,374.7,33.7z"/>
	<path class="st1" d="M194.1,20.8c1.3,0.4,1.9,1.1,1.4,2.1c-0.2,0.4-1.4,0.8-1.7,0.5C192.7,22.5,194,21.8,194.1,20.8z"/>
	<path class="st1" d="M480.3,286.1c-0.7,0.1-1.5,0.3-2.2,0.4c-0.1-0.1-0.2-0.2-0.3-0.3c0.2-0.3,0.4-0.9,0.7-0.9
		c0.6-0.1,1.2,0.1,1.8,0.1C480.4,285.7,480.3,285.9,480.3,286.1z"/>
	<path class="st1" d="M480.3,278.9c-0.4,0.2-0.9,0.6-1,0.5c-0.4-0.4-0.7-0.8-1-1.3c0.3-0.2,0.7-0.5,0.8-0.4
		C479.5,278,479.8,278.4,480.3,278.9z"/>
	<path class="st1" d="M159.3,441.5c0,1.3-1,2.3-2.3,2.3c-1.4,0-1.5-1.2-1.6-2.1c-0.1-0.9,1.2-2.2,2.1-2.1
		C158.7,439.7,159.4,440.4,159.3,441.5z"/>
	<path class="st1" d="M167.3,440c0,1.3-1,2.3-2.3,2.3c-1.4,0-1.5-1.2-1.6-2.1c-0.1-0.9,1.2-2.2,2.1-2.1
		C166.7,438.2,167.4,438.9,167.3,440z"/>
	<path class="st1" d="M56.3,244.2c0.2,1.6-0.9,2.2-2.2,2.4c-1.2,0.2-2.8-1.8-2.8-3.1c0-1.5,0.7-2.2,2.2-2.2
		C55,241.2,56.3,242.5,56.3,244.2z"/>
	<path class="st1" d="M56.9,253.2c0.2,1.6-0.9,2.2-2.2,2.4c-1.2,0.2-2.8-1.8-2.8-3.1c0-1.5,0.7-2.2,2.2-2.2
		C55.7,250.2,56.9,251.5,56.9,253.2z"/>
</g>
</svg>
