<?xml version="1.0" encoding="utf-8"?>
<!DOCTYPE svg PUBLIC "-//W3C//DTD SVG 1.1//EN" "http://www.w3.org/Graphics/SVG/1.1/DTD/svg11.dtd">
<svg version="1.1" id="sensei-catground" xmlns="http://www.w3.org/2000/svg" width="1000px" height="750px" viewBox="0 0 1000 750">
<path style="fill:black;" d="M112.4,341.7c5.7-25.8,14.5-51.3,25.4-75.3c13.5-29.7,30.3-57.9,46.6-86.3c7.4-12.9,16.6-24.8,25.4-36.9
	c8-11,17.8-10.5,25.4,0.6c5.8,8.5,11.4,17.1,17.4,25.5c14.7,20.8,35.5,30.4,60.1,34.4c34.4,5.6,66.8-3.4,99.2-12.3
	c20.9-5.7,41.7-12.6,61.3-21.7c29.9-13.8,58.8-29.9,88.1-45.1c14.9-7.7,29.6-15.7,44.4-23.5c7.6-4,17.2,1.9,23.7,11.9
	c12.6,19.5,17.1,41.9,24.4,63.3c2.3,6.7,5.5,9.8,12.8,11c16.5,2.7,32.8,6.6,49,10.8c21.9,5.7,44.7,9.8,65.3,18.7
	c36.2,15.6,72,34.8,90,72.2c19.1,39.7,31.2,81.6,28.9,127.4c-2.1,42.7-16.5,81.3-29.8,120.8c-7.2,21.5-11.9,43.8-17.8,65.8
	c-3.7,13.6-13.6,21.5-25,28.5c-11.2,6.8-22.4,6.8-35.3,5.8c-30.5-2.3-61.2-2-91.8-2.3c-25.7-0.3-51.3-0.5-77,0.4
	c-29.5,1-58.9,3.2-88.3,4.7c-38,1.8-75.9,3.3-113.9,5c-36.2,1.7-72.4,4.9-108.5,4.9c-29.6,0-59.1-4.4-88.7-5.6
	c-12.7-0.5-21.6-6.5-30-14.5c-2.1-2-4.6-4.5-5-7.1c-2.7-17.4-15.1-29.1-24.3-42.6c-26.2-38.3-49.1-78.2-59.5-124.1
	c-1.8-7.7-3.5-17.7-3.1-23.7C103,409.6,112.4,341.7,112.4,341.7z"/>
</svg>
