<?xml version="1.0" encoding="utf-8"?>
<!-- Generator: Adobe Illustrator 16.0.0, SVG Export Plug-In . SVG Version: 6.00 Build 0)  -->
<!DOCTYPE svg PUBLIC "-//W3C//DTD SVG 1.1//EN" "http://www.w3.org/Graphics/SVG/1.1/DTD/svg11.dtd">
<svg version="1.1" id="Layer_1" xmlns="http://www.w3.org/2000/svg" xmlns:xlink="http://www.w3.org/1999/xlink" x="0px" y="0px"
	 width="500px" height="500px" viewBox="0 0 500 500" style="enable-background:new 0 0 500 500;" xml:space="preserve">
<style type="text/css">
<![CDATA[
	.st0{fill-rule:evenodd;clip-rule:evenodd;}
	.st1{fill-rule:evenodd;clip-rule:evenodd;fill:#FFFFFF;}
]]>
</style>
<path class="st0" d="M142.3,18.8c12.9,7.4,22.1,12.1,30.1,17.5c33.7,22.3,86.5,31.6,130.2,18.1c23.2-7.2,40.6-21.6,59.7-33.3
	C370.7,16,376.9,9.6,388.7,0c5,12.5,13.7,21.3,10.3,27.7c-11.6,22,1.4,42.9,3.6,64.1c2.2,20.7,6,41.6,12.1,62
	c9,30,20,59.7,31.3,89.4c6.6,17.5,14.6,34.8,23.5,51.9c4.8,9.2,11.8,18.2,19.4,26.7c25.1,28.1,6.8,48.6-46,49
	c-26.1,0.2-52.2-2.7-78.4-4.3c-2.2-0.1-4.7-1.1-6.7-0.7c-45.3,7.5-88.9-5-134-4.9c-30.4,0-60.4,5-90.9,2.1
	c-14.7-1.4-28.5,2.1-33.3,11.3c-5.1,9.7-4.3,20.3,10.2,27c18.2,8.4,36.8,17.8,57.8,22.2c49.6,10.4,99.8,19.8,154,18.3
	c28.9-0.8,56.2-2.1,83.3-9.7c16.8-4.8,37.6-5.3,56.8-5.7c21-0.5,27.8,5.1,27.9,18.3c0.1,19.4-21.4,30.5-44.3,39.7
	c-41.1,16.4-85.9,19.3-134.1,11.9c-54.2-8.2-107.5-17.8-159.9-29.7c-48.6-11-87.7-30.3-122.7-52.2c-32.5-20.4-42.6-77.4-1.4-98.4
	c7.7-3.9,11.7-10.7,19.8-14.3c44-19.6,58.5-48.7,69-78.8c20.3-58.2,25.3-117.2,21.8-176.6c-0.3-5.6-0.6-11.2-0.4-16.8
	C137.3,27.5,139,25.6,142.3,18.8z"/>
<path class="st1" d="M282.1,139c-0.7-26-37.2-43.7-71.6-40.4c-41.9,4-60.2,24.5-42.4,47.3c3.9,5,7.7,10,12.5,14.7
	c19.4,18.8,57.2,22.9,79.3,6.7C272.4,158.3,277.3,145.4,282.1,139z"/>
<path class="st1" d="M284.7,170.4c29.8,12.1,52.5,12.8,74.2,4.8c28.3-10.4,32.9-25.8,27.7-43.6c-1.8-6.1-4.4-12.7-10-17.6
	c-7.6-6.6-17.6-12.4-28.1-17.3c-17.2-8.1-33.2-1.4-47.4,4.1c-14.1,5.5-5.1,13.5-3.6,20.9c1.6,7.9,1.8,16.1-0.3,23.9
	C294.9,153.7,289.3,161.4,284.7,170.4z"/>
<path class="st0" d="M225.4,138c-6.2-9.4-12.9-18.9,9.8-23.9c3.7-0.8,13.7,2.7,14.9,5.3C255.3,130.8,251.5,139.4,225.4,138z"/>
<path class="st0" d="M331.5,136.7c-15.3-7.4-20.9-15.1-13-22.2c2-1.8,16.7-0.1,20.8,2.8C352.8,126.6,345.1,132.2,331.5,136.7z"/>
</svg>
