<?xml version="1.0" encoding="utf-8"?>
<!DOCTYPE svg PUBLIC "-//W3C//DTD SVG 1.1//EN" "http://www.w3.org/Graphics/SVG/1.1/DTD/svg11.dtd">
<svg version="1.1" id="ennoia" xmlns="http://www.w3.org/2000/svg" xmlns:xlink="http://www.w3.org/1999/xlink" x="0px" y="0px"
	 width="1000px" height="160px" viewBox="138.8 294.1 1000 160" style="enable-background:new 138.8 294.1 1000 160;"
	 xml:space="preserve">
<g>
	<g>
		<path d="M363.7,349.7l-16.4-9.5v-18.9l16.4-9.5l16.4,9.5v18.9L363.7,349.7z M350.1,338.7l13.6,7.9l13.6-7.9v-15.7l-13.6-7.9
			l-13.6,7.9V338.7z"/>
		<polygon points="378.7,374.1 468.7,426 453.7,452 363.7,400.1 348.7,391.4 348.7,374.1 363.7,365.4 		"/>
		<path d="M453.7,349.7l-16.4-9.5v-18.9l16.4-9.5l16.4,9.5v18.9L453.7,349.7z M440.1,338.7l13.6,7.9l13.6-7.9V323l-13.6-7.9
			l-13.6,7.9V338.7z"/>
		<polygon points="438.7,339.4 438.7,356.8 453.7,365.4 468.7,356.8 468.7,339.4 453.7,330.8 		"/>
		<polygon points="438.7,374.1 438.7,391.4 453.7,400.1 468.7,391.4 468.7,374.1 453.7,365.4 		"/>
		<path d="M453.7,436.3l-16.4-9.5v-18.9l16.4-9.5l16.4,9.5v18.9L453.7,436.3z M440.1,425.2l13.6,7.9l13.6-7.9v-15.7l-13.6-7.9
			l-13.6,7.9V425.2z"/>
		<polygon points="438.7,426 438.7,443.3 453.7,452 468.7,443.3 468.7,426 453.7,417.4 		"/>
		<polygon points="438.7,304.8 438.7,322.2 453.7,330.8 468.7,322.2 468.7,304.8 453.7,296.2 		"/>
		<polygon points="378.7,304.8 378.7,322.1 363.7,330.8 348.7,322.1 348.7,304.8 363.7,296.2 		"/>
		<polygon points="378.7,339.4 378.7,356.8 363.7,365.4 348.7,356.8 348.7,339.4 363.7,330.8 		"/>
		<path d="M363.7,436.3l-16.4-9.5v-18.9l16.4-9.5l16.4,9.5v18.9L363.7,436.3z M350.1,425.2l13.6,7.9l13.6-7.9v-15.7l-13.6-7.9
			l-13.6,7.9V425.2z"/>
		<polygon points="378.7,443.4 378.7,426 363.7,417.4 348.7,426 348.7,443.4 363.7,452 		"/>
		<polygon points="378.7,391.4 378.7,374.1 363.7,365.4 348.7,374.1 348.7,391.4 363.7,400.1 		"/>
	</g>
	<g>
		<path d="M515,349.7l-16.4-9.5v-18.9l16.4-9.5l16.4,9.5v18.9L515,349.7z M501.4,338.7l13.6,7.9l13.6-7.9v-15.7l-13.6-7.9l-13.6,7.9
			V338.7z"/>
		<polygon points="530,374.1 620,426 605,452 515,400.1 500,391.4 500,374.1 515,365.4 		"/>
		<path d="M605,349.7l-16.4-9.5v-18.9l16.4-9.5l16.4,9.5v18.9L605,349.7z M591.4,338.7l13.6,7.9l13.6-7.9V323l-13.6-7.9l-13.6,7.9
			V338.7z"/>
		<polygon points="590,339.4 590,356.8 605,365.4 620,356.8 620,339.4 605,330.8 		"/>
		<polygon points="590,374.1 590,391.4 605,400.1 620,391.4 620,374.1 605,365.4 		"/>
		<path d="M605,436.3l-16.4-9.5v-18.9l16.4-9.5l16.4,9.5v18.9L605,436.3z M591.4,425.2l13.6,7.9l13.6-7.9v-15.7l-13.6-7.9l-13.6,7.9
			V425.2z"/>
		<polygon points="590,426 590,443.3 605,452 620,443.3 620,426 605,417.4 		"/>
		<polygon points="590,304.8 590,322.2 605,330.8 620,322.2 620,304.8 605,296.2 		"/>
		<polygon points="530,304.8 530,322.1 515,330.8 500,322.1 500,304.8 515,296.2 		"/>
		<polygon points="530,339.4 530,356.8 515,365.4 500,356.8 500,339.4 515,330.8 		"/>
		<path d="M515,436.3l-16.4-9.5v-18.9l16.4-9.5l16.4,9.5v18.9L515,436.3z M501.4,425.2l13.6,7.9l13.6-7.9v-15.7l-13.6-7.9l-13.6,7.9
			V425.2z"/>
		<polygon points="530,443.4 530,426 515,417.4 500,426 500,443.4 515,452 		"/>
		<polygon points="530,391.4 530,374.1 515,365.4 500,374.1 500,391.4 515,400.1 		"/>
	</g>
	<g>
		<path d="M911.3,393l-17.8-10.3l17.8-10.3l17.8,10.3L911.3,393z M899.1,382.8l12.2,7.1l12.2-7.1l-12.2-7.1L899.1,382.8z"/>
		<path d="M881.3,393l-17.8-10.3l17.8-10.3l17.8,10.3L881.3,393z M869.1,382.8l12.2,7.1l12.2-7.1l-12.2-7.1L869.1,382.8z"/>
		<path d="M911.3,427.6l-17.8-10.3l17.8-10.3l17.8,10.3L911.3,427.6z M899.1,417.3l12.2,7.1l12.2-7.1l-12.2-7.1L899.1,417.3z"/>
		<path d="M881.3,427.6l-17.8-10.3l17.8-10.3l17.8,10.3L881.3,427.6z M869.1,417.3l12.2,7.1l12.2-7.1l-12.2-7.1L869.1,417.3z"/>
		<g>
			<path d="M911.3,358.3l-16.4-9.5v-18.9l16.4-9.5l16.4,9.5v18.9L911.3,358.3z M897.7,347.2l13.6,7.9l13.6-7.9v-15.7l-13.6-7.9
				l-13.6,7.9V347.2z"/>
			<path d="M881.3,358.3l-16.4-9.5v-18.9l16.4-9.5l16.4,9.5v18.9L881.3,358.3z M867.7,347.2l13.6,7.9l13.6-7.9v-15.7l-13.6-7.9
				l-13.6,7.9V347.2z"/>
			<polygon points="881.3,356.8 881.3,374.1 896.3,382.8 911.3,374.1 911.3,356.8 896.3,348.1 			"/>
			<polygon points="881.3,391.3 881.3,408.6 896.3,417.3 911.3,408.6 911.3,391.3 896.3,382.7 			"/>
			<polygon points="881.3,426 881.3,443.3 896.3,452 911.3,443.3 911.3,426 896.3,417.4 			"/>
			<polygon points="881.3,304.8 881.3,322.2 896.3,330.8 911.3,322.2 911.3,304.8 896.3,296.2 			"/>
		</g>
	</g>
	<g>
		<g>
			<path d="M1018.9,454.1h-64.8l32.4-56.1L1018.9,454.1z M958.9,451.3h55.2l-27.6-47.8L958.9,451.3z"/>
			<path d="M1078.8,454.1h-64.8l32.4-56.1L1078.8,454.1z M1018.9,451.3h55.2l-27.6-47.8L1018.9,451.3z"/>
			<path d="M1138.8,454.1H1074l32.4-56.1L1138.8,454.1z M1078.8,451.3h55.2l-27.6-47.8L1078.8,451.3z"/>
			<path d="M1075.6,454l-31.5-54.6h63l0.9,1.4l-30.7,53.2L1075.6,454z M1048.8,402.2l27.6,47.8l27.6-47.8H1048.8z"/>
			<path d="M1046.4,403.5l-31.5-54.6l0.9-1.5h61.2l0.9,1.5L1046.4,403.5z M1018.9,350.2l27.6,47.8l27.6-47.8H1018.9L1018.9,350.2z"
				/>
			<path d="M1048.8,402.1h-64.8l32.4-56.1L1048.8,402.1z M988.9,399.4h55.2l-27.6-47.8L988.9,399.4z"/>
			<path d="M1108.8,402.1H1044l32.4-56.1L1108.8,402.1z M1048.8,399.4h55.2l-27.6-47.8L1048.8,399.4z"/>
			<path d="M1078.8,350.2h-64.8l32.4-56.1L1078.8,350.2z M1018.9,347.4h55.2l-27.6-47.8L1018.9,347.4z"/>
		</g>
		<g>
			<polygon points="1023.9,335.8 1001.5,374.8 1046.4,374.8 			"/>
			<polygon points="1068.9,335.8 1046.4,374.8 1091.4,374.8 			"/>
			<polygon points="1046.4,296.9 1023.9,335.8 1068.9,335.8 			"/>
		</g>
		<g>
			<polygon points="979,413.7 956.5,452.7 1001.4,452.7 			"/>
			<polygon points="1023.9,413.7 1001.4,452.7 1046.4,452.7 			"/>
			<polygon points="1001.4,374.8 979,413.7 1023.9,413.7 			"/>
		</g>
		<g>
			<polygon points="1068.9,413.7 1046.4,452.7 1091.4,452.7 			"/>
			<polygon points="1113.9,413.7 1091.4,452.7 1136.3,452.7 			"/>
			<polygon points="1091.4,374.8 1068.9,413.7 1113.9,413.7 			"/>
		</g>
	</g>
	<g>
		<rect x="138.8" y="305.2" width="147.4" height="31.8"/>
		<rect x="138.8" y="357.8" width="147.4" height="31.8"/>
		<rect x="138.8" y="411.1" width="147.4" height="31.8"/>
	</g>
	<g>
		<g>
			<path d="M776.9,324.9l28.4,49.2l-28.4,49.2h-56.8l-28.4-49.2l28.4-49.2H776.9 M791.5,299.6h-86l-43,74.5l43,74.5h86l43-74.5
				L791.5,299.6L791.5,299.6z"/>
		</g>
	</g>
</g>
</svg>
