<svg version="1.1" id="Layer_1" xmlns="http://www.w3.org/2000/svg" x="0" y="0" width="1800" height="1200" xml:space="preserve"><style>.st0{fill-rule:evenodd;clip-rule:evenodd}</style><path class="st0" d="M1626 1200h-580c.5-3.7.9-7.5 1.6-11.2.2-1 1.1-1.9 1.7-2.9-1.6-.5-3.1-1.3-4.7-1.4-4.2-.3-8.4-.7-12.5-.3-5.4.5-11.5.4-15.8 3.1-2 1.2-.3 8.3-.3 12.7h-26c1.5-.8 3.1-1.6 4.6-2.5-2.6-3.5-5.2-7-8-10.4-1.6-2-3.4-3.7-5.2-5.5 2.5-2.2 4.8-4.7 7.5-6.6 4-2.9 19.2 7 11-9.8-.2-.4 1.4-1.5 2.1-2.4 3-3.9 6-7.7 9.1-11.6-2.3-1.3-6.5-2.4-6.6-3.8-.4-7.9.4-15.8.4-23.7 0-11.3 0-11.1 7.4-19.2 1.7-1.8 1.5-5.4 2.1-8.2-2.1.4-5 2-6.2 1.1-6.1-4.4-20.1 9.4-19.9-8.1.1-4.9 4.4-9.9 7.3-14.5 2.8-4.4 6.4-8.3 9.6-12.5 1.8 5.6 3.7 11.3 5.5 16.9.3 1.1.2 2.3.3 3.4 1.2-.7 3.1-1.1 3.4-2 .5-1.4-.2-3.1-.5-4.7-.1-.5-.3-1-.5-1.5 2 1.8 3.9 3.8 6.1 5.1 1.1.6 3.3-.8 4.6-.4 6.2 2 12.3 4.6 18.5 6.4.5.1 1.9-5.8 3.3-6 17.3-2.4 12.6-16 9.7-24.1-3.6-10.2-11.5-19.3-18.8-27.7-5.8-6.7-13.5-12-20.7-17.4-4.8-3.6-13.4-5.3-14.7-9.6-1.3-4.2 3.2-11.8 7.3-15.7 10.8-10.4.8-17.2-2.7-25.6-2.2-5.3-3.1-11.2-3.8-16.9-.2-1.8 2.3-5.6 3.1-5.4 2.7.4 5 2.6 7.7 3.4 2 .6 4.4.4 6.5.1 4.1-.6 8.4-2.7 12-1.9 2.6.6 4.2 5.1 6.3 7.8 2.6 3.4 5 6.9 7.8 10.2.4.5 2.1-.1 3.2-.2-.1-.4-.2-.9-.1-1.2 1-4.8 1.6-9.7 3.4-14.2.6-1.7 3.9-3.1 6-3.3 9.1-.5 18.9 1.8 27-1.2 7.3-2.7 13-10.4 18.2-17 1.2-1.5-2.9-7.2-4.5-11-4.3 1.9-8.5 4.8-13 5.4-3.8.5-8.3-2.9-12.1-2.1-20.7 4-15.4-10.1-15-20.8l.3-13.2c-4.2 5.8-9.8 11.2-12.2 17.7-2.1 5.7-.7 12.7-.8 19.1-3.6-4.1-6.6-9.1-10.9-12.1-3.5-2.5-8.6-3.2-13.1-3.6-.9-.1-2.4 4.6-3.4 7.2-.1.2 1.1.8 1.4 1.4 1.2 2.4 2.8 4.7 3.2 7.3.1.7-3.1 3-4.7 2.9-11.7-.2-23.3-1.2-34.9-1.1-7.9.1-18.9 9.9-19.6-7.9-.1-1.5-2.8-4.2-4.1-4.1-2.7.3-5.3 2.1-7.9 3.2 1.7.6 4.8 1 5 1.9.7 3.6.7 7.3.5 11-.1.9-2.8 2.6-2.9 2.4-8.4-8.1-17-16-24.7-24.6-2.1-2.3-1.8-6.8-2.6-10.3-3.5 3-7 6.1-10.6 9-2.3 1.8-5 3.2-7.7 4.5-.1 0-1.3-2-2-3.2-1.9-3.3-3.4-6.7-5.6-9.7-2.2-3-5.1-5.5-7.6-8.4-.5-.5-.6-2.2-.7-2.1-2.1.4-4.3.8-6.2 1.7-.8.4-1.3 2.2-1.1 3.3.2 1.4 1.2 2.8 1.8 4.1-1.9.1-3.9-.2-5.7.2-1.8.4-3.5 1.3-5.1 2.2-5.1 2.8-9.9 6.2-15.2 8.3-5.8 2.3-16.4 2.1-17.4 5.3-2.6 8.3-.6 17.9-1.3 26.9-.3 3.7-3.1 7.1-4.8 10.7 0 .1-.7-.2-1.1-.3.9-2.8 3-5.9 2.5-8.5-1.7-8.8-4.1-17.5-6.5-26.1-1.4-5-3.2-10-4.8-14.9 3.7-.1 7.5-.6 11.1-.1 4.2.6 10.2 4.4 12 2.8 3.3-2.8 4.1-8.6 6-13.1 1.3-3.1 2-7.1 4.4-8.9 4.2-3.2 12.4-4 13.5-7.5 1.3-4-3.5-9.8-5.5-14.9-.3-.8 0-1.8 0-2.7-3.5 3.9-7.1 7.7-10.6 11.6 1.5-.5 3.5-1.8 4.3-1.3 1.7 1.1 2.8 3.1 3.9 4.8.1.1-1.3 1.7-1.6 1.6-6.8-2.7-13.6-5.6-20.4-8.2-2.4-.9-5.1-1.2-7.7-1.7.6 1.8 1.6 3.6 1.6 5.4 0 1.9-.8 5.4-1.6 5.5-4.2.5-8.5.2-12.7.1-.2 0-.7-1.5-.4-1.8 4.1-5.8 8.3-11.5 12.5-17.2.1-.1 1.4.5 1.8 1.1.6.9.6 2.5 1.3 2.8.7.3 2-.5 3-.9-5.2-1.3 6.5-18.6-9.3-9.8-2.4 1.3-5.2 2.4-6.9 4.4-2.2 2.8-5.2 6.5-4.9 9.5 2 15.3-8.2 7.5-11.8 5.4-6.5-3.7-11.4-10.1-17.6-14.5-3.9-2.8-9.1-3.9-13.7-5.7-.3 6-.6 11.9-1.1 17.9-.1.9-.7 2.5-.9 2.5-1.2-.2-2.3-.7-3.4-1.2-2.5-1.2-4.9-3.3-7.4-3.4-2.6-.1-5.4 1.4-7.8 2.8-3.9 2.1-7.4 4.8-11.2 7-.5.3-1.9-.9-3-1.4.3 1 1.1 2.3.8 3.1-1.2 2.9-2.8 5.7-4.4 8.4-.1.2-2.3-.2-2.4-.6-.2-1.1-.2-2.5.3-3.5s1.8-1.5 2.4-2.5c.8-1.2 1.2-2.6 1.8-4-4.8 1.1-10 1.4-14.2 3.5-3.4 1.7-5.7 5.6-8.5 8.5-.7-4.1-1.4-8.3-2-12.4l-.1.1c2.7-1.8 7.3-3.4 7.5-5.5.4-3.3-2.3-6.9-3.6-10.4.8-1.1 1.6-3.1 2.4-3.1 1.6 0 3.2 1.1 4.8 1.8-1.1-2.9-1.5-7.8-3.3-8.4-5.1-1.7-10.8-1.6-16.3-2.1-.3 0-.9 1.3-1 2-.9 10.8 4.9 12.2 13.5 9.7-3.1 1.4-6.2 2.9-9.2 4.3-8.8 4.1-17.7 8.1-26.5 12.4-1.4.7-2.4 2.1-3.6 3.2-1.4-2.1-2.7-4.3-4.1-6.4 1.7.1 3.3.2 5 .1.7 0 1.4-.4 2.1-.6-.6-.6-1.3-1.9-1.7-1.8-7.3 2.1-14.5 4.3-21.8 6.3-.4.1-1.4-2-2.1-3-1.7-2.3-3.7-4.5-5.1-7-1.4-2.7-2-8-3.2-8.1-5.3-.4-10.8.7-16.2 1.4-.1 0 0 1.3-.1 2-.1 2.5.4 5.1-.4 7.4-.4 1.2-2.8 1.7-4.3 2.5.3-2.5.7-5 .7-7.5 0-.8-1.4-1.5-2-2.3-.5-.8-1.1-1.8-1.2-2.8-1.6-13.8-2.8-27.7-4.7-41.5-.4-2.8-3.3-5.3-5-8 2.6 1 5.5 1.5 7.6 3.1 2 1.5 3.1 4.2 4.7 6.3 1.2 1.7 2.3 3.5 3.8 4.9 1.1 1 3 1 4.2 1.9 4.7 3.4 9.2 7.1 13.8 10.6 2.6-5.4 6.2-10.5 7.5-16.1 3.7-15.3 6-30.9 9.9-46 1.6-6 5.2-12 9.4-16.5 8.7-9.4 18.2-18.1 27.9-26.5 2.7-2.3 7.4-2.4 11.1-3.5-2.9-6.4-5.9-12.9-8.7-19.3-.6-1.5-1.2-3.1-1.1-4.7.1-1.1 1.3-2.1 2-3.2.1 1.3-.2 2.7.3 3.8.4.9 1.9 2.3 2.5 2.1 1.5-.5 3.6-1.6 3.9-2.8.3-1.3-1.3-3-2.1-4.4-.8-1.2-2.7-2.6-2.4-3.4 5.4-16.7 9.5-33.9 17-49.6 4-8.3 13.9-13.6 20.9-20.5 1.8-1.8 2.9-4.4 4.1-6.8.1-.3-.8-1.2-1.3-1.7-3.9-3.4-7.8-6.9-11.8-10.2-3-2.6-6-5.2-9.4-7.3-.7-.4-2.9 1.5-4.4 2.4-5.2 3.2-10.6 6-15.3 9.8-2.9 2.4-4.8 6.1-7.1 9.3 1.5.5 3.9.6 4.3 1.5 1.6 4.1 2.9 8.3 3.7 12.6.1.7-2.9 1.7-3.6 3.1-1.9 3.9-3.5 8.1-4.9 12.2-.3.9.7 2.1.9 3.2.5 2 1.4 4.1 1.1 6-1.1 5.8-1.9 11.9-4.4 17.1-5 10.3-11 20.2-16.9 30.1-4 6.8-10 12.8-12.6 20-3.9 10.8-4.4 22.8-8.6 33.4-4.7 11.9-11.7 22.9-17.8 34.3-.6 1.1-1.7 1.8-2.5 2.7l-.6-2.7c-.3-1.2-.6-2.3-.9-3.5-1.6 1-3.3 2-4.9 3 .9.6 1.9 1 2.6 1.7 1.8 2.1 3.5 4.3 5.2 6.5-1.9 1-4.9 3.3-5.4 2.9-2.5-2.2-4.1-5.4-6.4-7.8-3.2-3.3-6.7-6.4-10.2-9.4-4.7-4.1-9.5-7.9-14.1-12.1-5.1-4.7-10-9.7-14.9-14.6 1-.8 2.1-1.7 3.1-2.5-6.4-3-12.5-7.3-19.2-8.3-3.3-.5-7.1 6-11.3 8-4.5 2.1-9.8 2.7-14.8 3.8-.1 0-.7-1.8-1.1-2.8 1.5-.1 3-.3 4.5-.4-2.3-7.9-3.1-21.5-7.3-22.6-7.3-2 4.2-24.2-12.5-10.9-.1.1-1.3-.8-1.3-1.1.3-5.2-.6-10.9 1.5-15.2 1.3-2.7 7.1-3.3 10.9-4.9-4.9-1.3-9.7-2.5-14.5-3.8-.2 0-.2-1-.1-1.4 1.4-10.1 2-20.4 4.4-30.3 2.7-10.9 7.6-21.2 10.3-32 .7-2.8-5.2-8.5-4.2-9.8 5-6.1 11.2-11.1 17.1-16.4.5-.5 1.8-.2 2.7-.3-.8-.5-1.6-1.2-2.5-1.3-2.3-.5-5.8 0-6.8-1.3-1.3-1.9-1.6-5.3-.8-7.6 1.9-5.8 6.4-11.4 6.3-17.1 0-4-5.4-8.5-9.2-11.7-2.5-2.1-7.9-1.5-9.5-3.9-2-2.9-1.8-7.5-2-11.4-.2-4.7.3-9.5.2-14.3 0-.4-2.8-1.3-3.5-.9-1.3.8-1.9 2.5-2.9 3.8-.7-.6-1.6-1.2-2.1-2s-.9-2.3-.6-2.9c5.6-8.9 11.3-17.7 17-26.6 1.5-2.3 4-4.4 4.3-6.8.3-2.1-2-4.5-3.1-6.8l-.4.4c-2.9-.9-6.2-1.3-8.6-2.9-1.1-.7-1.6-4.5-.8-5.7 1.4-1.9 4.4-4.3 6.2-3.9 2.9.5 5.5 3.2 8.2 4.9-1.6-3.5-3.9-7-4.6-10.7-.4-2.1 2.6-4.6 3.1-7.2 1-4.6 1.6-9.4 1.6-14.1 0-.9-3.7-1.9-5.6-2.8 1.1-1.4 1.9-3.4 3.3-4 1-.4 2.8 1.1 4.3 1.7-.5-2.5-.1-5.8-1.5-7.2-3.7-3.3-8.2-5.7-12.3-8.5-1.3-.9-3.7-2-3.6-2.8.2-1.5 1.8-2.8 2.8-4.2.1-.1.6.1.9.2 7.3 3.6 14.7 7.3 22 11l-.1-.1c2.4 1.5 4.5 3.8 7.1 4.4 6.7 1.5 13.6 2.2 20.4 3.6 1.4.3 2.6 1.9 3.8 2.8-.5-2.2-.9-4.4-1.5-6.6-1.2-4.2-4-8.6-3.2-12.3.5-2.2 7.1-4.7 10.3-4 4.7 1 8.9 4.6 13.2 7.2.2.1-.8 1.5-.6 2.2.7 2.2 1.7 4.3 2.6 6.4 2.2-1.1 4.7-1.9 6.5-3.5 1.2-1.1 1.4-3.3 2.1-5 .6.6 1.2 1.6 1.7 1.6 2 0 4.1-.1 6-.6 1.7-.4 3.3-1.4 4.9-2.1l5.1 14.1c-2.2-1.7-4.4-3.3-6.6-5-.2 1.9-.4 3.7-.6 5.6l7.2-.6c1.1 2.8 2.2 5.7 3.1 8.5 1.6 4.6 3.1 9.3 4.7 14 .4 1.2.8 2.6 1.7 3.3.7.5 2.3.3 3.2-.1 6.3-3 12.3-6.7 18.9-9.1 1.7-.6 4.6 3.4 7.3 4.5 1.6.7 3.9-.1 5.8-.3-.6-2.8-.7-5.9-2.1-8.2-1.2-1.9-4-3-6.3-4.2-1.4-.7-4.5-1.2-4.5-1.3.9-4.4 2-8.8 3.2-13.2 1.2 2.3 2.5 4.6 3.7 6.9.4.7.8 1.3 1.3 1.9.2-.6.4-1.1.5-1.7.4-3.1.7-6.3 1.1-9.4.3-2.9.6-5.8.9-8.8 2 2.3 4.1 4.6 6.1 6.8 0 0 .7-.4.6-.6-.3-6.6-.7-13.2-1.1-19.7-1.9.2-3.8.6-5.8.5-.7 0-1.9-1.4-1.8-1.7.4-1.3 1-3 2.1-3.4 14-5.8 13.7 9 20 14.2 2.2 1.8 4 6.5 5.6 6.3 4.4-.5 8.7-2.8 13-4.4.3-.1.9.3 1.3.5l4.2 2.4c-.1-1.8.3-4-.5-5.4-.6-1-3.1-.7-4.3-1.6-2.5-1.8-4.7-3.8-6.8-6-.5-.6-.2-3-.1-3 2.1-.3 4.9-1.1 6.3-.2 6.6 4.4 13.7 8.5 19 14.3 4.1 4.5 5.5 11.3 8.4 17 .6 1.1 2.3 1.9 3.6 2.3.4.1 1.2-1.7 2-2.2 1.8-1 3.8-2.2 5.8-2.5 2.5-.4 5.1.4 7.7.1 3.4-.4 6.9-2 10.2-1.6 1.9.3 5.2 4.6 4.9 5.2-1.6 2.7-4.2 5-6.8 6.8-2.2 1.5-5 2.3-7.6 3.4 2.7 2 5.5 3.9 8.2 5.9 1 .7 2.8 1.2 2.9 2 .3 3.4-1.2 9.2.2 10 5.6 3.2 12.6 7.3 18.2 6.3 6.1-1.1 11.1-7.8 16.9-11.5 1.3-.8 4.2 0 5.8 1 .7.5-.2 3.2-.1 4.9.2 2.2 0 5.2 1.3 6.5 6.8 7 14.1 13.6 21.1 20.5 1.8 1.8 3.3 4 4.8 6.2.2.3-1.1 1.5-1.6 2.3 1.4-.3 2.8-1.1 4.1-.8 3.1.7 7.1.9 9 3 5 5.4 9.1 11.6 13.5 17.6.3.5.9 1.4.9 1.4-.6.5-1.7.7-2 1.4-2.3 4.3-4.4 8.7-6.6 13.1-1.9 3.9-3.1 8.4-5.7 11.7-2.3 2.9-8.6 4.4-8.8 6.8-.5 5.3 1.9 10.8 3.2 16.2 0 .1 1.3.1 1.8-.1 1.2-.7 2.3-1.7 3.5-2.5.3 1.8-.1 4.2.9 5.4 4.4 5.3 9.2 10.2 14 15.2.6.6 1.7.6 2.6.8.2 0 .6-.3.7-.5.4-.5.7-1.1 1-1.7 3.4 3.1 7.3 5.8 10 9.4 4.2 5.7 7.2 12.4 11.7 17.8 1 1.2 6.3-1.1 9.6-2 .1 0-.3-1.5-.4-2.4-.2-1.2-.4-2.3-.6-3.5 1.1-.1 2.8-.7 3.1-.2.6.8.4 2.2.5 3.4.1 1.1.2 2.2.3 3.4 1.4-.1 2.8-.3 4.3-.4-.2-1-.4-2-.5-3.1-.1-1 0-2.1 0-3.1 1.9.4 3.8.6 5.5 1.3.7.2 1 1.4 1.6 1.9 1 1 2.1 2.6 3.3 2.7 2.9.4 5.9.1 8.8.1-.9 2.2-1.9 4.4-2.6 6.6-.1.5.9 1.8 1.4 1.8 2.4.1 4.8-.1 7.1-.2-1-1.4-3.1-3.4-2.8-4 3.6-5.8 7.6-11.3 11.5-16.9 0-.1 1.7.6 1.8 1.1.1 1-.8 2.7-.5 2.9.9.7 2.8 1.4 3.4.9 5.3-4.1 14.2-8.4.5-13.3-.1 0-.2-.8-.1-.9 4.2-3.8 8.7-7.2 12.5-11.3 3-3.2 5.1-7.2 7.6-10.9-14.3-2.7-8.7-8.8-1.5-13 2.6-1.5 7.8 2.3 11.8 2.2 9.4-.4 19.2-.3 28-3.1 6-2 10.6-8.5 15.8-13 .6-.5.8-2 1.3-2.1 7-1.7 14.2-2.7 21.1-4.9 3.2-1 6.3-3.8 8.2-6.6 1.3-1.9.3-5.3.4-8 7 2.7 13.7 6.2 20.9 8 5.5 1.4 11.6.7 17.4.9.7 0 2.2-1 2.1-1.2-.8-2.4-1.3-6.1-3-6.9-2.3-1-5.7.7-8.6.3-5.1-.6-10-1.9-15-2.9 2.6.2 5.3.7 7.9.6.9 0 1.8-1.3 2.6-2.1 2.8-3.1 7.5-9.2 8-8.8 5.2 3.5 9.7 8 14.5 12.2 1.6 1.4 3.2 2.7 4.9 3.9.1.1.8-1.2 1.4-1.4 3.6-1.2 7.2-3.1 10.9-3.1 1.6 0 2.7 4.4 4.8 5.9 2.2 1.6 5.2 2.4 8 2.8 1.3.2 2.9-1 4.2-1.7 4.8-2.6 9.3-6 14.4-7.9 12.3-4.6 24.9-8.3 37.1-13.1 1.9-.8 2.4-5.4 3.3-8.4.6-1.8.9-3.7 1.4-5.5 1.9.7 3.8 1.8 5.7 1.8 1.6 0 3.1-1.4 4.8-2 4.5-1.7 8.9-3.5 13.5-4.8.7-.2 2.5 2.2 3.3 3.6 1.7 3 3.2 6.3 4.8 9.4 1.5-2.9 3.2-5.7 4.5-8.7.9-2 1.2-4.3 1.7-6.5 1.2 1.4 2.3 2.9 3.7 4.2 2.7 2.6 5.1 6.5 8.2 7.2 8.9 1.8 18.3 1.5 27.1 3.6 7.2 1.7 13.9 5.6 20.9 8.3 1.2.5 3 .5 4.2 0 .8-.3.9-2 1.4-3.1-1.4-.2-3.8-.1-4-.7-.9-2.5-.8-5.4-1.6-8-.7-2.3-3.1-4.7-2.8-6.7.5-2.7 3.6-7.4 4.4-7.2 6.2 1.8 12 4.6 18 7 4.3 1.7 8.7 3.3 13 5l2.7.9c-.2-.6-.7-1.3-.5-1.9.8-2.8 1.1-6.5 3-8.2 1.2-1.1 5 1.3 7.7 1.4 3.9 0 7.9-.4 11.8-1 2-.3 4.1-2.2 5.9-2 1.9.3 4.4 1.9 5.1 3.5 1 2.5 1.2 5.7.5 8.3-.5 1.8-3 3.1-4.6 4.6 2.7-.1 6.2.8 8-.6 1.2-.9-.3-5 .4-7.4.8-2.7 2-6.2 4.2-7.5 6.5-4.1 14.1-6.5 20.2-11 4.8-3.6 8.4-9.1 11.8-14.3 1.6-2.5 1.8-6 2.2-9.1 0-.3-3.8-.5-4.6-1.7-1.7-2.3-2.7-5.3-3.9-8-.9-2-1.7-4-2.6-6-1.4-3.1-2.2-8.3-4.2-8.8-8.2-2-16.8-2.6-25.2-3.6-.5-.1-1.1.7-1.6 1 4.1 2.8 8 5.8 12.2 8.2 2.6 1.5 5.8 2 8.7 3-1.2 2.7-1.9 7.1-3.8 7.6-3.7 1.1-8.1.4-12.2 0-1.3-.1-2.4-1.5-3.6-2.2 0 2.1-.4 4.4.1 6.4.3 1 2 2 3.3 2.4 3.6 1.1 7.3 1.8 11 2.7-2.9 2.5-5.5 5.8-8.9 7-1.6.6-4.5-3.1-7.1-4.1-3.6-1.4-7.3-2.2-11.1-2.9-3.9-.7-9 .5-11.6-1.6-2-1.6-2.1-7.6-.7-10.5 1.1-2.2 5.8-2.9 9.1-3.7 2-.5 4.3.1 6.5.3-1.9-.8-4.4-1.1-5.5-2.5-1-1.3-1-3.9-.6-5.7.3-1.5 2.9-3.6 2.5-4.2-2.4-3.9-5.2-7.6-8.2-11-.8-1-2.9-.8-4.4-1.2 1-3.4 1.7-7 3.4-10 .5-.8 3.9 0 5.9-.1 3.8-.2 7.6-.6 11.5-.8-.1-.5-.1-1.4-.3-1.4-3.5-.3-7.1-.7-10.6-.7-4.2.1-8.5.5-12.7.8.7-.9 1.4-1.7 2.1-2.6 2.2-2.6 4.3-5.2 6.5-7.9-2.2.5-4.3 1.4-6.5 1.4-6.5-.2-12.9-.9-19.3-1.2-1.3 0-2.6 1.1-3.9 1.6.4-1.2 1-2.4 1.3-3.7.4-1.7.7-3.5 1-5.3-2.1.1-4.2.5-6.2.2-2.9-.4-5.8-1-8.5-2.2-1.2-.5-1.7-2.6-2.4-4 2.2.2 5 1.2 6.4.3 2.5-1.8 4.1-4.8 6-7.3.2-.3 0-.9.1-1.3-.7.2-1.4.5-2.1.5-6.4-.4-12.9-1-19.3-1.2-1.2 0-2.7 1-3.7 1.9-1.7 1.6-2.8 3.8-4.7 5-.7.4-2.7-1.3-4.2-2.1 1.2-2.1 2.4-4.1 3.7-6.1.7-1.2 1.6-2.3 2.4-3.4-2 .7-4.1 1.4-6.1 2.1-3.2 1.2-6.5 3.5-9.5 3.3-2.8-.2-6-5.3-7.8-4.6-5.9 2-11.3 5.6-16.8 8.8-.1.1.4 2.2 1 2.5.7.4 2 .1 3-.2.9-.3 1.7-1 2.6-1.5.2 1.1.5 2.2.5 3.3-.2 8.7-1 17.5-.6 26.2.2 4.4 2.3 8.7 3.6 13-2.5-3.5-5.2-7-7.6-10.6-1.4-2.1-2.2-4.5-3.2-6.8-1.5 2.4-3.8 4.7-4.3 7.3-.7 3.3 0 6.8.1 10.2-2.1-1.5-4.1-3.2-6.4-4.4-2.1-1.1-4.4-1.9-6.7-2.4-1.7-.4-3.5-.2-5.3-.3.3-.5.5-1.4.8-1.4 1.5-.2 2.9-.1 4.4-.2 2.1 0 4.3-.1 6.4-.1-1.1-3-2-6.2-3.5-9-.2-.3-3.8 1.3-5.8 1.9-4.4 1.1-8.8 2.8-13.1 2.7-2.8-.1-7.3-2.7-7.8-5-6.2-26.5-17.4-49.5-41.3-64.6-1-.6-3.9.2-4.7 1.2-2.2 2.8-3.6 6.1-5.5 9.1-.3.4-1.2.4-1.8.6-1.2-4.8-2.3-9.6-3.7-14.3-.3-1-1.7-1.7-2.6-2.6-.2 1.2-.1 2.6-.6 3.7-1 2.8-2.1 5.5-3.6 8.1-.2.3-2.6-.6-4-1-3.1-.9-6.3-2.7-9.3-2.6-1.7.1-4.5 3.1-4.8 5.1-1.9 12.5-3.2 25-4.6 37.6-.1.5 1.1 1.1 1.3 1.7 2.1 7.5 4.6 15 5.6 22.6.2 1.6-5.8 3.6-8.4 6.1-2.3 2.3-3.8 5.4-5.6 8.2-2.2-1.7-6.5-3.7-6.3-4.9.6-3.1 4.1-5.7 4.7-8.8 1.5-7.4 2-15 2.7-22.6.1-1.1-1.3-2.3-1.5-3.5-1.7-8.7-3.6-17.3-4.9-26.1-1-6.8-1.3-13.7-1.9-20.6-1.1.4-2.5.5-3.4 1.3-.6.5-.4 1.9-.6 2.9 1.1-.1 2.1-.1 3.2-.2l-1.2 3.3c-1.5-1.6-2.7-3.6-4.5-4.6-3.3-2-7-3.4-10.5-4.9 0 0-.7 2.3-1.5 3-3.7 3.3-7.5 6.7-11.6 9.4-.7.4-3.4-3.5-5.5-3.9-3.5-.6-7.6-.9-10.8.3-9.3 3.5-11.6 28.8-27.3 10.2-5.1-6-3-18.2-4.2-27.5-.1-1.1-.1-2.2-.2-3.3-1 .7-2.5 1.1-3 2.1-3.2 6.9-6 14.1-9.4 21-2.2 4.3-4.7 9.1-8.4 11.8-1.4 1-6.5-4-10.2-4.8-2.3-.5-5.6 1.4-7.8 3.1-1.2.9-1.2 3.5-1.5 5.3-.3 2.2-.4 4.5-.6 6.7-.1.8-.6 2.1-.3 2.3 14.8 9.8-1.7 13.5-3.9 20-.8 2.5-2.3 4.8-3.4 7.1-1.7-2.7-4.7-5.4-4.7-8.2 0-5.2 2.2-10.4 2.5-15.6.5-10 .9-20.2-.2-30.1-.3-2.6-6.2-4.7-9.7-6.8-2.4-1.4-5.5-1.8-7.6-3.5-3.5-2.8-6.3-6.4-9.8-9.2-.6-.5-2.8 1-4.3 1.6.9-2.1 2.1-4.1 2.7-6.3 2.1-7.6 4.5-15.2 5.8-23 .3-2-2.8-4.5-4.4-6.8-.3 2.3-.7 4.5-1 6.8l-.3 3c-.6-.7-1-1.6-1.7-1.9-1.5-.8-3.4-2-4.7-1.6-2.3.8-4.5 2.4-6.1 4.2-.4.5 1.4 3 2.2 4.6-2.7-1.6-5.5-2.9-8-4.8-4.6-3.6-8.9-7.5-13.3-11.2-3.7 5-9.7 9.7-10.7 15.2-4 22.3-4.7 45.3-10.2 67.2-3.1 12.4-13 23.2-20.4 34.4-.5.7-6.2-2.1-9.5-3.3 2.1.2 4.3.4 6.4.4 1.2 0 2.5-.1 3.7-.4 2.9-.8 5.8-1.8 8.7-2.7-.9-.5-1.8-.8-2.7-1.4-7.5-5.1-15.1-10.1-22.3-15.5-2.2-1.7-3.6-4.5-5.4-6.8l-3.9 9.3c-.2.5-.7.9-1.1 1.3-1.2-1.1-3.6-2.5-3.5-3.4.6-3.2 1.6-6.5 3.4-9.2 3.6-5.5 7.7-10.6 11.8-15.7 2.5-3.1 5.7-5.7 8.1-8.9.5-.6-2-3-1.8-4.3 2.1-15 4.8-29.8 6.5-44.8.6-4.9-1.3-10-2.2-15-.6-3.4-1.4-6.8-2.4-10-.2-.7-2-.9-3.1-1.4-.1 3.1.8 6.6-.4 9.1-1.8 3.5-5.1 6.3-7.8 9.4-1.7-2.1-3.6-4.1-5-6.4-.4-.7.6-2.7 1.5-3.6 1.8-1.9 4-3.6 6-5.3-3.3 1.3-6.7 2.3-9.6 4.2-.7.4.6 3.8.8 5.8.9 7.2 2.1 14.5 2.4 21.7 0 1-3.9 2.1-5.9 3.4-8.1 5.5-16.4 10.8-24 16.9-3.8 3.1-7 11.6-9.3 11.2-9.8-1.7-19.6-5-28.7-9.3-18-8.4-35.5-17.9-53.3-26.8-.6-.3-2.2.8-2.9 1.7-3.2 3.7-6.2 10.7-9.5 10.8-14.9.6-29.9-.1-44.7-1.6-8.2-.9-16.7-3.4-23.9-7.2-6-3.1-10.3-9.3-15.4-14.1 4.2.4 8.6.2 12.6 1.5 2.6.8 4.9 3.5 6.5 5.9 1 1.5.3 5.7.9 5.8 2.6.5 5.5.1 8.2-.3.3 0 .4-1.7.7-2.6-2.3.2-4.6.4-6.8.5-.5 0-.9-.4-1.4-.6.3-.7.8-1.4 1-2.1.8-3.4 3-7.6 1.8-10-1.5-2.9-6.2-6.2-9.1-5.8-9.1 1.1-17.9 4.9-27 5.5-4.3.3-8.9-4.2-13.3-6.7-.1 0 .4-1.8.8-2 6.5-1.8 13-3.4 19.4-5.1 4.3-1.1 8.7-2.4 13-3.6-1.1-2.5-1.5-6.4-3.3-7.3-4.1-2-9-2.5-13.6-3.6-.2 0-.8.6-.8 1-.1 1.2.1 2.4.1 3.7-.6-1.8-1.4-3.5-1.8-5.3-1.5-6.4-2.8-12.8-4.5-19.1-.4-1.3-2.1-2.3-3.2-3.4.8-.7 2-2.3 2.3-2.1 1.7.8 3.2 2.1 4.7 3.2 5 3.6 9.8 7.4 15.1 10.6 4.2 2.5 9.1 3.8 13.4 6.1 3.1 1.6 5.9 3.9 8.9 5.8 3-7.6 6.3-15.2 8.9-23 .3-.8-3.3-3.3-5.5-4.5-8.8-4.9-17.9-9.6-26.6-14.6-1.1-.7-1.3-3.1-1.9-4.7 1.3 1.2 3 2.2 3.7 3.6 4.8 9.3 11.1 10.6 18 2.7 1.8-2-.2-7.1 1.4-9.6 1.5-2.3 5.4-3 8.2-4.4l-8.7-4.5c-.5-.2-.9-.5-1.4-.8.7-.3 1.7-.5 2.2-1 2-2.8 4.9-5.5 5.3-8.6.4-2.8-1.4-8-3.3-8.6-8.1-2.3-16.5-3.3-24.8-4.6-.2 0-.6 1.4-.9 2.1-1.3 3.1-2.5 6.2-3.8 9.3-2-1.4-5.9-3.5-5.7-3.9 1.7-3.9 4.3-7.4 6-11.2.4-1-1.2-2.9-1.8-4.3 1.7 1.5 3.1 3.7 5.1 4.5 6 2.4 12.1 4.6 18.4 5.9 1.5.3 3.5-4.4 5.7-5 1.9-.5 4.6 1.4 6.9 2.4 2.5 1.1 5 2.4 7.4 3.7.7.4 1.6 1.3 1.9 1.2.9-.5 1.5-1.6 2.4-2.2 1.1-.7 3.3-1.7 3.4-1.5 4.2 6.1 7.8 12.7 12.6 18.3 1.5 1.8 6.4.4 9.6 1.1 2.3.5 4.3 3.1 6.5 3.2 4 .1 8.1-1.3 12.1-1.5 6.6-.4 13.2-.4 19.8-.8.1 0-.4-3.8.1-5.7.3-1.5 1.4-3.3 2.7-3.9 7.2-3.4 14.6-6.4 21.7-9.8 7.2-3.5 14.1-9.7 21.5-10.4 12.7-1.2 25.7 2 38.5 1.6 10.8-.4 21.6-5 32.3-4.6 17.8.8 27.5-6.6 35.8-22 4.6-8.5 16.6-13 25.3-19.2-4.4 2.5-9 4.6-12.8 7.8-.6.5 1.9 6.9 4.2 8.2 2.6 1.4 6.7 0 10.2-.2-.6-5.3-1.2-10.6-1.7-15.8 4.9 1.2 12.5 5.1 14.4 3.2 13.3-13.3 25.1-28.1 38.1-41.7 6.2-6.5 13.6-15.7 21-16.3 18.7-1.4 37.6 1.9 56.5 2.2 10.5.2 21.1-1.7 31.6-2.7.4 0 .7-.8.9-1.2 2.3-4.6 3.4-11.2 7.1-13.6 9.9-6.3 20.9-10.8 31.4-16.1.2-.1.1-1.7-.2-1.9-9.8-5-19.5-10-29.4-14.9-2.1-1-4.4-1.5-6.6-2.2.5-1 1.6-2.9 1.5-3-4.5-2.8-9-5.5-13.6-8.2-.9 5.4-.9 11.2-2.8 16.2-3 7.9-5.4 19.3-11.5 22.2-10.4 5.1-23.4 5.1-35.4 6.7-11.1 1.4-22.4 3.3-33.5 2.7-7.5-.5-14.6-5.3-22-7.5-2.9-.9-6.3.2-9.5.3 2.1-1.6 4.3-3.2 6.4-4.8l2.1-1.8c-1.5-.9-3.5-3-4.4-2.6-16.1 7.6-33.7 13.4-47.7 24-12.5 9.3-21.1 23.9-31.3 36.2-6.6 7.9-22.2 9.7-15.9 26.6 1.4 3.6-4.8 12.9-9.6 15.5-7.5 4-17 4.4-25.6 6.6-6.7 1.7-13.1 4.2-19.9 5.6-1.7.3-4.3-2.1-5.9-3.8-.8-.9-1-3.8-.3-4.3 3-2.2 6.3-4 9.7-5.6 2.6-1.3 5.4-2.1 8.1-3.1 0 0-.1-.5-.2-.8-2.3.9-4.6 1.9-7 2.6-4.4 1.3-8.9 3.8-13.2 3.5-14.6-1.1-29.1-2.9-43.5-5.2-10.5-1.6-22.2-2.2-30.9-7.3-7.5-4.4-10.8-15.4-17.6-21.8-2.5-2.4-9.6-.3-14.5.5-1.7.3-3.1 2.9-4.6 4.4-.9-2.6-2.6-5.2-2.4-7.6.3-4.5 1.6-8.9 2.8-13.3.5-1.6 1.9-3 2.9-4.5.9 1.9 1.8 3.8 2.7 5.8 1 2.2 1.6 4.7 2.9 6.7.9 1.5 2.5 2.5 3.8 3.8-.7-2.8-3-6.5-1.9-8.4 2.8-5.1 6.9-9.5 10.7-13.9.3-.4 3.3.7 4 1.8 2.7 4.3 4.3 9.6 7.6 13.3 3.1 3.4 7.6 5.9 12 7.8 7.4 3.2 15.1 7.4 22.9 8 17.9 1.6 36.8 9.6 50.9-12.1 6.5-9.9 20.6-14.7 31-22.2 3.9-2.8 9.6-6.1 10.3-10 1.9-10.7 1.5-21.8 2.4-32.7.1-1.5 2.1-3.1 3.6-4.1.4-.3 2.1 1 3.2 1.6 1.6.9 3.3 1.8 4.9 2.6 1.3-2.7 3.2-5.2 3.6-8 .5-2.9-.5-6.1-.6-9.2 0-1 .7-1.9 1.1-2.9-1.6-.1-3.3-.5-4.9-.2-.6.1-.7 2-1.2 3-1.6 3-3.2 5.9-4.9 8.9-.5-1.9-1-3.9-1.7-5.8-.3-.7-1.3-1.2-1.9-1.8-.3.8-.8 1.6-.9 2.5-.1 1 .1 2.1.1 3.1-.9-.6-1.8-1.3-2.8-1.6-3.6-1.3-7.6-1.9-10.9-3.8-1.8-1-2.4-4.1-3.4-6.3-.2-.5-.2-1.2-.3-1.8.7.2 1.4.5 2 .5 3.7.3 7.4.5 11.1.8-.1-4-.2-7.9-.4-11.9h52c.2 2.2.3 4.5.4 6.7 4.5-2.2 9-4.5 13.6-6.7h65c7.7 2.3 15.4 5.9 23.2 6.4 4.8.3 9.8-4.1 14.8-6.4h558c-3.6 4.1-7 8.4-10.9 12.1-1.8 1.7-4.5 2.4-6.8 3.5 2.2 3.4 4.3 6.8 6.7 10.1.1.2 1.6-.6 2.5-.9-.1 2.3-.1 4.6-.3 6.9 0 .6-.4 1.4-.9 1.7-1.1.7-2.3 1.1-3.5 1.7 2.2 3.3 4.7 9.7 6.5 9.5 15.7-1.5 24.2 3.3 21.3 20.6-.1.6 0 1.2 0 1.8h.8c7.3-1.4 14.7-3.5 22-3.5 1.9 0 4.1 6.8 5.3 10.7.2.5-4.3 2.5-6.6 3.9-.5.3-.8 1.8-.7 1.8 11.7 5 2.4 11.2 1 17-3.8-1-7.8-1.5-11.3-3-11.4-5.1-22.3-13.6-34.1-14.9-9.4-1.1-19.8 6.3-29.7 9.9 7.9 6.2-12.8 16.7 4.6 23.9 8 3.3 11.3 17.9 16.5 27.4.4.6-.6 1.9-.7 2.9-.4 5.7-.8 11.4-1.2 17 3.1-1.8 6.2-3.8 9.5-5.1.8-.3 3.7 2.1 3.7 3.2-.1 5.9-.4 11.9-1.5 17.7-.6 3.2-3 6.1-4.6 9.1-1-1.1-1.8-3-2.9-3.2-5-.8-10.1-1.5-15.1-1.5-6.3 0-12.7.7-19 .9 0 0-.1-1.6-.2-2.5-2.4.5-4.8 1.1-7.2 1.6 1.9 3.9 2.8 9.8 5.9 11.5 14.9 7.9 30.6 14.4 45.5 22.3 1.5.8-.4 8-.9 12.2 0 .3-1.7.9-2.3.6-1.2-.5-2.4-2.5-3-2.3-2.7.9-7.6 3.3-7.5 3.5 3.7 9.6 7.9 19 12 28.4 4.5-2.4 8.9-4.9 13.4-7.3 1.2-.6 2.7-1.1 4.1-1.1 4.4.1 9.1 1.5 13.1.4 14.3-3.9 23.6 2.3 24 16.1.1 2 3.7 4.8 6.1 5.5 4.9 1.4 10.1 1.6 15.1 2.3 1.4.2 2.8.6 4.2.9.3-2.1 1.4-4.4.8-6.2-1.6-4.8-4.1-9.4-6-14.1-.4-.9.2-2.2.3-3.4.8.3 1.5.7 2.3.9 4.9 1.4 9.8 3.2 14.9 3.9 3.7.5 7.7-.5 11.5-.8-.4 5.9-1 11.7-1.3 17.6-.1 2.4-.5 5.7.8 7 1.6 1.7 7 1.6 7.1 2.7 1.1 8.5 1.1 17.1 1.9 25.6.1.9 4.5 1.2 4.9 2.4 1.5 4.6 1.9 9.7 3.4 14.3.5 1.6 3.1 2.5 4.7 3.8.7-2.4 1.5-4.8 1.9-7.3.1-.8-.8-1.9-1.4-2.7-1.5-1.9-3.2-3.7-4.8-5.5 2.8.5 5.5 1.2 8.3 1.6 3.6.5 7.1.8 10.7 1.2-2.2-7.7-4.4-15.4-6.8-23.1-.1-.3-1.8.1-2.7-.3-2-.8-3.9-1.9-5.9-2.9 1.3-2 2.3-4.2 3.9-6.1 2.8-3.4 8.4-6.6 8.4-9.8-.1-5.6-3.6-11.1-5.6-16.7-3.8 1.6-7.6 3.5-11.5 4.8-2.2.7-4.9.7-7 .1-1.1-.3-1.4-3-2-4.6 5.8-1.7 11.6-3.3 17.3-5.1 5.8-1.7 11.5-3.4 17.2-5.4.2-.1-.2-2.2-.5-3.3-.2-1-1.1-2.6-.7-2.9 1-.9 2.6-2 3.7-1.8 1.1.2 2.6 1.7 2.9 3 2.9 10.6 3.1 24.5 20.5 16.7 7.6-3.4 14.7-7.8 21.9-11.9 1-.6 1.6-2 2.5-2.8 1.9-1.9 3.9-3.6 5.9-5.4-1.6-1.5-3.3-2.9-4.8-4.6-3-3.3-6.6-6.4-8.6-10.3-.9-1.8 1.4-5.2 2.2-7.9-3.2 1.1-6.4 2.2-9.5 3.4-.8.3-1.4.9-2.1 1.4-.4-.7-1-1.4-1-2.1 0-1 .4-2 .7-3 1-2.7 3.8-6.9 2.9-7.9-2.6-3-6.4-6-10.2-6.8-11.3-2.2-22.8-3.1-34.1-5.1-2.3-.4-4.3-3-6.5-4.6 2.9-.1 5.7-.1 8.6-.2.8-.1 1.6-.6 2.5-.9-.7-1.2-1.8-2.4-2.1-3.7-1.8-7.4-4.1-14.8-4.8-22.3-.6-6.7 3.4-17 .3-19.6-8.8-7.4-19.9-12.2-30.7-17-8.1-3.6-17.3-4.9-25.3-8.7-2.3-1.1-2.3-7.2-3-11-.1-.4 2.2-2 2.8-1.7 2.7 1.4 5.1 3.7 7.9 4.9 8.8 3.9 18.2 6.7 26.5 11.5 9.3 5.3 17 14.3 26.8 17.3 4 1.3 11.6-8.8 17.5-13.6-2.9-1.3-5.8-2.8-8.8-3.9-1.9-.7-4.8-.4-5.9-1.7-1.4-1.8-1.4-4.7-2-7.1 2.4.4 4.9.7 7.3 1.4 6.5 1.7 13.1 3.1 19.4 5.4 4.9 1.8 10 3.9 13.7 7.3 2.3 2.1 1.3 7.4 3.2 10.3 1.3 1.9 5.2 2.1 7.9 3-4.7 2.8-9.2 5.9-14 8.4-3.7 2-9.5 2.2-11.2 5.1-1.6 2.8-.4 8.8 1.7 11.9 9.8 14 20.3 27.4 30.8 40.9.6.8 3.5 0 5.3-.3.3 0 .4-1.4.6-2.1 1-4.3 1.9-8.6 2.9-12.9 2.8 2.2 6.3 4 8.4 6.8 3.5 4.9 6.4 10.2 9 15.7.9 1.9.4 5.1-.6 7-3 5.3-10.4 11.7-9.2 15 2.3 6 9.6 10.1 14.8 14.9v38c-9.6-3.9-25.9-13.1-27.6-10.9-8.9 11.5-15.5 11.1-23.6.9-1.4-1.8-.9-5-1.3-7.6-1.2 2.4-2.2 4.8-3.6 7.1-10.1 17.1-7.9 20.4 13.2 22.8 4.6.5 8.7 5.6 12.9 8.8.4.3-.6 3.4-.7 3.4-4.5-.6-9-1.6-13.5-2-3.6-.3-8-.9-10.5.8-2.1 1.4-1.5 6.3-2.9 9.3-1.1 2.4-3.1 4.7-5.2 6.4-2.5 2-5.5 3.3-8.3 4.9 2.2 1.7 5 2.9 6.3 5.1 2.2 3.6 3.3 7.8 5 11.7.5 1.3.9 3.2 1.9 3.6 1.2.5 2.9-.2 4.4-.4 2-.3 3.9-.8 5.9-.8.5 0 1.1 1.2 1.6 1.8-1.8 1.1-4.1 1.9-5.4 3.4-2.9 3.4-5.5 7.1-8 10.8-.3.4.3 1.9.9 2.2 6.7 3.1 13.5 6.1 20.1 9.2.3.1-.5 1.8-.2 2.6 1.2 4 1.5 10.3 4.1 11.5 11.1 5 22.9 8.4 34.5 12.5v33c-9.7-1.3-19.5-3.8-29.2-3.6-8.6.2-17 4.2-25.6 5.2-2.6.3-5.7-4-8.6-6.2.3 4-.6 8.6 1.1 11.9 1.6 3.1 5.7 5.2 9.1 7 1.5.8 4-.3 6-.5-2.2 3.4-3.8 8-6.9 10-4.6 2.9-14 2.7-15 5.9-2.1 6.4.1 14.2.5 21.4 0 .4-.2.9-.3 1.3-3.4 11.6-6.7 23.2-10.2 34.8-.4 1.2-1 2.6-2 3.2-.6.4-2-.8-3.1-1.1-2.2-.6-4.8-2.2-6.6-1.5-2 .8-3.4 3.5-4.8 5.5-.2.2 1.3 1.6 2.1 2.4 3.3 3.4 8.2 6.2 9.6 10.2 1 2.8-5 8.3-3.9 10.9 5.1 12 11.2 23.7 17.8 35 1.5 2.6 6.3 5.4 8.9 4.9 4.1-.8 7.9-4.2 11.5-7 .6-.5-.4-3.1-.7-4.7.9.4 2.4.6 2.7 1.2.6 1.7 1 3.6.7 5.2-.5 2.2-1.7 4.3-2.6 6.5 6.6 1.2 13.3 2.4 19.9 3.7-.4-6.9-.9-13.9-1-20.8 0-3.3.8-6.6 1.3-9.8 2.6 1.4 5.3 2.5 7.6 4.2 3.2 2.4 6 5.4 9.1 8 .1.1 2.1-1.6 2-1.9-1.6-3.3-3.5-6.5-5.1-9.8-1.2-2.5-3-5.1-3.1-7.8-.2-4.5.1-9.2 1.4-13.5.4-1.5 4.4-1.9 6.6-3.1 3.7-2 7.3-4.1 11-6.2 0 219.2 0 438.3-.2 657.5 0 1.5-2.8 4.3-4.3 4.3-36.5.2-73 .2-109.5.2-4.7-2.3-9.2-5.4-14.1-6.6-7.5-1.9-15.5-4.2-22.8-3.1-6.4.9-12.1 6.3-18.1 9.7h-1c-1.1-2.6-2.2-5.1-3.3-7.7.2 2-.1 4.5-.3 7.1zM1015 169c1.4-3 2.8-6 4.2-9.1.1-.3-.2-.8-.4-1.3-2 3.1-3.9 6.2-5.9 9.2-1.3 1.4-2.5 2.8-3.8 4.1 1 .8 2 1.5 3 2.3 1-1.7 1.9-3.4 2.9-5.2zm-172.5 70.5l-9.2 8.9c-.1-1.4 0-4-.3-4-3.7-.8-7.6-1.9-11.2-1.4-7.8 1.1-15.3 3.3-23.1 4.8-1.4.3-3-1.1-4.5-1.7 1.4 1.3 2.8 2.7 4.3 3.8.9.7 2 1 3.1 1.5-1.3 1.2-2.6 2.4-4 3.4-.1.1-1.1-1.6-1.8-1.7-5.5-.9-11.4-3.2-16.4-1.9-2.3.6-2.6 8.3-3.9 12.8-8.6-4.8-17.1-9.5-25.7-14.4-1-.5-2.2-2.1-2.5-1.9-1.7 1.1-3.6 2.4-4.7 4-2.6 3.6-4.6 7.7-7.2 11.3-.7.9-2.6 1-3.9 1.4 1.1.9 2.9 1.7 3.2 2.8.9 3.4 1.2 7 1.7 10.5 0 .1-1.1.5-1.3.3-5.1-4-10.1-8-15.2-12-1.2-.9-2.8-2.5-3.7-2.2-1.9.6-3.4 2.2-5.1 3.4 1.2-.3 2.4-1.1 3.6-.9.9.1 1.8 1.2 2.6 1.9-.7.8-1.3 2.2-2 2.3-4.1.3-8.3.1-12.4.4-1.4.1-2.8.8-4.2 1.2.8.6 2.2 1.1 2.3 1.8.5 2.6.6 5.3.7 8 0 .3-1.1 1.1-1.3 1-1.3-.7-2.8-1.4-3.6-2.5-1.8-2.6-3.5-5.4-4.9-8.3-.4-1-.1-2.8.6-3.6 1.3-1.6 3.2-2.7 4.8-4.1-2.3.7-6 .9-6.4 2.2-.8 2.5.3 5.6.7 8.5.3 2 1 4 1 6 0 .3-3.1 1.4-4.1.9-4.1-2.1-7.7-5-11.8-6.9-6.8-3-13.9-5.3-20.6-8.3-1.2-.6-1.4-3.5-2-5.3-1.5 2.5-4.1 4.9-4.2 7.4-.1 2.1 2.2 4.8 4.2 6.4.9.7 3.5-.9 5.3-1.7 1-.4 1.8-1 2.7-1.6.3.7.4 1.4.9 1.9 3.2 4.1 5.9 9 10 12.1 4.2 3.1 9.7 4.5 14.6 6.6-1.6 1.6-3.2 4.3-4.9 4.5-4.4.3-8.9-.7-13.3-1-1.6-.1-3.3.2-5 .2 1.7.9 3.3 2.4 5.1 2.6 13.2 1.7 26.5 4.2 39.8 4.2 4.6 0 8.8-7.4 13.9-9.5 5-2.1 11-1.7 16.6-2.4.5-.1 1.1.5 1.5.8 7.1 4.9 14.1 9.8 21.2 14.7.1-.4.4-.9.4-1.3 0-1.2-.1-2.4-.1-3.6 2.8 1.8 6.1 3.1 8.3 5.4 3.7 3.9 5.7 10.5 10.1 12.4 7.4 3.3 16 3.9 24.2 5.6 2.8.6 5.7 1.3 8.5 1.6.6 0 1.1-2.3 2-3.1 9.4-7.1 19-14 28.4-21.1 2.6-2 6.6-4.5 6.7-6.8.1-3.5-2.5-7.2-4.6-10.5-.8-1.3-4-2.9-4.7-2.4-7.8 5.2-14.6 12.2-23 16-7.6 3.4-16.7 4.2-25.1 4.2-1.8 0-3.6-8.6-5.4-13.3-.9-2.3-2.1-4.4-3.1-6.6-.2.4-.4 1-.7 1.3-1.3 1-2.6 2-4 3 .4-4.4.9-8.9 1.3-13.3 1.3.6 2.5 1.4 3.9 1.6 1.7.4 3.5.3 5.3.5-.2-2.8-.4-5.7-.7-8.5 0-.4-1-.7-1.6-.9-1.3-.4-2.7-.7-4-1.1 3.9-2.1 7.7-4.2 11.7-6.2.4-.2 2.2 1.1 2.2 1.6-1 8.6-3.3 17.3-2.8 25.8.3 5.1 3.9 11.6 8.1 14.3 2.4 1.6 9.4-2.3 13.4-5.1 5.2-3.7 9-9.2 14.1-13 5.6-4.1 12.5-6.5 17.6-11.1 1.4-1.3-1.6-7.5-2.6-11.4-.7 1.2-1.3 3.3-2.2 3.5-8.2 1.7-16.5 3.4-24.8 4.4-1.5.2-3.3-2.7-5-4.3-.2-.2-.1-.8-.2-1.2.8 0 1.6.2 2.3 0 4.8-1.8 9.6-3.6 14.2-5.8.5-.3-.1-3.2-.4-4.8-.4-2-1-4-1.5-6 1.7.7 3.5 1.4 5.2 2.1 3-1 6.3-1.6 8.9-3.3.3-.7-.3-3.8-.3-5.8 1.8-1.1 3.7-2 5.3-3.3 1.3-1.1 2-2.8 3-4.2-.8 0-1.9-.3-2.3.1-2.8 2.4-5.6 5-8.3 7.5.7 0 1.5 0 2.3-.1zM1603.1 573c-1.3 2.4-2.3 5-4 7-4 4.5-8.4 8.7-12.7 13.1 1.2-9.4 1.8-19 4-28.1.7-2.9 5.6-4.9 8.9-6.9.9-.6 2.8.4 4.3.7-.7-1.9-1.2-3.9-2.2-5.6-3.7-6.4-6.9-13.3-11.6-18.8-6.1-7-12.6-15.1-20.7-18.3-3.7-1.5-11.1 9-17.7 11.7-7.1 2.9-15.3 3-23.1 4.3-1.7.3-3.4.8-5.1 1.2.4-1.7 1.4-3.5 1.1-5.1-.6-3.1-1.7-6.2-3.1-9.1-.3-.6-2.9-.4-4.3.1-.6.2-1.1 2.2-.9 3.1 3.6 12.7 19.4 22.4 9.4 38.4.9.4 1.8.7 2.6 1.2 4.9 3.2 9.8 6.4 14.5 9.9 1.2.9 1.3 3.2 2.4 4.3 1.3 1.2 3.3 1.7 4.9 2.5.5-2.5 1.5-5 1.2-7.4-.2-2-2-3.8-3.1-5.7 4.4 2 8.9 4 13.2 6.3.6.3.7 2.9.1 3.8-2.7 3.8-8.7 9.8-8.1 10.6 6.5 8.1 14.1 15.3 21.5 22.7.4.4 1.9.1 2.7-.3 2.6-1.2 5.2-2.5 7.7-3.9 2.6-1.5 5.1-3.1 7.7-4.7 2.7-1.7 5.3-3.5 8-5 .3-.2 2.3 1.8 2.2 2-1.2 2.3-2.5 4.6-4.2 6.4-1 1.1-2.8 1.4-4.3 2 3.8 1.7 7.6 3.5 11.4 5.1.5.2 1.6-.1 2-.6 1.8-1.6 3.5-3.4 5.2-5.1 2.7 4.5 5.7 8.9 8 13.7 2.7 5.7 4.8 11.6 7.2 17.4 2.6-3 5.2-6 7.9-8.9.4-.4 1-.8 1.6-1 .7-.2 1.6-.2 2.3-.3-2.8-5.8-5.5-11.6-8.4-17.3-.1-.1-1.6.8-2.2.6-3.3-1-9-1.9-9.2-3.4-.6-4.2 1.2-8.7 2-13.2 1.3 2.1 2.5 4.2 3.9 6.3.2.4.8.5 1.2.8.1-.9.6-2.1.2-2.8-1.8-4.2-3.3-8.7-5.9-12.3-5.2-7.3-11-14-16.6-21-.7 3.2-1.4 6.5-2.2 9.7l.3-.1zM801 200.3l-.2-.2c2.2.2 4.9 1.4 6.5.5 5.7-3.2 10.8-7.3 16.4-10.7 4.4-2.6 9.1-4.7 13.6-7.1.1-.1-.2-1-.4-1.5-.3-.8-.7-1.5-1-2.3 2.6.9 5.3 1.7 7.8 2.9.8.4 1.1 1.9 1.6 2.8-1.1-.5-2.2-1.2-3.4-1.5-.6-.2-1.6 0-1.9.4-.8.9-1.4 2-2 3 .9.5 2 1.7 2.6 1.5 18.5-5.4 11.9 9.3 14.2 17.3 1.2 4.1 4 7.8 6 11.8 2-1.5 3.9-3.3 6.1-4.4 2.6-1.3 5.4-1.9 8.2-2.8-1 .9-2.2 1.7-2.8 2.8-1.4 2.6-2.5 5.4-3.7 8.1 3.9 0 9 1.6 11.5-.2 5.4-3.9 9.4-9.6 14.1-14.4 3.3-3.4 6.7-6.8 10-10.2.1-.2-.6-1.1-.9-1.7-.5-1-1.4-2.9-1.2-3 1.9-1.4 4-3.4 6-3.4 6.5 0 13.3 2.2 19.5 1 4.6-.9 8-7.6 12.6-8.5 7.4-1.4 15.4.3 23.1 0 3.3-.2 6.4-2.4 9.7-3.5.9-.3 2-.1 2.9-.1-.1 1.5-.1 3-.5 4.4-.1.3-1.8-.2-2.3.3-3.4 2.9-6.7 5.9-9.6 9.2-.3.3 2.5 4.7 4 4.8 2.2.1 5-1.5 6.6-3.3 3.5-3.8 5.9-8.6 9.6-12.2 2-2 5.8-2 8.6-3.3 5-2.4 9.9-5 14.8-7.6.3-.1.5-.6.5-.8-.2-6.4-1-12.9-.5-19.2.2-2.6 3.4-4.9 5.3-7.3.5.8.9 1.6 1.4 2.4.1-1.8.4-3.6.1-5.4-.9-5.9-2.5-11.8-2.7-17.8-.1-2.3 3.5-4.6 3.9-7.2.3-1.5-2.4-3.4-3.7-5.2-1.1 1.7-2.3 3.4-3.4 5.1-.8 1.1-1.6 2.1-2.5 3.1-.1.1-.8-.3-1.2-.5 4-4.9 8.1-9.7 12-14.6 1.6-2.1 3.2-4.3 4.2-6.7.3-.7-1.6-2.6-2.7-3.5-.5-.3-2.1.2-2.7.8-1.1 1.1-1.6 2.8-2.7 3.8-.3.3-2.9-1.1-2.9-1.5.2-2.2 1-4.3 1.6-6.5.2-.9.7-2.5.5-2.7-2.2-1.2-4.5-2.2-6.8-3.2 0 0-.7.9-.6 1.2 1.3 3.4 3.3 6.7 3.8 10.3.4 2.6-.9 5.4-1.5 8.1.2-2.1.9-4.3.4-6.2-.5-2.1-2.2-3.9-3.3-5.9-4.1 4-11 7.5-11.8 12.1-2.1 11.6-1.2 23.6-2.4 35.4-.2 1.8-4.8 2.9-7.1 4.7-5.1 3.7-9.4 9-15.1 11.2-6.6 2.5-14.5 1.2-21.2 3.4-12.7 4.1-16-24.7-31.5-8.5-.2-.4-.5-1.2-.6-1.2-3.2.6-6.4 1.2-9.5 2.1-.4.1-.2 2-.7 2.7-3.4 4.2-6.8 8.4-10.6 12.3-.7.7-3.2-.5-4.8-.8 1.3 1.7 2.6 3.4 4 5 .3.4.9.6 1.4.8-6.5 2.3-12.9 5.8-19.6 6.7-10.8 1.5-21.9.9-32.8 1.8-7.8.6-15.4 2.6-23.2 3.3-3.2.3-6.6-1.3-10-2 .3 10.4-22.6-2.7-15.3 15.1.9 2.1-.3 5-.6 7.5 2.9-.5 5.9-.8 8.8-1.1zm870.5 136.2c1.7 2.2-1-1.1-3.5-4.6-.8-1.1-.8-2.7-1.1-4-2.8 1-5.6 1.8-8.3 3-.3.2.3 2.1.1 3.2-.4 2.4-1 4.7-1.6 7.1-2.1-1.1-4.2-2.3-6.2-3.4-.8-.4-1.7-1.4-2.2-1.2-1.8.8-3.6 1.8-5.1 3-.3.3.5 2.2 1 3.2.7 1.3 1.6 2.5 2.4 3.7-1.2.3-2.6 1-3.6.7-1.8-.6-3.5-1.7-5.1-2.8-1.1-.8-1.6-2.5-2.7-3-7.8-3.1-15.7-5.9-23.5-8.9-1.8-.7-3.4-2-5-3 .2 1.6 1.1 3.6.5 4.7-1.9 3.5-4.3 6.7-6.9 9.8-.5.6-2.7-.2-4-.5-7.8-2-15.6-4.4-23.5-5.9-1.7-.3-4.2 2.2-5.7 4-.6.7.4 4 .9 4 2.8.4 5.8.2 8.7 0 1.6-.1 3.1-.4 4.7-.5-.6 2.1-.7 4.6-2 6.2-5.8 7.2-18.9 13.2-2.8 23.2 2.1 1.3 3.1 5.1 5.1 5.6 4.5 1.1 9.4.8 14.1 1 .1 0 .4-1.2.3-1.8-.3-1.9-.7-3.8-1.1-5.6 2.7.5 5.4 1.3 8 1.4 3.7.1 7.5-.5 11.2-.7 3.3-.1 6.6-.2 9.9.1.9.1 1.7 1.2 2.6 1.9-2 .9-3.9 1.7-5.9 2.6-1.2.5-2.5 1-3.7 1.6 1.3.9 2.8 1.7 4 2.7 3.6 3 7.3 5.9 10.7 9.1 1.2 1.2 1.8 3 2.7 4.5-1.8-.9-3.5-2.3-5.4-2.6-3.4-.6-7.9-1.9-10.1-.3-2.3 1.6-2.5 6.3-3.4 9.6-.4 1.4-.1 2.9 0 4.4-1-.3-2-.9-2.9-.8-2.6.2-5.1.7-7.7 1.1 1.1 2 1.8 4.9 3.5 6 5.1 3.1 10.4 7.1 16 7.7 7.6.8 15.4-1.5 23.1-1.6.9 0 1 6.6 3 8.7 8.2 8.6 16.6 17.1 25.8 24.6 3.7 3 9.5 4 14.6 4.7 6.1.8 12.7 1.5 18.4-.2 5.5-1.6 10.2-6.3 15.1-9.9.2-.2-1.2-3.5-2.5-4.5-3.1-2.6-6.6-5-10.1-7.1-4.4-2.7-8.9-5-13.4-7.5.3 1.6.4 3.2.9 4.6.6 1.8 2.5 3.6 2.2 5-.5 2.1-2.1 4.3-3.9 5.6-1.9 1.4-4.7 3-6.7 2.6-29.3-5.8-8.9-21.1-5.6-32.5 1.4-4.8 9.9-10 8.9-12.7-2.8-7.8-8.9-14.5-13.6-21.6-.2-.3.6-1 .7-1.6 1.1-5.8 4-12 2.9-17.3-1.5-6.8-6.3-12.5-13.2-24.8zm-339.1-220.2c-2.1 3-4.1 7-7.4 9.5-1 .7-5.5-3-8.1-5-.3-.2.8-2.4 1.3-3.7-2 .1-4 .1-6 .2 1.2 2.8 2.4 5.6 3.5 8.5.3.7.3 2-.2 2.3-4.2 3.1-8.5 6.1-12.7 9.1 6.4 1.7 12.8 3.7 19.3 5.2 7.1 1.7 14.9 1.7 21.4 4.7 5.1 2.4 8.4 8.4 12.9 12.4 1.3 1.1 4 .5 6.1.7-.9 1.4-2.2 4-2.7 3.9-4.7-1.2-9.2-2.8-13.8-4.5-1.5-.5-2.7-1.6-4.2-2.2-.2-.1-1.6 1.8-1.5 2.6 2.1 14.9 24 23.1 37.7 17.7 10.1-3.9 22.6-1.5 34.1-1.9 3.5-.1 7-.4 10.5-.5-1.5-2.7-3.7-5.2-4.4-8.1-1-3.9-1-8.2-1-12.3 0-4.4 1.3-8.8.8-13.1-.7-5.4-3.3-10.6-3.9-16-.6-5.1.2-10.4.3-15.6-5.4 1.5-10.9 2.6-16 4.8-3.5 1.5-6.3 4.5-9.3 6.8 1.8-2 4.6-3.8 5.3-6.2 1-3.4.6-7.2.8-10.8-1.7.7-3.4 1.9-5.2 2.1-2.6.3-5.4-.1-8.1-.1.1-.6.1-1.1.3-1.7 1-4 4.3-10.1 2.8-11.7-4-4.2-9.7-7.6-15.3-9-7-1.8-14.6-1.2-21.9-2-1.3-.2-2.4-2.2-3.6-3.3-.1 0-1.3 1.1-1.3 1.2 1 1.6 2.4 3 3.1 4.7 1 2.2 2.7 5.8 1.9 6.7-3.8 4.2-8.3 7.7-12.7 11.3-.3.3-1.5-.3-2.2-.6-1.1-.4-2.1-.8-3.2-1.2-.3 1.3-1.1 2.8-.8 4 .7 3.1 1.9 6.1 3.4 11.1zm201.4 210.5c-2.8-8.4-4.4-13.1-6-17.8-.9 3.7-1.7 7.4-2.9 11-.5 1.6-1.8 3.2-3.2 4.2-5.1 3.4-10.2 6.8-15.7 9.7-1.4.8-3.9-.6-5.9-.5-3 .1-6.3-.2-8.8 1.1-5 2.5-9.2 7-14.4 8.8-5.3 1.8-11.3 1.3-17 1.8 2.5-4.9 6.2-9.5 7.3-14.7 1.3-6.3.5-13.1.7-19.6-2.8.1-6.8-.9-8.2.6-5.8 6.1-11.5 12.5-15.8 19.6-6.3 10.3-11.3 21.4-16.8 32.2-.3.7-.1 2.4.4 2.6 6.1 2.6 12.5 4.6 18.2 7.8 1.3.7.4 5.3.6 8.1.1 1.2-.3 3.1.3 3.5 6.7 3.9 14 6.8 20.2 11.3 8.5 6.1 16.3 13.2 24.1 20.2 1.2 1.1.7 4.1.8 6.2.2 7.9-.4 15.9.8 23.7.9 5.5 4.9 10.6 6 16.1.9 4.5-2.6 12.1-.6 13.7 4.8 3.8 11.7 5.2 18 6.6 1.1.3 3.2-3.9 4.9-6-1.2-.3-2.9-.2-3.4-.9-2.3-3.1-4.2-6.6-6.5-9.7-1.5-2-4.6-3.5-5-5.7-1.7-9.1-2.5-18.5-4.2-27.6-.4-2.2-3-3.9-4.7-5.8 2.1-1.1 5-1.6 6.1-3.3 3-4.8 6-9.9 7.4-15.4.4-1.8-4.2-4.8-6.4-7.4-.1-.1 1.1-1.2 1.6-1.9 1-1.5 3-4 2.7-4.3-3.7-4.2-7.8-8.1-11.8-12.1l-3.6-3.9c2.2-1 4.5-1.9 6.5-3.2 1.1-.7 2.5-2.2 2.4-3.3-.1-4.4-1.8-9.1-.6-13.1.7-2.2 6.5-2.2 8.9-4.5 3.5-3.4 5.7-8.1 8.9-11.8 5.1-6 10.5-11.7 14.7-16.3zm-163.6 219.4h11c.9 0 2.1.3 2.5-.2 10.5-13 8.8-26.2-5.1-33.3-9.7-4.9-22.6-4.1-34.2-4.3-3-.1-6 5.5-9 8.6 0 0 .8 1.3 1.2 1.2 2.6-.2 5.4 0 7.8-.9 2.6-1 4.7-2.9 7-4.5.5 2 1.8 5.3 1.2 5.7-2.7 1.8-5.9 3.2-9.1 4-4 1-8.1 1.2-12.1 1.7 2.5 1.9 5.1 3.6 7.3 5.6 2.3 2.2 4.2 4.9 6.5 7.1 1.9 1.8 4.3 3 6.3 4.7 1.6 1.4 3.2 2.9 4.3 4.6 1.3 2 1.9 4.3 3.1 6.4.1.2 2.4-.4 2.4-.7.1-1.6-.2-3.2-.3-4.8-.1-1.3-.5-3.5.1-3.8 1.8-.9 3.9-1.5 5.9-1.4.8.3 1.6 2.2 3.2 4.3zm76.2-397.6c-3.8 8.7-7.3 16.3-10.3 24.1-.6 1.7.7 4.1 1.2 6.2 2.5-.6 5.1-1.8 7.5-1.6 6.2.6 12.3 1.7 18.4 2.8.8.1 1.5 1.6 1.8 2.6.7 2 1.1 4.1 1.6 6.2 1.8-1.8 4.3-3.4 5.3-5.5 1.8-3.6 2.6-7.7 3.9-11.5.4-1 1.3-2.8 1.7-2.7 1.7.3 4.1.6 4.9 1.8 2.2 3.3 4.3 10.2 5.4 10 4.7-.9 9.1-3.8 13.6-6 .8-.4 1.8-1.5 1.8-2.2 0-7.4.3-14.9-.6-22.2-.4-3.6-3.2-6.8-4.9-10.2-2.6 2.5-5.1 5.1-7.7 7.6-1.9 1.8-3.9 3.5-5.9 5.2-4.1 3.5-8.3 6.7-12.3 10.3-4 3.7-7.6 8-11.8 11.5-.8.7-5.4-1.3-5.4-1.9.2-4.1 1.2-8.1 1.8-12.2.3-2.1 1.3-4.7.5-6.4-.7-1.6-3.5-2.2-10.5-5.9zm-29.5 265.9c1.4 1.8 2.2 3.4 3.5 4.2.6.3 2.6-.9 3.2-1.9 1.2-2.1 2-4.5 2.9-6.7 2.2 2 4.1 4.7 6.6 5.7 2 .8 4.9-.5 7.4-1.1.5-.1 1.1-1.6.8-2.1-1.1-2.2-2.5-4.4-3.9-6.5 3.6.9 7.4 1.4 10.6 3 .7.3-.5 4.8-1.2 7.3-.3 1.3-1.4 2.3-2.2 3.5 5.2.3 10.4.6 15.7.7.5 0 1.7-2.6 1.3-3.2-5.6-8.7-10-19-17.6-25.5-6-5.2-16.7-4.7-24-8.9-11-6.3-21-15-31.8-.5-1.1 1.5-1 4-1.4 6.1 2.8.2 5.6.5 8.4.5 2.7.1 6-1.2 8 0 10.1 5.3 25.5 8 13.7 25.4zm-477 398.6c-14.9-4.6-30.4-11.1-31.3-9.5-5.9 10.9-11.4 23.3-11.5 35.4-.1 6.6 10.5 13.3 16.3 20 7.6-13.1 15.1-26.2 26.5-45.9zm339.6-695.6c-9.2-.6-16.1-1.9-22.4-.8-2 .4-2.7 7.7-4 11.8 1.8-.9 3.6-2 5.5-2.6.9-.3 2.2.3 3.3.5-.4.9-.8 1.9-1.3 2.8l-3.9 7.8c3.1.6 6.5.6 9.1 2.1 2.6 1.6 4.8 4.4 6.1 7.1 1 2.2.3 7.5.6 7.5 12.8 1 25.7 1.7 38.6 1.8 1.3 0 2.7-3.7 4.1-5.6-11-3.4-22.1-6.5-32.9-10.3-4.4-1.6-8.5-4.4-12.3-7.3-1.4-1.1-1.1-4.3-2.2-6.1-.5-.8-3.8-.2-3.9-.7-.5-1.9-.2-4-.2-6 2.7 1.6 5.7 2.8 8.1 4.8 1.4 1.2 1.8 3.7 2.6 5.6 1.2-2.8 2.4-5.6 5.1-12.4zm-195.3 871.3c15.8.6 15.2-9 9.6-20-2.3-4.5-6-8.4-9.1-12.5-2.5 3.3-5.1 6.6-7.7 9.9-1.6 2-3 4.8-5.1 5.7-7.1 3-14.6 5.1-21.7 8-1.1.5-1.9 3.5-1.6 5.2.3 1.4 2.3 3.6 3.5 3.6 10.7.2 21.4.1 32.1.1zm327.1-923.1c-.2 1.2-.6 3.7-1.1 6.2-3-2.1-6.1-4.1-9.1-6.2-1.5-1-2.9-2.2-4.3-3.4-.3 1-1.1 2.6-.7 3 5.5 5.8 11.1 11.5 16.9 17 1.2 1.1 4.8 1.8 4.8 1.7 3.4-8.2 6.6-16.6 9.8-24.9-1.5.7-3 1.5-4.6 1.9-.2.1-1.7-2.2-1.4-2.9 1.9-4.3 5.5-8.3 5.9-12.6.4-4-1.6-9-4.3-12.2-1.6-1.9-6.9-2.6-9.6-1.4-2.9 1.3-6.5 5.3-6.4 8 .6 8.2 2.6 16.3 4.1 25.8zm110.9 311.6c-.7-2.2-.9-2.8-1.1-3.5-.6.5-1.7 1-1.8 1.6-.4 2.9-.4 5.9-.7 8.9-.7 6.7-1.5 13.3-2.3 20 8 0 16 .4 23.9-.1 1.4-.1 2.2-4.1 3.7-5.9 3.1-3.5 7.1-6.4 9.6-10.3 1.7-2.7 2.4-6.8 1.7-9.9-.5-2-4.3-3.2-6.6-4.8-.4 2.3-.8 4.6-1.2 6.8-.2 1.1-.3 2.9-.9 3.2-1.3.6-3.1.9-4.6.5-5.1-1.3-10.1-2.8-15-4.4-2.1-.8-4.1-1.9-4.7-2.1zm-307.6-16.8c1.9 2 2.9 3.2 4 4.3 9.1-9.5 27.6-14.3 17.9-33.4-1.5-3-7.6-3.9-11.7-5.2-1.2-.4-3.7.6-4.4 1.8-3.3 4.9 2.8 21.7-13.3 10.3 0 0-.8.7-.7 1l4.2 13.2c2.2-1.7 4.3-3.7 6.7-5 .9-.5 3.5.3 3.9 1.2.6 1.3.6 3.6-.2 4.7-1.6 2.4-3.8 4.3-6.4 7.1zm89.3 684.4c-3.2 8.5-5.1 10.9-4.7 12.9 2.4 10.4 4.9 20.9 8.4 31 .7 1.9 6.3 2.1 9.6 3.1.4-1.3.4-2.8 1.1-3.9 4-6.6-16.4-18 4.1-21.4.1 0 .3-2.2-.3-2.8-4.8-5.2-9.8-10.2-18.2-18.9zM740.6 234.2c-1.2 2.4-2.4 4.9-3.6 7.3 1.8-.5 4-2 5.2-1.4 6.4 3.1 12.5 7.1 19 10.1 4.4 2.1 9.5 4.2 14.1 3.9 2-.1 3.6-6.3 5.5-9.6.5-.9 1.8-2.5 2.1-2.4 1.4.6 2.3 2.2 3.7 2.6 1.4.5 3.1.1 4.7 0 .3 0 .6-.4 1-.6-.9-.6-1.8-1.6-2.8-1.9-9.9-2.8-19.7-6-29.7-7.9-6.3-1.1-12.8-.1-19.2-.1zm596.8 734.3c7.3-1.6 9.6-2.1 12-2.6-.3-.5-.7-.9-.7-1.4.2-6.6.4-13.2.9-19.7.1-1.4 1.3-2.8 2-4.2-1.3.3-2.9.2-3.7.9-4.8 4.5-9.4 9.2-14.1 13.8-1.9 1.9-4.1 3.6-5.7 5.7-4.2 5.6-8.3 11.2-11.9 17.2-1.9 3.1-3.8 7-3.4 10.2.3 2.3 4.5 4.1 7.1 5.9.4.3 2-.1 2.3-.6 3.2-5.3 6.3-10.6 9.5-15.9.3-.6.2-1.4.6-1.9 2.4-3.6 5-7.2 5.1-7.4zm293-519c.8-.3-.4.1-1.6.6 2.4 1.1 5.1 1.8 7 3.4 8.1 6.8 15.9 13.9 23.8 20.8 3.4-3.9 7-7.7 10.1-11.8 1.2-1.6 1-4.1 1.5-6.2-13-2.2-25.9-4.3-40.8-6.8zm-86.1 524.8c6.5-.6 12.1.3 16.1-1.9 4.1-2.2 6.7-7.4 10-11.3l-21.6-12.6c-1.4 7.6-2.7 15.2-4.5 25.8zm-470.7-844s.5 1.8.9 3.6c5.4-3.6 10.7-7.2 16.1-10.8-2.7-3.9-7.7-7.8-7.8-11.8-.2-9.5-10.9 16.8-6.4-2.1 0-.1-.6-.6-.8-.5-3.4 1.8-8.4 2.9-9.7 5.7-1.8 3.7-.9 8.8-.5 13.2 0 .7 3.2 1.1 8.2 2.7zM702.7 571c-.2.4-.4.7-.5 1.1-1-.5-2-.9-3-1.4.8-1 1.7-1.9 2.5-2.9.9-1 1.8-2.1 2.7-3.1-1-.5-2.1-.9-2.9-1.7-2.7-2.6-5.3-5.4-8-8.1 1.4-.8 2.7-1.8 4.1-2.4.4-.2 1.3.8 2 1.3.6-5.3 1.4-10.6 1.6-15.9 0-1.1-3-3.5-3.8-3.2-4.8 1.7-9.4 4.1-14.1 6.2.8.6 2.2 1.1 2.4 1.8.7 3.6 1.1 7.2 1.6 10.8 1-.4 2-.9 3-1.3-1.5 1.6-3 3.2-4.3 4.9-.4.5-.6 1.7-.3 2.2 2.8 4.5 5.3 9.4 9 13.1 1.9 1.9 6.2 1.4 9.4 1.9.1 0 .9-1.6.6-2.1-.2-.6-1.3-.8-2-1.2zm102.7-458.1c-.7-.9-1.5-1.8-2.2-2.7-2.6 2.2-6.1 3.9-7.6 6.6-.8 1.4 1.3 5.3 3.1 6.9 1 .9 4.8.2 6.2-1 6.2-5.4 11.9-11.3 18-16.9.6-.6 2-.5 3-.5 5.4.3 10.9.8 16.3 1.1-2.2-4-5.5-11.7-6.3-11.4-6.9 2.3-13.5 5.6-19.9 9.3-3.9 2.2-7.1 5.6-10.6 8.6zm167.8 20.5c-.1-.1-.9-.7-.9-.8.9-1.4 1.9-2.8 3-4.2.1-.1 1.1.7 1.7 1l2.7-10.2c-2.2.8-4.7 1.1-6.6 2.4-10.2 7-20.2 14.3-30.5 21.2-2.4 1.6-5.6 2.2-8.4 3.2 2.9.9 5.8 2.3 8.8 2.5 1.9.2 3.9-1.3 5.9-2.1 5.4-2.3 10.6-4.8 16-6.8 3.1-1.2 6.7-1.3 9.8-2.7 1.2-.6 1.5-3.3 2.2-5.1-1.2.6-2.2 1-3.7 1.6zM783 135.1c-.7 0 3.9-.2 8.5.1 2.2.1 4.5 1.8 6.6 1.6 2-.2 3.8-1.9 5.7-3-1.5-.2-3.5 0-4.5-.8-2.8-2.3-4.8-6.7-7.8-7.4-4-1-8.7 1-13.1 1.1-1 0-2-2.1-3.1-3.1-.4-.4-1.2-.3-1.9-.4-11.4-2-22.7-4-34.1-6.1-1.4-.3-2.8-1.1-4.1-1.7 1 1.7 1.5 4.4 2.9 4.9 13.4 4.7 26.8 8.9 44.9 14.8zm588.9 268.3c3 4.2 6.1 8.5 9.2 12.9.7-.6 1.3-1.4 2.1-1.9 4.8-3.1 9.4-7.8 14.6-8.6 3.2-.5 7.3 5.2 10.9 8.2 1.8 1.4 3.5 2.8 5.3 4.2.5-.8 1.7-2.1 1.6-2.2-4.1-4.4-7.7-10.1-12.8-12.5-6.5-3.1-14.3-3.5-21.4-5.4-1.3-.3-2.3-2.1-3.4-3.2-1.8 2.4-3.4 4.7-6.1 8.5zm140.2 107.5c.5.2 2.7 1.1 4.9 1.9.4-1.8.6-3.7 1.1-5.5.6-2.1 1.5-4.1 2.2-6.2 1.7.7 3.6 2 5.2 1.8 3.5-.5 6.9-1.8 10.3-2.7-3.4-4-6.5-8.3-10.4-11.7-2-1.8-5.4-2-8.1-2.9-1.5 7.5-3.1 15-5.2 25.3zm-109.9-1c.9-2 2.9-5.7 4-9.7.3-1.2-1.5-3.7-2.9-4.6-1.8-1.1-4.2-1.3-6.3-1.4-.9 0-2.2 1.1-2.8 2-1.6 2.7-2.6 5.8-4.5 8.2-.4.5-3.7-1.4-5.7-2.2 1.7-2.3 3.5-4.5 4.9-6.9.6-1 .2-2.5.2-3.8-4.5 4.3-8.9 8.7-13.4 13.1-.4.4-.7 1.7-.5 1.8 2.5 1.7 5 4.5 7.6 4.7 5.5.4 10.9-.5 19.4-1.2zm-307.3-392.3c-.1.2-1.8 1.9-1.6 3.2 1 5.5 2.2 11.1 4.1 16.4.7 1.9 4.5 4.7 5 4.3 4.3-2.9 8.4-6.3 12.1-10 .5-.5-.8-3.8-2-5-.9-.8-3.1-.8-4.6-.4-1.3.4-2.3 1.7-3.5 2.6-.1-2.9-1.5-6.9-.2-8.6 2.3-2.8 6.3-4.1 9.6-6.1-5.4 1.2-10.9 2.2-18.9 3.6zm9.6-21c5.6-3.9 10-6.9 14.3-9.9-2.8-2.2-6-6.6-8.2-6.1-7.8 1.7-15.2 5-22.8 7.7 4.8 2.4 9.6 4.8 16.7 8.3zm-59.2-21.4c-1.3 5.1-2.8 9.3-3.3 13.7-.2 2.2 1 4.9 2.3 7 1.1 1.8 3.1 4.3 4.8 4.3 1.8 0 4.6-2.1 5.2-3.9 1.2-3.7.8-8 1.9-11.7.6-2.2 2.9-3.9 4.4-5.8-3.3-.9-6.6-1.7-15.3-3.6zM846 122.4l-3-4.2c-2.2 1.8-4.5 3.7-6.7 5.5 1.4 1.4 2.8 2.8 4.1 4.2.9 1 1.8 2 2.3 3.2.1.2-1.3 1.6-2.1 1.7-2.5.3-5 .1-7.5.2 2.5 2.2 5.8 6.8 7.2 6.3 3.6-1.4 6.5-5 9.6-7.8 1.6-1.5 3-3.2 4.7-4.7 1.6-1.4 4.3-2.4 4.9-4.1.9-2.7.3-5.9.3-8.9-.4.1-.9.2-1.2.4-4.3 2.7-8.4 5.5-12.6 8.2zm627.4 390.2c-.9-.6-1.4-1.1-2-1.3-6-2.3-11.9-5.2-18.2-6.6-3.3-.7-8.4.3-10.5 2.5-2 2.2-1.3 7-1.7 10.7 2.9-1.1 5.7-2.6 8.7-3.3 1.9-.4 4.1.3 6.1.3 5.1.2 10.1.4 15.2.3.7.1 1.4-1.4 2.4-2.6zM820.7 218.5c2.1-6.3 3.6-11 5.2-15.8-4.8.5-10 .2-14.4 1.7-3.7 1.3-6.5 4.8-9.7 7.4 5.6 2.1 11.3 4.1 18.9 6.7zm-123 36.4c-.9 2.1 1.6-1.7.9-2.4-3-3.1-6.9-5.3-10.5-7.8-.7 1.3-1.1 2.7-2.1 3.7-3.9 4-7.7 8.1-12.1 11.4-1.5 1.1-4.7 0-7.1-.1 2.9 1.7 6.3 5.3 8.6 4.8 6.2-1.5 11.8-4.9 22.3-9.6zM1348 381.6c-6.4-4-11.2-7.2-16.2-9.7-.6-.3-4.7 4.3-4.5 4.6 3.7 5 7.9 9.6 12 14.3 2.1-2.3 4.3-4.6 8.7-9.2zm-385 486c5.4-3.7 10.6-7.1 15.7-10.6-5.3-3.6-10.5-7.1-15.8-10.7-1.2 5.9-2.5 11.9-3.4 17.8-.1.8 1.8 1.9 3.5 3.5zM891.8 791c-5.8-6.8-7.1-9.8-9.4-10.7-4.9-2.1-10.2-3.1-15.3-4.6-1.5-.4-2.9-1.1-4.4-1.7-.2 1.6-1.1 3.5-.5 4.6.6 1.1 2.8 1.4 4.1 2.2 2.4 1.5 5.3 2.8 7 4.9 2.6 3.2 3.7 9.1 6.7 10.1 2.8 1 7.3-2.8 11.8-4.8zm-86.9-565.1c-1.2-2.9-1.4-5.1-2.4-5.7-4.1-2-8.6-3.4-12.7-5.3-1.4-.7-2.3-2.5-3.4-3.8-.7 1.2-2.2 2.6-2 3.6 1 4 1.5 8.8 4.1 11.4 2.5 2.5 7.3 3.1 11.2 3.5 1.5.1 3.3-2.4 5.2-3.7zm211-13.9c-1.4-6.2-1.8-11.3-3.7-15.7-1.2-2.8-4.9-4.5-7.4-6.7.8 7.5 1.5 15 2.7 22.4-.1.4 4.6 0 8.4 0zM879.7 19.6c5.3-2.8 9.9-5.1 14.4-7.6.3-.2 0-1.7-.4-2.4-.2-.4-1.1-.6-1.7-.7-5.8-1-13.4-8.6-15.5 4.2 0 .1-.6.1-1 0-2.4-.5-4.9-1-7.3-1.6 3.9 2.7 7.7 5.4 11.5 8.1zm602.9 453.5l2.4-13.8c-4.3-.8-8.6-1.5-12.9-2.3 1.4 3.1 3.1 6.1 4 9.4.5 1.7-.6 3.9-.9 5.8 2.5.3 5 .6 7.4.9zm-657.5 341c-3 2.7-5.4 4.8-7.8 7 3.1 2.5 6.4 7.1 9.2 6.8 3.1-.4 5.6-5.3 8.3-8.2-2.8-1.5-5.5-3.1-9.7-5.6zM1509 184.2c-1-.8-4.4-3.5-7.8-6.2-2 4.4-4.7 8.7-5.7 13.3-.4 1.7 3.4 4.2 5.3 6.4 2.4-3.8 4.7-7.7 8.2-13.5zM677.6 658.3c-3.5 3.2-8.2 5.8-7.9 7.6.5 3.2 3.7 7.9 6.4 8.4 2.9.5 6.5-3.2 9.8-5.1-2.5-3.2-5.1-6.5-8.3-10.9zm147.2 36.5c-6.6 10.4-10 13.8-9.3 15.1 1.6 3.4 5.1 5.9 7.9 8.7 2.1-3 5.4-5.9 5.9-9.2.5-3-1.9-6.5-4.5-14.6zM942.9 788c-3.1-5.3-6.2-10.5-9.2-15.8.1 3.6.6 7.2.1 10.7-.3 1.8-2.5 3.3-3.5 5.2-1.5 2.7-2.7 5.6-3.9 8.4-.1.2.9.8 1.4 1.2 1-1.4 1.7-3.2 3-4.1 1.6-1.1 3.6-1.8 5.5-2.2.7-.1 1.7 1.2 2.5 1.9 1.4-1.8 2.8-3.5 4.1-5.3zm503.8-763.9c-5.1-1.4-9.6-3-14.1-3.6-1.3-.2-3 2.8-4.4 4.4 4.2 3 8.4 5.9 12.6 8.9 1.9-3.1 3.8-6.1 5.9-9.7zm-676 815.6c-2-2.6-3.3-4.3-4.5-5.9-.6 1.3-.9 3.1-1.9 3.8-2.1 1.4-4.6 2.4-7 3.3-3.2 1.3-6.6 2.3-9.8 3.6-.3.1-.5 1.6-.4 1.7 3.4 1.9 8 6.1 10 5.1 5.1-2.6 9.1-7.5 13.6-11.6zm752.9-677.2c2.3-4.3 4.3-7.5 4.1-7.7-3.6-2.5-7.4-5.3-11.5-6.5-1-.3-3.6 4.5-5.4 6.9 3.7 2.1 7.4 4.3 12.8 7.3zM1346.1 838c3.6 5 4.4 7.3 5.6 7.5 1.6.4 3.7-.6 5.1-1.6.4-.3-1.2-2.8-1.1-4.2.2-3 .6-6 1.4-8.8.4-1.5 1.9-2.8 2.9-4.2-1.7.4-4 .2-5 1.2-3.2 3-5.9 6.6-8.9 10.1zm-104.3-479.6c-1.3 1.5-2.6 3.1-3.9 4.6l6 7.8c3.4-3 6.9-5.9 10-9.1.8-.9.5-2.8.7-4.3-.9.2-1.8.5-2.7.7-2.9.4-5.8.8-8.8 1.1-.3 0-.8-.5-1.3-.8zM1434.3 531c-3.4 6.5-6.6 11.6-8.9 17.2-.4 1.1 2.3 3.5 3.6 5.3 2.5-6.3 5.3-12.4 7.3-18.8.4-1.4-2-3.6-2-3.7zm-228.9-222.6c-2.1 4.4-3.3 6.9-4.5 9.4 5.3 1.7 10.7 3.4 16 4.8.4.1 1.8-1.9 1.8-1.9-3.8-3.6-7.7-7.2-13.3-12.3zm-327.2 398c3.4-3 6.6-4.9 6.3-5.8-1.1-3.7-3.3-7-5.1-10.4-2.7 1.7-8 4.1-7.7 5.1.8 3.5 3.6 6.5 6.5 11.1zm-86.9-168.5c-6.3-3.4-9.3-6.5-12-6.2-2.6.4-4.6 4.2-6.9 6.6 2.4 1.9 4.6 5 7.1 5.2 2.7.2 5.6-2.5 11.8-5.6zm2.7 46.4c-8.8-2.8-12.6-5.1-16.1-4.7-2.5.3-6 4-6.3 6.6-.3 1.9 3.3 5.5 5.9 6.4 1.8.5 4.7-2.2 16.5-8.3zm609-72.9c.7 5.6.4 3.6.2 1.6.7 5.3 1 10.7 2.5 15.8.2.8 6.3-.2 9.6-.4-2.6-3.5-5.2-7.2-12.3-17zm-198.8-140.1c-.5.7-1.7 2.3-2.9 3.9 4.8 2.7 9.4 5.7 14.5 7.9 1 .4 3.4-2.7 5.2-4.3-5.2-2.3-10.3-4.6-16.8-7.5zM995.7 653.4c1.9-4.2 3.8-7.3 4.5-10.8.1-.7-5.3-3.9-6.4-3.2-2.8 1.9-4.5 5.2-6.7 8 2.4 1.7 4.8 3.4 8.6 6zM1328.9 355c4.1 5.7 5.5 9.8 7.9 10.5 2 .6 5.2-2.6 7.9-4.2-3-3-5.8-6.4-9.3-8.7-1-.6-4 1.5-6.5 2.4zm-290.2 212.8c-6.6-1.7-9.9-2.7-13.3-3.3-.9-.2-2.9 1.4-2.8 1.5 1.6 3.7 3.4 7.3 5.1 10.9 2.7-2.3 5.4-4.5 11-9.1zM769.9 216.3c5 1.2 7.9 2.1 10.9 2.5.5.1 2.2-2.6 1.9-3.2-1.8-3.4-4-6.6-6.1-9.9-1.7 2.7-3.5 5.5-6.7 10.6zm-75.5 635.4c2.1-2.6 3.5-4.1 4.8-5.7-4.2-1.9-8.2-4.2-12.6-5.5-1-.3-2.9 2.5-4.5 3.8 3.8 2.3 7.6 4.6 12.3 7.4zm387.6 36.6c-1.9-1.3-3.8-3.7-6-3.9-1.8-.1-5.6 3.3-5.4 3.7 1.9 3.9 4.4 7.5 6.8 11.1 1.4-3.4 2.9-6.8 4.6-10.9zm-63-19.5c2.2-2.9 4.9-5.8 4.6-6.2-1.8-2.2-4.2-4.8-6.6-5.1-1.7-.2-3.9 2.9-5.9 4.6 2.3 1.9 4.6 3.9 7.9 6.7zm16-747.1c3.6-5.5 6.2-9.4 8.7-13.2-.8-.5-2.1-1.5-2.4-1.3-3.5 3-6.9 6.2-10.1 9.5-.1.2 1.4 2 3.8 5zm276.3 816.9c-3.2-2.1-5.7-5.1-7.7-4.8-2.4.4-4.3 3.7-6.4 5.7 2 1.7 4.1 5 6 4.8 2.4-.2 4.6-3.1 8.1-5.7zM762 710.9c-2.5-2.3-5.1-4.5-7.7-6.8-1.1 1.3-3.4 3.3-3.1 3.8 2.1 3.6 4.7 6.9 7.2 10.3 1-1.9 1.9-3.8 3.6-7.3zm43.1 53c2.5-3.6 5.3-5.9 5.1-7.8-.2-1.8-3.5-4.6-5.4-4.6-2.1 0-4.2 2.7-6.4 4.3 1.9 2.3 3.8 4.5 6.7 8.1zm50.6-567.5c-8.6-.7-12.4-1-16.2-1.3.4 3.9.7 7.7 1.1 11.6 2.8-2.9 5.6-5.8 8.5-8.6.4-.4 1.2-.3 6.6-1.7zM599.2 422.5c-3.4 2.3-5.7 3.8-8 5.3 2 2.3 4 4.6 6 7 1.9-2 4.4-3.7 5.4-6 .5-1.2-1.9-3.6-3.4-6.3zm311 199.9c-2.7 1.9-4.4 3-6 4.2 1.7 2.5 3.4 4.9 5.1 7.4 1.8-2.1 4.1-4 5.2-6.4.4-.9-2.4-3.1-4.3-5.2zM826 491c2-1.6 3.5-2.7 4.9-3.8-2-2.6-4.1-5.2-6.1-7.8-1.9 2.5-3.7 5-5.6 7.6 2.1 1.2 4.2 2.5 6.8 4zm-46.9 324.6c1.3 1.9 2.1 3.2 3 4.5.8-5.4 1.7-10.9 2.5-16.3.1-.5-.7-1.1-1-1.6-1.5 4.3-3 8.7-4.5 13.4zm-86.7 3.6c4.5-5.1 7.4-7.2 7.1-8.2-.8-2.6-3.1-4.8-4.8-7.1-1.5 2.7-3.5 5.2-4.3 8.1-.5 1.5.9 3.7 2 7.2zm684.6 6.2c-3.8-2.5-7.4-4.9-11.1-7.3-.1-.1-1.4 1.3-1.4 1.3 3.1 3.8 6.3 7.5 9.5 11.2.5-.7.9-1.5 3-5.2zm-403.2-160c3.2 3 4.8 5.6 6.9 6.2 1.2.3 4.9-3 4.7-4-.5-2.1-2.5-4.6-4.5-5.5-1.1-.7-3.6 1.5-7.1 3.3zm522.3-376c-2.8-.7-5.8-1.4-8.8-2.2-.6 5-1.2 9.9-1.7 14.9 0 .5 1.1 1.1 1.7 1.7 2-3 3.8-6.1 8.8-14.4zm-316.5-90.8c1-.8 2.1-1.7 3.1-2.5-2.8-2.6-5.6-5.2-8.4-7.9-1 2.3-2 4.7-3 7 2.5 1 5.1 2 8.3 3.4zm39.5 187.5c-3.8 2.2-6.1 3.7-8.5 5.1 2.1 1.9 4 4.5 6.5 5.5 1.4.6 3.8-1.5 5.8-2.3-1.4-3.1-2.9-6.2-3.8-8.3zM734.8 839.8c1.5-2.7 3.2-4.5 2.9-5.7-.6-1.9-2.5-3.3-3.9-5-2 1.7-3.9 3.4-5.9 5.1 1.8 1.5 3.6 3 6.9 5.6zM846.4 783c1.7 2.4 3.3 5.5 3.9 5.3 2.3-.8 4.3-2.5 6.4-3.9-1.7-1.9-3.3-4.2-5.4-5.5-.5-.4-2.9 2.4-4.9 4.1zm230.4-7.1c1.9-3 4.3-5.3 3.9-6.5-.7-1.7-4.2-4-5.3-3.5-1.9.9-3.1 3.6-4 5.9-.1.4 2.6 1.9 5.4 4.1zm-182.6-517c-1.3-.3-2.5-.9-2.9-.6-2.8 2.3-5.5 4.7-8.2 7.2 2.3.6 5.6 2.4 6.8 1.5 2-1.5 2.7-4.8 4.3-8.1zm177.5 422.6c-2.5-1.7-3.6-2.5-4.7-3.3-2.2 3.8-4.4 7.6-6.6 11.5-.1.2.4.6.7 1 3.2-2.8 6.4-5.6 10.6-9.2zm287.9-289.4c1.9-6.3 3.2-9.2 3.5-12.3.1-.9-3.2-3.3-3.9-3-2.3 1.2-4.2 3.3-6 5.2-.1.3 1.3 2 6.4 10.1zM616 638.7c2.2-2.6 4.9-4.8 4.5-5.5-1-2-3-3.9-5.1-4.9-.6-.3-3.8 2.6-3.9 4.2 0 1.7 2.3 3.4 4.5 6.2zm99.8 167.4c-2.8-1.9-4.7-4.1-5.9-3.7-2.2.7-3.9 2.8-5.8 4.3 1.9 1.4 3.7 3.5 5.8 3.9 1.3.2 3.1-2.3 5.9-4.5zM1164 959.2c-2.5 2.8-4.3 4.9-6 6.9 1.6 1.3 3.3 3.6 4.9 3.5 1.7-.1 4.3-2.2 4.6-3.8.3-1.7-1.8-3.7-3.5-6.6zm82.7-825.4c-2.3 3.1-4.4 5-4.1 5.8 1 2.2 3 4 4.6 5.9 1.2-1.6 3.3-3.2 3.4-4.8 0-1.8-1.9-3.5-3.9-6.9zm-192.6 672.7c-1.8-1.6-3.1-2.7-4.4-3.9-1.4 2.2-3.7 4.3-4 6.6-.2 1.3 2.9 3 4.6 4.6 1.1-2.2 2.2-4.4 3.8-7.3zm648.6-245.9c-1 1.7-2.7 3.8-2.4 4.1 2.5 2.8 5.4 5.3 8.2 7.8.5-1.9 1.9-4.4 1.1-5.5-1.6-2.3-4.2-4-6.9-6.4zM877.2 877.8c-.4.2 1.6-1 3.6-2.1-3.9-1-7.8-2.3-11.8-2.8-.8-.1-1.9 3.2-2.9 4.9h11.1zm-79-240.3c1.6-2.3 3.6-3.9 3.4-5.1-.2-1.6-2.2-2.9-3.4-4.4-1.7 1.6-3.4 3.3-5.1 4.9 1.4 1.3 2.8 2.5 5.1 4.6zm47.2-420.2c.3-.1.5-.3.8-.4-.5-.8-1-1.7-1.4-2.5-1.4 2.6-2.8 5.3-4.2 7.9 2.8.9 5.6 1.7 8.4 2.6-1.2-2.6-2.4-5.1-3.6-7.6zm44 14.6c-4-1.5-7.8-3.3-11.8-4.1-.8-.2-2.4 3.5-3.6 5.4 4.1 1.5 8.2 3.1 12.5 4.1.5.2 1.8-3.3 2.9-5.4zm-222.2-27.5c.7 1.8 1.5 3.6 2.2 5.4 2.7-1.3 5.5-2.5 8.2-3.8-2.6-2.2-5.3-4.3-7.9-6.5-.7 1.5-1.5 2.9-2.5 4.9zm275.1-19.6c2.5 2.3 4.2 4.8 5.4 4.6 1.5-.2 2.8-2.7 4.1-4.2-1.6-1.4-3.1-3.1-5-3.9-.6-.2-2.2 1.7-4.5 3.5zm158.6 940.3c-2.8-2.2-4.5-4.5-5.8-4.3-1.8.2-3.3 2.4-4.9 3.8 1.8 1.5 3.5 3.4 5.5 4.2.8.3 2.5-1.7 5.2-3.7zM941.1 642.2c1.2 1.9 1.9 3 2.6 4.2 1.3-2.8 2.9-5.6 3.9-8.5.3-.9-1-2.4-1.6-3.6-1.6 2.5-3.2 5.1-4.9 7.9zm392.4-497.3c-2 2.7-3.6 4.2-3.3 4.7 1 2.1 2.6 3.9 4 5.8 1.3-1.2 3.8-2.7 3.6-3.6-.4-2-2.1-3.7-4.3-6.9zm366 236.9c4.8.9 7.5 1.7 10.1 1.8 1 0 2.1-1.4 3.2-2.2-2.7-2-5.3-4-8.2-5.7-.3-.1-2.1 2.4-5.1 6.1zm-676.2 293.7c-1.9-2.1-3.2-3.5-4.4-4.9-1.2 1.5-3.4 3-3.4 4.5s2.1 3.1 3.3 4.6c1.2-1.2 2.5-2.3 4.5-4.2zM700.4 625c4.5-2.1 6.5-3 8.5-4-2.1-1.6-4.2-3.5-6.5-4.6-.4-.2-2.9 2.7-3.3 4.5-.4 1.3.9 3.1 1.3 4.1zm49 5.5c-2 2.2-3.2 3.4-4.3 4.6 1.6 1.2 3 3 4.9 3.5 1 .3 2.5-1.6 3.8-2.6l-4.4-5.5zm648.1-604.9c4.5.7 6.5 1.6 7.6 1 2.2-1.2 3.8-3.2 5.7-4.9-1.2-.9-2.6-2.6-3.7-2.4-1.7.4-3.2 1.9-9.6 6.3zM853.6 635c-1.8-1.7-3.4-3.9-4.1-3.6-1.7.6-2.9 2.3-4.3 3.6 1.4 1.3 2.7 3.1 4.3 3.6.8.3 2.3-2 4.1-3.6zm17.4-18.4c1.9-2.1 3.9-3.6 3.6-4.2-.8-1.6-2.4-2.9-3.6-4.3-1.3 1.2-3.1 2.3-3.5 3.8-.3.9 1.7 2.4 3.5 4.7zm-41.7-473.1c1.3-1.9 2.8-3.8 2.6-4-1.4-1.3-3-2.9-4.7-3.1-1.2-.2-2.6 1.8-3.9 2.8 1.7 1.2 3.4 2.4 6 4.3zM1229 386.9c-1.1-3.6-1.4-4.8-1.8-6-.7 4-1.6 8-2.1 12-.2 1.2.7 2.6 1.1 3.9 1.1-3.9 2.2-7.9 2.8-9.9zm-660.6 75.3c2.4-3.5 4.1-4.9 4.3-6.5.1-1-1.9-2.2-3-3.4-1.2 1.4-2.6 2.8-3.4 4.4-.4.7.6 2 2.1 5.5zm810.5-406.6c3.5 1.2 5.5 2.1 7.6 2.5.5.1 1.3-1.1 1.9-1.6-2.6-1.7-5.2-3.4-7.9-5.1-.5 1.5-1.1 3-1.6 4.2zm-282.3 781.7c-3.9 0-6.2-.5-8.1.1-1.4.5-2.7 2.1-3.5 3.5-.3.5 1 1.9 1.6 2.8 2.7-1.7 5.5-3.5 10-6.4zm-250.9-623c2.9 1.1 4.4 2.2 5.9 2.2 1.1 0 2.3-1.2 3.4-1.9-1.4-1.6-2.8-3.2-4.1-4.8-1.3 1.2-2.7 2.4-5.2 4.5zM836 837.2c1.7-2.5 3.1-4 3.7-5.7.2-.8-1.3-2.2-2-3.3-1.8 1.4-3.7 2.8-5.5 4.3 1 1.3 2 2.5 3.8 4.7zm870.7-429.4c2.5-.7 3.2-.9 3.9-1.1-1.9-2.2-3.8-4.4-5.9-6.4-.1-.1-1.6 1.1-2.5 1.7 1.5 2 3.1 4 4.5 5.8zM944.5 894.5c-1.6 3.1-2.8 4.6-2.5 5 2.2 2.8 4.7 5.3 7.1 8 .3-.6.9-1.4.7-1.8-1.4-3.2-2.9-6.2-5.3-11.2zM867.4 659c-2.3 3.1-4 4.8-5 6.9-.2.4 1.5 1.9 2.4 3 1.4-1.6 3-3.2 4-5 .3-.8-.6-2.3-1.4-4.9zm495.3 281.4c-1.3 3.9-2.2 6.3-2.7 8.7-.1.4 1.5 1.2 2.2 1.8 1.1-2.2 2.3-4.3 3.1-6.5.3-.6-.9-1.6-2.6-4zm22.8-894.5c1.8 2.5 2.7 3.6 3.5 4.8 1.6-2.7 3.2-5.5 4.7-8.3.1-.1-1.2-1.3-1.4-1.2-2.1 1.4-4.1 2.8-6.8 4.7zm148.9 292.3c1.6-1.5 3.1-2.8 4.4-4.3.1-.2-2.1-2.6-2.2-2.5-2 1.4-3.9 3.1-5.8 4.7.9.4 1.8 1 3.6 2.1zm-191.5 564c1.4 2.4 1.7 2.8 2 3.3 1.2-2.7 2.4-5.4 3.5-8.2.1-.3-.5-.9-.7-1.4-1.6 2.1-3.2 4.1-4.8 6.3zM905.5 29c-2.2-1-3.6-2.1-4-1.8-1.6 1.3-2.9 3-4.4 4.5.9.8 2.4 2.5 2.7 2.3 1.7-1.1 3.2-2.7 5.7-5zm-70.2 181.4c-2.3-1.4-3.7-2.8-5.2-2.9-1 0-3.1 2.1-2.9 2.8.4 1.4 1.9 3.3 3.1 3.4 1.3 0 2.7-1.7 5-3.3zM615.4 656.1c-2.6 4-4.4 6-4.1 6.4 1.1 1.4 2.7 2.6 4.4 3.1.7.2 2.9-1.9 2.8-2.7-.3-1.9-1.6-3.7-3.1-6.8zm239.2 200.1c3-3.3 4.2-4.3 4.1-4.6-.4-.9-1.4-1.5-2.2-2.2-1.2 2.2-2.3 4.4-3.5 6.6 1.5.1 3.1.4 1.6.2zm678.3-549.7c1.2 1.9 1.9 4.4 3.4 5 1.3.5 3.4-1.2 5.2-1.9-1.4-1.5-2.5-3.7-4.2-4.4-1.3-.5-3.4.9-4.4 1.3zM1057.7 629c-2.2-1.8-3.8-3.8-4.6-3.6-1.5.4-2.8 2.2-3.7 3.6-.2.3 1.7 2.7 2.5 2.6 1.6-.1 3.1-1.3 5.8-2.6zM866 227.1c-2.4-1.9-4.1-3.4-6-4.7-.2-.1-1.6 1.7-2.4 2.6 1.8 1.4 3.6 2.9 5.5 4.1.3.3 1.4-.9 2.9-2zM780.2 735c-2.2-1.7-3.4-3.5-4.8-3.6-1-.1-2.9 1.8-3.1 3-.2 1 1.6 3.2 2.5 3.2 1.5.1 2.9-1.3 5.4-2.6zm15.3 105.9c1 3 1.7 4.9 2.3 6.7 1.4-2.2 2.9-4.4 4.3-6.7-1.2-.6-2.5-1.5-3.8-1.7-.8-.1-1.8 1-2.8 1.7zM1018 603.1c1.6 1.9 2.8 3.3 4 4.7.6-1 1.9-2.2 1.7-3.1-.4-1.9-1.6-3.6-2.5-5.5-.9 1.2-1.8 2.2-3.2 3.9zm-50.1-302.4c-2-1.8-3.3-3-4.7-4.2-.9 1.1-2.8 2.5-2.6 3.2.5 1.5 1.9 3.1 3.3 3.9.5.3 2.2-1.6 4-2.9zm37.4 489.4c-2.3-1.4-3.8-3.1-4.9-2.8-1.2.2-2.6 2.1-2.9 3.4-.2.7 2 2.7 3 2.6 1.2-.1 2.5-1.6 4.8-3.2zm-8.6 110c-1 1.4-2.4 2.8-2.2 3.2 1 1.7 2.6 3 3.9 4.5 1.1-1 2.2-2.1 3.3-3.1-1.5-1.4-3-2.8-5-4.6zM820.9 742.4c-1.4 2.8-2.9 4.4-2.6 5.5.4 1.5 2.2 2.6 3.3 3.9.7-1.3 2-2.6 1.9-3.9.1-1.4-1.2-2.8-2.6-5.5zm-146 74.5c.9-2.8 1.9-4.4 1.8-5.9-.1-1.1-1.8-2.7-2.7-2.7-1.1 0-3.4 2-3.2 2.3.8 1.9 2.1 3.5 4.1 6.3zm729.9-419.7c-2.1-1.4-3.6-2.8-4-2.5-1.7 1.1-3.2 2.7-4.6 4.2-.1.1 1.3 2 1.6 2 2-.9 4-2.1 7-3.7zM727.6 115.6l2.7-3.9c-.5-2.3-1.1-4.7-1.6-7-.2-.7-.3-1.3-.5-2-1.7 1.2-4.9 2.7-4.7 3.4.9 3.4 2.7 6.4 4.1 9.5zm129.5 416.6c-3.7-3.3-5.2-5-5.5-4.9-1.3.9-2.3 2.3-3.5 3.5 1.1 1 2.1 2.5 3.3 2.8 1.5.3 3.1-.7 5.7-1.4zm-12.7-319.7c-4-2.7-6-4-8.1-5.3 0 0-1.1 1.2-1 1.4 1 1.7 1.9 3.6 3.3 4.9.5.5 2.3-.3 5.8-1zm-36 644.2c2.9-.8 4.1-1.1 5.3-1.4-2.3-2.2-4.6-4.5-6.9-6.7-.3.7-1.1 1.5-.9 2 .7 2.1 1.7 4.1 2.5 6.1zm214.6-621c-.9 3-2.1 4.7-1.6 5.6.8 1.5 2.5 2.6 4.1 3.5.2.1 2.4-1.8 2.3-2.4-.5-1.5-1.8-2.6-4.8-6.7zm25-28.5c-1.2.8-2.4 1.6-3.6 2.5 2.2 1.4 4.2 3 6.6 4 .7.3 2.2-1 3.3-1.6-2.1-1.6-4.1-3.2-6.3-4.9zm20.2 326.8c1 2.2 1.6 3.5 2.2 4.9 1.5-1.8 3-3.6 4.3-5.6.1-.1-1.6-2-2.1-1.9-1.5.5-2.8 1.5-4.4 2.6zm51.3-406.2c1.2-1.9 2.1-3.3 3-4.7-1.2-.7-2.4-2-3.5-1.8-1.6.2-3 1.5-4.5 2.3 1.4 1.2 2.8 2.4 5 4.2zM971.6 627c1.2-3.2 2.2-4.7 2.1-6.1-.1-1.2-1.4-2.3-2.2-3.4-1 1.4-2.5 2.7-2.9 4.3-.2.9 1.3 2.3 3 5.2zM861.7 831.6c-3.4-1.5-5.4-2.5-7.5-3.1-.5-.1-1.3.9-2 1.4 1.8 1.6 3.5 3.4 5.4 4.8.3.2 1.8-1.3 4.1-3.1zM983 326.3c-2-1.6-3.2-2.6-4.4-3.6-.8 1.1-2.4 2.3-2.3 3.2.2 1.1 1.7 2.5 2.9 2.8.8.2 2-1.2 3.8-2.4zM709.4 778.4c-2.2 1.6-3.6 2.6-5 3.6 1.8 1.2 3.6 2.5 5.5 3.6.1.1 1.8-1.6 1.6-2.2-.3-1.6-1.2-3.1-2.1-5zm110.3 33.5c-3.1-1.4-4.5-2.6-6-2.6-.8 0-2 1.7-2.4 2.8-.1.5 1.6 2.1 2.4 2.1 1.5-.1 2.9-1 6-2.3zM1192.8 542c-1.2 1.7-2.7 3-2.5 3.8.4 1.2 1.9 2.9 2.9 2.9 1.1 0 2.9-1.8 3-2.9.1-1-1.8-2.1-3.4-3.8zM788.4 721.1c-2.2-1.4-3.4-2.7-4-2.5-1.6.6-2.9 2-4.3 3 .7.8 1.6 2.3 2.2 2.2 1.7-.4 3.2-1.4 6.1-2.7zm86.9 43.4c-2.6-1.2-4-2.2-5.5-2.5-.5-.1-2.1 2-1.9 2.5.5 1.3 1.8 2.9 2.9 3.1 1 .2 2.3-1.5 4.5-3.1zm-40.8-70.1c1.5-1.6 2.6-2.7 3.6-3.9-1.2-.8-2.4-2.1-3.7-2.2-1-.1-2.1 1.4-3.2 2.2 1 1.2 1.9 2.3 3.3 3.9zm27.5-65.7c-1.3 2.3-2.3 3.6-2.7 5.1-.1.5 2.3 2.1 2.5 2 1.2-1 2.3-2.3 2.9-3.7.2-.5-1.2-1.6-2.7-3.4zM609.6 750.3c3.3-5.7 4.4-6.8 4.1-7.3-.6-1.1-1.8-2.6-2.7-2.6-1 0-2.6 1.4-2.8 2.5-.2 1.4.6 3 1.4 7.4zm18.3-5c1.5-1.3 3.3-2.1 3.7-3.3.2-.8-1.6-2.2-2.6-3.4-1.1.9-2.7 1.7-3 2.8-.3 1 1 2.4 1.9 3.9zm358.3 117.9c1 1.4 1.8 2.5 2.6 3.6.7-1.3 1.9-2.5 2-3.8 0-1.4-1.1-2.7-1.8-4.1-.9 1.3-1.7 2.5-2.8 4.3zm255.3-548.9c-2.1-1.6-3.6-3.2-3.8-3-1.3 1-2.3 2.4-3.4 3.7 1 .6 2 1.8 2.9 1.7 1.1 0 2.1-1.1 4.3-2.4zm-440 400.4c-1.5 2.9-2.6 4.4-3 6.1-.1.4 2 1.9 3 1.9 1.1 0 2.7-1.2 2.9-2.1.2-1-1-2.3-2.9-5.9zm181.6 188.8c-1.4 1.8-2.2 2.7-2.9 3.7 2 1.3 4 2.6 6.1 3.9 0 0 .8-.9.7-1.1-1.1-2-2.3-3.8-3.9-6.5zm95.1-581.8c-1.5 2-3.1 3.3-2.8 4.1.3 1.1 1.8 2.3 3 2.7.8.2 2-1 3-1.5-.8-1.4-1.7-2.9-3.2-5.3zm105.8-2.3c-2.7-.4-4.9-.9-7.2-1-.5 0-1.5 1.9-1.4 2 1.3 1.1 3 3.1 4.1 2.9 1.6-.4 2.9-2.4 4.5-3.9zM957 814c-.9 2.2-1.8 3.4-1.8 4.6 0 1.3.8 2.6 1.2 3.9 1.1-1.3 2.7-2.4 3.2-3.8.3-1-1.2-2.4-2.6-4.7zm116.2-664.5c1.5-1.9 2.6-3.1 3.6-4.3-1-.7-2.2-2.1-2.9-1.9-1.3.5-2.4 1.8-3.2 3-.2.3 1.3 1.7 2.5 3.2zM879.9 669.7c-.9.8-2.3 1.8-2.2 2.1.7 1.7 1.8 3.2 2.8 4.7 1.2-1.3 2.3-2.7 3.5-4-1.2-.9-2.5-1.7-4.1-2.8zm524.3-224.9c.7 1.4 1.1 2.5 1.6 3.5.7-1.9 1.6-3.8 1.9-5.8.2-1-.7-2.1-1-3.2-.8 1.8-1.7 3.6-2.5 5.5zM847.3 501c-2.1-1.3-3.2-2-4.2-2.8-.7 1.1-1.7 2.1-1.9 3.2-.1.7 1.4 2.3 2 2.2 1.1-.1 2.1-1.2 4.1-2.6zm493.8 374.5c1-.7 1.9-1.3 2.7-1.9-.9-.8-1.8-2.3-2.7-2.3-1.6 0-3.2 1-4.8 1.6 1.5.8 2.9 1.6 4.8 2.6zm-375.9-58.8c1.9-3 3.2-5.1 4.5-7.3.1-.1-.7-.8-1.1-1.2-1.5 1.5-3.2 2.9-4.4 4.6-.4.6.5 1.9 1 3.9zm268.4-301.6c-2-2.2-3.4-3.8-4.8-5.3-.5 1.1-1.8 2.3-1.5 3.1.4 1.2 1.7 2.2 2.9 2.9.6.3 1.7-.3 3.4-.7zm-73.7 258.5c1.8-1.1 3.2-2 4.6-2.9-1.4-1.1-2.6-2.3-4.1-3.2-.3-.2-2.1 1.3-2.1 1.9.2 1.5 1.1 2.9 1.6 4.2zM834.7 220.3c-.5.7-1.5 1.4-1.4 2.1.2 1.3.9 2.6 1.4 3.9 1.3-1.6 2.6-3.2 3.9-4.9-.9-.3-1.9-.6-3.9-1.1zM814 119.5c-.4 1.4-1 2.2-.8 2.9.4 1.6 1.1 3.1 1.7 4.6 1-.9 2.9-2.3 2.8-2.7-.7-1.5-2.1-2.8-3.7-4.8zm-19.6-1.3c-2.3-.6-3.5-1.3-4.3-1-1.1.4-2 1.6-3 2.5 1 .8 2.2 2.4 2.9 2.2 1.3-.4 2.3-1.8 4.4-3.7zM903.5 660c-.7 2.9-1.6 4.4-1.2 5.5.4 1.3 1.9 2.2 2.9 3.2.3-.9 1.1-1.9.9-2.8-.4-1.5-1.3-2.9-2.6-5.9zm467.2 299.9c.1.1.5.7.8 1.2.8-1.2 2.5-2.6 2.3-3.7-.3-1.9-1.6-3.6-2.5-5.4-.2 2.4-.4 4.8-.6 7.9zm-16-892.8c-2.6-1.1-5.1-3-6.2-2.5-1.7.9-2.6 3.5-3.8 5.4 2.7-.6 5.4-1.1 8.1-1.8.4 0 .8-.4 1.9-1.1zM1109 150.4c-2.6 4.2-3.9 5.5-3.6 5.9.7 1.1 1.8 2.2 3 2.4.6.1 2.2-1.4 2.3-2.3.1-1.4-.7-2.8-1.7-6zM941.8 279.5c-.1.1-1.2 1.2-1.2 1.3 1.3 1.4 2.6 3.1 4.3 3.9.6.3 2.2-1.4 3.4-2.2-1.9-1-3.9-1.9-6.5-3zm470.7 230.2c-1-1.1-2-2.8-2.4-2.6-1.1.3-2.9 1.8-2.7 2.2.5 1.4 1.7 2.5 2.6 3.8.7-1.1 1.4-2 2.5-3.4zM834.2 236.4c-1.4 1.2-2.5 2.1-3.6 3.1 1.4.8 2.8 2.2 4.1 2.1 1 0 1.9-2 2.8-3.1-.9-.6-1.9-1.2-3.3-2.1zm507-139.8c1.9-1.2 3.1-2 4.3-2.8l-5.4-3.6c-.3.6-1 1.4-.9 1.8.5 1.5 1.2 2.9 2 4.6z"/><path class="st0" d="M592 0c9.7 12.3.6 22.8-3.9 33.3-1.6 3.8-7.3 5.9-11.2 8.7l.1-.1c-4.2-1-9-3.6-12.5-2.4-3.4 1.2-5.9 6-7.8 9.8-4.8 9.3-6.8 22.3-14.3 27.6-8 5.6-22.1 1.5-31.6 6-16.4 7.7-40.1 1-48.9 24.1-.2.7-3.9.6-5.7 0-9.3-3.1-18.3-7.2-27.8-9.4-4.3-1-13.6 1.7-13.5 2.1 1.2 12.3 3.2 24.5 5.1 36.8 10.9-3.9 21.9-7.7 32.8-11.7 1.6-.6 2.8-2.4 4.3-3.5.1-.1 1.9 1.5 1.8 1.8-.7 1.6-2.8 3.2-2.7 4.6.7 7.2 1.9 14.3 3 21.4.2 1 .7 2 1.1 2.9-1.5-.4-3.8-.4-4.3-1.4-7.5-14.1-17.9-11.9-29.2-5.7-.4.2-.7.5-1 .7.6.4 1.3.8 1.8 1.3 2.4 2.3 4.7 4.6 7 7-.8.4-1.8 1.3-2.5 1.1-4.8-1.1-10.2-1.4-14-4.1-2.5-1.8-2.5-7.1-3.6-10.8-.5.2-1.4.4-1.3.5 1.3 4.3 1.7 9.3 4.1 12.8 5.9 8.5 12.7 16.4 19.1 24.6.4.5.4 1.8.1 2.1-2.5 2.4-5.1 4.8-7.8 7-.7.6-2.5.2-2.8.7-2.1 3.4-3.9 6.9-5.8 10.5 1.4-.6 2.7-1.4 4.2-1.8 1.1-.3 2.4-.2 3.6-.2-.4 1.9-.5 3.9-1.4 5.6-2.4 4.4-4.9 8.9-7.8 12.9-1.2 1.6-4.7 3.8-5.5 3.2-8.5-5.5-18.4-10.2-24.7-17.7-14.7-17.4-27.4-36.5-41.5-54.5-3.6-4.6-9-7.7-13.7-11.4-.4-.3-1.8 0-2.3.5-6.8 7-12.4 16.3-20.6 20.7-19 10.3-21.5 42.2-51.6 38.2-5.7-.8-12 7.3-18.6 8.6-5.5 1-12.4-4.2-17.5-2.6-9.3 2.8-18.2 7.8-26.5 13.1-16.1 10.4-32.1 21-47.2 32.7-10.4 8-19.2 18-28.7 27.2-.9.8-2 2.8-1.7 3.2 3.9 5 7.5 10.7 12.4 14.5 2.2 1.7 7.3-.6 11.1-.2 1.5.1 2.5 3.3 4.1 3.6 2.5.6 5.3 0 8-.1-1.7-.6-3.5-1.1-5.2-1.8-.2-.1.3-2.4.5-2.4 2.4-.2 6.1-1.2 7.1 0 4.3 5 7 11.8 11.9 15.8 5.7 4.7 13.6 6.6 19.9 10.8 6.6 4.4 12.5 10.1 18.5 15.4 2 1.7 3.5 4 5.3 6 1-1.3 1.7-3.3 3-3.9 2.5-1.1 5.4-1.5 8.2-1.8.2 0 .2 3.6 1.2 4.2 4 2.4 8.3 4.2 12.5 6.3 0-1 .4-2.3-.1-3.1-.5-.9-2.6-1.5-2.5-2 .3-2.9.2-6.4 1.9-8.3 2.9-3.2 7-5.4 10.5-8-1.3 3.8-2.8 7.5-3.8 11.4-.4 1.7-.5 4.5.4 5.2 2.3 1.8 5.3 2.7 8.1 3.9 1.8.8 3.5 1.6 5.3 2.4l-.6 6.6c2.1-.3 4.1-.5 6.2-.8-1.9-1.9-3.8-3.8-5.8-5.7 5.7 1.5 11.3 3.8 17 4.2 4.2.3 8.9-1.5 12.7-3.5 2.8-1.5 4.5-4.9 6.7-7.5 3.2 5.2 6.4 10.4 9.5 15.7.8 1.3 1 2.9 1.5 4.3 1.2-.6 2.4-1.3 3.7-1.6.7-.2 2.1-.1 2.3.3 1.5 2.8 3.7 5.6 3.8 8.6.1 2.7-2.1 5.5-3.2 8.2 1.9-2.2 4.2-4.2 5.5-6.7 1.6-2.9 2.5-6.3 3.7-9.5 0 3.3-1.3 8.2.3 9.5 5.2 4.2 11.5 9.8 17.4 9.8 8.8 0 17.5-4.4 26.3-6.5 1.9-.4 4.9.6 6.3 2 2.1 2.2 3.2 5.3 4.7 8l7.8-6c2.6-2 5.1-5.6 7.9-5.8 2.8-.2 6.1 2.5 8.7 4.5 3.4 2.6 7.9 5.2 9 8.8 1 3.2-4 8.7-2.6 11.2 2.3 4.1 7.4 6.8 11.6 9.7.8.5 2.8-.8 4.2-1.2.1 2 .2 3.9.3 5.9l.3 7.2c4.6-1.1 9.1-2.2 13.7-3.3-1-1.6-2-3.3-3-4.9-.2-.4-.2-.9-.3-1.3l10.7.3c-.2.8-.1 2-.6 2.5-.9.8-2.1 1.2-3.2 1.7 2.9 3.6 5.9 7.2 8.8 10.8-.3-2.3-.8-4.6-.7-6.9 0-.7 1.5-1.5 2.3-2.2.5 1.7 1 3.4 1.4 5.1 1.8-1.6 3.6-3.1 5.4-4.7-.1 3.1-.3 6.3-.4 9.4 1.9-2.2 3.4-5 5.7-6.5 4.4-2.7 9.4-4.6 14.1-6.8.7 5.2.1 11.1 2.3 15.6 3.5 7.1 8.9 13.3 13.5 19.9.7-1.1 1.4-2.2 2-3.3.5-.9.8-1.9 1.2-2.8.7.7 1.5 1.2 2 2 1.4 2.2 2.6 4.4 3.9 6.7-.4-2.8-.6-5.6-1.3-8.3-.5-2.1-1.7-4-2.4-6.1-.1-.1.9-.7 1.4-1 1.5 2.3 2.7 4.9 4.5 6.7 1.9 2 4.6 3.3 6.9 4.8-.4-1.7-1.5-4.4-.9-4.8 2.7-2 5.9-4.5 9-4.6 1.5-.1 3.3 4.6 4.7 7.3 4.3 8.6 8.5 17.3 12.5 26 .7 1.4.3 3.4.3 5.1-1.5-.8-3.6-1.1-4.4-2.4-3.5-5.3-6.4-11-9.9-16.3-.9-1.3-4.4-2.7-4.6-2.5-1.9 2.5-4.8 5.4-4.7 8.1.1 2.6 3.6 4.9 5 7.6 1.6 3.2 2.6 6.8 3.8 10.2-2.5-1.9-4.8-4.7-7.7-5.5-2.2-.6-5.8.5-7.5 2.2-3.4 3.5-5.9 7.9-8.7 12-.2.3.3 1 .5 1.5-.8 0-1.8.2-2.3-.2-4.1-3.4-8.2-6.9-12.3-10.2-.5-.4-2.1-.3-2.2-.1-.3 1.4-.7 2.8-.4 4.2.4 2.5 1.3 4.9 2 7.3-.4-.1-1.1 0-1.2-.3-3.9-7.3-7.8-14.7-11.7-22.1-.6-1.1-1.4-2.1-2.1-3.1-.6.5-1.5.9-1.9 1.5-1.8 3-3.6 6.1-5 9.3-1.1 2.5-1.6 5.3-2.4 8-3.3-2-6.5-4.4-10-5.8-1.4-.5-4.2.8-5.3 2.2-.9 1.2-.1 3.6-.4 5.4-.4 2-1.4 5.8-1.8 5.7-4.4-.3-8.8-1.1-13.1-2.4-.4-.1.7-4.4.6-6.7-.1-2.4-1-4.8-1.5-7.2-.8 1.2-1.4 3-2.6 3.5-7.2 3.1-14.4 6.1-21.8 8.5-1.3.4-3.7-2.2-5.5-3.4.8 3.1 2.4 6.2 2.2 9.1-.2 3.7-1.7 7.4-3 11-1.5 4-4 7.7-5 11.8-1.4 6.4-1.4 13.2-3.3 19.4-.3 1.1-8.8 1.6-11.3-.5-6.1-4.9-10.9-11.5-16.2-17.4 2.3-1.8 4.3-4 6.9-5.2 6.6-3.1 13.3-5.9 20-8.7-1.8-1-3.5-2.5-5.5-3-3.9-1.1-9.4-3.9-11.6-2.3-6.7 5-12.1 11.7-18.1 17.7 2.8 2.4 8.2 5.5 7.8 7-1.9 6.4-5.5 12.3-8.5 18.3-.5.9-1.7 2.4-1.7 2.5 1.8 1.5 3.7 3 5.7 4.2 1.3.8 2.9 1.2 4.4 1.7-1.5.8-3.4 1.3-4.3 2.5-3.5 5-6.7 10.3-10 15.5 5.2-3.9-7.3 18.8 5.5 3.7.1-.1 1.8 1 2.5 1.8 2 2.2 3.9 4.5 5.8 6.8-3.4.8-6.7 1.9-10.1 2.4-1.5.2-3.2-.7-4.8-1.1-.1 1.3-.2 2.7-.3 4 1.4-.1 2.8-.3 4.3-.3.6 0 1.6.6 1.7 1.1 2.1 7.8 4.9 15.5 5.9 23.4 2.6 21 7.3 42.4 5.5 63.1-1.5 16.2-12.8 31.2-17.2 47.4-2 7.4.8 16.8 3.6 24.5 1.8 4.8 7.8 8 11.9 11.9.5.5.6 1.4.8 2.1-2.7.7-5.5 2.1-8.1 1.8-2.3-.3-5.9-2-6.4-3.8-3.6-11.5-8.6-23.2-8.8-34.9-.1-7.3 8-14.5 11.1-22.3 3.2-8 5.8-16.5 6.9-25 1.1-9 .7-18.4-.2-27.4-.3-3.4-5.3-6.2-5.8-9.7-1-6.7-.1-13.6-.7-20.4-.1-1.4-3.8-2.4-5.7-3.9-1.6-1.3-4.2-4.1-4.1-4.2 8.5-9.8 4.3-14.8-6.1-18.6-4.9-1.8-4.4-4.1.8-8.5 1-.8 1.7-1.8 2.6-2.8-1-.6-2.1-1-3-1.7-1.8-1.6-3.4-3.3-5.1-5-.4-.4-1.5-1-1.5-.9-3.1 3.8-7.4 7.4-8.7 11.8-.9 3 2.6 7.1 3.8 10.9 1.3 4 1.3 8.6 3.3 12.1 2.6 4.5 6.6 8.2 10 12.2.4.5 1.5 1.2 1.4 1.4-.7 1.6-1.6 3.1-2.5 4.6-1.1 1.9-2.7 3.6-3.2 5.6-1 4.2-1.4 8.6-2.1 13-2.6 16.7-4.1 33.7-8.5 49.9-1.5 5.6-11.9 8.2-15.4 14-3.8 6.3-2 16.6-6.5 21.6-16 17.7 3.1 33.2 1.4 49.6-.5 5.2-1.2 10.3-1.9 15.5-.2-2.3 0-4.7-.5-7-2.5-10.5-6.3-20.8-7.6-31.4-1.1-9.2 1.1-18.8.5-28.2-.5-7.3-3.2-14.4-4.5-21.7-.1-.4 3.9-1.5 5.9-2.3 1.8-.7 3.9-1.2 5.2-2.5 9-9.1 18.9-17.6 26.3-27.9 6.8-9.4 9.8-20.3-7.1-24.4-1.4-.3-1.6-4.4-2.9-6.3-1.6-2.2-3.7-4.1-5.8-5.9-1.2-1-2.9-1.3-4.3-1.9 1.6-2.1 3.2-4.3 4.8-6.4.5 1.1.8 2.4 1.4 3.4.2.3 1.8.3 1.8.2 1.8-5.2 3.6-10.4 5.2-15.7.1-.3-1.6-1.5-2.6-1.7-.5-.1-1.4 1-1.8 1.8-.9 1.6-1.6 3.3-2.4 4.9-.9-.4-2.5-.9-2.4-1.3.1-2.4 1.1-4.8.8-7.1-.5-4.4-1.7-8.6-2.5-13-.2-.9.4-1.9.4-2.8-.4-6.2-1-12.5-1.5-18.7-3.8 1.4-7.7 2.5-11.3 4.3-2.3 1.2-4.6 3.2-5.8 5.5-.8 1.5.4 4.1.6 6.2 1-.6 1.9-1.5 3-1.8 1.2-.3 3.6-.4 3.6-.2 1.5 5.8 2.7 11.7 4 17.6-1.2-.7-2.8-2.3-3.7-2-3.9 1.3-8.5 2.3-11.1 5.1-2.6 2.8-2.1 8.3-4.5 11.5-4.6 6-11.9 10.5-15.1 17-6.2 12.6-9.7 26.5-15.8 39.2-2 4.3-9.4 5.7-12.5 9.9-4.2 5.7-6.7 12.8-9.8 19.3-6.5 13.7-13.9 27.1-19.2 41.2-4.1 11-3.9 23.7-8.6 34.4-4 9.2-13.6 15.9-17.7 25.1-3.2 7.1-1 16.4-2.4 24.5-2.3 13.1 6.3 13.5 15.1 14.3.2 0 .6 1.1.6 1.1-1 .6-2 1.1-2.9 1.6-1.6 1-3.2 2.1-4.8 3.1 1.7.2 3.4.7 5.2.7l44.4-1.5c.6 0 1.3.7 1.9 1.1-6.6 3.8-12.9 9.1-20 11.1-6.9 1.9-15.2-.9-22.2.9-8.8 2.2-17.5 6.1-25.2 11-3.3 2.1-4.7 8.4-5.3 12.9-.3 2.3 3.6 5 5.5 7.6 1.2 1.6 2.2 3.3 3.2 4.9-1-.3-2.1-1-3.1-.9-1.1.1-2.2.9-3.3 1.5-.1.1.1 1.1.4 1.3 4 2.8 8.1 5.4 12 8.3.5.3.5 2.3.4 2.3-1.3.4-2.7.9-4 .7-1.5-.3-2.9-1.2-4.4-1.8.3 2 1.6 4.7.8 5.9-4.3 6.1-8.5 12.7-14.2 17.3-3 2.4-9 1-13.6 1.3.8 3.8 1.5 7.5 2.3 11.3-2.4.4-4.8.9-7.2 1.3 3.1 2.1 6.1 4.1 9.2 6.2-.3-1.3-.5-2.6-.8-3.8-.3-1.3-.8-2.5-1.2-3.8 7.5 2.3 14.9 4.7 22.4 6.8 4 1.2 8.3 1.6 12.3 2.9 4.4 1.5 11.4 2.9 12.3 5.8 1.1 3.8-3.9 9-4 13.7-.1 5.1 1.8 10.5 3.9 15.4 1.3 3.2 4.5 5.6 6.8 8.4-3-1-6-2-9.1-3-.7-.2-1.8-.8-2.1-.6-3.2 3.3-7.2 6.2-9.2 10.2-3.1 6.3-4.9 13.2-7.3 19.9l-.1-.1c-11 17.9-6.2 28.5 14.4 31.8.7.1 1.4.9 2.1 1.3-1.6 1.1-3.2 2.1-4.7 3.3-2.1 1.5-5.9 3.1-6 4.8-.2 5.3 1 10.7 1.7 16.1 3.6-1.9 7-4.7 10.8-5.4 2.8-.5 6.2 1.8 9.3 2.8-2.4 3.1-5.2 5.9-7 9.3-1.6 3.2-2.1 6.9-3.1 10.4 1.9.3 3.7.7 5.6.8.5 0 1.4-.8 1.5-1.4.6-2.5 1.1-5 1.6-7.5 1.1.3 3.2.6 3.2.8-.3 3.4-.6 6.8-1.6 10-.2.7-3.1.6-4.7 1-.8.2-2.2.4-2.3.9-.8 3.6-2.7 9.9-1.8 10.4 12.8 6.5 26.1 12.3 39.3 18.2 2 .9 3.9 2.2 5.9 3 7.6 3 15.3 6 22.9 8.9 4.5 1.7 9.6 2.7 13.4 5.4 2.9 2 4.1 6.4 6.3 9.5 1.6 2.2 3.2 5.3 5.5 6 13.5 4.1 27 8.2 40.7 11.3 10.1 2.3 21 1.9 30.8 4.9 11.8 3.7 22.9 9.6 34.1 14.8 1.3.6 1.8 2.8 2.6 4.3h-20c-8.4-19-25.9-9.8-39.5-12.6-.3 6.4-26.9-7.1-9.5 12.6-106.6 0-213.3 0-319.9-.2-1.4 0-3.9-2.4-3.9-3.8C0 798.7 0 401.3.1 3.9.1 2.6 2.7.2 4.1.2 167 0 330 0 493 0c-2.2 4-5.6 7.8-6.3 12.1-.8 4.9.6 10.2 1.4 15.2.8 5.5 1.2 11.3 3.3 16.2 1.8 4.2 6.1 7.2 8.7 11.2 1.9 2.9 2.8 6.5 4.5 9.7.1.2 2.6-.9 4-1.3l-.2.1c7.4-.8 14.8-1.5 22.1-2.4.4-.1.5-2.2.8-3.4l3.9-14.1c2.5 2.3 5 4.6 7.7 6.8.7.5 1.8.5 2.7.7-.1-.7-.5-1.4-.4-2.1 1-4.2 2.2-8.4 3.3-12.7 1.4 1.6 3.3 4.9 4.2 4.7 8.3-2.3 16.5-5.1 24.6-8.1 3.6-1.3 6.9-3.4 10.3-5.2-2.7-1.4-5.7-2.4-8-4.3-1.4-1.1-2.7-3.7-2.4-5.4.9-5.9 2.5-11.8 3.8-17.6 3.6-.1 7.3-.1 11-.1zM182.9 322c-5.4-2.3-10.9-4.5-16.2-7.1-2.2-1.1-4-3.3-5.9-5-2.7 5-9 12.9-7.6 14.6 10.4 13.1 20.8 10 29.6-2.7.5 3.2.8 6.4 1.5 9.6.6 2.8.8 6.3 2.6 7.9 1.4 1.2 5-.2 7.6-.4-1.9-4.8-3.5-9.7-5.9-14.2-.9-1.4-3.8-1.8-5.7-2.7zm-9.1 246.2c-4.5 2.7-9.3 5-13.3 8.3-1.8 1.5-2 4.8-2.9 7.4-.2-3.1.7-7-.9-9.2-3.8-5.3-8.5-10.1-13.3-14.6-.7-.7-4.3.7-5.6 2-1.8 1.9-2.7 4.6-4.1 7-.2.3-.8.4-1.3.5.5.4 1 .8 1.4 1.3 3.8 6.2 7.9 12.2 10.9 18.7.4.8-4.5 4.4-7.4 6.1-.7.4-3.6-1.4-4.2-2.7-.7-1.4.9-4.1.2-5.1-1.3-1.7-3.7-2.6-5.8-3.5-.9-.4-3-.6-3.1-.3-5.7 13.1-11.2 26.4-17 39.5-.9 2-2.6 4.1-4.4 5.3-2.9 1.9-6.3 3.1-9.5 4.6 2.3.5 4.8.7 7 1.5 1.1.4 2.3 1.9 2.6 3.1 1.6 5.9 2.6 11.9 4.4 17.6.4 1.3 4.4 1.8 4.5 2.7.1 2.6-.9 5.3-1.9 7.7-.4.9-2.2 1.1-3.3 1.7 1.7 2.9 3.3 5.8 5 8.7.8-1.6 1.5-3.3 2.4-4.9.7-1.3 1.7-3.8 2.3-3.7 11.8 1.5 23.5 3.3 35.3 4.9 1 .1 2.3-.4 3.1-1.1 12-10.2 24.8-19.6 35.6-30.9 6.8-7.1 11.1-16.9 15.4-26 .8-1.6-3.2-7.1-6.1-8.4-7.9-3.6-16.3-6.1-24.6-8.8-3.4-1.1-7.1-1.5-10.5-2.7-2.2-.7-4.3-1.9-6.1-3.4-.3-.3 1.4-3.1 2.4-4.6 4.3-6.3 8.6-12.6 12.9-18.8 1.1.4 3.2.9 3.2 1.1-.9 4.7-2.1 9.4-3.2 14-.2.9-.8 2.6-.5 2.7 2.2 1.3 4.6 2.4 7 3.4.3.1 1.4-1.2 1.6-1.9 2.3-8.7 4.5-17.5 6.7-26.2.2-.9.1-1.9.2-2.9-.4 0-.8-.1-1.1 0-4.8 3.2-9.4 6.5-14 9.9zm-41.6-371.3c.5 1 .9 2.1 1.4 3.1 6.3-3.7 12.4-8.1 19.1-11 9.5-4.2 22.1-4.7 28.8-11.3 12.5-12.4 21.6-28.1 32.2-42.4 1.8-2.4 4.2-4.4 5.9-6.9.3-.4-1.7-3.1-3.2-3.8-3-1.4-6.3-1.9-9.3-3.3-2.6-1.2-4.9-4.1-7.5-4.3-3.9-.3-9.4 3-11.6 1.3-11.1-8.7-30.9-6.4-35.7 4.8-.6 1.5-3.8 1.9-5.8 2.8-1.8.8-5.1 1.5-5.2 2.6-.8 7.7-.5 15.4-1.5 23.1-.3 2.7-3.2 5-4.9 7.5-1.8-1.5-3.5-3.1-5.4-4.6-1.4-1.1-3.1-3.1-4.3-2.9-8.9 1.7-17.8 4.1-26.7 5.8-4.4.8-12.4-.9-13.1.8-4.3 10.6-7.2 21.8-10.1 32.9-.5 2 1.1 4.6 1.7 7 2.4-1.9 4.9-3.8 7.3-5.8 3.4-2.7 6.6-5.7 10.1-8.1.3-.2 3.1 2.3 4 3.9 2.8 4.8 5.3 13.9 8 14 8.7 0 17.3-3.2 25.8-5.2zM388.3 138c.3.5.7.9 1 1.4 1-.7 3-1.8 3-1.9-.8-1.8-1.6-4.3-3.1-4.9-4.8-1.9-10.3-5.1-14.7-4-6.9 1.7-18.9 7.8-18.4 9.5 2.5 10.3 7.4 20.3 12.6 29.6 4.8 8.6 10.1 17.6 17.3 24 5.1 4.5 13.7 4.9 20.8 7.1-1.6-2.1-3.6-4.1-4.7-6.4-.7-1.7-.1-3.9-.1-5.9 1.6.5 3.2.9 4.7 1.4 1.3.5 2.5 1.2 3.8 1.8 1.1-2.5 3.7-5.8 2.9-7.3-2.7-5.1-7.5-9.1-9.6-14.4-1.3-3.3 2.7-10.2 1.1-11.5-5.2-4.2-12-6.3-17.9-9.8-1.4-.8-1.8-3.9-1.8-5.9-.1-.8 2-1.8 3.1-2.8zm-118.7-25c-9.6 12.9-20.6 27.5-31.5 42.2 2.7 1.3 5.3 2.6 8 4-3.3 1.1-6.6 2.2-9.7 3.7-.3.1.6 4.8 1.8 5.4 3 1.5 8 3.6 9.6 2.3 18.8-15.5 37-31.6 55.4-47.7.1-.1-.5-1.6-1-1.7-9.2-2.4-18.4-4.6-32.6-8.2zM207 575c3.3-.6 5-.9 6.7-1.1-1.3-1.3-3.1-2.4-3.6-3.9-1.5-3.9-2.5-7.9-3.2-12-.1-.3 4.5-2.4 5.4-1.7 6.4 5.2 10.5 5.3 9.7-4.2-.5-5.8-1-13.9-4.6-16.4-4.2-3-11.9-1-18.1-1.1-.3 0-.7.7-.9 1.1-1.9 3.8-4.2 7.5-5.7 11.5-1.1 3.1-1.9 6.7-1.5 9.9.4 3.9 2.3 7.6 3.1 11.4.2 1-1.3 2.3-2 3.5 5.4 1.1 10.8 2.2 14.7 3zm-43 167.3c-1.6-1.7-3.3-3.4-4.9-5.1-.6.5-1.6 1.7-1.8 1.5-5.8-3.6-11.4-7.8-17.5-11-3.3-1.7-7.5-2.3-11.3-2.1-1 .1-1.7 5-2.6 7.8 3.1.4 6.3.6 9.3 1.4 2.7.7 5.2 2 7.8 3.1-.3.5-.4 1.1-.9 1.5-2.7 2.1-5.4 4.1-8.1 6.2 4.6 4 10.9 12.2 13.6 11.1 6.5-2.5 11.1-9.4 16.4-14.4zm310.2-325.1c-.1-.3-1.9-5.7-3.6-11-3.8 5.5-7.6 11-11.3 16.5 4.3 2.5 8.7 5 13 7.5.7.4 1.1 1.1 1.7 1.6-.9.5-1.7 1.3-2.6 1.5-4.2.9-8.4 1.7-12.7 2.4-.7.1-1.6-.6-2.4-.7-1.8-.3-3.6-.4-5.4-.7.1 2.1-.2 4.4.4 6.4.2.7 2.2 1.2 3.5 1.3 6.8.5 13.5.8 20.3 1.1.2 0 .7-.8.6-1.2-.4-6.5-.8-13-1.5-24.7zm-191.4-52.1c.7-1.7 1.4-3.5 2.1-5.2-6.5-4-13-8-19.5-11.9-.1 1.8-.7 3.7-.2 5.2 2.3 7.2 4.7 14.4 7.6 21.3.2.6 4.2-.3 6.4-.5-1.1-1.5-2.4-2.8-3.2-4.5-.6-1.3-.5-3-.7-4.5 1.3-.1 2.6-.2 3.9-.2 1.2 0 2.4.2 3.6.3zM32.1 167.5v-7.6c-6.9.4-17.8-1.6-19.8 1.8-3.4 5.7-1.5 14.7-1.2 22.4.1 1.6 3.3 4.6 4.3 4.3 2.5-.7 4.5-3 6.6-4.6-1.2-1.5-2.9-2.9-3.4-4.6-.9-2.9-1.7-6.2-1.2-9.1.2-1 4.2-1.7 6.5-2 3.1-.5 6.4-.5 8.2-.6zm117.7 49c-.3-.4-.6-.7-.8-1.1 4.2-2.2 9.1-3.8 12.6-6.8 4.6-4 8.2-9.2 12.2-13.9-1.9-.1-4.2-.9-5.5 0-9.4 6.1-18.8 12.4-27.9 19-1.8 1.3-2.6 4-3.9 6.1 2.4.3 4.9 1.1 7.1.6 2.2-.6 4.1-2.5 6.2-3.9zM113.5 120c-2.2 8.8-3.7 14.6-5 20.4-.1.3 1.5 1.4 1.6 1.4 7.6-7.5 15.1-15.1 22.6-22.7-6.3.3-12.7.6-19.2.9zM343 398.9c-10.1-2.9-15.1-5.2-20.1-5.3-1.8 0-5.7 7.4-5.2 7.9 3.4 3.3 7.5 6.9 11.9 7.9 2.2.5 5.7-4.3 13.4-10.5zM71.4 269.5c1.8 1.2 5.1 5 8 4.8 3-.2 5.7-4.6 8.5-7.1-2.8-3-5.6-5.9-8.4-8.9-2.4 3.3-4.8 6.6-8.1 11.2zm-27.1-64.6c5-2.5 8-3.9 10.9-5.3-2.9-3.7-5.9-7.4-8.8-11.1-2.4 2.6-6 5-6.9 8.1-.6 1.9 2.8 5 4.8 8.3zM98 144c3.5-3.7 6.2-6.5 8.8-9.3l-16.5-10.5c1.3 4.9 2.4 9.8 3.9 14.7.4 1.4 1.7 2.4 3.8 5.1zm129.7-36.7l-17.4 8.7c4.4 2.5 8.7 5 13.1 7.6 1.8-4.3 3.7-8.6 5.4-13 .1-.5-.4-1.2-1.1-3.3zm-53.3 414.4c-2.3 4.2-5 6.9-4.9 9.6.1 2.9 2.8 5.6 4.4 8.4 3.6-3.2 7.3-6.5 10.9-9.7-2.9-2.3-5.9-4.7-10.4-8.3zm103 69.8c3.2-4.8 6.2-9.4 9.3-14.1-2.7-1.3-7.6-4.1-7.9-3.8-3.1 4.6-5.5 9.7-8 14.7 1.5.7 2.9 1.4 6.6 3.2zm-87.6-.4c-.5-.2-.9-.3-1.4-.5.6-1.5 1.3-4.4 1.7-4.4 4.9.7 9.8 1.7 14.6 2.9.8.2 1.3 1.4 2 2.1.1-2.5.6-5 .2-7.5-.1-.9-2.3-2.4-3.3-2.2-4.2.6-9.2.6-12.2 2.9s-4.1 7.1-5.8 11c-.2.4 1.3 1.6 2.1 2.4.6-2.2 1.3-4.4 2.1-6.7zm-82.4 93.3c-5.3-2.4-9.7-4.8-14.3-6.1-1.5-.4-3.9 1.9-5.9 3 4.9 2.5 9.6 5.4 14.7 7.3 1 .4 3.4-2.5 5.5-4.2zm159.5-119c-1.7-3.1-2.4-4.4-3.1-5.6-3.8 4.3-7.8 8.5-11 13.2-.5.7 2.7 3.9 4.2 5.9 3.4-4.6 6.8-9.3 9.9-13.5zM217.5 694c1.5-1.8 2.8-3.3 4.1-4.8-2.6-1.7-5.2-3.3-7.8-5-.9 2.2-2.4 4.5-2.4 6.7 0 .9 3.3 1.8 6.1 3.1zM67.6 182.9c-.7-.2-1.8-.8-2-.5-1.9 2.3-4.4 4.5-5.2 7.2-.3 1.1 3.1 3.3 4.8 5 .8-3.8 1.6-7.5 2.4-11.7zm338.2-76.2c-2-2.7-3.5-5.2-5.6-7.1-.3-.3-3.1 2.1-4.7 3.2 2.3 2.9 4.7 5.8 7 8.6.9-1.2 1.8-2.5 3.3-4.7zM54 685.7c-2 3.4-3.9 5.3-3.6 6.6.3 1.4 2.7 3.2 4.2 3.3 1.3.1 4.1-2.3 3.9-3.2-.3-1.8-2.1-3.4-4.5-6.7zm-28.4 36.2c0-.4.1-.8.1-1.2.6-.1 1.2-.2 1.9-.4-3.1-1.7-6.3-3.3-9.4-5-.6 2.4-1.2 4.7-1.8 7.1 3.1-.1 6.1-.3 9.2-.5zm324.6-611.7c1.9-5.3 3.5-9.7 5-14.2.1-.3-.9-1-1.4-1.5-2.1 4.5-4.3 8.9-6.4 13.4 0 .1 1 .8 2.8 2.3zM210.1 683.1c-.5-.7-1.3-1.7-2.1-2.8-1.4 4.2-2.8 8.3-4 12.6-.2.8.5 1.9.9 2.8 1.6-4 3.3-8 5.2-12.6zm-105.8-473c-2.7-5.5-3.6-7.3-4.5-9.2-1.6 2.2-3.6 4.2-4.5 6.7-.3.8 1.8 3.8 3 3.8 2.1.3 4.5-.9 6-1.3zm122.3 471c2-5.7 3.3-9.2 4.3-12.8.1-.5-1.1-1.4-1.7-2-1.6 3.2-3.3 6.4-4.7 9.7-.3.6.7 1.8 2.1 5.1zm40.1-61c-2.2-2.4-3.9-4.2-5.5-6.1-.7 2-2.1 4.2-1.7 6.1.3 1.2 3.2 1.8 5 2.5.1 0 .8-1 2.2-2.5zm151.1-150.9c-1.6-5.8-2.4-8.3-3.1-10.8-.9 1.8-2.4 3.6-2.4 5.4 0 2 .8 4.5 2.2 5.8.9.8 3.5-.5 3.3-.4zM176.7 828.7c-1.2-1-1.9-1.7-2.7-2.4-1.8 3-3.6 6-5.2 9-.1.2 1.1 1.1 1.7 1.7 2-2.6 3.9-5.3 6.2-8.3zM42.8 882.8c1.5-1.1 2.8-2.1 4.2-3.1-1.2-1.2-3-3.5-3.6-3.3-1.7.7-2.9 2.6-4.3 3.9 1.1.7 2.1 1.4 3.7 2.5zm180.3-736.1c-2.4-1.5-3.8-3-5-2.9-1.4.2-2.6 1.8-3.9 2.9 1.2 1.1 2.4 2.8 3.8 3 1.2.1 2.6-1.4 5.1-3zm199.5 303.2c-.6-.3-2-.9-3.4-1.5-.9 2.5-2 4.9-2.5 7.5-.2.9 1.2 2.1 1.9 3.2 1.1-2.5 2.2-4.9 4-9.2zM27.8 183.6c-.4 1.3-1.1 2.4-.8 3.1.7 2.1 1.7 4.1 2.6 6.1 1.4-1.8 2.8-3.5 4.3-5.3-1.9-1.1-3.7-2.3-6.1-3.9zm364.3 306.1c-2.6-.8-4.6-1.8-6.6-1.8-1 0-2.1 1.7-3.1 2.7 1.8.8 3.6 2.2 5.4 2.2 1.3 0 2.6-1.8 4.3-3.1zm-122.5 80.9c-1.5 2.7-2.9 5-4 7.4-.2.6.7 1.6 1.2 2.5 1.6-2.1 3.4-4.1 4.7-6.5.4-.6-1.1-2.1-1.9-3.4zM28.7 428.4c-2.1-1.7-3.6-3.1-5.3-4.2-.2-.1-1.4 1.3-2.2 2 1.8 1.5 3.6 2.9 5.5 4.3 0 .1.7-.7 2-2.1zm154.5 679.8c1.7-1.5 2.7-2.4 3.7-3.2-1.1-1.2-2.2-2.5-3.3-3.7-1.1 1-2.6 1.9-3.2 3.2-.2.5 1.5 1.9 2.8 3.7zm-28.4-405.9c-.8 1-1.6 1.6-1.5 1.9.6 2.2 1.5 4.4 2.2 6.7 1.1-1.1 3.2-2.6 3-3.3-.6-1.8-2.2-3.3-3.7-5.3zm86-508.6c-1.3-1.7-2-3.3-3.3-4.1-.4-.3-2.1 1.2-3.2 1.9 1.3 1.8 2.5 3.6 3.8 5.4.7-.9 1.4-1.8 2.7-3.2zm-180 479.9c-1.9-1.8-3.2-3-4.5-4.1-.8.9-2.3 2-2.1 2.6.4 1.3 1.5 2.6 2.7 3.2.7.2 2.1-.9 3.9-1.7zm336.1-234.7c-.6 2.8-1.1 4.9-1.4 6.9-.1.6.4 1.2.6 1.9 1.3-1.5 2.8-2.9 3.6-4.7.2-.7-1.4-2.2-2.8-4.1zM1800 59c-4.2 1.2-8.4 3.5-12.5 3.3-2.2-.1-4.1-4.6-6.2-7.1l-6.9-8.1c-1.4 3.4-2.6 7-4.3 10.2-1.1 2.1-2.7 5-4.6 5.5-6.1 1.7-12.5 2.2-18.6 3.6-.8.2-1.9 3.4-1.4 4.1 3.6 4.4 7.1 8.9 11.6 12.2 1.2.9 7-3.5 7.8-2.6 3.1 3.2 5 7.5 7.3 11.4-5.6.8-11.6 3.2-16.8 2.1-6.5-1.4-16.3-4.5-17.6-8.8-2.2-7.9-7.6-21.4 9.9-22.2 1.8-.1 3.6-.8 5.4-1.3-1.3-1.8-2.6-3.5-3.7-5.3-.9-1.4-2.5-4.1-2.1-4.4 2.4-2.2 5.9-3.4 7.7-5.9 3.5-4.9 6.2-10.3 8.8-15.7.2-.3-3.2-2.3-4.9-3.5l-1.5 2.1c.9.6 2.5 1.1 2.7 1.9.5 2.3 1.4 6 .3 6.8-2.6 1.9-6.4 3.9-9.2 3.3-3.1-.6-5.6-4-8.3-6.2 1.8-2.1 3.8-4.1 5.5-6.3 1.6-1.9 3-4 4.4-6-6.6-4.7-13.2-9.3-19.9-14-1.3 2.4-2.2 5.1-3.9 7.1-6.1 7.4-12.4 14.5-18.7 21.8-1.9-2.3-5.5-4.5-5.5-6.8.1-4.7 1.5-9.5 3.4-13.9 2.4-5.7 5.8-11 8.7-16.5 26.6 0 53.1 0 79.7.1 1.1 0 3.1 2 3.1 3.1.3 18.8.3 37.4.3 56zM818 0c-2.8 2.7-5.4 5.7-8.5 8-2.4 1.8-5.4 2.9-8.1 4.3 2.1 1.9 4.3 3.7 6.4 5.6.4.4.8.8 1.3 1.2-.5.4-1 .6-1.4 1.1-1 1.1-1.9 2.3-2.8 3.4 1.3.4 2.8.6 4 1.2 1 .6 2.4 2.1 2.2 2.6-1.3 3-2.5 6.3-4.8 8.3-.8.7-4.7-1.7-7-3-.8-.4-1.2-1.7-1.7-2.6.3 1.2 1 2.5.7 3.5-2.6 7.2-5.3 14.4-8.2 21.5-.1.2-3.8-.5-3.8-.7.1-3.7.1-7.5 1-11.1 1.2-4.9 3.2-9.7 4.8-14.5-1.5-.5-3-1.3-4.4-1.2-1.2.1-2.3 1.2-3.5 1.9.3-2.8.5-5.7.9-8.5.2-1.4.6-2.7.9-4.1-1.7-.2-3.8.1-5.2-.7-4.4-2.7-8.5-5.9-12.7-9-.8-.6-1.2-1.6-1.7-2.5-.4.9-.7 2.4-1.1 2.5-2.6.2-5.1.1-7.7.1.9-2.4 1.8-4.9 2.7-7.3H818z"/><path class="st0" d="M497.1 1033.4c-9.8-5.5-19-9.8-26.8-15.8-1.3-1 2.7-10.1 5.3-14.8 12.1-21.5-3.4-31.3-16.4-43.7-6.3-6-8.4-16.3-12.3-24.8-.4-.8.4-2.1.6-3.2.6.8 1.1 1.6 1.7 2.3 10.2 12.5 20.4 25 30.8 37.3.8 1 3.2.8 4.8 1 .1 0 .7-1.2.6-1.6-.7-1.7-1.3-3.5-2.4-5.1-2.8-4.2-5.7-8.3-8.9-12.3-4.8-6-9.9-11.7-14.6-17.8-4.5-5.9-8.7-12-13-18.2-.2-.3.5-1.3.8-1.9.8.6 1.7 1.2 2.4 1.9 10.4 11.6 22.6 22.2 30.7 35.2 9.3 15.2 29.3 28.2 16.4 51.1-.7 1.3 1.7 4.7 3.3 6.7 2.6 3.4 8 6.4 8 9.7.1 3.4-4.9 6.8-11 14zm-2.6-46.4c-2.8-4.1-5.6-8.3-8.4-12.5.4 2.6.9 5.3 1.3 8 0 .2-1.4.6-1.4.8.6 5.1 1.3 10.3 2 15.4 2-3.7 4.1-7.3 6.5-11.7zM558.8 940.9c.5 1.5 1 3.1 1.5 4.6.7-.7 1.4-1.8 2.2-1.9.6-.1 2.2 1 2.1 1.5-.2 3.6.6 8.8-1.4 10.3-3.7 2.9-9.1 3.7-13.9 5.4-1-3.2-1-7.5-3.2-9.3-10-8.5-19.7-18.1-31.2-23.9-19.7-9.9-40.6-17.2-61-25.6-2-.8-3.7-2.4-5.6-3.7 1.1-.1 2.3-.4 3.4-.3 2.7.1 5.6-.4 8 .6 15.2 6.2 30.3 12.7 45.4 19.1 1.4.6 2.7 1.2 4.1 1.8.1-.9.6-2.5.2-2.7-1.6-1.1-3.5-1.9-5.3-2.6-1.4-.5-3.7-.3-4.1-1.2-.6-1.2.1-3.2.2-4.8 1 .6 2 1.2 3.1 1.8 18.5 9.4 37 18.7 55.5 28.1.5.3.5 1.7.8 2.5-.2.1-.5.2-.8.3zm-28.6-13.2c-3.1 1.2-4 1.6-4.9 2 .8 1 1.4 2.1 2.3 2.9 7.2 6.3 14.2 12.8 21.8 18.5 1.5 1.1 5.1-.6 7.7-1-.2-1.3 0-3.2-.8-3.7-8.9-6.5-18.1-12.9-26.1-18.7zm-19.9-6.1c3.7 2.1 6.4 4 9.3 5 1.3.4 3.3-1.1 4.9-1.7-3.4-1.6-6.8-3.3-10.2-4.7-.7-.3-1.9.6-4 1.4zM390 516c2.3-3.5 3-5.7 4-5.9 5.5-.7 11.9-2.8 16.3-.8 5.9 2.8 10.3 8.9 15.3 13.6 1.8 1.7 3.6 3.4 5.4 5-4.7.2-9.7 1.4-14.1.3-6.2-1.5-12-4.6-17.8-7.3-2.9-1.2-5.7-3-9.1-4.9zM391.1 536.1c4.6-4.3 7.3-8 8.4-7.6 5.5 2 10.6 5.1 15.7 8.1 1.1.7 1.9 2.2 2.4 3.5.9 2.1 2.2 4.4 2 6.6-.1 1.4-3.3 4-3.8 3.8-2.2-1.3-3.8-3.6-6-5.2-2.5-1.8-5.3-3.2-8-4.5-2.5-1.3-5.3-2.4-10.7-4.7zM375.9 767.7c-4.7-5.9-9.5-11.7-14.2-17.6-.3-.4-.7-.6-1-.9 1.6-1.1 3.4-3.3 4.7-3 2.1.5 4.9 2.2 5.5 4 3.4 9.9 5.8 20.1 9.3 29.9 1.5 4.3 4.8 7.9 7.2 11.9.8 1.3 1 2.9 1.5 4.4-1.1-.6-2.7-.8-3.2-1.7-5-7.8-9.9-15.8-14.8-23.7 1.7-1 3.3-2.2 5-3.3zM345.4 755c3.1 9.3 3.8 14.4 6.3 18.3 3.6 5.6 8.5 10.3 12.8 15.5 1.5 1.9 2.7 4 4.1 6-2.7-1.6-5.8-2.8-8-5-6.5-6.6-12.4-13.7-19-20.1-.7-.7-4.9 2.2-7.4 3.7-1.6.9-2.9 2.3-4.3 3.5 0-.5-.3-1.2 0-1.5 2.7-3.8 5.7-7.7 15.5-20.4zM379.9 551.1c-4-4.7-6.9-7.5-8.7-10.8-.4-.8 3.3-3.7 5.1-5.6 2.9 2.8 6.2 5.4 8.5 8.7.5.6-2.3 3.7-4.9 7.7z"/></svg>