<?xml version="1.0" encoding="utf-8"?>
<!-- Generator: Adobe Illustrator 16.0.0, SVG Export Plug-In . SVG Version: 6.00 Build 0)  -->
<!DOCTYPE svg PUBLIC "-//W3C//DTD SVG 1.1//EN" "http://www.w3.org/Graphics/SVG/1.1/DTD/svg11.dtd">
<svg version="1.1" id="Layer_1" xmlns="http://www.w3.org/2000/svg" xmlns:xlink="http://www.w3.org/1999/xlink" x="0px" y="0px"
	 width="1000px" height="600px" viewBox="78.9 293.1 1000 600" style="enable-background:new 78.9 293.1 1000 600;"
	 xml:space="preserve" fill="white">
<g>
	<path d="M481.6,839.6c-2.3,1.4-4.6,2.7-6.6,4.4c-1.6,1.3-3.3,1.8-5.3,1.4c-3.7-0.8-7.4-0.4-11,0.2c-4.7,0.8-9.3,1.5-14,2.4
		c-4,0.8-8.2,0.9-10.6,3.9c-3.9-1.1-6.9-2.3-10-2.6c-6-0.4-12-0.6-18-0.2c-4.4,0.3-8.8,1.7-13.1,2.8c-1.7,0.4-3.2,1.6-4.6,2.6
		c-0.5,0.4-0.6,1.4-1,2.5c4.7-0.1,8.9-0.3,12.7-2.6c0.7,0.8,1.4,1.6,2.1,2.4c1.1-0.6,2-1.2,3-1.7c2.7-1.5,2.8-1.5,5.3,0.6
		c1.4,1.2,3,1.8,4.6,1c3.6-1.8,7.1-2.9,11-1.2c12.3,0.1,24.5-1.1,36.4-4.6c3.1-0.9,6.1-1.8,9.3-2.3c3.1-0.5,5.9-1.9,9.1-1.9
		c2.8,0,5.5-1.6,8.5-0.3c0.3-1.1,0.5-2,0.7-2.8c0.3-0.9,0.6-1.7,0.9-2.4c-2.9-0.8-5.3-1.5-7.7-2.1
		C482.8,839.1,482.1,839.3,481.6,839.6z"/>
	<path d="M506.9,833.8c-0.5-0.4-1.7-0.5-2.3-0.2c-1.1,0.5-1.9,1.4-3.1,2.3c0.2,1,0.1,2.3,0.7,2.7c0.6,0.4,1.9,0.3,2.7-0.1
		c0.9-0.4,1.6-1.1,2.3-1.8C508.1,835.8,507.8,834.6,506.9,833.8z"/>
	<path d="M554.7,810.3c-1.5,1.1-1.8,2.7-0.8,5.5c2.3-1.1,4.3-2.3,5.9-4.8C557.9,809.5,556.4,809.1,554.7,810.3z"/>
	<path d="M365.3,852.2c3.3,3,9,3.5,13.5,1.1C376.4,847.7,369.7,847.3,365.3,852.2z"/>
	<path d="M230.1,795.1c-4.5-3.9-8.6-8.1-12.3-12.8c-1.7-2.1-3.6-4.2-5.8-5.9c-6.8-5.2-11.9-11.9-17-18.6c-1.9-2.5-3.2-5.4-5.9-7.2
		c-0.9-0.6-1.4-1.7-1.9-2.7c-2.4-5.2-4.8-10.3-7.3-15.9c3-1.9,2.5-3.9,1-6c-0.9-1.3-1.7-2.7-2.5-4c-4.1,2-6,1.2-5.9-2.6
		c1.2,0.1,2.4,0.1,4,0.2c-0.8-3.6-1.6-6.7-5.1-9c-0.5,4.3-0.5,4.3-1.9,5.3c-0.7-1.5-1.4-2.9-2.1-4.3c-0.5-1-0.9-2-1.5-3
		c-1.2-2.2-2.8-4.2-3.7-6.4c-5.5-12.7-9.1-25.8-11.3-39.4c-0.3-2.1-1-4.1-1.7-6.1c-0.7-2.2-1.4-4.3-0.3-6.5c1.1-2.1,0.7-4.1-0.5-6
		c-2.9-4.5-3.8-9.4-3.6-14.6c0.1-1.6,0-3.3-0.6-4.7c-0.8-1.9-0.8-3.5-0.2-5.4c0.3-0.9,0.3-2.3-0.2-3c-1.1-1.5-1.2-2.9-1-4.6
		c0.7-6.6,1.5-13.3,2.1-20c0.2-1.6-0.2-3.3,0.2-4.8c0.4-1.5,1.5-2.8,1.8-3.4c-0.4-2.8-1.4-5.1-0.9-7c1-3.6,1.2-7.1,1.1-10.7
		c0-2.6,0.2-5.2,2-7.4c0.6-0.8,0.7-2.1,0.9-3.1c0.4-2.1,0.4-4.2,1-6.2c1.7-5.3,3.7-10.6,5.5-15.9c2.8-8.2,5.9-16.4,8.3-24.8
		c2.4-8.4,5.7-16.4,10.7-23.7c4.1-6,7.8-12.2,11.7-18.3c0.5-0.9,1.4-1.8,0.2-3.1c-2.5,1.2-4.3,3.1-5.8,5.3
		c-2.5,3.7-4.8,7.6-7.3,11.4c-4.2,6.4-8.9,12.5-12.4,19.2c-4.5,8.7-8.1,17.9-11.7,27.1c-1.8,4.5-2.5,9.4-4.2,13.9
		c-2.7,7.4-3.8,15.2-5.7,22.7c-0.7,2.6-1.4,5.2-2,7.9c-0.3,1.3-0.4,2.7-0.5,4c-0.2,3.7-0.2,7.4-0.5,11.1c-0.1,1.5-1,2.9-1,4.3
		c-0.3,11.6-0.3,23.2-0.7,34.9c-0.2,6.3-0.9,12.9,1.5,19.1c0.1,0.3,0.1,0.7,0.1,1.1c0.2,5.8,1.6,11.3,3.3,16.8
		c3.9,13,7.8,25.9,12,38.8c1.4,4.4,3.3,8.6,5.5,12.7c3.8,7.1,8,14.1,12.1,21.1c2.4,4.2,5.1,8.3,7.2,12.7c2.1,4.5,6.2,7.7,8,12.4
		c0.4,1.2,1.8,2,2.8,2.9c1.6,1.6,3.4,3,4.9,4.6c2.9,3.1,5.1,7.1,8.6,9.4c3.7,2.5,6.4,5.8,9.9,8.3c0.7,0.5,1.5,0.9,2.2,1.5
		c1.2,0.9,2.4,1.9,3.4,2.9c5.8,6.3,12.1,12,20,15.8c0.9,0.4,1.5,1.3,2.3,1.9c0.5,0.4,1.1,0.8,2.1,1.5c0-2.6-1.2-4-2.5-5.3
		C236.2,800.8,233.2,797.8,230.1,795.1z"/>
	<path d="M514.6,827.9c-1.5,0.8-1.6,2.6-0.2,5.6c1.4-1.1,2.7-2.2,4.1-3.4C517.4,828.2,516.5,826.9,514.6,827.9z"/>
	<path d="M234.4,690.8c0.1-0.6-0.1-1.2-0.4-1.8c-1.9-3.8-3.9-7.6-6-11.7c-1.6,1.4-1.5,2.8-0.9,4.3c1.2,2.9,2.3,5.7,3.4,8.6
		c0.2,0.6,0.5,1.2,0.9,1.6c0.5,0.4,1.4,0.8,1.9,0.6C233.9,692.4,234.3,691.5,234.4,690.8z"/>
	<polygon points="716.7,520.2 728.5,540.7 740.3,520.2 	"/>
	<path d="M236.5,701.4c0.3,0.9,0.6,1.7,1.2,3.3C238.9,701.5,238.9,701.5,236.5,701.4z"/>
	<polygon points="567,528.3 567,538.7 576.1,533.5 	"/>
	<path d="M230.5,417.1c-0.5,0.6-0.7,1.4-1,2.1c1.7-0.1,3-0.6,4-1.4c3.7-2.5,7.4-4.9,10.9-7.6c11.8-9.1,24.1-17.6,36.9-25.3
		c5.4-3.3,10.7-6.7,16.1-10.1c1-0.6,1.9-1.4,3.1-2.2c-0.7-0.2-0.9-0.4-1.1-0.3c-0.9,0.3-1.7,0.6-2.5,0.9
		c-23.6,9.4-44,23.6-62.7,40.2C232.9,414.6,231.7,415.8,230.5,417.1z"/>
	<path d="M224.2,558.4c2.6-6.5,5.4-12.8,8-19.3c1-2.5,1.9-5.1,3-7.6c1-2.3,1.8-4.6,3.1-6.8c3.8-6.3,7.9-12.4,11.8-18.6
		c-1.2-1.5-1.4-1.6-0.7-3.1c2.9-6.3,4.8-13.1,10.5-17.9c0.9-0.8,1.5-2,2.3-3c2-2.6,3.9-5.1,6-7.6c2.2-2.7,4.7-5.2,5.7-9.3
		c-2.7,0.2-4.1,1.6-5.3,3c-3.3,4-6.6,7.9-9.4,12.1c-5,7.4-9.2,15.5-15,22.5c-1.1,1.3-1.9,2.9-2.7,4.5c-3.3,6-6.7,12-10,18
		c-4.7,8.6-8.5,17.5-10.5,27.1c-1.8,8.9-3.6,17.8-5.2,26.7c-2.3,13.2-3.9,26.5-2.6,40c1.6,17.6,5.1,34.8,10.2,51.8
		c0.2,0.7,0.4,1.4,0.7,2.1c0.6,1.3,1.7,1.8,3.5,0.9c-0.2-1.6-0.3-3.3-0.6-4.9c-1-6.1-2-12.2-3.2-18.2c-0.4-2.3-1.2-4.5-1.7-6.8
		c-0.2-0.7-0.3-1.4-0.3-2.1c-0.1-3.1-0.2-6.1-0.4-9.2c-0.1-2.5-0.4-4.9-0.3-7.4c0-1.3,1.1-2.5,1.1-3.7c-0.1-2.8-0.1-5.7-0.9-8.4
		c-1.3-4.2-1.1-8.3-0.2-12.4c0.8-3.4,1-6.9,2.3-10.3c1.1-2.9,1-6.3,1.3-9.5c0.2-3.3,1-6.3,2.7-9.2c0.6-1,0.9-2.4,0.8-3.5
		c-0.5-4.8,2.8-8.5,3.8-12.9c0-0.2,0.4-0.3,0.5-0.5c2.2-3.3,4.4-6.7,3.8-11c-0.1-0.7,0.1-1.8,0.5-2c2.7-1.3,2.9-4.3,4.7-6.2
		c1.6-1.7,1.9-3.8,0.9-6.5c-0.9,0.8-1.6,1.2-1.9,1.8c-4.4,6.5-8.8,13.1-10.4,20.9c-0.1,0.6-0.3,1.2-0.6,1.8c-2,4.7-4.1,9.3-6.1,14
		c-0.2,0.5-0.6,0.8-1.1,1.3c0.2-2,0.3-3.7,0.5-5.4C223.4,561.8,223.6,560,224.2,558.4z"/>
	<path d="M184.5,426.8c2.5-3.1,5.1-6.2,7.5-9.5c7.8-10.9,17.4-20.1,28-28.4c2.9-2.3,5.8-4.5,8.5-7c3.3-3,7-5.3,10.9-7.5
		c11.1-6.2,22-12.6,33-19c1.4-0.8,2.6-1.8,4-2.7c-0.2-0.3-0.3-0.6-0.4-0.9c-1,0.3-2,0.4-2.8,0.9c-5.5,2.8-11.1,5.7-16.6,8.6
		c-7,3.7-13.9,7.4-20.8,11.1c-1.8,1-3.6,1.9-5.2,3.1c-5.2,3.8-10.4,7.6-15.6,11.5c-13.9,10.4-23.9,24-32,39
		c-0.4,0.7-0.4,1.5-0.6,2.2C183.4,427.9,184,427.4,184.5,426.8z"/>
	<polygon points="578.4,503.3 578.4,503.3 578.4,491.5 578.4,491.5 567.1,498.1 577.3,503.9 	"/>
	<polygon points="773.6,711.1 767,722.5 760.4,733.9 765.3,742.4 766.7,742.4 784.1,712.2 783.4,711.1 	"/>
	<polygon points="742,679.2 730.5,699.1 754.2,699.1 765.3,679.8 764.7,678.6 742.3,678.6 	"/>
	<polygon points="770.9,711.1 747.2,711.1 752.8,701.4 730.5,701.4 741.7,720.8 747.2,711.1 759.1,731.6 765,721.4 	"/>
	<polygon points="728.5,702.6 716.6,723.1 727.8,742.4 729.2,742.4 740.3,723.1 740,722.5 	"/>
	<polygon points="742,541.3 730.5,561.2 754.2,561.2 765.3,541.9 764.7,540.7 742.3,540.7 	"/>
	<polygon points="865.4,611.6 865.4,611.6 876.7,605 876.7,591.9 865.4,585.4 854.1,591.9 865.4,598.5 	"/>
	<polygon points="901.8,590.6 901.8,577.5 890.4,570.9 879.1,577.5 879.1,590.6 890.4,584 	"/>
	<polygon points="804,518.4 804,518.4 815.4,511.8 804,505.3 	"/>
	<polygon points="741.7,655.8 746.6,647.3 745.9,646.1 711.1,646.1 710.4,647.3 715.3,655.8 	"/>
	<polygon points="728.5,698 739.7,678.6 728.5,678.6 717.3,678.6 	"/>
	<polygon points="716.7,658.1 728.5,678.6 740.3,658.1 	"/>
	<polygon points="726.5,699.1 715,679.2 714.7,678.6 692.3,678.6 691.6,679.8 702.8,699.1 	"/>
	<polygon points="726.5,701.4 704.1,701.4 709.7,711.1 686.1,711.1 697.9,731.6 709.7,711.1 715.3,720.8 	"/>
	<polygon points="673.6,711.1 672.9,712.3 690.3,742.4 691.6,742.4 696.6,733.9 683.4,711.1 	"/>
	<path d="M234.3,694.9c-0.3,0.1-0.5,0.2-0.8,0.4c0.3,1.7,0.6,3.5,3.4,3.8C235.9,697.6,235.1,696.3,234.3,694.9z"/>
	<polygon points="629.6,549.9 629.6,560.4 638.6,555.2 	"/>
	<polygon points="639.8,567.6 639.8,557.2 630.7,562.4 	"/>
	<polygon points="629.6,564.4 629.6,574.8 638.6,569.6 	"/>
	<polygon points="578.4,517.7 578.4,517.7 588.6,511.8 578.4,506 	"/>
	<polygon points="652.3,563 642.1,557.2 642.1,568.9 642.1,570.3 652.3,576.1 	"/>
	<polygon points="617.1,582 626.1,576.8 617.1,571.6 	"/>
	<polygon points="628.4,589.9 628.4,578.2 618.2,584 	"/>
	<polygon points="639.8,597.8 629.6,591.9 628.4,592.6 628.4,604.4 639.8,597.8 	"/>
	<polygon points="879.1,505.3 879.1,518.4 890.4,511.8 	"/>
	<polygon points="901.8,505.3 890.4,511.8 901.8,518.4 	"/>
	<polygon points="578.4,578.2 578.4,591.2 589.8,584.7 578.4,578.2 	"/>
	<polygon points="554.5,532.8 564.7,538.7 564.7,526.9 564.7,525.6 564.7,525.6 554.5,519.7 	"/>
	<polygon points="578.4,604.4 578.4,591.3 567.1,597.8 	"/>
	<polygon points="577.2,576.1 577.2,563.1 565.9,556.5 554.5,563.1 554.5,576.2 565.9,569.6 577.2,576.1 	"/>
	<polygon points="627.3,564.4 618.2,569.6 627.3,574.8 	"/>
	<polygon points="579.6,545.9 589.8,540.1 589.8,528.3 579.6,534.2 	"/>
	<polygon points="579.6,531.5 588.6,526.3 579.6,521.1 	"/>
	<polygon points="577.2,545.9 577.2,535.5 568.2,540.7 	"/>
	<polygon points="617.1,567.6 618.7,566.7 627.3,561.7 627.3,549.9 617.1,555.8 	"/>
	<polygon points="589.8,524.3 589.8,513.8 580.7,519.1 	"/>
	<polygon points="590.9,553.8 590.9,542.1 580.7,547.9 	"/>
	<polygon points="577.2,531.5 577.2,521.1 568.2,526.3 	"/>
	<polygon points="592.1,528.3 592.1,540 602.3,534.2 	"/>
	<polygon points="615.9,542 615.9,553.8 626.1,547.9 	"/>
	<polygon points="628.4,491.5 628.4,491.5 628.4,504.6 639.8,498.1 	"/>
	<polygon points="629.6,532.8 640.9,539.4 652.3,532.8 652.3,519.7 640.9,526.3 629.6,519.7 	"/>
	<polygon points="628.4,517.7 628.4,504.6 617.1,511.2 628.4,517.7 	"/>
	<polygon points="614.8,555.8 604.6,561.7 614.8,567.6 	"/>
	<polygon points="826.7,518.4 826.7,518.4 826.7,505.3 815.4,511.8 	"/>
	<polygon points="927.5,641 927.5,629.2 917.3,646.9 	"/>
	<polygon points="979.8,627.9 979.8,639.7 990,622 	"/>
	<polygon points="916.1,621.3 905.9,627.2 926.3,627.2 	"/>
	<polygon points="952.5,627.9 942.3,622 952.5,639.7 	"/>
	<polygon points="953.6,715.2 943.4,721.1 953.6,727 963.8,721.1 963.8,721.1 963.8,721.1 	"/>
	<polygon points="930.9,641.7 941.1,647.5 951.3,641.7 	"/>
	<polygon points="929.8,627.9 929.8,639.7 940,622 	"/>
	<polygon points="876.8,683.1 876.8,672.6 867.7,677.8 	"/>
	<polygon points="879.1,697.5 888.1,692.3 879.1,687.1 	"/>
	<polygon points="879.1,684.4 889.3,690.3 889.3,678.5 879.1,672.6 	"/>
	<polygon points="879.1,629.2 879.1,639.7 888.1,634.4 	"/>
	<polygon points="891.6,690.3 901.8,684.4 901.8,671.3 891.6,677.2 	"/>
	<polygon points="891.6,649.6 891.5,649.6 901.7,655.5 901.8,655.4 901.8,642.3 891.6,636.4 	"/>
	<polygon points="879.1,654.1 889.3,648.2 889.3,636.4 879.1,642.3 	"/>
	<polygon points="904.8,641 915,646.9 904.8,629.2 	"/>
	<polygon points="1004.8,641 1015,646.9 1004.8,629.2 	"/>
	<polygon points="953.6,686.4 943.4,692.3 953.6,698.2 963.8,692.3 963.8,692.3 963.8,692.3 	"/>
	<polygon points="728.5,560.1 739.7,540.7 728.5,540.7 717.3,540.7 	"/>
	<polygon points="1027.5,641 1027.5,629.2 1017.3,646.9 	"/>
	<path d="M78.9,293.1v600h1000v-600H78.9z M978,475.7l12.5,21.7l-50,86.6l-25,0L978,475.7z M984.6,573.1h-25l12.5-21.7L984.6,573.1z
		 M876.8,504l1.2-0.7v-13.1l12.5-7.2l12.5,7.2v13.1l1.2,0.7v15.8l-1.2,0.7v13.1l-12.5,7.2l-12.5-7.2v-13.1l-1.2-0.7V504z
		 M840.4,547.9l12.5-7.2l12.5,7.2v14.4l-12.5,7.2l-12.5-7.2V547.9z M603.4,469.5l12.5,7.2l-12.5,7.2l-12.5-7.2L603.4,469.5z
		 M579.6,489.5l11.4-6.6l12.5,7.2l12.5-7.2l11.4,6.6l1.2-0.7l13.7,7.9v1.3l11.4,6.6v13.1l1.2,0.7v15.8l-13.7,7.9l-13.7-7.9v-14.4
		l-12.5-7.2v-1.3l-11.4-6.6l-11.3,6.6v1.3v13.1l12.5,7.2v1.3l10.2,5.9l1.2-0.7l13.7,7.9l0,0l12.5,7.2l0,0l12.5,7.2v15.8l-1.2,0.7
		v13.1l-11.3,6.6v1.3l-13.7,7.9l-1.2-0.7l-11.3,6.5l-12.5-7.2l-12.5,7.2l-11.4-6.6l-1.2,0.7l-13.7-7.9v-1.3l-11.4-6.6v-13.1
		l-1.2-0.7v-15.8l13.7-7.9l13.7,7.9v14.4l12.5,7.2v1.3l11.3,6.6l0,0l11.4-6.6v-1.3v-13.1l0,0l-12.5-7.2v-1.3l-10.2-5.9l-1.2,0.7
		l-12.5-7.2l0,0l-13.7-7.9v0l-12.5-7.2v-15.8l1.2-0.7v-13.1l11.4-6.6v-1.3l13.7-7.9L579.6,489.5z M615.9,620l-12.5,7.2l-12.5-7.2
		l12.5-7.2L615.9,620z M598.4,788.2c-16,15-32.2,29.9-50.5,42.3c-14.2,9.6-29.4,17.6-44.7,25.3c-8.2,4.1-16.7,6.1-25.6,7.2
		c-0.9,0.1-1.8,0.2-2.6,0.5c-2.5,1-4.9,1.5-7.4-0.7c-2.4,3.6-5.9,3.7-9.5,3.8c-2.4,0.1-4.7,1-7,1.7c-2.7,0.8-5.4,1.3-8.3,0.3
		c-1-0.3-2.2,0-3.3,0.1c-2.3,0.3-4.5,0.9-6.8,0.9c-17-0.3-34-1.6-51-1c-9,0.3-17.4-2.7-25.8-5.1c-4.8-1.3-9.6-2.5-14.5-3.6
		c-1.1-0.2-2.2-0.2-3.3-0.3c-0.1,0.2-0.3,0.5-0.4,0.7c0.8,0.6,1.5,1.4,2.3,1.9c4.1,2.7,9,3.5,13.7,4.7c4.8,1.3,9.7,2.4,14.4,3.8
		c9.8,2.9,19.7,5.2,30.1,5.1c4.4,0,8.9,0.8,13.4,1c3.6,0.2,7.1-0.1,10.7-0.2c2-0.1,4-0.2,5.9,1.1c-1.3,0.3-2.6,0.7-4,0.9
		c-11.2,1.4-22.3,3.7-33.5,4.1c-52.7,5.4-149.1-25.8-202.1-76.7c-2.3-6.2-26.6-19.3-21.9-24.5c-1.5-2.4-3.2-5-4.9-7.7
		c-1.5,0.4-2.7,0.7-3.9,1c-1.7-1-1.3-2.1-0.6-3.5c0.7-1.5,1-3.3,1.3-5c0.2-1.3-0.6-2.1-2-2.2c-1.3,0-13.9-16.8-14.1-15.7
		c-0.3,1.4-0.7,2.8-1.1,4.2c-0.3,0-0.6,0-0.9,0.1c-0.7-2.1-1.3-4.3-2.2-7c1.8-0.4,3.4-0.8,5.6-1.4c-2.1-3-3.8-5.3-5.4-7.7
		c-0.3,0.1-0.6,0.1-0.8,0.2c-0.3,1.2-0.6,2.4-1,3.9c-2.4-1.8-3.3-3.8-3.3-6.7c1.7,0,3.2-0.1,4.8-0.1c1.4-1.8,1.2-4,0.1-5.6
		c-4.2-5.8-7-12.2-10.1-19.1c-1.1,1.5-1.9,2.7-2.7,3.9c-1.8-1.7-0.5-3.1,0-4.5c-0.7-0.9-1.4-1.7-2.3-2.8c1.4-0.2,2.5-0.3,3.7-0.5
		c0.4-2.8,0.4-5.4-0.6-8.1c-2.2-6.1-4.1-12.3-4-18.9c0-0.5,0.1-1.1-0.2-1.5c-2.3-2.9-1.8-6.4-2.3-9.6c-0.5-3.5-1-6.9-3.4-9.7
		c-0.4-0.5-0.7-1.4-0.5-2c0.9-4.9,0.4-9.7-0.8-14.4c-1.1-4.4-1.3-8.8-1.2-13.3c0-1.3,0.9-2.7,1.6-4.5c-0.5-3.7-0.8-8.1-1.6-12.4
		c-0.5-3-1.6-5.9-2.5-8.8c-0.2-0.7-0.6-1.4-0.5-2.1c0.8-5.9,1.7-11.7,2.5-17.6c0.1-0.7,0.3-1.5,0-2.2c-0.5-1.5,0-2.6,0.7-3.8
		c0.7-1.4,1.3-3,1.4-4.5c0.5-5.4,0.6-10.9,1.1-16.3c0.3-2.7,0.9-5.4,1.8-8c1.5-4.2,2.3-8.3,2.3-12.7c0-1.7,0.7-3.7,1.6-5.2
		c1.2-2,1.7-4,2-6.3c0.2-1.9,1.1-3.7,1.9-5.5c2-4.5,4.3-9,6.3-13.5c0.4-0.8,0.2-1.9,0.1-2.9c-0.1-1.6-0.3-3.2-0.5-4.9
		c3.1-1.1,4.4-3.4,5.4-6c0.5-1.3,1.6-2.5,2.5-3.7c2.6-3.2,2.5-6.8,1.5-10.8c-2.3,0.6-3.2,2.2-4.2,3.7c-1.4,2.2-2.7,4.4-4.1,6.7
		c-0.3,0.5-0.7,1.1-0.9,1.6c-3.7,7.9-8.1,15.5-9.2,24.3c-0.1,1.1-0.4,2.3-0.9,3.2c-4,6.6-5.3,14.2-8.2,21.2
		c-0.4,1.1-0.9,2.1-1.6,3.6c-2-2.5,0.3-2.9,1-4.2c-1.9-5.1-0.1-10.2,1.3-15.4c0.7-2.5,1.2-5.1,2.1-7.5c2.2-5.8,4.5-11.6,6.9-17.3
		c2.2-5.1,5.1-9.9,5.9-15.6c0.6-4.4,2.8-8.5,5.2-12.3c6-9.7,11.7-19.5,17.7-29.1c1.4-2.2,3.2-4.1,4.8-6.3
		c3.9-5.2,7.6-10.5,11.5-15.7c2.6-3.4,5.3-6.7,8.1-9.9c1.1-1.3,2.2-2.3,2.1-4.2c0-0.6,0.2-1.3,0.5-1.7c2.7-2.8,5.4-5.6,8.2-8.2
		c3.6-3.4,7.2-6.6,10.9-9.9c1.6-1.4,3.3-2.7,4.9-4.1c4.4-3.9,8.9-7.8,13.3-11.8c0.7-0.7,1.3-1.5,2-2.3c1.2,0.4,2.2,0.7,3.2,0.9
		c0.3-0.3,0.7-0.5,0.7-0.7c-0.6-3.7,1.9-5.2,4.9-6.5c2.6-1.1,5.1-2.3,7.6-3.6c2.5-1.3,5.1-2.4,7.2-4.2c5.3-4.5,11.3-7.6,17.5-10.6
		c1.8-0.9,3.5-2.1,5.2-3.1c1.9-1.1,3.7-2.2,5.7-3c3-1.3,6.1-1.6,9.3-0.4c3,1.1,4.3,0.4,5-2.5c0.4-1.6,1.2-2.3,2.5-2.9
		c2.8-1.3,5.6-2.4,8.8-2.3c4.4,0.1,7.9-1.5,10.9-4.6c3.5-3.7,7.9-5.3,13.1-4.7c3,0.3,6.1,0.2,8.9,1.6c2.1,1.1,4.2,0.1,5.5-1.5
		c2.8-3.5,6.3-4.2,10.6-3.8c2.5,0.2,5.1-0.2,7.9-0.3c-0.4,1.2-0.8,2.1-1.3,3.3c0.6,0.1,1,0.2,1.5,0.2c7.1-0.8,14.2-2.2,21.3-2.4
		c8.8-0.2,17.6-0.8,26.4-1c6.6-0.1,13.2,1,20.2,1.6c-0.7,1.5-1.1,2.5-1.6,3.6c2.7,1.9,6.8-0.8,8.8,3c2.4-2.1,5.1-1.5,7.7-1.3
		c4.6,0.5,9.1,0.8,13.8,1.3c1.7,4.2,4.7,5.1,8.8,2.5c0.8-0.5,1.8-0.8,2.8-0.9c1.6-0.2,3.3-0.3,5-0.1c1.3,0.2,2.7,0.8,3.8,1.5
		c3.1,2,4.1,2,7.6-1.1c-1.4-0.7-2.6-1.3-3.8-1.9c4.5,0.1,8.9,0.8,13.1,2.2c0.6,0.2,1.2,0.9,1.7,1.4c0.7,0.7,1.2,1.6,2,2.2
		c3,2.6,3.1,2.6,3.4,7c-1.8,1.5-3.4,1.6-5.3-0.2c-1-0.9-2.8-1.2-4.2-1.3c-6.6-0.1-12.7-2.6-19.4-3.9c0.5-1.3,0.8-2.2,1.4-3.6
		c-1.2,0-2.7-0.3-3,0.1c-1.6,2.4-4.1,2.2-6.5,2.6c-0.5,0.1-0.9,0.4-1.6,0.6c-0.2,1.6-0.5,3.1-0.7,5c5.9,0.6,11.6,1.4,17.3,1.8
		c2.7,0.2,4.3,1.1,5,3.7c-0.4,0.2-0.7,0.6-1,0.5c-6.9-1.7-14-1-21-1c-4.1,0-8.1,0-12.2-0.8c-3.4-0.7-7.1-0.1-10.7,0
		c-4.1,0.2-8.1,0.8-12.2,0.9c-6.8,0.3-13.5,0.4-20.3,0.6c-1.2,0-2.4,0.4-3.6,0.9c4.6,2.4,9.7,0.9,14.4,1.9c4.6,1,9.3,1.7,14,3.3
		c-1.3,0.4-2.5,0.8-4,1.2c1.4,2.9,3.8,4,6.7,4.3c4,0.3,7.9,0.5,11.9,0.7c7.3,0.2,14.5,0.5,21.7,2.3c2.7,0.7,5.6,0.8,8.3,1.2
		c1.3,0.2,2.9-0.5,3.4,1.6c0.1,0.3,1.1,0.5,1.7,0.6c1.3,0.2,2.5,0.5,3.8,0.4c6.2-0.3,11.8,1.7,17.4,3.9c8.4,3.3,16.8,6.7,25.4,9.6
		c10.6,3.6,20.2,9,29.8,14.4c3.6,2.1,7.4,3.9,11.1,6c2.1,1.2,4,2.6,6.1,3.9c2.5,1.7,5.1,3.3,7.6,5c0.6,0.4,1,1,1.2,2
		c-0.8-0.1-1.7-0.1-2.3-0.4c-6.8-3.2-13.5-6.4-20.3-9.7c-1.6-0.8-3.2-1.6-4.7-2.4c-3.2-1.7-6.6-3.2-10-4.5c-4.9-1.8-9.4-4.5-13.9-7
		c-8.7-4.9-17.6-9.1-27.1-12.3c-2.8-0.9-6-1-9-1.5c-0.8-0.1-1.5-0.1-2.3-0.3c-7.9-1.5-15.7-3.4-23.7-4.5c-9.9-1.3-19.8-1.7-29.8-2.7
		c-3.5-0.3-6.7,0-10.1,0.9c-3.3,0.9-6.8,0.9-10.3,1.2c-5.4,0.4-10.7,0.7-16.1,1.1c-9.3,0.7-18.1,3-26.9,5.8
		c-19.1,6.1-38.1,12.4-56.6,20.2c-6.8,2.9-13.4,6.2-18.9,11.1c-0.3,0.2-0.6,0.6-0.9,0.7c-6.4,2-10.2,7.8-16.4,9.9
		c-0.7,0.2-1.4,0.7-1.9,1.2c-5.2,4.3-10.3,8.5-15.4,12.8c-0.3,0.3-0.5,0.7-0.8,1c0.1,0.2,0.3,0.3,0.4,0.5c8.6-5.4,17.1-11.1,26-16.2
		c8.9-5.1,18-10,27.6-13.6c0.2,0.2,0.3,0.4,0.5,0.6c-0.8,0.5-1.6,1.1-2.5,1.6c-14.5,7.9-28.9,16.1-42.2,25.9
		c-5.2,3.8-10.1,8-15.2,11.9c-1.4,1.1-2.9,2-4.3,3.2c-2.1,1.7-4.3,3.5-6.3,5.3c-1.5,1.4-2.7,3.3-5.4,3.2c0.1-3.6,2.8-5.3,4.9-7.4
		c2.1-2.1,4.3-4.1,7.1-6.6c-2.5-0.3-3.4,0.9-4.3,1.7c-4,3.6-8,7.3-12,11c-2.4,2.2-4.6,4.6-7.2,6.7c-2.2,1.8-4.8,3.3-7.2,4.8
		c-1,0.6-2.1,1-3,1.7c-3.3,2.6-6.5,5.2-9.8,7.8c-2.7,2.1-3.8,4.9-4.3,8c-0.2,0.9-0.3,2-0.8,2.8c-2.9,4.2-6.1,8.2-8.9,12.5
		c-1.9,2.9-3.5,6-4.8,9.2c-1.2,2.8-2.1,5.6-4.5,7.6c-0.6,0.5-1.1,1.4-1.4,2.2c-2.1,5.6-4,11.2-6.1,16.9c-0.1,0.2-0.1,0.5-0.2,0.7
		c-3.4,4.3-3.9,9.6-5.4,14.5c-2.3,7.9-6.2,15.5-6.3,24c0,0.8-0.2,1.8-0.5,2.5c-1.7,3.5-2.1,7.4-2.6,11.2c-1,8.9-2.1,17.7-2.8,26.6
		c-0.2,3,0.5,6.1,0.8,9.2c0.1,0.6,0.4,1.3,0.3,1.8c-0.9,4.6,0.5,8.8,1.5,13.2c0.3,1.3,0.6,2.7,0.5,4c-0.5,4.9,0.5,9.6,1.2,14.4
		c1.3,8.6,2.2,17.3,4.8,25.6c0.7,2.3,1.5,4.5,2.2,6.7c1.1,3.3,2.2,6.6,3.4,9.8c0.7,2,1.7,3.9,2.7,5.8c3.5,6.9,7.1,13.7,10.7,20.6
		c0.2,0.4,0.4,0.9,0.7,1.3c4,4.1,6.2,9.4,9.4,14c2.5,3.6,5.6,6.8,8.6,10c7.8,8.4,15.7,16.7,23.5,25c2.9,3.1,5.6,6.4,8.4,9.5
		c0.5,0.5,1.2,0.8,1.8,1.2c0.6,0.4,1.4,0.5,1.9,1c2.9,2.6,2.9,2.6,6.3,3.4c0.1,0.8,0.3,1.6,0.2,2.4c-0.2,2,0.6,3.2,2.5,4.1
		c1.3,0.6,2.5,1.8,3.2,3c1,1.7,2.1,2.7,4.2,2.5c1.9-0.2,3.3,0.9,4.1,2.3c1.5,2.6,3.6,3.9,6.7,4.3c2.7,0.3,4.5,1.7,4.5,4.2
		c3.3,2.5,6.5,4.8,9.5,7.1c2.3,1.8,4.5,3.2,7.8,3.2c1.8,0,4,1.7,5.4,3.1c2.7,2.7,5.7,4.4,9.3,5.7c4.8,1.7,9.5,3.7,14.2,5.6
		c0.2,0.1,0.6,0.1,0.7,0.3c2.1,3.2,5.9,2.9,9,3.9c1.3,0.4,2.7,0.9,3.9,1.6c3,1.7,6.3,2.6,9.8,2.9c1.6,0.1,3.4,1.1,4.6,2.2
		c2.2,2,4.5,2.5,7.4,2.2c4.1-0.3,8.2-0.3,12.2-0.3c1.6,0,3.4,0.2,4.9,0.8c3.2,1.2,6.3,1.9,9.7,1.4c0.8-0.1,1.7,0.8,2.6,1.1
		c0.9,0.4,1.9,1.1,2.7,0.9c5.6-1.3,11,0.1,16.2,1.5c3.5,0.9,6.7,0.9,10.2-0.2c2.3-0.7,4.8-0.9,7.2-0.9c6.5-0.1,13.1,0.4,19.4-1.6
		c0.1,0,0.3-0.1,0.4,0c6.9,0.9,13-2.2,19.3-3.9c16.3-4.4,32.2-9.9,47.4-17.2c4.4-2.1,8.7-4.3,12.8-8.2c-0.6-0.9-1.2-1.9-2.2-3.3
		c-1.2,0.7-2.1,1.2-3,1.8c-1.3,0.9-2.4,2.2-3.9,2.7c-7,2.7-14,5.5-21.2,7.9c-4,1.3-8.2,1.8-12.3,2.9c-3.5,1-7,2.3-10.5,3.5
		c-0.8,0.3-1.7,0.6-2.5,0.8c-16.2,3.4-32.6,4.7-49.2,4.9c-3.9,0-7.7,0.2-11.3,1.4c-2.4,0.8-4.7,0.9-7-0.7c-0.6-0.4-1.4-0.4-2.8-0.1
		c0.6,0.4,1.1,0.9,1.6,1.3c-2.9-0.2-5.4-0.1-7.8-0.7c-2.4-0.6-4.6-1.9-6.9-3c-1.3-0.6-2.5-1.4-3.7-2.1c-0.2,0.2-0.4,0.4-0.6,0.7
		c0.5,0.6,0.9,1.3,1.5,2.1c-2.8,1.7-5.2,0.6-8-0.8c0.6-0.8,1.1-1.4,1.9-2.3c-1.8-0.5-3.3-0.9-4.8-1.2c-6.2-1-12.4-1.8-18.7-1.5
		c-2.3,0.1-4.7-0.9-7-1.5c-3.3-0.9-6.6-2-9.8-3.1c-1-0.3-2.1-1.1-2.4-2c-0.9-2.1-2.5-3.3-4.5-4.3c-9-4.2-18-8.4-26.8-12.9
		c-4.1-2.1-7.8-4.7-11.7-7.1c-1.6-1-3-2.3-3-4.6c2.4-1.1,4.1,0.3,5.9,1.2c3,1.6,6,3.4,9,5c0.9,0.5,1.9,0.8,2.8,1.2
		c3.9,1.4,7.4,3.3,10.3,6.3c2.4,2.5,3.8,2.5,7.3,0.9c-0.7-0.6-1.2-1.3-1.9-1.7c-5.3-3-10.7-5.9-15.9-8.9c-4.5-2.6-8.7-5.6-13.3-8.1
		c-3.8-2-7.1-4.3-9.7-7.7c-1-1.4-2.7-2.2-4.1-3.4c-2-1.7-3.9-3.5-5.9-5.3c-0.7-0.7-1.3-1.7-2.2-2c-3.5-1.2-5-3.9-6.5-6.8
		c-0.6-1.3-1.6-2.6-2.8-3.5c-4.4-3.3-7.8-7.5-11.3-11.5c-1-1.1-1.7-2.5-2.7-3.6c-0.7-0.9-1.6-1.6-2.3-2.4c-0.5-0.5-1.5-1.1-1.5-1.6
		c-0.1-4-3-6.1-5.4-8.7c-0.2-0.2-0.3-0.4-0.5-0.9c0.6-0.5,1.2-1,2.2-1.8c-0.8-0.9-1.5-1.9-2.3-2.8c-1.7-1.9-3.3-3.8-5.1-5.5
		c-2.7-2.4-4-5.1-3-8.7c-1.1-0.7-2-1.3-2.4-1.5c-0.6-2.3-1.1-4.1-1.6-6c-1.9,0.2-3.2,0.3-4.5,0.5c-1-1.3-0.5-2.3,0.4-3.1
		c1.4-1.3,1.2-2.7,0.6-4.1c-1.1-2.6-2.4-5.2-3.5-7.9c-3.3-7.7-6.6-15.3-9.8-23c-0.5-1.3-0.4-2.9-0.7-4.6c-0.3-0.2-0.9-0.5-1.4-0.9
		c-0.4-0.3-0.8-0.6-1.3-1.1c0.8-4.7-0.7-9-2.3-13.3c-1-2.8-1.3-5.8-1.8-8.7c-0.6-3.4-1.3-6.8-1.9-10.2c-0.2-1.4-0.1-2.9-0.1-4.3
		c0-1.3,0.4-2.8,0.1-4c-0.9-3-0.6-6.1-0.8-9.2c-0.5-6.4,0.9-12.6,1.3-18.9c0.4-5.6,0.7-11.1,1.5-16.6c0.8-5.4,2-10.7,3.1-16.1
		c1.3-6.3,2.6-12.6,3.9-18.9c0.3-1.2,0.8-2.3,1.2-3.5c1.3-3.8,2.6-7.5,3.7-11.3c0.9-3.1,1-3.5,4.3-6.1c-1.1-3.4,0.7-5.8,2.7-8.6
		c2.3-3.1,3.5-6.8,5.2-10.3c0.4-0.9,0.6-2,1.3-2.6c4.6-4.5,7.2-10.2,10.4-15.5c3.6-6,7.4-11.9,11.7-17.4c2.4-3,5.5-5.5,8.2-8.3
		c1.8-1.9,3.4-4,5.1-6c1.8-2.1,3.4-4.3,5.3-6.3c4.2-4.1,8.7-8.1,13-12.1c1.8-1.6,3.4-3.4,5.3-4.8c12.1-8.3,23.9-17.1,36.5-24.7
		c7.1-4.2,15.4-6.7,23.3-9.4c9.3-3.1,18.8-5.7,28.3-8.3c5-1.4,10.3-2.1,15.4-3.2c1.7-0.4,3.5-0.9,5.2-1.5c1.4-0.5,2.6-0.5,4,0.3
		c1,0.6,2.6,0.8,3.6,0.4c3.6-1.2,7.3-1,11-0.9c2.3,0.1,4.6,0.1,6.9,0.2c1,0.1,2.2,0.1,2.9,0.6c2.2,1.8,4.8,1.5,7.3,1.7
		c14.7,1.1,29.2,3,43.3,7.4c5.7,1.8,11.6,2.9,17.4,4.4c3.3,0.8,6.8,1.3,9.6,3.6c0.6,0.5,1.6,0.7,2.4,1c12.6,5.1,25.2,10.2,36.6,17.9
		c9.7,6.6,19.7,12.8,29.6,19.2c6.1,4,9.5,7.2,14.1,14c-2.9,0.1-5-1.3-7-2.6c-3.4-2.3-6.4-5-9.9-7c-5.9-3.4-12.1-6.5-18.1-9.7
		c-5-2.7-10-5.5-15.1-8.1c-1.3-0.7-2.8-0.8-4.9-1.5c1.1,1.9,1.8,3.2,2.5,4.5c-5.5,1.4-10.4,1.2-14.8-2.5c-0.8-0.7-2-1.3-3.1-1.4
		c-3.5-0.2-6.1-2.2-9.1-3.5c-5.7-2.4-11.7-4.1-17.6-6.1c-1.6-0.5-3.1-1.1-4.7-1.5c-3-0.8-5.9-1.4-8.9-2.1c-0.5-0.1-1.1,0-1.5-0.2
		c-5.9-2.9-12.8-2.1-18.9-4.3c-1.1-0.4-2.5-0.3-3.8-0.4c-1.7-0.2-3.5-0.4-5.2-0.6c-2-0.3-4.1-1.2-5.1,1.6c-0.2,0.4-1.3,0.9-1.9,0.8
		c-2-0.4-4-0.8-5.8-1.6c-1.9-0.9-3.5-1.7-5.7-0.6c-1.1,0.6-2.8,0.7-4.1,0.5c-9.1-1.1-18.2-0.2-27.1,1.4c-9.6,1.7-19.1,3.8-28.5,6
		c-15.7,3.7-30,10.5-43.2,19.6c-2.4,1.7-5.1,2.9-7.6,4.4c-11.3,7.1-20.6,16.3-29.3,26.1c-5.7,6.4-10.1,13.6-14.4,21
		c-3.4,5.8-7.4,11.3-11.1,17c-0.3,0.4-0.5,0.8-1.3,2.1c1.3-0.8,1.9-1,2.3-1.5c2.2-2.6,4.3-5.2,6.4-7.9c1.6-1.9,3.1-3.9,4.7-5.8
		c1.2-1.4,2.3-2.7,3.2-4.4c1.1-2.1,3.3-3.7,5.1-5.4c2.6-2.3,5.3-4.6,8.1-6.8c2.4-1.9,4.9-3.6,7.3-5.4c1.3-1,2.6-2,3.7-3.3
		c1.1-1.3,2.2-1.9,4.2-1.1c-0.4-2.7,1.2-3.6,3.1-4.3c4.9-2,9.4-4.4,13.8-7.3c4.2-2.8,9-4.7,13.6-6.9c2.2-1.1,4.6-1.5,7.1-0.4
		c0.6,0.2,1.2,0.2,2,0.4c1.6-4.2,5.1-4.9,8.9-4.9c2.3,0,4.4-0.5,5.9-2.1c3.9-4,8.6-3.9,13.5-2.3c2.1,0.7,3.6,0.7,5.2-0.7
		c3-2.4,3.8-2.5,8.4-1.2c-0.1,0.5-0.3,1.1-0.4,1.7c0.4,0.1,0.8,0.2,1.1,0.2c3.8-0.4,7.6-1.1,11.4-1.1c9.8,0.1,19.7-0.9,29.5,0.8
		c1.4,0.2,2.8,0.5,4.4,0.8c-0.2,0.8-0.4,1.4-0.6,2.5c6.2,0.7,12.4,1.4,18.6,2.2c1.9,2.8,2.6,3,5.8,2c2.5-0.8,5.2-1.1,7.6,0.7
		c1.5,1.2,2.8,1,4.2-0.4c-0.5-0.5-0.9-1-1.6-1.7c4.4,0.7,8.4,1.2,10.9,4.9c0.5,0.7,1,1.5,1.1,2.3c0.1,0.6-0.1,1.7-0.5,1.9
		c-0.6,0.3-1.6,0.1-2.4-0.1c-1.1-0.3-2.1-0.9-3.1-1.2c-4-0.9-7.9-1.8-12-2.7c0.1-1,0.2-1.7,0.3-2.3c-0.3-0.1-0.7-0.3-0.8-0.3
		c-1.5,2.1-6.6,0-5.9,4.7c4.3,1.9,9.9,0.1,14.3,4.3c-5.7-0.3-10.6-0.5-15.5-0.8c-2.4-0.2-4.8-0.6-7.2-0.9c-1.3-0.2-2.6-0.5-3.8-0.3
		c-7,1.1-14.1,0.1-21.1,0.3c-1.2,0-2.5,0.2-3.7,0.9c5.5,0.9,11.1,1.9,17.3,2.9c-1.1,0.8-1.6,1.2-2.2,1.8c0.7,2.2,2.8,2.3,4.6,2.6
		c3.3,0.4,6.6,0.4,9.9,0.9c5.8,0.8,11.7,1.4,17.3,3.1c2.8,0.9,5.5,1.5,8.4,1.9c1.4,0.2,2.7,0.8,4,1.4c5.9,2.5,11.6,5.2,17.6,7.5
		c6.7,2.6,12.9,6.1,18.8,10c5.1,3.3,10.1,6.7,15.2,10.1c0.6,0.4,1.1,0.8,1.4,1.7c-0.4-0.1-1,0-1.3-0.2c-6.2-3.4-12.2-7.5-18.7-10.1
		c-7.7-3.2-14.2-8.3-21.8-11.7c-4.7-2.1-9.3-3.9-14.4-4.7c-8.1-1.3-16-3.3-24-4.7c-3.9-0.7-7.9-0.9-11.8-1.3c-0.4,0-0.8-0.2-1.1-0.1
		c-6.1,1.7-12.5,0.7-18.7,1.4c-5.3,0.6-10.7,1.1-15.9,2.5c-11.7,3.2-23.3,6.8-34.8,10.5c-6,1.9-11.6,4.5-16.7,8.2
		c-3.4,2.4-7.3,4-10.8,6.2c-3.5,2.2-6.7,4.8-9.8,7.6c10.8-6,21.6-12,33.5-15.8c-8.6,4.8-17.3,9.2-25.6,14.3
		c-8.3,5.2-16.1,11.1-24.7,17.1c0.7-3.7,4-4.9,5.3-7.5c-0.8,0.5-1.6,0.9-2.3,1.5c-3,2.5-5.8,5.2-8.9,7.6c-2,1.5-4.2,2.7-6.3,4.1
		c-3,2.1-6,4.2-8.9,6.4c-0.6,0.4-1.1,1.2-1.2,1.8c-1.2,4.6-4.7,7.9-7.3,11.6c-1.3,1.9-2.4,4.1-3.6,6.1c-0.8,1.4-1.6,2.8-2.5,4.1
		c-0.5,0.7-1.1,1.4-1.5,2.1c-2.5,5.7-5,11.4-7.3,17.2c-2.4,6.1-4.4,12.3-6,18.7c-1.5,5.9-2.5,11.9-3.7,17.8
		c-0.9,4.4-0.9,8.8-0.5,13.3c1,9.7,1.3,19.5,2.4,29.2c0.5,4.6,2.3,9.1,3.2,13.7c1.6,7.7,5.9,14.2,9,21.3c2.2,4.9,5.4,9.6,8.7,13.9
		c4.1,5.4,8.9,10.2,13.3,15.4c2.8,3.2,5.3,6.7,8.2,9.8c1.7,1.9,4,3.2,6.4,5.2c0.6,3.4,3.1,5.9,6.9,7.4c0.5,0.2,1.1,0.4,1.3,0.7
		c1.3,2.2,3.5,2.9,5.7,4c1.9,0.9,3,3.1,4.6,4.6c2.4,2.1,4.5,4.7,8.3,4.9c1,0,2,1.4,3.1,2.1c2.1,1.4,4.1,2.9,6.3,4.1
		c3.5,2,7.5,2.9,10.8,5.5c1.3,1,3.4,1,5,1.7c2.4,1.1,4.7,2.5,7.5,2.6c0.6,0,1.4,0.3,1.7,0.7c2.1,2.5,4.8,2.2,7.7,2.2
		c3.3,0,6.5,0.9,9.8,1.4c1.1,0.2,2.2,0.4,3.4,0.6c0.5,0.1,1.1-0.2,1.5,0c4.2,2.4,9.2,0.7,13.6,2.7c2.1,1,4.4,0.9,6.8,0.2
		c1.1-0.3,2.3-0.3,3.4-0.4c5.6-0.1,11.2,0,16.8-0.3c2-0.1,4-1,5.9-1.4c10.9-2.4,21.5-5.5,31.8-9.7c2.9-1.2,5.7-2.8,8.5-4.3
		c1.6-0.8,1.8-2,0.2-3.1c-6.8,4-14.3,5.8-21.8,7.7c-3.7,0.9-7.4,2-11.1,2.7c-4.4,0.8-8.8,1.5-13.3,1.8c-6.5,0.4-13,0.3-19.6,0.4
		c-2.2,0.1-4.3,0.3-6.5,0.5c-1.6,0.2-3.1,0.7-4.8-0.4c-0.8-0.5-2.2,0-3.3,0c-3,0.2-5.5-0.9-7.6-2.8c-2.6,2-4.1,1.7-5.6-0.8
		c-0.4-0.6-1.3-1.1-2.1-1.3c-3.3-0.6-6.6-1.2-9.9-1.4c-2.6-0.1-5-0.6-7.4-1.7c-1.5-0.7-3.1-1.2-4.6-1.7c-0.6-0.2-1.4-0.4-1.7-0.8
		c-2.2-4.3-7-5.1-10.7-7.4c-5-3.1-10.3-6-15.4-9c-1.4-0.8-2.9-1.7-2.7-3.9c1.5-0.5,2.6,0.4,3.8,1c2.5,1.4,5.1,2.8,7.6,4.3
		c1.9,1.2,3.8,2.5,5.5,3.9c1.3,1.1,2.5,2.1,4.8,1.2c-0.8-0.8-1.3-1.4-2-1.8c-6.2-4-12.4-7.9-18.5-11.9c-0.9-0.6-1.9-1.3-2.7-2
		c-3.8-3.5-7.5-7-11.2-10.5c-0.4-0.3-0.7-0.7-0.9-1.2c-1.1-3-3.5-5.1-5.7-7.3c-1.7-1.7-3.2-3.6-4.5-5.5c-2.2-3.1-4.1-6.4-6.2-9.6
		c-0.1-0.2-0.4-0.5-0.3-0.6c1.6-3.3-1.8-4.4-3-6.3c-1-1.6-2.2-2.8-2.3-4.9c-0.1-1.8-1-3.6-2-5.2c-0.4-0.7-1.9-0.7-3.3-1.1
		c2.5-3.1,0.5-5.9-0.6-8.8c-2.1-5.8-3.6-11.9-6.3-17.5c-1.5-3.2-1-6.4-2.1-9.5c-1-3-1-6.3-1.5-9.5c-1.7-10.2-0.2-20.3,1-30.4
		c1.2-10,4.1-19.4,6.6-29c1.1-4.4,2.3-9.1,5.7-12.8c0.4-0.4,0.3-1.2,0.4-1.7c0.3-0.9,0.6-1.9,1-2.7c1-1.7,2.1-3.3,3.2-5
		c1.9-2.9,3.7-5.9,5.6-8.7c2.7-4,5.4-8.2,8.4-11.9c2.7-3.3,5.8-6.2,8.8-9.3c0.5-0.5,1.2-0.9,1.7-1.5c4.3-6.5,10.8-11,16.9-15.6
		c7.8-5.8,16.3-10.8,24.8-15.5c3.9-2.2,8.5-3.5,12.9-4.6c8.9-2.3,17.9-4.1,26.9-6.2c1.6-0.4,3.3-0.7,4.9-1c0.6-0.1,1.4-0.6,1.8-0.4
		c3.4,1.5,6.8-0.1,10.1,0.3c3.1,0.4,6.3,0.3,9.4,1.6c1.9,0.8,4.3,0.4,6.4,0.8c9.4,1.8,18.9,3.1,27.8,7c0.1,0,0.2,0.1,0.4,0.1
		c10.1,1.6,18.5,7.1,27.4,11.3c3.5,1.7,6.6,4.2,9.9,6.4c5.5,3.8,10.9,7.8,16.5,11.5c3.8,2.6,7,5.7,9.8,10.1c-2.3-0.2-3.7-1-5-2.1
		c-7.7-6.7-17.2-10.7-25.7-16.2c-0.7-0.5-1.6-0.6-2.8-1c0.1,1,0.2,1.8,0.4,2.6c-3.3,1-6.1,0.2-8.9-1.7c-2.6-1.7-5.6-2.9-8.5-4
		c-6.4-2.5-12.7-5.3-19.5-6.7c-3.8-0.8-7.6-2.1-11.4-3c-2.5-0.6-5-1-7.5-1.4c-0.6-0.1-1.4,0.1-1.7,0.4c-1.7,2.1-3.5,0.9-5.1,0.1
		c-1.4-0.7-2.7-1.4-4.3-0.6c-0.5,0.3-1.3,0.2-1.9,0.1c-12.2-1.6-24,0.8-35.7,3.2c-10.3,2.1-19.5,6.5-28.6,11.5
		c-9.4,5.2-17.5,11.6-24.6,19.3c-2.7,2.9-4.9,6.3-7.3,9.6c-3.5,4.8-6.9,9.6-10.3,14.3c-0.4,0.5-1,0.9-1.7,1.7
		c0.6-3.7,3.5-9,5.8-11.4c3.1-3.3,6-6.7,8.9-10.1c0.6-0.7,1-1.6,1.7-2.7c-2-0.4-2.9,0.7-3.8,1.7c-2.3,2.6-4.6,5.4-6.7,8.2
		c-3.1,4.1-6.3,8.2-9,12.5c-4.6,7.4-9.6,14.7-13.2,22.6c-2.8,6-4.1,12.8-5.7,19.2c-1.2,4.7-2.1,9.5-3,14.2c-1.4,7.6-1.6,15.3-0.8,23
		c1.1,11.1,2.9,22.2,6.3,32.9c1.9,5.8,4.2,11.5,6.7,17c1.2,2.7,3.3,5,5.1,7.4c5.4,7.4,10.7,14.9,16.4,22c4.8,6,11,10.6,17.3,15.2
		c9.8,7.2,20.7,11.9,32.3,15.1c6.6,1.8,13.5,3.1,20.3,3.6c17.2,1.5,34.3,0.2,51-3.9c14.9-3.6,28.1-10.5,40.4-19.3
		c4.9-3.5,9.5-7.5,14.2-11.4c7.9-6.7,13.5-14.8,16.9-24.4c2.1-6,4.8-11.7,9.4-16.5c1.8-2,3-4.6,4.4-6.9c1.2-2,2.9-3.3,5.3-4.6
		c0,1.3,0,2.2,0,3.2c0.5,0.1,0.8,0.3,1.2,0.3c3.2-0.6,6.2-1.2,7.6-4.7c0.9-2.2,4.3-3.2,7-2.1c2.8,1.1,5.4,2.7,8,4
		c1-3.8-0.4-5.9-4.6-5.6c4.6-2.5,9.2-4.5,14-5.6c4.5-1,6.9,0.3,8.8,4.5c0.2,0.3,0.3,0.7,0.4,1c1.8,4,2.7,4.2,6.5,1.8
		c0.5-0.3,1.1-0.7,1.6-1c2.9-1.4,4.5-0.6,5.5,2.3c1.4,4.2,2.9,8.4,4.4,12.6c0.3,0,0.6,0.1,0.9,0.1c1.2-1.9,2.2-4,3.7-5.7
		c1.6-1.8,3.6-3.3,5.5-5c2.1,1.9-0.2,3.6,0.5,5.5c0.9,0,1.9,0.2,2.8,0c4.7-1.3,9.3-2.5,10.9-8c1-3.5,6.8-5.2,10.9-3.6
		c4.5,1.8,9.6,2.8,12.7,7.3c1.6-3.6,0.4-7.5-3.2-11c-1.4,0.5-2.9,1.1-4.4,1.7c-0.1-0.1-0.2-0.2-0.3-0.3c0.6-0.5,1.2-1.1,1.9-1.4
		c6.1-2.8,12.3-5.5,18.5-8.2c0.9-0.4,2-0.6,3-0.8c6.2-1.1,9.7,0.6,12.4,6.1c0.8,1.6,7.1,18.2,8,19.7c-2.4,2.1-4.6,4.3-6.9,6.4
		c-0.5,0.4-1.1,0.9-1.2,1.4c-0.7,4.8-5,7.9-6.4,12.4c-1,3.1-2.6,5.9-4.9,8.4c-9.6,10.4-15.3,23-19.2,36.1
		C629.5,749.4,617.2,770.6,598.4,788.2z M827.9,699.4L827.9,699.4v14.4l-0.1,0l0.1,0v14.4l0,0l0,0v14.4l-12.5,7.2l-10.2-5.9l0.3,0.6
		h-154l77-133.4l74.4,128.9v-11.8l0,0l0,0v-14.4l0.1,0l-0.1,0v-14.4v-0.1V685l12.5-7.2l12.5,7.2V699.4L827.9,699.4z M1029.8,642.3
		l-13.7,7.9l-12.5-7.2l-11.4,6.5V664l-13.7,7.9l0,0v11.8l14.8,8.6l-14.8,8.6v11.7l14.8,8.6l-14.8,8.6v13.2l-12.5,7.2l-12.5-7.2
		v-13.2l-14.8-8.6l14.8-8.6v-11.7l-14.8-8.6l14.8-8.6v-11.9L940,664v-14.4l-11.4-6.6l-12.5,7.2l-12-6.9v13.5l-1.2,0.7v11.8l1.2,0.7
		v15.8l-12.5,7.2l0,0l-12.5,7.2l0,0l-12.4,7.2l11.3,6.5l0,0l12.5,7.2l12.5,7.2v14.4l-12.5,7.2l-12.5-7.2l-12.5-7.2l0,0l-12.5-7.2
		l0,0l-12.5-7.2V708l-1.2-0.7v-15.8l13.7-7.9l0,0l11.3-6.5l0,0l12.5-7.2l0,0l1.2-0.7v-11.8l-13.7-7.9l0,0l-6.3-3.6l-5.1,2.9
		l-5.1-2.9l-6.3,3.6l0,0l-13.7,7.9l0,0v13.1l-12.5,7.2l-12.5-7.2v-13.1l-1.2-0.7V641l13.7-7.9l0,0l11.4-6.6l0,0l13.7-7.9l7.4,4.3
		l5-2.9l-11.2-6.5l-1.2,0.7l-13.7-7.9l-11.4,6.6l-10.5-6.1H651.5l77-133.4l74.4,128.8v-9.7l-1.2-0.7v-15.8l12.5-7.2l-11.3-6.6v-14.4
		l12.5-7.2l-12.5-7.2v-13.1l-1.2-0.7v-15.8l1.2-0.7v-13.1l12.5-7.2l12.5,7.2v13.1l1.2,0.7v15.8l-1.2,0.7v13.1l-12.5,7.2l12.5,7.2
		v14.4l-11.4,6.6l12.5,7.2v13.1l11.4-6.6l12.5,7.2l12.5-7.2l11.4,6.6v-13.1l12.5-7.2l-11.3-6.5v-14.4l12.5-7.2l12.5,7.2v14.4
		l-11.3,6.6l12.5,7.2v15.8l-1.2,0.7v13.1l-12.5,7.2l-11.4-6.6v0l-13.7,7.9l-1.2-0.7l-11.2,6.5l5,2.9l7.4-4.3l13.7,7.9l0,0l11.3,6.5
		l0,0l12,6.9v-13.5l13.7-7.9l12.5,7.2l12.5-7.2l12.6,7.3l12.4-7.2l12.4,7.2l12.6-7.3l12.5,7.2l12.5-7.2l13.7,7.9L1029.8,642.3
		L1029.8,642.3z M928,605.7h-25l12.5-21.7L928,605.7l12.5-21.7h100l12.5,21.7L928,605.7z"/>
	<polygon points="1006,627.2 1026.4,627.2 1016.2,621.3 	"/>
	<polygon points="967.3,649.6 967.3,662.7 978.7,669.2 990,662.7 990,649.6 978.7,643 	"/>
	<polygon points="1002.5,639.6 1002.5,627.9 992.3,622 	"/>
	<polygon points="966.1,621.4 956.1,627.2 976.2,627.2 	"/>
	<polygon points="954.8,641 965,646.9 954.8,629.2 	"/>
	<polygon points="942.3,649.6 942.3,662.7 953.6,669.2 965,662.7 965,649.6 953.6,643 	"/>
	<polygon points="977.5,629.2 967.3,646.9 977.5,641 	"/>
	<polygon points="968.5,721.1 968.5,721.1 968.5,721.1 978.7,727 988.8,721.1 978.7,715.2 	"/>
	<polygon points="968.5,692.3 968.5,692.3 968.5,692.3 978.7,698.2 988.8,692.3 978.7,686.4 	"/>
	<polygon points="991.2,647.5 1001.4,641.7 981,641.7 	"/>
	<polygon points="804,655.4 804,655.4 814.2,649.6 814.2,636.4 804,642.3 	"/>
	<polygon points="773.6,573.2 767,584.6 760.4,596 765.3,604.5 766.7,604.5 784.1,574.4 783.4,573.2 	"/>
	<polygon points="804,577.5 804,590.6 804,590.6 815.4,584 826.7,590.6 826.7,590.6 826.7,590.6 826.7,577.5 815.4,570.9 	"/>
	<polygon points="829,591.9 829,591.9 829,605 840.4,611.6 840.4,598.5 851.7,591.9 840.4,585.4 	"/>
	<polygon points="816.5,648.2 826.7,654.1 826.7,642.3 816.5,636.4 	"/>
	<polygon points="826.7,639.7 826.7,629.2 817.7,634.4 	"/>
	<polygon points="829,654.1 838.1,648.9 829,643.7 	"/>
	<polygon points="726.5,561.2 715,541.3 714.7,540.7 692.3,540.7 691.6,541.9 702.8,561.2 	"/>
	<polygon points="673.6,573.2 672.9,574.4 690.3,604.5 691.6,604.5 696.6,596 683.4,573.2 	"/>
	<polygon points="741.7,517.9 746.6,509.4 745.9,508.2 711.1,508.2 710.4,509.4 715.3,517.9 	"/>
	<polygon points="728.5,564.7 716.7,585.2 727.8,604.5 729.2,604.5 740.3,585.2 740,584.6 	"/>
	<polygon points="726.5,563.5 704.1,563.5 709.7,573.2 686.1,573.2 697.9,593.7 709.7,573.2 715.3,582.9 	"/>
	<polygon points="770.9,573.2 747.2,573.2 752.8,563.5 730.5,563.5 741.7,582.9 747.2,573.2 759.1,593.7 765,583.5 	"/>
	<polygon points="864.3,646.9 864.3,642.3 860.3,644.6 	"/>
	<polygon points="854.1,698.8 864.3,704.7 864.3,692.9 864.3,692.9 854.1,687 	"/>
	<polygon points="866.6,646.9 876.8,641 876.8,629.2 866.6,635.1 	"/>
	<polygon points="841.5,706 851.7,700.1 851.7,687 841.5,692.9 	"/>
	<polygon points="864.3,690.2 864.3,679.8 855.2,685 	"/>
	<polygon points="829,641 839.2,646.9 839.2,635.1 829,629.2 	"/>
	<polygon points="866.6,704.7 875.6,699.5 866.6,694.3 	"/>
	<polygon points="830.2,627.2 840.4,633.1 840.4,627.2 845.5,624.3 840.4,621.3 	"/>
	<polygon points="841.5,646.9 845.5,644.6 841.5,642.3 	"/>
	<polygon points="876.8,654.1 876.8,643.7 867.7,648.9 	"/>
	<polygon points="875.6,627.2 865.4,621.3 860.3,624.3 865.4,627.2 865.4,633.1 	"/>
	<polygon points="866.6,691.6 866.6,691.6 876.8,697.5 876.8,685.7 866.6,679.8 	"/>
</g>
</svg>
